<?xml version="1.0" encoding="UTF-8" standalone="no"?>
<svg
   xmlns:dc="http://purl.org/dc/elements/1.1/"
   xmlns:cc="http://creativecommons.org/ns#"
   xmlns:rdf="http://www.w3.org/1999/02/22-rdf-syntax-ns#"
   xmlns:svg="http://www.w3.org/2000/svg"
   xmlns="http://www.w3.org/2000/svg"
   xmlns:sodipodi="http://sodipodi.sourceforge.net/DTD/sodipodi-0.dtd"
   xmlns:inkscape="http://www.inkscape.org/namespaces/inkscape"
   viewBox="0 0 16 16"
   id="svg2"
   version="1.1"
   inkscape:version="0.48.5 r10040"
   width="100%"
   height="100%"
   sodipodi:docname="papka.svg">
  <metadata
     id="metadata14">
    <rdf:RDF>
      <cc:Work
         rdf:about="">
        <dc:format>image/svg+xml</dc:format>
        <dc:type
           rdf:resource="http://purl.org/dc/dcmitype/StillImage" />
        <dc:title></dc:title>
      </cc:Work>
    </rdf:RDF>
  </metadata>
  <defs
     id="defs12" />
  <sodipodi:namedview
     pagecolor="#ffffff"
     bordercolor="#666666"
     borderopacity="1"
     objecttolerance="10"
     gridtolerance="10"
     guidetolerance="10"
     inkscape:pageopacity="0"
     inkscape:pageshadow="2"
     inkscape:window-width="1920"
     inkscape:window-height="1052"
     id="namedview10"
     showgrid="true"
     inkscape:zoom="40.438867"
     inkscape:cx="7.815898"
     inkscape:cy="9.6334566"
     inkscape:window-x="0"
     inkscape:window-y="28"
     inkscape:window-maximized="1"
     inkscape:current-layer="svg2">
    <inkscape:grid
       type="xygrid"
       id="grid3004" />
  </sodipodi:namedview>
  <g
     transform="translate(-460.99875,-176.0004)"
     id="layer13"
     style="fill:#bebebe;fill-opacity:1">
    <g
       transform="translate(234,-820)"
       id="g14176"
       style="fill:#bebebe;fill-opacity:1">
      <path
         d="m 233.99915,1007.0004 0,4 1.9996,0 0,-4 z"
         style="fill:#bebebe;fill-opacity:1"
         id="rect3861"
         inkscape:connector-curvature="0"
         sodipodi:nodetypes="ccccc" />
    </g>
  </g>
  <path
     style="fill:#bebebe;fill-opacity:1"
     sodipodi:nodetypes="ssccssccs"
     inkscape:connector-curvature="0"
     d="m 15.252804,5.0006815 -14.50810452,0 c -0.73748837,0 -0.77536548,0.3833017 -0.73369947,0.8540962 L 0.55303584,11.145904 C 0.59053525,11.612532 0.69886687,12 1.4321886,12 l 13.1747924,0 c 0.749988,0 0.837487,-0.383302 0.879153,-0.854096 l 0.504159,-5.3869517 c 0.0375,-0.4666282 0,-0.7582708 -0.737489,-0.7582708 z"
     id="path2988" />
  <g
     id="g2990"
     transform="matrix(0.04166601,0,0,0.04166323,-2.5166112,-5.3319037)">
    <path
       style="fill:#bebebe;fill-opacity:1"
       sodipodi:nodetypes="ccscsccccc"
       inkscape:connector-curvature="0"
       d="m 418.81115,191.30396 c -0.5,-12.4 -4.5,-15.3 -15.1,-15.3 l -135.81115,0 c -21.8,0 -26.89349,-13.79758 -40.9,-33.39738 -12.7501,-14.60413 -8.3,-14.6 -36.6,-14.6 -22.6,0 -75.3,0 -75.3,0 -17.4,0 -23.6,-1.5 -25.2,16.6 -1.5,16.7 -5,73.19738 -5.5,79.39738 l 336.00529,0 z"
       id="path2992" />
  </g>
  <rect
     style="opacity:1;fill:#bebebe;fill-opacity:1;stroke:none"
     id="rect3767"
     width="14"
     height="2"
     x="1"
     y="14"
     rx="1"
     ry="1" />
</svg>
