<?xml version="1.0" encoding="UTF-8" standalone="no"?>
<svg
   xmlns:dc="http://purl.org/dc/elements/1.1/"
   xmlns:cc="http://creativecommons.org/ns#"
   xmlns:rdf="http://www.w3.org/1999/02/22-rdf-syntax-ns#"
   xmlns:svg="http://www.w3.org/2000/svg"
   xmlns="http://www.w3.org/2000/svg"
   xmlns:sodipodi="http://sodipodi.sourceforge.net/DTD/sodipodi-0.dtd"
   xmlns:inkscape="http://www.inkscape.org/namespaces/inkscape"
   height="16"
   id="Capa_1"
   version="1.1"
   viewBox="0 0 16 16"
   width="16"
   xml:space="preserve"
   inkscape:version="0.48.5 r10040"
   sodipodi:docname="mreža.svg"><metadata
     id="metadata39"><rdf:RDF><cc:Work
         rdf:about=""><dc:format>image/svg+xml</dc:format><dc:type
           rdf:resource="http://purl.org/dc/dcmitype/StillImage" /></cc:Work></rdf:RDF></metadata><defs
     id="defs37" /><sodipodi:namedview
     pagecolor="#ffffff"
     bordercolor="#666666"
     borderopacity="1"
     objecttolerance="10"
     gridtolerance="10"
     guidetolerance="10"
     inkscape:pageopacity="0"
     inkscape:pageshadow="2"
     inkscape:window-width="1920"
     inkscape:window-height="1023"
     id="namedview35"
     showgrid="true"
     inkscape:zoom="29.842473"
     inkscape:cx="14.339905"
     inkscape:cy="12.580822"
     inkscape:window-x="0"
     inkscape:window-y="28"
     inkscape:window-maximized="1"
     inkscape:current-layer="Capa_1"><inkscape:grid
       type="xygrid"
       id="grid3784"
       empspacing="5"
       visible="true"
       enabled="true"
       snapvisiblegridlinesonly="true" /></sodipodi:namedview><path
     style="fill:#bebebe;fill-opacity:1"
     d="M 8 0 C 7.0097391 0 6.0629782 0.17078261 5.1875 0.5 C 5.7357324 0.77054915 6.2487082 1.0922552 6.75 1.4375 C 6.816312 1.3845873 6.8959481 1.3567661 6.96875 1.3125 C 7.0565928 1.2584817 7.1224989 1.1965306 7.21875 1.15625 C 7.2486596 1.1435993 7.2818678 1.136216 7.3125 1.125 C 7.4000839 1.0937307 7.5011215 1.0502451 7.59375 1.03125 C 7.7239452 1.0046082 7.8619288 1 8 1 C 8.1622336 1 8.317714 1.0260415 8.46875 1.0625 C 8.6200618 1.0982764 8.7699042 1.150062 8.90625 1.21875 C 8.9187265 1.2250845 8.9251759 1.2434132 8.9375 1.25 C 9.0591694 1.3146637 9.1765802 1.3822324 9.28125 1.46875 C 9.3273405 1.5072491 9.363817 1.551317 9.40625 1.59375 C 9.4701833 1.6572621 9.5389467 1.7093157 9.59375 1.78125 C 10.364998 1.4761405 11.171818 1.221948 12 1.0625 C 10.825565 0.38580438 9.4528696 -1.4802974e-16 8 0 z M 3.8125 1.1875 C 2.9375435 1.7281957 2.1705 2.4239131 1.5625 3.25 C 1.9675719 3.9671459 2.4351467 4.6602949 2.96875 5.28125 C 2.9876683 5.2699374 3.0085622 5.2561838 3.03125 5.25 C 3.1198716 5.2010754 3.2163109 5.1602195 3.3125 5.125 C 3.3339161 5.1157108 3.3528482 5.1010027 3.375 5.09375 C 3.4056518 5.083672 3.4374605 5.0711391 3.46875 5.0625 C 3.6371022 5.0164918 3.8170557 5 4 5 C 4.1412575 5 4.2733161 5.0023631 4.40625 5.03125 C 4.5038964 5.0512313 4.5956033 5.0913521 4.6875 5.125 C 5.14899 4.6372141 5.6332797 4.1714102 6.15625 3.75 C 6.1127149 3.6426968 6.058112 3.5215399 6.03125 3.40625 C 6.0292127 3.3962939 6.0331388 3.3850094 6.03125 3.375 C 6.0039537 3.2497242 6 3.1328935 6 3 C 6 2.8032486 6.0408073 2.6171014 6.09375 2.4375 C 5.3762092 1.9511145 4.6302235 1.5165709 3.8125 1.1875 z M 13.375 2.0625 C 12.194011 2.1764172 11.063666 2.4832392 10 2.90625 C 10.001457 2.937565 10 2.9683248 10 3 C 10 3.1967514 9.9591927 3.3828986 9.90625 3.5625 C 9.8543604 3.7385291 9.7828694 3.9103232 9.6875 4.0625 C 10.646863 5.2258172 11.403262 6.5596697 11.9375 8 C 11.958459 7.9993503 11.978883 8 12 8 C 12.117792 8 12.231731 8.0116549 12.34375 8.03125 C 12.363873 8.034728 12.386338 8.0271754 12.40625 8.03125 C 12.607492 8.0730441 12.795024 8.1523825 12.96875 8.25 C 12.980974 8.2567482 12.987934 8.2742551 13 8.28125 C 13.009593 8.2933784 13.019345 8.3052618 13.03125 8.3125 C 13.100456 8.3553529 13.186774 8.386722 13.25 8.4375 C 13.308702 8.4843405 13.353209 8.5407087 13.40625 8.59375 C 13.428097 8.6159357 13.447948 8.633063 13.46875 8.65625 C 13.489 8.6783982 13.512 8.6957047 13.53125 8.71875 C 13.540875 8.7302726 13.553132 8.7382596 13.5625 8.75 C 13.565938 8.7588741 13.556853 8.7739982 13.5625 8.78125 C 13.570006 8.7935593 13.585026 8.8007624 13.59375 8.8125 C 13.625364 8.8562964 13.661667 8.8970514 13.6875 8.9375 C 13.74372 9.0272081 13.801692 9.1191974 13.84375 9.21875 C 13.885497 9.3174516 13.911902 9.4252035 13.9375 9.53125 C 14.613973 9.4482892 15.263934 9.3139529 15.90625 9.125 C 15.95738 8.7590869 16 8.3805217 16 8 C 16 5.6486956 14.99013 3.5261522 13.375 2.0625 z M 0.84375 4.40625 C 0.29992391 5.48625 3.7007434e-16 6.7083478 0 8 C 0 9.496 0.41021736 10.896185 1.125 12.09375 C 1.3678727 10.724365 1.8179305 9.4156697 2.4375 8.21875 C 2.3676854 8.1290924 2.3039421 8.0384277 2.25 7.9375 C 2.2019456 7.8475884 2.1590551 7.7537031 2.125 7.65625 C 2.0938134 7.5727697 2.0507321 7.4946161 2.03125 7.40625 C 2.0271754 7.3863378 2.034728 7.363873 2.03125 7.34375 C 2.0108502 7.2342749 2 7.1156941 2 7 C 2 6.7089072 2.0756844 6.4369821 2.1875 6.1875 C 1.6937115 5.6298614 1.2417771 5.0392935 0.84375 4.40625 z M 6.90625 4.6875 C 6.4527134 5.0468039 6.0278699 5.4258989 5.625 5.84375 C 5.633127 5.8552143 5.6483418 5.8633567 5.65625 5.875 C 5.7281329 5.9814007 5.7931472 6.0991117 5.84375 6.21875 C 5.8661292 6.2707565 5.8882009 6.3208621 5.90625 6.375 C 5.9133807 6.3967792 5.9311041 6.4153985 5.9375 6.4375 C 5.9429822 6.4564441 5.9325675 6.4808289 5.9375 6.5 C 5.9365863 6.5107315 5.9351729 6.5216094 5.9375 6.53125 C 5.9739585 6.682286 6 6.8377664 6 7 C 6 7.265787 5.9378799 7.517993 5.84375 7.75 C 7.1239221 8.5475034 8.5617969 9.1149045 10.09375 9.40625 C 10.113063 9.3441565 10.131385 9.2778382 10.15625 9.21875 C 10.16882 9.1890309 10.173555 9.1539644 10.1875 9.125 C 10.229957 9.0363647 10.289223 8.955476 10.34375 8.875 C 10.47066 8.6871477 10.630813 8.5412851 10.8125 8.40625 C 10.824565 8.3972828 10.831478 8.3836996 10.84375 8.375 C 10.354231 7.0825969 9.6475128 5.8920865 8.78125 4.84375 C 8.7722771 4.8475452 8.7590392 4.8400826 8.75 4.84375 C 8.6339965 4.890815 8.5002758 4.9414537 8.375 4.96875 C 8.2541173 4.9915604 8.1275128 5 8 5 C 7.7928932 5 7.5941278 4.9646861 7.40625 4.90625 C 7.3397074 4.8871612 7.2821501 4.8692748 7.21875 4.84375 C 7.1547397 4.8166759 7.0916493 4.7833441 7.03125 4.75 C 6.9891485 4.7272315 6.9461707 4.7132753 6.90625 4.6875 z M 5.09375 8.65625 C 4.9401527 8.7570309 4.7728522 8.8505434 4.59375 8.90625 C 4.4058722 8.9646861 4.2071068 9 4 9 C 3.8032486 9 3.6171014 8.9591927 3.4375 8.90625 C 2.7369109 10.297972 2.28965 11.840971 2.15625 13.46875 C 2.9179891 14.285445 3.831 14.93326 4.875 15.375 C 6.1587385 13.400467 7.9687652 11.75609 10.125 10.65625 C 10.117456 10.634661 10.100568 10.615669 10.09375 10.59375 C 8.2893133 10.280303 6.6139595 9.604976 5.125 8.65625 C 5.1175321 8.6514916 5.1012081 8.6610224 5.09375 8.65625 z M 15.625 10.4375 C 15.058327 10.574576 14.467842 10.655814 13.875 10.71875 C 13.866844 10.740044 13.852605 10.760313 13.84375 10.78125 C 13.799692 10.885276 13.748031 10.99977 13.6875 11.09375 C 13.679952 11.10544 13.664033 11.113479 13.65625 11.125 C 13.584842 11.230623 13.496136 11.316328 13.40625 11.40625 C 13.315768 11.496732 13.231401 11.584367 13.125 11.65625 C 13.02128 11.730354 12.900888 11.793147 12.78125 11.84375 C 12.801353 12.144838 12.8125 12.443139 12.8125 12.75 C 12.8125 13.327565 12.788315 13.909967 12.71875 14.46875 C 14.075098 13.477793 15.104305 12.073326 15.625 10.4375 z M 10.84375 11.625 C 8.8900075 12.580742 7.2581901 14.00844 6.0625 15.75 C 6.6845869 15.905305 7.3295652 16 8 16 C 9.2067826 16 10.349087 15.728434 11.375 15.25 C 11.53987 14.443565 11.625 13.604435 11.625 12.75 C 11.625 12.483832 11.61024 12.228275 11.59375 11.96875 C 11.454433 11.940242 11.314622 11.899587 11.1875 11.84375 C 11.152954 11.82742 11.122284 11.805717 11.09375 11.78125 C 11.081273 11.774916 11.074824 11.756587 11.0625 11.75 C 11.042201 11.739151 11.019873 11.730271 11 11.71875 C 10.959616 11.695338 10.914233 11.680968 10.875 11.65625 C 10.862525 11.647822 10.856022 11.6337 10.84375 11.625 z "
     id="path3" /><g
     id="g5"
     transform="matrix(0.17391304,0,0,0.17391304,0,-1.7391304e-4)" /><g
     id="g7"
     transform="matrix(0.17391304,0,0,0.17391304,0,-1.7391304e-4)" /><g
     id="g9"
     transform="matrix(0.17391304,0,0,0.17391304,0,-1.7391304e-4)" /><g
     id="g11"
     transform="matrix(0.17391304,0,0,0.17391304,0,-1.7391304e-4)" /><g
     id="g13"
     transform="matrix(0.17391304,0,0,0.17391304,0,-1.7391304e-4)" /><g
     id="g15"
     transform="matrix(0.17391304,0,0,0.17391304,0,-1.7391304e-4)" /><g
     id="g17"
     transform="matrix(0.17391304,0,0,0.17391304,0,-1.7391304e-4)" /><g
     id="g19"
     transform="matrix(0.17391304,0,0,0.17391304,0,-1.7391304e-4)" /><g
     id="g21"
     transform="matrix(0.17391304,0,0,0.17391304,0,-1.7391304e-4)" /><g
     id="g23"
     transform="matrix(0.17391304,0,0,0.17391304,0,-1.7391304e-4)" /><g
     id="g25"
     transform="matrix(0.17391304,0,0,0.17391304,0,-1.7391304e-4)" /><g
     id="g27"
     transform="matrix(0.17391304,0,0,0.17391304,0,-1.7391304e-4)" /><g
     id="g29"
     transform="matrix(0.17391304,0,0,0.17391304,0,-1.7391304e-4)" /><g
     id="g31"
     transform="matrix(0.17391304,0,0,0.17391304,0,-1.7391304e-4)" /><g
     id="g33"
     transform="matrix(0.17391304,0,0,0.17391304,0,-1.7391304e-4)" /></svg>