<?xml version="1.0" encoding="UTF-8" standalone="no"?>
<svg
   xmlns:dc="http://purl.org/dc/elements/1.1/"
   xmlns:cc="http://creativecommons.org/ns#"
   xmlns:rdf="http://www.w3.org/1999/02/22-rdf-syntax-ns#"
   xmlns:svg="http://www.w3.org/2000/svg"
   xmlns="http://www.w3.org/2000/svg"
   xmlns:sodipodi="http://sodipodi.sourceforge.net/DTD/sodipodi-0.dtd"
   xmlns:inkscape="http://www.inkscape.org/namespaces/inkscape"
   enable-background="new 0 0 32 32"
   height="16"
   id="Layer_1"
   version="1.1"
   viewBox="0 0 16 16"
   width="16"
   xml:space="preserve"
   inkscape:version="0.48.5 r10040"
   sodipodi:docname="košče-pŭlno.svg"><metadata
     id="metadata12"><rdf:RDF><cc:Work
         rdf:about=""><dc:format>image/svg+xml</dc:format><dc:type
           rdf:resource="http://purl.org/dc/dcmitype/StillImage" /><dc:title /></cc:Work></rdf:RDF></metadata><defs
     id="defs10" /><sodipodi:namedview
     pagecolor="#ffffff"
     bordercolor="#666666"
     borderopacity="1"
     objecttolerance="10"
     gridtolerance="10"
     guidetolerance="10"
     inkscape:pageopacity="0"
     inkscape:pageshadow="2"
     inkscape:window-width="1920"
     inkscape:window-height="1023"
     id="namedview8"
     showgrid="true"
     inkscape:zoom="45.254834"
     inkscape:cx="3.4440504"
     inkscape:cy="9.5145214"
     inkscape:window-x="0"
     inkscape:window-y="28"
     inkscape:window-maximized="1"
     inkscape:current-layer="Layer_1"
     showguides="true"
     inkscape:guide-bbox="true"><inkscape:grid
       type="xygrid"
       id="grid2991"
       empspacing="5"
       visible="true"
       enabled="true"
       snapvisiblegridlinesonly="true" /></sodipodi:namedview><rect
     style="fill:#ee4444;fill-opacity:1;stroke:none"
     id="rect3832"
     width="16"
     height="2"
     x="0"
     y="4"
     rx="1"
     ry="1"
     class="error" /><path
     style="fill:#ee4444;fill-opacity:1;stroke:none"
     d="m 2,5 0,9 c 0,1 1,2 2,2 l 8,0 c 1,0 2,-1 2,-2 l 0,-9 z m 4,2 c 0.554,0 1,0.446 1,1 l 0,5 C 7,13.554 6.554,14 6,14 5.446,14 5,13.554 5,13 L 5,8 C 5,7.446 5.446,7 6,7 z m 4,0 c 0.554,0 1,0.446 1,1 l 0,5 c 0,0.554 -0.446,1 -1,1 C 9.446,14 9,13.554 9,13 L 9,8 C 9,7.446 9.446,7 10,7 z"
     id="rect3834"
     inkscape:connector-curvature="0"
     sodipodi:nodetypes="cccccccssssssssssssss"
     class="error" /><rect
     style="fill:#ee4444;fill-opacity:1;stroke:none"
     id="rect3850"
     width="16"
     height="2"
     x="0"
     y="1"
     rx="1"
     class="error" /><rect
     y="-1.4901159e-08"
     x="4"
     height="2"
     width="8"
     id="rect3852"
     style="fill:#ee4444;fill-opacity:1;stroke:none"
     rx="1"
     class="error" /></svg>