<?xml version="1.0" encoding="UTF-8" standalone="no"?>
<svg
   xmlns:dc="http://purl.org/dc/elements/1.1/"
   xmlns:cc="http://creativecommons.org/ns#"
   xmlns:rdf="http://www.w3.org/1999/02/22-rdf-syntax-ns#"
   xmlns:svg="http://www.w3.org/2000/svg"
   xmlns="http://www.w3.org/2000/svg"
   xmlns:sodipodi="http://sodipodi.sourceforge.net/DTD/sodipodi-0.dtd"
   xmlns:inkscape="http://www.inkscape.org/namespaces/inkscape"
   enable-background="new 0 0 32 32"
   height="16"
   id="Layer_1"
   version="1.1"
   viewBox="0 0 16 16"
   width="16"
   xml:space="preserve"
   inkscape:version="0.48.5 r10040"
   sodipodi:docname="svaljanija.svg"><metadata
     id="metadata12"><rdf:RDF><cc:Work
         rdf:about=""><dc:format>image/svg+xml</dc:format><dc:type
           rdf:resource="http://purl.org/dc/dcmitype/StillImage" /><dc:title /></cc:Work></rdf:RDF></metadata><defs
     id="defs10" /><sodipodi:namedview
     pagecolor="#ffffff"
     bordercolor="#666666"
     borderopacity="1"
     objecttolerance="10"
     gridtolerance="10"
     guidetolerance="10"
     inkscape:pageopacity="0"
     inkscape:pageshadow="2"
     inkscape:window-width="1920"
     inkscape:window-height="1023"
     id="namedview8"
     showgrid="true"
     inkscape:zoom="68.678256"
     inkscape:cx="2.8900451"
     inkscape:cy="10.255885"
     inkscape:window-x="0"
     inkscape:window-y="28"
     inkscape:window-maximized="1"
     inkscape:current-layer="Layer_1"><inkscape:grid
       type="xygrid"
       id="grid2991"
       empspacing="5"
       visible="true"
       enabled="true"
       snapvisiblegridlinesonly="true" /></sodipodi:namedview><path
     style="fill:#bebebe;fill-opacity:1;stroke:none"
     d="M 2,0 C 0.892,0 0,0.892 0,2 l 0,10 c 0,1.108 0.892,2 2,2 l 12,0 c 1.108,0 2,-0.892 2,-2 L 16,2 C 16,0.892 15.108,0 14,0 l -2,0 0,2 2,0 0,9 L 2,11 2,2 4,2 4,0 z"
     id="rect3830"
     inkscape:connector-curvature="0"
     sodipodi:nodetypes="ssssssssccccccccs" /><path
     style="fill:#bebebe;fill-opacity:1;stroke:none"
     d="m 6,14 -3,2 10,0 -3,-2 0,-1 -4,0 z"
     id="path3835"
     inkscape:connector-curvature="0"
     sodipodi:nodetypes="ccccccc" /><rect
     y="0"
     x="6"
     height="6"
     width="4"
     id="rect2989"
     style="fill:#bebebe;fill-opacity:1;stroke:none" /><path
     style="fill:#bebebe;fill-opacity:1;stroke:none"
     d="M 7,6 4,6 8,10 12,6 9,6 8,5 z"
     id="path2992"
     inkscape:connector-curvature="0"
     sodipodi:nodetypes="ccccccc" /></svg>