<?xml version="1.0" encoding="UTF-8" standalone="no"?>
<svg
   xmlns:dc="http://purl.org/dc/elements/1.1/"
   xmlns:cc="http://creativecommons.org/ns#"
   xmlns:rdf="http://www.w3.org/1999/02/22-rdf-syntax-ns#"
   xmlns:svg="http://www.w3.org/2000/svg"
   xmlns="http://www.w3.org/2000/svg"
   xmlns:sodipodi="http://sodipodi.sourceforge.net/DTD/sodipodi-0.dtd"
   xmlns:inkscape="http://www.inkscape.org/namespaces/inkscape"
   enable-background="new 0 0 32 32"
   height="16"
   id="Layer_1"
   version="1.1"
   viewBox="0 0 16 16"
   width="16"
   xml:space="preserve"
   inkscape:version="0.48.5 r10040"
   sodipodi:docname="tŭrsene.svg"><metadata
     id="metadata12"><rdf:RDF><cc:Work
         rdf:about=""><dc:format>image/svg+xml</dc:format><dc:type
           rdf:resource="http://purl.org/dc/dcmitype/StillImage" /><dc:title /></cc:Work></rdf:RDF></metadata><defs
     id="defs10" /><sodipodi:namedview
     pagecolor="#ffffff"
     bordercolor="#666666"
     borderopacity="1"
     objecttolerance="10"
     gridtolerance="10"
     guidetolerance="10"
     inkscape:pageopacity="0"
     inkscape:pageshadow="2"
     inkscape:window-width="1920"
     inkscape:window-height="1025"
     id="namedview8"
     showgrid="true"
     inkscape:zoom="68.151718"
     inkscape:cx="7.5655372"
     inkscape:cy="2.3594804"
     inkscape:window-x="0"
     inkscape:window-y="28"
     inkscape:window-maximized="1"
     inkscape:current-layer="Layer_1"><inkscape:grid
       type="xygrid"
       id="grid2991"
       empspacing="5"
       visible="true"
       enabled="true"
       snapvisiblegridlinesonly="true" /></sodipodi:namedview><path
     style="fill:#bebebe;fill-opacity:1;stroke:none"
     d="M 6 0 C 2.6862915 3.5527137e-15 0 2.6862915 0 6 C 0 9.3137085 2.6862915 12 6 12 C 9.3137085 12 12 9.3137085 12 6 C 12 2.6862915 9.3137085 -8.8817842e-16 6 0 z M 6 2 C 8.209139 2 10 3.790861 10 6 C 10 8.209139 8.209139 10 6 10 C 3.790861 10 2 8.209139 2 6 C 2 3.790861 3.790861 2 6 2 z "
     id="path2983" /><rect
     style="fill:#bebebe;fill-opacity:1;stroke:none"
     id="rect3756"
     width="2.0139344"
     height="9.062705"
     x="-1.0069673"
     y="13.146317"
     rx="1.0069672"
     ry="1.0069672"
     transform="matrix(0.70710678,-0.70710678,0.70710678,0.70710678,0,0)" /></svg>