<?xml version="1.0" encoding="UTF-8" standalone="no"?>
<svg
   xmlns:dc="http://purl.org/dc/elements/1.1/"
   xmlns:cc="http://creativecommons.org/ns#"
   xmlns:rdf="http://www.w3.org/1999/02/22-rdf-syntax-ns#"
   xmlns:svg="http://www.w3.org/2000/svg"
   xmlns="http://www.w3.org/2000/svg"
   xmlns:sodipodi="http://sodipodi.sourceforge.net/DTD/sodipodi-0.dtd"
   xmlns:inkscape="http://www.inkscape.org/namespaces/inkscape"
   viewBox="0 0 16 16"
   id="svg2"
   version="1.1"
   inkscape:version="0.48.5 r10040"
   width="100%"
   height="100%"
   sodipodi:docname="šabloni.svg">
  <metadata
     id="metadata12">
    <rdf:RDF>
      <cc:Work
         rdf:about="">
        <dc:format>image/svg+xml</dc:format>
        <dc:type
           rdf:resource="http://purl.org/dc/dcmitype/StillImage" />
      </cc:Work>
    </rdf:RDF>
  </metadata>
  <defs
     id="defs10" />
  <sodipodi:namedview
     pagecolor="#ffffff"
     bordercolor="#666666"
     borderopacity="1"
     objecttolerance="10"
     gridtolerance="10"
     guidetolerance="10"
     inkscape:pageopacity="0"
     inkscape:pageshadow="2"
     inkscape:window-width="1920"
     inkscape:window-height="1052"
     id="namedview8"
     showgrid="true"
     inkscape:zoom="95.905586"
     inkscape:cx="8.295113"
     inkscape:cy="2.5522573"
     inkscape:window-x="0"
     inkscape:window-y="28"
     inkscape:window-maximized="1"
     inkscape:current-layer="svg2">
    <inkscape:grid
       type="xygrid"
       id="grid2989" />
  </sodipodi:namedview>
  <path
     style="fill:#bebebe;fill-opacity:1;stroke:none"
     d="M 4 0 C 2.892 0 2 0.892 2 2 L 2 11 L 3 11 L 3 10 L 4 10 L 4 2 L 10 2 L 11 3 L 12 4 L 12 11 L 13 11 L 13 10 L 14 10 L 14 5 L 9 0 L 4 0 z M 13 11 L 13 12 L 14 12 L 14 11 L 13 11 z M 13 12 L 12 12 L 12 13 L 13 13 L 13 12 z M 13 13 L 13 14 L 14 14 L 14 13 L 13 13 z M 13 14 L 12 14 L 12 15 L 13 15 L 13 14 z M 13 15 L 13 15.71875 C 13.302358 15.543853 13.543853 15.302358 13.71875 15 L 13 15 z M 12 15 L 11 15 L 11 16 L 12 16 L 12 15 z M 11 15 L 11 14 L 10 14 L 10 15 L 11 15 z M 10 15 L 9 15 L 9 16 L 10 16 L 10 15 z M 9 15 L 9 14 L 8 14 L 8 15 L 9 15 z M 8 15 L 7 15 L 7 16 L 8 16 L 8 15 z M 7 15 L 7 14 L 6 14 L 6 15 L 7 15 z M 6 15 L 5 15 L 5 16 L 6 16 L 6 15 z M 5 15 L 5 14 L 4 14 L 4 15 L 5 15 z M 4 15 L 3 15 L 3 15.71875 C 3.2945508 15.88913 3.6339013 16 4 16 L 4 15 z M 3 15 L 3 14 L 2 14 C 2 14.366099 2.1108696 14.705449 2.28125 15 L 3 15 z M 3 14 L 4 14 L 4 13 L 3 13 L 3 14 z M 3 13 L 3 12 L 2 12 L 2 13 L 3 13 z M 3 12 L 4 12 L 4 11 L 3 11 L 3 12 z "
     id="rect2991" />
  <path
     style="fill:#bebebe;fill-opacity:1;stroke:none"
     d="m 9,0 0,5 5,0 z"
     id="path2997"
     inkscape:connector-curvature="0"
     sodipodi:nodetypes="cccc" />
  <rect
     style="fill:#bebebe;fill-opacity:1;stroke:none"
     id="rect3767"
     width="4"
     height="1"
     x="5"
     y="7"
     rx="0.25"
     ry="0.25" />
  <rect
     ry="0.25"
     rx="0.25"
     y="9"
     x="5"
     height="1"
     width="6"
     id="rect3771"
     style="fill:#bebebe;fill-opacity:1;stroke:none" />
  <path
     style="fill:#bebebe;fill-opacity:1;stroke:none"
     d="M 5.25 11 C 5.1115 11 5 11.1115 5 11.25 L 5 11.75 C 5 11.8885 5.1115 12 5.25 12 L 6 12 L 6 11 L 5.25 11 z M 7 11 L 7 12 L 8 12 L 8 11 L 7 11 z M 9 11 L 9 12 L 10 12 L 10 11 L 9 11 z "
     id="rect3775" />
</svg>
