<?xml version="1.0" encoding="UTF-8" standalone="no"?>
<!-- Created with Inkscape (http://www.inkscape.org/) -->

<svg
   xmlns:dc="http://purl.org/dc/elements/1.1/"
   xmlns:cc="http://creativecommons.org/ns#"
   xmlns:rdf="http://www.w3.org/1999/02/22-rdf-syntax-ns#"
   xmlns:svg="http://www.w3.org/2000/svg"
   xmlns="http://www.w3.org/2000/svg"
   xmlns:sodipodi="http://sodipodi.sourceforge.net/DTD/sodipodi-0.dtd"
   xmlns:inkscape="http://www.inkscape.org/namespaces/inkscape"
   width="16"
   height="16"
   id="svg2"
   version="1.1"
   inkscape:version="0.48.5 r10040"
   sodipodi:docname="spodeljana.svg">
  <defs
     id="defs4" />
  <sodipodi:namedview
     id="base"
     pagecolor="#ffffff"
     bordercolor="#666666"
     borderopacity="1.0"
     inkscape:pageopacity="0.0"
     inkscape:pageshadow="2"
     inkscape:zoom="53.401678"
     inkscape:cx="5.8208391"
     inkscape:cy="5.7899538"
     inkscape:document-units="px"
     inkscape:current-layer="layer1"
     showgrid="true"
     inkscape:window-width="1920"
     inkscape:window-height="1052"
     inkscape:window-x="0"
     inkscape:window-y="28"
     inkscape:window-maximized="1"
     showguides="true"
     inkscape:guide-bbox="true">
    <inkscape:grid
       type="xygrid"
       id="grid2985"
       empspacing="5"
       visible="true"
       enabled="true"
       snapvisiblegridlinesonly="true" />
  </sodipodi:namedview>
  <metadata
     id="metadata7">
    <rdf:RDF>
      <cc:Work
         rdf:about="">
        <dc:format>image/svg+xml</dc:format>
        <dc:type
           rdf:resource="http://purl.org/dc/dcmitype/StillImage" />
        <dc:title></dc:title>
      </cc:Work>
    </rdf:RDF>
  </metadata>
  <g
     inkscape:label="Layer 1"
     inkscape:groupmode="layer"
     id="layer1"
     transform="translate(0,-1036.3622)">
    <path
       style="fill:#bebebe;fill-opacity:1;stroke:none"
       d="M 14,7.5 6,13 7,15 15,9.5 z"
       id="path3782"
       inkscape:connector-curvature="0"
       transform="translate(0,1036.3622)"
       sodipodi:nodetypes="ccccc" />
    <path
       style="fill:#bebebe;fill-opacity:1;stroke:none"
       d="M 5.5,14 3,4 5,3 7.5,14 z"
       id="path3012"
       inkscape:connector-curvature="0"
       transform="translate(0,1036.3622)"
       sodipodi:nodetypes="ccccc" />
    <path
       sodipodi:type="arc"
       style="fill:#bebebe;fill-opacity:1;stroke:none"
       id="path2987"
       sodipodi:cx="-3"
       sodipodi:cy="8.5"
       sodipodi:rx="2"
       sodipodi:ry="1.5"
       d="m -1,8.5 a 2,1.5 0 1 1 -4,0 2,1.5 0 1 1 4,0 z"
       transform="matrix(2,0,0,2.6666667,11,1017.6955)" />
    <path
       transform="matrix(1.25,0,0,1.6666666,10.25,1035.6955)"
       d="m -1,8.5 a 2,1.5 0 1 1 -4,0 2,1.5 0 1 1 4,0 z"
       sodipodi:ry="1.5"
       sodipodi:rx="2"
       sodipodi:cy="8.5"
       sodipodi:cx="-3"
       id="path2989"
       style="fill:#bebebe;fill-opacity:1;stroke:none"
       sodipodi:type="arc" />
    <path
       sodipodi:type="arc"
       style="fill:#bebebe;fill-opacity:1;stroke:none"
       id="path2991"
       sodipodi:cx="-3"
       sodipodi:cy="8.5"
       sodipodi:rx="2"
       sodipodi:ry="1.5"
       d="m -1,8.5 a 2,1.5 0 1 1 -4,0 2,1.5 0 1 1 4,0 z"
       transform="matrix(1,0,0,1.3333333,17,1034.0289)" />
  </g>
</svg>
