<?xml version="1.0" encoding="UTF-8" standalone="no"?>
<svg
   xmlns:dc="http://purl.org/dc/elements/1.1/"
   xmlns:cc="http://creativecommons.org/ns#"
   xmlns:rdf="http://www.w3.org/1999/02/22-rdf-syntax-ns#"
   xmlns:svg="http://www.w3.org/2000/svg"
   xmlns="http://www.w3.org/2000/svg"
   xmlns:sodipodi="http://sodipodi.sourceforge.net/DTD/sodipodi-0.dtd"
   xmlns:inkscape="http://www.inkscape.org/namespaces/inkscape"
   viewBox="0 0 16 16"
   id="svg2"
   version="1.1"
   inkscape:version="0.48.5 r10040"
   width="100%"
   height="100%"
   sodipodi:docname="papka.svg">
  <metadata
     id="metadata14">
    <rdf:RDF>
      <cc:Work
         rdf:about="">
        <dc:format>image/svg+xml</dc:format>
        <dc:type
           rdf:resource="http://purl.org/dc/dcmitype/StillImage" />
      </cc:Work>
    </rdf:RDF>
  </metadata>
  <defs
     id="defs12" />
  <sodipodi:namedview
     pagecolor="#ffffff"
     bordercolor="#666666"
     borderopacity="1"
     objecttolerance="10"
     gridtolerance="10"
     guidetolerance="10"
     inkscape:pageopacity="0"
     inkscape:pageshadow="2"
     inkscape:window-width="1920"
     inkscape:window-height="1052"
     id="namedview10"
     showgrid="true"
     inkscape:zoom="62.212759"
     inkscape:cx="7.8992763"
     inkscape:cy="9.664862"
     inkscape:window-x="0"
     inkscape:window-y="28"
     inkscape:window-maximized="1"
     inkscape:current-layer="svg2">
    <inkscape:grid
       type="xygrid"
       id="grid3004" />
  </sodipodi:namedview>
  <g
     id="g2986"
     transform="matrix(0.04166601,0,0,0.04166323,-2.5166112,-2.3320619)">
    <path
       id="path2988"
       d="m 426.47269,199.99854 -348.2,0 c -17.7,0 -18.609065,9.2 -17.609065,20.5 L 73.67269,395.5 c 0.9,11.2 3.5,20.5 21.1,20.5 l 316.2,0 c 18,0 20.1,-9.2 21.1,-20.5 l 12.1,-177.30146 c 0.9,-11.2 0,-18.2 -17.7,-18.2 z"
       inkscape:connector-curvature="0"
       sodipodi:nodetypes="ssccssccs"
       style="fill:#bebebe;fill-opacity:1" />
    <g
       id="g2990">
      <path
         id="path2992"
         d="m 418.81115,143.3 c -0.5,-12.4 -4.5,-15.3 -15.1,-15.3 L 267.9,128 c -21.8,0 -26.89349,-13.79758 -40.9,-33.397381 -12.7501,-14.604131 -8.3,-14.6 -36.6,-14.6 -22.6,0 -75.3,0 -75.3,0 -17.4,0 -23.6,-1.5 -25.2,16.6 C 88.4,113.30262 84.9,169.8 84.4,176 l 336.00529,0 z"
         inkscape:connector-curvature="0"
         sodipodi:nodetypes="ccscsccccc"
         style="fill:#bebebe;fill-opacity:1" />
    </g>
  </g>
</svg>
