<?xml version="1.0" encoding="UTF-8" standalone="no"?>
<svg
   xmlns:dc="http://purl.org/dc/elements/1.1/"
   xmlns:cc="http://creativecommons.org/ns#"
   xmlns:rdf="http://www.w3.org/1999/02/22-rdf-syntax-ns#"
   xmlns:svg="http://www.w3.org/2000/svg"
   xmlns="http://www.w3.org/2000/svg"
   xmlns:sodipodi="http://sodipodi.sourceforge.net/DTD/sodipodi-0.dtd"
   xmlns:inkscape="http://www.inkscape.org/namespaces/inkscape"
   enable-background="new 0 0 32 32"
   height="16"
   id="Layer_1"
   version="1.1"
   viewBox="0 0 16 16"
   width="16"
   xml:space="preserve"
   inkscape:version="0.48.5 r10040"
   sodipodi:docname="muzika.svg"><metadata
     id="metadata26"><rdf:RDF><cc:Work
         rdf:about=""><dc:format>image/svg+xml</dc:format><dc:type
           rdf:resource="http://purl.org/dc/dcmitype/StillImage" /><dc:title /></cc:Work></rdf:RDF></metadata><defs
     id="defs24" /><sodipodi:namedview
     pagecolor="#ffffff"
     bordercolor="#666666"
     borderopacity="1"
     objecttolerance="10"
     gridtolerance="10"
     guidetolerance="10"
     inkscape:pageopacity="0"
     inkscape:pageshadow="2"
     inkscape:window-width="1920"
     inkscape:window-height="1052"
     id="namedview22"
     showgrid="true"
     inkscape:zoom="68.586593"
     inkscape:cx="-1.0228988"
     inkscape:cy="6.4991118"
     inkscape:window-x="0"
     inkscape:window-y="28"
     inkscape:window-maximized="1"
     inkscape:current-layer="Layer_1"><inkscape:grid
       type="xygrid"
       id="grid3003"
       empspacing="5"
       visible="true"
       enabled="true"
       snapvisiblegridlinesonly="true" /></sodipodi:namedview><path
     style="opacity:1;fill:#bebebe;fill-opacity:1;stroke:none"
     d="M 8 0 C 3.5817219 1.7763568e-15 0 3.5817221 0 8 C 0 12.418278 3.5817219 16 8 16 C 12.418278 16 16 12.418278 16 8 C 16 3.5817221 12.418278 -1.7763568e-15 8 0 z M 5.53125 2.53125 L 6.3125 3.3125 C 4.3883485 4.0084306 3 5.8357341 3 8 C 3 8.5419295 3.1217848 9.0425627 3.28125 9.53125 L 2.34375 9.96875 C 2.1291818 9.3514742 2 8.6903558 2 8 C 2 5.564002 3.4457727 3.4711871 5.53125 2.53125 z M 8 5 C 9.6568542 5 11 6.3431457 11 8 C 11 9.6568542 9.6568542 11 8 11 C 6.343146 11 5 9.6568542 5 8 C 5 6.3431457 6.343146 5 8 5 z M 13.6875 6.15625 C 13.876139 6.7389022 14 7.3545172 14 8 C 14 10.475307 12.514698 12.614305 10.375 13.53125 L 10.34375 13.53125 L 9.5625 12.71875 C 11.549425 12.057309 13 10.209139 13 8 C 13 7.5167508 12.909168 7.0670295 12.78125 6.625 L 13.6875 6.15625 z "
     id="path3005" /><path
     sodipodi:type="arc"
     style="fill:#bebebe;fill-opacity:1;stroke:none"
     id="path3778"
     sodipodi:cx="-21.773802"
     sodipodi:cy="-0.73431033"
     sodipodi:rx="0.77380145"
     sodipodi:ry="0.73431033"
     d="m -21,-0.73431033 a 0.77380145,0.73431033 0 1 1 -1.547603,0 0.77380145,0.73431033 0 1 1 1.547603,0 z"
     transform="matrix(2.5846424,0,0,2.7236442,64.277491,10)" /></svg>