<?xml version="1.0" encoding="UTF-8" standalone="no"?>
<!-- Created with Inkscape (http://www.inkscape.org/) -->

<svg
   xmlns:dc="http://purl.org/dc/elements/1.1/"
   xmlns:cc="http://creativecommons.org/ns#"
   xmlns:rdf="http://www.w3.org/1999/02/22-rdf-syntax-ns#"
   xmlns:svg="http://www.w3.org/2000/svg"
   xmlns="http://www.w3.org/2000/svg"
   xmlns:sodipodi="http://sodipodi.sourceforge.net/DTD/sodipodi-0.dtd"
   xmlns:inkscape="http://www.inkscape.org/namespaces/inkscape"
   width="16"
   height="16"
   id="svg2"
   version="1.1"
   inkscape:version="0.48.5 r10040"
   sodipodi:docname="nagore-sredna.svg">
  <defs
     id="defs4" />
  <sodipodi:namedview
     id="base"
     pagecolor="#ffffff"
     bordercolor="#666666"
     borderopacity="1.0"
     inkscape:pageopacity="0.0"
     inkscape:pageshadow="2"
     inkscape:zoom="32.872589"
     inkscape:cx="3.7037063"
     inkscape:cy="5.7895206"
     inkscape:document-units="px"
     inkscape:current-layer="layer1"
     showgrid="true"
     inkscape:window-width="1920"
     inkscape:window-height="1052"
     inkscape:window-x="0"
     inkscape:window-y="28"
     inkscape:window-maximized="1"
     showguides="true"
     inkscape:guide-bbox="true">
    <inkscape:grid
       type="xygrid"
       id="grid2985"
       empspacing="5"
       visible="true"
       enabled="true"
       snapvisiblegridlinesonly="true" />
  </sodipodi:namedview>
  <metadata
     id="metadata7">
    <rdf:RDF>
      <cc:Work
         rdf:about="">
        <dc:format>image/svg+xml</dc:format>
        <dc:type
           rdf:resource="http://purl.org/dc/dcmitype/StillImage" />
        <dc:title></dc:title>
      </cc:Work>
    </rdf:RDF>
  </metadata>
  <g
     inkscape:label="Layer 1"
     inkscape:groupmode="layer"
     id="layer1"
     transform="translate(0,-1036.3622)">
    <path
       inkscape:connector-curvature="0"
       style="fill:#bebebe;fill-opacity:1;fill-rule:evenodd;stroke:none;display:inline"
       d="m 4.2068091,1036.3622 a 1.3930735,1.3930735 0 0 0 -0.999186,0.4224 1.3930735,1.3930735 0 0 0 -0.176793,0.226 c -1.28196,-0.528 -2.24675503,-0.5712 -2.70957703,-0.108 -0.296469,0.2992 -0.389585,0.8016 -0.27167,1.4679 0.117836,0.6664 0.446383,1.4966 0.96008403,2.4257 -0.43014403,-1.6053 -1.07345503,-4.4994 1.832994,-3.3206 a 1.3930735,1.3930735 0 0 0 -0.0288,0.2804 1.3930735,1.3930735 0 0 0 1.393091,1.3929 1.3930735,1.3930735 0 0 0 0.954793,-0.38 c 1.444513,0.977 3.075067,2.3449 4.581265,3.8505 5.4844539,5.6162 6.7195329,11.3815 -0.52102,7.2013 1.4435269,1.0768 2.8142999,1.8687 3.9095939,2.2587 1.09531,0.3898 1.911847,0.3762 2.328311,-0.038 0.293189,-0.2932 0.389425,-0.783 0.281109,-1.4331 -0.108315,-0.65 -0.420784,-1.4598 -0.914053,-2.3677 -0.98677,-1.8158 -2.715472,-4.0265 -4.697107,-6.0082 -1.5146229,-1.514 -3.1629039,-2.8831 -4.6655979,-3.8807 a 1.3930735,1.3930735 0 0 0 0.135594,-0.5953 1.3930735,1.3930735 0 0 0 -1.39308,-1.3932 z m 0,0.547 a 0.84561972,0.84561972 0 0 1 0.846037,0.8458 0.84561972,0.84561972 0 0 1 -0.0536,0.2947 c -2.08e-4,4e-4 -6.24e-4,0 -8.32e-4,0 -0.0054,0.02 -0.0112,0.026 -0.0168,0.04 a 0.84561972,0.84561972 0 0 1 -0.012,0.028 c -0.0064,0.02 -0.0128,0.026 -0.02,0.04 a 0.84561972,0.84561972 0 0 1 -0.0136,0.024 c -0.008,0.02 -0.0168,0.028 -0.0248,0.04 -6.32e-4,6e-4 -0.0013,0 -0.002,0 -0.02,0.03 -0.0424,0.058 -0.0672,0.086 a 0.84561972,0.84561972 0 0 1 -0.0144,0.02 c -0.0104,0.02 -0.0208,0.02 -0.0304,0.03 a 0.84561972,0.84561972 0 0 1 -0.0272,0.024 c -0.008,0 -0.0168,0.02 -0.0256,0.022 a 0.84561972,0.84561972 0 0 1 -0.0536,0.04 0.84561972,0.84561972 0 0 1 -0.0056,0 c -4.16e-4,2e-4 -4.16e-4,6e-4 -8.32e-4,8e-4 a 0.84561972,0.84561972 0 0 1 -0.475741,0.146 0.84561972,0.84561972 0 0 1 -0.846032,-0.8455 0.84561972,0.84561972 0 0 1 0.0022,-0.046 c 6.24e-4,-0.02 0.002,-0.024 0.0032,-0.036 a 0.84561972,0.84561972 0 0 1 0.0054,-0.042 c 0.0018,-0.02 0.0038,-0.024 0.0056,-0.038 a 0.84561972,0.84561972 0 0 1 0.0066,-0.03 c 0.012,-0.05 0.0288,-0.1 0.0488,-0.146 a 0.84561972,0.84561972 0 0 1 0.0112,-0.024 c 0.007,-0.02 0.0136,-0.028 0.0216,-0.042 a 0.84561972,0.84561972 0 0 1 0.012,-0.022 c 0.0078,-0.02 0.0144,-0.026 0.0232,-0.038 a 0.84561972,0.84561972 0 0 1 8.32e-4,-8e-4 c 0.012,-0.02 0.024,-0.036 0.0376,-0.052 a 0.84561972,0.84561972 0 0 1 0.0608,-0.072 0.84561972,0.84561972 0 0 1 0.606537,-0.2566 z m -1.115686,6.2909 1.716087,6.4946 1.35765,-2.8913 3.069251,-0.8856 -6.142988,-2.7177 z"
       id="path4299" />
  </g>
</svg>
