<?xml version="1.0" encoding="UTF-8" standalone="no"?>
<!-- Created with Inkscape (http://www.inkscape.org/) -->

<svg
   xmlns:dc="http://purl.org/dc/elements/1.1/"
   xmlns:cc="http://creativecommons.org/ns#"
   xmlns:rdf="http://www.w3.org/1999/02/22-rdf-syntax-ns#"
   xmlns:svg="http://www.w3.org/2000/svg"
   xmlns="http://www.w3.org/2000/svg"
   xmlns:xlink="http://www.w3.org/1999/xlink"
   xmlns:sodipodi="http://sodipodi.sourceforge.net/DTD/sodipodi-0.dtd"
   xmlns:inkscape="http://www.inkscape.org/namespaces/inkscape"
   width="16"
   height="16"
   id="svg2"
   version="1.1"
   inkscape:version="0.48.5 r10040"
   sodipodi:docname="start-here-symbolic.svg">
  <defs
     id="defs4">
    <linearGradient
       gradientTransform="translate(0,-1004.3622)"
       y2="1004.3622"
       x2="24"
       y1="1046.3622"
       x1="24"
       gradientUnits="userSpaceOnUse"
       id="linearGradient3859"
       xlink:href="#linearGradient3810"
       inkscape:collect="always" />
    <linearGradient
       gradientTransform="translate(0,1)"
       y2="1004.3622"
       x2="24"
       y1="1046.3622"
       x1="24"
       gradientUnits="userSpaceOnUse"
       id="linearGradient3857"
       xlink:href="#linearGradient3810"
       inkscape:collect="always" />
    <linearGradient
       y2="1004.3622"
       x2="24"
       y1="1046.3622"
       x1="24"
       gradientTransform="translate(-26,0)"
       gradientUnits="userSpaceOnUse"
       id="linearGradient3850"
       xlink:href="#linearGradient3810"
       inkscape:collect="always" />
    <linearGradient
       gradientTransform="translate(0,-1004.3622)"
       y2="1004.3622"
       x2="24"
       y1="1046.3622"
       x1="24"
       gradientUnits="userSpaceOnUse"
       id="linearGradient3843"
       xlink:href="#linearGradient3810"
       inkscape:collect="always" />
    <linearGradient
       gradientTransform="translate(0,1)"
       y2="1004.3622"
       x2="24"
       y1="1046.3622"
       x1="24"
       gradientUnits="userSpaceOnUse"
       id="linearGradient3841"
       xlink:href="#linearGradient3810"
       inkscape:collect="always" />
    <linearGradient
       y2="1004.3622"
       x2="24"
       y1="1046.3622"
       x1="24"
       gradientUnits="userSpaceOnUse"
       id="linearGradient3896"
       xlink:href="#linearGradient3810"
       inkscape:collect="always" />
    <linearGradient
       gradientTransform="translate(-44,1004.3622)"
       gradientUnits="userSpaceOnUse"
       y2="38"
       x2="24"
       y1="42"
       x1="24"
       id="linearGradient3880"
       xlink:href="#linearGradient3874"
       inkscape:collect="always" />
    <linearGradient
       gradientUnits="userSpaceOnUse"
       y2="28.5625"
       x2="46.004719"
       y1="28.5625"
       x1="1.9952807"
       id="linearGradient3867"
       xlink:href="#linearGradient3861"
       inkscape:collect="always" />
    <linearGradient
       gradientTransform="translate(0,-1004.3622)"
       y2="1014.3622"
       x2="24"
       y1="1046.3622"
       x1="24"
       gradientUnits="userSpaceOnUse"
       id="linearGradient3858"
       xlink:href="#linearGradient3810"
       inkscape:collect="always" />
    <linearGradient
       gradientTransform="translate(0,-3)"
       y2="1014.3622"
       x2="24"
       y1="1046.3622"
       x1="24"
       gradientUnits="userSpaceOnUse"
       id="linearGradient3856"
       xlink:href="#linearGradient3810"
       inkscape:collect="always" />
    <linearGradient
       gradientUnits="userSpaceOnUse"
       y2="1014.3622"
       x2="24"
       y1="1046.3622"
       x1="24"
       id="linearGradient3816"
       xlink:href="#linearGradient3810"
       inkscape:collect="always" />
    <linearGradient
       id="linearGradient3810">
      <stop
         id="stop3812"
         offset="0"
         style="stop-color:#f16d87;stop-opacity:1;" />
      <stop
         id="stop3814"
         offset="1"
         style="stop-color:#f88ca1;stop-opacity:1;" />
    </linearGradient>
    <linearGradient
       id="linearGradient3844">
      <stop
         id="stop3846"
         offset="0"
         style="stop-color:#000000;stop-opacity:0.39215687;" />
      <stop
         id="stop3848"
         offset="1"
         style="stop-color:#000000;stop-opacity:0;" />
    </linearGradient>
    <linearGradient
       id="linearGradient3861"
       inkscape:collect="always">
      <stop
         id="stop3863"
         offset="0"
         style="stop-color:#000000;stop-opacity:1;" />
      <stop
         id="stop3865"
         offset="1"
         style="stop-color:#000000;stop-opacity:0;" />
    </linearGradient>
    <linearGradient
       id="linearGradient3874"
       inkscape:collect="always">
      <stop
         id="stop3876"
         offset="0"
         style="stop-color:#000000;stop-opacity:1;" />
      <stop
         id="stop3878"
         offset="1"
         style="stop-color:#000000;stop-opacity:0;" />
    </linearGradient>
  </defs>
  <sodipodi:namedview
     id="base"
     pagecolor="#ffffff"
     bordercolor="#666666"
     borderopacity="1.0"
     inkscape:pageopacity="0.0"
     inkscape:pageshadow="2"
     inkscape:zoom="32.872589"
     inkscape:cx="-1.5286166"
     inkscape:cy="5.7895206"
     inkscape:document-units="px"
     inkscape:current-layer="layer1"
     showgrid="true"
     inkscape:window-width="1920"
     inkscape:window-height="1052"
     inkscape:window-x="-1"
     inkscape:window-y="2"
     inkscape:window-maximized="1"
     showguides="true"
     inkscape:guide-bbox="true">
    <inkscape:grid
       type="xygrid"
       id="grid2985"
       empspacing="5"
       visible="true"
       enabled="true"
       snapvisiblegridlinesonly="true" />
  </sodipodi:namedview>
  <metadata
     id="metadata7">
    <rdf:RDF>
      <cc:Work
         rdf:about="">
        <dc:format>image/svg+xml</dc:format>
        <dc:type
           rdf:resource="http://purl.org/dc/dcmitype/StillImage" />
        <dc:title />
      </cc:Work>
    </rdf:RDF>
  </metadata>
  <g
     inkscape:label="Layer 1"
     inkscape:groupmode="layer"
     id="layer1"
     transform="translate(0,-1036.3622)">
    <g
       id="layer1-4"
       inkscape:label="Layer"
       transform="matrix(0.99993011,0,0,0.99970045,-0.00696508,0.31044527)"
       style="fill:#bebebe;fill-opacity:1">
      <path
         id="path4157"
         transform="translate(0,1036.3622)"
         d="M 1.03125,0.21875 C 0.72149437,0.24817578 0.48843153,0.35755 0.3125,0.53125 0.011977,0.83045 -0.0570274,1.3337 0.0625,2 0.18194732,2.6664 0.51052454,3.5084 1.03125,4.4375 0.62629096,2.9465776 0.03622199,0.35544981 2.3125,0.9375 2.413212,0.77679837 2.5466733,0.6569792 2.6875,0.53125 2.0419809,0.3062595 1.4612598,0.17790046 1.03125,0.21875 z m 2,1.59375 C 3.02912,1.8295 3.00213,1.81975 3,1.84375 a 1.0005934,1.0002005 0 0 0 0,0.0625 C 3.00265,1.874015 3.025879,1.844008 3.03125,1.8125 z M 5,2.09375 C 4.99483,2.156648 4.984164,2.221518 4.96875,2.28125 A 1.0005934,1.0002005 0 0 0 5,2.09375 z M 5.96875,2.3125 C 5.9395154,2.4986602 5.8893555,2.6783754 5.8125,2.84375 7.1233257,3.7757913 8.5510558,4.9444341 9.875,6.25 c 5.559449,5.6162 6.808312,11.39895 -0.53125,7.21875 1.463266,1.0768 2.858478,1.86 3.96875,2.25 1.110287,0.3898 1.921591,0.38295 2.34375,-0.03125 0.297198,-0.2932 0.422298,-0.7874 0.3125,-1.4375 -0.109796,-0.65 -0.437485,-1.4671 -0.9375,-2.375 -1.000263,-1.8158 -2.741268,-4.0183 -4.75,-6 C 8.8919415,4.5049966 7.373411,3.2764212 5.96875,2.3125 z"
         style="fill:#bebebe;fill-opacity:1;fill-rule:evenodd;stroke:none;display:inline"
         inkscape:connector-curvature="0" />
      <path
         sodipodi:nodetypes="ccccc"
         inkscape:connector-curvature="0"
         id="path4299-7"
         d="m 3,1043.3622 2,6 1,-3 3,-1 z"
         style="fill:#bebebe;fill-opacity:1;fill-rule:evenodd;stroke:none;display:inline" />
      <path
         transform="translate(0,1036.3622)"
         id="path4160"
         d="M 4,0 C 2.8954305,0 2,0.8954305 2,2 2,3.1045695 2.8954305,4 4,4 5.1045695,4 6,3.1045695 6,2 6,0.8954305 5.1045695,0 4,0 z M 3.90625,1 A 1.0005934,1.0002005 0 0 1 4,1 1.0005934,1.0002005 0 0 1 5,2 1.0005934,1.0002005 0 0 1 4.9375,2.375 C 4.93111,2.399 4.912877,2.39025 4.90625,2.40625 a 1.0005934,1.0002005 0 0 1 0,0.03125 C 4.89868,2.4615 4.883519,2.484 4.875,2.5 a 1.0005934,1.0002005 0 0 1 0,0.03125 C 4.86554,2.55525 4.853215,2.5485 4.84375,2.5625 4.820085,2.5985 4.779344,2.62355 4.75,2.65625 A 1.0005934,1.0002005 0 0 1 4.71875,2.6875 C 4.706444,2.7115 4.698859,2.70775 4.6875,2.71875 A 1.0005934,1.0002005 0 0 1 4.65625,2.75 C 4.64679,2.75 4.635413,2.77925 4.625,2.78125 A 1.0005934,1.0002005 0 0 1 4.5625,2.8125 1.0005934,1.0002005 0 0 1 4,3 1.0005934,1.0002005 0 0 1 3,2 1.0005934,1.0002005 0 0 1 3,1.9375 C 3.0007383,1.9135 2.99859,1.92125 3,1.90625 A 1.0005934,1.0002005 0 0 1 3,1.84375 C 3.00213,1.81975 3.02912,1.8295 3.03125,1.8125 a 1.0005934,1.0002005 0 0 1 0,-0.03125 c 0.0142,-0.059 0.038834,-0.1331 0.0625,-0.1875 a 1.0005934,1.0002005 0 0 1 0,-0.03125 C 3.10203,1.5385 3.115534,1.54825 3.125,1.53125 A 1.0005934,1.0002005 0 0 1 3.125,1.5 C 3.13423,1.476 3.145837,1.4515 3.15625,1.4375 3.17045,1.4135 3.202658,1.394 3.21875,1.375 A 1.0005934,1.0002005 0 0 1 3.28125,1.3125 1.0005934,1.0002005 0 0 1 3.90625,1 z"
         style="fill:#bebebe;fill-opacity:1;stroke:none"
         inkscape:connector-curvature="0" />
    </g>
  </g>
</svg>
