<?xml version="1.0" encoding="UTF-8" standalone="no"?>
<svg
   xmlns:dc="http://purl.org/dc/elements/1.1/"
   xmlns:cc="http://creativecommons.org/ns#"
   xmlns:rdf="http://www.w3.org/1999/02/22-rdf-syntax-ns#"
   xmlns:svg="http://www.w3.org/2000/svg"
   xmlns="http://www.w3.org/2000/svg"
   xmlns:sodipodi="http://sodipodi.sourceforge.net/DTD/sodipodi-0.dtd"
   xmlns:inkscape="http://www.inkscape.org/namespaces/inkscape"
   enable-background="new 0 0 32 32"
   height="16"
   id="Layer_1"
   version="1.1"
   viewBox="0 0 16 16"
   width="16"
   xml:space="preserve"
   inkscape:version="0.48.5 r10040"
   sodipodi:docname="dom.svg"><metadata
     id="metadata12"><rdf:RDF><cc:Work
         rdf:about=""><dc:format>image/svg+xml</dc:format><dc:type
           rdf:resource="http://purl.org/dc/dcmitype/StillImage" /><dc:title /></cc:Work></rdf:RDF></metadata><defs
     id="defs10" /><sodipodi:namedview
     pagecolor="#ffffff"
     bordercolor="#666666"
     borderopacity="1"
     objecttolerance="10"
     gridtolerance="10"
     guidetolerance="10"
     inkscape:pageopacity="0"
     inkscape:pageshadow="2"
     inkscape:window-width="1920"
     inkscape:window-height="1052"
     id="namedview8"
     showgrid="true"
     inkscape:zoom="138.11466"
     inkscape:cx="7.0923073"
     inkscape:cy="15.04774"
     inkscape:window-x="0"
     inkscape:window-y="28"
     inkscape:window-maximized="1"
     inkscape:current-layer="Layer_1"><inkscape:grid
       type="xygrid"
       id="grid2991"
       empspacing="5"
       visible="true"
       enabled="true"
       snapvisiblegridlinesonly="true" /></sodipodi:namedview><path
     style="fill:#bebebe;fill-opacity:1;stroke:none"
     d="M 2 8 L 2 16 L 5 16 L 5 11 C 5 10.446 5.446 10 6 10 L 7 10 C 7.554 10 8 10.446 8 11 L 8 16 L 14 16 L 14 8 L 2 8 z M 11 10 C 11.554 10 12 10.446 12 11 L 12 12 C 12 12.554 11.554 13 11 13 C 10.446 13 10 12.554 10 12 L 10 11 C 10 10.446 10.446 10 11 10 z "
     id="rect2983" /><path
     style="fill:#bebebe;fill-opacity:1;stroke:none"
     d="M 0,7 2,7 2,9 14,9 14,7 16,7 8,0 z"
     id="path3753"
     inkscape:connector-curvature="0"
     sodipodi:nodetypes="cccccccc" /><rect
     style="fill:#bebebe;fill-opacity:1;stroke:none"
     id="rect3755"
     width="2"
     height="7"
     x="12"
     y="0"
     rx="1"
     ry="1" /></svg>