<?xml version="1.0" encoding="UTF-8" standalone="no"?>
<!-- Created with Inkscape (http://www.inkscape.org/) -->

<svg
   xmlns:dc="http://purl.org/dc/elements/1.1/"
   xmlns:cc="http://creativecommons.org/ns#"
   xmlns:rdf="http://www.w3.org/1999/02/22-rdf-syntax-ns#"
   xmlns:svg="http://www.w3.org/2000/svg"
   xmlns="http://www.w3.org/2000/svg"
   xmlns:xlink="http://www.w3.org/1999/xlink"
   xmlns:sodipodi="http://sodipodi.sourceforge.net/DTD/sodipodi-0.dtd"
   xmlns:inkscape="http://www.inkscape.org/namespaces/inkscape"
   width="48"
   height="48"
   id="svg4230"
   version="1.1"
   inkscape:version="0.48.5 r10040"
   sodipodi:docname="evince.svg">
  <defs
     id="defs4232">
    <linearGradient
       id="linearGradient4108">
      <stop
         style="stop-color:#ebca71;stop-opacity:1;"
         offset="0"
         id="stop4110" />
      <stop
         id="stop4116"
         offset="0.5"
         style="stop-color:#fdecbd;stop-opacity:1;" />
      <stop
         style="stop-color:#ebca71;stop-opacity:1;"
         offset="1"
         id="stop4112" />
    </linearGradient>
    <linearGradient
       id="linearGradient4102">
      <stop
         id="stop4104"
         offset="0"
         style="stop-color:#da5c16;stop-opacity:1;" />
      <stop
         id="stop4106"
         offset="1"
         style="stop-color:#fb8442;stop-opacity:1;" />
    </linearGradient>
    <linearGradient
       id="linearGradient4051">
      <stop
         id="stop4053"
         offset="0"
         style="stop-color:#000000;stop-opacity:0;" />
      <stop
         id="stop4055"
         offset="1"
         style="stop-color:#000000;stop-opacity:1;" />
    </linearGradient>
    <linearGradient
       id="linearGradient4023">
      <stop
         style="stop-color:#000000;stop-opacity:1;"
         offset="0"
         id="stop4025" />
      <stop
         style="stop-color:#5e563c;stop-opacity:1;"
         offset="1"
         id="stop4027" />
    </linearGradient>
    <linearGradient
       id="linearGradient4009">
      <stop
         style="stop-color:#967b31;stop-opacity:1;"
         offset="0"
         id="stop4011" />
      <stop
         style="stop-color:#ebca71;stop-opacity:1;"
         offset="1"
         id="stop4013" />
    </linearGradient>
    <linearGradient
       id="linearGradient3981">
      <stop
         id="stop3983"
         offset="0"
         style="stop-color:#ffffff;stop-opacity:1;" />
      <stop
         id="stop3985"
         offset="1"
         style="stop-color:#ffffff;stop-opacity:0;" />
    </linearGradient>
    <linearGradient
       id="linearGradient3960">
      <stop
         style="stop-color:#ffffff;stop-opacity:0;"
         offset="0"
         id="stop3962" />
      <stop
         id="stop3968"
         offset="0.5"
         style="stop-color:#ffffff;stop-opacity:1;" />
      <stop
         style="stop-color:#ffffff;stop-opacity:0;"
         offset="1"
         id="stop3964" />
    </linearGradient>
    <linearGradient
       id="linearGradient3929">
      <stop
         style="stop-color:#66ace2;stop-opacity:1;"
         offset="0"
         id="stop3931" />
      <stop
         style="stop-color:#5399d2;stop-opacity:1;"
         offset="1"
         id="stop3933" />
    </linearGradient>
    <linearGradient
       id="linearGradient3875">
      <stop
         style="stop-color:#000000;stop-opacity:1;"
         offset="0"
         id="stop3877" />
      <stop
         style="stop-color:#000000;stop-opacity:0;"
         offset="1"
         id="stop3879" />
    </linearGradient>
    <linearGradient
       id="linearGradient4524">
      <stop
         style="stop-color:#3f85bf;stop-opacity:1;"
         offset="0"
         id="stop4526" />
      <stop
         style="stop-color:#68aee5;stop-opacity:1;"
         offset="1"
         id="stop4528" />
    </linearGradient>
    <linearGradient
       id="linearGradient4512">
      <stop
         style="stop-color:#d9d2d1;stop-opacity:1;"
         offset="0"
         id="stop4514" />
      <stop
         style="stop-color:#fefcfc;stop-opacity:1;"
         offset="1"
         id="stop4516" />
    </linearGradient>
    <linearGradient
       id="linearGradient4243">
      <stop
         style="stop-color:#000000;stop-opacity:1;"
         offset="0"
         id="stop4245" />
      <stop
         style="stop-color:#000000;stop-opacity:0;"
         offset="1"
         id="stop4247" />
    </linearGradient>
    <linearGradient
       id="linearGradient4216">
      <stop
         style="stop-color:#a0c4e6;stop-opacity:1;"
         offset="0"
         id="stop4218" />
      <stop
         style="stop-color:#d0e2f1;stop-opacity:1;"
         offset="1"
         id="stop4220" />
    </linearGradient>
    <linearGradient
       id="linearGradient4208">
      <stop
         style="stop-color:#70a3d6;stop-opacity:1;"
         offset="0"
         id="stop4210" />
      <stop
         style="stop-color:#88b6e1;stop-opacity:1;"
         offset="1"
         id="stop4212" />
    </linearGradient>
    <linearGradient
       id="linearGradient4200">
      <stop
         style="stop-color:#427dbe;stop-opacity:1;"
         offset="0"
         id="stop4202" />
      <stop
         style="stop-color:#739bd1;stop-opacity:1;"
         offset="1"
         id="stop4204" />
    </linearGradient>
    <linearGradient
       id="linearGradient4192">
      <stop
         style="stop-color:#4970a4;stop-opacity:1;"
         offset="0"
         id="stop4194" />
      <stop
         style="stop-color:#6090c0;stop-opacity:1;"
         offset="1"
         id="stop4196" />
    </linearGradient>
    <radialGradient
       inkscape:collect="always"
       xlink:href="#linearGradient3688-166-749-5-9-1"
       id="radialGradient4351"
       gradientUnits="userSpaceOnUse"
       gradientTransform="matrix(2.3201711,0,0,0.39999996,28.617836,28.600002)"
       cx="4.9929786"
       cy="43.5"
       fx="4.9929786"
       fy="43.5"
       r="2.5" />
    <linearGradient
       id="linearGradient3688-166-749-5-9-1">
      <stop
         id="stop2883-0-2-9"
         style="stop-color:#181818;stop-opacity:1"
         offset="0" />
      <stop
         id="stop2885-5-3-8"
         style="stop-color:#181818;stop-opacity:0"
         offset="1" />
    </linearGradient>
    <linearGradient
       id="linearGradient3688-464-309-8-9-4">
      <stop
         id="stop2889-9-9-1"
         style="stop-color:#181818;stop-opacity:1"
         offset="0" />
      <stop
         id="stop2891-4-2-9"
         style="stop-color:#181818;stop-opacity:0"
         offset="1" />
    </linearGradient>
    <linearGradient
       id="linearGradient3702-501-757-0-4-0">
      <stop
         id="stop2895-0-2-1"
         style="stop-color:#181818;stop-opacity:0"
         offset="0" />
      <stop
         id="stop2897-2-8-2"
         style="stop-color:#181818;stop-opacity:1"
         offset="0.5" />
      <stop
         id="stop2899-6-1-6"
         style="stop-color:#181818;stop-opacity:0"
         offset="1" />
    </linearGradient>
    <linearGradient
       id="linearGradient3811-3">
      <stop
         style="stop-color:#000000;stop-opacity:1;"
         offset="0"
         id="stop3813-0" />
      <stop
         style="stop-color:#000000;stop-opacity:0;"
         offset="1"
         id="stop3815-0" />
    </linearGradient>
    <clipPath
       id="clipPath-887332295">
      <g
         id="g3945"
         transform="translate(0,-1004.3622)">
        <rect
           id="rect3947"
           fill="#1890d0"
           width="46"
           height="46"
           x="1"
           y="1005.36"
           rx="4" />
      </g>
    </clipPath>
    <clipPath
       id="clipPath-867792831">
      <g
         id="g3940"
         transform="translate(0,-1004.3622)">
        <rect
           id="rect3942"
           fill="#1890d0"
           width="46"
           height="46"
           x="1"
           y="1005.36"
           rx="4" />
      </g>
    </clipPath>
    <linearGradient
       gradientTransform="translate(-47.997785,0.00221467)"
       gradientUnits="userSpaceOnUse"
       x2="47"
       x1="1"
       id="linearGradient3764">
      <stop
         id="stop3935"
         stop-opacity="1"
         stop-color="#e4e4e4" />
      <stop
         id="stop3937"
         stop-opacity="1"
         stop-color="#eee"
         offset="1" />
    </linearGradient>
    <radialGradient
       inkscape:collect="always"
       xlink:href="#linearGradient4243"
       id="radialGradient4274"
       gradientUnits="userSpaceOnUse"
       gradientTransform="matrix(1.0434782,0,0,0.1956518,-1.0434797,35.184809)"
       cx="24.000001"
       cy="42.499991"
       fx="24.000001"
       fy="42.499991"
       r="23" />
    <linearGradient
       inkscape:collect="always"
       xlink:href="#linearGradient4102"
       id="linearGradient4530"
       x1="24"
       y1="46"
       x2="24"
       y2="2"
       gradientUnits="userSpaceOnUse" />
    <linearGradient
       inkscape:collect="always"
       xlink:href="#linearGradient4512"
       id="linearGradient4554"
       gradientUnits="userSpaceOnUse"
       x1="12.5"
       y1="28.000042"
       x2="12.5"
       y2="17.000042" />
    <linearGradient
       inkscape:collect="always"
       xlink:href="#linearGradient4524-3"
       id="linearGradient4530-5"
       x1="24"
       y1="46"
       x2="24"
       y2="2"
       gradientUnits="userSpaceOnUse" />
    <linearGradient
       id="linearGradient4524-3">
      <stop
         style="stop-color:#3f85bf;stop-opacity:1;"
         offset="0"
         id="stop4526-2" />
      <stop
         style="stop-color:#68aee5;stop-opacity:1;"
         offset="1"
         id="stop4528-8" />
    </linearGradient>
    <linearGradient
       inkscape:collect="always"
       xlink:href="#linearGradient4102-0"
       id="linearGradient4530-1"
       x1="24"
       y1="46"
       x2="24"
       y2="2"
       gradientUnits="userSpaceOnUse" />
    <linearGradient
       id="linearGradient4102-0">
      <stop
         id="stop4104-7"
         offset="0"
         style="stop-color:#e9ba39;stop-opacity:1;" />
      <stop
         id="stop4106-1"
         offset="1"
         style="stop-color:#f5d34e;stop-opacity:1;" />
    </linearGradient>
    <clipPath
       id="clipPath-952486936">
      <g
         transform="translate(0,-1004.3622)"
         id="g17">
        <path
           style="fill:#1890d0"
           inkscape:connector-curvature="0"
           d="m -24,13 c 0,1.105 -0.672,2 -1.5,2 -0.828,0 -1.5,-0.895 -1.5,-2 0,-1.105 0.672,-2 1.5,-2 0.828,0 1.5,0.895 1.5,2 z"
           transform="matrix(15.333333,0,0,11.5,414.99999,878.8622)"
           id="path19" />
      </g>
    </clipPath>
    <linearGradient
       gradientTransform="translate(0,1004.3622)"
       y2="17"
       x2="25"
       y1="15"
       x1="25"
       gradientUnits="userSpaceOnUse"
       id="linearGradient3969"
       xlink:href="#linearGradient3946-5"
       inkscape:collect="always" />
    <linearGradient
       inkscape:collect="always"
       id="linearGradient3946-5">
      <stop
         style="stop-color:#000000;stop-opacity:1;"
         offset="0"
         id="stop3948-3" />
      <stop
         style="stop-color:#000000;stop-opacity:0;"
         offset="1"
         id="stop3950-8" />
    </linearGradient>
    <linearGradient
       y2="17"
       x2="25"
       y1="15"
       x1="25"
       gradientTransform="translate(0,1004.3622)"
       gradientUnits="userSpaceOnUse"
       id="linearGradient4003"
       xlink:href="#linearGradient3946-5"
       inkscape:collect="always" />
  </defs>
  <sodipodi:namedview
     id="base"
     pagecolor="#ffffff"
     bordercolor="#666666"
     borderopacity="1.0"
     inkscape:pageopacity="0.0"
     inkscape:pageshadow="2"
     inkscape:zoom="9.1668973"
     inkscape:cx="-14.0998"
     inkscape:cy="34.440034"
     inkscape:document-units="px"
     inkscape:current-layer="layer2"
     showgrid="true"
     inkscape:showpageshadow="false"
     borderlayer="true"
     inkscape:window-width="1920"
     inkscape:window-height="1052"
     inkscape:window-x="0"
     inkscape:window-y="28"
     inkscape:window-maximized="1"
     showguides="false"
     inkscape:guide-bbox="true">
    <inkscape:grid
       type="xygrid"
       id="grid4162" />
    <sodipodi:guide
       position="1.0000013,47.000017"
       orientation="46,0"
       id="guide4163" />
    <sodipodi:guide
       position="1.0000013,1.0000174"
       orientation="0,45.999999"
       id="guide4165" />
    <sodipodi:guide
       position="47,1.0000174"
       orientation="-46,0"
       id="guide4167" />
    <sodipodi:guide
       position="47,47.000017"
       orientation="0,-45.999999"
       id="guide4169" />
    <sodipodi:guide
       position="2.0000007,46.000017"
       orientation="44,0"
       id="guide4173" />
    <sodipodi:guide
       position="2.0000007,2.0000174"
       orientation="0,43.999999"
       id="guide4175" />
    <sodipodi:guide
       position="46,2.0000174"
       orientation="-44,0"
       id="guide4177" />
    <sodipodi:guide
       position="46,46.000017"
       orientation="0,-43.999999"
       id="guide4179" />
    <sodipodi:guide
       position="3,45.000017"
       orientation="42,0"
       id="guide4183" />
    <sodipodi:guide
       position="45,3.0000174"
       orientation="-42,0"
       id="guide4187" />
    <sodipodi:guide
       position="45,45.000017"
       orientation="0,-42"
       id="guide4189" />
    <sodipodi:guide
       position="3,45.000017"
       orientation="42,0"
       id="guide4193" />
    <sodipodi:guide
       position="3,3.0000174"
       orientation="0,42"
       id="guide4195" />
    <sodipodi:guide
       position="45,3.0000174"
       orientation="-42,0"
       id="guide4197" />
    <sodipodi:guide
       position="45,45.000017"
       orientation="0,-42"
       id="guide4199" />
    <sodipodi:guide
       position="3,10.000017"
       orientation="7,0"
       id="guide4203" />
    <sodipodi:guide
       position="3,3.0000174"
       orientation="0,42"
       id="guide4205" />
    <sodipodi:guide
       position="45,3.0000174"
       orientation="-7,0"
       id="guide4207" />
    <sodipodi:guide
       position="45,10.000017"
       orientation="0,-42"
       id="guide4209" />
  </sodipodi:namedview>
  <metadata
     id="metadata4235">
    <rdf:RDF>
      <cc:Work
         rdf:about="">
        <dc:format>image/svg+xml</dc:format>
        <dc:type
           rdf:resource="http://purl.org/dc/dcmitype/StillImage" />
        <dc:title />
      </cc:Work>
    </rdf:RDF>
  </metadata>
  <g
     inkscape:groupmode="layer"
     id="layer3"
     inkscape:label="Fake blur shadow"
     style="display:inline"
     sodipodi:insensitive="true">
    <path
       style="opacity:0.06000001;fill:#000000;fill-opacity:1;stroke:none"
       d="M 10,1 C 5.014,1 1,5.014 1,10 l 0,28 c 0,4.986 4.014,9 9,9 l 28,0 c 4.986,0 9,-4.014 9,-9 L 47,10 C 47,5.014 42.986,1 38,1 L 10,1 z m 0.5,0.5 27,0 c 4.986,0 9,4.014 9,9 l 0,27 c 0,4.986 -4.014,9 -9,9 l -27,0 c -4.986,0 -9,-4.014 -9,-9 l 0,-27 c 0,-4.986 4.014,-9 9,-9 z"
       id="rect3829"
       inkscape:connector-curvature="0" />
    <path
       style="opacity:0.12000002;fill:#000000;fill-opacity:1;stroke:none"
       d="m 10.5,1.5 c -4.986,0 -9,4.014 -9,9 l 0,27 c 0,4.986 4.014,9 9,9 l 27,0 c 4.986,0 9,-4.014 9,-9 l 0,-27 c 0,-4.986 -4.014,-9 -9,-9 l -27,0 z m 0.25,0.25 26.5,0 c 4.986,0 9,4.014 9,9 l 0,26.5 c 0,4.986 -4.014,9 -9,9 l -26.5,0 c -4.986,0 -9,-4.014 -9,-9 l 0,-26.5 c 0,-4.986 4.014,-9 9,-9 z"
       id="rect3827"
       inkscape:connector-curvature="0" />
    <rect
       style="opacity:0.23999999;fill:#000000;fill-opacity:1;stroke:none"
       id="rect3038-4"
       width="44.5"
       height="44.5"
       x="1.75"
       y="1.75"
       ry="9"
       rx="9" />
  </g>
  <g
     inkscape:groupmode="layer"
     id="layer6"
     inkscape:label="Blob"
     style="display:inline"
     sodipodi:insensitive="true">
    <path
       style="opacity:0.3;fill:url(#radialGradient4274);fill-opacity:1;stroke:none"
       d="M 1.03125,39 C 1.5192036,43.518898 5.3471961,47 10,47 l 28,0 c 4.652804,0 8.480796,-3.481102 8.96875,-8 l -45.9375,0 z"
       id="rect4241"
       inkscape:connector-curvature="0" />
  </g>
  <g
     inkscape:groupmode="layer"
     id="layer2"
     inkscape:label="Baseplate"
     style="display:inline">
    <rect
       style="fill:url(#linearGradient4530);fill-opacity:1.0;stroke:none"
       id="rect3038"
       width="44"
       height="44"
       x="2"
       y="1.9999826"
       ry="9"
       rx="9" />
  </g>
  <g
     inkscape:label="Symbol"
     inkscape:groupmode="layer"
     id="layer1"
     transform="translate(0,-1004.3622)"
     style="display:inline">
    <path
       style="opacity:0.15;fill:#000000;fill-opacity:1;fill-rule:nonzero;stroke:none"
       d="M 28.71875 21.59375 C 27.174877 21.59375 25.516728 24.70295 24.90625 28.71875 C 24.987199 28.664185 25.046583 28.615785 25.125 28.5625 C 25.850063 25.120287 27.326736 22.59375 28.71875 22.59375 C 29.245364 22.59375 29.596603 23.072554 29.6875 23.78125 C 29.721516 23.565678 29.71875 23.359788 29.71875 23.125 C 29.71875 22.225 29.329229 21.59375 28.71875 21.59375 z M 32.28125 22.78125 C 32.094282 24.14108 31.296702 25.237537 29.625 26.5625 C 28.565895 27.3881 24.921331 29.99685 24.1875 30.53125 C 24.007829 30.662454 23.06076 31.363203 22.4375 31.84375 C 22.400915 32.132364 22.359832 32.410481 22.34375 32.6875 C 22.347631 32.760097 22.337793 32.835247 22.34375 32.90625 C 23.014985 32.388525 23.998589 31.669202 24.1875 31.53125 C 24.921331 30.99685 28.565895 28.3881 29.625 27.5625 C 31.564859 26.025 32.3125 24.78095 32.3125 23.09375 C 32.3125 22.984571 32.295258 22.883003 32.28125 22.78125 z M 38 24 C 37.905635 24.085464 37.76088 24.213186 37.65625 24.3125 L 37 27 C 34.164459 29.9654 27.211174 35.90625 25.09375 35.90625 C 23.761797 35.867633 23.000313 35.205375 22.625 34.1875 C 22.548533 34.229721 22.488597 34.267634 22.40625 34.3125 C 22.633755 35.81561 23.408013 36.857375 25.09375 36.90625 C 27.211174 36.90625 34.164459 30.9654 37 28 L 38 24 z M 22.40625 34.3125 C 22.360018 34.007045 22.316054 33.682195 22.3125 33.34375 C 21.816803 33.612438 21.351816 33.885317 20.625 34.25 C 20.61265 34.25952 20.606101 34.271731 20.59375 34.28125 C 19.000487 35.509186 17.400347 36.739668 17 37 C 19.689244 35.772213 21.240224 34.947801 22.40625 34.3125 z "
       transform="translate(0,1004.3622)"
       id="path3910" />
    <path
       style="fill:#fa8e52;fill-opacity:1;stroke:none"
       d="M 11,2 C 6.014,2 2,6.014 2,11 l 0,4 44,0 0,-4 C 46,6.014 41.986,2 37,2 z"
       transform="translate(0,1004.3622)"
       id="rect3923"
       inkscape:connector-curvature="0"
       sodipodi:nodetypes="ssccsss" />
    <rect
       style="fill:#ffffff;fill-opacity:1;stroke:none;opacity:0.25"
       id="rect4006"
       width="1"
       height="13.000017"
       x="12"
       y="1006.3622" />
    <rect
       y="1006.3622"
       x="11"
       height="13.000017"
       width="1"
       id="rect4010"
       style="fill:#000000;fill-opacity:1;stroke:none;opacity:0.25" />
    <path
       id="path3120"
       d="m 9,1010.3622 c -3,1 -3.9412781,3.4084 -4,5 0,1 0,2 2,2 l 39,0 0,-1 c 0,-2.317 -0.884118,-4.4081 -2.3125,-6 l -34.6875,0 z"
       style="fill:#000000;fill-opacity:1;stroke:none;opacity:0.15"
       inkscape:connector-curvature="0" />
    <path
       style="fill:#ffffff;fill-opacity:1;stroke:none"
       d="M 9 5 C 6 6 5.0587219 8.4084 5 10 C 5 11 5 12 7 12 L 46 12 L 46 11 C 46 8.6829765 45.115882 6.591937 43.6875 5 L 9 5 z "
       transform="translate(0,1004.3622)"
       id="rect3913" />
    <path
       style="fill:#d7d7d7;fill-opacity:1;stroke:none"
       d="M 7.09375 6 C 7.0577026 6.0280644 7.0349381 6.0651656 7 6.09375 C 6.8352742 6.2302784 6.6698511 6.351765 6.53125 6.5 C 6.501329 6.5306844 6.4663873 6.5626886 6.4375 6.59375 C 6.3240411 6.7209749 6.2246785 6.8697051 6.125 7 L 45.0625 7 C 44.890032 6.658066 44.681584 6.3154522 44.46875 6 L 7.09375 6 z "
       transform="translate(0,1004.3622)"
       id="rect3915" />
    <path
       style="fill:#d7d7d7;fill-opacity:1;stroke:none"
       d="M 5.5 8 C 5.422788 8.16715 5.3693161 8.3321 5.3125 8.5 C 5.2556839 8.6679 5.1955236 8.83875 5.15625 9 L 45.78125 9 C 45.703008 8.6597982 45.584568 8.3238608 45.46875 8 L 5.5 8 z "
       transform="translate(0,1004.3622)"
       id="rect3917" />
    <path
       style="fill:#d7d7d7;fill-opacity:1;stroke:none"
       d="M 5 10 C 5 10.218804 5.0102994 10.447921 5.03125 10.65625 C 5.034237 10.685952 5.0273505 10.720754 5.03125 10.75 C 5.0444531 10.837247 5.0704723 10.917158 5.09375 11 L 46 11 C 46 10.656334 45.975291 10.332832 45.9375 10 L 5 10 z "
       transform="translate(0,1004.3622)"
       id="rect3919" />
    <rect
       y="1019.3622"
       x="12"
       height="30.999983"
       width="1"
       id="rect4008"
       style="fill:#ffffff;fill-opacity:1;stroke:none;opacity:0.3" />
    <rect
       style="fill:#000000;fill-opacity:1;stroke:none;opacity:0.3"
       id="rect4012"
       width="1"
       height="30.999983"
       x="11"
       y="1019.3622" />
    <path
       id="path53"
       d="m 38,1027.3622 c -2.694903,2.4407 -9.752116,10.7786 -11.117639,10.7786 -0.896468,0 -1.651512,-0.6376 -1.902932,-1.616 -0.144566,-0.5999 0.077,0.1592 -7.979429,3.8374 0.8069,-0.5247 6.457555,-4.9437 7.193743,-5.4813 0.733831,-0.5344 4.358202,-3.1246 5.417307,-3.9502 1.939859,-1.5375 2.694903,-2.7782 2.694903,-4.4654 0,-1.3159 -1.052784,-2.1031 -2.305953,-2.1031 -3,0 -4,1 -5.271205,3.4159 -1.728795,3.5841 -4.593857,12.3557 0.359059,12.4993 2.117424,0 9.076605,-5.9498 11.912146,-8.9152 m -12.090497,1.7124 c 0.610478,-4.0158 2.261991,-7.134 3.805864,-7.134 0.610479,0 1.006464,0.6407 1.006464,1.5407 0,1.8783 -0.969536,3.003 -4.812328,5.5933"
       inkscape:connector-curvature="0"
       style="fill:#f7f7f7;fill-opacity:1;fill-rule:nonzero;stroke:none;opacity:1"
       sodipodi:nodetypes="csccccscccccssc" />
    <path
       sodipodi:nodetypes="cccccccc"
       inkscape:connector-curvature="0"
       id="path3925"
       d="m 29,1007.3622 0,8 2,-3 2,3 2,-3 2,3 0,-8 z"
       style="fill:#000000;fill-opacity:1;stroke:none;opacity:0.25" />
    <path
       style="fill:#3776c3;fill-opacity:1;stroke:none"
       d="m 29,2 0,8 2,-3 2,3 2,-3 2,3 0,-8 z"
       id="rect3920"
       inkscape:connector-curvature="0"
       sodipodi:nodetypes="cccccccc"
       transform="translate(0,1004.3622)" />
    <rect
       style="opacity:0.05;fill:url(#linearGradient4003);fill-opacity:1;stroke:none;display:inline"
       id="rect3944"
       width="44"
       height="2"
       x="2"
       y="1019.3622" />
  </g>
  <g
     inkscape:groupmode="layer"
     id="layer4"
     inkscape:label="Inset"
     sodipodi:insensitive="true"
     style="display:inline">
    <path
       style="opacity:0.15;fill:#000000;fill-opacity:1;stroke:none"
       d="m 2,34 0,3 c 0,4.986 4.014,9 9,9 l 26,0 c 4.986,0 9,-4.014 9,-9 l 0,-3 c 0,4.986 -4.014,9 -9,9 L 11,43 C 6.014,43 2,38.986 2,34 z"
       id="rect3038-42"
       inkscape:connector-curvature="0" />
  </g>
  <g
     inkscape:groupmode="layer"
     id="layer7"
     inkscape:label="Baseshape"
     sodipodi:insensitive="true"
     style="display:none">
    <rect
       rx="9"
       ry="9"
       y="2"
       x="2"
       height="44"
       width="44"
       id="rect4169"
       style="fill:#abe1ad;fill-opacity:1;stroke:none;display:inline" />
  </g>
</svg>
