<?xml version="1.0" encoding="UTF-8" standalone="no"?>
<!-- Created with Inkscape (http://www.inkscape.org/) -->

<svg
   xmlns:dc="http://purl.org/dc/elements/1.1/"
   xmlns:cc="http://creativecommons.org/ns#"
   xmlns:rdf="http://www.w3.org/1999/02/22-rdf-syntax-ns#"
   xmlns:svg="http://www.w3.org/2000/svg"
   xmlns="http://www.w3.org/2000/svg"
   xmlns:xlink="http://www.w3.org/1999/xlink"
   xmlns:sodipodi="http://sodipodi.sourceforge.net/DTD/sodipodi-0.dtd"
   xmlns:inkscape="http://www.inkscape.org/namespaces/inkscape"
   width="48"
   height="48"
   id="svg4230"
   version="1.1"
   inkscape:version="0.48.5 r10040"
   sodipodi:docname="gnom-diskove-druga.svg"
   inkscape:export-filename="/home/uri/disks.png"
   inkscape:export-xdpi="960"
   inkscape:export-ydpi="960">
  <defs
     id="defs4232">
    <linearGradient
       inkscape:collect="always"
       id="linearGradient4043">
      <stop
         style="stop-color:#000000;stop-opacity:1;"
         offset="0"
         id="stop4045" />
      <stop
         style="stop-color:#000000;stop-opacity:0;"
         offset="1"
         id="stop4047" />
    </linearGradient>
    <linearGradient
       id="linearGradient3882">
      <stop
         id="stop3884"
         offset="0"
         style="stop-color:#aaaaaa;stop-opacity:1;" />
      <stop
         id="stop3886"
         offset="1"
         style="stop-color:#d6d6d6;stop-opacity:1;" />
    </linearGradient>
    <linearGradient
       id="linearGradient4932">
      <stop
         style="stop-color:#2e80a4;stop-opacity:1;"
         offset="0"
         id="stop4934" />
      <stop
         style="stop-color:#60afdc;stop-opacity:1;"
         offset="1"
         id="stop4936" />
    </linearGradient>
    <linearGradient
       id="linearGradient4315"
       inkscape:collect="always">
      <stop
         id="stop4317"
         offset="0"
         style="stop-color:#232323;stop-opacity:1" />
      <stop
         id="stop4319"
         offset="1"
         style="stop-color:#010101;stop-opacity:1" />
    </linearGradient>
    <linearGradient
       id="linearGradient4083">
      <stop
         id="stop4085"
         offset="0"
         style="stop-color:#aaa9aa;stop-opacity:1" />
      <stop
         id="stop4087"
         offset="1"
         style="stop-color:#d4d4d2;stop-opacity:1" />
    </linearGradient>
    <linearGradient
       id="linearGradient4243">
      <stop
         style="stop-color:#000000;stop-opacity:1;"
         offset="0"
         id="stop4245" />
      <stop
         style="stop-color:#000000;stop-opacity:0;"
         offset="1"
         id="stop4247" />
    </linearGradient>
    <radialGradient
       inkscape:collect="always"
       xlink:href="#linearGradient4243"
       id="radialGradient4274"
       gradientUnits="userSpaceOnUse"
       gradientTransform="matrix(1.0434782,0,0,0.1956518,-1.0434797,35.184809)"
       cx="24.000001"
       cy="42.499991"
       fx="24.000001"
       fy="42.499991"
       r="23" />
    <linearGradient
       inkscape:collect="always"
       xlink:href="#linearGradient4932"
       id="linearGradient3880"
       x1="26"
       y1="46"
       x2="26"
       y2="2"
       gradientUnits="userSpaceOnUse" />
    <linearGradient
       inkscape:collect="always"
       xlink:href="#linearGradient4315"
       id="linearGradient4294"
       gradientUnits="userSpaceOnUse"
       gradientTransform="matrix(-1,0,0,1,55,11)"
       x1="23"
       y1="43"
       x2="23"
       y2="38" />
    <linearGradient
       inkscape:collect="always"
       xlink:href="#linearGradient4315"
       id="linearGradient4309"
       gradientUnits="userSpaceOnUse"
       gradientTransform="matrix(-1,0,0,1,37,11)"
       x1="23"
       y1="43"
       x2="23"
       y2="38" />
    <linearGradient
       id="linearGradient3951">
      <stop
         id="stop3953"
         offset="0"
         style="stop-color:#d4d4d3;stop-opacity:1;" />
      <stop
         id="stop3955"
         offset="1"
         style="stop-color:#f7f7f7;stop-opacity:1;" />
    </linearGradient>
    <linearGradient
       id="linearGradient4102">
      <stop
         style="stop-color:#e9ba39;stop-opacity:1;"
         offset="0"
         id="stop4104" />
      <stop
         style="stop-color:#f5d34e;stop-opacity:1;"
         offset="1"
         id="stop4106" />
    </linearGradient>
    <linearGradient
       inkscape:collect="always"
       xlink:href="#linearGradient3882-0"
       id="linearGradient3888-4"
       gradientUnits="userSpaceOnUse"
       x1="26"
       y1="46"
       x2="26"
       y2="2" />
    <linearGradient
       id="linearGradient3882-0">
      <stop
         id="stop3884-2"
         offset="0"
         style="stop-color:#aaaaaa;stop-opacity:1;" />
      <stop
         id="stop3886-1"
         offset="1"
         style="stop-color:#d6d6d6;stop-opacity:1;" />
    </linearGradient>
    <linearGradient
       gradientTransform="translate(50,1001.3622)"
       y2="2"
       x2="26"
       y1="46"
       x1="26"
       gradientUnits="userSpaceOnUse"
       id="linearGradient3905"
       xlink:href="#linearGradient3882-0"
       inkscape:collect="always" />
    <linearGradient
       inkscape:collect="always"
       xlink:href="#linearGradient3882-0"
       id="linearGradient3932"
       x1="24"
       y1="1050.3622"
       x2="24"
       y2="1035.3622"
       gradientUnits="userSpaceOnUse"
       gradientTransform="translate(0,-1004.3622)" />
    <linearGradient
       inkscape:collect="always"
       xlink:href="#linearGradient4932-9"
       id="linearGradient3880-3"
       x1="26"
       y1="46"
       x2="26"
       y2="2"
       gradientUnits="userSpaceOnUse" />
    <linearGradient
       id="linearGradient4932-9">
      <stop
         style="stop-color:#2e80a4;stop-opacity:1;"
         offset="0"
         id="stop4934-7" />
      <stop
         style="stop-color:#60afdc;stop-opacity:1;"
         offset="1"
         id="stop4936-2" />
    </linearGradient>
    <linearGradient
       inkscape:collect="always"
       xlink:href="#linearGradient3882-0"
       id="linearGradient3992"
       gradientUnits="userSpaceOnUse"
       gradientTransform="translate(0,-1003.3622)"
       x1="24"
       y1="1050.3622"
       x2="24"
       y2="1034.3622" />
    <linearGradient
       inkscape:collect="always"
       xlink:href="#linearGradient3882-0"
       id="linearGradient3996"
       gradientUnits="userSpaceOnUse"
       gradientTransform="translate(0,2)"
       x1="24"
       y1="1050.3622"
       x2="24"
       y2="1034.3622" />
    <linearGradient
       inkscape:collect="always"
       xlink:href="#linearGradient4932-3"
       id="linearGradient3880-6"
       x1="26"
       y1="46"
       x2="26"
       y2="2"
       gradientUnits="userSpaceOnUse" />
    <linearGradient
       id="linearGradient4932-3">
      <stop
         style="stop-color:#2e80a4;stop-opacity:1;"
         offset="0"
         id="stop4934-0" />
      <stop
         style="stop-color:#60afdc;stop-opacity:1;"
         offset="1"
         id="stop4936-1" />
    </linearGradient>
    <linearGradient
       gradientTransform="translate(0,1004.3622)"
       y2="2"
       x2="26"
       y1="46"
       x1="26"
       gradientUnits="userSpaceOnUse"
       id="linearGradient4023"
       xlink:href="#linearGradient4932-3"
       inkscape:collect="always" />
    <linearGradient
       inkscape:collect="always"
       xlink:href="#linearGradient4043"
       id="linearGradient4049"
       x1="46"
       y1="24"
       x2="40"
       y2="24"
       gradientUnits="userSpaceOnUse" />
    <linearGradient
       inkscape:collect="always"
       xlink:href="#linearGradient4043"
       id="linearGradient4053"
       gradientUnits="userSpaceOnUse"
       x1="46"
       y1="24"
       x2="40"
       y2="24"
       gradientTransform="matrix(-1,0,0,1,48,1004.3622)" />
  </defs>
  <sodipodi:namedview
     id="base"
     pagecolor="#ffffff"
     bordercolor="#666666"
     borderopacity="1.0"
     inkscape:pageopacity="0.0"
     inkscape:pageshadow="2"
     inkscape:zoom="19.905036"
     inkscape:cx="12.625399"
     inkscape:cy="13.747587"
     inkscape:document-units="px"
     inkscape:current-layer="layer1"
     showgrid="true"
     inkscape:showpageshadow="false"
     borderlayer="true"
     inkscape:window-width="1920"
     inkscape:window-height="1023"
     inkscape:window-x="0"
     inkscape:window-y="28"
     inkscape:window-maximized="1"
     showguides="false">
    <inkscape:grid
       type="xygrid"
       id="grid4162" />
    <sodipodi:guide
       position="1.0000013,47.000017"
       orientation="46,0"
       id="guide4163" />
    <sodipodi:guide
       position="1.0000013,1.0000174"
       orientation="0,45.999999"
       id="guide4165" />
    <sodipodi:guide
       position="47,1.0000174"
       orientation="-46,0"
       id="guide4167" />
    <sodipodi:guide
       position="47,47.000017"
       orientation="0,-45.999999"
       id="guide4169" />
    <sodipodi:guide
       position="2.0000007,46.000017"
       orientation="44,0"
       id="guide4173" />
    <sodipodi:guide
       position="2.0000007,2.0000174"
       orientation="0,43.999999"
       id="guide4175" />
    <sodipodi:guide
       position="46,2.0000174"
       orientation="-44,0"
       id="guide4177" />
    <sodipodi:guide
       position="46,46.000017"
       orientation="0,-43.999999"
       id="guide4179" />
    <sodipodi:guide
       position="3,45.000017"
       orientation="42,0"
       id="guide4183" />
    <sodipodi:guide
       position="45,45.000017"
       orientation="0,-42"
       id="guide4189" />
    <sodipodi:guide
       position="3,45.000017"
       orientation="42,0"
       id="guide4193" />
    <sodipodi:guide
       position="3,3.0000174"
       orientation="0,42"
       id="guide4195" />
    <sodipodi:guide
       position="45,3.0000174"
       orientation="-42,0"
       id="guide4197" />
    <sodipodi:guide
       position="45,45.000017"
       orientation="0,-42"
       id="guide4199" />
    <sodipodi:guide
       position="3,10.000017"
       orientation="7,0"
       id="guide4203" />
    <sodipodi:guide
       position="3,3.0000174"
       orientation="0,42"
       id="guide4205" />
    <sodipodi:guide
       position="45,3.0000174"
       orientation="-7,0"
       id="guide4207" />
    <sodipodi:guide
       position="45,10.000017"
       orientation="0,-42"
       id="guide4209" />
  </sodipodi:namedview>
  <metadata
     id="metadata4235">
    <rdf:RDF>
      <cc:Work
         rdf:about="">
        <dc:format>image/svg+xml</dc:format>
        <dc:type
           rdf:resource="http://purl.org/dc/dcmitype/StillImage" />
        <dc:title />
      </cc:Work>
    </rdf:RDF>
  </metadata>
  <g
     inkscape:groupmode="layer"
     id="layer3"
     inkscape:label="Fake blur shadow"
     style="display:inline"
     sodipodi:insensitive="true">
    <path
       style="opacity:0.06000001;fill:#000000;fill-opacity:1;stroke:none"
       d="M 10,1 C 5.014,1 1,5.014 1,10 l 0,28 c 0,4.986 4.014,9 9,9 l 28,0 c 4.986,0 9,-4.014 9,-9 L 47,10 C 47,5.014 42.986,1 38,1 L 10,1 z m 0.5,0.5 27,0 c 4.986,0 9,4.014 9,9 l 0,27 c 0,4.986 -4.014,9 -9,9 l -27,0 c -4.986,0 -9,-4.014 -9,-9 l 0,-27 c 0,-4.986 4.014,-9 9,-9 z"
       id="rect3829"
       inkscape:connector-curvature="0" />
    <path
       style="opacity:0.12000002;fill:#000000;fill-opacity:1;stroke:none"
       d="m 10.5,1.5 c -4.986,0 -9,4.014 -9,9 l 0,27 c 0,4.986 4.014,9 9,9 l 27,0 c 4.986,0 9,-4.014 9,-9 l 0,-27 c 0,-4.986 -4.014,-9 -9,-9 l -27,0 z m 0.25,0.25 26.5,0 c 4.986,0 9,4.014 9,9 l 0,26.5 c 0,4.986 -4.014,9 -9,9 l -26.5,0 c -4.986,0 -9,-4.014 -9,-9 l 0,-26.5 c 0,-4.986 4.014,-9 9,-9 z"
       id="rect3827"
       inkscape:connector-curvature="0" />
    <rect
       style="opacity:0.23999999;fill:#000000;fill-opacity:1;stroke:none"
       id="rect3038-4"
       width="44.5"
       height="44.5"
       x="1.75"
       y="1.75"
       ry="9"
       rx="9" />
  </g>
  <g
     inkscape:groupmode="layer"
     id="layer6"
     inkscape:label="Blob"
     style="display:inline"
     sodipodi:insensitive="true">
    <path
       style="opacity:0.3;fill:url(#radialGradient4274);fill-opacity:1;stroke:none"
       d="M 1.03125,39 C 1.5192036,43.518898 5.3471961,47 10,47 l 28,0 c 4.652804,0 8.480796,-3.481102 8.96875,-8 l -45.9375,0 z"
       id="rect4241"
       inkscape:connector-curvature="0" />
  </g>
  <g
     inkscape:groupmode="layer"
     id="layer2"
     inkscape:label="Baseplate"
     style="display:inline">
    <rect
       style="fill:url(#linearGradient3880);fill-opacity:1.0;stroke:none"
       id="rect3038"
       width="44"
       height="44"
       x="2"
       y="1.9999826"
       ry="9"
       rx="9" />
  </g>
  <g
     inkscape:label="Symbol"
     inkscape:groupmode="layer"
     id="layer1"
     transform="translate(0,-1004.3622)"
     style="display:inline">
    <path
       id="path4062"
       d="m 20.206809,1014.3622 a 1.3930735,1.3930735 0 0 0 -0.999186,0.4224 1.3930735,1.3930735 0 0 0 -0.176793,0.226 c -1.28196,-0.528 -2.246755,-0.5712 -2.709577,-0.108 -0.296469,0.2992 -0.389585,0.8016 -0.27167,1.4679 0.117836,0.6664 0.446383,1.4966 0.960084,2.4257 -0.430144,-1.6053 -1.073455,-4.4994 1.832994,-3.3206 a 1.3930735,1.3930735 0 0 0 -0.0288,0.2804 1.3930735,1.3930735 0 0 0 1.393091,1.3929 1.3930735,1.3930735 0 0 0 0.954793,-0.38 c 1.444513,0.977 3.075067,2.3449 4.581265,3.8505 5.484454,5.6162 6.719533,11.3815 -0.52102,7.2013 1.443527,1.0768 2.8143,1.8687 3.909594,2.2587 1.09531,0.3898 1.911847,0.3762 2.328311,-0.038 0.293189,-0.2932 0.389425,-0.783 0.281109,-1.4331 -0.108315,-0.65 -0.420784,-1.4598 -0.914053,-2.3677 -0.98677,-1.8158 -2.715472,-4.0265 -4.697107,-6.0082 -1.514623,-1.514 -3.162904,-2.8831 -4.665598,-3.8807 a 1.3930735,1.3930735 0 0 0 0.135594,-0.5953 1.3930735,1.3930735 0 0 0 -1.39308,-1.3932 z m 0,0.547 a 0.84561972,0.84561972 0 0 1 0.846037,0.8458 0.84561972,0.84561972 0 0 1 -0.0536,0.2947 c -2.08e-4,4e-4 -6.24e-4,0 -8.32e-4,0 -0.0054,0.02 -0.0112,0.026 -0.0168,0.04 a 0.84561972,0.84561972 0 0 1 -0.012,0.028 c -0.0064,0.02 -0.0128,0.026 -0.02,0.04 a 0.84561972,0.84561972 0 0 1 -0.0136,0.024 c -0.008,0.02 -0.0168,0.028 -0.0248,0.04 -6.32e-4,6e-4 -0.0013,0 -0.002,0 -0.02,0.03 -0.0424,0.058 -0.0672,0.086 a 0.84561972,0.84561972 0 0 1 -0.0144,0.02 c -0.0104,0.02 -0.0208,0.02 -0.0304,0.03 a 0.84561972,0.84561972 0 0 1 -0.0272,0.024 c -0.008,0 -0.0168,0.02 -0.0256,0.022 a 0.84561972,0.84561972 0 0 1 -0.0536,0.04 0.84561972,0.84561972 0 0 1 -0.0056,0 c -4.16e-4,2e-4 -4.16e-4,6e-4 -8.32e-4,8e-4 a 0.84561972,0.84561972 0 0 1 -0.475741,0.146 0.84561972,0.84561972 0 0 1 -0.846032,-0.8455 0.84561972,0.84561972 0 0 1 0.0022,-0.046 c 6.24e-4,-0.02 0.002,-0.024 0.0032,-0.036 a 0.84561972,0.84561972 0 0 1 0.0054,-0.042 c 0.0018,-0.02 0.0038,-0.024 0.0056,-0.038 a 0.84561972,0.84561972 0 0 1 0.0066,-0.03 c 0.012,-0.05 0.0288,-0.1 0.0488,-0.146 a 0.84561972,0.84561972 0 0 1 0.0112,-0.024 c 0.007,-0.02 0.0136,-0.028 0.0216,-0.042 a 0.84561972,0.84561972 0 0 1 0.012,-0.022 c 0.0078,-0.02 0.0144,-0.026 0.0232,-0.038 a 0.84561972,0.84561972 0 0 1 8.32e-4,-8e-4 c 0.012,-0.02 0.024,-0.036 0.0376,-0.052 a 0.84561972,0.84561972 0 0 1 0.0608,-0.072 0.84561972,0.84561972 0 0 1 0.606537,-0.2566 z m -1.115686,6.2909 1.716087,6.4946 1.35765,-2.8913 3.069251,-0.8856 -6.142988,-2.7177 z"
       style="fill:#000000;fill-opacity:1;fill-rule:evenodd;stroke:none;display:inline;opacity:0.15"
       inkscape:connector-curvature="0" />
    <path
       style="fill:url(#linearGradient3932);fill-opacity:1;stroke:none"
       d="m 4,32 c -1.108,0 -2,0.892 -2,2 l 0,3 c 0,4.986 4.014,9 9,9 l 26,0 c 4.986,0 9,-4.014 9,-9 l 0,-3 c 0,-1.108 -0.892,-2 -2,-2 z"
       id="rect3924"
       inkscape:connector-curvature="0"
       sodipodi:nodetypes="sssssssss"
       transform="translate(0,1004.3622)" />
    <path
       style="fill:#f2f2f2;fill-opacity:1;stroke:none;opacity:0.65"
       d="m 4,1036.3622 c -1.108,0 -2,0.892 -2,2 l 0,1 c 0,-1.108 0.892,-2 2,-2 l 40,0 c 1.108,0 2,0.892 2,2 l 0,-1 c 0,-1.108 -0.892,-2 -2,-2 l -40,0 z"
       id="path3990"
       inkscape:connector-curvature="0" />
    <path
       style="opacity:0.17;fill:url(#linearGradient4049);fill-opacity:1;stroke:none"
       d="M 40 2.53125 L 40 45.46875 C 43.498835 44.236625 46 40.930651 46 37 L 46 11 C 46 7.0693486 43.498835 3.7633752 40 2.53125 z "
       transform="translate(0,1004.3622)"
       id="rect4004" />
    <path
       sodipodi:type="arc"
       style="fill:#4fbb43;fill-opacity:1;stroke:none"
       id="path3103"
       sodipodi:cx="-25.5"
       sodipodi:cy="17.5"
       sodipodi:rx="13.5"
       sodipodi:ry="13.5"
       d="M -12,17.5 C -12,24.955844 -18.044156,31 -25.5,31 -32.955844,31 -39,24.955844 -39,17.5 -39,10.044156 -32.955844,4 -25.5,4 -18.044156,4 -12,10.044156 -12,17.5 z"
       transform="matrix(0.14814815,0,0,0.14814815,41.777778,1039.7696)" />
    <path
       style="opacity:0.2;fill:#ffffff;fill-opacity:1;stroke:none"
       d="m 38,1040.3622 c -1.10457,0 -2,0.8954 -2,2 0,0.1726 0.0214,0.3402 0.0625,0.5 0.221963,-0.8627 1.005519,-1.5 1.9375,-1.5 0.931981,0 1.715537,0.6373 1.9375,1.5 0.0411,-0.1598 0.0625,-0.3274 0.0625,-0.5 0,-1.1046 -0.89543,-2 -2,-2 z"
       id="path3999"
       inkscape:connector-curvature="0" />
    <path
       id="path4051"
       d="m 8,1006.8935 0,42.9375 c -3.498835,-1.2322 -6,-4.5381 -6,-8.4688 l 0,-26 c 0,-3.9307 2.501165,-7.2366 6,-8.4687 z"
       style="opacity:0.17;fill:url(#linearGradient4053);fill-opacity:1;stroke:none"
       inkscape:connector-curvature="0" />
    <path
       inkscape:connector-curvature="0"
       style="fill:#f7f7f7;fill-opacity:1;fill-rule:evenodd;stroke:none;display:inline"
       d="m 20.206809,1013.3622 a 1.3930735,1.3930735 0 0 0 -0.999186,0.4224 1.3930735,1.3930735 0 0 0 -0.176793,0.226 c -1.28196,-0.528 -2.246755,-0.5712 -2.709577,-0.108 -0.296469,0.2992 -0.389585,0.8016 -0.27167,1.4679 0.117836,0.6664 0.446383,1.4966 0.960084,2.4257 -0.430144,-1.6053 -1.073455,-4.4994 1.832994,-3.3206 a 1.3930735,1.3930735 0 0 0 -0.0288,0.2804 1.3930735,1.3930735 0 0 0 1.393091,1.3929 1.3930735,1.3930735 0 0 0 0.954793,-0.38 c 1.444513,0.977 3.075067,2.3449 4.581265,3.8505 5.484454,5.6162 6.719533,11.3815 -0.52102,7.2013 1.443527,1.0768 2.8143,1.8687 3.909594,2.2587 1.09531,0.3898 1.911847,0.3762 2.328311,-0.038 0.293189,-0.2932 0.389425,-0.783 0.281109,-1.4331 -0.108315,-0.65 -0.420784,-1.4598 -0.914053,-2.3677 -0.98677,-1.8158 -2.715472,-4.0265 -4.697107,-6.0082 -1.514623,-1.514 -3.162904,-2.8831 -4.665598,-3.8807 a 1.3930735,1.3930735 0 0 0 0.135594,-0.5953 1.3930735,1.3930735 0 0 0 -1.39308,-1.3932 z m 0,0.547 a 0.84561972,0.84561972 0 0 1 0.846037,0.8458 0.84561972,0.84561972 0 0 1 -0.0536,0.2947 c -2.08e-4,4e-4 -6.24e-4,0 -8.32e-4,0 -0.0054,0.02 -0.0112,0.026 -0.0168,0.04 a 0.84561972,0.84561972 0 0 1 -0.012,0.028 c -0.0064,0.02 -0.0128,0.026 -0.02,0.04 a 0.84561972,0.84561972 0 0 1 -0.0136,0.024 c -0.008,0.02 -0.0168,0.028 -0.0248,0.04 -6.32e-4,6e-4 -0.0013,0 -0.002,0 -0.02,0.03 -0.0424,0.058 -0.0672,0.086 a 0.84561972,0.84561972 0 0 1 -0.0144,0.02 c -0.0104,0.02 -0.0208,0.02 -0.0304,0.03 a 0.84561972,0.84561972 0 0 1 -0.0272,0.024 c -0.008,0 -0.0168,0.02 -0.0256,0.022 a 0.84561972,0.84561972 0 0 1 -0.0536,0.04 0.84561972,0.84561972 0 0 1 -0.0056,0 c -4.16e-4,2e-4 -4.16e-4,6e-4 -8.32e-4,8e-4 a 0.84561972,0.84561972 0 0 1 -0.475741,0.146 0.84561972,0.84561972 0 0 1 -0.846032,-0.8455 0.84561972,0.84561972 0 0 1 0.0022,-0.046 c 6.24e-4,-0.02 0.002,-0.024 0.0032,-0.036 a 0.84561972,0.84561972 0 0 1 0.0054,-0.042 c 0.0018,-0.02 0.0038,-0.024 0.0056,-0.038 a 0.84561972,0.84561972 0 0 1 0.0066,-0.03 c 0.012,-0.05 0.0288,-0.1 0.0488,-0.146 a 0.84561972,0.84561972 0 0 1 0.0112,-0.024 c 0.007,-0.02 0.0136,-0.028 0.0216,-0.042 a 0.84561972,0.84561972 0 0 1 0.012,-0.022 c 0.0078,-0.02 0.0144,-0.026 0.0232,-0.038 a 0.84561972,0.84561972 0 0 1 8.32e-4,-8e-4 c 0.012,-0.02 0.024,-0.036 0.0376,-0.052 a 0.84561972,0.84561972 0 0 1 0.0608,-0.072 0.84561972,0.84561972 0 0 1 0.606537,-0.2566 z m -1.115686,6.2909 1.716087,6.4946 1.35765,-2.8913 3.069251,-0.8856 -6.142988,-2.7177 z"
       id="path4299" />
  </g>
  <g
     inkscape:groupmode="layer"
     id="layer4"
     inkscape:label="Inset"
     style="display:inline"
     sodipodi:insensitive="true">
    <path
       style="opacity:0.15;fill:#000000;fill-opacity:1;stroke:none"
       d="m 2,34 0,3 c 0,4.986 4.014,9 9,9 l 26,0 c 4.986,0 9,-4.014 9,-9 l 0,-3 c 0,4.986 -4.014,9 -9,9 L 11,43 C 6.014,43 2,38.986 2,34 z"
       id="rect3038-42"
       inkscape:connector-curvature="0" />
  </g>
  <g
     inkscape:groupmode="layer"
     id="layer7"
     inkscape:label="Baseshape"
     sodipodi:insensitive="true"
     style="display:none">
    <rect
       rx="9"
       ry="9"
       y="2"
       x="2"
       height="44"
       width="44"
       id="rect4169"
       style="fill:#abe1ad;fill-opacity:1;stroke:none;display:inline" />
  </g>
</svg>
