<?xml version="1.0" encoding="UTF-8" standalone="no"?>
<!-- Created with Inkscape (http://www.inkscape.org/) -->

<svg
   xmlns:dc="http://purl.org/dc/elements/1.1/"
   xmlns:cc="http://creativecommons.org/ns#"
   xmlns:rdf="http://www.w3.org/1999/02/22-rdf-syntax-ns#"
   xmlns:svg="http://www.w3.org/2000/svg"
   xmlns="http://www.w3.org/2000/svg"
   xmlns:xlink="http://www.w3.org/1999/xlink"
   xmlns:sodipodi="http://sodipodi.sourceforge.net/DTD/sodipodi-0.dtd"
   xmlns:inkscape="http://www.inkscape.org/namespaces/inkscape"
   width="48"
   height="48"
   id="svg4230"
   version="1.1"
   inkscape:version="0.91pre2 r"
   sodipodi:docname="gallery.svg"
   inkscape:export-filename="/home/uri/Descargas/Squircles/gallery.png"
   inkscape:export-xdpi="480"
   inkscape:export-ydpi="480">
  <defs
     id="defs4232">
    <linearGradient
       inkscape:collect="always"
       id="linearGradient4486">
      <stop
         style="stop-color:#85b900;stop-opacity:1;"
         offset="0"
         id="stop4488" />
      <stop
         style="stop-color:#85b900;stop-opacity:0;"
         offset="1"
         id="stop4490" />
    </linearGradient>
    <linearGradient
       id="linearGradient4465">
      <stop
         id="stop4467"
         offset="0"
         style="stop-color:#ade0f5;stop-opacity:1" />
      <stop
         style="stop-color:#d6effa;stop-opacity:1;"
         offset="0.5"
         id="stop4471" />
      <stop
         id="stop4469"
         offset="1"
         style="stop-color:#ffffff;stop-opacity:1" />
    </linearGradient>
    <linearGradient
       id="linearGradient4358"
       inkscape:collect="always">
      <stop
         id="stop4360"
         offset="0"
         style="stop-color:#f1fa83;stop-opacity:1" />
      <stop
         id="stop4362"
         offset="1"
         style="stop-color:#e6f48b;stop-opacity:0" />
    </linearGradient>
    <linearGradient
       inkscape:collect="always"
       id="linearGradient4330">
      <stop
         style="stop-color:#ffce00;stop-opacity:1"
         offset="0"
         id="stop4332" />
      <stop
         style="stop-color:#e6f48b;stop-opacity:1"
         offset="1"
         id="stop4334" />
    </linearGradient>
    <linearGradient
       inkscape:collect="always"
       id="linearGradient4322">
      <stop
         style="stop-color:#9ede42;stop-opacity:1"
         offset="0"
         id="stop4324" />
      <stop
         style="stop-color:#9ede41;stop-opacity:1"
         offset="1"
         id="stop4326" />
    </linearGradient>
    <linearGradient
       inkscape:collect="always"
       id="linearGradient4314">
      <stop
         style="stop-color:#5ec415;stop-opacity:1"
         offset="0"
         id="stop4316" />
      <stop
         style="stop-color:#88d61f;stop-opacity:1"
         offset="1"
         id="stop4318" />
    </linearGradient>
    <linearGradient
       id="linearGradient4512">
      <stop
         style="stop-color:#ade0f5;stop-opacity:1"
         offset="0"
         id="stop4514" />
      <stop
         style="stop-color:#a3dbf5;stop-opacity:1"
         offset="1"
         id="stop4516" />
    </linearGradient>
    <linearGradient
       id="linearGradient4243">
      <stop
         style="stop-color:#000000;stop-opacity:1;"
         offset="0"
         id="stop4245" />
      <stop
         style="stop-color:#000000;stop-opacity:0;"
         offset="1"
         id="stop4247" />
    </linearGradient>
    <radialGradient
       inkscape:collect="always"
       xlink:href="#linearGradient4243"
       id="radialGradient4274"
       gradientUnits="userSpaceOnUse"
       gradientTransform="matrix(1.0434782,0,0,0.1956518,-1.0434797,35.184809)"
       cx="24.000001"
       cy="42.499991"
       fx="24.000001"
       fy="42.499991"
       r="23" />
    <linearGradient
       inkscape:collect="always"
       xlink:href="#linearGradient4512"
       id="linearGradient4530"
       x1="24"
       y1="46"
       x2="24"
       y2="2"
       gradientUnits="userSpaceOnUse" />
    <linearGradient
       inkscape:collect="always"
       xlink:href="#linearGradient4314"
       id="linearGradient4320"
       x1="13"
       y1="46"
       x2="13"
       y2="23"
       gradientUnits="userSpaceOnUse" />
    <linearGradient
       inkscape:collect="always"
       xlink:href="#linearGradient4322"
       id="linearGradient4328"
       x1="33"
       y1="46"
       x2="33"
       y2="13"
       gradientUnits="userSpaceOnUse" />
    <linearGradient
       inkscape:collect="always"
       xlink:href="#linearGradient4330"
       id="linearGradient4340"
       gradientUnits="userSpaceOnUse"
       x1="10"
       y1="15"
       x2="10"
       y2="5"
       gradientTransform="matrix(0.60000068,0,0,0.60000068,3.9999964,3.9999897)" />
    <radialGradient
       inkscape:collect="always"
       xlink:href="#linearGradient4358"
       id="radialGradient4356"
       cx="10.000009"
       cy="9.9999914"
       fx="10.000009"
       fy="9.9999914"
       r="5.0000086"
       gradientUnits="userSpaceOnUse" />
    <linearGradient
       inkscape:collect="always"
       xlink:href="#linearGradient4465"
       id="linearGradient4463"
       x1="42"
       y1="14"
       x2="35"
       y2="21"
       gradientUnits="userSpaceOnUse" />
    <linearGradient
       inkscape:collect="always"
       xlink:href="#linearGradient4486"
       id="linearGradient4492"
       x1="32"
       y1="33"
       x2="35"
       y2="21.803848"
       gradientUnits="userSpaceOnUse" />
    <linearGradient
       gradientTransform="translate(-23,10)"
       inkscape:collect="always"
       xlink:href="#linearGradient4465"
       id="linearGradient4463-1"
       x1="42"
       y1="14"
       x2="35"
       y2="21"
       gradientUnits="userSpaceOnUse" />
    <linearGradient
       gradientTransform="translate(-23,10)"
       inkscape:collect="always"
       xlink:href="#linearGradient4486"
       id="linearGradient4492-8"
       x1="32"
       y1="33"
       x2="35"
       y2="21.803848"
       gradientUnits="userSpaceOnUse" />
  </defs>
  <sodipodi:namedview
     id="base"
     pagecolor="#ffffff"
     bordercolor="#666666"
     borderopacity="1.0"
     inkscape:pageopacity="0.0"
     inkscape:pageshadow="2"
     inkscape:zoom="8"
     inkscape:cx="17.420617"
     inkscape:cy="21.868577"
     inkscape:document-units="px"
     inkscape:current-layer="layer2"
     showgrid="true"
     inkscape:showpageshadow="false"
     borderlayer="true"
     inkscape:window-width="1366"
     inkscape:window-height="672"
     inkscape:window-x="-4"
     inkscape:window-y="25"
     inkscape:window-maximized="1"
     showguides="false"
     inkscape:guide-bbox="true">
    <inkscape:grid
       type="xygrid"
       id="grid4162" />
    <sodipodi:guide
       position="1.0000013,47.000017"
       orientation="46,0"
       id="guide4163" />
    <sodipodi:guide
       position="1.0000013,1.0000174"
       orientation="0,45.999999"
       id="guide4165" />
    <sodipodi:guide
       position="47,1.0000174"
       orientation="-46,0"
       id="guide4167" />
    <sodipodi:guide
       position="47,47.000017"
       orientation="0,-45.999999"
       id="guide4169" />
    <sodipodi:guide
       position="2.0000007,46.000017"
       orientation="44,0"
       id="guide4173" />
    <sodipodi:guide
       position="2.0000007,2.0000174"
       orientation="0,43.999999"
       id="guide4175" />
    <sodipodi:guide
       position="46,2.0000174"
       orientation="-44,0"
       id="guide4177" />
    <sodipodi:guide
       position="46,46.000017"
       orientation="0,-43.999999"
       id="guide4179" />
    <sodipodi:guide
       position="3,45.000017"
       orientation="42,0"
       id="guide4183" />
    <sodipodi:guide
       position="45,3.0000174"
       orientation="-42,0"
       id="guide4187" />
    <sodipodi:guide
       position="45,45.000017"
       orientation="0,-42"
       id="guide4189" />
    <sodipodi:guide
       position="3,45.000017"
       orientation="42,0"
       id="guide4193" />
    <sodipodi:guide
       position="3,3.0000174"
       orientation="0,42"
       id="guide4195" />
    <sodipodi:guide
       position="45,3.0000174"
       orientation="-42,0"
       id="guide4197" />
    <sodipodi:guide
       position="45,45.000017"
       orientation="0,-42"
       id="guide4199" />
    <sodipodi:guide
       position="3,10.000017"
       orientation="7,0"
       id="guide4203" />
    <sodipodi:guide
       position="3,3.0000174"
       orientation="0,42"
       id="guide4205" />
    <sodipodi:guide
       position="45,3.0000174"
       orientation="-7,0"
       id="guide4207" />
    <sodipodi:guide
       position="45,10.000017"
       orientation="0,-42"
       id="guide4209" />
  </sodipodi:namedview>
  <metadata
     id="metadata4235">
    <rdf:RDF>
      <cc:Work
         rdf:about="">
        <dc:format>image/svg+xml</dc:format>
        <dc:type
           rdf:resource="http://purl.org/dc/dcmitype/StillImage" />
        <dc:title />
      </cc:Work>
    </rdf:RDF>
  </metadata>
  <g
     inkscape:groupmode="layer"
     id="layer3"
     inkscape:label="Fake blur shadow"
     style="display:inline"
     sodipodi:insensitive="true">
    <path
       style="opacity:0.06000001;fill:#000000;fill-opacity:1;stroke:none"
       d="M 10,1 C 5.014,1 1,5.014 1,10 l 0,28 c 0,4.986 4.014,9 9,9 l 28,0 c 4.986,0 9,-4.014 9,-9 L 47,10 C 47,5.014 42.986,1 38,1 L 10,1 z m 0.5,0.5 27,0 c 4.986,0 9,4.014 9,9 l 0,27 c 0,4.986 -4.014,9 -9,9 l -27,0 c -4.986,0 -9,-4.014 -9,-9 l 0,-27 c 0,-4.986 4.014,-9 9,-9 z"
       id="rect3829"
       inkscape:connector-curvature="0" />
    <path
       style="opacity:0.12000002;fill:#000000;fill-opacity:1;stroke:none"
       d="m 10.5,1.5 c -4.986,0 -9,4.014 -9,9 l 0,27 c 0,4.986 4.014,9 9,9 l 27,0 c 4.986,0 9,-4.014 9,-9 l 0,-27 c 0,-4.986 -4.014,-9 -9,-9 l -27,0 z m 0.25,0.25 26.5,0 c 4.986,0 9,4.014 9,9 l 0,26.5 c 0,4.986 -4.014,9 -9,9 l -26.5,0 c -4.986,0 -9,-4.014 -9,-9 l 0,-26.5 c 0,-4.986 4.014,-9 9,-9 z"
       id="rect3827"
       inkscape:connector-curvature="0" />
    <rect
       style="opacity:0.23999999;fill:#000000;fill-opacity:1;stroke:none"
       id="rect3038-4"
       width="44.5"
       height="44.5"
       x="1.75"
       y="1.75"
       ry="9"
       rx="9" />
  </g>
  <g
     inkscape:groupmode="layer"
     id="layer6"
     inkscape:label="Blob"
     style="display:inline"
     sodipodi:insensitive="true">
    <path
       style="opacity:0.3;fill:url(#radialGradient4274);fill-opacity:1;stroke:none"
       d="M 1.03125,39 C 1.5192036,43.518898 5.3471961,47 10,47 l 28,0 c 4.652804,0 8.480796,-3.481102 8.96875,-8 l -45.9375,0 z"
       id="rect4241"
       inkscape:connector-curvature="0" />
  </g>
  <g
     inkscape:groupmode="layer"
     id="layer2"
     inkscape:label="Baseplate"
     style="display:inline">
    <rect
       style="fill:url(#linearGradient4530);fill-opacity:1.0;stroke:none"
       id="rect3038"
       width="44"
       height="44"
       x="2"
       y="1.9999826"
       ry="9"
       rx="9" />
    <rect
       style="color:#000000;text-decoration:none;text-decoration-line:none;text-decoration-style:solid;text-decoration-color:#000000;clip-rule:nonzero;display:inline;overflow:visible;visibility:visible;opacity:1;isolation:auto;mix-blend-mode:normal;color-interpolation:sRGB;color-interpolation-filters:linearRGB;solid-color:#000000;solid-opacity:1;fill:url(#radialGradient4356);fill-opacity:1;fill-rule:nonzero;stroke:none;stroke-width:1;stroke-linecap:butt;stroke-linejoin:miter;stroke-miterlimit:4;stroke-dasharray:none;stroke-dashoffset:0;stroke-opacity:1;color-rendering:auto;image-rendering:auto;shape-rendering:auto;text-rendering:auto;enable-background:accumulate"
       id="rect4287"
       width="10.000017"
       height="10.000017"
       x="5"
       y="4.9999828"
       rx="5.0000086"
       ry="5.0000086" />
    <path
       style="fill:url(#linearGradient4320);fill-rule:evenodd;stroke:none;stroke-width:1px;stroke-linecap:butt;stroke-linejoin:miter;stroke-opacity:1;fill-opacity:1"
       d="M 14 23 L 2 35 L 2 37 C 2 41.986 6.014 46 11 46 L 37 46 L 14 23 z "
       id="path4293" />
    <rect
       ry="3.0000086"
       rx="3.0000086"
       y="6.9999828"
       x="7"
       height="6.0000172"
       width="6.0000172"
       id="rect4338"
       style="color:#000000;text-decoration:none;text-decoration-line:none;text-decoration-style:solid;text-decoration-color:#000000;clip-rule:nonzero;display:inline;overflow:visible;visibility:visible;opacity:1;isolation:auto;mix-blend-mode:normal;color-interpolation:sRGB;color-interpolation-filters:linearRGB;solid-color:#000000;solid-opacity:1;fill:url(#linearGradient4340);fill-opacity:1;fill-rule:nonzero;stroke:none;stroke-width:1;stroke-linecap:butt;stroke-linejoin:miter;stroke-miterlimit:4;stroke-dasharray:none;stroke-dashoffset:0;stroke-opacity:1;color-rendering:auto;image-rendering:auto;shape-rendering:auto;text-rendering:auto;enable-background:accumulate" />
    <path
       inkscape:connector-curvature="0"
       style="display:inline;fill:url(#linearGradient4492-8);fill-opacity:1;fill-rule:evenodd;stroke:none;stroke-width:1px;stroke-linecap:butt;stroke-linejoin:miter;stroke-opacity:1"
       d="m 8.582031,28.417969 -3.705078,3.705078 c 0.47721,-0.0569 0.943431,-0.101599 1.318359,-0.0918 C 8.194629,32.08352 9,37.018789 15,33.554688 21,30.090587 23,33 23,33 c 0,0 0,-0.5 -0.125,-1.125 L 20.585938,29.585938 C 18.071075,29.119501 12.933874,28.713955 8.582031,28.417969 Z"
       id="path4475-8" />
    <path
       inkscape:connector-curvature="0"
       style="display:inline;opacity:0.8;fill:url(#linearGradient4463-1);fill-opacity:1;fill-rule:evenodd;stroke:none;stroke-width:1px;stroke-linecap:butt;stroke-linejoin:miter;stroke-opacity:1"
       d="M 14,23 5.820312,31.179688 C 6.192073,31.156798 6.582357,31.104411 7,31 c 4,-1 0,5 9,2 3.36146,-1.120487 5.047353,-1.822032 6.050781,-1.949219 L 14,23 Z"
       id="path4456-5" />
    <path
       id="path4553"
       d="m 27,18 c -0.814066,0 -1.50755,0.484775 -1.820312,1.179688 C 24.484774,19.49245 24,20.185934 24,21 c 0,0.03014 0.0085,0.05809 0.0098,0.08789 C 23.422655,21.291096 23,21.842058 23,22.5 c 0,0.831 0.669,1.5 1.5,1.5 l 6.5,0 c 1.108,0 2,-0.892 2,-2 0,-0.814066 -0.484774,-1.50755 -1.179688,-1.820312 C 31.50755,19.484774 30.814066,19 30,19 l -1.275391,0 C 28.379049,18.404201 27.74107,18 27,18 Z m -1.087891,4.990234 C 25.941914,22.991541 25.969862,23 26,23 l -0.0918,0 c 0.0012,-0.0033 0.0028,-0.0065 0.0039,-0.0098 z"
       style="color:#000000;text-decoration:none;text-decoration-line:none;text-decoration-style:solid;text-decoration-color:#000000;clip-rule:nonzero;display:inline;overflow:visible;visibility:visible;opacity:1;isolation:auto;mix-blend-mode:normal;color-interpolation:sRGB;color-interpolation-filters:linearRGB;solid-color:#000000;solid-opacity:1;fill:#ffffff;fill-opacity:0.48192772;fill-rule:nonzero;stroke:none;stroke-width:1;stroke-linecap:butt;stroke-linejoin:miter;stroke-miterlimit:4;stroke-dasharray:none;stroke-dashoffset:0;stroke-opacity:1;color-rendering:auto;image-rendering:auto;shape-rendering:auto;text-rendering:auto;enable-background:accumulate"
       inkscape:connector-curvature="0" />
    <path
       style="fill:url(#linearGradient4328);fill-rule:evenodd;stroke:none;stroke-width:1px;stroke-linecap:butt;stroke-linejoin:miter;stroke-opacity:1;fill-opacity:1"
       d="M 37 13 L 5.7167969 44.283203 C 7.1997177 45.358668 9.0200328 46 11 46 L 37 46 C 41.986 46 46 41.986 46 37 L 46 22 L 37 13 z "
       id="path4295" />
    <path
       style="fill:url(#linearGradient4492);fill-opacity:1;fill-rule:evenodd;stroke:none;stroke-width:1px;stroke-linecap:butt;stroke-linejoin:miter;stroke-opacity:1"
       d="M 31.582031 18.417969 L 27.876953 22.123047 C 28.354163 22.066152 28.820384 22.021448 29.195312 22.03125 C 31.194629 22.08352 32 27.018789 38 23.554688 C 44 20.090587 46 23 46 23 C 46 23 46 22.5 45.875 21.875 L 43.585938 19.585938 C 41.071075 19.119501 35.933874 18.713955 31.582031 18.417969 z "
       id="path4475" />
    <path
       style="fill:url(#linearGradient4463);fill-rule:evenodd;stroke:none;stroke-width:1px;stroke-linecap:butt;stroke-linejoin:miter;stroke-opacity:1;fill-opacity:1;opacity:0.8"
       d="M 37 13 L 28.820312 21.179688 C 29.192073 21.156798 29.582357 21.104411 30 21 C 34 20 30 26 39 23 C 42.36146 21.879513 44.047353 21.177968 45.050781 21.050781 L 37 13 z "
       id="path4456" />
    <path
       style="color:#000000;text-decoration:none;text-decoration-line:none;text-decoration-style:solid;text-decoration-color:#000000;clip-rule:nonzero;display:inline;overflow:visible;visibility:visible;opacity:1;isolation:auto;mix-blend-mode:normal;color-interpolation:sRGB;color-interpolation-filters:linearRGB;solid-color:#000000;solid-opacity:1;fill:#ffffff;fill-opacity:0.48192772;fill-rule:nonzero;stroke:none;stroke-width:1;stroke-linecap:butt;stroke-linejoin:miter;stroke-miterlimit:4;stroke-dasharray:none;stroke-dashoffset:0;stroke-opacity:1;color-rendering:auto;image-rendering:auto;shape-rendering:auto;text-rendering:auto;enable-background:accumulate"
       d="M 23 8 C 22.185934 8 21.49245 8.4847745 21.179688 9.1796875 C 20.484774 9.4924502 20 10.185934 20 11 C 20 11.030138 20.008459 11.058086 20.009766 11.087891 C 19.422655 11.291096 19 11.842058 19 12.5 C 19 13.331 19.669 14 20.5 14 L 27 14 C 28.108 14 29 13.108 29 12 C 29 11.185934 28.515226 10.49245 27.820312 10.179688 C 27.50755 9.4847744 26.814066 9 26 9 L 24.724609 9 C 24.379049 8.4042011 23.74107 8 23 8 z M 21.912109 12.990234 C 21.941914 12.991541 21.969862 13 22 13 L 21.908203 13 C 21.909369 12.996707 21.910966 12.993538 21.912109 12.990234 z "
       id="rect4537" />
  </g>
  <g
     inkscape:label="Symbol"
     inkscape:groupmode="layer"
     id="layer1"
     transform="translate(0,-1004.3622)"
     style="display:inline" />
  <g
     inkscape:groupmode="layer"
     id="layer4"
     inkscape:label="Inset"
     sodipodi:insensitive="true"
     style="display:inline">
    <path
       style="opacity:0.15;fill:#000000;fill-opacity:1;stroke:none"
       d="m 2,34 0,3 c 0,4.986 4.014,9 9,9 l 26,0 c 4.986,0 9,-4.014 9,-9 l 0,-3 c 0,4.986 -4.014,9 -9,9 L 11,43 C 6.014,43 2,38.986 2,34 z"
       id="rect3038-42"
       inkscape:connector-curvature="0" />
  </g>
  <g
     inkscape:groupmode="layer"
     id="layer7"
     inkscape:label="Baseshape"
     sodipodi:insensitive="true"
     style="display:none">
    <rect
       rx="9"
       ry="9"
       y="2"
       x="2"
       height="44"
       width="44"
       id="rect4169"
       style="fill:#abe1ad;fill-opacity:1;stroke:none;display:inline" />
  </g>
</svg>
