<?xml version="1.0" encoding="UTF-8" standalone="no"?>
<!-- Created with Inkscape (http://www.inkscape.org/) -->

<svg
   xmlns:dc="http://purl.org/dc/elements/1.1/"
   xmlns:cc="http://creativecommons.org/ns#"
   xmlns:rdf="http://www.w3.org/1999/02/22-rdf-syntax-ns#"
   xmlns:svg="http://www.w3.org/2000/svg"
   xmlns="http://www.w3.org/2000/svg"
   xmlns:xlink="http://www.w3.org/1999/xlink"
   xmlns:sodipodi="http://sodipodi.sourceforge.net/DTD/sodipodi-0.dtd"
   xmlns:inkscape="http://www.inkscape.org/namespaces/inkscape"
   width="48"
   height="48"
   id="svg4230"
   version="1.1"
   inkscape:version="0.48.5 r10040"
   sodipodi:docname="settings-b.svg"
   inkscape:export-filename="/home/webdesign/Downloads/ozon icons/texteditor.png"
   inkscape:export-xdpi="960"
   inkscape:export-ydpi="960">
  <defs
     id="defs4232">
    <linearGradient
       id="linearGradient4083">
      <stop
         id="stop4085"
         offset="0"
         style="stop-color:#dfded1;stop-opacity:1;" />
      <stop
         id="stop4087"
         offset="1"
         style="stop-color:#e8e7e0;stop-opacity:1;" />
    </linearGradient>
    <linearGradient
       id="linearGradient4044">
      <stop
         style="stop-color:#000000;stop-opacity:1;"
         offset="0"
         id="stop4046" />
      <stop
         style="stop-color:#ffffff;stop-opacity:1;"
         offset="1"
         id="stop4048" />
    </linearGradient>
    <linearGradient
       inkscape:collect="always"
       id="linearGradient4034">
      <stop
         style="stop-color:#000000;stop-opacity:1;"
         offset="0"
         id="stop4036" />
      <stop
         style="stop-color:#000000;stop-opacity:0;"
         offset="1"
         id="stop4038" />
    </linearGradient>
    <linearGradient
       id="linearGradient4005">
      <stop
         id="stop4007"
         offset="0"
         style="stop-color:#e1e1e1;stop-opacity:1;" />
      <stop
         id="stop4009"
         offset="1"
         style="stop-color:#ececec;stop-opacity:1;" />
    </linearGradient>
    <linearGradient
       id="linearGradient3976">
      <stop
         style="stop-color:#c0c0c0;stop-opacity:1;"
         offset="0"
         id="stop3978" />
      <stop
         style="stop-color:#ffffff;stop-opacity:1;"
         offset="1"
         id="stop3980" />
    </linearGradient>
    <linearGradient
       id="linearGradient3874">
      <stop
         style="stop-color:#ea508d;stop-opacity:1;"
         offset="0"
         id="stop3876" />
      <stop
         style="stop-color:#e66296;stop-opacity:1;"
         offset="1"
         id="stop3878" />
    </linearGradient>
    <linearGradient
       id="linearGradient4026">
      <stop
         style="stop-color:#f1f1e9;stop-opacity:1;"
         offset="0"
         id="stop4028" />
      <stop
         style="stop-color:#f5f5ea;stop-opacity:1;"
         offset="1"
         id="stop4030" />
    </linearGradient>
    <linearGradient
       id="linearGradient4243">
      <stop
         style="stop-color:#000000;stop-opacity:1;"
         offset="0"
         id="stop4245" />
      <stop
         style="stop-color:#000000;stop-opacity:0;"
         offset="1"
         id="stop4247" />
    </linearGradient>
    <linearGradient
       id="linearGradient4216">
      <stop
         style="stop-color:#a0c4e6;stop-opacity:1;"
         offset="0"
         id="stop4218" />
      <stop
         style="stop-color:#d0e2f1;stop-opacity:1;"
         offset="1"
         id="stop4220" />
    </linearGradient>
    <linearGradient
       id="linearGradient4208">
      <stop
         style="stop-color:#70a3d6;stop-opacity:1;"
         offset="0"
         id="stop4210" />
      <stop
         style="stop-color:#88b6e1;stop-opacity:1;"
         offset="1"
         id="stop4212" />
    </linearGradient>
    <linearGradient
       id="linearGradient4200">
      <stop
         style="stop-color:#427dbe;stop-opacity:1;"
         offset="0"
         id="stop4202" />
      <stop
         style="stop-color:#739bd1;stop-opacity:1;"
         offset="1"
         id="stop4204" />
    </linearGradient>
    <linearGradient
       id="linearGradient4192">
      <stop
         style="stop-color:#4970a4;stop-opacity:1;"
         offset="0"
         id="stop4194" />
      <stop
         style="stop-color:#6090c0;stop-opacity:1;"
         offset="1"
         id="stop4196" />
    </linearGradient>
    <radialGradient
       inkscape:collect="always"
       xlink:href="#linearGradient3688-166-749-5-9-1"
       id="radialGradient4351"
       gradientUnits="userSpaceOnUse"
       gradientTransform="matrix(2.3201711,0,0,0.39999996,28.617836,28.600002)"
       cx="4.9929786"
       cy="43.5"
       fx="4.9929786"
       fy="43.5"
       r="2.5" />
    <linearGradient
       id="linearGradient3688-166-749-5-9-1">
      <stop
         id="stop2883-0-2-9"
         style="stop-color:#181818;stop-opacity:1"
         offset="0" />
      <stop
         id="stop2885-5-3-8"
         style="stop-color:#181818;stop-opacity:0"
         offset="1" />
    </linearGradient>
    <linearGradient
       id="linearGradient3688-464-309-8-9-4">
      <stop
         id="stop2889-9-9-1"
         style="stop-color:#181818;stop-opacity:1"
         offset="0" />
      <stop
         id="stop2891-4-2-9"
         style="stop-color:#181818;stop-opacity:0"
         offset="1" />
    </linearGradient>
    <linearGradient
       id="linearGradient3702-501-757-0-4-0">
      <stop
         id="stop2895-0-2-1"
         style="stop-color:#181818;stop-opacity:0"
         offset="0" />
      <stop
         id="stop2897-2-8-2"
         style="stop-color:#181818;stop-opacity:1"
         offset="0.5" />
      <stop
         id="stop2899-6-1-6"
         style="stop-color:#181818;stop-opacity:0"
         offset="1" />
    </linearGradient>
    <linearGradient
       id="linearGradient3811-3">
      <stop
         style="stop-color:#000000;stop-opacity:1;"
         offset="0"
         id="stop3813-0" />
      <stop
         style="stop-color:#000000;stop-opacity:0;"
         offset="1"
         id="stop3815-0" />
    </linearGradient>
    <clipPath
       id="clipPath-887332295">
      <g
         id="g3945"
         transform="translate(0,-1004.3622)">
        <rect
           id="rect3947"
           fill="#1890d0"
           width="46"
           height="46"
           x="1"
           y="1005.36"
           rx="4" />
      </g>
    </clipPath>
    <clipPath
       id="clipPath-867792831">
      <g
         id="g3940"
         transform="translate(0,-1004.3622)">
        <rect
           id="rect3942"
           fill="#1890d0"
           width="46"
           height="46"
           x="1"
           y="1005.36"
           rx="4" />
      </g>
    </clipPath>
    <linearGradient
       gradientTransform="translate(-47.997785,0.00221467)"
       gradientUnits="userSpaceOnUse"
       x2="47"
       x1="1"
       id="linearGradient3764">
      <stop
         id="stop3935"
         stop-opacity="1"
         stop-color="#e4e4e4" />
      <stop
         id="stop3937"
         stop-opacity="1"
         stop-color="#eee"
         offset="1" />
    </linearGradient>
    <radialGradient
       inkscape:collect="always"
       xlink:href="#linearGradient4243"
       id="radialGradient4274"
       gradientUnits="userSpaceOnUse"
       gradientTransform="matrix(1.0434782,0,0,0.1956518,-1.0434797,35.184809)"
       cx="24.000001"
       cy="42.499991"
       fx="24.000001"
       fy="42.499991"
       r="23" />
    <linearGradient
       inkscape:collect="always"
       xlink:href="#linearGradient4026"
       id="linearGradient4032"
       x1="-41.197594"
       y1="1042.7213"
       x2="-41.197594"
       y2="1002.0031"
       gradientUnits="userSpaceOnUse" />
    <linearGradient
       inkscape:collect="always"
       xlink:href="#linearGradient4026"
       id="linearGradient4078"
       gradientUnits="userSpaceOnUse"
       x1="-41.197594"
       y1="1042.7213"
       x2="-41.197594"
       y2="1002.0031" />
    <linearGradient
       inkscape:collect="always"
       xlink:href="#linearGradient4026"
       id="linearGradient4114"
       gradientUnits="userSpaceOnUse"
       x1="-41.197594"
       y1="1042.7213"
       x2="-41.197594"
       y2="1002.0031" />
    <linearGradient
       inkscape:collect="always"
       xlink:href="#linearGradient4026"
       id="linearGradient4150"
       gradientUnits="userSpaceOnUse"
       x1="-41.197594"
       y1="1042.7213"
       x2="-41.197594"
       y2="1002.0031" />
    <linearGradient
       inkscape:collect="always"
       xlink:href="#linearGradient4083"
       id="linearGradient3880"
       x1="26"
       y1="46"
       x2="26"
       y2="2"
       gradientUnits="userSpaceOnUse" />
    <linearGradient
       inkscape:collect="always"
       xlink:href="#linearGradient3976"
       id="linearGradient3982"
       x1="16"
       y1="22"
       x2="16"
       y2="12"
       gradientUnits="userSpaceOnUse" />
    <linearGradient
       inkscape:collect="always"
       xlink:href="#linearGradient4005"
       id="linearGradient4003"
       gradientUnits="userSpaceOnUse"
       x1="16"
       y1="22"
       x2="16"
       y2="12" />
    <linearGradient
       inkscape:collect="always"
       xlink:href="#linearGradient4005"
       id="linearGradient4015"
       gradientUnits="userSpaceOnUse"
       x1="16"
       y1="22"
       x2="16"
       y2="12" />
    <linearGradient
       inkscape:collect="always"
       xlink:href="#linearGradient4005"
       id="linearGradient4017"
       gradientUnits="userSpaceOnUse"
       x1="16"
       y1="22"
       x2="16"
       y2="12"
       gradientTransform="matrix(0.6,0,0,-0.6,6.4,27.2)" />
    <linearGradient
       inkscape:collect="always"
       xlink:href="#linearGradient4034"
       id="linearGradient4040"
       x1="27"
       y1="14"
       x2="27"
       y2="17"
       gradientUnits="userSpaceOnUse"
       gradientTransform="translate(1.0000001,1003.3622)" />
    <linearGradient
       inkscape:collect="always"
       xlink:href="#linearGradient4044"
       id="linearGradient4050"
       x1="25"
       y1="1016.3622"
       x2="25"
       y2="1026.3622"
       gradientUnits="userSpaceOnUse"
       gradientTransform="translate(0,-1)" />
    <linearGradient
       inkscape:collect="always"
       xlink:href="#linearGradient4044"
       id="linearGradient4074"
       gradientUnits="userSpaceOnUse"
       x1="25"
       y1="1016.3622"
       x2="25"
       y2="1026.3622"
       gradientTransform="translate(-49,13)" />
    <linearGradient
       inkscape:collect="always"
       xlink:href="#linearGradient4034"
       id="linearGradient4076"
       gradientUnits="userSpaceOnUse"
       gradientTransform="matrix(-1,0,0,1,48,1017.3622)"
       x1="27"
       y1="14"
       x2="27"
       y2="17" />
    <linearGradient
       inkscape:collect="always"
       xlink:href="#linearGradient3976"
       id="linearGradient4079"
       gradientUnits="userSpaceOnUse"
       x1="16"
       y1="22"
       x2="16"
       y2="12" />
    <linearGradient
       inkscape:collect="always"
       xlink:href="#linearGradient4005"
       id="linearGradient4081"
       gradientUnits="userSpaceOnUse"
       x1="16"
       y1="22"
       x2="16"
       y2="12" />
  </defs>
  <sodipodi:namedview
     id="base"
     pagecolor="#ffffff"
     bordercolor="#666666"
     borderopacity="1.0"
     inkscape:pageopacity="0.0"
     inkscape:pageshadow="2"
     inkscape:zoom="18.352066"
     inkscape:cx="25.056364"
     inkscape:cy="24.521966"
     inkscape:document-units="px"
     inkscape:current-layer="layer1"
     showgrid="true"
     inkscape:showpageshadow="false"
     borderlayer="true"
     inkscape:window-width="1920"
     inkscape:window-height="1023"
     inkscape:window-x="0"
     inkscape:window-y="28"
     inkscape:window-maximized="1"
     showguides="false">
    <inkscape:grid
       type="xygrid"
       id="grid4162" />
    <sodipodi:guide
       position="1.0000013,47.000017"
       orientation="46,0"
       id="guide4163" />
    <sodipodi:guide
       position="1.0000013,1.0000174"
       orientation="0,45.999999"
       id="guide4165" />
    <sodipodi:guide
       position="47,1.0000174"
       orientation="-46,0"
       id="guide4167" />
    <sodipodi:guide
       position="47,47.000017"
       orientation="0,-45.999999"
       id="guide4169" />
    <sodipodi:guide
       position="2.0000007,46.000017"
       orientation="44,0"
       id="guide4173" />
    <sodipodi:guide
       position="2.0000007,2.0000174"
       orientation="0,43.999999"
       id="guide4175" />
    <sodipodi:guide
       position="46,2.0000174"
       orientation="-44,0"
       id="guide4177" />
    <sodipodi:guide
       position="46,46.000017"
       orientation="0,-43.999999"
       id="guide4179" />
    <sodipodi:guide
       position="3,45.000017"
       orientation="42,0"
       id="guide4183" />
    <sodipodi:guide
       position="45,3.0000174"
       orientation="-42,0"
       id="guide4187" />
    <sodipodi:guide
       position="45,45.000017"
       orientation="0,-42"
       id="guide4189" />
    <sodipodi:guide
       position="3,45.000017"
       orientation="42,0"
       id="guide4193" />
    <sodipodi:guide
       position="3,3.0000174"
       orientation="0,42"
       id="guide4195" />
    <sodipodi:guide
       position="45,3.0000174"
       orientation="-42,0"
       id="guide4197" />
    <sodipodi:guide
       position="45,45.000017"
       orientation="0,-42"
       id="guide4199" />
    <sodipodi:guide
       position="3,10.000017"
       orientation="7,0"
       id="guide4203" />
    <sodipodi:guide
       position="3,3.0000174"
       orientation="0,42"
       id="guide4205" />
    <sodipodi:guide
       position="45,3.0000174"
       orientation="-7,0"
       id="guide4207" />
    <sodipodi:guide
       position="45,10.000017"
       orientation="0,-42"
       id="guide4209" />
  </sodipodi:namedview>
  <metadata
     id="metadata4235">
    <rdf:RDF>
      <cc:Work
         rdf:about="">
        <dc:format>image/svg+xml</dc:format>
        <dc:type
           rdf:resource="http://purl.org/dc/dcmitype/StillImage" />
        <dc:title></dc:title>
      </cc:Work>
    </rdf:RDF>
  </metadata>
  <g
     inkscape:groupmode="layer"
     id="layer3"
     inkscape:label="Fake blur shadow"
     style="display:inline"
     sodipodi:insensitive="true">
    <path
       style="opacity:0.06000001;fill:#000000;fill-opacity:1;stroke:none"
       d="M 10,1 C 5.014,1 1,5.014 1,10 l 0,28 c 0,4.986 4.014,9 9,9 l 28,0 c 4.986,0 9,-4.014 9,-9 L 47,10 C 47,5.014 42.986,1 38,1 L 10,1 z m 0.5,0.5 27,0 c 4.986,0 9,4.014 9,9 l 0,27 c 0,4.986 -4.014,9 -9,9 l -27,0 c -4.986,0 -9,-4.014 -9,-9 l 0,-27 c 0,-4.986 4.014,-9 9,-9 z"
       id="rect3829"
       inkscape:connector-curvature="0" />
    <path
       style="opacity:0.12000002;fill:#000000;fill-opacity:1;stroke:none"
       d="m 10.5,1.5 c -4.986,0 -9,4.014 -9,9 l 0,27 c 0,4.986 4.014,9 9,9 l 27,0 c 4.986,0 9,-4.014 9,-9 l 0,-27 c 0,-4.986 -4.014,-9 -9,-9 l -27,0 z m 0.25,0.25 26.5,0 c 4.986,0 9,4.014 9,9 l 0,26.5 c 0,4.986 -4.014,9 -9,9 l -26.5,0 c -4.986,0 -9,-4.014 -9,-9 l 0,-26.5 c 0,-4.986 4.014,-9 9,-9 z"
       id="rect3827"
       inkscape:connector-curvature="0" />
    <rect
       style="opacity:0.23999999;fill:#000000;fill-opacity:1;stroke:none"
       id="rect3038-4"
       width="44.5"
       height="44.5"
       x="1.75"
       y="1.75"
       ry="9"
       rx="9" />
  </g>
  <g
     inkscape:groupmode="layer"
     id="layer6"
     inkscape:label="Blob"
     style="display:inline"
     sodipodi:insensitive="true">
    <path
       style="opacity:0.3;fill:url(#radialGradient4274);fill-opacity:1;stroke:none"
       d="M 1.03125,39 C 1.5192036,43.518898 5.3471961,47 10,47 l 28,0 c 4.652804,0 8.480796,-3.481102 8.96875,-8 l -45.9375,0 z"
       id="rect4241"
       inkscape:connector-curvature="0" />
  </g>
  <g
     inkscape:groupmode="layer"
     id="layer2"
     inkscape:label="Baseplate"
     style="display:inline">
    <rect
       style="fill:url(#linearGradient3880);fill-opacity:1.0;stroke:none"
       id="rect3038"
       width="44"
       height="44"
       x="2"
       y="1.9999826"
       ry="9"
       rx="9" />
  </g>
  <g
     inkscape:label="Symbol"
     inkscape:groupmode="layer"
     id="layer1"
     transform="translate(0,-1004.3622)"
     style="display:inline">
    <path
       transform="translate(1.0000001,1003.8622)"
       d="m 21,17 c 0,2.761424 -2.238576,5 -5,5 -2.761424,0 -5,-2.238576 -5,-5 0,-2.761424 2.238576,-5 5,-5 2.761424,0 5,2.238576 5,5 z"
       sodipodi:ry="5"
       sodipodi:rx="5"
       sodipodi:cy="17"
       sodipodi:cx="16"
       id="path4052"
       style="opacity:0.2;fill:#000000;fill-opacity:1;stroke:none"
       sodipodi:type="arc" />
    <rect
       ry="3"
       rx="3"
       y="1015.3622"
       x="14"
       height="10"
       width="23"
       id="rect4042"
       style="opacity:0.1;fill:url(#linearGradient4050);fill-opacity:1;stroke:none" />
    <rect
       style="fill:#a4c04a;fill-opacity:1;stroke:none"
       id="rect3078"
       width="22"
       height="8"
       x="14"
       y="1016.3622"
       rx="3"
       ry="3" />
    <path
       style="opacity:0.11;fill:url(#linearGradient4040);fill-opacity:1;stroke:none"
       d="m 20,1016.8622 0,3.5 15.5,0 0,-0.5 c 0,-1.662 -1.338,-3 -3,-3 l -12.5,0 z"
       id="rect4026"
       inkscape:connector-curvature="0" />
    <path
       style="opacity:0.1;fill:#000000;fill-opacity:1;stroke:none"
       d="m 17,1016.3622 c -1.662,0 -3,1.338 -3,3 l 0,2 c 0,1.662 1.338,3 3,3 l 16,0 c 1.662,0 3,-1.338 3,-3 l 0,-2 c 0,-1.662 -1.338,-3 -3,-3 l -16,0 z m 0.5,0.5 15,0 c 1.662,0 3,1.338 3,3 l 0,1 c 0,1.662 -1.338,3 -3,3 l -15,0 c -1.662,0 -3,-1.338 -3,-3 l 0,-1 c 0,-1.662 1.338,-3 3,-3 z"
       id="rect4020"
       inkscape:connector-curvature="0" />
    <path
       sodipodi:type="arc"
       style="fill:url(#linearGradient3982);fill-opacity:1;stroke:none"
       id="path3974"
       sodipodi:cx="16"
       sodipodi:cy="17"
       sodipodi:rx="5"
       sodipodi:ry="5"
       d="m 21,17 c 0,2.761424 -2.238576,5 -5,5 -2.761424,0 -5,-2.238576 -5,-5 0,-2.761424 2.238576,-5 5,-5 2.761424,0 5,2.238576 5,5 z"
       transform="translate(1.0000001,1003.3622)" />
    <path
       style="opacity:0.1;fill:#000000;fill-opacity:1;stroke:none"
       d="m 12.001911,1020.1122 c -0.0043,0.085 0,0.164 0,0.25 0,2.7614 2.237724,5 4.998096,5 2.760372,0 4.998095,-2.2386 4.998095,-5 0,-0.086 0.0043,-0.1651 0,-0.25 -0.133367,2.6423 -2.323649,4.75 -4.998095,4.75 -2.674446,0 -4.864729,-2.1077 -4.998096,-4.75 z"
       id="path3990"
       inkscape:connector-curvature="0" />
    <path
       transform="matrix(0.6,0,0,-0.6,7.4000001,1030.5622)"
       d="m 21,17 c 0,2.761424 -2.238576,5 -5,5 -2.761424,0 -5,-2.238576 -5,-5 0,-2.761424 2.238576,-5 5,-5 2.761424,0 5,2.238576 5,5 z"
       sodipodi:ry="5"
       sodipodi:rx="5"
       sodipodi:cy="17"
       sodipodi:cx="16"
       id="path4001"
       style="fill:url(#linearGradient4003);fill-opacity:1;stroke:none"
       sodipodi:type="arc" />
    <path
       style="opacity:0.1;fill:#000000;fill-opacity:1;stroke:none"
       d="m 17,1017.3622 c -1.656854,0 -3,1.3431 -3,3 0,0.087 0.02393,0.1645 0.03125,0.25 0.13149,-1.5354 1.399278,-2.75 2.96875,-2.75 1.569472,0 2.83726,1.2146 2.96875,2.75 0.0073,-0.086 0.03125,-0.1626 0.03125,-0.25 0,-1.6569 -1.343146,-3 -3,-3 z"
       id="path4011"
       inkscape:connector-curvature="0" />
    <path
       sodipodi:type="arc"
       style="opacity:0.2;fill:#000000;fill-opacity:1;stroke:none"
       id="path4056"
       sodipodi:cx="16"
       sodipodi:cy="17"
       sodipodi:rx="5"
       sodipodi:ry="5"
       d="m 21,17 c 0,2.761424 -2.238576,5 -5,5 -2.761424,0 -5,-2.238576 -5,-5 0,-2.761424 2.238576,-5 5,-5 2.761424,0 5,2.238576 5,5 z"
       transform="matrix(-1,0,0,1,48,1017.8622)" />
    <rect
       style="opacity:0.1;fill:url(#linearGradient4074);fill-opacity:1;stroke:none"
       id="rect4058"
       width="23"
       height="10"
       x="-35"
       y="1029.3622"
       rx="3"
       ry="3"
       transform="scale(-1,1)" />
    <rect
       ry="3"
       rx="3"
       y="1030.3622"
       x="-35"
       height="8"
       width="22"
       id="rect4060"
       style="fill:#ee7a6b;fill-opacity:1;stroke:none"
       transform="scale(-1,1)" />
    <path
       inkscape:connector-curvature="0"
       id="path4062"
       d="m 29,1030.8622 0,3.5 -15.5,0 0,-0.5 c 0,-1.662 1.338,-3 3,-3 l 12.5,0 z"
       style="opacity:0.11;fill:url(#linearGradient4076);fill-opacity:1;stroke:none" />
    <path
       inkscape:connector-curvature="0"
       id="path4064"
       d="m 32,1030.3622 c 1.662,0 3,1.338 3,3 l 0,2 c 0,1.662 -1.338,3 -3,3 l -16,0 c -1.662,0 -3,-1.338 -3,-3 l 0,-2 c 0,-1.662 1.338,-3 3,-3 l 16,0 z m -0.5,0.5 -15,0 c -1.662,0 -3,1.338 -3,3 l 0,1 c 0,1.662 1.338,3 3,3 l 15,0 c 1.662,0 3,-1.338 3,-3 l 0,-1 c 0,-1.662 -1.338,-3 -3,-3 z"
       style="opacity:0.1;fill:#000000;fill-opacity:1;stroke:none" />
    <path
       transform="matrix(-1,0,0,1,48,1017.3622)"
       d="m 21,17 c 0,2.761424 -2.238576,5 -5,5 -2.761424,0 -5,-2.238576 -5,-5 0,-2.761424 2.238576,-5 5,-5 2.761424,0 5,2.238576 5,5 z"
       sodipodi:ry="5"
       sodipodi:rx="5"
       sodipodi:cy="17"
       sodipodi:cx="16"
       id="path4066"
       style="fill:url(#linearGradient4079);fill-opacity:1;stroke:none"
       sodipodi:type="arc" />
    <path
       inkscape:connector-curvature="0"
       id="path4068"
       d="m 36.998089,1034.1122 c 0.0043,0.085 0,0.164 0,0.25 0,2.7614 -2.237724,5 -4.998096,5 -2.760372,0 -4.998095,-2.2386 -4.998095,-5 0,-0.086 -0.0043,-0.1651 0,-0.25 0.133367,2.6423 2.323649,4.75 4.998095,4.75 2.674446,0 4.864729,-2.1077 4.998096,-4.75 z"
       style="opacity:0.1;fill:#000000;fill-opacity:1;stroke:none" />
    <path
       sodipodi:type="arc"
       style="fill:url(#linearGradient4081);fill-opacity:1;stroke:none"
       id="path4070"
       sodipodi:cx="16"
       sodipodi:cy="17"
       sodipodi:rx="5"
       sodipodi:ry="5"
       d="m 21,17 c 0,2.761424 -2.238576,5 -5,5 -2.761424,0 -5,-2.238576 -5,-5 0,-2.761424 2.238576,-5 5,-5 2.761424,0 5,2.238576 5,5 z"
       transform="matrix(-0.6,0,0,-0.6,41.6,1044.5622)" />
    <path
       inkscape:connector-curvature="0"
       id="path4072"
       d="m 32,1031.3622 c 1.656854,0 3,1.3431 3,3 0,0.087 -0.02393,0.1645 -0.03125,0.25 -0.13149,-1.5354 -1.399278,-2.75 -2.96875,-2.75 -1.569472,0 -2.83726,1.2146 -2.96875,2.75 -0.0073,-0.086 -0.03125,-0.1626 -0.03125,-0.25 0,-1.6569 1.343146,-3 3,-3 z"
       style="opacity:0.1;fill:#000000;fill-opacity:1;stroke:none" />
  </g>
  <g
     inkscape:groupmode="layer"
     id="layer4"
     inkscape:label="Inset"
     sodipodi:insensitive="true"
     style="display:inline">
    <path
       style="opacity:0.15;fill:#000000;fill-opacity:1;stroke:none"
       d="m 2,34 0,3 c 0,4.986 4.014,9 9,9 l 26,0 c 4.986,0 9,-4.014 9,-9 l 0,-3 c 0,4.986 -4.014,9 -9,9 L 11,43 C 6.014,43 2,38.986 2,34 z"
       id="rect3038-42"
       inkscape:connector-curvature="0" />
  </g>
  <g
     inkscape:groupmode="layer"
     id="layer7"
     inkscape:label="Baseshape"
     sodipodi:insensitive="true"
     style="display:none">
    <rect
       rx="9"
       ry="9"
       y="2"
       x="2"
       height="44"
       width="44"
       id="rect4169"
       style="fill:#abe1ad;fill-opacity:1;stroke:none;display:inline" />
  </g>
</svg>
