<?xml version="1.0" encoding="UTF-8" standalone="no"?>
<!-- Created with Inkscape (http://www.inkscape.org/) -->

<svg
   xmlns:dc="http://purl.org/dc/elements/1.1/"
   xmlns:cc="http://creativecommons.org/ns#"
   xmlns:rdf="http://www.w3.org/1999/02/22-rdf-syntax-ns#"
   xmlns:svg="http://www.w3.org/2000/svg"
   xmlns="http://www.w3.org/2000/svg"
   xmlns:xlink="http://www.w3.org/1999/xlink"
   xmlns:sodipodi="http://sodipodi.sourceforge.net/DTD/sodipodi-0.dtd"
   xmlns:inkscape="http://www.inkscape.org/namespaces/inkscape"
   width="48"
   height="48"
   id="svg4230"
   version="1.1"
   inkscape:version="0.48.5 r10040"
   sodipodi:docname="potrebiteli.svg"
   inkscape:export-filename="/home/uri/mouse.png"
   inkscape:export-xdpi="960"
   inkscape:export-ydpi="960">
  <defs
     id="defs4232">
    <linearGradient
       id="linearGradient4002">
      <stop
         style="stop-color:#ffffff;stop-opacity:1;"
         offset="0"
         id="stop4004" />
      <stop
         style="stop-color:#cce9ff;stop-opacity:1;"
         offset="1"
         id="stop4006" />
    </linearGradient>
    <linearGradient
       inkscape:collect="always"
       id="linearGradient3990">
      <stop
         style="stop-color:#000000;stop-opacity:1;"
         offset="0"
         id="stop3992" />
      <stop
         style="stop-color:#000000;stop-opacity:0;"
         offset="1"
         id="stop3994" />
    </linearGradient>
    <linearGradient
       id="linearGradient3942">
      <stop
         style="stop-color:#f5d4c0;stop-opacity:1;"
         offset="0"
         id="stop3944" />
      <stop
         style="stop-color:#f9c1ac;stop-opacity:1;"
         offset="1"
         id="stop3946" />
    </linearGradient>
    <linearGradient
       id="linearGradient3934">
      <stop
         style="stop-color:#fff1e8;stop-opacity:1;"
         offset="0"
         id="stop3936" />
      <stop
         style="stop-color:#f5c6aa;stop-opacity:1;"
         offset="1"
         id="stop3938" />
    </linearGradient>
    <linearGradient
       inkscape:collect="always"
       id="linearGradient3926">
      <stop
         style="stop-color:#000000;stop-opacity:1;"
         offset="0"
         id="stop3928" />
      <stop
         style="stop-color:#000000;stop-opacity:0;"
         offset="1"
         id="stop3930" />
    </linearGradient>
    <linearGradient
       id="linearGradient3974">
      <stop
         style="stop-color:#5a5a5c;stop-opacity:1;"
         offset="0"
         id="stop3976" />
      <stop
         style="stop-color:#404040;stop-opacity:1;"
         offset="1"
         id="stop3978" />
    </linearGradient>
    <linearGradient
       id="linearGradient3966">
      <stop
         style="stop-color:#4fccc4;stop-opacity:1;"
         offset="0"
         id="stop3968" />
      <stop
         style="stop-color:#3ab2ab;stop-opacity:1;"
         offset="1"
         id="stop3970" />
    </linearGradient>
    <linearGradient
       id="linearGradient3958">
      <stop
         style="stop-color:#e45555;stop-opacity:1;"
         offset="0"
         id="stop3960" />
      <stop
         style="stop-color:#ff6b6b;stop-opacity:1;"
         offset="1"
         id="stop3962" />
    </linearGradient>
    <linearGradient
       id="linearGradient3891">
      <stop
         style="stop-color:#f28131;stop-opacity:1;"
         offset="0"
         id="stop3893" />
      <stop
         style="stop-color:#f7941d;stop-opacity:1;"
         offset="1"
         id="stop3895" />
    </linearGradient>
    <linearGradient
       id="linearGradient4010">
      <stop
         style="stop-color:#4c3549;stop-opacity:1;"
         offset="0"
         id="stop4012" />
      <stop
         style="stop-color:#4c3549;stop-opacity:1;"
         offset="1"
         id="stop4014" />
    </linearGradient>
    <linearGradient
       id="linearGradient3955">
      <stop
         id="stop3957"
         offset="0"
         style="stop-color:#1c0f18;stop-opacity:1;" />
      <stop
         id="stop3959"
         offset="1"
         style="stop-color:#21111b;stop-opacity:1;" />
    </linearGradient>
    <linearGradient
       id="linearGradient3943">
      <stop
         style="stop-color:#c91822;stop-opacity:1;"
         offset="0"
         id="stop3945" />
      <stop
         style="stop-color:#f33040;stop-opacity:1;"
         offset="1"
         id="stop3947" />
    </linearGradient>
    <linearGradient
       id="linearGradient3874">
      <stop
         style="stop-color:#ea508d;stop-opacity:1;"
         offset="0"
         id="stop3876" />
      <stop
         style="stop-color:#e66296;stop-opacity:1;"
         offset="1"
         id="stop3878" />
    </linearGradient>
    <linearGradient
       id="linearGradient4026">
      <stop
         style="stop-color:#f1f1e9;stop-opacity:1;"
         offset="0"
         id="stop4028" />
      <stop
         style="stop-color:#f5f5ea;stop-opacity:1;"
         offset="1"
         id="stop4030" />
    </linearGradient>
    <linearGradient
       id="linearGradient4243">
      <stop
         style="stop-color:#000000;stop-opacity:1;"
         offset="0"
         id="stop4245" />
      <stop
         style="stop-color:#000000;stop-opacity:0;"
         offset="1"
         id="stop4247" />
    </linearGradient>
    <linearGradient
       id="linearGradient4216">
      <stop
         style="stop-color:#a0c4e6;stop-opacity:1;"
         offset="0"
         id="stop4218" />
      <stop
         style="stop-color:#d0e2f1;stop-opacity:1;"
         offset="1"
         id="stop4220" />
    </linearGradient>
    <linearGradient
       id="linearGradient4208">
      <stop
         style="stop-color:#70a3d6;stop-opacity:1;"
         offset="0"
         id="stop4210" />
      <stop
         style="stop-color:#88b6e1;stop-opacity:1;"
         offset="1"
         id="stop4212" />
    </linearGradient>
    <linearGradient
       id="linearGradient4200">
      <stop
         style="stop-color:#427dbe;stop-opacity:1;"
         offset="0"
         id="stop4202" />
      <stop
         style="stop-color:#739bd1;stop-opacity:1;"
         offset="1"
         id="stop4204" />
    </linearGradient>
    <linearGradient
       id="linearGradient4192">
      <stop
         style="stop-color:#4970a4;stop-opacity:1;"
         offset="0"
         id="stop4194" />
      <stop
         style="stop-color:#6090c0;stop-opacity:1;"
         offset="1"
         id="stop4196" />
    </linearGradient>
    <radialGradient
       inkscape:collect="always"
       xlink:href="#linearGradient3688-166-749-5-9-1"
       id="radialGradient4351"
       gradientUnits="userSpaceOnUse"
       gradientTransform="matrix(2.3201711,0,0,0.39999996,28.617836,28.600002)"
       cx="4.9929786"
       cy="43.5"
       fx="4.9929786"
       fy="43.5"
       r="2.5" />
    <linearGradient
       id="linearGradient3688-166-749-5-9-1">
      <stop
         id="stop2883-0-2-9"
         style="stop-color:#181818;stop-opacity:1"
         offset="0" />
      <stop
         id="stop2885-5-3-8"
         style="stop-color:#181818;stop-opacity:0"
         offset="1" />
    </linearGradient>
    <linearGradient
       id="linearGradient3688-464-309-8-9-4">
      <stop
         id="stop2889-9-9-1"
         style="stop-color:#181818;stop-opacity:1"
         offset="0" />
      <stop
         id="stop2891-4-2-9"
         style="stop-color:#181818;stop-opacity:0"
         offset="1" />
    </linearGradient>
    <linearGradient
       id="linearGradient3702-501-757-0-4-0">
      <stop
         id="stop2895-0-2-1"
         style="stop-color:#181818;stop-opacity:0"
         offset="0" />
      <stop
         id="stop2897-2-8-2"
         style="stop-color:#181818;stop-opacity:1"
         offset="0.5" />
      <stop
         id="stop2899-6-1-6"
         style="stop-color:#181818;stop-opacity:0"
         offset="1" />
    </linearGradient>
    <linearGradient
       id="linearGradient3811-3">
      <stop
         style="stop-color:#000000;stop-opacity:1;"
         offset="0"
         id="stop3813-0" />
      <stop
         style="stop-color:#000000;stop-opacity:0;"
         offset="1"
         id="stop3815-0" />
    </linearGradient>
    <clipPath
       id="clipPath-887332295">
      <g
         id="g3945"
         transform="translate(0,-1004.3622)">
        <rect
           id="rect3947"
           fill="#1890d0"
           width="46"
           height="46"
           x="1"
           y="1005.36"
           rx="4" />
      </g>
    </clipPath>
    <clipPath
       id="clipPath-867792831">
      <g
         id="g3940"
         transform="translate(0,-1004.3622)">
        <rect
           id="rect3942"
           fill="#1890d0"
           width="46"
           height="46"
           x="1"
           y="1005.36"
           rx="4" />
      </g>
    </clipPath>
    <linearGradient
       gradientTransform="translate(-47.997785,0.00221467)"
       gradientUnits="userSpaceOnUse"
       x2="47"
       x1="1"
       id="linearGradient3764">
      <stop
         id="stop3935"
         stop-opacity="1"
         stop-color="#e4e4e4" />
      <stop
         id="stop3937"
         stop-opacity="1"
         stop-color="#eee"
         offset="1" />
    </linearGradient>
    <radialGradient
       inkscape:collect="always"
       xlink:href="#linearGradient4243"
       id="radialGradient4274"
       gradientUnits="userSpaceOnUse"
       gradientTransform="matrix(1.0434782,0,0,0.1956518,-1.0434797,35.184809)"
       cx="24.000001"
       cy="42.499991"
       fx="24.000001"
       fy="42.499991"
       r="23" />
    <linearGradient
       inkscape:collect="always"
       xlink:href="#linearGradient4026"
       id="linearGradient4032"
       x1="-41.197594"
       y1="1042.7213"
       x2="-41.197594"
       y2="1002.0031"
       gradientUnits="userSpaceOnUse" />
    <linearGradient
       inkscape:collect="always"
       xlink:href="#linearGradient4026"
       id="linearGradient4078"
       gradientUnits="userSpaceOnUse"
       x1="-41.197594"
       y1="1042.7213"
       x2="-41.197594"
       y2="1002.0031" />
    <linearGradient
       inkscape:collect="always"
       xlink:href="#linearGradient4026"
       id="linearGradient4114"
       gradientUnits="userSpaceOnUse"
       x1="-41.197594"
       y1="1042.7213"
       x2="-41.197594"
       y2="1002.0031" />
    <linearGradient
       inkscape:collect="always"
       xlink:href="#linearGradient4026"
       id="linearGradient4150"
       gradientUnits="userSpaceOnUse"
       x1="-41.197594"
       y1="1042.7213"
       x2="-41.197594"
       y2="1002.0031" />
    <linearGradient
       inkscape:collect="always"
       xlink:href="#linearGradient3068"
       id="linearGradient3880"
       x1="26"
       y1="46"
       x2="26"
       y2="2"
       gradientUnits="userSpaceOnUse" />
    <linearGradient
       y2="-7.7778559"
       x2="78.210526"
       y1="33.777702"
       x1="78.210526"
       gradientTransform="matrix(0.86363632,0,0,0.81818178,-42.545451,1012.7259)"
       gradientUnits="userSpaceOnUse"
       id="linearGradient3084"
       xlink:href="#linearGradient3068"
       inkscape:collect="always" />
    <linearGradient
       id="linearGradient3068">
      <stop
         style="stop-color:#0f94ff;stop-opacity:1;"
         offset="0"
         id="stop3070" />
      <stop
         style="stop-color:#19bdff;stop-opacity:1;"
         offset="1"
         id="stop3072" />
    </linearGradient>
    <linearGradient
       inkscape:collect="always"
       xlink:href="#linearGradient3891"
       id="linearGradient3897"
       x1="-26.5"
       y1="33"
       x2="-26.5"
       y2="13"
       gradientUnits="userSpaceOnUse" />
    <linearGradient
       inkscape:collect="always"
       xlink:href="#linearGradient3891"
       id="linearGradient3907"
       gradientUnits="userSpaceOnUse"
       x1="-26.5"
       y1="33"
       x2="-26.5"
       y2="13" />
    <linearGradient
       inkscape:collect="always"
       xlink:href="#linearGradient3891"
       id="linearGradient3915"
       x1="-17"
       y1="33"
       x2="-17"
       y2="11"
       gradientUnits="userSpaceOnUse" />
    <radialGradient
       inkscape:collect="always"
       xlink:href="#linearGradient3926"
       id="radialGradient3932"
       cx="24"
       cy="1025.3622"
       fx="24"
       fy="1025.3622"
       r="6"
       gradientTransform="matrix(1,0,0,1.3333333,0,-343.7874)"
       gradientUnits="userSpaceOnUse" />
    <linearGradient
       inkscape:collect="always"
       xlink:href="#linearGradient3934"
       id="linearGradient3940"
       x1="24"
       y1="1016.3622"
       x2="24"
       y2="1025.3622"
       gradientUnits="userSpaceOnUse"
       gradientTransform="translate(0,-3)" />
    <linearGradient
       inkscape:collect="always"
       xlink:href="#linearGradient3942"
       id="linearGradient3948"
       x1="24"
       y1="1030.3622"
       x2="24"
       y2="1039.3622"
       gradientUnits="userSpaceOnUse"
       gradientTransform="translate(0,-1005.3622)" />
    <linearGradient
       inkscape:collect="always"
       xlink:href="#linearGradient3942"
       id="linearGradient3953"
       gradientUnits="userSpaceOnUse"
       gradientTransform="translate(0,-1005.3622)"
       x1="24"
       y1="1012.3622"
       x2="24"
       y2="1059.3622" />
    <linearGradient
       inkscape:collect="always"
       xlink:href="#linearGradient3942"
       id="linearGradient3963"
       gradientUnits="userSpaceOnUse"
       x1="24"
       y1="1012.3622"
       x2="24"
       y2="1059.3622"
       gradientTransform="translate(0,-1004.3622)" />
    <linearGradient
       inkscape:collect="always"
       xlink:href="#linearGradient3942"
       id="linearGradient3973"
       gradientUnits="userSpaceOnUse"
       x1="24"
       y1="1012.3622"
       x2="24"
       y2="1059.3622" />
    <linearGradient
       inkscape:collect="always"
       xlink:href="#linearGradient3942"
       id="linearGradient3975"
       gradientUnits="userSpaceOnUse"
       gradientTransform="translate(0,-1005.3622)"
       x1="24"
       y1="1012.3622"
       x2="24"
       y2="1059.3622" />
    <linearGradient
       inkscape:collect="always"
       xlink:href="#linearGradient3990"
       id="linearGradient3996"
       x1="24"
       y1="1028.3622"
       x2="24"
       y2="1042.3622"
       gradientUnits="userSpaceOnUse" />
    <clipPath
       id="clipPath-063058883">
      <g
         id="g3133"
         transform="translate(0,-1004.3622)">
        <path
           id="path3135"
           fill="#1890d0"
           transform="matrix(15.333333,0,0,11.5,414.99999,878.8622)"
           d="m -24 13 c 0 1.105 -0.672 2 -1.5 2 -0.828 0 -1.5 -0.895 -1.5 -2 0 -1.105 0.672 -2 1.5 -2 0.828 0 1.5 0.895 1.5 2 z" />
      </g>
    </clipPath>
    <clipPath
       id="clipPath-053608750">
      <g
         id="g3128"
         transform="translate(0,-1004.3622)">
        <path
           id="path3130"
           fill="#1890d0"
           transform="matrix(15.333333,0,0,11.5,414.99999,878.8622)"
           d="m -24 13 c 0 1.105 -0.672 2 -1.5 2 -0.828 0 -1.5 -0.895 -1.5 -2 0 -1.105 0.672 -2 1.5 -2 0.828 0 1.5 0.895 1.5 2 z" />
      </g>
    </clipPath>
    <linearGradient
       gradientTransform="matrix(0,-1,1,0,-1.5e-6,47.999998)"
       gradientUnits="userSpaceOnUse"
       x2="47"
       x1="1"
       id="linearGradient3764-0">
      <stop
         id="stop3123"
         stop-opacity="1"
         stop-color="#00acec" />
      <stop
         id="stop3125"
         stop-opacity="1"
         stop-color="#01b9ff"
         offset="1" />
    </linearGradient>
    <linearGradient
       inkscape:collect="always"
       xlink:href="#linearGradient4002"
       id="linearGradient4008"
       x1="24"
       y1="1016.3622"
       x2="24"
       y2="1038.3622"
       gradientUnits="userSpaceOnUse" />
  </defs>
  <sodipodi:namedview
     id="base"
     pagecolor="#ffffff"
     bordercolor="#666666"
     borderopacity="1.0"
     inkscape:pageopacity="0.0"
     inkscape:pageshadow="2"
     inkscape:zoom="18.232833"
     inkscape:cx="20.621908"
     inkscape:cy="25.792847"
     inkscape:document-units="px"
     inkscape:current-layer="layer1"
     showgrid="true"
     inkscape:showpageshadow="false"
     borderlayer="true"
     inkscape:window-width="1920"
     inkscape:window-height="1052"
     inkscape:window-x="-1"
     inkscape:window-y="1"
     inkscape:window-maximized="1"
     showguides="false"
     inkscape:guide-bbox="true">
    <inkscape:grid
       type="xygrid"
       id="grid4162" />
    <sodipodi:guide
       position="1.0000013,47.000017"
       orientation="46,0"
       id="guide4163" />
    <sodipodi:guide
       position="1.0000013,1.0000174"
       orientation="0,45.999999"
       id="guide4165" />
    <sodipodi:guide
       position="47,1.0000174"
       orientation="-46,0"
       id="guide4167" />
    <sodipodi:guide
       position="47,47.000017"
       orientation="0,-45.999999"
       id="guide4169" />
    <sodipodi:guide
       position="2.0000007,46.000017"
       orientation="44,0"
       id="guide4173" />
    <sodipodi:guide
       position="2.0000007,2.0000174"
       orientation="0,43.999999"
       id="guide4175" />
    <sodipodi:guide
       position="46,2.0000174"
       orientation="-44,0"
       id="guide4177" />
    <sodipodi:guide
       position="46,46.000017"
       orientation="0,-43.999999"
       id="guide4179" />
    <sodipodi:guide
       position="3,45.000017"
       orientation="42,0"
       id="guide4183" />
    <sodipodi:guide
       position="45,3.0000174"
       orientation="-42,0"
       id="guide4187" />
    <sodipodi:guide
       position="45,45.000017"
       orientation="0,-42"
       id="guide4189" />
    <sodipodi:guide
       position="3,45.000017"
       orientation="42,0"
       id="guide4193" />
    <sodipodi:guide
       position="3,3.0000174"
       orientation="0,42"
       id="guide4195" />
    <sodipodi:guide
       position="45,3.0000174"
       orientation="-42,0"
       id="guide4197" />
    <sodipodi:guide
       position="45,45.000017"
       orientation="0,-42"
       id="guide4199" />
    <sodipodi:guide
       position="3,10.000017"
       orientation="7,0"
       id="guide4203" />
    <sodipodi:guide
       position="3,3.0000174"
       orientation="0,42"
       id="guide4205" />
    <sodipodi:guide
       position="45,3.0000174"
       orientation="-7,0"
       id="guide4207" />
    <sodipodi:guide
       position="45,10.000017"
       orientation="0,-42"
       id="guide4209" />
  </sodipodi:namedview>
  <metadata
     id="metadata4235">
    <rdf:RDF>
      <cc:Work
         rdf:about="">
        <dc:format>image/svg+xml</dc:format>
        <dc:type
           rdf:resource="http://purl.org/dc/dcmitype/StillImage" />
        <dc:title></dc:title>
      </cc:Work>
    </rdf:RDF>
  </metadata>
  <g
     inkscape:groupmode="layer"
     id="layer3"
     inkscape:label="Fake blur shadow"
     style="display:inline"
     sodipodi:insensitive="true">
    <path
       style="opacity:0.06000001;fill:#000000;fill-opacity:1;stroke:none"
       d="M 10,1 C 5.014,1 1,5.014 1,10 l 0,28 c 0,4.986 4.014,9 9,9 l 28,0 c 4.986,0 9,-4.014 9,-9 L 47,10 C 47,5.014 42.986,1 38,1 L 10,1 z m 0.5,0.5 27,0 c 4.986,0 9,4.014 9,9 l 0,27 c 0,4.986 -4.014,9 -9,9 l -27,0 c -4.986,0 -9,-4.014 -9,-9 l 0,-27 c 0,-4.986 4.014,-9 9,-9 z"
       id="rect3829"
       inkscape:connector-curvature="0" />
    <path
       style="opacity:0.12000002;fill:#000000;fill-opacity:1;stroke:none"
       d="m 10.5,1.5 c -4.986,0 -9,4.014 -9,9 l 0,27 c 0,4.986 4.014,9 9,9 l 27,0 c 4.986,0 9,-4.014 9,-9 l 0,-27 c 0,-4.986 -4.014,-9 -9,-9 l -27,0 z m 0.25,0.25 26.5,0 c 4.986,0 9,4.014 9,9 l 0,26.5 c 0,4.986 -4.014,9 -9,9 l -26.5,0 c -4.986,0 -9,-4.014 -9,-9 l 0,-26.5 c 0,-4.986 4.014,-9 9,-9 z"
       id="rect3827"
       inkscape:connector-curvature="0" />
    <rect
       style="opacity:0.23999999;fill:#000000;fill-opacity:1;stroke:none"
       id="rect3038-4"
       width="44.5"
       height="44.5"
       x="1.75"
       y="1.75"
       ry="9"
       rx="9" />
  </g>
  <g
     inkscape:groupmode="layer"
     id="layer6"
     inkscape:label="Blob"
     style="display:inline"
     sodipodi:insensitive="true">
    <path
       style="opacity:0.3;fill:url(#radialGradient4274);fill-opacity:1;stroke:none"
       d="M 1.03125,39 C 1.5192036,43.518898 5.3471961,47 10,47 l 28,0 c 4.652804,0 8.480796,-3.481102 8.96875,-8 l -45.9375,0 z"
       id="rect4241"
       inkscape:connector-curvature="0" />
  </g>
  <g
     inkscape:groupmode="layer"
     id="layer2"
     inkscape:label="Baseplate"
     style="display:inline">
    <rect
       style="fill:url(#linearGradient3880);fill-opacity:1;stroke:none"
       id="rect3038"
       width="44"
       height="44"
       x="2"
       y="1.9999826"
       ry="9"
       rx="9" />
  </g>
  <g
     inkscape:label="Symbol"
     inkscape:groupmode="layer"
     id="layer1"
     transform="translate(0,-1004.3622)"
     style="display:inline">
    <path
       style="opacity:0.15;fill:#000000;fill-opacity:1;fill-rule:nonzero;stroke:none"
       inkscape:connector-curvature="0"
       d="m 27.287395,1017.6191 c -2.348057,0.875 -3.832093,3.129 -3.664089,5.594 l 0.055,0.953 -0.938023,-0.117 c -3.418083,-0.445 -6.406156,-1.961 -8.941217,-4.504 l -1.242031,-1.266 -0.316007,0.934 c -0.680017,2.078 -0.246006,4.273 1.164028,5.75 0.750018,0.813 0.582014,0.93 -0.715017,0.445 -0.449011,-0.156 -0.848021,-0.273 -0.883022,-0.215 -0.133003,0.137 0.316008,1.906 0.676017,2.602 0.488011,0.973 1.484036,1.926 2.574062,2.488 l 0.918022,0.445 -1.086026,0.02 c -1.055026,0 -1.090026,0.02 -0.980024,0.426 0.379009,1.266 1.863046,2.605 3.523086,3.188 l 1.164028,0.41 -1.023025,0.617 c -1.500036,0.895 -3.266079,1.398 -5.030122,1.438 -0.848021,0.02 -1.543037,0.098 -1.543037,0.156 0,0.195 2.293055,1.281 3.625088,1.707 4.000097,1.266 8.754212,0.719 12.324299,-1.434 2.535062,-1.535 5.074123,-4.586 6.258152,-7.535 0.637016,-1.574 1.277031,-4.449 1.277031,-5.828 0,-0.891 0.055,-1.01 1.109027,-2.078 0.617015,-0.621 1.199029,-1.301 1.313032,-1.492 0.188005,-0.371 0.168004,-0.371 -0.789019,-0.039 -1.598039,0.578 -1.824044,0.504 -1.031025,-0.371 0.582014,-0.621 1.273031,-1.746 1.273031,-2.078 0,-0.059 -0.281007,0.039 -0.598015,0.215 -0.340008,0.191 -1.090026,0.484 -1.65204,0.66 l -1.016025,0.328 -0.922022,-0.641 c -0.516013,-0.348 -1.22703,-0.738 -1.605039,-0.855 -0.957023,-0.27 -2.422059,-0.23 -3.28508,0.078 m 0,0"
       id="path4010" />
    <path
       id="path3169"
       d="m 27.287395,1016.6191 c -2.348057,0.875 -3.832093,3.129 -3.664089,5.594 l 0.055,0.953 -0.938023,-0.117 c -3.418083,-0.445 -6.406156,-1.961 -8.941217,-4.504 l -1.242031,-1.266 -0.316007,0.934 c -0.680017,2.078 -0.246006,4.273 1.164028,5.75 0.750018,0.813 0.582014,0.93 -0.715017,0.445 -0.449011,-0.156 -0.848021,-0.273 -0.883022,-0.215 -0.133003,0.137 0.316008,1.906 0.676017,2.602 0.488011,0.973 1.484036,1.926 2.574062,2.488 l 0.918022,0.445 -1.086026,0.02 c -1.055026,0 -1.090026,0.02 -0.980024,0.426 0.379009,1.266 1.863046,2.605 3.523086,3.188 l 1.164028,0.41 -1.023025,0.617 c -1.500036,0.895 -3.266079,1.398 -5.030122,1.438 -0.848021,0.02 -1.543037,0.098 -1.543037,0.156 0,0.195 2.293055,1.281 3.625088,1.707 4.000097,1.266 8.754212,0.719 12.324299,-1.434 2.535062,-1.535 5.074123,-4.586 6.258152,-7.535 0.637016,-1.574 1.277031,-4.449 1.277031,-5.828 0,-0.891 0.055,-1.01 1.109027,-2.078 0.617015,-0.621 1.199029,-1.301 1.313032,-1.492 0.188005,-0.371 0.168004,-0.371 -0.789019,-0.039 -1.598039,0.578 -1.824044,0.504 -1.031025,-0.371 0.582014,-0.621 1.273031,-1.746 1.273031,-2.078 0,-0.059 -0.281007,0.039 -0.598015,0.215 -0.340008,0.191 -1.090026,0.484 -1.65204,0.66 l -1.016025,0.328 -0.922022,-0.641 c -0.516013,-0.348 -1.22703,-0.738 -1.605039,-0.855 -0.957023,-0.27 -2.422059,-0.23 -3.28508,0.078 m 0,0"
       inkscape:connector-curvature="0"
       style="fill:url(#linearGradient4008);fill-opacity:1;fill-rule:nonzero;stroke:none" />
  </g>
  <g
     inkscape:groupmode="layer"
     id="layer4"
     inkscape:label="Inset"
     sodipodi:insensitive="true"
     style="display:inline">
    <path
       style="opacity:0.15;fill:#000000;fill-opacity:1;stroke:none"
       d="m 2,34 0,3 c 0,4.986 4.014,9 9,9 l 26,0 c 4.986,0 9,-4.014 9,-9 l 0,-3 c 0,4.986 -4.014,9 -9,9 L 11,43 C 6.014,43 2,38.986 2,34 z"
       id="rect3038-42"
       inkscape:connector-curvature="0" />
  </g>
  <g
     inkscape:groupmode="layer"
     id="layer7"
     inkscape:label="Baseshape"
     sodipodi:insensitive="true"
     style="display:none">
    <rect
       rx="9"
       ry="9"
       y="2"
       x="2"
       height="44"
       width="44"
       id="rect4169"
       style="fill:#abe1ad;fill-opacity:1;stroke:none;display:inline" />
  </g>
</svg>
