
<svg xmlns="http://www.w3.org/2000/svg" xmlns:xlink="http://www.w3.org/1999/xlink" width="48px" height="48px" viewBox="0 0 48 48" version="1.1">
<g id="surface1">
<path style=" stroke:none;fill-rule:nonzero;fill:rgb(87.45098%,9.411765%,9.411765%);fill-opacity:1;" d="M 10 2 C 9.054688 2 8 3.054688 8 4 L 8 44 C 8 44.890625 9.109375 46 10 46 L 38 46 C 38.890625 46 39.984375 44.890625 40 44 L 40 14 L 28 2 Z M 10 2 "/>
<path style=" stroke:none;fill-rule:nonzero;fill:rgb(100%,100%,100%);fill-opacity:1;" d="M 24.042969 15.933594 C 24.042969 15.933594 24.691406 22.234375 20.089844 30.570312 C 15.5 38.890625 14.152344 37.777344 13.667969 37.488281 C 13.183594 37.195312 12.5625 36.269531 14.59375 34.386719 C 16.636719 32.519531 17.429688 32.554688 17.429688 32.554688 C 17.429688 32.554688 15.566406 33.738281 14.835938 34.898438 C 14.109375 36.046875 13.523438 36.765625 13.699219 37.09375 C 13.878906 37.417969 15.953125 35.769531 16.824219 34.351562 C 18.191406 32.125 20.785156 27.96875 22 24 C 23.203125 20.042969 24.042969 15.933594 24.042969 15.933594 Z M 24.042969 15.933594 "/>
<path style=" stroke:none;fill-rule:nonzero;fill:rgb(0%,0%,0%);fill-opacity:0.196078;" d="M 30 14 L 40 24 L 40 14 Z M 30 14 "/>
<path style=" stroke:none;fill-rule:nonzero;fill:rgb(100%,100%,100%);fill-opacity:1;" d="M 35.375 30.535156 C 35.375 30.535156 35.265625 30.824219 34.0625 30.707031 C 32.847656 30.605469 28.148438 29.046875 25.621094 25.878906 C 23.105469 22.710938 22.894531 18.347656 22.71875 16.074219 C 22.550781 13.796875 23.5 14.4375 23.644531 14.726562 C 23.855469 14.914062 23.964844 15.527344 23.964844 15.527344 C 23.964844 15.527344 23.886719 14.597656 23.511719 14.203125 C 23.125 13.808594 22.792969 13.796875 22.410156 14.484375 C 22.03125 15.167969 21.855469 17.082031 22.164062 18.917969 C 22.472656 20.761719 23.753906 24.976562 25.34375 26.925781 C 26.933594 28.875 30.121094 30.570312 32.472656 31.066406 C 34.824219 31.578125 35.375 30.535156 35.375 30.535156 Z M 35.375 30.535156 "/>
<path style=" stroke:none;fill-rule:nonzero;fill:rgb(100%,100%,100%);fill-opacity:0.392157;" d="M 28 2 L 40 14 L 30 14 C 29.109375 14 28 12.890625 28 12 Z M 28 2 "/>
<path style=" stroke:none;fill-rule:nonzero;fill:rgb(100%,100%,100%);fill-opacity:1;" d="M 20.058594 31.359375 C 20.058594 31.359375 24.625 29.816406 28.941406 29.375 C 33.269531 28.945312 34.746094 29.410156 35.132812 29.734375 C 35.507812 30.058594 35.507812 30.417969 35.507812 30.417969 C 35.507812 30.417969 35.992188 29.917969 35.671875 29.410156 C 35.410156 28.875 34.988281 28.445312 31.566406 28.550781 C 28.148438 28.652344 27.902344 28.804688 24.757812 29.410156 C 21.613281 30.023438 20.058594 31.359375 20.058594 31.359375 Z M 20.058594 31.359375 "/>
</g>
</svg>
