
<svg xmlns="http://www.w3.org/2000/svg" xmlns:xlink="http://www.w3.org/1999/xlink" width="48px" height="48px" viewBox="0 0 48 48" version="1.1">
<g id="surface1">
<path style=" stroke:none;fill-rule:nonzero;fill:rgb(86.27451%,86.27451%,86.27451%);fill-opacity:1;" d="M 10 2 C 9.054688 2 8 3.054688 8 4 L 8 44 C 8 44.890625 9.109375 46 10 46 L 38 46 C 38.890625 46 39.984375 44.890625 40 44 L 40 14 L 28 2 Z M 10 2 "/>
<path style=" stroke:none;fill-rule:nonzero;fill:rgb(0%,0%,0%);fill-opacity:0.196078;" d="M 30 14 L 40 24 L 40 14 Z M 30 14 "/>
<path style=" stroke:none;fill-rule:nonzero;fill:rgb(32.941176%,32.941176%,32.941176%);fill-opacity:1;" d="M 29.066406 16 L 27.710938 32.257812 C 27.640625 33.027344 27.609375 33.519531 27.609375 33.757812 C 27.609375 34.152344 27.675781 34.441406 27.804688 34.644531 C 27.964844 34.917969 28.195312 35.128906 28.46875 35.257812 C 28.757812 35.394531 29.246094 35.464844 29.917969 35.464844 L 29.773438 36 L 22.769531 36 L 22.914062 35.464844 L 23.210938 35.464844 C 23.78125 35.464844 24.242188 35.328125 24.601562 35.0625 C 24.855469 34.875 25.050781 34.578125 25.195312 34.152344 C 25.289062 33.851562 25.382812 33.152344 25.46875 32.046875 L 25.683594 29.566406 L 20.59375 29.566406 L 18.78125 32.257812 C 18.371094 32.871094 18.113281 33.308594 18.003906 33.570312 C 17.902344 33.835938 17.851562 34.082031 17.851562 34.3125 C 17.851562 34.621094 17.960938 34.882812 18.191406 35.105469 C 18.421875 35.328125 18.796875 35.445312 19.316406 35.464844 L 19.171875 36 L 13.914062 36 L 14.058594 35.464844 C 14.707031 35.4375 15.277344 35.199219 15.761719 34.753906 C 16.265625 34.304688 17 33.351562 17.980469 31.882812 L 28.605469 16 L 29.066406 16 M 26.464844 20.796875 L 21.3125 28.519531 L 25.785156 28.519531 L 26.464844 20.796875 "/>
<path style=" stroke:none;fill-rule:nonzero;fill:rgb(100%,100%,100%);fill-opacity:0.392157;" d="M 28 2 L 40 14 L 30 14 C 29.109375 14 28 12.890625 28 12 Z M 28 2 "/>
</g>
</svg>
