
<svg xmlns="http://www.w3.org/2000/svg" xmlns:xlink="http://www.w3.org/1999/xlink" width="48px" height="48px" viewBox="0 0 48 48" version="1.1">
<g id="surface1">
<path style=" stroke:none;fill-rule:nonzero;fill:rgb(93.333333%,93.333333%,93.333333%);fill-opacity:1;" d="M 9.824219 8 C 8.917969 8 8 8.917969 8 9.824219 L 8 38.21875 C 8 39.082031 8.917969 40 9.78125 40 L 38.21875 40 C 39.082031 40 40 39.082031 40 38.21875 L 40 9.78125 C 40 8.917969 39.082031 8 38.21875 8 Z M 9.824219 8 "/>
<path style=" stroke:none;fill-rule:nonzero;fill:rgb(53.333333%,53.333333%,53.333333%);fill-opacity:1;" d="M 23.382812 13.101562 C 21.546875 13.6875 23.15625 16.421875 20.523438 17.757812 C 17.523438 19.289062 16.03125 15.429688 14.226562 18.1875 C 12.421875 20.945312 16.710938 20.515625 16.59375 23.757812 C 16.46875 27.007812 12.21875 26.320312 13.8125 29.179688 C 15.414062 32.046875 17.179688 28.289062 20.0625 30 C 22.953125 31.71875 20.195312 34.890625 23.59375 35 C 26.992188 35.101562 24.46875 31.773438 27.476562 30.242188 C 30.476562 28.710938 31.96875 32.570312 33.773438 29.8125 C 35.578125 27.054688 31.289062 27.484375 31.40625 24.242188 C 31.53125 20.992188 35.78125 21.679688 34.1875 18.820312 C 32.585938 15.953125 30.820312 19.710938 27.9375 18 C 25.046875 16.28125 27.804688 13.109375 24.40625 13 C 23.984375 12.992188 23.640625 13.015625 23.382812 13.101562 Z M 23.414062 21.359375 C 24.929688 21.054688 26.421875 21.984375 26.742188 23.4375 C 27.070312 24.898438 26.101562 26.328125 24.585938 26.640625 C 23.070312 26.945312 21.578125 26.015625 21.257812 24.5625 C 20.929688 23.101562 21.898438 21.671875 23.414062 21.359375 Z M 23.414062 21.359375 "/>
<path style=" stroke:none;fill-rule:nonzero;fill:rgb(66.666667%,66.666667%,66.666667%);fill-opacity:1;" d="M 10.21875 8 C 9.628906 8 9.097656 8.289062 8.695312 8.695312 C 8.289062 9.097656 8 9.628906 8 10.21875 L 8 37.832031 C 8 38.410156 8.273438 38.9375 8.667969 39.332031 C 9.0625 39.726562 9.589844 40 10.167969 40 L 37.832031 40 C 38.410156 40 38.9375 39.726562 39.332031 39.332031 C 39.726562 38.9375 40 38.410156 40 37.832031 L 40 10.167969 C 40 9.589844 39.726562 9.0625 39.332031 8.667969 C 38.9375 8.273438 38.410156 8 37.832031 8 Z M 10 10 L 38 10 L 38 38 L 10 38 Z M 10 10 "/>
</g>
</svg>
