
<svg xmlns="http://www.w3.org/2000/svg" xmlns:xlink="http://www.w3.org/1999/xlink" width="48px" height="48px" viewBox="0 0 48 48" version="1.1">
<g id="surface1">
<path style=" stroke:none;fill-rule:nonzero;fill:rgb(86.27451%,86.27451%,86.27451%);fill-opacity:1;" d="M 10 2 C 9.054688 2 8 3.054688 8 4 L 8 44 C 8 44.890625 9.109375 46 10 46 L 38 46 C 38.890625 46 39.984375 44.890625 40 44 L 40 14 L 28 2 Z M 10 2 "/>
<path style=" stroke:none;fill-rule:nonzero;fill:rgb(0%,0%,0%);fill-opacity:0.196078;" d="M 30 14 L 40 24 L 40 14 Z M 30 14 "/>
<path style=" stroke:none;fill-rule:nonzero;fill:rgb(100%,100%,100%);fill-opacity:0.392157;" d="M 28 2 L 40 14 L 30 14 C 29.109375 14 28 12.890625 28 12 Z M 28 2 "/>
<path style=" stroke:none;fill-rule:nonzero;fill:rgb(53.333333%,53.333333%,53.333333%);fill-opacity:1;" d="M 24 18 C 18.484375 18 14 22.476562 14 28.003906 C 14 33.523438 18.484375 38 24 38 C 29.515625 38 34 33.523438 34 28.003906 C 34 22.476562 29.515625 18 24 18 Z M 24 25.277344 C 25.5 25.277344 26.726562 26.492188 26.726562 28.003906 C 26.726562 29.507812 25.5 30.734375 24 30.734375 C 22.5 30.734375 21.273438 29.507812 21.273438 28.003906 C 21.273438 26.492188 22.5 25.277344 24 25.277344 Z M 24 25.277344 "/>
</g>
</svg>
