
<svg xmlns="http://www.w3.org/2000/svg" xmlns:xlink="http://www.w3.org/1999/xlink" width="48px" height="48px" viewBox="0 0 48 48" version="1.1">
<g id="surface1">
<path style=" stroke:none;fill-rule:nonzero;fill:rgb(86.27451%,86.27451%,86.27451%);fill-opacity:1;" d="M 10 2 C 9.054688 2 8 3.054688 8 4 L 8 44 C 8 44.890625 9.109375 46 10 46 L 38 46 C 38.890625 46 40 44.890625 40 44 L 40 4 C 40 3.054688 38.945312 2 38 2 Z M 10 2 "/>
<path style=" stroke:none;fill-rule:nonzero;fill:rgb(53.333333%,53.333333%,53.333333%);fill-opacity:1;" d="M 14 22 L 14 24 L 34 24 L 34 22 Z M 14 22 "/>
<path style=" stroke:none;fill-rule:nonzero;fill:rgb(53.333333%,53.333333%,53.333333%);fill-opacity:1;" d="M 14 26 L 14 28 L 34 28 L 34 26 Z M 14 26 "/>
<path style=" stroke:none;fill-rule:nonzero;fill:rgb(53.333333%,53.333333%,53.333333%);fill-opacity:1;" d="M 14 34 L 14 36 L 34 36 L 34 34 Z M 14 34 "/>
<path style=" stroke:none;fill-rule:nonzero;fill:rgb(53.333333%,53.333333%,53.333333%);fill-opacity:1;" d="M 14 14 L 14 16 L 34 16 L 34 14 Z M 14 14 "/>
<path style=" stroke:none;fill-rule:nonzero;fill:rgb(53.333333%,53.333333%,53.333333%);fill-opacity:1;" d="M 14 30 L 14 32 L 34 32 L 34 30 Z M 14 30 "/>
<path style=" stroke:none;fill-rule:nonzero;fill:rgb(53.333333%,53.333333%,53.333333%);fill-opacity:1;" d="M 14 18 L 14 20 L 34 20 L 34 18 Z M 14 18 "/>
</g>
</svg>
