
<svg xmlns="http://www.w3.org/2000/svg" xmlns:xlink="http://www.w3.org/1999/xlink" width="48px" height="48px" viewBox="0 0 48 48" version="1.1">
<g id="surface1">
<path style=" stroke:none;fill-rule:nonzero;fill:rgb(63.921569%,21.176471%,22.352941%);fill-opacity:1;" d="M 10 2 C 9.054688 2 8 3.054688 8 4 L 8 44 C 8 44.890625 9.109375 46 10 46 L 38 46 C 38.890625 46 39.984375 44.890625 40 44 L 40 14 L 28 2 Z M 10 2 "/>
<path style=" stroke:none;fill-rule:nonzero;fill:rgb(0%,0%,0%);fill-opacity:0.196078;" d="M 30 14 L 40 24 L 40 14 Z M 30 14 "/>
<path style=" stroke:none;fill-rule:nonzero;fill:rgb(100%,100%,100%);fill-opacity:0.392157;" d="M 28 2 L 40 14 L 30 14 C 29.109375 14 28 12.890625 28 12 Z M 28 2 "/>
<path style=" stroke:none;fill-rule:nonzero;fill:rgb(100%,100%,100%);fill-opacity:1;" d="M 24 17.835938 C 19.585938 17.835938 16 18.953125 16 20.332031 L 16 22.335938 C 16 23.714844 19.585938 24.832031 24 24.832031 C 28.414062 24.832031 32 23.714844 32 22.335938 L 32 20.332031 C 32 18.953125 28.414062 17.835938 24 17.835938 Z M 24 17.835938 "/>
<path style=" stroke:none;fill-rule:nonzero;fill:rgb(100%,100%,100%);fill-opacity:1;" d="M 23.972656 25.835938 C 20.394531 25.835938 17.371094 25.09375 16.359375 24.082031 C 16.121094 24.320312 16 24.574219 16 24.832031 L 16 26.832031 C 16 28.214844 19.585938 29.328125 24 29.328125 C 28.414062 29.328125 32 28.214844 32 26.832031 L 32 24.832031 C 32 24.574219 31.855469 24.320312 31.617188 24.082031 C 30.601562 25.09375 27.550781 25.835938 23.972656 25.835938 Z M 23.972656 25.835938 "/>
<path style=" stroke:none;fill-rule:nonzero;fill:rgb(100%,100%,100%);fill-opacity:1;" d="M 23.972656 30.335938 C 20.394531 30.335938 17.371094 29.59375 16.359375 28.578125 C 16.121094 28.816406 16 29.074219 16 29.328125 L 16 31.332031 C 16 32.710938 19.585938 33.828125 24 33.828125 C 28.414062 33.828125 32 32.710938 32 31.332031 L 32 29.328125 C 32 29.074219 31.855469 28.816406 31.617188 28.578125 C 30.601562 29.59375 27.550781 30.335938 23.972656 30.335938 Z M 23.972656 30.335938 "/>
</g>
</svg>
