<?xml version="1.0" encoding="UTF-8" standalone="no"?>
<!-- Created with Inkscape (http://www.inkscape.org/) -->

<svg
   xmlns:dc="http://purl.org/dc/elements/1.1/"
   xmlns:cc="http://creativecommons.org/ns#"
   xmlns:rdf="http://www.w3.org/1999/02/22-rdf-syntax-ns#"
   xmlns:svg="http://www.w3.org/2000/svg"
   xmlns="http://www.w3.org/2000/svg"
   xmlns:xlink="http://www.w3.org/1999/xlink"
   xmlns:sodipodi="http://sodipodi.sourceforge.net/DTD/sodipodi-0.dtd"
   xmlns:inkscape="http://www.inkscape.org/namespaces/inkscape"
   width="48"
   height="48"
   id="svg2"
   version="1.1"
   inkscape:version="0.48.5 r10040"
   sodipodi:docname="muzika.svg">
  <defs
     id="defs4">
    <linearGradient
       id="linearGradient4188">
      <stop
         style="stop-color:#f59f3a;stop-opacity:1;"
         offset="0"
         id="stop4190" />
      <stop
         style="stop-color:#ffab46;stop-opacity:1;"
         offset="1"
         id="stop4192" />
    </linearGradient>
    <linearGradient
       id="linearGradient4112">
      <stop
         style="stop-color:#f77c13;stop-opacity:1;"
         offset="0"
         id="stop4114" />
      <stop
         style="stop-color:#fb9b49;stop-opacity:1;"
         offset="1"
         id="stop4116" />
    </linearGradient>
    <linearGradient
       id="linearGradient3929">
      <stop
         style="stop-color:#313131;stop-opacity:1;"
         offset="0"
         id="stop3931" />
      <stop
         style="stop-color:#555555;stop-opacity:1;"
         offset="1"
         id="stop3933" />
    </linearGradient>
    <linearGradient
       id="linearGradient3757">
      <stop
         style="stop-color:#0f88de;stop-opacity:1;"
         offset="0"
         id="stop3759" />
      <stop
         style="stop-color:#81bffa;stop-opacity:1;"
         offset="1"
         id="stop3761" />
    </linearGradient>
    <linearGradient
       inkscape:collect="always"
       xlink:href="#linearGradient3929"
       id="linearGradient3935"
       x1="27"
       y1="47"
       x2="27"
       y2="2"
       gradientUnits="userSpaceOnUse" />
    <linearGradient
       inkscape:collect="always"
       xlink:href="#linearGradient4524"
       id="linearGradient4530"
       x1="24"
       y1="46"
       x2="24"
       y2="2"
       gradientUnits="userSpaceOnUse" />
    <linearGradient
       id="linearGradient4524">
      <stop
         style="stop-color:#ca7f4f;stop-opacity:1;"
         offset="0"
         id="stop4526" />
      <stop
         style="stop-color:#d99356;stop-opacity:1;"
         offset="1"
         id="stop4528" />
    </linearGradient>
    <linearGradient
       inkscape:collect="always"
       xlink:href="#linearGradient5847"
       id="linearGradient5893"
       x1="29.200001"
       y1="14.866665"
       x2="23.799999"
       y2="40.066666"
       gradientUnits="userSpaceOnUse" />
    <linearGradient
       id="linearGradient5847">
      <stop
         id="stop5849"
         offset="0"
         style="stop-color:#ffffff;stop-opacity:1;" />
      <stop
         style="stop-color:#d22d2d;stop-opacity:1;"
         offset="0.21739133"
         id="stop5859" />
      <stop
         id="stop6761"
         offset="0.39130437"
         style="stop-color:#e81670;stop-opacity:1;" />
      <stop
         style="stop-color:#cfcbce;stop-opacity:1;"
         offset="0.4782609"
         id="stop5857" />
      <stop
         id="stop6769"
         offset="0.5962733"
         style="stop-color:#4db7f4;stop-opacity:1;" />
      <stop
         style="stop-color:#14b560;stop-opacity:1;"
         offset="0.7391305"
         id="stop5855" />
      <stop
         id="stop5851"
         offset="1"
         style="stop-color:#ffffff;stop-opacity:1;" />
    </linearGradient>
    <linearGradient
       y2="40.066666"
       x2="23.799999"
       y1="14.866665"
       x1="29.200001"
       gradientUnits="userSpaceOnUse"
       id="linearGradient3152"
       xlink:href="#linearGradient5847"
       inkscape:collect="always" />
    <linearGradient
       inkscape:collect="always"
       xlink:href="#linearGradient5847-0"
       id="linearGradient5893-4"
       x1="29.200001"
       y1="14.866665"
       x2="23.799999"
       y2="40.066666"
       gradientUnits="userSpaceOnUse"
       gradientTransform="matrix(1.1111111,0,0,1.0714286,-5.4447011,-4.92857)" />
    <linearGradient
       id="linearGradient5847-0">
      <stop
         id="stop5849-8"
         offset="0"
         style="stop-color:#ffffff;stop-opacity:1;" />
      <stop
         style="stop-color:#d22d2d;stop-opacity:1;"
         offset="0.21739133"
         id="stop5859-9" />
      <stop
         id="stop6761-5"
         offset="0.39130437"
         style="stop-color:#e81670;stop-opacity:1;" />
      <stop
         style="stop-color:#cfcbce;stop-opacity:1;"
         offset="0.4782609"
         id="stop5857-2" />
      <stop
         id="stop6769-3"
         offset="0.5962733"
         style="stop-color:#4db7f4;stop-opacity:1;" />
      <stop
         style="stop-color:#14b560;stop-opacity:1;"
         offset="0.7391305"
         id="stop5855-0" />
      <stop
         id="stop5851-1"
         offset="1"
         style="stop-color:#ffffff;stop-opacity:1;" />
    </linearGradient>
    <linearGradient
       inkscape:collect="always"
       xlink:href="#linearGradient4561"
       id="linearGradient4559"
       x1="17.69619"
       y1="1018.5955"
       x2="12.945526"
       y2="1015.1042"
       gradientUnits="userSpaceOnUse"
       gradientTransform="matrix(0.9996487,0,0,1.0125088,0.00416191,-11.777303)" />
    <linearGradient
       id="linearGradient4561">
      <stop
         id="stop4563"
         offset="0"
         style="stop-color:#ffe900;stop-opacity:1;" />
      <stop
         id="stop4565"
         offset="1"
         style="stop-color:#fffd84;stop-opacity:0.25630252" />
    </linearGradient>
    <linearGradient
       inkscape:collect="always"
       xlink:href="#linearGradient4112"
       id="linearGradient4118"
       x1="46"
       y1="1028.3622"
       x2="2"
       y2="1028.3622"
       gradientUnits="userSpaceOnUse" />
    <linearGradient
       inkscape:collect="always"
       xlink:href="#linearGradient5847-0"
       id="linearGradient4174"
       gradientUnits="userSpaceOnUse"
       gradientTransform="matrix(1.1111111,0,0,1.0714286,-5.444701,998.4336)"
       x1="29.200001"
       y1="14.866665"
       x2="23.799999"
       y2="40.066666" />
    <linearGradient
       inkscape:collect="always"
       xlink:href="#linearGradient4188"
       id="linearGradient4194"
       x1="46"
       y1="18"
       x2="2"
       y2="18"
       gradientUnits="userSpaceOnUse" />
  </defs>
  <sodipodi:namedview
     id="base"
     pagecolor="#ffffff"
     bordercolor="#666666"
     borderopacity="1.0"
     inkscape:pageopacity="0.0"
     inkscape:pageshadow="2"
     inkscape:zoom="25.748401"
     inkscape:cx="26.250201"
     inkscape:cy="16.361795"
     inkscape:document-units="px"
     inkscape:current-layer="layer1"
     showgrid="true"
     inkscape:window-width="1920"
     inkscape:window-height="1052"
     inkscape:window-x="-1"
     inkscape:window-y="1"
     inkscape:window-maximized="1"
     showguides="true"
     inkscape:guide-bbox="true">
    <inkscape:grid
       type="xygrid"
       id="grid3765"
       empspacing="5"
       visible="true"
       enabled="true"
       snapvisiblegridlinesonly="true" />
  </sodipodi:namedview>
  <metadata
     id="metadata7">
    <rdf:RDF>
      <cc:Work
         rdf:about="">
        <dc:format>image/svg+xml</dc:format>
        <dc:type
           rdf:resource="http://purl.org/dc/dcmitype/StillImage" />
        <dc:title></dc:title>
      </cc:Work>
    </rdf:RDF>
  </metadata>
  <g
     inkscape:label="Layer 1"
     inkscape:groupmode="layer"
     id="layer1"
     transform="translate(0,-1004.3622)">
    <rect
       ry="2"
       rx="2"
       y="1007.3622"
       x="2"
       height="44"
       width="44"
       id="rect4125"
       style="fill:#000000;fill-opacity:1;stroke:none;opacity:0.15" />
    <rect
       style="opacity:1;fill:url(#linearGradient4118);fill-opacity:1;stroke:none"
       id="rect4011"
       width="44"
       height="44"
       x="2"
       y="1006.3622"
       rx="2"
       ry="2" />
    <path
       style="fill:#cacaca;fill-opacity:1;fill-rule:nonzero;stroke:#000000;stroke-width:0;stroke-linecap:butt;stroke-linejoin:miter;stroke-miterlimit:4;stroke-opacity:1;stroke-dasharray:none;display:inline"
       d="m 24,1012.3622 c -8.284271,0 -15,6.7157 -15,15 0,8.2843 6.715729,15 15,15 8.284271,0 15,-6.7157 15,-15 0,-8.2843 -6.715729,-15 -15,-15 z m 0,13 c 1.104569,0 2,0.8954 2,2 0,1.1046 -0.895431,2 -2,2 -1.104569,0 -2,-0.8954 -2,-2 0,-1.1046 0.895431,-2 2,-2 z"
       id="path5766"
       inkscape:connector-curvature="0" />
    <path
       style="opacity:0.2;fill:url(#linearGradient4174);fill-opacity:1;fill-rule:nonzero;stroke:#000000;stroke-width:0;stroke-linecap:butt;stroke-linejoin:miter;stroke-miterlimit:4;stroke-opacity:1;stroke-dasharray:none;display:inline"
       d="m 24,1012.3622 c -8.284271,0 -15,6.7157 -15,15 0,8.2843 6.715729,15 15,15 8.284271,0 15,-6.7157 15,-15 0,-8.2843 -6.715729,-15 -15,-15 z m 0,13 c 1.104569,0 2,0.8954 2,2 0,1.1046 -0.895431,2 -2,2 -1.104569,0 -2,-0.8954 -2,-2 0,-1.1046 0.895431,-2 2,-2 z"
       id="path5885"
       inkscape:connector-curvature="0" />
    <path
       sodipodi:type="arc"
       style="fill:none;stroke:#e0e0e0;stroke-width:2.99990082;stroke-linecap:round;stroke-linejoin:round;stroke-miterlimit:4;stroke-opacity:1;stroke-dasharray:none;stroke-dashoffset:0;display:inline"
       id="path5837"
       sodipodi:cx="24.5"
       sodipodi:cy="22.5"
       sodipodi:rx="3.5"
       sodipodi:ry="3.5"
       d="m 28,22.5 a 3.5,3.5 0 1 1 -7,0 3.5,3.5 0 1 1 7,0 z"
       transform="matrix(1.0000331,0,0,1.0000331,-0.50095209,1004.8613)" />
    <path
       sodipodi:type="arc"
       style="opacity:0.42460315;fill:#797979;fill-opacity:0;fill-rule:nonzero;stroke:#7b7b7b;stroke-width:0.10006171;stroke-linecap:round;stroke-linejoin:round;stroke-miterlimit:4;stroke-opacity:1;stroke-dasharray:none;stroke-dashoffset:0;display:inline"
       id="path5925"
       sodipodi:cx="24"
       sodipodi:cy="23"
       sodipodi:rx="2"
       sodipodi:ry="3"
       d="m 26,23 a 2,3 0 1 1 -4,0 2,3 0 1 1 4,0 z"
       transform="matrix(1.4688218,0,0,0.97916866,-11.251837,1004.8413)" />
    <path
       style="fill:#f1f2f6;fill-opacity:1;stroke:none"
       d="M 2 34 L 2 44 C 2 45.108 2.892 46 4 46 L 44 46 C 45.108 46 46 45.108 46 44 L 46 34 L 2 34 z "
       transform="translate(0,1004.3622)"
       id="rect4120" />
    <rect
       style="opacity:1;fill:#bdc0c4;fill-opacity:1;stroke:none"
       id="rect4127"
       width="2"
       height="6"
       x="21"
       y="1041.3622" />
    <rect
       y="1041.3622"
       x="25"
       height="6"
       width="2"
       id="rect4129"
       style="opacity:1;fill:#bdc0c4;fill-opacity:1;stroke:none" />
    <path
       style="fill:#bdc0c4;fill-opacity:1;stroke:none;opacity:1"
       d="m 12,1041.3622 0,6 -4,-3 z"
       id="path4131"
       inkscape:connector-curvature="0" />
    <path
       inkscape:connector-curvature="0"
       id="path4135"
       d="m 36,1041.3622 0,6 4,-3 z"
       style="fill:#bdc0c4;fill-opacity:1;stroke:none;opacity:1" />
    <path
       style="opacity:0.15;fill:#000000;fill-opacity:1;stroke:none"
       d="M 21 37 L 21 38 L 23 38 L 23 37 L 21 37 z "
       transform="translate(0,1004.3622)"
       id="rect4139" />
    <path
       style="opacity:0.15;fill:#000000;fill-opacity:1;stroke:none"
       d="M 25 37 L 25 38 L 27 38 L 27 37 L 25 37 z "
       transform="translate(0,1004.3622)"
       id="rect4141" />
    <path
       style="fill:#000000;fill-opacity:1;stroke:none;opacity:0.15"
       d="M 12 37 L 8 40 L 8.65625 40.5 L 12 38 L 12 37 z "
       transform="translate(0,1004.3622)"
       id="path4143" />
    <path
       style="fill:#000000;fill-opacity:1;stroke:none;opacity:0.15"
       d="M 36 37 L 36 38 L 39.34375 40.5 L 40 40 L 36 37 z "
       transform="translate(0,1004.3622)"
       id="path4147" />
    <path
       inkscape:connector-curvature="0"
       id="path4133"
       d="m 9,1041.3622 0,6 -4,-3 z"
       style="fill:#bdc0c4;fill-opacity:1;stroke:none" />
    <path
       style="opacity:0.15;fill:#000000;fill-opacity:1;stroke:none"
       d="m 9,1041.3622 -4,3 0.65625,0.5 3.34375,-2.5 0,-1 z"
       id="path4145"
       inkscape:connector-curvature="0" />
    <path
       style="fill:#bdc0c4;fill-opacity:1;stroke:none"
       d="m 39,1041.3622 0,6 4,-3 z"
       id="path4137"
       inkscape:connector-curvature="0" />
    <path
       style="opacity:0.15;fill:#000000;fill-opacity:1;stroke:none"
       d="m 39,1041.3622 0,1 3.34375,2.5 0.65625,-0.5 -4,-3 z"
       id="path4149"
       inkscape:connector-curvature="0" />
    <path
       style="opacity:0.5;fill:url(#linearGradient4194);fill-opacity:1;stroke:none"
       d="M 4 2 C 2.892 2 2 2.892 2 4 L 2 34 L 4 34 L 4 32 L 4 31 L 4 6 C 4.0789417 4.8948158 4.892 4 6 4 L 42 4 C 43.108 4 44 4.892 44 6 L 44 31 L 44 32 L 44 34 L 46 34 L 46 4 C 46 2.892 45.108 2 44 2 L 4 2 z "
       transform="translate(0,1004.3622)"
       id="rect4177" />
  </g>
</svg>
