
<svg xmlns="http://www.w3.org/2000/svg" xmlns:xlink="http://www.w3.org/1999/xlink" width="48px" height="48px" viewBox="0 0 48 48" version="1.1">
<g id="surface1">
<path style=" stroke:none;fill-rule:nonzero;fill:rgb(29.019608%,50.196078%,83.921569%);fill-opacity:1;" d="M 10 2 C 9.054688 2 8 3.054688 8 4 L 8 44 C 8 44.890625 9.109375 46 10 46 L 38 46 C 38.890625 46 39.984375 44.890625 40 44 L 40 14 L 28 2 Z M 10 2 "/>
<path style=" stroke:none;fill-rule:nonzero;fill:rgb(0%,0%,0%);fill-opacity:0.196078;" d="M 30 14 L 40 24 L 40 14 Z M 30 14 "/>
<path style=" stroke:none;fill-rule:nonzero;fill:rgb(100%,100%,100%);fill-opacity:0.392157;" d="M 28 2 L 40 14 L 30 14 C 29.109375 14 28 12.890625 28 12 Z M 28 2 "/>
<path style=" stroke:none;fill-rule:nonzero;fill:rgb(100%,100%,100%);fill-opacity:1;" d="M 16.503906 18 C 15.113281 18 14 19.113281 14 20.503906 L 14 35.507812 C 14 36.886719 15.113281 38 16.503906 38 L 31.496094 38 C 32.886719 38 34 36.886719 34 35.507812 L 34 20.503906 C 34 19.113281 32.886719 18 31.496094 18 Z M 22 20 L 26 20 L 26 24 L 22 24 Z M 20 26 L 26 26 L 26 34 L 28 34 L 28 36 L 20 36 L 20 34 L 22 34 L 22 28 L 20 28 Z M 20 26 "/>
</g>
</svg>
