
<svg xmlns="http://www.w3.org/2000/svg" xmlns:xlink="http://www.w3.org/1999/xlink" width="48px" height="48px" viewBox="0 0 48 48" version="1.1">
<g id="surface1">
<path style=" stroke:none;fill-rule:nonzero;fill:rgb(81.960784%,27.45098%,14.901961%);fill-opacity:1;" d="M 10 2 C 9.054688 2 8 3.054688 8 4 L 8 44 C 8 44.890625 9.109375 46 10 46 L 38 46 C 38.890625 46 40 44.890625 40 44 L 40 4 C 40 3.054688 38.945312 2 38 2 Z M 10 2 "/>
<path style=" stroke:none;fill-rule:nonzero;fill:rgb(100%,100%,100%);fill-opacity:1;" d="M 14 14 L 18 14 L 18 20 L 14 20 Z M 14 14 "/>
<path style=" stroke:none;fill-rule:nonzero;fill:rgb(100%,100%,100%);fill-opacity:1;" d="M 14 22 L 18 22 L 18 28 L 14 28 Z M 14 22 "/>
<path style=" stroke:none;fill-rule:nonzero;fill:rgb(100%,100%,100%);fill-opacity:1;" d="M 14 30 L 36 30 L 36 34 L 14 34 Z M 14 30 "/>
<path style=" stroke:none;fill-rule:nonzero;fill:rgb(100%,100%,100%);fill-opacity:1;" d="M 28 14 L 28 20 L 34 20 C 34 16.90625 31 14 28 14 Z M 28 14 "/>
<path style=" stroke:none;fill-rule:nonzero;fill:rgb(100%,100%,100%);fill-opacity:1;" d="M 26 14 C 22.214844 14 20.242188 16.953125 20.242188 20.96875 C 20.242188 24.984375 23.304688 28.230469 27.089844 28.230469 C 30.863281 28.230469 34 26.015625 34 22 L 26 22 Z M 26 14 "/>
</g>
</svg>
