<?xml version="1.0" encoding="UTF-8" standalone="no"?>
<!-- Created with Inkscape (http://www.inkscape.org/) -->

<svg
   xmlns:dc="http://purl.org/dc/elements/1.1/"
   xmlns:cc="http://creativecommons.org/ns#"
   xmlns:rdf="http://www.w3.org/1999/02/22-rdf-syntax-ns#"
   xmlns:svg="http://www.w3.org/2000/svg"
   xmlns="http://www.w3.org/2000/svg"
   xmlns:xlink="http://www.w3.org/1999/xlink"
   xmlns:sodipodi="http://sodipodi.sourceforge.net/DTD/sodipodi-0.dtd"
   xmlns:inkscape="http://www.inkscape.org/namespaces/inkscape"
   width="48"
   height="48"
   id="svg2"
   version="1.1"
   inkscape:version="0.48.5 r10040"
   sodipodi:docname="video.svg">
  <defs
     id="defs4">
    <linearGradient
       id="linearGradient3929">
      <stop
         style="stop-color:#444444;stop-opacity:1;"
         offset="0"
         id="stop3931" />
      <stop
         style="stop-color:#666666;stop-opacity:1;"
         offset="1"
         id="stop3933" />
    </linearGradient>
    <linearGradient
       id="linearGradient3757">
      <stop
         style="stop-color:#3891d1;stop-opacity:1;"
         offset="0"
         id="stop3759" />
      <stop
         style="stop-color:#81bffa;stop-opacity:1;"
         offset="1"
         id="stop3761" />
    </linearGradient>
    <linearGradient
       inkscape:collect="always"
       xlink:href="#linearGradient3929"
       id="linearGradient3935"
       x1="27"
       y1="47"
       x2="27"
       y2="2"
       gradientUnits="userSpaceOnUse" />
    <linearGradient
       inkscape:collect="always"
       xlink:href="#linearGradient3929"
       id="linearGradient3942"
       gradientUnits="userSpaceOnUse"
       x1="27"
       y1="47"
       x2="27"
       y2="2"
       gradientTransform="translate(-2,1003.3622)" />
  </defs>
  <sodipodi:namedview
     id="base"
     pagecolor="#ffffff"
     bordercolor="#666666"
     borderopacity="1.0"
     inkscape:pageopacity="0.0"
     inkscape:pageshadow="2"
     inkscape:zoom="16.417591"
     inkscape:cx="12.063424"
     inkscape:cy="24.349609"
     inkscape:document-units="px"
     inkscape:current-layer="layer1"
     showgrid="true"
     inkscape:window-width="1920"
     inkscape:window-height="1052"
     inkscape:window-x="0"
     inkscape:window-y="28"
     inkscape:window-maximized="1">
    <inkscape:grid
       type="xygrid"
       id="grid3765"
       empspacing="5"
       visible="true"
       enabled="true"
       snapvisiblegridlinesonly="true" />
  </sodipodi:namedview>
  <metadata
     id="metadata7">
    <rdf:RDF>
      <cc:Work
         rdf:about="">
        <dc:format>image/svg+xml</dc:format>
        <dc:type
           rdf:resource="http://purl.org/dc/dcmitype/StillImage" />
        <dc:title />
      </cc:Work>
    </rdf:RDF>
  </metadata>
  <g
     inkscape:label="Layer 1"
     inkscape:groupmode="layer"
     id="layer1"
     transform="translate(0,-1004.3622)">
    <path
       inkscape:connector-curvature="0"
       id="path3944"
       d="m 7,1006.3622 c -1.108,0 -2,0.892 -2,2 l 0,41 c 0,1.108 0.892,2 2,2 l 34,0 c 1.108,0 2,-0.892 2,-2 l 0,-41 c 0,-1.108 -0.892,-2 -2,-2 l -34,0 z m 1,3 3,0 0,3 -3,0 0,-3 z m 29,0 3,0 0,3 -3,0 0,-3 z m -29,6 3,0 0,3 -3,0 0,-3 z m 29,0 3,0 0,3 -3,0 0,-3 z m -29,6 3,0 0,3 -3,0 0,-3 z m 29,0 3,0 0,3 -3,0 0,-3 z m -29,6 3,0 0,3 -3,0 0,-3 z m 29,0 3,0 0,3 -3,0 0,-3 z m -29,6 3,0 0,3 -3,0 0,-3 z m 29,0 3,0 0,3 -3,0 0,-3 z m -29,6 3,0 0,3 -3,0 0,-3 z m 29,0 3,0 0,3 -3,0 0,-3 z m -29,6 3,0 0,3 -3,0 0,-3 z m 29,0 3,0 0,3 -3,0 0,-3 z"
       style="opacity:0.15;fill:#000000;fill-opacity:1;stroke:none" />
    <path
       style="fill:url(#linearGradient3942);fill-opacity:1;stroke:none"
       d="m 7,1005.3622 c -1.108,0 -2,0.892 -2,2 l 0,41 c 0,1.108 0.892,2 2,2 l 34,0 c 1.108,0 2,-0.892 2,-2 l 0,-41 c 0,-1.108 -0.892,-2 -2,-2 l -34,0 z m 1,3 3,0 0,3 -3,0 0,-3 z m 29,0 3,0 0,3 -3,0 0,-3 z m -29,6 3,0 0,3 -3,0 0,-3 z m 29,0 3,0 0,3 -3,0 0,-3 z m -29,6 3,0 0,3 -3,0 0,-3 z m 29,0 3,0 0,3 -3,0 0,-3 z m -29,6 3,0 0,3 -3,0 0,-3 z m 29,0 3,0 0,3 -3,0 0,-3 z m -29,6 3,0 0,3 -3,0 0,-3 z m 29,0 3,0 0,3 -3,0 0,-3 z m -29,6 3,0 0,3 -3,0 0,-3 z m 29,0 3,0 0,3 -3,0 0,-3 z m -29,6 3,0 0,3 -3,0 0,-3 z m 29,0 3,0 0,3 -3,0 0,-3 z"
       id="rect2985"
       inkscape:connector-curvature="0" />
    <rect
       ry="2"
       rx="2"
       y="1031.3622"
       x="14"
       height="16"
       width="20"
       id="rect3766"
       style="fill:#000000;fill-opacity:1;stroke:none;opacity:0.15" />
    <rect
       style="fill:#42a5f5;fill-opacity:1;stroke:none"
       id="rect3755"
       width="20"
       height="16"
       x="14"
       y="1030.3622"
       rx="2"
       ry="2" />
    <rect
       style="fill:#000000;fill-opacity:1;stroke:none;opacity:0.15"
       id="rect3768"
       width="20"
       height="16"
       x="14"
       y="1010.3622"
       rx="2"
       ry="2" />
    <rect
       ry="2"
       rx="2"
       y="1009.3622"
       x="14"
       height="16"
       width="20"
       id="rect3767"
       style="fill:#42a5f5;fill-opacity:1;stroke:none" />
    <path
       style="opacity:0.4;fill:#ffffff;fill-opacity:1;stroke:none"
       d="m -43,1005.3622 c -1.108,0 -2,0.892 -2,2 l 0,26 5.4375,-4 -2.4375,0 0,-3 3,0 0,2.5938 26,-19.1875 0,-1.4063 1.9375,0 3.375,-2.5 c -0.351332,-0.3069 -0.807214,-0.5 -1.3125,-0.5 l -34,0 z m 1,3 3,0 0,3 -3,0 0,-3 z m 0,6 3,0 0,3 -3,0 0,-3 z m 0,6 3,0 0,3 -3,0 0,-3 z"
       id="path3937"
       inkscape:connector-curvature="0" />
  </g>
</svg>
