
<svg xmlns="http://www.w3.org/2000/svg" xmlns:xlink="http://www.w3.org/1999/xlink" width="48px" height="48px" viewBox="0 0 48 48" version="1.1">
<g id="surface1">
<path style=" stroke:none;fill-rule:nonzero;fill:rgb(0%,52.156863%,23.921569%);fill-opacity:1;" d="M 10 2 C 9.054688 2 8 3.054688 8 4 L 8 44 C 8 44.890625 9.109375 46 10 46 L 38 46 C 38.890625 46 39.984375 44.890625 40 44 L 40 14 L 28 2 Z M 10 2 "/>
<path style=" stroke:none;fill-rule:nonzero;fill:rgb(0%,0%,0%);fill-opacity:0.196078;" d="M 30 14 L 40 24 L 40 14 Z M 30 14 "/>
<path style=" stroke:none;fill-rule:nonzero;fill:rgb(100%,100%,100%);fill-opacity:0.392157;" d="M 28 2 L 40 14 L 30 14 C 29.109375 14 28 12.890625 28 12 Z M 28 2 "/>
<path style=" stroke:none;fill-rule:nonzero;fill:rgb(100%,100%,100%);fill-opacity:1;" d="M 29.253906 37.652344 L 25.203125 37.652344 C 23.957031 37.652344 22.753906 37.683594 21.578125 37.222656 C 20.621094 36.851562 19.71875 36.277344 19 35.53125 C 16.625 33.054688 16.324219 29.113281 18.457031 26.375 C 19.773438 24.699219 21.792969 23.640625 23.925781 23.640625 C 24.515625 23.640625 25.730469 23.539062 25.988281 24.226562 C 26.105469 24.585938 25.847656 24.984375 25.472656 25.042969 C 25.144531 25.113281 24.742188 24.929688 24.398438 24.929688 C 23.367188 24.914062 22.453125 25.058594 21.507812 25.488281 C 18.027344 27.0625 17.152344 32.164062 20.003906 34.757812 C 20.734375 35.417969 21.578125 35.933594 22.539062 36.191406 C 23.398438 36.40625 24.269531 36.363281 25.144531 36.363281 L 30.414062 36.363281 C 30.628906 36.363281 30.960938 36.421875 31.160156 36.351562 C 31.316406 36.292969 31.460938 36.121094 31.574219 36.007812 C 31.863281 35.71875 32.292969 35.402344 32.449219 35.015625 L 25.847656 35.015625 C 25.042969 35.015625 24.199219 35.089844 23.410156 34.972656 C 22.480469 34.84375 21.648438 34.414062 20.960938 33.769531 C 20.605469 33.441406 20.320312 33.023438 20.105469 32.582031 C 18.785156 29.957031 20.476562 26.820312 23.339844 26.320312 C 23.828125 26.234375 24.371094 26.246094 24.859375 26.347656 C 25.34375 26.449219 25.945312 26.621094 26.332031 26.949219 C 26.605469 27.191406 26.632812 27.578125 26.40625 27.851562 C 26.046875 28.238281 25.703125 28.011719 25.332031 27.839844 C 25.03125 27.707031 24.714844 27.609375 24.398438 27.578125 C 23.023438 27.40625 21.691406 28.183594 21.148438 29.457031 C 20.476562 31.0625 21.335938 32.996094 22.980469 33.554688 C 23.769531 33.84375 24.671875 33.726562 25.503906 33.726562 L 32.40625 33.726562 C 32.679688 33.726562 33.136719 33.8125 33.378906 33.714844 C 33.480469 33.671875 33.523438 33.527344 33.582031 33.441406 L 33.996094 32.636719 C 34.484375 31.519531 34.8125 30.390625 34.941406 29.171875 C 35.472656 24.113281 32.390625 19.296875 27.621094 17.605469 C 23.882812 16.273438 19.546875 17.191406 16.625 19.839844 C 15.261719 21.074219 14.273438 22.621094 13.644531 24.339844 C 12.785156 26.621094 12.785156 29.429688 13.644531 31.707031 C 13.84375 32.222656 14.046875 32.753906 14.332031 33.238281 C 14.402344 33.355469 14.488281 33.65625 14.632812 33.714844 C 14.960938 33.828125 14.691406 33.125 14.660156 33.023438 C 14.445312 32.164062 14.375 31.304688 14.375 30.417969 C 14.375 26.621094 16.9375 23.152344 20.363281 21.703125 C 21.390625 21.273438 22.582031 21.003906 23.699219 21.003906 C 23.855469 21.003906 24.042969 20.972656 24.183594 21.03125 C 24.542969 21.144531 24.757812 21.5625 24.585938 21.90625 C 24.34375 22.363281 23.871094 22.25 23.441406 22.292969 C 22.523438 22.378906 21.636719 22.5625 20.777344 22.921875 C 18.328125 23.953125 16.410156 26.191406 15.851562 28.8125 C 15.0625 32.523438 16.839844 36.421875 20.261719 38.140625 C 21.707031 38.855469 23.296875 39.085938 24.886719 38.972656 C 26.003906 38.898438 27.121094 38.628906 28.167969 38.210938 C 28.496094 38.082031 29.027344 37.925781 29.253906 37.652344 Z M 29.253906 37.652344 "/>
</g>
</svg>
