
<svg xmlns="http://www.w3.org/2000/svg" xmlns:xlink="http://www.w3.org/1999/xlink" width="48px" height="48px" viewBox="0 0 48 48" version="1.1">
<g id="surface1">
<path style=" stroke:none;fill-rule:nonzero;fill:rgb(12.54902%,44.313725%,27.058824%);fill-opacity:1;" d="M 10 2 C 9.054688 2 8 3.054688 8 4 L 8 44 C 8 44.890625 9.109375 46 10 46 L 38 46 C 38.890625 46 40 44.890625 40 44 L 40 4 C 40 3.054688 38.945312 2 38 2 Z M 10 2 "/>
<path style=" stroke:none;fill-rule:nonzero;fill:rgb(97.647059%,97.647059%,97.647059%);fill-opacity:1;" d="M 34 16 L 34 36 L 14 36 L 14 16 Z M 32 18 L 24 18 L 24 22 L 32 22 Z M 22 18 L 16 18 L 16 22 L 22 22 Z M 32 24 L 24 24 L 24 28 L 32 28 Z M 22 24 L 16 24 L 16 28 L 22 28 Z M 32 30 L 24 30 L 24 34 L 32 34 Z M 22 30 L 16 30 L 16 34 L 22 34 Z M 22 30 "/>
</g>
</svg>
