
<svg xmlns="http://www.w3.org/2000/svg" xmlns:xlink="http://www.w3.org/1999/xlink" width="48px" height="48px" viewBox="0 0 48 48" version="1.1">
<g id="surface1">
<path style=" stroke:none;fill-rule:nonzero;fill:rgb(60.392157%,46.666667%,23.529412%);fill-opacity:1;" d="M 10 2 C 9.054688 2 8 3.054688 8 4 L 8 44 C 8 44.890625 9.109375 46 10 46 L 38 46 C 38.890625 46 39.984375 44.890625 40 44 L 40 14 L 28 2 Z M 10 2 "/>
<path style=" stroke:none;fill-rule:nonzero;fill:rgb(100%,100%,100%);fill-opacity:1;" d="M 33.699219 17.234375 C 33.609375 17.28125 33.515625 17.449219 33.441406 17.714844 C 33.214844 18.414062 31.648438 23.25 22.765625 23.484375 C 18.527344 23.59375 16.714844 19.691406 16.714844 19.691406 L 16.609375 24.714844 C 16.609375 24.714844 17.0625 25.816406 16.160156 27 C 16.113281 26.90625 16.082031 26.828125 16.023438 26.734375 C 15.691406 26.269531 15.3125 25.863281 14.90625 25.570312 C 14.4375 25.226562 13.941406 25.007812 13.472656 24.929688 C 12.914062 24.835938 12.371094 24.976562 11.949219 25.289062 C 11.527344 25.617188 11.273438 26.113281 11.179688 26.6875 C 11.089844 27.1875 11.121094 27.730469 11.289062 28.304688 C 11.421875 28.804688 11.648438 29.300781 11.980469 29.785156 C 12.328125 30.28125 12.75 30.730469 13.203125 31.042969 C 13.714844 31.386719 14.242188 31.585938 14.769531 31.617188 C 14.9375 31.632812 15.101562 31.585938 15.253906 31.570312 C 18.660156 34.402344 25.433594 37.046875 29.929688 34.011719 C 30.019531 34.058594 30.125 34.089844 30.214844 34.121094 C 30.214844 34.183594 30.199219 34.230469 30.214844 34.261719 L 30.425781 34.183594 C 30.46875 34.199219 30.5 34.230469 30.53125 34.246094 C 30.546875 34.246094 30.546875 34.230469 30.5625 34.246094 L 30.636719 34.324219 L 32.65625 35.070312 C 32.582031 35.816406 32.929688 36.640625 33.804688 37 C 35.386719 37.636719 36.863281 38.445312 36.863281 38.445312 C 36.109375 35.769531 35.839844 33.609375 33.863281 33.796875 C 33.488281 33.828125 33.214844 33.984375 33.003906 34.214844 L 31.226562 33.019531 L 31.148438 33.019531 L 31.121094 32.988281 C 33.515625 30.515625 34.917969 25.863281 34.074219 17.761719 C 34.03125 17.355469 33.863281 17.15625 33.699219 17.234375 Z M 33.699219 17.234375 "/>
<path style=" stroke:none;fill-rule:nonzero;fill:rgb(0%,0%,0%);fill-opacity:0.196078;" d="M 30 14 L 40 24 L 40 14 Z M 30 14 "/>
<path style=" stroke:none;fill-rule:nonzero;fill:rgb(100%,100%,100%);fill-opacity:0.392157;" d="M 28 2 L 40 14 L 30 14 C 29.109375 14 28 12.890625 28 12 Z M 28 2 "/>
</g>
</svg>
