
<svg xmlns="http://www.w3.org/2000/svg" xmlns:xlink="http://www.w3.org/1999/xlink" width="48px" height="48px" viewBox="0 0 48 48" version="1.1">
<g id="surface1">
<path style=" stroke:none;fill-rule:nonzero;fill:rgb(86.27451%,86.27451%,86.27451%);fill-opacity:1;" d="M 10 2 C 9.054688 2 8 3.054688 8 4 L 8 44 C 8 44.890625 9.109375 46 10 46 L 38 46 C 38.890625 46 39.984375 44.890625 40 44 L 40 14 L 28 2 Z M 10 2 "/>
<path style=" stroke:none;fill-rule:nonzero;fill:rgb(0%,0%,0%);fill-opacity:0.196078;" d="M 30 14 L 40 24 L 40 14 Z M 30 14 "/>
<path style=" stroke:none;fill-rule:nonzero;fill:rgb(53.333333%,53.333333%,53.333333%);fill-opacity:1;" d="M 24 16 C 17.375 16 12 21.371094 12 28.007812 C 12 34.628906 17.375 40 24 40 C 30.625 40 36 34.628906 36 28.007812 C 36 21.371094 30.625 16 24 16 Z M 24 18.402344 C 29.304688 18.402344 33.609375 22.707031 33.609375 28.007812 C 33.609375 33.308594 29.304688 37.597656 24 37.597656 C 18.695312 37.597656 14.390625 33.308594 14.390625 28.007812 C 14.390625 22.707031 18.695312 18.402344 24 18.402344 Z M 24 18.402344 "/>
<path style=" stroke:none;fill-rule:nonzero;fill:rgb(53.333333%,53.333333%,53.333333%);fill-opacity:1;" d="M 26.40625 23.199219 C 26.40625 24.535156 25.324219 25.601562 24 25.601562 C 22.675781 25.601562 21.59375 24.535156 21.59375 23.199219 C 21.59375 21.878906 22.675781 20.808594 24 20.808594 C 25.324219 20.808594 26.40625 21.878906 26.40625 23.199219 Z M 26.40625 23.199219 "/>
<path style=" stroke:none;fill-rule:nonzero;fill:rgb(53.333333%,53.333333%,53.333333%);fill-opacity:1;" d="M 26 27 L 26 35 L 22 35 L 22 27 Z M 26 27 "/>
<path style=" stroke:none;fill-rule:nonzero;fill:rgb(100%,100%,100%);fill-opacity:0.392157;" d="M 28 2 L 40 14 L 30 14 C 29.109375 14 28 12.890625 28 12 Z M 28 2 "/>
</g>
</svg>
