
<svg xmlns="http://www.w3.org/2000/svg" xmlns:xlink="http://www.w3.org/1999/xlink" width="48px" height="48px" viewBox="0 0 48 48" version="1.1">
<g id="surface1">
<path style=" stroke:none;fill-rule:nonzero;fill:rgb(86.27451%,19.607843%,18.431373%);fill-opacity:1;" d="M 10 2 C 9.054688 2 8 3.054688 8 4 L 8 44 C 8 44.890625 9.109375 46 10 46 L 38 46 C 38.890625 46 39.984375 44.890625 40 44 L 40 14 L 28 2 Z M 10 2 "/>
<path style=" stroke:none;fill-rule:nonzero;fill:rgb(0%,0%,0%);fill-opacity:0.196078;" d="M 30 14 L 40 24 L 40 14 Z M 30 14 "/>
<path style=" stroke:none;fill-rule:nonzero;fill:rgb(100%,100%,100%);fill-opacity:0.392157;" d="M 28 2 L 40 14 L 30 14 C 29.109375 14 28 12.890625 28 12 Z M 28 2 "/>
<path style=" stroke:none;fill-rule:nonzero;fill:rgb(100%,100%,100%);fill-opacity:1;" d="M 14 18 L 14 22 L 34 22 L 34 18 Z M 14 24 L 14 38 L 34 38 L 34 24 Z M 27.152344 25.769531 C 27.929688 25.769531 28.695312 25.855469 29.277344 26.226562 C 29.859375 26.601562 30.28125 27.085938 30.585938 27.800781 C 30.890625 28.503906 30.890625 29.921875 30.890625 30.910156 C 30.890625 33.015625 30.425781 33.632812 29.550781 34.679688 C 28.691406 35.722656 27.765625 36 26 36 C 25.375 36 24.917969 35.957031 24.597656 35.886719 L 24.597656 34.09375 C 25 34.195312 25.570312 34.3125 26 34.3125 C 26.75 34.3125 27.132812 34.214844 27.605469 34 C 28.078125 33.769531 28.289062 33.554688 28.539062 33.082031 C 28.789062 32.59375 28.929688 32.378906 28.96875 31.535156 L 28.859375 31.546875 C 28.859375 31.546875 28.609375 31.8125 28.25 32 C 27.875 32.1875 27.445312 32.289062 26.902344 32.289062 C 25.988281 32.289062 25.128906 32.070312 24.601562 31.46875 C 24.074219 30.867188 23.859375 30.519531 23.859375 29.460938 C 23.859375 28.3125 23.90625 27.585938 24.542969 26.925781 C 25.183594 26.253906 26.054688 25.769531 27.152344 25.769531 Z M 20 26 L 22 26 L 22 36 L 20 36 L 20 28 L 17.375 29.105469 L 16.746094 27.441406 Z M 26.78125 27.339844 C 26.476562 27.394531 26.199219 27.554688 26.003906 27.796875 C 25.738281 28.113281 25.628906 28.597656 25.628906 29.199219 C 25.628906 29.714844 25.726562 30.117188 25.960938 30.433594 C 26.199219 30.734375 26.558594 30.890625 27.03125 30.890625 C 27.488281 30.890625 27.863281 30.71875 28.183594 30.433594 C 28.503906 30.117188 28.671875 29.789062 28.671875 29.402344 C 28.671875 28.8125 28.515625 28.3125 28.226562 27.910156 C 27.921875 27.511719 27.53125 27.339844 27.074219 27.339844 C 26.960938 27.339844 26.878906 27.308594 26.78125 27.339844 Z M 26.78125 27.339844 "/>
</g>
</svg>
