<?xml version="1.0" encoding="UTF-8" standalone="no"?>
<svg
   xmlns:dc="http://purl.org/dc/elements/1.1/"
   xmlns:cc="http://creativecommons.org/ns#"
   xmlns:rdf="http://www.w3.org/1999/02/22-rdf-syntax-ns#"
   xmlns:svg="http://www.w3.org/2000/svg"
   xmlns="http://www.w3.org/2000/svg"
   xmlns:sodipodi="http://sodipodi.sourceforge.net/DTD/sodipodi-0.dtd"
   xmlns:inkscape="http://www.inkscape.org/namespaces/inkscape"
   enable-background="new 0 0 32 32"
   height="16"
   id="Layer_1"
   version="1.1"
   viewBox="0 0 16 16"
   width="16"
   xml:space="preserve"
   inkscape:version="0.48.5 r10040"
   sodipodi:docname="battery-full-charging-symbolic.svg"><metadata
     id="metadata12"><rdf:RDF><cc:Work
         rdf:about=""><dc:format>image/svg+xml</dc:format><dc:type
           rdf:resource="http://purl.org/dc/dcmitype/StillImage" /><dc:title /></cc:Work></rdf:RDF></metadata><defs
     id="defs10" /><sodipodi:namedview
     pagecolor="#ffffff"
     bordercolor="#666666"
     borderopacity="1"
     objecttolerance="10"
     gridtolerance="10"
     guidetolerance="10"
     inkscape:pageopacity="0"
     inkscape:pageshadow="2"
     inkscape:window-width="1920"
     inkscape:window-height="1022"
     id="namedview8"
     showgrid="true"
     inkscape:zoom="55.77837"
     inkscape:cx="6.8430593"
     inkscape:cy="5.8759148"
     inkscape:window-x="0"
     inkscape:window-y="28"
     inkscape:window-maximized="1"
     inkscape:current-layer="Layer_1"><inkscape:grid
       type="xygrid"
       id="grid2991"
       empspacing="5"
       visible="true"
       enabled="true"
       snapvisiblegridlinesonly="true" /></sodipodi:namedview><rect
     style="fill:#bebebe;fill-opacity:1;stroke:none"
     id="rect3754"
     width="6"
     height="4"
     x="5"
     y="0"
     rx="1"
     ry="1" /><rect
     ry="2"
     rx="2"
     y="2"
     x="-15"
     height="14"
     width="10"
     id="rect3799"
     style="fill:#bebebe;fill-opacity:1;stroke:none" /><path
     style="fill:#bebebe;fill-opacity:1;stroke:none"
     d="M 3 2 C 2.446 2 2 2.446 2 3 L 2 15 C 2 15.554 2.446 16 3 16 L 7 16 L 7 14 L 4 14 L 4 4 L 12 4 L 12 6 L 14 6 L 14 3 C 14 2.446 13.554 2 13 2 L 3 2 z "
     id="rect3831" /><path
     style="fill:#33d16b;fill-opacity:1;stroke:none"
     d="m 5,5 0,8 2,0 0,-6 4,0 0,-2 z"
     id="rect3836"
     class="success"
     inkscape:connector-curvature="0"
     sodipodi:nodetypes="ccccccc" /><path
     inkscape:connector-curvature="0"
     d="m 12.873797,8.0125183 c -0.221778,0.023945 -0.43452,0.124577 -0.593565,0.2807732 L 9.2811628,11.288205 c -0.6209244,0.717532 -0.079907,1.734592 0.7185267,1.715837 l 2.5617045,0 -1.280852,1.279077 c -0.376259,0.37569 -0.37628,1.059395 -4.5e-5,1.435109 0.376235,0.375714 1.060888,0.375693 1.437099,-4.5e-5 l 2.999069,-2.994915 c 0.652129,-0.717531 0.07991,-1.734592 -0.718527,-1.715837 l -2.561705,0 1.280852,-1.2790762 c 0.685457,-0.7175322 -0.0034,-1.8537047 -0.843488,-1.7158365 z"
     id="path11312"
     style="font-size:medium;font-style:normal;font-variant:normal;font-weight:normal;font-stretch:normal;text-indent:0;text-align:start;text-decoration:none;line-height:normal;letter-spacing:normal;word-spacing:normal;text-transform:none;direction:ltr;block-progression:tb;writing-mode:lr-tb;text-anchor:start;baseline-shift:baseline;color:#bebebe;fill:#33d16b;fill-opacity:1;fill-rule:nonzero;stroke:none;stroke-width:2;marker:none;visibility:visible;display:inline;overflow:visible;enable-background:accumulate;font-family:Sans;-inkscape-font-specification:Sans"
     sodipodi:nodetypes="ccccccscccccc"
     class="success" /><rect
     height="0.99830478"
     id="rect11314"
     style="color:#bebebe;fill:#33d16b;fill-opacity:1;fill-rule:nonzero;stroke:none;stroke-width:2;marker:none;visibility:visible;display:inline;overflow:visible"
     width="0.99968964"
     x="14.998137"
     y="11.007432"
     class="success" /><rect
     height="0.99830478"
     id="rect11316"
     style="color:#bebebe;fill:#33d16b;fill-opacity:1;fill-rule:nonzero;stroke:none;stroke-width:2;marker:none;visibility:visible;display:inline;overflow:visible"
     width="0.99968964"
     x="9"
     y="12.005737"
     class="success" /><rect
     height="0.99986935"
     id="rect11318"
     style="color:#bebebe;fill:#33d16b;fill-opacity:1;fill-rule:nonzero;stroke:none;stroke-width:2;marker:none;visibility:visible;display:inline;overflow:visible"
     width="0.99968964"
     x="13"
     y="7.9999995"
     class="success" /><rect
     height="0.99986935"
     id="rect11320"
     style="color:#bebebe;fill:#33d16b;fill-opacity:1;fill-rule:nonzero;stroke:none;stroke-width:2;marker:none;visibility:visible;display:inline;overflow:visible"
     width="0.99968964"
     x="11"
     y="14.999086"
     class="success" /><path
     inkscape:connector-curvature="0"
     d="m 13.191504,11.426296 -1.99938,2.994914 1.686977,1.123093 1.999379,-2.994915 -1.686976,-1.123092 z"
     id="path11324"
     style="font-size:medium;font-style:normal;font-variant:normal;font-weight:normal;font-stretch:normal;text-indent:0;text-align:start;text-decoration:none;line-height:normal;letter-spacing:normal;word-spacing:normal;text-transform:none;direction:ltr;block-progression:tb;writing-mode:lr-tb;text-anchor:start;baseline-shift:baseline;color:#bebebe;fill:#33d16b;fill-opacity:1;fill-rule:nonzero;stroke:none;stroke-width:2;marker:none;visibility:visible;display:inline;overflow:visible;enable-background:accumulate;font-family:Sans;-inkscape-font-specification:Sans"
     class="success" /></svg>