<?xml version="1.0" encoding="UTF-8" standalone="no"?>
<svg
   xmlns:dc="http://purl.org/dc/elements/1.1/"
   xmlns:cc="http://creativecommons.org/ns#"
   xmlns:rdf="http://www.w3.org/1999/02/22-rdf-syntax-ns#"
   xmlns:svg="http://www.w3.org/2000/svg"
   xmlns="http://www.w3.org/2000/svg"
   xmlns:sodipodi="http://sodipodi.sourceforge.net/DTD/sodipodi-0.dtd"
   xmlns:inkscape="http://www.inkscape.org/namespaces/inkscape"
   enable-background="new 0 0 32 32"
   height="16"
   id="Layer_1"
   version="1.1"
   viewBox="0 0 16 16"
   width="16"
   xml:space="preserve"
   inkscape:version="0.48.5 r10040"
   sodipodi:docname="ueb-kamera.svg"><metadata
     id="metadata26"><rdf:RDF><cc:Work
         rdf:about=""><dc:format>image/svg+xml</dc:format><dc:type
           rdf:resource="http://purl.org/dc/dcmitype/StillImage" /><dc:title></dc:title></cc:Work></rdf:RDF></metadata><defs
     id="defs24" /><sodipodi:namedview
     pagecolor="#ffffff"
     bordercolor="#666666"
     borderopacity="1"
     objecttolerance="10"
     gridtolerance="10"
     guidetolerance="10"
     inkscape:pageopacity="0"
     inkscape:pageshadow="2"
     inkscape:window-width="1920"
     inkscape:window-height="1052"
     id="namedview22"
     showgrid="true"
     inkscape:zoom="30.73404"
     inkscape:cx="7.7601773"
     inkscape:cy="10.299545"
     inkscape:window-x="0"
     inkscape:window-y="28"
     inkscape:window-maximized="1"
     inkscape:current-layer="Layer_1"><inkscape:grid
       type="xygrid"
       id="grid3003"
       empspacing="5"
       visible="true"
       enabled="true"
       snapvisiblegridlinesonly="true" /></sodipodi:namedview><path
     style="fill:#bebebe;fill-opacity:1;stroke:none"
     d="M 8 0 C 4.1340068 1.7763568e-15 1 3.1340068 1 7 C 1 10.865993 4.1340068 14 8 14 C 11.865993 14 15 10.865993 15 7 C 15 3.1340068 11.865993 -1.1842379e-15 8 0 z M 8 2 C 10.761424 2 13 4.2385763 13 7 C 13 9.7614237 10.761424 12 8 12 C 5.2385762 12 3 9.7614237 3 7 C 3 4.2385763 5.2385762 2 8 2 z "
     id="path3795" /><path
     style="fill:#bebebe;fill-opacity:1;stroke:none"
     d="M 8 4 C 6.3431457 4 5 5.3431457 5 7 C 5 8.6568543 6.3431457 10 8 10 C 9.656854 10 11 8.6568543 11 7 C 11 5.3431457 9.656854 4 8 4 z M 8 5 C 9.1045695 5 10 5.8954305 10 7 C 10 8.1045695 9.1045695 9 8 9 C 6.8954305 9 6 8.1045695 6 7 C 6 5.8954305 6.8954305 5 8 5 z "
     id="path3797" /><path
     sodipodi:type="arc"
     style="opacity:1;fill:#bebebe;fill-opacity:1;stroke:none"
     id="path3815"
     sodipodi:cx="8.1767054"
     sodipodi:cy="7"
     sodipodi:rx="0.82329494"
     sodipodi:ry="1"
     d="M 9.0000003,7 A 0.82329494,1 0 1 1 7.3534104,7 0.82329494,1 0 1 1 9.0000003,7 z"
     transform="matrix(1.2146315,0,0,1,-1.9316839,0)" /><path
     style="fill:#bebebe;fill-opacity:1;stroke:none"
     d="m 6,13 -3,3 10,0 -3,-3 z"
     id="path3817"
     inkscape:connector-curvature="0"
     sodipodi:nodetypes="ccccc" /></svg>