<?xml version="1.0" encoding="UTF-8" standalone="no"?>
<svg
   xmlns:dc="http://purl.org/dc/elements/1.1/"
   xmlns:cc="http://creativecommons.org/ns#"
   xmlns:rdf="http://www.w3.org/1999/02/22-rdf-syntax-ns#"
   xmlns:svg="http://www.w3.org/2000/svg"
   xmlns="http://www.w3.org/2000/svg"
   xmlns:sodipodi="http://sodipodi.sourceforge.net/DTD/sodipodi-0.dtd"
   xmlns:inkscape="http://www.inkscape.org/namespaces/inkscape"
   enable-background="new 0 0 32 32"
   height="16"
   id="Layer_1"
   version="1.1"
   viewBox="0 0 16 16"
   width="16"
   xml:space="preserve"
   inkscape:version="0.48.5 r10040"
   sodipodi:docname="telefon.svg"><metadata
     id="metadata12"><rdf:RDF><cc:Work
         rdf:about=""><dc:format>image/svg+xml</dc:format><dc:type
           rdf:resource="http://purl.org/dc/dcmitype/StillImage" /><dc:title></dc:title></cc:Work></rdf:RDF></metadata><defs
     id="defs10" /><sodipodi:namedview
     pagecolor="#ffffff"
     bordercolor="#666666"
     borderopacity="1"
     objecttolerance="10"
     gridtolerance="10"
     guidetolerance="10"
     inkscape:pageopacity="0"
     inkscape:pageshadow="2"
     inkscape:window-width="1920"
     inkscape:window-height="1052"
     id="namedview8"
     showgrid="true"
     inkscape:zoom="55.77837"
     inkscape:cx="1.3750078"
     inkscape:cy="7.3101625"
     inkscape:window-x="0"
     inkscape:window-y="28"
     inkscape:window-maximized="1"
     inkscape:current-layer="Layer_1"><inkscape:grid
       type="xygrid"
       id="grid2991"
       empspacing="5"
       visible="true"
       enabled="true"
       snapvisiblegridlinesonly="true" /></sodipodi:namedview><path
     style="fill:#bebebe;fill-opacity:1;stroke:none"
     d="M 4 2 C 2.892 2 2 2.892 2 4 L 2 14 C 2 15.108 2.892 16 4 16 L 12 16 C 13.108 16 14 15.108 14 14 L 14 4 C 14 2.892 13.108 2 12 2 L 4 2 z M 4 4 L 12 4 L 12 9 L 4 9 L 4 4 z M 5 10 C 5.5522849 10 6 10.447715 6 11 C 6 11.552285 5.5522849 12 5 12 C 4.4477151 12 4 11.552285 4 11 C 4 10.447715 4.4477151 10 5 10 z M 8 10 C 8.5522848 10 9 10.447715 9 11 C 9 11.552285 8.5522848 12 8 12 C 7.4477152 12 7 11.552285 7 11 C 7 10.447715 7.4477152 10 8 10 z M 11 10 C 11.552285 10 12 10.447715 12 11 C 12 11.552285 11.552285 12 11 12 C 10.447715 12 10 11.552285 10 11 C 10 10.447715 10.447715 10 11 10 z M 5 13 C 5.5522849 13 6 13.447715 6 14 C 6 14.552285 5.5522849 15 5 15 C 4.4477151 15 4 14.552285 4 14 C 4 13.447715 4.4477151 13 5 13 z M 8 13 C 8.5522848 13 9 13.447715 9 14 C 9 14.552285 8.5522848 15 8 15 C 7.4477152 15 7 14.552285 7 14 C 7 13.447715 7.4477152 13 8 13 z M 11 13 C 11.552285 13 12 13.447715 12 14 C 12 14.552285 11.552285 15 11 15 C 10.447715 15 10 14.552285 10 14 C 10 13.447715 10.447715 13 11 13 z "
     id="rect3012" /><rect
     style="fill:#bebebe;fill-opacity:1;stroke:none"
     id="rect3782"
     width="2"
     height="4"
     x="10"
     y="0"
     rx="0.99103594"
     ry="1" /></svg>