<?xml version="1.0" encoding="UTF-8" standalone="no"?>
<!-- Created with Inkscape (http://www.inkscape.org/) -->

<svg
   xmlns:dc="http://purl.org/dc/elements/1.1/"
   xmlns:cc="http://creativecommons.org/ns#"
   xmlns:rdf="http://www.w3.org/1999/02/22-rdf-syntax-ns#"
   xmlns:svg="http://www.w3.org/2000/svg"
   xmlns="http://www.w3.org/2000/svg"
   xmlns:xlink="http://www.w3.org/1999/xlink"
   xmlns:sodipodi="http://sodipodi.sourceforge.net/DTD/sodipodi-0.dtd"
   xmlns:inkscape="http://www.inkscape.org/namespaces/inkscape"
   width="48"
   height="48"
   id="svg4230"
   version="1.1"
   inkscape:version="0.91pre2 r"
   sodipodi:docname="text-editor.svg"
   inkscape:export-filename="/home/uri/text-editor.png"
   inkscape:export-xdpi="960"
   inkscape:export-ydpi="960">
  <defs
     id="defs4232">
    <linearGradient
       inkscape:collect="always"
       id="linearGradient4340">
      <stop
         style="stop-color:#44555a;stop-opacity:1;"
         offset="0"
         id="stop4342" />
      <stop
         style="stop-color:#44555a;stop-opacity:0;"
         offset="1"
         id="stop4344" />
    </linearGradient>
    <linearGradient
       inkscape:collect="always"
       id="linearGradient4309">
      <stop
         style="stop-color:#5b7580;stop-opacity:1"
         offset="0"
         id="stop4311" />
      <stop
         style="stop-color:#dbe2e5;stop-opacity:0"
         offset="1"
         id="stop4313" />
    </linearGradient>
    <linearGradient
       id="linearGradient4284"
       inkscape:collect="always">
      <stop
         id="stop4286"
         offset="0"
         style="stop-color:#78929d;stop-opacity:1" />
      <stop
         id="stop4288"
         offset="1"
         style="stop-color:#dbe2e5;stop-opacity:0;" />
    </linearGradient>
    <linearGradient
       inkscape:collect="always"
       id="linearGradient4272">
      <stop
         style="stop-color:#b6c4ca;stop-opacity:1"
         offset="0"
         id="stop4274" />
      <stop
         style="stop-color:#dbe2e5;stop-opacity:0;"
         offset="1"
         id="stop4276" />
    </linearGradient>
    <linearGradient
       id="linearGradient4198">
      <stop
         id="stop4200"
         offset="0"
         style="stop-color:#b46237;stop-opacity:1" />
      <stop
         id="stop4202"
         offset="1"
         style="stop-color:#be6c45;stop-opacity:1" />
    </linearGradient>
    <linearGradient
       id="linearGradient3874">
      <stop
         style="stop-color:#d9e0e3;stop-opacity:1"
         offset="0"
         id="stop3876" />
      <stop
         style="stop-color:#ecf1f3;stop-opacity:1"
         offset="1"
         id="stop3878" />
    </linearGradient>
    <linearGradient
       id="linearGradient4243">
      <stop
         style="stop-color:#000000;stop-opacity:1;"
         offset="0"
         id="stop4245" />
      <stop
         style="stop-color:#000000;stop-opacity:0;"
         offset="1"
         id="stop4247" />
    </linearGradient>
    <radialGradient
       inkscape:collect="always"
       xlink:href="#linearGradient4243"
       id="radialGradient4274"
       gradientUnits="userSpaceOnUse"
       gradientTransform="matrix(1.0434782,0,0,0.1956518,-1.0434797,35.184809)"
       cx="24.000001"
       cy="42.499991"
       fx="24.000001"
       fy="42.499991"
       r="23" />
    <linearGradient
       inkscape:collect="always"
       xlink:href="#linearGradient4198"
       id="linearGradient3880"
       x1="26"
       y1="46"
       x2="26"
       y2="2"
       gradientUnits="userSpaceOnUse" />
    <linearGradient
       inkscape:collect="always"
       xlink:href="#linearGradient3874"
       id="linearGradient4210"
       gradientUnits="userSpaceOnUse"
       gradientTransform="matrix(0.81818181,0,0,0.7568181,4.3636364,4.3363619)"
       x1="26"
       y1="46"
       x2="26"
       y2="2" />
    <linearGradient
       inkscape:collect="always"
       xlink:href="#linearGradient4272"
       id="linearGradient4278"
       x1="31"
       y1="34"
       x2="33.309402"
       y2="38"
       gradientUnits="userSpaceOnUse" />
    <linearGradient
       inkscape:collect="always"
       xlink:href="#linearGradient4284"
       id="linearGradient4282"
       gradientUnits="userSpaceOnUse"
       x1="41"
       y1="33"
       x2="38"
       y2="38.196152" />
    <linearGradient
       inkscape:collect="always"
       xlink:href="#linearGradient4284"
       id="linearGradient4292"
       gradientUnits="userSpaceOnUse"
       x1="35"
       y1="40"
       x2="35"
       y2="37" />
    <linearGradient
       inkscape:collect="always"
       xlink:href="#linearGradient4309"
       id="linearGradient4307"
       x1="38.823795"
       y1="35.599125"
       x2="39"
       y2="37"
       gradientUnits="userSpaceOnUse" />
    <linearGradient
       inkscape:collect="always"
       xlink:href="#linearGradient4284"
       id="linearGradient4315"
       gradientUnits="userSpaceOnUse"
       x1="35.411896"
       y1="36.854603"
       x2="35.748905"
       y2="40.482403" />
    <linearGradient
       inkscape:collect="always"
       xlink:href="#linearGradient4340"
       id="linearGradient4346"
       x1="36.645203"
       y1="40.586231"
       x2="33.513615"
       y2="35.162163"
       gradientUnits="userSpaceOnUse" />
  </defs>
  <sodipodi:namedview
     id="base"
     pagecolor="#ffffff"
     bordercolor="#666666"
     borderopacity="1.0"
     inkscape:pageopacity="0.0"
     inkscape:pageshadow="2"
     inkscape:zoom="4.0000002"
     inkscape:cx="60.031833"
     inkscape:cy="33.739911"
     inkscape:document-units="px"
     inkscape:current-layer="layer2"
     showgrid="false"
     inkscape:showpageshadow="false"
     borderlayer="true"
     inkscape:window-width="1366"
     inkscape:window-height="672"
     inkscape:window-x="-4"
     inkscape:window-y="25"
     inkscape:window-maximized="1"
     showguides="false">
    <inkscape:grid
       type="xygrid"
       id="grid4162" />
    <sodipodi:guide
       position="1.0000013,47.000017"
       orientation="46,0"
       id="guide4163" />
    <sodipodi:guide
       position="1.0000013,1.0000174"
       orientation="0,45.999999"
       id="guide4165" />
    <sodipodi:guide
       position="47,1.0000174"
       orientation="-46,0"
       id="guide4167" />
    <sodipodi:guide
       position="47,47.000017"
       orientation="0,-45.999999"
       id="guide4169" />
    <sodipodi:guide
       position="2.0000007,46.000017"
       orientation="44,0"
       id="guide4173" />
    <sodipodi:guide
       position="2.0000007,2.0000174"
       orientation="0,43.999999"
       id="guide4175" />
    <sodipodi:guide
       position="46,2.0000174"
       orientation="-44,0"
       id="guide4177" />
    <sodipodi:guide
       position="46,46.000017"
       orientation="0,-43.999999"
       id="guide4179" />
    <sodipodi:guide
       position="3,45.000017"
       orientation="42,0"
       id="guide4183" />
    <sodipodi:guide
       position="45,3.0000174"
       orientation="-42,0"
       id="guide4187" />
    <sodipodi:guide
       position="45,45.000017"
       orientation="0,-42"
       id="guide4189" />
    <sodipodi:guide
       position="3,45.000017"
       orientation="42,0"
       id="guide4193" />
    <sodipodi:guide
       position="3,3.0000174"
       orientation="0,42"
       id="guide4195" />
    <sodipodi:guide
       position="45,3.0000174"
       orientation="-42,0"
       id="guide4197" />
    <sodipodi:guide
       position="45,45.000017"
       orientation="0,-42"
       id="guide4199" />
    <sodipodi:guide
       position="3,10.000017"
       orientation="7,0"
       id="guide4203" />
    <sodipodi:guide
       position="3,3.0000174"
       orientation="0,42"
       id="guide4205" />
    <sodipodi:guide
       position="45,3.0000174"
       orientation="-7,0"
       id="guide4207" />
    <sodipodi:guide
       position="45,10.000017"
       orientation="0,-42"
       id="guide4209" />
  </sodipodi:namedview>
  <metadata
     id="metadata4235">
    <rdf:RDF>
      <cc:Work
         rdf:about="">
        <dc:format>image/svg+xml</dc:format>
        <dc:type
           rdf:resource="http://purl.org/dc/dcmitype/StillImage" />
        <dc:title />
      </cc:Work>
    </rdf:RDF>
  </metadata>
  <g
     inkscape:groupmode="layer"
     id="layer3"
     inkscape:label="Fake blur shadow"
     style="display:inline"
     sodipodi:insensitive="true">
    <path
       style="opacity:0.06000001;fill:#000000;fill-opacity:1;stroke:none"
       d="M 10,1 C 5.014,1 1,5.014 1,10 l 0,28 c 0,4.986 4.014,9 9,9 l 28,0 c 4.986,0 9,-4.014 9,-9 L 47,10 C 47,5.014 42.986,1 38,1 L 10,1 z m 0.5,0.5 27,0 c 4.986,0 9,4.014 9,9 l 0,27 c 0,4.986 -4.014,9 -9,9 l -27,0 c -4.986,0 -9,-4.014 -9,-9 l 0,-27 c 0,-4.986 4.014,-9 9,-9 z"
       id="rect3829"
       inkscape:connector-curvature="0" />
    <path
       style="opacity:0.12000002;fill:#000000;fill-opacity:1;stroke:none"
       d="m 10.5,1.5 c -4.986,0 -9,4.014 -9,9 l 0,27 c 0,4.986 4.014,9 9,9 l 27,0 c 4.986,0 9,-4.014 9,-9 l 0,-27 c 0,-4.986 -4.014,-9 -9,-9 l -27,0 z m 0.25,0.25 26.5,0 c 4.986,0 9,4.014 9,9 l 0,26.5 c 0,4.986 -4.014,9 -9,9 l -26.5,0 c -4.986,0 -9,-4.014 -9,-9 l 0,-26.5 c 0,-4.986 4.014,-9 9,-9 z"
       id="rect3827"
       inkscape:connector-curvature="0" />
    <rect
       style="opacity:0.23999999;fill:#000000;fill-opacity:1;stroke:none"
       id="rect3038-4"
       width="44.5"
       height="44.5"
       x="1.75"
       y="1.75"
       ry="9"
       rx="9" />
  </g>
  <g
     inkscape:groupmode="layer"
     id="layer6"
     inkscape:label="Blob"
     style="display:inline"
     sodipodi:insensitive="true">
    <path
       style="opacity:0.3;fill:url(#radialGradient4274);fill-opacity:1;stroke:none"
       d="M 1.03125,39 C 1.5192036,43.518898 5.3471961,47 10,47 l 28,0 c 4.652804,0 8.480796,-3.481102 8.96875,-8 l -45.9375,0 z"
       id="rect4241"
       inkscape:connector-curvature="0" />
  </g>
  <g
     inkscape:groupmode="layer"
     id="layer2"
     inkscape:label="Baseplate"
     style="display:inline">
    <rect
       style="fill:url(#linearGradient3880);fill-opacity:1.0;stroke:none"
       id="rect3038"
       width="44"
       height="44"
       x="2"
       y="1.9999826"
       ry="9"
       rx="9" />
    <rect
       rx="8.181818"
       ry="7.5681815"
       y="3.9999843"
       x="4"
       height="37.000008"
       width="40"
       id="rect4194"
       style="fill:#000000;fill-opacity:0.11764706;stroke:none" />
    <rect
       style="fill:#000000;fill-opacity:0.23529412;stroke:none"
       id="rect4204"
       width="38"
       height="35.14999"
       x="5"
       y="4.9249854"
       ry="7.189774"
       rx="7.772727" />
    <rect
       rx="7.363636"
       ry="6.8113608"
       y="5.8499823"
       x="6"
       height="33.299992"
       width="36"
       id="rect4208"
       style="fill:url(#linearGradient4210);fill-opacity:1;stroke:none" />
    <circle
       r="1.5000005"
       cy="14.500002"
       cx="10.499998"
       id="circle4221"
       style="color:#000000;text-decoration:none;text-decoration-line:none;text-decoration-style:solid;text-decoration-color:#000000;clip-rule:nonzero;display:inline;overflow:visible;visibility:visible;opacity:1;isolation:auto;mix-blend-mode:normal;color-interpolation:sRGB;color-interpolation-filters:linearRGB;solid-color:#000000;solid-opacity:1;fill:#7e472b;fill-opacity:1;fill-rule:nonzero;stroke:none;stroke-width:1;stroke-linecap:butt;stroke-linejoin:miter;stroke-miterlimit:4;stroke-dasharray:none;stroke-dashoffset:0;stroke-opacity:1;color-rendering:auto;image-rendering:auto;shape-rendering:auto;text-rendering:auto;enable-background:accumulate" />
    <path
       inkscape:connector-curvature="0"
       id="path4223"
       d="m 10.5,13 a 1.5,1.5 0 0 0 -1.5000003,1.5 1.5,1.5 0 0 0 0.04834,0.377926 A 1.5,1.5 0 0 1 10.5,13.75 1.5,1.5 0 0 1 11.951657,14.872074 1.5,1.5 0 0 0 12,14.5 1.5,1.5 0 0 0 10.5,13 Z"
       style="color:#000000;text-decoration:none;text-decoration-line:none;text-decoration-style:solid;text-decoration-color:#000000;clip-rule:nonzero;display:inline;overflow:visible;visibility:visible;opacity:1;isolation:auto;mix-blend-mode:normal;color-interpolation:sRGB;color-interpolation-filters:linearRGB;solid-color:#000000;solid-opacity:1;fill:#35464b;fill-opacity:0.39267016;fill-rule:nonzero;stroke:none;stroke-width:1;stroke-linecap:butt;stroke-linejoin:miter;stroke-miterlimit:4;stroke-dasharray:none;stroke-dashoffset:0;stroke-opacity:1;color-rendering:auto;image-rendering:auto;shape-rendering:auto;text-rendering:auto;enable-background:accumulate" />
    <circle
       style="color:#000000;text-decoration:none;text-decoration-line:none;text-decoration-style:solid;text-decoration-color:#000000;clip-rule:nonzero;display:inline;overflow:visible;visibility:visible;opacity:1;isolation:auto;mix-blend-mode:normal;color-interpolation:sRGB;color-interpolation-filters:linearRGB;solid-color:#000000;solid-opacity:1;fill:#7e472b;fill-opacity:1;fill-rule:nonzero;stroke:none;stroke-width:1;stroke-linecap:butt;stroke-linejoin:miter;stroke-miterlimit:4;stroke-dasharray:none;stroke-dashoffset:0;stroke-opacity:1;color-rendering:auto;image-rendering:auto;shape-rendering:auto;text-rendering:auto;enable-background:accumulate"
       id="circle4225"
       cx="10.499998"
       cy="22.499994"
       r="1.5000002" />
    <path
       style="color:#000000;text-decoration:none;text-decoration-line:none;text-decoration-style:solid;text-decoration-color:#000000;clip-rule:nonzero;display:inline;overflow:visible;visibility:visible;opacity:1;isolation:auto;mix-blend-mode:normal;color-interpolation:sRGB;color-interpolation-filters:linearRGB;solid-color:#000000;solid-opacity:1;fill:#35464b;fill-opacity:0.39267016;fill-rule:nonzero;stroke:none;stroke-width:1;stroke-linecap:butt;stroke-linejoin:miter;stroke-miterlimit:4;stroke-dasharray:none;stroke-dashoffset:0;stroke-opacity:1;color-rendering:auto;image-rendering:auto;shape-rendering:auto;text-rendering:auto;enable-background:accumulate"
       d="m 10.5,21.000001 a 1.4999998,1.4999998 0 0 0 -1.5,1.5 1.4999998,1.4999998 0 0 0 0.048342,0.377926 1.4999998,1.4999998 0 0 1 1.451658,-1.127926 1.4999998,1.4999998 0 0 1 1.45166,1.12207 1.4999998,1.4999998 0 0 0 0.04835,-0.37207 1.4999998,1.4999998 0 0 0 -1.5,-1.5 z"
       id="path4227"
       inkscape:connector-curvature="0" />
    <circle
       r="1.5000005"
       cy="30.499992"
       cx="10.499998"
       id="circle4229"
       style="color:#000000;text-decoration:none;text-decoration-line:none;text-decoration-style:solid;text-decoration-color:#000000;clip-rule:nonzero;display:inline;overflow:visible;visibility:visible;opacity:1;isolation:auto;mix-blend-mode:normal;color-interpolation:sRGB;color-interpolation-filters:linearRGB;solid-color:#000000;solid-opacity:1;fill:#7e472b;fill-opacity:1;fill-rule:nonzero;stroke:none;stroke-width:1;stroke-linecap:butt;stroke-linejoin:miter;stroke-miterlimit:4;stroke-dasharray:none;stroke-dashoffset:0;stroke-opacity:1;color-rendering:auto;image-rendering:auto;shape-rendering:auto;text-rendering:auto;enable-background:accumulate" />
    <path
       inkscape:connector-curvature="0"
       id="path4231"
       d="m 10.5,29 a 1.5,1.5 0 0 0 -1.5000003,1.5 1.5,1.5 0 0 0 0.04834,0.377926 A 1.5,1.5 0 0 1 10.5,29.75 1.5,1.5 0 0 1 11.951657,30.872069 1.5,1.5 0 0 0 12,30.5 1.5,1.5 0 0 0 10.5,29 Z"
       style="color:#000000;text-decoration:none;text-decoration-line:none;text-decoration-style:solid;text-decoration-color:#000000;clip-rule:nonzero;display:inline;overflow:visible;visibility:visible;opacity:1;isolation:auto;mix-blend-mode:normal;color-interpolation:sRGB;color-interpolation-filters:linearRGB;solid-color:#000000;solid-opacity:1;fill:#35464b;fill-opacity:0.39267016;fill-rule:nonzero;stroke:none;stroke-width:1;stroke-linecap:butt;stroke-linejoin:miter;stroke-miterlimit:4;stroke-dasharray:none;stroke-dashoffset:0;stroke-opacity:1;color-rendering:auto;image-rendering:auto;shape-rendering:auto;text-rendering:auto;enable-background:accumulate" />
    <path
       style="fill:#f3553d;fill-opacity:0.31372549;fill-rule:evenodd;stroke:none;stroke-width:1px;stroke-linecap:butt;stroke-linejoin:miter;stroke-opacity:1"
       d="m 14,5.8496094 0,33.3007816 0.5,0 0,-33.3007816 -0.5,0 z"
       id="path4235"
       inkscape:connector-curvature="0" />
    <path
       style="fill:#6eabf2;fill-opacity:0.39267015;fill-rule:evenodd;stroke:none;stroke-width:1px;stroke-linecap:butt;stroke-linejoin:miter;stroke-opacity:1"
       d="M 6.4804688 10.25 C 6.4134101 10.414506 6.3502981 10.579627 6.296875 10.75 L 41.703125 10.75 C 41.649702 10.579627 41.58659 10.414506 41.519531 10.25 L 6.4804688 10.25 z M 6 14.25 L 6 14.75 L 9.0214844 14.75 A 1.5000005 1.5000005 0 0 1 9 14.5 A 1.5000005 1.5000005 0 0 1 9.0214844 14.25 L 6 14.25 z M 11.978516 14.25 A 1.5000005 1.5000005 0 0 1 12 14.5 A 1.5000005 1.5000005 0 0 1 11.978516 14.75 L 42 14.75 L 42 14.25 L 11.978516 14.25 z M 6 18.25 L 6 18.75 L 42 18.75 L 42 18.25 L 6 18.25 z M 6 22.25 L 6 22.75 L 9.0214844 22.75 A 1.5000002 1.5000002 0 0 1 9 22.5 A 1.5000002 1.5000002 0 0 1 9.0214844 22.25 L 6 22.25 z M 11.978516 22.25 A 1.5000002 1.5000002 0 0 1 12 22.5 A 1.5000002 1.5000002 0 0 1 11.978516 22.75 L 42 22.75 L 42 22.25 L 11.978516 22.25 z M 6 26.25 L 6 26.75 L 42 26.75 L 42 26.25 L 6 26.25 z M 6 30.25 L 6 30.75 L 9.0214844 30.75 A 1.5000005 1.5000005 0 0 1 9 30.5 A 1.5000005 1.5000005 0 0 1 9.0214844 30.25 L 6 30.25 z M 11.978516 30.25 A 1.5000005 1.5000005 0 0 1 12 30.5 A 1.5000005 1.5000005 0 0 1 11.978516 30.75 L 42 30.75 L 42 30.25 L 11.978516 30.25 z M 6.296875 34.25 C 6.3502981 34.420373 6.41341 34.585494 6.4804688 34.75 L 41.519531 34.75 C 41.58659 34.585494 41.649702 34.420373 41.703125 34.25 L 6.296875 34.25 z "
       id="path4240" />
    <path
       style="fill:url(#linearGradient4278);fill-rule:evenodd;stroke:none;stroke-width:1px;stroke-linecap:butt;stroke-linejoin:miter;stroke-opacity:1;fill-opacity:1"
       d="M 41.429688 34.980469 C 35.873643 36.940001 18.124507 38.266652 10.875 38.746094 C 11.652915 39.003381 12.487414 39.150391 13.363281 39.150391 L 34.636719 39.150391 C 37.701953 39.150391 40.318268 37.434047 41.429688 34.980469 z "
       id="path4267" />
    <path
       id="path4280"
       d="M 41.429688 34.980469 C 35.873643 36.940001 18.124507 38.266652 10.875 38.746094 C 11.652915 39.003381 12.487414 39.150391 13.363281 39.150391 L 34.636719 39.150391 C 37.701953 39.150391 40.318268 37.434047 41.429688 34.980469 z "
       style="fill:url(#linearGradient4282);fill-rule:evenodd;stroke:none;stroke-width:1px;stroke-linecap:butt;stroke-linejoin:miter;stroke-opacity:1;fill-opacity:1" />
    <path
       style="fill:url(#linearGradient4292);fill-rule:evenodd;stroke:none;stroke-width:1px;stroke-linecap:butt;stroke-linejoin:miter;stroke-opacity:1;fill-opacity:1"
       d="M 41.429688 34.980469 C 35.873643 36.940001 18.124507 38.266652 10.875 38.746094 C 11.652915 39.003381 12.487414 39.150391 13.363281 39.150391 L 34.636719 39.150391 C 37.701953 39.150391 40.318268 37.434047 41.429688 34.980469 z "
       id="path4290" />
    <path
       id="path4294"
       d="m 41.429688,34.980469 c -5.319033,3.065587 -23.273667,3.433246 -30.554688,3.765625 0.777915,0.257287 1.612414,0.404297 2.488281,0.404297 l 21.273438,0 c 3.065234,0 5.681549,-1.716344 6.792969,-4.169922 z"
       style="fill:url(#linearGradient4315);fill-opacity:1;fill-rule:evenodd;stroke:none;stroke-width:1px;stroke-linecap:butt;stroke-linejoin:miter;stroke-opacity:1"
       inkscape:connector-curvature="0"
       sodipodi:nodetypes="ccssc" />
    <path
       style="fill:url(#linearGradient4307);fill-opacity:1;fill-rule:evenodd;stroke:none;stroke-width:1px;stroke-linecap:butt;stroke-linejoin:miter;stroke-opacity:1"
       d="m 41.429688,34.980469 c -3.491854,1.794434 -11.642079,2.904297 -19.001954,2.865234 11.091196,-0.518567 15.894068,-0.721871 17.488282,-0.773437 0.631881,-0.603244 1.156942,-1.304279 1.513672,-2.091797 z"
       id="path4296"
       inkscape:connector-curvature="0"
       sodipodi:nodetypes="cccc" />
    <path
       style="fill:#44555a;fill-rule:evenodd;stroke:none;stroke-width:1px;stroke-linecap:butt;stroke-linejoin:miter;stroke-opacity:1;fill-opacity:0.2565445"
       d="M 41.429688 34.980469 C 41.352093 35.007835 41.248304 35.033428 41.166016 35.060547 C 39.944085 37.24993 37.493767 38.75 34.636719 38.75 L 13.363281 38.75 C 12.948975 38.75 12.544574 38.714243 12.150391 38.652344 C 11.7817 38.677471 11.202843 38.724412 10.875 38.746094 C 11.652915 39.003381 12.487414 39.150391 13.363281 39.150391 L 34.636719 39.150391 C 37.701953 39.150391 40.318268 37.434047 41.429688 34.980469 z "
       id="path4317" />
    <path
       id="path4338"
       d="m 42.13,33.780082 c -0.07934,0.02737 -0.185543,0.05296 -0.269716,0.08008 -1.249936,2.189381 -3.756419,3.689451 -6.678947,3.689451 l -9.761023,0 c -0.423802,0 -0.837475,-0.03576 -1.240692,-0.09766 -0.377143,0.02513 -0.969265,0.07207 -1.304622,0.09375 C 23.670745,37.80299 24.52437,37.95 25.420314,37.95 l 9.761023,0 c 3.13549,0 5.811772,-1.716344 6.948663,-4.169918 z"
       style="fill:url(#linearGradient4346);fill-opacity:1;fill-rule:evenodd;stroke:none;stroke-width:1px;stroke-linecap:butt;stroke-linejoin:miter;stroke-opacity:1;opacity:0.44"
       inkscape:connector-curvature="0"
       sodipodi:nodetypes="ccssccssc" />
    <path
       style="fill:#333333;fill-opacity:1;fill-rule:nonzero;stroke:none"
       d="M 22.998047 14.6875 C 21.842193 14.6622 21.178174 15.328456 20.857422 16.318359 C 20.820252 16.433084 20.923696 16.534206 20.759766 16.675781 C 20.693296 16.925266 20.849135 16.954584 20.703125 17.349609 C 20.542894 17.526516 20.759839 17.465844 20.792969 17.533203 C 20.989222 17.602233 21.196803 17.744802 21.414062 17.199219 C 21.760406 16.017956 22.62499 15.280569 24.330078 15.646484 C 24.632257 15.711364 24.928259 15.825899 25.220703 15.964844 C 25.395653 16.036314 25.327668 15.864373 25.376953 15.818359 C 25.397313 15.768359 25.445094 15.727109 25.494141 15.6875 C 25.773369 15.566744 25.41153 15.522904 25.365234 15.429688 C 25.095337 15.281493 24.821991 15.146634 24.541016 15.037109 C 23.949926 14.806841 23.438777 14.697144 22.998047 14.6875 z M 28.183594 17.703125 C 28.147829 17.700007 28.120133 17.719688 28.103516 17.777344 C 27.795899 17.890993 28.105822 18.056923 28.107422 18.191406 C 28.523862 18.597938 28.941376 19.009189 29.316406 19.384766 C 30.509647 20.580187 32.1345 22.378212 32.607422 24.058594 C 32.601822 24.061794 32.593591 24.063306 32.587891 24.066406 C 32.689035 24.263749 32.765584 24.464614 32.816406 24.666016 C 32.871906 24.893552 32.894172 25.120243 32.882812 25.341797 C 33.009574 25.454305 33.175379 25.509119 33.193359 25.339844 C 33.201159 25.268354 33.198772 25.195517 33.201172 25.123047 C 33.237292 25.127447 33.274512 25.135762 33.310547 25.138672 C 33.322634 25.139688 33.32205 25.12972 33.332031 25.128906 C 33.383725 27.172773 32.65433 28.872842 30.234375 28.353516 C 28.872746 28.061144 27.646572 26.962005 26.509766 25.839844 C 26.453648 25.758945 26.385461 25.681906 26.339844 25.597656 C 26.229658 25.390988 26.153304 25.176437 26.109375 24.958984 C 26.068615 24.938004 26.042381 24.944674 26.019531 24.958984 C 25.996681 24.973294 25.975382 24.994613 25.945312 25.001953 C 25.919792 25.008153 25.883066 24.998494 25.853516 24.996094 C 25.823966 24.993794 25.802974 24.998489 25.808594 25.037109 C 25.812594 25.064689 25.818199 25.091871 25.824219 25.119141 C 25.833819 25.162251 25.843966 25.20663 25.853516 25.25 C 25.817436 25.2547 25.779766 25.257602 25.744141 25.263672 C 25.507972 25.303412 25.77336 25.598243 25.972656 25.662109 C 25.974556 25.667309 25.974563 25.672194 25.976562 25.677734 C 25.915433 25.740154 25.874113 25.821147 25.833984 25.902344 C 25.944207 25.970648 26.03276 26.032616 26.138672 26.099609 A 4.3310289 4.4194174 0 0 1 26.113281 26.119141 C 27.311088 27.296794 28.580496 28.400424 30.023438 28.962891 C 34.752159 30.805036 34.411065 24.94167 33.121094 21.714844 C 33.025154 21.474784 32.506805 21.255714 32.632812 21.601562 C 32.926049 22.407452 33.151893 23.353507 33.261719 24.285156 C 33.030647 23.9079 32.824776 23.483725 32.675781 23.023438 C 32.048449 21.73076 30.975582 20.473056 30.058594 19.484375 C 29.579534 18.9679 29.069174 18.448318 28.546875 17.9375 C 28.492575 17.9359 28.396934 17.834505 28.306641 17.765625 C 28.262686 17.73209 28.219358 17.706243 28.183594 17.703125 z M 22.861328 21.677734 C 22.810947 21.673238 22.772459 21.686176 22.798828 21.744141 C 23.090091 22.385615 23.145375 23.055842 23.203125 23.726562 C 23.066677 23.753412 22.928064 23.775941 22.792969 23.806641 C 22.742299 23.817971 22.842634 23.883309 22.871094 23.880859 C 22.983509 23.871759 23.097274 23.861526 23.212891 23.853516 C 23.221091 23.944496 23.232778 24.036299 23.242188 24.126953 C 22.995064 24.203203 22.844493 24.266094 22.857422 24.304688 C 22.843692 24.263078 22.686675 24.187427 22.697266 24.240234 C 22.702166 24.265774 22.707981 24.290866 22.712891 24.316406 C 22.723401 24.368916 22.805343 24.432671 22.861328 24.421875 C 22.995884 24.395205 23.12938 24.364807 23.263672 24.335938 C 23.299982 24.633232 23.351838 24.928743 23.439453 25.220703 C 23.454653 25.272603 23.661129 25.397946 23.660156 25.308594 C 23.655856 24.966492 23.64705 24.612959 23.625 24.257812 C 24.847828 23.985802 26.058085 23.670618 27.294922 23.447266 C 27.427549 23.423046 27.151434 23.246025 27.056641 23.261719 C 26.925119 23.284019 26.790397 23.289139 26.654297 23.287109 C 26.639257 23.249079 26.541382 23.201921 26.507812 23.207031 C 26.414062 23.221801 26.31882 23.233807 26.224609 23.248047 C 25.083313 23.054012 23.877206 22.225044 22.992188 21.714844 C 22.973627 21.704124 22.911709 21.682231 22.861328 21.677734 z M 23.183594 22.007812 C 23.967788 22.472559 24.869601 23.035931 25.791016 23.3125 C 25.051892 23.41802 24.304514 23.519997 23.570312 23.652344 C 23.504732 23.084014 23.387485 22.524846 23.183594 22.007812 z M 24.998047 23.689453 C 24.499079 23.800181 23.999387 23.919058 23.607422 24.023438 C 23.602322 23.957497 23.594541 23.892009 23.587891 23.826172 C 24.05275 23.792202 24.528128 23.751634 24.998047 23.689453 z M 33.287109 24.587891 C 33.293398 24.660386 33.300144 24.732714 33.304688 24.804688 C 33.268769 24.761508 33.229886 24.720701 33.189453 24.695312 C 33.188948 24.689812 33.190033 24.685517 33.189453 24.679688 C 33.227002 24.656912 33.255336 24.619736 33.287109 24.587891 z "
       id="path4362" />
    <path
       style="fill:#848484;fill-opacity:0.34031415;fill-rule:nonzero;stroke:none"
       d="m 22.998047,14.8875 c -1.155854,-0.0253 -1.819873,0.640956 -2.140625,1.630859 -0.03717,0.114725 0.06627,0.215847 -0.09766,0.357422 -0.06647,0.249485 0.08937,0.278803 -0.05664,0.673828 -0.160231,0.176907 0.05671,0.116235 0.08984,0.183594 0.196253,0.06903 0.403834,0.211599 0.621093,-0.333984 0.346344,-1.181263 1.210928,-1.91865 2.916016,-1.552735 0.302179,0.06488 0.598181,0.179415 0.890625,0.31836 0.17495,0.07147 0.106965,-0.100471 0.15625,-0.146485 0.02036,-0.05 0.06814,-0.09125 0.117188,-0.130859 0.279228,-0.120756 -0.08261,-0.164597 -0.128907,-0.257812 C 25.09533,15.481492 24.821984,15.346634 24.541009,15.237109 23.949919,15.006841 23.43877,14.897144 22.99804,14.8875 Z m 3.447265,0.722656 c -0.02213,-0.0081 -0.03765,-0.0028 -0.04492,0.0078 -0.240008,-0.02547 -0.469128,0.01795 -0.646485,0.169922 -0.175397,0.109463 -0.299574,0.29782 -0.304687,0.513671 -0.01425,0.603421 0.4207,1.039856 0.921875,1.353516 0.07815,0.07661 0.154666,0.156087 0.238281,0.22461 0.06924,0.08915 0.144495,0.17271 0.226563,0.25 0.196754,0.185047 0.517357,0.371821 0.796874,0.267578 0.03103,-0.01159 0.06147,-0.02333 0.08984,-0.03711 0.06693,-0.0165 0.132909,-0.04402 0.197266,-0.08594 0.03333,-0.02177 0.05196,-0.05577 0.08008,-0.08203 0.04105,0.06736 0.106682,0.137031 0.107422,0.199218 0.41644,0.406532 0.833954,0.817783 1.208984,1.19336 1.193241,1.195421 2.818094,2.993446 3.291016,4.673828 -0.0056,0.0032 -0.01383,0.0047 -0.01953,0.0078 0.101144,0.197343 0.177693,0.398208 0.228515,0.59961 0.0555,0.227536 0.07777,0.454227 0.06641,0.675781 0.126762,0.112508 0.292567,0.167322 0.310547,-0.002 0.0078,-0.07149 0.0054,-0.144327 0.0078,-0.216797 0.03612,0.0044 0.07334,0.01272 0.109375,0.01563 0.01209,0.001 0.0115,-0.009 0.02148,-0.0098 0.05169,2.043867 -0.677701,3.743936 -3.097656,3.22461 -1.361629,-0.292372 -2.587803,-1.391511 -3.724609,-2.513672 -0.05612,-0.0809 -0.124305,-0.157938 -0.169922,-0.242188 -0.110186,-0.206668 -0.18654,-0.421219 -0.230469,-0.638672 -0.04076,-0.02098 -0.06699,-0.01431 -0.08984,0 -0.02285,0.01431 -0.04415,0.03563 -0.07422,0.04297 -0.02552,0.0062 -0.06225,-0.0035 -0.0918,-0.0059 -0.02955,-0.0023 -0.05054,0.0024 -0.04492,0.04101 0.004,0.02758 0.0096,0.05476 0.01563,0.08203 0.0096,0.04311 0.01975,0.08749 0.0293,0.130859 -0.03608,0.0047 -0.07375,0.0076 -0.109375,0.01367 -0.236169,0.03974 0.02922,0.334571 0.228515,0.398437 0.0019,0.0052 0.0019,0.01009 0.0039,0.01563 -0.06113,0.06242 -0.102449,0.143413 -0.142578,0.22461 0.110223,0.0683 0.198776,0.130272 0.304688,0.197265 a 4.3310289,4.4194174 0 0 1 -0.02539,0.01953 c 1.197807,1.177653 2.467215,2.281283 3.910157,2.84375 4.728721,1.842145 4.387627,-4.021221 3.097656,-7.248047 -0.09594,-0.24006 -0.614289,-0.45913 -0.488282,-0.113282 0.293237,0.80589 0.519081,1.751945 0.628907,2.683594 C 33.030647,24.1079 32.824776,23.683725 32.675781,23.223438 32.048449,21.93076 30.975582,20.673056 30.058594,19.684375 29.579534,19.1679 29.069174,18.648318 28.546875,18.1375 c -0.0543,-0.0016 -0.149941,-0.102995 -0.240234,-0.171875 -0.04173,-0.03184 -0.08253,-0.05348 -0.117188,-0.05859 0.08367,-0.222157 0.09213,-0.478528 0.02734,-0.699219 -0.01329,-0.04524 -0.03145,-0.09031 -0.05078,-0.134765 -0.05859,-0.218215 -0.15803,-0.426604 -0.283204,-0.59375 -0.06852,-0.09153 -0.155955,-0.188622 -0.257812,-0.283203 -0.0021,-0.0076 -0.0093,-0.01503 -0.02148,-0.01953 0,0 -0.002,-0.002 -0.002,-0.002 -0.04597,-0.04161 -0.09387,-0.08172 -0.144531,-0.121093 -0.0605,-0.06242 -0.123636,-0.124389 -0.201172,-0.164063 -0.117883,-0.06027 -0.247799,-0.10036 -0.361328,-0.167969 -0.016,-0.0096 -0.02766,-0.0048 -0.03711,0 -0.0091,-0.0033 -0.016,-0.01093 -0.02539,-0.01367 -0.127108,-0.03704 -0.262507,-0.05259 -0.386719,-0.09766 z m -0.255859,0.154297 c -0.0024,0.0014 -0.0054,5.61e-4 -0.0078,0.002 -0.192842,0.07455 -0.348947,0.236221 -0.394532,0.447266 -0.05991,0.277484 -1.14e-4,0.534174 0.107422,0.77539 -0.01509,0.0057 -0.02525,0.01667 -0.0098,0.03516 0.01462,0.01747 0.03029,0.03511 0.04492,0.05273 0.0355,0.06849 0.07843,0.132423 0.123046,0.197266 -0.340432,-0.329684 -0.552932,-0.896016 -0.349609,-1.285157 0.02002,-0.03834 0.04443,-0.07212 0.07031,-0.101562 0.113993,-0.08034 0.261433,-0.113919 0.416015,-0.123047 z m 0.263672,0.04297 c 0.09614,-0.0047 0.196482,0.0061 0.294922,0.0332 0.146049,0.04017 0.286862,0.08936 0.425781,0.148437 0.18587,0.142079 0.354157,0.316567 0.490234,0.486329 0.102157,0.127501 0.186875,0.248067 0.251954,0.373047 0.153217,0.413039 0.137147,0.888757 -0.259766,1.15039 -0.009,0.0059 -0.01835,0.01031 -0.02734,0.01563 -0.193379,0.05715 -0.427418,-0.02207 -0.601562,-0.0918 -0.130762,-0.05239 -0.264777,-0.112403 -0.394532,-0.18164 -0.02754,-0.02482 -0.04935,-0.05407 -0.07617,-0.08008 -0.162025,-0.246722 -0.303294,-0.50299 -0.404297,-0.667969 -0.01931,-0.0315 -0.100459,-0.03538 -0.07422,0.01172 0.06905,0.124159 0.139155,0.252683 0.210937,0.378906 -0.04193,-0.04767 -0.07497,-0.08389 -0.113281,-0.128906 -0.256467,-0.388696 -0.346021,-0.965461 -0.08008,-1.300782 0.02687,-0.03389 0.05499,-0.06189 0.08594,-0.08594 0.08184,-0.03703 0.175344,-0.05586 0.271484,-0.06055 z M 28.125,17.522266 c -0.01507,0.330043 -0.154431,0.633928 -0.490234,0.773437 -0.0099,0.0041 -0.01947,0.0082 -0.0293,0.01172 -0.200673,0.01979 -0.41628,-0.101913 -0.574219,-0.203125 -0.04359,-0.02795 -0.08545,-0.06353 -0.128906,-0.09375 0.226833,0.129344 0.536063,0.23289 0.771484,0.08984 0.0283,-0.01722 0.0548,-0.03583 0.08008,-0.05469 0.06264,-0.02878 0.1224,-0.06979 0.177735,-0.123047 0.113487,-0.109539 0.165817,-0.251635 0.193359,-0.40039 z m -1.240234,0.414062 c 0.06633,0.02974 0.131617,0.05842 0.195312,0.08398 0.09149,0.03672 0.184478,0.06371 0.277344,0.07617 -0.159152,0.0046 -0.318227,-0.05999 -0.472656,-0.160156 z m 0.0039,0.154297 c 0.05956,0.04167 0.119977,0.08011 0.177734,0.117187 0.08296,0.05326 0.168943,0.09727 0.257813,0.126954 -0.157181,-0.02539 -0.302692,-0.116739 -0.435547,-0.244141 z m -4.027344,3.787109 c -0.05038,-0.0045 -0.08887,0.0084 -0.0625,0.06641 0.291263,0.641474 0.346547,1.311701 0.404297,1.982421 -0.136448,0.02685 -0.275061,0.04938 -0.410156,0.08008 -0.05067,0.01133 0.04967,0.07667 0.07813,0.07422 0.112415,-0.0091 0.22618,-0.01933 0.341797,-0.02734 0.0082,0.09098 0.01989,0.182783 0.0293,0.273437 -0.247124,0.07625 -0.397695,0.13914 -0.384766,0.177735 -0.01373,-0.04161 -0.170747,-0.117261 -0.160156,-0.06445 0.0049,0.02554 0.01072,0.05063 0.01563,0.07617 0.01051,0.05251 0.09245,0.116265 0.148437,0.105469 0.134556,-0.02667 0.268052,-0.05707 0.402344,-0.08594 0.03631,0.297294 0.08817,0.592805 0.175781,0.884765 0.0152,0.0519 0.221676,0.177243 0.220703,0.08789 -0.0043,-0.342102 -0.01311,-0.695635 -0.03516,-1.050782 1.222828,-0.27201 2.433085,-0.587194 3.669922,-0.810546 0.132627,-0.02422 -0.143488,-0.201241 -0.238281,-0.185547 -0.131522,0.0223 -0.266244,0.02742 -0.402344,0.02539 -0.01504,-0.03803 -0.112915,-0.08519 -0.146485,-0.08008 -0.09375,0.01477 -0.188992,0.02678 -0.283203,0.04102 -1.141296,-0.194035 -2.347404,-1.023003 -3.232421,-1.533203 -0.01856,-0.01072 -0.08048,-0.03261 -0.13086,-0.03711 z m 0.322266,0.330078 c 0.784194,0.464747 1.686007,1.028119 2.607422,1.304688 -0.739124,0.10552 -1.486501,0.207497 -2.220704,0.339844 -0.06558,-0.56833 -0.182827,-1.127498 -0.386718,-1.644532 z m 1.814453,1.681641 c -0.498968,0.110728 -0.99866,0.229605 -1.390625,0.333985 -0.0051,-0.06594 -0.01288,-0.131429 -0.01953,-0.197266 0.464859,-0.03397 0.940237,-0.07454 1.410156,-0.136719 z m 8.289062,0.898438 c 0.0063,0.07249 0.01304,0.144823 0.01758,0.216797 -0.03592,-0.04318 -0.0748,-0.08399 -0.115235,-0.109376 -5.05e-4,-0.0055 5.8e-4,-0.0098 0,-0.01562 0.03755,-0.02278 0.06588,-0.05995 0.09766,-0.0918 z"
       id="path4437"
       inkscape:connector-curvature="0" />
    <path
       inkscape:connector-curvature="0"
       id="path60"
       style="fill:#35cbc4;fill-opacity:1;fill-rule:nonzero;stroke:none"
       d="m 27.026547,17.723509 c -0.130762,-0.05239 -0.263576,-0.11309 -0.39333,-0.182327 -0.273961,-0.246968 -0.514941,-0.56273 -0.678769,-0.74273 -0.02489,-0.02731 -0.104444,-0.01616 -0.06982,0.02517 0.113761,0.136 0.227549,0.277327 0.347268,0.413627 -0.445657,-0.267708 -0.767263,-0.99205 -0.528682,-1.448671 0.02002,-0.03834 0.04381,-0.07106 0.06969,-0.100498 0.146843,-0.103486 0.345833,-0.150511 0.549381,-0.134326 0.188436,0.01499 0.37575,0.02683 0.558036,0.08207 0.08589,0.0261 0.153354,0.0682 0.229255,0.09847 0.213896,0.148065 0.401407,0.351378 0.553794,0.541487 0.102157,0.127501 0.188379,0.247103 0.253458,0.372083 0.153217,0.413039 0.136573,0.889533 -0.26034,1.151166 -0.009,0.0059 -0.01799,0.0105 -0.02698,0.01581 -0.193379,0.05715 -0.428826,-0.0216 -0.60297,-0.09133 z m -0.142072,0.01357 c 0.06633,0.02974 0.131852,0.05758 0.195547,0.08314 0.09149,0.03672 0.18522,0.06346 0.278086,0.07592 -0.159152,0.0046 -0.319204,-0.05889 -0.473633,-0.159057 z m -0.62034,-0.426301 c 0.01786,0.0081 0.03589,0.01579 0.05432,0.0229 0.01382,0.01494 0.02768,0.02974 0.04163,0.04435 -0.03249,-0.02172 -0.06445,-0.04419 -0.09595,-0.06726 z m 1.489195,0.534337 c 0.06264,-0.02878 0.122372,-0.06846 0.177707,-0.121721 0.29405,-0.28382 0.265272,-0.764961 0.09157,-1.103061 -0.02156,-0.04194 -0.04693,-0.0828 -0.07426,-0.122827 -0.09855,-0.203318 -0.235786,-0.388995 -0.390139,-0.529641 -0.0845,-0.07702 -0.189615,-0.156383 -0.30743,-0.230138 -0.0035,-0.0071 -0.01099,-0.01343 -0.02387,-0.01555 -9.06e-4,-1.22e-4 -0.0018,-4.76e-4 -0.0026,-5.59e-4 -0.05297,-0.03223 -0.108142,-0.06343 -0.165308,-0.09258 -0.07115,-0.04994 -0.143876,-0.09724 -0.227486,-0.121637 -0.127108,-0.03704 -0.262962,-0.05205 -0.387173,-0.09712 -0.02213,-0.0081 -0.0375,-0.0023 -0.04477,0.0083 -0.240008,-0.02547 -0.46923,0.01639 -0.646587,0.168364 -0.175397,0.109463 -0.297787,0.29779 -0.3029,0.513642 -0.01615,0.683825 0.537835,1.165181 1.119885,1.481253 0.08476,0.07455 0.173921,0.1433 0.269051,0.203791 0.228023,0.144777 0.579531,0.268725 0.83448,0.113813 0.0283,-0.01722 0.05458,-0.03544 0.07986,-0.0543" />
    <path
       d="m 27.031207,17.903636 c -0.118587,-0.07603 -0.237628,-0.160605 -0.35206,-0.252992 -0.222671,-0.29405 -0.400021,-0.649471 -0.527105,-0.85705 -0.01931,-0.0315 -0.09955,-0.0355 -0.07331,0.0116 0.08618,0.154955 0.171381,0.315147 0.263354,0.471516 -0.387411,-0.346686 -0.567171,-1.118559 -0.247033,-1.522212 0.02687,-0.03389 0.05638,-0.06156 0.08733,-0.08561 0.163673,-0.07405 0.367955,-0.08284 0.564835,-0.0287 0.182263,0.05013 0.364015,0.09696 0.532673,0.185473 0.07945,0.04177 0.137806,0.0958 0.206666,0.139796 0.182262,0.185622 0.328226,0.42055 0.442173,0.635908 0.07638,0.144427 0.138589,0.278101 0.179022,0.413083 0.07287,0.434473 -0.03302,0.899351 -0.472026,1.081736 -0.0099,0.0041 -0.01964,0.0069 -0.02947,0.01046 -0.200673,0.01979 -0.417127,-0.101799 -0.575066,-0.203011 z m -0.142091,-0.01337 c 0.05956,0.04167 0.118683,0.08133 0.17644,0.118405 0.08296,0.05326 0.169995,0.09714 0.258865,0.126825 -0.157181,-0.02539 -0.30245,-0.117825 -0.435305,-0.245227 z m -0.529179,-0.535279 c 0.01602,0.01131 0.03228,0.02225 0.04905,0.0327 0.01077,0.01727 0.0216,0.03441 0.03255,0.05138 -0.02783,-0.02744 -0.055,-0.05551 -0.0816,-0.08409 z m 1.362254,0.804663 c 0.06693,-0.0165 0.133057,-0.04424 0.197414,-0.08616 0.342147,-0.223507 0.404296,-0.701484 0.297223,-1.066202 -0.01329,-0.04524 -0.03053,-0.09014 -0.04986,-0.134594 -0.05859,-0.218215 -0.158487,-0.426373 -0.28366,-0.593519 -0.06852,-0.09153 -0.15685,-0.189229 -0.258707,-0.28381 -0.0021,-0.0076 -0.0083,-0.01526 -0.02052,-0.01976 -8.67e-4,-2.9e-4 -0.0017,-8.06e-4 -0.0024,-10e-4 -0.04597,-0.04161 -0.0943,-0.08262 -0.144965,-0.121995 -0.0605,-0.06242 -0.12304,-0.122544 -0.200576,-0.162218 -0.117883,-0.06027 -0.248496,-0.100538 -0.362025,-0.168147 -0.02021,-0.01211 -0.0364,-0.0093 -0.04553,-2.61e-4 -0.230946,-0.07012 -0.463951,-0.07208 -0.666707,0.04386 -0.192842,0.07455 -0.348441,0.236526 -0.394026,0.447571 -0.144364,0.668608 0.309296,1.245492 0.821581,1.66531 0.06924,0.08915 0.143895,0.17343 0.225962,0.25072 0.196755,0.185047 0.518709,0.372842 0.798227,0.268599 0.03103,-0.01159 0.06027,-0.02455 0.08864,-0.03833"
       style="fill:#35cbc4;fill-opacity:1;fill-rule:nonzero;stroke:none"
       id="path4435"
       inkscape:connector-curvature="0" />
  </g>
  <g
     inkscape:label="Symbol"
     inkscape:groupmode="layer"
     id="layer1"
     transform="translate(0,-1004.3622)"
     style="display:inline">
    <path
       style="fill:#000000"
       d=""
       id="path906"
       inkscape:connector-curvature="0" />
    <g
       id="g3963"
       transform="translate(0,1003.3644)" />
  </g>
  <g
     inkscape:groupmode="layer"
     id="layer4"
     inkscape:label="Inset"
     sodipodi:insensitive="true"
     style="display:inline">
    <path
       style="opacity:0.15;fill:#000000;fill-opacity:1;stroke:none"
       d="m 2,34 0,3 c 0,4.986 4.014,9 9,9 l 26,0 c 4.986,0 9,-4.014 9,-9 l 0,-3 c 0,4.986 -4.014,9 -9,9 L 11,43 C 6.014,43 2,38.986 2,34 z"
       id="rect3038-42"
       inkscape:connector-curvature="0" />
  </g>
  <g
     inkscape:groupmode="layer"
     id="layer7"
     inkscape:label="Baseshape"
     sodipodi:insensitive="true"
     style="display:none">
    <rect
       rx="9"
       ry="9"
       y="2"
       x="2"
       height="44"
       width="44"
       id="rect4169"
       style="fill:#abe1ad;fill-opacity:1;stroke:none;display:inline" />
  </g>
</svg>
