<?xml version="1.0" encoding="UTF-8" standalone="no"?>
<!-- Created with Inkscape (http://www.inkscape.org/) -->

<svg
   xmlns:dc="http://purl.org/dc/elements/1.1/"
   xmlns:cc="http://creativecommons.org/ns#"
   xmlns:rdf="http://www.w3.org/1999/02/22-rdf-syntax-ns#"
   xmlns:svg="http://www.w3.org/2000/svg"
   xmlns="http://www.w3.org/2000/svg"
   xmlns:xlink="http://www.w3.org/1999/xlink"
   xmlns:sodipodi="http://sodipodi.sourceforge.net/DTD/sodipodi-0.dtd"
   xmlns:inkscape="http://www.inkscape.org/namespaces/inkscape"
   width="48"
   height="48"
   id="svg4230"
   version="1.1"
   inkscape:version="0.48.5 r10040"
   sodipodi:docname="instalator-paket.svg"
   inkscape:export-filename="/home/uri/disks.png"
   inkscape:export-xdpi="960"
   inkscape:export-ydpi="960">
  <defs
     id="defs4232">
    <linearGradient
       id="linearGradient3871">
      <stop
         style="stop-color:#a96931;stop-opacity:1;"
         offset="0"
         id="stop3873" />
      <stop
         style="stop-color:#dfb45e;stop-opacity:1;"
         offset="1"
         id="stop3875" />
    </linearGradient>
    <linearGradient
       id="linearGradient3859">
      <stop
         style="stop-color:#824319;stop-opacity:1;"
         offset="0"
         id="stop3861" />
      <stop
         style="stop-color:#c78c3d;stop-opacity:1;"
         offset="1"
         id="stop3863" />
    </linearGradient>
    <linearGradient
       id="linearGradient3882">
      <stop
         id="stop3884"
         offset="0"
         style="stop-color:#aaaaaa;stop-opacity:1;" />
      <stop
         id="stop3886"
         offset="1"
         style="stop-color:#d6d6d6;stop-opacity:1;" />
    </linearGradient>
    <linearGradient
       id="linearGradient4932">
      <stop
         style="stop-color:#b07237;stop-opacity:1;"
         offset="0"
         id="stop4934" />
      <stop
         style="stop-color:#e2ba63;stop-opacity:1;"
         offset="1"
         id="stop4936" />
    </linearGradient>
    <linearGradient
       id="linearGradient4315"
       inkscape:collect="always">
      <stop
         id="stop4317"
         offset="0"
         style="stop-color:#232323;stop-opacity:1" />
      <stop
         id="stop4319"
         offset="1"
         style="stop-color:#010101;stop-opacity:1" />
    </linearGradient>
    <linearGradient
       id="linearGradient4083">
      <stop
         id="stop4085"
         offset="0"
         style="stop-color:#aaa9aa;stop-opacity:1" />
      <stop
         id="stop4087"
         offset="1"
         style="stop-color:#d4d4d2;stop-opacity:1" />
    </linearGradient>
    <linearGradient
       id="linearGradient4243">
      <stop
         style="stop-color:#000000;stop-opacity:1;"
         offset="0"
         id="stop4245" />
      <stop
         style="stop-color:#000000;stop-opacity:0;"
         offset="1"
         id="stop4247" />
    </linearGradient>
    <radialGradient
       inkscape:collect="always"
       xlink:href="#linearGradient4243"
       id="radialGradient4274"
       gradientUnits="userSpaceOnUse"
       gradientTransform="matrix(1.0434782,0,0,0.1956518,-1.0434797,35.184809)"
       cx="24.000001"
       cy="42.499991"
       fx="24.000001"
       fy="42.499991"
       r="23" />
    <linearGradient
       inkscape:collect="always"
       xlink:href="#linearGradient4932"
       id="linearGradient3880"
       x1="26"
       y1="46"
       x2="26"
       y2="2"
       gradientUnits="userSpaceOnUse" />
    <linearGradient
       inkscape:collect="always"
       xlink:href="#linearGradient4315"
       id="linearGradient4294"
       gradientUnits="userSpaceOnUse"
       gradientTransform="matrix(-1,0,0,1,55,11)"
       x1="23"
       y1="43"
       x2="23"
       y2="38" />
    <linearGradient
       inkscape:collect="always"
       xlink:href="#linearGradient4315"
       id="linearGradient4309"
       gradientUnits="userSpaceOnUse"
       gradientTransform="matrix(-1,0,0,1,37,11)"
       x1="23"
       y1="43"
       x2="23"
       y2="38" />
    <linearGradient
       id="linearGradient3951">
      <stop
         id="stop3953"
         offset="0"
         style="stop-color:#d4d4d3;stop-opacity:1;" />
      <stop
         id="stop3955"
         offset="1"
         style="stop-color:#f7f7f7;stop-opacity:1;" />
    </linearGradient>
    <linearGradient
       id="linearGradient4102">
      <stop
         style="stop-color:#e9ba39;stop-opacity:1;"
         offset="0"
         id="stop4104" />
      <stop
         style="stop-color:#f5d34e;stop-opacity:1;"
         offset="1"
         id="stop4106" />
    </linearGradient>
    <linearGradient
       inkscape:collect="always"
       xlink:href="#linearGradient3882-0"
       id="linearGradient3888-4"
       gradientUnits="userSpaceOnUse"
       x1="26"
       y1="46"
       x2="26"
       y2="2" />
    <linearGradient
       id="linearGradient3882-0">
      <stop
         id="stop3884-2"
         offset="0"
         style="stop-color:#aaaaaa;stop-opacity:1;" />
      <stop
         id="stop3886-1"
         offset="1"
         style="stop-color:#d6d6d6;stop-opacity:1;" />
    </linearGradient>
    <linearGradient
       gradientTransform="translate(50,1001.3622)"
       y2="2"
       x2="26"
       y1="46"
       x1="26"
       gradientUnits="userSpaceOnUse"
       id="linearGradient3905"
       xlink:href="#linearGradient3882-0"
       inkscape:collect="always" />
    <linearGradient
       inkscape:collect="always"
       xlink:href="#linearGradient4932-9"
       id="linearGradient3880-3"
       x1="26"
       y1="46"
       x2="26"
       y2="2"
       gradientUnits="userSpaceOnUse" />
    <linearGradient
       id="linearGradient4932-9">
      <stop
         style="stop-color:#2e80a4;stop-opacity:1;"
         offset="0"
         id="stop4934-7" />
      <stop
         style="stop-color:#60afdc;stop-opacity:1;"
         offset="1"
         id="stop4936-2" />
    </linearGradient>
    <linearGradient
       inkscape:collect="always"
       xlink:href="#linearGradient3882-0"
       id="linearGradient3992"
       gradientUnits="userSpaceOnUse"
       gradientTransform="translate(0,-1003.3622)"
       x1="24"
       y1="1050.3622"
       x2="24"
       y2="1034.3622" />
    <linearGradient
       inkscape:collect="always"
       xlink:href="#linearGradient3882-0"
       id="linearGradient3996"
       gradientUnits="userSpaceOnUse"
       gradientTransform="translate(0,2)"
       x1="24"
       y1="1050.3622"
       x2="24"
       y2="1034.3622" />
    <linearGradient
       inkscape:collect="always"
       xlink:href="#linearGradient4932-3"
       id="linearGradient3880-6"
       x1="26"
       y1="46"
       x2="26"
       y2="2"
       gradientUnits="userSpaceOnUse" />
    <linearGradient
       id="linearGradient4932-3">
      <stop
         style="stop-color:#2e80a4;stop-opacity:1;"
         offset="0"
         id="stop4934-0" />
      <stop
         style="stop-color:#60afdc;stop-opacity:1;"
         offset="1"
         id="stop4936-1" />
    </linearGradient>
    <linearGradient
       gradientTransform="translate(0,1004.3622)"
       y2="2"
       x2="26"
       y1="46"
       x1="26"
       gradientUnits="userSpaceOnUse"
       id="linearGradient4023"
       xlink:href="#linearGradient4932-3"
       inkscape:collect="always" />
    <linearGradient
       inkscape:collect="always"
       xlink:href="#linearGradient3859"
       id="linearGradient3865"
       x1="24"
       y1="1050.3622"
       x2="24"
       y2="1006.3622"
       gradientUnits="userSpaceOnUse" />
    <linearGradient
       inkscape:collect="always"
       xlink:href="#linearGradient3871"
       id="linearGradient3877"
       x1="8"
       y1="1050.3622"
       x2="8"
       y2="1006.3622"
       gradientUnits="userSpaceOnUse"
       gradientTransform="translate(0,-1004.3622)" />
    <linearGradient
       inkscape:collect="always"
       xlink:href="#linearGradient3871"
       id="linearGradient3881"
       gradientUnits="userSpaceOnUse"
       x1="8"
       y1="1050.3622"
       x2="8"
       y2="1006.3622"
       gradientTransform="translate(8,0)" />
    <linearGradient
       inkscape:collect="always"
       xlink:href="#linearGradient3871"
       id="linearGradient3885"
       gradientUnits="userSpaceOnUse"
       gradientTransform="translate(16,0)"
       x1="8"
       y1="1050.3622"
       x2="8"
       y2="1006.3622" />
    <linearGradient
       inkscape:collect="always"
       xlink:href="#linearGradient3871"
       id="linearGradient3889"
       gradientUnits="userSpaceOnUse"
       gradientTransform="translate(24,0)"
       x1="8"
       y1="1050.3622"
       x2="8"
       y2="1006.3622" />
    <linearGradient
       inkscape:collect="always"
       xlink:href="#linearGradient3871"
       id="linearGradient3893"
       gradientUnits="userSpaceOnUse"
       gradientTransform="translate(32,-1004.3622)"
       x1="8"
       y1="1050.3622"
       x2="8"
       y2="1006.3622" />
    <linearGradient
       inkscape:collect="always"
       xlink:href="#linearGradient4932-4"
       id="linearGradient3880-8"
       x1="26"
       y1="46"
       x2="26"
       y2="2"
       gradientUnits="userSpaceOnUse" />
    <linearGradient
       id="linearGradient4932-4">
      <stop
         style="stop-color:#b07237;stop-opacity:1;"
         offset="0"
         id="stop4934-05" />
      <stop
         style="stop-color:#e2ba63;stop-opacity:1;"
         offset="1"
         id="stop4936-6" />
    </linearGradient>
    <linearGradient
       y2="5.9877172"
       x2="48"
       y1="90"
       x1="48"
       gradientTransform="matrix(4.4285714,0,0,4.4285714,43.4286,43.428556)"
       gradientUnits="userSpaceOnUse"
       id="linearGradient4061-1"
       xlink:href="#linearGradient3700-1-7"
       inkscape:collect="always" />
    <linearGradient
       id="linearGradient3700-1-7">
      <stop
         offset="0"
         style="stop-color:#a66836;stop-opacity:1;"
         id="stop3702-8-2" />
      <stop
         offset="1"
         style="stop-color:#c7a151;stop-opacity:1;"
         id="stop3704-1-2" />
    </linearGradient>
    <linearGradient
       y2="5.9877172"
       x2="48"
       y1="90"
       x1="48"
       gradientTransform="matrix(0.41283293,0,0,0.41283293,60.18402,1008.5462)"
       gradientUnits="userSpaceOnUse"
       id="linearGradient3284"
       xlink:href="#linearGradient3700-1-7"
       inkscape:collect="always" />
  </defs>
  <sodipodi:namedview
     id="base"
     pagecolor="#ffffff"
     bordercolor="#666666"
     borderopacity="1.0"
     inkscape:pageopacity="0.0"
     inkscape:pageshadow="2"
     inkscape:zoom="7.5406899"
     inkscape:cx="27.867048"
     inkscape:cy="25.729479"
     inkscape:document-units="px"
     inkscape:current-layer="layer1"
     showgrid="true"
     inkscape:showpageshadow="false"
     borderlayer="true"
     inkscape:window-width="1920"
     inkscape:window-height="1052"
     inkscape:window-x="0"
     inkscape:window-y="28"
     inkscape:window-maximized="1"
     showguides="false">
    <inkscape:grid
       type="xygrid"
       id="grid4162" />
    <sodipodi:guide
       position="1.0000013,47.000017"
       orientation="46,0"
       id="guide4163" />
    <sodipodi:guide
       position="1.0000013,1.0000174"
       orientation="0,45.999999"
       id="guide4165" />
    <sodipodi:guide
       position="47,1.0000174"
       orientation="-46,0"
       id="guide4167" />
    <sodipodi:guide
       position="47,47.000017"
       orientation="0,-45.999999"
       id="guide4169" />
    <sodipodi:guide
       position="2.0000007,46.000017"
       orientation="44,0"
       id="guide4173" />
    <sodipodi:guide
       position="2.0000007,2.0000174"
       orientation="0,43.999999"
       id="guide4175" />
    <sodipodi:guide
       position="46,2.0000174"
       orientation="-44,0"
       id="guide4177" />
    <sodipodi:guide
       position="46,46.000017"
       orientation="0,-43.999999"
       id="guide4179" />
    <sodipodi:guide
       position="3,45.000017"
       orientation="42,0"
       id="guide4183" />
    <sodipodi:guide
       position="45,45.000017"
       orientation="0,-42"
       id="guide4189" />
    <sodipodi:guide
       position="3,45.000017"
       orientation="42,0"
       id="guide4193" />
    <sodipodi:guide
       position="3,3.0000174"
       orientation="0,42"
       id="guide4195" />
    <sodipodi:guide
       position="45,3.0000174"
       orientation="-42,0"
       id="guide4197" />
    <sodipodi:guide
       position="45,45.000017"
       orientation="0,-42"
       id="guide4199" />
    <sodipodi:guide
       position="3,10.000017"
       orientation="7,0"
       id="guide4203" />
    <sodipodi:guide
       position="3,3.0000174"
       orientation="0,42"
       id="guide4205" />
    <sodipodi:guide
       position="45,3.0000174"
       orientation="-7,0"
       id="guide4207" />
    <sodipodi:guide
       position="45,10.000017"
       orientation="0,-42"
       id="guide4209" />
  </sodipodi:namedview>
  <metadata
     id="metadata4235">
    <rdf:RDF>
      <cc:Work
         rdf:about="">
        <dc:format>image/svg+xml</dc:format>
        <dc:type
           rdf:resource="http://purl.org/dc/dcmitype/StillImage" />
        <dc:title />
      </cc:Work>
    </rdf:RDF>
  </metadata>
  <g
     inkscape:groupmode="layer"
     id="layer3"
     inkscape:label="Fake blur shadow"
     style="display:inline"
     sodipodi:insensitive="true">
    <path
       style="opacity:0.06000001;fill:#000000;fill-opacity:1;stroke:none"
       d="M 10,1 C 5.014,1 1,5.014 1,10 l 0,28 c 0,4.986 4.014,9 9,9 l 28,0 c 4.986,0 9,-4.014 9,-9 L 47,10 C 47,5.014 42.986,1 38,1 L 10,1 z m 0.5,0.5 27,0 c 4.986,0 9,4.014 9,9 l 0,27 c 0,4.986 -4.014,9 -9,9 l -27,0 c -4.986,0 -9,-4.014 -9,-9 l 0,-27 c 0,-4.986 4.014,-9 9,-9 z"
       id="rect3829"
       inkscape:connector-curvature="0" />
    <path
       style="opacity:0.12000002;fill:#000000;fill-opacity:1;stroke:none"
       d="m 10.5,1.5 c -4.986,0 -9,4.014 -9,9 l 0,27 c 0,4.986 4.014,9 9,9 l 27,0 c 4.986,0 9,-4.014 9,-9 l 0,-27 c 0,-4.986 -4.014,-9 -9,-9 l -27,0 z m 0.25,0.25 26.5,0 c 4.986,0 9,4.014 9,9 l 0,26.5 c 0,4.986 -4.014,9 -9,9 l -26.5,0 c -4.986,0 -9,-4.014 -9,-9 l 0,-26.5 c 0,-4.986 4.014,-9 9,-9 z"
       id="rect3827"
       inkscape:connector-curvature="0" />
    <rect
       style="opacity:0.23999999;fill:#000000;fill-opacity:1;stroke:none"
       id="rect3038-4"
       width="44.5"
       height="44.5"
       x="1.75"
       y="1.75"
       ry="9"
       rx="9" />
  </g>
  <g
     inkscape:groupmode="layer"
     id="layer6"
     inkscape:label="Blob"
     style="display:inline"
     sodipodi:insensitive="true">
    <path
       style="opacity:0.3;fill:url(#radialGradient4274);fill-opacity:1;stroke:none"
       d="M 1.03125,39 C 1.5192036,43.518898 5.3471961,47 10,47 l 28,0 c 4.652804,0 8.480796,-3.481102 8.96875,-8 l -45.9375,0 z"
       id="rect4241"
       inkscape:connector-curvature="0" />
  </g>
  <g
     inkscape:groupmode="layer"
     id="layer2"
     inkscape:label="Baseplate"
     style="display:inline">
    <rect
       style="fill:url(#linearGradient3880);fill-opacity:1.0;stroke:none"
       id="rect3038"
       width="44"
       height="44"
       x="2"
       y="1.9999826"
       ry="9"
       rx="9" />
  </g>
  <g
     inkscape:label="Symbol"
     inkscape:groupmode="layer"
     id="layer1"
     transform="translate(0,-1004.3622)"
     style="display:inline">
    <rect
       y="1006.3622"
       x="22"
       height="44.000019"
       width="4"
       id="rect3883"
       style="fill:url(#linearGradient3885);fill-opacity:1;stroke:none;opacity:0.75" />
    <rect
       style="opacity:1;fill:url(#linearGradient3865);fill-opacity:1;stroke:none"
       id="rect3857"
       width="2"
       height="44.000019"
       x="23"
       y="1006.3622" />
    <path
       style="opacity:0.25;fill:#000000;fill-opacity:1;stroke:none"
       d="M 17 28 L 24 37 L 31 28 L 30.21875 28 L 24 36 L 17.78125 28 L 17 28 z "
       id="path3952"
       transform="translate(0,1004.3622)" />
    <path
       style="fill:url(#linearGradient3877);fill-opacity:1;stroke:none;opacity:0.75"
       d="M 10 2.03125 C 8.5225651 2.1907844 7.1722414 2.7174221 6 3.5 L 6 44.5 C 7.1722414 45.282578 8.5225651 45.809216 10 45.96875 L 10 2.03125 z "
       transform="translate(0,1004.3622)"
       id="rect3867" />
    <rect
       style="fill:url(#linearGradient3881);fill-opacity:1;stroke:none;opacity:0.75"
       id="rect3879"
       width="4"
       height="44.000019"
       x="14"
       y="1006.3622" />
    <rect
       style="fill:url(#linearGradient3889);fill-opacity:1;stroke:none;opacity:0.75"
       id="rect3887"
       width="4"
       height="44.000019"
       x="30"
       y="1006.3622" />
    <path
       style="fill:url(#linearGradient3893);fill-opacity:1;stroke:none;opacity:0.75"
       d="M 38 2.03125 L 38 45.96875 C 39.477435 45.809216 40.827759 45.282578 42 44.5 L 42 3.5 C 40.827759 2.7174221 39.477435 2.1907844 38 2.03125 z "
       transform="translate(0,1004.3622)"
       id="rect3891" />
    <path
       id="path3937"
       style="fill:#ead1ab;fill-opacity:1;stroke:none;opacity:0.80000000000000004"
       d="m 17,27 7,9 7,-9 -4,0 0,1 c 0,0.554 -0.446,1 -1,1 l -4,0 c -0.554,0 -1,-0.446 -1,-1 l 0,-1 -4,0 z m 5,-17 4,0 c 0.554,0 1,0.446 1,1 l 0,17 c 0,0.554 -0.446,1 -1,1 l -4,0 c -0.554,0 -1,-0.446 -1,-1 l 0,-17 c 0,-0.554 0.446,-1 1,-1 z"
       transform="translate(0,1004.3622)" />
    <path
       style="fill:#fbe9ce;fill-opacity:1;stroke:none"
       d="M 22 10 C 21.446 10 21 10.446 21 11 L 21 12 C 21 11.446 21.446 11 22 11 L 26 11 C 26.554 11 27 11.446 27 12 L 27 11 C 27 10.446 26.554 10 26 10 L 22 10 z M 17 27 L 17.78125 28 L 21 28 L 21 27 L 17 27 z M 27 27 L 27 28 L 30.21875 28 L 31 27 L 27 27 z "
       transform="translate(0,1004.3622)"
       id="path3947" />
  </g>
  <g
     inkscape:groupmode="layer"
     id="layer4"
     inkscape:label="Inset"
     style="display:inline"
     sodipodi:insensitive="true">
    <path
       style="opacity:0.15;fill:#000000;fill-opacity:1;stroke:none"
       d="m 2,34 0,3 c 0,4.986 4.014,9 9,9 l 26,0 c 4.986,0 9,-4.014 9,-9 l 0,-3 c 0,4.986 -4.014,9 -9,9 L 11,43 C 6.014,43 2,38.986 2,34 z"
       id="rect3038-42"
       inkscape:connector-curvature="0" />
  </g>
  <g
     inkscape:groupmode="layer"
     id="layer7"
     inkscape:label="Baseshape"
     sodipodi:insensitive="true"
     style="display:none">
    <rect
       rx="9"
       ry="9"
       y="2"
       x="2"
       height="44"
       width="44"
       id="rect4169"
       style="fill:#abe1ad;fill-opacity:1;stroke:none;display:inline" />
  </g>
</svg>
