<?xml version="1.0" encoding="UTF-8" standalone="no"?>
<!-- Created with Inkscape (http://www.inkscape.org/) -->

<svg
   xmlns:dc="http://purl.org/dc/elements/1.1/"
   xmlns:cc="http://creativecommons.org/ns#"
   xmlns:rdf="http://www.w3.org/1999/02/22-rdf-syntax-ns#"
   xmlns:svg="http://www.w3.org/2000/svg"
   xmlns="http://www.w3.org/2000/svg"
   xmlns:xlink="http://www.w3.org/1999/xlink"
   xmlns:sodipodi="http://sodipodi.sourceforge.net/DTD/sodipodi-0.dtd"
   xmlns:inkscape="http://www.inkscape.org/namespaces/inkscape"
   width="48"
   height="48"
   id="svg4230"
   version="1.1"
   inkscape:version="0.91+devel r"
   sodipodi:docname="application-x-clementine.svg"
   inkscape:export-filename="/home/uri/mouse.png"
   inkscape:export-xdpi="960"
   inkscape:export-ydpi="960">
  <defs
     id="defs4232">
    <linearGradient
       id="linearGradient4243">
      <stop
         style="stop-color:#000000;stop-opacity:1;"
         offset="0"
         id="stop4245" />
      <stop
         style="stop-color:#000000;stop-opacity:0;"
         offset="1"
         id="stop4247" />
    </linearGradient>
    <radialGradient
       inkscape:collect="always"
       xlink:href="#linearGradient4243"
       id="radialGradient4274"
       gradientUnits="userSpaceOnUse"
       gradientTransform="matrix(1.0434782,0,0,0.1956518,-1.0434797,35.184809)"
       cx="24.000001"
       cy="42.499991"
       fx="24.000001"
       fy="42.499991"
       r="23" />
    <linearGradient
       inkscape:collect="always"
       xlink:href="#linearGradient3068"
       id="linearGradient3880"
       x1="26"
       y1="46"
       x2="26"
       y2="2"
       gradientUnits="userSpaceOnUse" />
    <linearGradient
       id="linearGradient3068">
      <stop
         style="stop-color:#d35424;stop-opacity:1;"
         offset="0"
         id="stop3070" />
      <stop
         style="stop-color:#fe7f3e;stop-opacity:1;"
         offset="1"
         id="stop3072" />
    </linearGradient>
  </defs>
  <sodipodi:namedview
     id="base"
     pagecolor="#ffffff"
     bordercolor="#666666"
     borderopacity="1.0"
     inkscape:pageopacity="0.0"
     inkscape:pageshadow="2"
     inkscape:zoom="16"
     inkscape:cx="24.921618"
     inkscape:cy="29.344495"
     inkscape:document-units="px"
     inkscape:current-layer="layer2"
     showgrid="true"
     inkscape:showpageshadow="false"
     borderlayer="true"
     inkscape:window-width="1366"
     inkscape:window-height="670"
     inkscape:window-x="-4"
     inkscape:window-y="29"
     inkscape:window-maximized="1"
     showguides="true"
     inkscape:guide-bbox="true">
    <inkscape:grid
       type="xygrid"
       id="grid4162"
       empspacing="5"
       visible="true"
       enabled="true"
       snapvisiblegridlinesonly="true" />
    <sodipodi:guide
       position="1.0000013,47.000017"
       orientation="46,0"
       id="guide4163" />
    <sodipodi:guide
       position="1.0000013,1.0000174"
       orientation="0,45.999999"
       id="guide4165" />
    <sodipodi:guide
       position="47,1.0000174"
       orientation="-46,0"
       id="guide4167" />
    <sodipodi:guide
       position="47,47.000017"
       orientation="0,-45.999999"
       id="guide4169" />
    <sodipodi:guide
       position="2.0000007,46.000017"
       orientation="44,0"
       id="guide4173" />
    <sodipodi:guide
       position="2.0000007,2.0000174"
       orientation="0,43.999999"
       id="guide4175" />
    <sodipodi:guide
       position="46,2.0000174"
       orientation="-44,0"
       id="guide4177" />
    <sodipodi:guide
       position="46,46.000017"
       orientation="0,-43.999999"
       id="guide4179" />
    <sodipodi:guide
       position="40,40"
       orientation="-42,0"
       id="guide4187" />
    <sodipodi:guide
       position="45,45.000017"
       orientation="0,-42"
       id="guide4189" />
    <sodipodi:guide
       position="3,3.0000174"
       orientation="0,42"
       id="guide4195" />
    <sodipodi:guide
       position="8,41"
       orientation="-42,0"
       id="guide4197" />
    <sodipodi:guide
       position="45,45.000017"
       orientation="0,-42"
       id="guide4199" />
    <sodipodi:guide
       position="3,3.0000174"
       orientation="0,42"
       id="guide4205" />
    <sodipodi:guide
       position="26,9"
       orientation="0,-42"
       id="guide4209" />
    <sodipodi:guide
       position="6,42.000017"
       orientation="33.000017,0"
       id="guide4529" />
    <sodipodi:guide
       position="17,10"
       orientation="0,36"
       id="guide4531" />
    <sodipodi:guide
       position="42,9"
       orientation="-33.000017,0"
       id="guide4533" />
    <sodipodi:guide
       position="42,42.000017"
       orientation="0,-36"
       id="guide4535" />
  </sodipodi:namedview>
  <metadata
     id="metadata4235">
    <rdf:RDF>
      <cc:Work
         rdf:about="">
        <dc:format>image/svg+xml</dc:format>
        <dc:type
           rdf:resource="http://purl.org/dc/dcmitype/StillImage" />
        <dc:title />
      </cc:Work>
    </rdf:RDF>
  </metadata>
  <g
     inkscape:groupmode="layer"
     id="layer3"
     inkscape:label="Fake blur shadow"
     style="display:inline"
     sodipodi:insensitive="true">
    <path
       style="opacity:0.06000001;fill:#000000;fill-opacity:1;stroke:none"
       d="M 10,1 C 5.014,1 1,5.014 1,10 l 0,28 c 0,4.986 4.014,9 9,9 l 28,0 c 4.986,0 9,-4.014 9,-9 L 47,10 C 47,5.014 42.986,1 38,1 L 10,1 z m 0.5,0.5 27,0 c 4.986,0 9,4.014 9,9 l 0,27 c 0,4.986 -4.014,9 -9,9 l -27,0 c -4.986,0 -9,-4.014 -9,-9 l 0,-27 c 0,-4.986 4.014,-9 9,-9 z"
       id="rect3829"
       inkscape:connector-curvature="0" />
    <path
       style="opacity:0.12000002;fill:#000000;fill-opacity:1;stroke:none"
       d="m 10.5,1.5 c -4.986,0 -9,4.014 -9,9 l 0,27 c 0,4.986 4.014,9 9,9 l 27,0 c 4.986,0 9,-4.014 9,-9 l 0,-27 c 0,-4.986 -4.014,-9 -9,-9 l -27,0 z m 0.25,0.25 26.5,0 c 4.986,0 9,4.014 9,9 l 0,26.5 c 0,4.986 -4.014,9 -9,9 l -26.5,0 c -4.986,0 -9,-4.014 -9,-9 l 0,-26.5 c 0,-4.986 4.014,-9 9,-9 z"
       id="rect3827"
       inkscape:connector-curvature="0" />
    <rect
       style="opacity:0.23999999;fill:#000000;fill-opacity:1;stroke:none"
       id="rect3038-4"
       width="44.5"
       height="44.5"
       x="1.75"
       y="1.75"
       ry="9"
       rx="9" />
  </g>
  <g
     inkscape:groupmode="layer"
     id="layer6"
     inkscape:label="Blob"
     style="display:inline"
     sodipodi:insensitive="true">
    <path
       style="opacity:0.3;fill:url(#radialGradient4274);fill-opacity:1;stroke:none"
       d="M 1.03125,39 C 1.5192036,43.518898 5.3471961,47 10,47 l 28,0 c 4.652804,0 8.480796,-3.481102 8.96875,-8 l -45.9375,0 z"
       id="rect4241"
       inkscape:connector-curvature="0" />
  </g>
  <g
     inkscape:groupmode="layer"
     id="layer2"
     inkscape:label="Baseplate"
     style="display:inline">
    <rect
       style="fill:url(#linearGradient3880);fill-opacity:1;stroke:none"
       id="rect3038"
       width="44"
       height="44"
       x="2"
       y="1.9999826"
       ry="9"
       rx="9" />
    <path
       inkscape:connector-curvature="0"
       id="path4586"
       d="M 17.011719,8.1542969 A 16,16 0 0 0 9,22 16,16 0 0 0 25,38 16,16 0 0 0 39.626953,28.433594 c -0.350614,-0.154797 -0.550526,-0.24518 -0.902344,-0.400391 A 15,15 0 0 1 25,37 15,15 0 0 1 10,22 15,15 0 0 1 17.513672,9.0234375 L 17.011719,8.1542969 Z m 0.998047,1.7285161 a 14,14 0 0 0 -6.212891,7.496093 l 11.318359,3.960938 a 2,2 0 0 1 0.886719,-1.070313 L 18.009766,9.882813 Z m -6.339844,7.908203 A 14,14 0 0 0 11,22 l 12,0 a 2,2 0 0 1 0.09375,-0.601562 L 11.669922,17.791016 Z m 11.335937,4.326172 -11.96289,0.703124 A 14,14 0 0 0 13.625,30.125 l 9.75,-6.964844 a 2,2 0 0 1 -0.369141,-1.042968 z m 3.824219,0.6875 a 2,2 0 0 1 -0.851562,0.935546 L 31.855469,34.1875 a 14,14 0 0 0 5.945312,-6.560547 C 32.383425,25.23907 28.19213,23.401751 26.830078,22.804688 Z m -3.355469,0.484374 -9.152343,7.746094 a 14,14 0 0 0 7.644531,4.615235 l 2.599609,-11.699219 a 2,2 0 0 1 -1.091797,-0.66211 z m 2.376953,0.519532 A 2,2 0 0 1 25,24 2,2 0 0 1 24.6875,23.972656 L 22.818359,35.820312 A 14,14 0 0 0 25,36 14,14 0 0 0 30.951172,34.644531 l -5.09961,-10.835937 z"
       style="opacity:1;fill:#000000;fill-opacity:0.05882353;stroke:none;stroke-opacity:1" />
    <path
       style="opacity:1;fill:#ffffff;fill-opacity:0.95522383;stroke:none;stroke-opacity:1"
       d="M 17.011719,7.1542969 A 16,16 0 0 0 9,21 16,16 0 0 0 25,37 16,16 0 0 0 39.626953,27.433594 c -0.350614,-0.154797 -0.550526,-0.24518 -0.902344,-0.400391 A 15,15 0 0 1 25,36 15,15 0 0 1 10,21 15,15 0 0 1 17.513672,8.0234375 L 17.011719,7.1542969 Z m 0.998047,1.7285156 a 14,14 0 0 0 -6.212891,7.4960935 l 11.318359,3.960938 a 2,2 0 0 1 0.886719,-1.070313 L 18.009766,8.8828125 Z M 11.669922,16.791016 A 14,14 0 0 0 11,21 l 12,0 a 2,2 0 0 1 0.09375,-0.601562 L 11.669922,16.791016 Z m 11.335937,4.326172 -11.96289,0.703124 A 14,14 0 0 0 13.625,29.125 l 9.75,-6.964844 a 2,2 0 0 1 -0.369141,-1.042968 z m 3.824219,0.6875 a 2,2 0 0 1 -0.851562,0.935546 L 31.855469,33.1875 a 14,14 0 0 0 5.945312,-6.560547 C 32.383425,24.23907 28.19213,22.401751 26.830078,21.804688 Z m -3.355469,0.484374 -9.152343,7.746094 a 14,14 0 0 0 7.644531,4.615235 l 2.599609,-11.699219 a 2,2 0 0 1 -1.091797,-0.66211 z m 2.376953,0.519532 A 2,2 0 0 1 25,23 2,2 0 0 1 24.6875,22.972656 L 22.818359,34.820312 A 14,14 0 0 0 25,35 14,14 0 0 0 30.951172,33.644531 l -5.09961,-10.835937 z"
       id="path4565"
       inkscape:connector-curvature="0" />
  </g>
  <g
     inkscape:label="Symbol"
     inkscape:groupmode="layer"
     id="layer1"
     transform="translate(0,-1004.3622)"
     style="display:inline" />
  <g
     inkscape:groupmode="layer"
     id="layer4"
     inkscape:label="Inset"
     sodipodi:insensitive="true"
     style="display:inline">
    <path
       style="opacity:0.15;fill:#000000;fill-opacity:1;stroke:none"
       d="m 2,34 0,3 c 0,4.986 4.014,9 9,9 l 26,0 c 4.986,0 9,-4.014 9,-9 l 0,-3 c 0,4.986 -4.014,9 -9,9 L 11,43 C 6.014,43 2,38.986 2,34 z"
       id="rect3038-42"
       inkscape:connector-curvature="0" />
  </g>
  <g
     inkscape:groupmode="layer"
     id="layer7"
     inkscape:label="Baseshape"
     sodipodi:insensitive="true"
     style="display:none">
    <rect
       rx="9"
       ry="9"
       y="2"
       x="2"
       height="44"
       width="44"
       id="rect4169"
       style="fill:#abe1ad;fill-opacity:1;stroke:none;display:inline" />
  </g>
</svg>
