<?xml version="1.0" encoding="UTF-8" standalone="no"?>
<!-- Created with Inkscape (http://www.inkscape.org/) -->

<svg
   xmlns:dc="http://purl.org/dc/elements/1.1/"
   xmlns:cc="http://creativecommons.org/ns#"
   xmlns:rdf="http://www.w3.org/1999/02/22-rdf-syntax-ns#"
   xmlns:svg="http://www.w3.org/2000/svg"
   xmlns="http://www.w3.org/2000/svg"
   xmlns:xlink="http://www.w3.org/1999/xlink"
   xmlns:sodipodi="http://sodipodi.sourceforge.net/DTD/sodipodi-0.dtd"
   xmlns:inkscape="http://www.inkscape.org/namespaces/inkscape"
   width="48"
   height="48"
   id="svg4230"
   version="1.1"
   inkscape:version="0.48.5 r10040"
   sodipodi:docname="application-x-clementine.svg"
   inkscape:export-filename="/home/uri/mouse.png"
   inkscape:export-xdpi="960"
   inkscape:export-ydpi="960">
  <defs
     id="defs4232">
    <linearGradient
       inkscape:collect="always"
       id="linearGradient3990">
      <stop
         style="stop-color:#000000;stop-opacity:1;"
         offset="0"
         id="stop3992" />
      <stop
         style="stop-color:#000000;stop-opacity:0;"
         offset="1"
         id="stop3994" />
    </linearGradient>
    <linearGradient
       id="linearGradient3942">
      <stop
         style="stop-color:#f5d4c0;stop-opacity:1;"
         offset="0"
         id="stop3944" />
      <stop
         style="stop-color:#f9c1ac;stop-opacity:1;"
         offset="1"
         id="stop3946" />
    </linearGradient>
    <linearGradient
       id="linearGradient3934">
      <stop
         style="stop-color:#fff1e8;stop-opacity:1;"
         offset="0"
         id="stop3936" />
      <stop
         style="stop-color:#f5c6aa;stop-opacity:1;"
         offset="1"
         id="stop3938" />
    </linearGradient>
    <linearGradient
       inkscape:collect="always"
       id="linearGradient3926">
      <stop
         style="stop-color:#000000;stop-opacity:1;"
         offset="0"
         id="stop3928" />
      <stop
         style="stop-color:#000000;stop-opacity:0;"
         offset="1"
         id="stop3930" />
    </linearGradient>
    <linearGradient
       id="linearGradient3974">
      <stop
         style="stop-color:#5a5a5c;stop-opacity:1;"
         offset="0"
         id="stop3976" />
      <stop
         style="stop-color:#404040;stop-opacity:1;"
         offset="1"
         id="stop3978" />
    </linearGradient>
    <linearGradient
       id="linearGradient3966">
      <stop
         style="stop-color:#4fccc4;stop-opacity:1;"
         offset="0"
         id="stop3968" />
      <stop
         style="stop-color:#3ab2ab;stop-opacity:1;"
         offset="1"
         id="stop3970" />
    </linearGradient>
    <linearGradient
       id="linearGradient3958">
      <stop
         style="stop-color:#e45555;stop-opacity:1;"
         offset="0"
         id="stop3960" />
      <stop
         style="stop-color:#ff6b6b;stop-opacity:1;"
         offset="1"
         id="stop3962" />
    </linearGradient>
    <linearGradient
       id="linearGradient3891">
      <stop
         style="stop-color:#f28131;stop-opacity:1;"
         offset="0"
         id="stop3893" />
      <stop
         style="stop-color:#f7941d;stop-opacity:1;"
         offset="1"
         id="stop3895" />
    </linearGradient>
    <linearGradient
       id="linearGradient4010">
      <stop
         style="stop-color:#4c3549;stop-opacity:1;"
         offset="0"
         id="stop4012" />
      <stop
         style="stop-color:#4c3549;stop-opacity:1;"
         offset="1"
         id="stop4014" />
    </linearGradient>
    <linearGradient
       id="linearGradient3955">
      <stop
         id="stop3957"
         offset="0"
         style="stop-color:#1c0f18;stop-opacity:1;" />
      <stop
         id="stop3959"
         offset="1"
         style="stop-color:#21111b;stop-opacity:1;" />
    </linearGradient>
    <linearGradient
       id="linearGradient3943">
      <stop
         style="stop-color:#c91822;stop-opacity:1;"
         offset="0"
         id="stop3945" />
      <stop
         style="stop-color:#f33040;stop-opacity:1;"
         offset="1"
         id="stop3947" />
    </linearGradient>
    <linearGradient
       id="linearGradient3874">
      <stop
         style="stop-color:#ea508d;stop-opacity:1;"
         offset="0"
         id="stop3876" />
      <stop
         style="stop-color:#e66296;stop-opacity:1;"
         offset="1"
         id="stop3878" />
    </linearGradient>
    <linearGradient
       id="linearGradient4026">
      <stop
         style="stop-color:#f1f1e9;stop-opacity:1;"
         offset="0"
         id="stop4028" />
      <stop
         style="stop-color:#f5f5ea;stop-opacity:1;"
         offset="1"
         id="stop4030" />
    </linearGradient>
    <linearGradient
       id="linearGradient4243">
      <stop
         style="stop-color:#000000;stop-opacity:1;"
         offset="0"
         id="stop4245" />
      <stop
         style="stop-color:#000000;stop-opacity:0;"
         offset="1"
         id="stop4247" />
    </linearGradient>
    <linearGradient
       id="linearGradient4216">
      <stop
         style="stop-color:#a0c4e6;stop-opacity:1;"
         offset="0"
         id="stop4218" />
      <stop
         style="stop-color:#d0e2f1;stop-opacity:1;"
         offset="1"
         id="stop4220" />
    </linearGradient>
    <linearGradient
       id="linearGradient4208">
      <stop
         style="stop-color:#70a3d6;stop-opacity:1;"
         offset="0"
         id="stop4210" />
      <stop
         style="stop-color:#88b6e1;stop-opacity:1;"
         offset="1"
         id="stop4212" />
    </linearGradient>
    <linearGradient
       id="linearGradient4200">
      <stop
         style="stop-color:#427dbe;stop-opacity:1;"
         offset="0"
         id="stop4202" />
      <stop
         style="stop-color:#739bd1;stop-opacity:1;"
         offset="1"
         id="stop4204" />
    </linearGradient>
    <linearGradient
       id="linearGradient4192">
      <stop
         style="stop-color:#4970a4;stop-opacity:1;"
         offset="0"
         id="stop4194" />
      <stop
         style="stop-color:#6090c0;stop-opacity:1;"
         offset="1"
         id="stop4196" />
    </linearGradient>
    <radialGradient
       inkscape:collect="always"
       xlink:href="#linearGradient3688-166-749-5-9-1"
       id="radialGradient4351"
       gradientUnits="userSpaceOnUse"
       gradientTransform="matrix(2.3201711,0,0,0.39999996,28.617836,28.600002)"
       cx="4.9929786"
       cy="43.5"
       fx="4.9929786"
       fy="43.5"
       r="2.5" />
    <linearGradient
       id="linearGradient3688-166-749-5-9-1">
      <stop
         id="stop2883-0-2-9"
         style="stop-color:#181818;stop-opacity:1"
         offset="0" />
      <stop
         id="stop2885-5-3-8"
         style="stop-color:#181818;stop-opacity:0"
         offset="1" />
    </linearGradient>
    <linearGradient
       id="linearGradient3688-464-309-8-9-4">
      <stop
         id="stop2889-9-9-1"
         style="stop-color:#181818;stop-opacity:1"
         offset="0" />
      <stop
         id="stop2891-4-2-9"
         style="stop-color:#181818;stop-opacity:0"
         offset="1" />
    </linearGradient>
    <linearGradient
       id="linearGradient3702-501-757-0-4-0">
      <stop
         id="stop2895-0-2-1"
         style="stop-color:#181818;stop-opacity:0"
         offset="0" />
      <stop
         id="stop2897-2-8-2"
         style="stop-color:#181818;stop-opacity:1"
         offset="0.5" />
      <stop
         id="stop2899-6-1-6"
         style="stop-color:#181818;stop-opacity:0"
         offset="1" />
    </linearGradient>
    <linearGradient
       id="linearGradient3811-3">
      <stop
         style="stop-color:#000000;stop-opacity:1;"
         offset="0"
         id="stop3813-0" />
      <stop
         style="stop-color:#000000;stop-opacity:0;"
         offset="1"
         id="stop3815-0" />
    </linearGradient>
    <clipPath
       id="clipPath-887332295">
      <g
         id="g3945"
         transform="translate(0,-1004.3622)">
        <rect
           id="rect3947"
           fill="#1890d0"
           width="46"
           height="46"
           x="1"
           y="1005.36"
           rx="4" />
      </g>
    </clipPath>
    <clipPath
       id="clipPath-867792831">
      <g
         id="g3940"
         transform="translate(0,-1004.3622)">
        <rect
           id="rect3942"
           fill="#1890d0"
           width="46"
           height="46"
           x="1"
           y="1005.36"
           rx="4" />
      </g>
    </clipPath>
    <linearGradient
       gradientTransform="translate(-47.997785,0.00221467)"
       gradientUnits="userSpaceOnUse"
       x2="47"
       x1="1"
       id="linearGradient3764">
      <stop
         id="stop3935"
         stop-opacity="1"
         stop-color="#e4e4e4" />
      <stop
         id="stop3937"
         stop-opacity="1"
         stop-color="#eee"
         offset="1" />
    </linearGradient>
    <radialGradient
       inkscape:collect="always"
       xlink:href="#linearGradient4243"
       id="radialGradient4274"
       gradientUnits="userSpaceOnUse"
       gradientTransform="matrix(1.0434782,0,0,0.1956518,-1.0434797,35.184809)"
       cx="24.000001"
       cy="42.499991"
       fx="24.000001"
       fy="42.499991"
       r="23" />
    <linearGradient
       inkscape:collect="always"
       xlink:href="#linearGradient4026"
       id="linearGradient4032"
       x1="-41.197594"
       y1="1042.7213"
       x2="-41.197594"
       y2="1002.0031"
       gradientUnits="userSpaceOnUse" />
    <linearGradient
       inkscape:collect="always"
       xlink:href="#linearGradient4026"
       id="linearGradient4078"
       gradientUnits="userSpaceOnUse"
       x1="-41.197594"
       y1="1042.7213"
       x2="-41.197594"
       y2="1002.0031" />
    <linearGradient
       inkscape:collect="always"
       xlink:href="#linearGradient4026"
       id="linearGradient4114"
       gradientUnits="userSpaceOnUse"
       x1="-41.197594"
       y1="1042.7213"
       x2="-41.197594"
       y2="1002.0031" />
    <linearGradient
       inkscape:collect="always"
       xlink:href="#linearGradient4026"
       id="linearGradient4150"
       gradientUnits="userSpaceOnUse"
       x1="-41.197594"
       y1="1042.7213"
       x2="-41.197594"
       y2="1002.0031" />
    <linearGradient
       inkscape:collect="always"
       xlink:href="#linearGradient3068"
       id="linearGradient3880"
       x1="26"
       y1="46"
       x2="26"
       y2="2"
       gradientUnits="userSpaceOnUse" />
    <linearGradient
       y2="-7.7778559"
       x2="78.210526"
       y1="33.777702"
       x1="78.210526"
       gradientTransform="matrix(0.86363632,0,0,0.81818178,-42.545451,1012.7259)"
       gradientUnits="userSpaceOnUse"
       id="linearGradient3084"
       xlink:href="#linearGradient3068"
       inkscape:collect="always" />
    <linearGradient
       id="linearGradient3068">
      <stop
         style="stop-color:#d35424;stop-opacity:1;"
         offset="0"
         id="stop3070" />
      <stop
         style="stop-color:#fe7f3e;stop-opacity:1;"
         offset="1"
         id="stop3072" />
    </linearGradient>
    <linearGradient
       inkscape:collect="always"
       xlink:href="#linearGradient3891"
       id="linearGradient3897"
       x1="-26.5"
       y1="33"
       x2="-26.5"
       y2="13"
       gradientUnits="userSpaceOnUse" />
    <linearGradient
       inkscape:collect="always"
       xlink:href="#linearGradient3891"
       id="linearGradient3907"
       gradientUnits="userSpaceOnUse"
       x1="-26.5"
       y1="33"
       x2="-26.5"
       y2="13" />
    <linearGradient
       inkscape:collect="always"
       xlink:href="#linearGradient3891"
       id="linearGradient3915"
       x1="-17"
       y1="33"
       x2="-17"
       y2="11"
       gradientUnits="userSpaceOnUse" />
    <radialGradient
       inkscape:collect="always"
       xlink:href="#linearGradient3926"
       id="radialGradient3932"
       cx="24"
       cy="1025.3622"
       fx="24"
       fy="1025.3622"
       r="6"
       gradientTransform="matrix(1,0,0,1.3333333,0,-343.7874)"
       gradientUnits="userSpaceOnUse" />
    <linearGradient
       inkscape:collect="always"
       xlink:href="#linearGradient3934"
       id="linearGradient3940"
       x1="24"
       y1="1016.3622"
       x2="24"
       y2="1025.3622"
       gradientUnits="userSpaceOnUse"
       gradientTransform="translate(0,-3)" />
    <linearGradient
       inkscape:collect="always"
       xlink:href="#linearGradient3942"
       id="linearGradient3948"
       x1="24"
       y1="1030.3622"
       x2="24"
       y2="1039.3622"
       gradientUnits="userSpaceOnUse"
       gradientTransform="translate(0,-1005.3622)" />
    <linearGradient
       inkscape:collect="always"
       xlink:href="#linearGradient3942"
       id="linearGradient3953"
       gradientUnits="userSpaceOnUse"
       gradientTransform="translate(17,-9.0000284)"
       x1="24"
       y1="1012.3622"
       x2="24"
       y2="1059.3622" />
    <linearGradient
       inkscape:collect="always"
       xlink:href="#linearGradient3942"
       id="linearGradient3963"
       gradientUnits="userSpaceOnUse"
       x1="24"
       y1="1012.3622"
       x2="24"
       y2="1059.3622"
       gradientTransform="translate(0,-1004.3622)" />
    <linearGradient
       inkscape:collect="always"
       xlink:href="#linearGradient3942"
       id="linearGradient3973"
       gradientUnits="userSpaceOnUse"
       x1="24"
       y1="1012.3622"
       x2="24"
       y2="1059.3622" />
    <linearGradient
       inkscape:collect="always"
       xlink:href="#linearGradient3942"
       id="linearGradient3975"
       gradientUnits="userSpaceOnUse"
       gradientTransform="translate(0,-1005.3622)"
       x1="24"
       y1="1012.3622"
       x2="24"
       y2="1059.3622" />
    <linearGradient
       inkscape:collect="always"
       xlink:href="#linearGradient3990"
       id="linearGradient3996"
       x1="24"
       y1="1028.3622"
       x2="24"
       y2="1042.3622"
       gradientUnits="userSpaceOnUse" />
    <clipPath
       id="clipPath-777615011">
      <g
         transform="translate(0,-1004.3622)"
         id="g17">
        <rect
           style="fill:#1890d0"
           rx="4"
           y="1005.36"
           x="1"
           height="46"
           width="46"
           id="rect19" />
      </g>
    </clipPath>
    <filter
       inkscape:collect="always"
       id="filter3919">
      <feGaussianBlur
         inkscape:collect="always"
         stdDeviation="0.19825547"
         id="feGaussianBlur3921" />
    </filter>
  </defs>
  <sodipodi:namedview
     id="base"
     pagecolor="#ffffff"
     bordercolor="#666666"
     borderopacity="1.0"
     inkscape:pageopacity="0.0"
     inkscape:pageshadow="2"
     inkscape:zoom="10.895833"
     inkscape:cx="24"
     inkscape:cy="24"
     inkscape:document-units="px"
     inkscape:current-layer="layer2"
     showgrid="true"
     inkscape:showpageshadow="false"
     borderlayer="true"
     inkscape:window-width="1366"
     inkscape:window-height="711"
     inkscape:window-x="0"
     inkscape:window-y="28"
     inkscape:window-maximized="1"
     showguides="false"
     inkscape:guide-bbox="true">
    <inkscape:grid
       type="xygrid"
       id="grid4162"
       empspacing="5"
       visible="true"
       enabled="true"
       snapvisiblegridlinesonly="true" />
    <sodipodi:guide
       position="1.0000013,47.000017"
       orientation="46,0"
       id="guide4163" />
    <sodipodi:guide
       position="1.0000013,1.0000174"
       orientation="0,45.999999"
       id="guide4165" />
    <sodipodi:guide
       position="47,1.0000174"
       orientation="-46,0"
       id="guide4167" />
    <sodipodi:guide
       position="47,47.000017"
       orientation="0,-45.999999"
       id="guide4169" />
    <sodipodi:guide
       position="2.0000007,46.000017"
       orientation="44,0"
       id="guide4173" />
    <sodipodi:guide
       position="2.0000007,2.0000174"
       orientation="0,43.999999"
       id="guide4175" />
    <sodipodi:guide
       position="46,2.0000174"
       orientation="-44,0"
       id="guide4177" />
    <sodipodi:guide
       position="46,46.000017"
       orientation="0,-43.999999"
       id="guide4179" />
    <sodipodi:guide
       position="3,45.000017"
       orientation="42,0"
       id="guide4183" />
    <sodipodi:guide
       position="45,3.0000174"
       orientation="-42,0"
       id="guide4187" />
    <sodipodi:guide
       position="45,45.000017"
       orientation="0,-42"
       id="guide4189" />
    <sodipodi:guide
       position="3,45.000017"
       orientation="42,0"
       id="guide4193" />
    <sodipodi:guide
       position="3,3.0000174"
       orientation="0,42"
       id="guide4195" />
    <sodipodi:guide
       position="45,3.0000174"
       orientation="-42,0"
       id="guide4197" />
    <sodipodi:guide
       position="45,45.000017"
       orientation="0,-42"
       id="guide4199" />
    <sodipodi:guide
       position="3,10.000017"
       orientation="7,0"
       id="guide4203" />
    <sodipodi:guide
       position="3,3.0000174"
       orientation="0,42"
       id="guide4205" />
    <sodipodi:guide
       position="45,3.0000174"
       orientation="-7,0"
       id="guide4207" />
    <sodipodi:guide
       position="45,10.000017"
       orientation="0,-42"
       id="guide4209" />
  </sodipodi:namedview>
  <metadata
     id="metadata4235">
    <rdf:RDF>
      <cc:Work
         rdf:about="">
        <dc:format>image/svg+xml</dc:format>
        <dc:type
           rdf:resource="http://purl.org/dc/dcmitype/StillImage" />
        <dc:title></dc:title>
      </cc:Work>
    </rdf:RDF>
  </metadata>
  <g
     inkscape:groupmode="layer"
     id="layer3"
     inkscape:label="Fake blur shadow"
     style="display:inline"
     sodipodi:insensitive="true">
    <path
       style="opacity:0.06000001;fill:#000000;fill-opacity:1;stroke:none"
       d="M 10,1 C 5.014,1 1,5.014 1,10 l 0,28 c 0,4.986 4.014,9 9,9 l 28,0 c 4.986,0 9,-4.014 9,-9 L 47,10 C 47,5.014 42.986,1 38,1 L 10,1 z m 0.5,0.5 27,0 c 4.986,0 9,4.014 9,9 l 0,27 c 0,4.986 -4.014,9 -9,9 l -27,0 c -4.986,0 -9,-4.014 -9,-9 l 0,-27 c 0,-4.986 4.014,-9 9,-9 z"
       id="rect3829"
       inkscape:connector-curvature="0" />
    <path
       style="opacity:0.12000002;fill:#000000;fill-opacity:1;stroke:none"
       d="m 10.5,1.5 c -4.986,0 -9,4.014 -9,9 l 0,27 c 0,4.986 4.014,9 9,9 l 27,0 c 4.986,0 9,-4.014 9,-9 l 0,-27 c 0,-4.986 -4.014,-9 -9,-9 l -27,0 z m 0.25,0.25 26.5,0 c 4.986,0 9,4.014 9,9 l 0,26.5 c 0,4.986 -4.014,9 -9,9 l -26.5,0 c -4.986,0 -9,-4.014 -9,-9 l 0,-26.5 c 0,-4.986 4.014,-9 9,-9 z"
       id="rect3827"
       inkscape:connector-curvature="0" />
    <rect
       style="opacity:0.23999999;fill:#000000;fill-opacity:1;stroke:none"
       id="rect3038-4"
       width="44.5"
       height="44.5"
       x="1.75"
       y="1.75"
       ry="9"
       rx="9" />
  </g>
  <g
     inkscape:groupmode="layer"
     id="layer6"
     inkscape:label="Blob"
     style="display:inline"
     sodipodi:insensitive="true">
    <path
       style="opacity:0.3;fill:url(#radialGradient4274);fill-opacity:1;stroke:none"
       d="M 1.03125,39 C 1.5192036,43.518898 5.3471961,47 10,47 l 28,0 c 4.652804,0 8.480796,-3.481102 8.96875,-8 l -45.9375,0 z"
       id="rect4241"
       inkscape:connector-curvature="0" />
  </g>
  <g
     inkscape:groupmode="layer"
     id="layer2"
     inkscape:label="Baseplate"
     style="display:inline">
    <rect
       style="fill:url(#linearGradient3880);fill-opacity:1;stroke:none"
       id="rect3038"
       width="44"
       height="44"
       x="2"
       y="1.9999826"
       ry="9"
       rx="9" />
    <g
       style="fill:#000000;fill-opacity:1;opacity:0.14999999999999999;"
       transform="translate(-1.189734,1.0726846)"
       id="g3976">
      <path
         inkscape:connector-curvature="0"
         id="path3978"
         d="M 24.319366,37.869134 C 20.324839,37.521513 16.423027,35.473531 13.793961,32.344563 11.281407,29.354262 9.911384,25.329274 10.100368,21.493164 10.294936,17.543715 11.799305,14.025654 14.48299,11.244129 15.774774,9.90525 17.001198,9.0007959 18.848691,8.0245431 l 1.082273,-0.5718946 0.398061,0.7969735 c 0.421318,0.8435327 0.457191,0.9584084 0.299374,0.9586616 -0.172672,2.776e-4 -1.731663,0.8196224 -2.427749,1.2759304 -3.11527,2.042167 -5.346396,5.372595 -6.081593,9.078062 -0.24618,1.240771 -0.302851,3.409983 -0.120133,4.598357 0.501918,3.264409 1.768193,5.817963 3.994022,8.054293 1.763771,1.772092 3.961733,3.039387 6.335592,3.652959 5.845778,1.510958 11.823225,-0.786974 15.225936,-5.853362 0.360114,-0.536184 1.016404,-1.72267 1.106379,-2.000189 0.04781,-0.147456 0.822646,0.264287 0.995162,0.528821 0.264767,0.405991 -0.107792,1.360413 -1.042821,2.671503 -2.618061,3.671024 -6.486505,5.999697 -10.94925,6.59108 -0.793355,0.105131 -2.494471,0.137377 -3.344578,0.0634 z m 0.868463,-2.198391 c -0.968746,-0.188304 -2.118163,-0.762451 -2.332699,-1.165207 -0.123514,-0.231876 0.02043,-1.081191 0.516446,-3.047127 0.38269,-1.516783 1.389647,-4.969111 2.151713,-7.3771 l 0.301246,-0.951883 0.439406,-0.02343 0.439407,-0.02343 0.176986,0.420048 c 0.721276,1.711828 2.724784,7.841854 3.162344,9.675657 0.259509,1.087598 0.244092,1.15809 -0.34037,1.5563 -1.239551,0.84454 -3.052147,1.22042 -4.514479,0.936171 z M 20.608661,33.992547 C 17.804135,33.286733 16.089536,31.905403 15.157566,29.60099 15.049492,29.333762 14.912227,28.904775 14.852533,28.647684 L 14.744,28.180245 15.505173,27.666933 c 1.86896,-1.26037 5.118428,-3.093731 8.508436,-4.800493 l 0.957462,-0.482051 0.364205,0.350616 0.364205,0.350616 -0.270155,0.895474 c -0.305135,1.011416 -1.591958,4.727613 -2.094783,6.049488 -0.877895,2.307899 -1.637685,3.949516 -1.886221,4.0754 -0.07863,0.03983 -0.406892,-0.0045 -0.839661,-0.113436 z m 10.54725,-0.554848 C 30.537803,32.73039 28.59011,28.076703 27.113332,23.778626 l -0.267528,-0.778625 0.219908,-0.162088 c 0.226695,-0.16709 0.530128,-0.679471 0.530128,-0.895182 0,-0.06718 0.05128,-0.122146 0.113964,-0.122146 0.180764,0 5.175605,2.538808 6.438983,3.272845 1.331864,0.773828 1.862284,1.109537 2.704078,1.711441 l 0.611871,0.437503 -0.0011,0.402559 c -0.0014,0.538593 -0.365969,1.566993 -0.840958,2.372313 -0.52874,0.896454 -1.961439,2.334783 -2.829215,2.840335 -0.665855,0.387916 -1.519591,0.726555 -2.06004,0.817127 -0.301948,0.0506 -0.339782,0.03508 -0.577555,-0.237009 z M 13.82259,26.776176 c -1.007637,-1.327313 -1.506286,-3.71122 -1.198126,-5.727916 0.201426,-1.31819 0.859665,-3.054125 1.252473,-3.303071 0.182393,-0.115594 1.390666,0.125502 3.020541,0.60271 1.559244,0.456529 5.46111,1.805072 6.948181,2.401394 l 1.026365,0.411577 0.01884,0.550089 0.01884,0.550088 -1.36101,0.722019 c -1.373554,0.728672 -4.997945,2.503201 -6.01913,2.947011 -1.663616,0.723014 -2.843784,1.125869 -3.298237,1.125869 -0.131904,0 -0.266058,-0.09182 -0.408738,-0.27977 z m 9.628313,-6.294811 c -4.215774,-1.686087 -7.644022,-3.278016 -8.317804,-3.862425 -0.405772,-0.351948 -0.406606,-0.442293 -0.01321,-1.431894 0.488095,-1.227817 1.412957,-2.443538 2.472825,-3.250497 0.644712,-0.490869 1.904292,-1.086519 2.734912,-1.293329 1.129426,-0.281207 1.111969,-0.289692 1.861699,0.904953 1.19052,1.897019 4.256033,8.712938 3.959321,8.803231 -0.0508,0.01546 -0.190952,0.04984 -0.31146,0.07641 -0.120509,0.02656 -0.355747,0.172329 -0.522752,0.323919 -0.167005,0.151591 -0.352631,0.273553 -0.412503,0.271026 -0.05987,-0.0025 -0.712834,-0.246152 -1.451028,-0.54139 z"
         style="fill:#000000;fill-opacity:1" />
      <path
         inkscape:connector-curvature="0"
         id="path3980"
         d="M 24.55622,37.873614 C 18.163279,37.34616 12.843458,33.11023 10.870902,26.976623 c -0.531185,-1.651708 -0.733998,-2.996275 -0.735851,-4.878405 -0.002,-2.00452 0.410602,-4.139768 1.134202,-5.86995 l 0.265399,-0.634589 0.964464,-0.02227 c 0.530455,-0.01225 0.964464,-0.0024 0.964464,0.02181 0,0.02425 -0.121685,0.286857 -0.270411,0.583581 -0.148726,0.296724 -0.394578,0.897905 -0.546339,1.335958 -1.385599,3.999504 -0.965058,8.329105 1.158092,11.922899 2.195123,3.715619 5.903343,6.180405 10.211643,6.787489 1.32552,0.18678 3.340365,0.11873 4.650603,-0.157069 4.235315,-0.891516 7.828044,-3.653816 9.738683,-7.487668 l 0.328388,-0.658938 0.292925,0.172901 c 0.161109,0.0951 0.394402,0.280415 0.518431,0.411822 0.19813,0.209917 0.219245,0.278255 0.173938,0.562929 -0.213168,1.339363 -2.800957,4.464839 -4.932484,5.957348 -1.998922,1.399657 -4.340682,2.340966 -6.720508,2.701419 -0.832519,0.126095 -2.779437,0.208028 -3.510321,0.147725 z m 1.035391,-2.18084 c -0.921804,-0.09516 -1.644791,-0.359886 -2.397299,-0.877776 -0.314599,-0.216513 -0.335542,-0.254208 -0.335529,-0.603903 3.6e-5,-1.003617 0.971262,-4.670707 2.611827,-9.861565 l 0.391562,-1.238929 0.417791,-0.0038 c 0.481278,-0.0043 0.373404,-0.16954 0.998944,1.529746 1.351064,3.670183 2.922321,8.791318 2.922321,9.524607 0,0.374751 -1.267937,1.098717 -2.40801,1.374925 -0.801209,0.19411 -1.415499,0.237825 -2.201607,0.156671 z m -5.189099,-1.776196 c -2.741395,-0.756257 -4.531281,-2.280885 -5.285733,-4.502396 -0.12193,-0.359028 -0.244906,-0.782135 -0.273279,-0.94024 -0.05152,-0.287064 -0.05067,-0.288096 0.606678,-0.743423 1.535987,-1.063928 4.479951,-2.738655 7.739556,-4.402784 l 1.786811,-0.912222 0.224068,0.219077 c 0.123239,0.120494 0.282301,0.263276 0.353471,0.317295 0.118084,0.08963 0.103082,0.184944 -0.171513,1.089763 -0.803181,2.646563 -2.663293,7.659478 -3.369241,9.079951 -0.558042,1.122863 -0.509354,1.098835 -1.610818,0.794979 z M 31.188361,33.447207 C 30.601119,32.821612 28.98125,28.972191 27.24186,24.06883 l -0.370232,-1.043686 0.28645,-0.265154 c 0.157548,-0.145834 0.335548,-0.407936 0.395554,-0.582448 0.08122,-0.236207 0.145953,-0.310402 0.253295,-0.290322 0.211886,0.03964 4.706427,2.3141 5.947104,3.009533 1.184895,0.664167 2.275258,1.343231 3.13642,1.953325 0.523351,0.370769 0.570663,0.427387 0.572396,0.684975 0.0069,1.02901 -0.825151,2.692726 -1.941187,3.881365 -1.090992,1.161965 -2.255902,1.866445 -3.611828,2.184253 l -0.473285,0.110931 -0.248186,-0.264395 z M 14.095189,26.99719 c -0.163437,-0.03457 -0.673932,-0.848204 -0.957209,-1.525605 -0.8864,-2.119649 -0.709126,-5.141744 0.424673,-7.239623 l 0.256207,-0.474063 0.552658,0.04293 c 0.622212,0.04833 1.578701,0.285141 3.31595,0.820984 1.481249,0.456882 4.799254,1.621188 6.160758,2.161843 l 1.028933,0.40859 -0.01075,0.532312 -0.01075,0.532312 -1.531369,0.811347 c -2.859492,1.515008 -6.734865,3.308625 -8.043142,3.72256 -0.435086,0.137661 -1.025349,0.240396 -1.185968,0.206418 z m 9.237287,-6.596887 c -5.09794,-2.051735 -8.280835,-3.597365 -8.485998,-4.120845 -0.02316,-0.0591 -5.52e-4,-0.246787 0.05021,-0.417078 l 0.09233,-0.30962 4.622659,0.02046 4.62266,0.02046 0.501282,1.110531 c 0.463389,1.026581 1.284336,3.039113 1.391942,3.412309 0.03882,0.134648 -0.01641,0.182363 -0.348157,0.300744 -0.23831,0.08504 -0.462623,0.233551 -0.567001,0.375395 -0.09498,0.12908 -0.210428,0.233018 -0.256541,0.230974 -0.04611,-0.002 -0.776638,-0.282542 -1.62339,-0.623329 z"
         style="fill:#000000;fill-opacity:1" />
      <path
         inkscape:connector-curvature="0"
         id="path3982"
         d="M 24.595695,37.873981 C 23.834645,37.819319 22.610559,37.601054 21.674502,37.353108 16.176754,35.896841 11.87215,31.427181 10.538353,25.789954 10.030251,23.642485 10.00621,20.961415 10.475908,18.826118 l 0.09161,-0.41645 0.888228,0 0.888229,0 -0.109425,0.41645 c -0.376023,1.43106 -0.502968,3.88756 -0.277723,5.374177 0.487888,3.220064 1.91493,6.002645 4.216985,8.222679 2.140518,2.064253 4.767289,3.34788 7.776604,3.800204 1.089026,0.163689 3.401432,0.122255 4.388008,-0.07863 3.326505,-0.67732 5.897009,-2.139617 8.086671,-4.600307 0.619682,-0.696384 1.649635,-2.239095 2.024199,-3.031939 l 0.28118,-0.595177 0.294809,0.176147 c 0.536741,0.320698 0.687764,0.515741 0.678359,0.876083 -0.01091,0.417879 -0.488667,1.366704 -1.193396,2.370064 -0.753716,1.073105 -2.588006,2.890197 -3.711832,3.677032 -2.024104,1.417154 -4.588087,2.424792 -6.981787,2.743824 -0.699367,0.09321 -2.58127,0.159644 -3.220928,0.113702 z m 1.144792,-2.179765 c -0.994793,-0.07508 -1.76337,-0.340477 -2.546175,-0.879218 -0.318394,-0.219125 -0.335543,-0.250937 -0.335543,-0.622471 0,-0.966707 1.066718,-4.968825 2.653436,-9.955179 l 0.354214,-1.113139 0.415385,-0.006 0.415384,-0.006 0.221635,0.563906 c 0.823339,2.094822 2.576939,7.464234 3.041324,9.312343 0.318369,1.26701 0.315875,1.309516 -0.09446,1.61026 -1.119608,0.820586 -2.590994,1.211354 -4.125199,1.095563 z m -5.291419,-1.77131 C 17.966567,33.277947 16.324915,32.018634 15.391043,30.04289 15.140939,29.513756 14.80575,28.497107 14.80575,28.267659 c 0,-0.318832 4.452386,-2.932078 8.551674,-5.019248 l 1.635847,-0.832898 0.139314,0.181435 c 0.07662,0.09979 0.231513,0.242573 0.344199,0.317295 l 0.204884,0.135859 -0.450624,1.427826 c -1.281852,4.061609 -3.160451,8.889965 -3.69584,9.499006 -0.153657,0.174796 -0.217618,0.171615 -1.086136,-0.05403 z M 31.355826,33.624703 C 30.820934,33.32395 29.182285,29.504827 27.206805,23.954768 l -0.327385,-0.919776 0.318879,-0.320385 c 0.176783,-0.177616 0.34095,-0.431255 0.368408,-0.569191 0.02724,-0.136845 0.07579,-0.265116 0.107888,-0.285047 0.07772,-0.04826 4.484014,2.150387 5.882058,2.935021 1.334416,0.748923 2.473966,1.451238 3.292703,2.029321 0.691296,0.4881 0.702836,0.521399 0.492512,1.42109 -0.457385,1.95653 -2.390084,4.169219 -4.372673,5.006145 -0.712109,0.300608 -1.441834,0.469205 -1.613369,0.372757 z M 13.604117,26.361864 c -0.695106,-1.172076 -1.009,-2.395488 -1.009,-3.932616 0,-1.417131 0.257506,-2.686955 0.754805,-3.722116 l 0.142903,-0.297464 1.765141,0 1.765141,0 1.003265,0.325231 c 1.649199,0.534623 4.559642,1.564235 5.742771,2.03159 l 1.107753,0.437579 -0.01156,0.520043 -0.01156,0.520043 -1.096192,0.592019 c -1.334201,0.72056 -5.428731,2.716677 -6.622774,3.228657 -1.245266,0.533943 -2.412554,0.911793 -2.816795,0.911793 l -0.349311,0 -0.364586,-0.614759 z m 10.478395,-5.667116 c -1.141697,-0.457199 -4.675167,-1.927784 -5.09235,-2.119372 l -0.35528,-0.163159 3.42483,0.01856 3.42483,0.01856 0.303768,0.78441 c 0.41954,1.083362 0.418623,1.079696 0.270157,1.079696 -0.206939,0 -0.725334,0.297603 -0.894275,0.513391 -0.08635,0.110287 -0.187406,0.196824 -0.224579,0.192304 -0.03717,-0.0045 -0.422869,-0.150493 -0.857101,-0.324383 z"
         style="fill:#000000;fill-opacity:1" />
      <path
         inkscape:connector-curvature="0"
         id="path3984"
         d="M 24.674646,37.873525 C 17.274122,37.347326 11.261659,31.661064 10.2643,24.245 10.200132,23.767866 10.147631,22.777312 10.147631,22.043769 l 0,-1.333715 0.848725,1.1e-5 0.848725,1.1e-5 0.0049,1.447645 c 0.0052,1.533453 0.08552,2.239007 0.397165,3.489847 0.627664,2.519207 1.741345,4.520272 3.577619,6.428278 2.175567,2.260553 4.886162,3.648051 8.099817,4.146131 1.079341,0.167286 3.420874,0.125125 4.460741,-0.08032 3.516196,-0.694681 6.469472,-2.514852 8.626316,-5.316593 0.562325,-0.73046 1.286847,-1.904375 1.564318,-2.534605 l 0.155961,-0.354239 0.294071,0.168415 c 0.410449,0.235065 0.576974,0.388446 0.66074,0.60859 0.303016,0.796341 -1.704832,3.660587 -3.84052,5.478602 -2.194639,1.868197 -5.175498,3.194575 -8.013544,3.565747 -0.702948,0.09193 -2.544743,0.159556 -3.158047,0.115948 z m 0.230251,-2.287249 c -0.587339,-0.149689 -1.260129,-0.454353 -1.692881,-0.766598 -0.327535,-0.236327 -0.353247,-0.280601 -0.353247,-0.608253 0,-0.983456 0.943773,-4.535178 2.575872,-9.693836 l 0.439188,-1.388163 0.394489,0 c 0.480691,0 0.425762,-0.09 1.113458,1.824443 1.242287,3.458341 2.426582,7.229251 2.719583,8.659411 l 0.139058,0.678748 -0.270052,0.226513 c -0.377283,0.316455 -1.207199,0.739029 -1.861343,0.947753 -0.711459,0.227012 -2.518642,0.294684 -3.204125,0.119982 z M 20.599091,33.96235 c -2.383937,-0.580519 -4.146322,-1.847901 -5.073088,-3.648204 -0.285675,-0.554944 -0.720253,-1.776227 -0.720253,-2.024109 0,-0.35207 5.565102,-3.589308 9.553092,-5.557065 l 0.592133,-0.292172 0.347878,0.333095 0.347879,0.333094 -0.264108,0.883779 c -0.804811,2.693112 -2.656485,7.695369 -3.410268,9.212761 -0.500113,1.006745 -0.45577,0.982242 -1.373265,0.758821 z m 10.464342,-0.688636 c -0.6837,-0.998412 -2.254404,-4.789512 -3.743108,-9.034486 l -0.417536,-1.190584 0.29272,-0.29059 c 0.160996,-0.159825 0.335408,-0.433736 0.387579,-0.608694 l 0.09486,-0.318102 0.757711,0.353336 c 3.229243,1.505866 6.88925,3.536217 8.466623,4.696774 l 0.582336,0.428454 -0.05185,0.443247 c -0.209838,1.793817 -1.80593,3.990114 -3.718211,5.116432 -0.657574,0.387306 -1.700238,0.767766 -2.108151,0.769247 -0.259109,9.44e-4 -0.320721,-0.04048 -0.542971,-0.365034 z m -17.22989,-6.554893 c -0.867971,-1.173195 -1.27782,-2.734145 -1.22393,-4.661448 0.01771,-0.633257 0.05931,-1.195463 0.09246,-1.249348 0.04691,-0.07625 1.271111,-0.09745 5.522975,-0.09564 l 5.462709,0.0023 0.580498,0.255465 0.580498,0.255467 0.0072,0.506529 0.0072,0.506529 -1.140345,0.604805 c -3.184465,1.688943 -7.201025,3.552391 -8.550335,3.966853 -0.801813,0.246288 -1.104262,0.225608 -1.338909,-0.09155 z m 10.80756,-5.816696 c -0.453333,-0.166846 -0.440199,-0.192071 0.100005,-0.192071 0.467771,0 0.483537,0.0064 0.388923,0.158648 -0.113855,0.183171 -0.08703,0.181337 -0.488928,0.03342 z"
         style="fill:#000000;fill-opacity:1" />
      <path
         inkscape:connector-curvature="0"
         id="path3986"
         d="M 24.714122,37.872028 C 23.060396,37.770962 21.003867,37.254278 19.36455,36.527995 14.9246,34.56092 11.530841,30.364461 10.516989,25.58779 10.405946,25.064622 10.294565,24.483655 10.269475,24.296752 l -0.04562,-0.339823 0.849965,0.02253 0.849966,0.02253 0.09152,0.604394 c 0.507116,3.349015 2.588659,6.794995 5.356356,8.867409 2.030306,1.520266 3.984047,2.34496 6.513472,2.749402 1.21706,0.194601 3.647953,0.119379 4.856544,-0.150283 3.681788,-0.821484 6.76603,-2.921637 8.809547,-5.99868 0.286396,-0.431245 0.670121,-1.072602 0.852721,-1.425239 0.182601,-0.352638 0.361716,-0.641159 0.398033,-0.641159 0.03632,0 0.238805,0.116011 0.449973,0.257802 0.356514,0.239387 0.385627,0.283926 0.407554,0.623522 0.02952,0.457155 -0.185619,0.959337 -0.828818,1.934665 -2.185126,3.313464 -5.591728,5.715226 -9.39284,6.622247 -1.380113,0.329323 -3.369555,0.50872 -4.723727,0.425962 z m 0.552658,-2.216871 c -0.982638,-0.232847 -1.525441,-0.453554 -2.054764,-0.835479 -0.319208,-0.23032 -0.353245,-0.286068 -0.353233,-0.578558 3.6e-5,-0.872764 0.648907,-3.420989 1.950799,-7.661116 0.328191,-1.068886 0.640213,-2.086212 0.693382,-2.260724 l 0.09667,-0.317294 0.71255,-0.02268 0.71255,-0.02268 0.333749,0.934907 c 1.222725,3.425132 2.529805,7.603663 2.771067,8.858677 l 0.105092,0.546671 -0.270266,0.226692 c -0.359309,0.301379 -1.423862,0.823381 -2.013257,0.987197 -0.458508,0.127437 -2.33087,0.228156 -2.68434,0.144397 z m -4.658119,-1.69549 c -2.907713,-0.729443 -4.789849,-2.344149 -5.550672,-4.761982 -0.329483,-1.047074 -0.378511,-0.92322 0.632746,-1.598428 1.369793,-0.9146 3.035247,-1.889085 5.194257,-3.039248 l 1.121935,-0.597685 1.68914,0 c 0.929027,0 1.68914,0.01226 1.68914,0.02724 0,0.01498 -0.22786,0.702122 -0.506355,1.52698 -1.54857,4.586614 -2.71566,7.551964 -3.298586,8.38107 -0.174853,0.248695 -0.216913,0.251382 -0.971605,0.06206 z m 10.462164,-0.67516 C 30.756104,32.82492 29.969567,31.169302 29.423774,29.817558 28.924478,28.580972 27.39197,24.479823 27.317316,24.180464 l -0.0544,-0.21814 2.368389,0 2.368389,0 1.094284,0.600737 c 1.551074,0.851505 2.980115,1.722203 3.736315,2.276492 l 0.649899,0.476372 -0.05471,0.439978 c -0.168141,1.352098 -1.220606,3.13548 -2.494512,4.226901 -0.998567,0.855524 -2.298457,1.522271 -3.168003,1.624952 l -0.435564,0.05143 -0.256576,-0.374682 z M 13.83896,26.718415 c -0.29159,-0.384097 -0.729604,-1.29534 -0.918919,-1.911718 -0.291191,-0.948062 -0.805858,-0.844971 4.195031,-0.840286 l 4.362052,0.0041 -0.868463,0.44521 c -1.889785,0.968781 -4.546067,2.131116 -5.56065,2.433226 -0.688496,0.205012 -0.978062,0.173754 -1.209051,-0.130517 z"
         style="fill:#000000;fill-opacity:1" />
      <path
         inkscape:connector-curvature="0"
         id="path3988"
         d="m 24.55622,37.842746 c -5.124607,-0.395526 -9.712144,-3.294238 -12.300854,-7.772501 -0.38748,-0.67031 -0.923468,-1.781019 -0.923468,-1.913671 0,-0.03818 0.392774,-0.06942 0.872831,-0.06942 l 0.872831,0 0.20418,0.448091 c 0.524195,1.150396 1.536091,2.558767 2.632351,3.663745 2.671133,2.692376 6.139709,4.145158 9.906453,4.149231 2.258854,0.0024 4.053109,-0.391463 5.999183,-1.317043 1.122421,-0.533839 1.784182,-0.945324 2.789828,-1.734724 1.538331,-1.207539 2.977922,-2.973048 3.81106,-4.673866 0.291133,-0.594338 0.37341,-0.631324 0.81805,-0.367743 0.328775,0.194898 0.436704,0.365348 0.436704,0.689681 0,0.806926 -1.289214,2.752211 -2.87631,4.340042 -2.099632,2.100604 -4.544391,3.470216 -7.426818,4.160676 -1.536335,0.368017 -3.305798,0.514064 -4.816021,0.397502 z m 0.276329,-2.298515 c -0.654838,-0.176084 -1.422607,-0.540451 -1.756664,-0.833676 -0.163004,-0.143079 -0.217116,-0.263177 -0.217116,-0.481878 0,-0.624575 0.603675,-3.173156 1.271531,-5.368118 l 0.235323,-0.773405 2.046926,0 2.046926,0 0.513414,1.606303 c 0.556309,1.740511 1.004828,3.334579 1.157233,4.112891 l 0.09619,0.491231 -0.269133,0.224786 c -0.3631,0.303271 -1.424365,0.823324 -2.006058,0.98303 -0.276624,0.07595 -0.900719,0.144204 -1.500072,0.164059 -0.853047,0.02826 -1.126357,0.0071 -1.618499,-0.125223 z m -4.353471,-1.628289 c -2.538906,-0.700316 -4.136683,-1.903497 -5.035893,-3.792201 -0.412454,-0.866322 -0.692044,-1.873689 -0.545868,-1.966776 0.113156,-0.07206 9.066769,-0.09889 9.066769,-0.02717 0,0.08097 -1.011347,2.776048 -1.383036,3.685569 -0.652187,1.595902 -1.049867,2.304951 -1.286942,2.294574 -0.07303,-0.0032 -0.439798,-0.0905 -0.81503,-0.193997 z m 10.641801,-0.576487 c -0.314,-0.410836 -1.110799,-2.0965 -1.777979,-3.761392 -0.309536,-0.772422 -0.562793,-1.423867 -0.562793,-1.447657 0,-0.02379 1.934362,-0.04325 4.298584,-0.04325 l 4.298583,0 -0.122914,0.41585 c -0.641198,2.169332 -2.846638,4.369984 -5.00015,4.989296 -0.73328,0.210877 -0.869365,0.192524 -1.133331,-0.152845 z"
         style="fill:#000000;fill-opacity:1" />
      <path
         inkscape:connector-curvature="0"
         id="path3990"
         d="M 24.635171,37.836383 C 20.717059,37.55403 17.178526,35.875484 14.486863,33.022413 l -0.802,-0.850092 1.040836,-0.02218 1.040835,-0.02218 0.605186,0.542593 c 2.986917,2.677982 6.657404,3.954588 10.52755,3.661512 3.132617,-0.237224 6.16568,-1.54495 8.447801,-3.642324 l 0.606153,-0.557082 0.958593,0 0.958594,0 -0.617331,0.67404 c -3.20157,3.495673 -7.902416,5.369499 -12.617909,5.029683 z m 0.360965,-2.251953 c -0.600089,-0.137133 -1.520053,-0.561809 -1.880775,-0.868212 -0.193857,-0.164664 -0.256592,-0.281972 -0.256592,-0.479801 0,-0.236189 0.255306,-1.621118 0.362228,-1.964941 0.04019,-0.129231 0.265726,-0.138816 3.266198,-0.138816 l 3.223028,0 0.166633,0.620464 c 0.09165,0.341255 0.20491,0.828497 0.251692,1.082761 0.08384,0.455692 0.08187,0.464927 -0.138246,0.646259 -0.350189,0.288489 -1.353423,0.790625 -1.960231,0.981128 -0.726008,0.227926 -2.292898,0.290499 -3.033935,0.121158 z M 20.52971,33.92015 c -1.320676,-0.343586 -2.582265,-0.936815 -3.276474,-1.540676 l -0.276329,-0.240367 2.704078,-0.0032 c 2.113952,-0.0025 2.703394,0.01842 2.700948,0.09593 -0.0064,0.204258 -0.9096,1.84486 -1.023236,1.858735 -0.06513,0.008 -0.438179,-0.06873 -0.828987,-0.170399 z M 31.188138,33.382007 C 31.07589,33.240216 30.85915,32.901108 30.706494,32.628432 l -0.277556,-0.495772 2.154968,0 2.154969,0 -0.433209,0.317671 c -0.801579,0.587797 -2.205522,1.189478 -2.77549,1.189478 -0.07587,0 -0.229789,-0.116011 -0.342038,-0.257802 z"
         style="fill:#000000;fill-opacity:1" />
    </g>
    <g
       id="g3192"
       transform="translate(-1.189734,-0.327735)"
       style="fill:#f7f7f7;fill-opacity:1">
      <path
         style="fill:#f7f7f7;fill-opacity:1"
         d="M 24.319366,37.869134 C 20.324839,37.521513 16.423027,35.473531 13.793961,32.344563 11.281407,29.354262 9.911384,25.329274 10.100368,21.493164 10.294936,17.543715 11.799305,14.025654 14.48299,11.244129 15.774774,9.90525 17.001198,9.0007959 18.848691,8.0245431 l 1.082273,-0.5718946 0.398061,0.7969735 c 0.421318,0.8435327 0.457191,0.9584084 0.299374,0.9586616 -0.172672,2.776e-4 -1.731663,0.8196224 -2.427749,1.2759304 -3.11527,2.042167 -5.346396,5.372595 -6.081593,9.078062 -0.24618,1.240771 -0.302851,3.409983 -0.120133,4.598357 0.501918,3.264409 1.768193,5.817963 3.994022,8.054293 1.763771,1.772092 3.961733,3.039387 6.335592,3.652959 5.845778,1.510958 11.823225,-0.786974 15.225936,-5.853362 0.360114,-0.536184 1.016404,-1.72267 1.106379,-2.000189 0.04781,-0.147456 0.822646,0.264287 0.995162,0.528821 0.264767,0.405991 -0.107792,1.360413 -1.042821,2.671503 -2.618061,3.671024 -6.486505,5.999697 -10.94925,6.59108 -0.793355,0.105131 -2.494471,0.137377 -3.344578,0.0634 z m 0.868463,-2.198391 c -0.968746,-0.188304 -2.118163,-0.762451 -2.332699,-1.165207 -0.123514,-0.231876 0.02043,-1.081191 0.516446,-3.047127 0.38269,-1.516783 1.389647,-4.969111 2.151713,-7.3771 l 0.301246,-0.951883 0.439406,-0.02343 0.439407,-0.02343 0.176986,0.420048 c 0.721276,1.711828 2.724784,7.841854 3.162344,9.675657 0.259509,1.087598 0.244092,1.15809 -0.34037,1.5563 -1.239551,0.84454 -3.052147,1.22042 -4.514479,0.936171 z M 20.608661,33.992547 C 17.804135,33.286733 16.089536,31.905403 15.157566,29.60099 15.049492,29.333762 14.912227,28.904775 14.852533,28.647684 L 14.744,28.180245 15.505173,27.666933 c 1.86896,-1.26037 5.118428,-3.093731 8.508436,-4.800493 l 0.957462,-0.482051 0.364205,0.350616 0.364205,0.350616 -0.270155,0.895474 c -0.305135,1.011416 -1.591958,4.727613 -2.094783,6.049488 -0.877895,2.307899 -1.637685,3.949516 -1.886221,4.0754 -0.07863,0.03983 -0.406892,-0.0045 -0.839661,-0.113436 z m 10.54725,-0.554848 C 30.537803,32.73039 28.59011,28.076703 27.113332,23.778626 l -0.267528,-0.778625 0.219908,-0.162088 c 0.226695,-0.16709 0.530128,-0.679471 0.530128,-0.895182 0,-0.06718 0.05128,-0.122146 0.113964,-0.122146 0.180764,0 5.175605,2.538808 6.438983,3.272845 1.331864,0.773828 1.862284,1.109537 2.704078,1.711441 l 0.611871,0.437503 -0.0011,0.402559 c -0.0014,0.538593 -0.365969,1.566993 -0.840958,2.372313 -0.52874,0.896454 -1.961439,2.334783 -2.829215,2.840335 -0.665855,0.387916 -1.519591,0.726555 -2.06004,0.817127 -0.301948,0.0506 -0.339782,0.03508 -0.577555,-0.237009 z M 13.82259,26.776176 c -1.007637,-1.327313 -1.506286,-3.71122 -1.198126,-5.727916 0.201426,-1.31819 0.859665,-3.054125 1.252473,-3.303071 0.182393,-0.115594 1.390666,0.125502 3.020541,0.60271 1.559244,0.456529 5.46111,1.805072 6.948181,2.401394 l 1.026365,0.411577 0.01884,0.550089 0.01884,0.550088 -1.36101,0.722019 c -1.373554,0.728672 -4.997945,2.503201 -6.01913,2.947011 -1.663616,0.723014 -2.843784,1.125869 -3.298237,1.125869 -0.131904,0 -0.266058,-0.09182 -0.408738,-0.27977 z m 9.628313,-6.294811 c -4.215774,-1.686087 -7.644022,-3.278016 -8.317804,-3.862425 -0.405772,-0.351948 -0.406606,-0.442293 -0.01321,-1.431894 0.488095,-1.227817 1.412957,-2.443538 2.472825,-3.250497 0.644712,-0.490869 1.904292,-1.086519 2.734912,-1.293329 1.129426,-0.281207 1.111969,-0.289692 1.861699,0.904953 1.19052,1.897019 4.256033,8.712938 3.959321,8.803231 -0.0508,0.01546 -0.190952,0.04984 -0.31146,0.07641 -0.120509,0.02656 -0.355747,0.172329 -0.522752,0.323919 -0.167005,0.151591 -0.352631,0.273553 -0.412503,0.271026 -0.05987,-0.0025 -0.712834,-0.246152 -1.451028,-0.54139 z"
         id="path3206"
         inkscape:connector-curvature="0" />
      <path
         style="fill:#f7f7f7;fill-opacity:1"
         d="M 24.55622,37.873614 C 18.163279,37.34616 12.843458,33.11023 10.870902,26.976623 c -0.531185,-1.651708 -0.733998,-2.996275 -0.735851,-4.878405 -0.002,-2.00452 0.410602,-4.139768 1.134202,-5.86995 l 0.265399,-0.634589 0.964464,-0.02227 c 0.530455,-0.01225 0.964464,-0.0024 0.964464,0.02181 0,0.02425 -0.121685,0.286857 -0.270411,0.583581 -0.148726,0.296724 -0.394578,0.897905 -0.546339,1.335958 -1.385599,3.999504 -0.965058,8.329105 1.158092,11.922899 2.195123,3.715619 5.903343,6.180405 10.211643,6.787489 1.32552,0.18678 3.340365,0.11873 4.650603,-0.157069 4.235315,-0.891516 7.828044,-3.653816 9.738683,-7.487668 l 0.328388,-0.658938 0.292925,0.172901 c 0.161109,0.0951 0.394402,0.280415 0.518431,0.411822 0.19813,0.209917 0.219245,0.278255 0.173938,0.562929 -0.213168,1.339363 -2.800957,4.464839 -4.932484,5.957348 -1.998922,1.399657 -4.340682,2.340966 -6.720508,2.701419 -0.832519,0.126095 -2.779437,0.208028 -3.510321,0.147725 z m 1.035391,-2.18084 c -0.921804,-0.09516 -1.644791,-0.359886 -2.397299,-0.877776 -0.314599,-0.216513 -0.335542,-0.254208 -0.335529,-0.603903 3.6e-5,-1.003617 0.971262,-4.670707 2.611827,-9.861565 l 0.391562,-1.238929 0.417791,-0.0038 c 0.481278,-0.0043 0.373404,-0.16954 0.998944,1.529746 1.351064,3.670183 2.922321,8.791318 2.922321,9.524607 0,0.374751 -1.267937,1.098717 -2.40801,1.374925 -0.801209,0.19411 -1.415499,0.237825 -2.201607,0.156671 z m -5.189099,-1.776196 c -2.741395,-0.756257 -4.531281,-2.280885 -5.285733,-4.502396 -0.12193,-0.359028 -0.244906,-0.782135 -0.273279,-0.94024 -0.05152,-0.287064 -0.05067,-0.288096 0.606678,-0.743423 1.535987,-1.063928 4.479951,-2.738655 7.739556,-4.402784 l 1.786811,-0.912222 0.224068,0.219077 c 0.123239,0.120494 0.282301,0.263276 0.353471,0.317295 0.118084,0.08963 0.103082,0.184944 -0.171513,1.089763 -0.803181,2.646563 -2.663293,7.659478 -3.369241,9.079951 -0.558042,1.122863 -0.509354,1.098835 -1.610818,0.794979 z M 31.188361,33.447207 C 30.601119,32.821612 28.98125,28.972191 27.24186,24.06883 l -0.370232,-1.043686 0.28645,-0.265154 c 0.157548,-0.145834 0.335548,-0.407936 0.395554,-0.582448 0.08122,-0.236207 0.145953,-0.310402 0.253295,-0.290322 0.211886,0.03964 4.706427,2.3141 5.947104,3.009533 1.184895,0.664167 2.275258,1.343231 3.13642,1.953325 0.523351,0.370769 0.570663,0.427387 0.572396,0.684975 0.0069,1.02901 -0.825151,2.692726 -1.941187,3.881365 -1.090992,1.161965 -2.255902,1.866445 -3.611828,2.184253 l -0.473285,0.110931 -0.248186,-0.264395 z M 14.095189,26.99719 c -0.163437,-0.03457 -0.673932,-0.848204 -0.957209,-1.525605 -0.8864,-2.119649 -0.709126,-5.141744 0.424673,-7.239623 l 0.256207,-0.474063 0.552658,0.04293 c 0.622212,0.04833 1.578701,0.285141 3.31595,0.820984 1.481249,0.456882 4.799254,1.621188 6.160758,2.161843 l 1.028933,0.40859 -0.01075,0.532312 -0.01075,0.532312 -1.531369,0.811347 c -2.859492,1.515008 -6.734865,3.308625 -8.043142,3.72256 -0.435086,0.137661 -1.025349,0.240396 -1.185968,0.206418 z m 9.237287,-6.596887 c -5.09794,-2.051735 -8.280835,-3.597365 -8.485998,-4.120845 -0.02316,-0.0591 -5.52e-4,-0.246787 0.05021,-0.417078 l 0.09233,-0.30962 4.622659,0.02046 4.62266,0.02046 0.501282,1.110531 c 0.463389,1.026581 1.284336,3.039113 1.391942,3.412309 0.03882,0.134648 -0.01641,0.182363 -0.348157,0.300744 -0.23831,0.08504 -0.462623,0.233551 -0.567001,0.375395 -0.09498,0.12908 -0.210428,0.233018 -0.256541,0.230974 -0.04611,-0.002 -0.776638,-0.282542 -1.62339,-0.623329 z"
         id="path3204"
         inkscape:connector-curvature="0" />
      <path
         style="fill:#f7f7f7;fill-opacity:1"
         d="M 24.595695,37.873981 C 23.834645,37.819319 22.610559,37.601054 21.674502,37.353108 16.176754,35.896841 11.87215,31.427181 10.538353,25.789954 10.030251,23.642485 10.00621,20.961415 10.475908,18.826118 l 0.09161,-0.41645 0.888228,0 0.888229,0 -0.109425,0.41645 c -0.376023,1.43106 -0.502968,3.88756 -0.277723,5.374177 0.487888,3.220064 1.91493,6.002645 4.216985,8.222679 2.140518,2.064253 4.767289,3.34788 7.776604,3.800204 1.089026,0.163689 3.401432,0.122255 4.388008,-0.07863 3.326505,-0.67732 5.897009,-2.139617 8.086671,-4.600307 0.619682,-0.696384 1.649635,-2.239095 2.024199,-3.031939 l 0.28118,-0.595177 0.294809,0.176147 c 0.536741,0.320698 0.687764,0.515741 0.678359,0.876083 -0.01091,0.417879 -0.488667,1.366704 -1.193396,2.370064 -0.753716,1.073105 -2.588006,2.890197 -3.711832,3.677032 -2.024104,1.417154 -4.588087,2.424792 -6.981787,2.743824 -0.699367,0.09321 -2.58127,0.159644 -3.220928,0.113702 z m 1.144792,-2.179765 c -0.994793,-0.07508 -1.76337,-0.340477 -2.546175,-0.879218 -0.318394,-0.219125 -0.335543,-0.250937 -0.335543,-0.622471 0,-0.966707 1.066718,-4.968825 2.653436,-9.955179 l 0.354214,-1.113139 0.415385,-0.006 0.415384,-0.006 0.221635,0.563906 c 0.823339,2.094822 2.576939,7.464234 3.041324,9.312343 0.318369,1.26701 0.315875,1.309516 -0.09446,1.61026 -1.119608,0.820586 -2.590994,1.211354 -4.125199,1.095563 z m -5.291419,-1.77131 C 17.966567,33.277947 16.324915,32.018634 15.391043,30.04289 15.140939,29.513756 14.80575,28.497107 14.80575,28.267659 c 0,-0.318832 4.452386,-2.932078 8.551674,-5.019248 l 1.635847,-0.832898 0.139314,0.181435 c 0.07662,0.09979 0.231513,0.242573 0.344199,0.317295 l 0.204884,0.135859 -0.450624,1.427826 c -1.281852,4.061609 -3.160451,8.889965 -3.69584,9.499006 -0.153657,0.174796 -0.217618,0.171615 -1.086136,-0.05403 z M 31.355826,33.624703 C 30.820934,33.32395 29.182285,29.504827 27.206805,23.954768 l -0.327385,-0.919776 0.318879,-0.320385 c 0.176783,-0.177616 0.34095,-0.431255 0.368408,-0.569191 0.02724,-0.136845 0.07579,-0.265116 0.107888,-0.285047 0.07772,-0.04826 4.484014,2.150387 5.882058,2.935021 1.334416,0.748923 2.473966,1.451238 3.292703,2.029321 0.691296,0.4881 0.702836,0.521399 0.492512,1.42109 -0.457385,1.95653 -2.390084,4.169219 -4.372673,5.006145 -0.712109,0.300608 -1.441834,0.469205 -1.613369,0.372757 z M 13.604117,26.361864 c -0.695106,-1.172076 -1.009,-2.395488 -1.009,-3.932616 0,-1.417131 0.257506,-2.686955 0.754805,-3.722116 l 0.142903,-0.297464 1.765141,0 1.765141,0 1.003265,0.325231 c 1.649199,0.534623 4.559642,1.564235 5.742771,2.03159 l 1.107753,0.437579 -0.01156,0.520043 -0.01156,0.520043 -1.096192,0.592019 c -1.334201,0.72056 -5.428731,2.716677 -6.622774,3.228657 -1.245266,0.533943 -2.412554,0.911793 -2.816795,0.911793 l -0.349311,0 -0.364586,-0.614759 z m 10.478395,-5.667116 c -1.141697,-0.457199 -4.675167,-1.927784 -5.09235,-2.119372 l -0.35528,-0.163159 3.42483,0.01856 3.42483,0.01856 0.303768,0.78441 c 0.41954,1.083362 0.418623,1.079696 0.270157,1.079696 -0.206939,0 -0.725334,0.297603 -0.894275,0.513391 -0.08635,0.110287 -0.187406,0.196824 -0.224579,0.192304 -0.03717,-0.0045 -0.422869,-0.150493 -0.857101,-0.324383 z"
         id="path3202"
         inkscape:connector-curvature="0" />
      <path
         style="fill:#f7f7f7;fill-opacity:1"
         d="M 24.674646,37.873525 C 17.274122,37.347326 11.261659,31.661064 10.2643,24.245 10.200132,23.767866 10.147631,22.777312 10.147631,22.043769 l 0,-1.333715 0.848725,1.1e-5 0.848725,1.1e-5 0.0049,1.447645 c 0.0052,1.533453 0.08552,2.239007 0.397165,3.489847 0.627664,2.519207 1.741345,4.520272 3.577619,6.428278 2.175567,2.260553 4.886162,3.648051 8.099817,4.146131 1.079341,0.167286 3.420874,0.125125 4.460741,-0.08032 3.516196,-0.694681 6.469472,-2.514852 8.626316,-5.316593 0.562325,-0.73046 1.286847,-1.904375 1.564318,-2.534605 l 0.155961,-0.354239 0.294071,0.168415 c 0.410449,0.235065 0.576974,0.388446 0.66074,0.60859 0.303016,0.796341 -1.704832,3.660587 -3.84052,5.478602 -2.194639,1.868197 -5.175498,3.194575 -8.013544,3.565747 -0.702948,0.09193 -2.544743,0.159556 -3.158047,0.115948 z m 0.230251,-2.287249 c -0.587339,-0.149689 -1.260129,-0.454353 -1.692881,-0.766598 -0.327535,-0.236327 -0.353247,-0.280601 -0.353247,-0.608253 0,-0.983456 0.943773,-4.535178 2.575872,-9.693836 l 0.439188,-1.388163 0.394489,0 c 0.480691,0 0.425762,-0.09 1.113458,1.824443 1.242287,3.458341 2.426582,7.229251 2.719583,8.659411 l 0.139058,0.678748 -0.270052,0.226513 c -0.377283,0.316455 -1.207199,0.739029 -1.861343,0.947753 -0.711459,0.227012 -2.518642,0.294684 -3.204125,0.119982 z M 20.599091,33.96235 c -2.383937,-0.580519 -4.146322,-1.847901 -5.073088,-3.648204 -0.285675,-0.554944 -0.720253,-1.776227 -0.720253,-2.024109 0,-0.35207 5.565102,-3.589308 9.553092,-5.557065 l 0.592133,-0.292172 0.347878,0.333095 0.347879,0.333094 -0.264108,0.883779 c -0.804811,2.693112 -2.656485,7.695369 -3.410268,9.212761 -0.500113,1.006745 -0.45577,0.982242 -1.373265,0.758821 z m 10.464342,-0.688636 c -0.6837,-0.998412 -2.254404,-4.789512 -3.743108,-9.034486 l -0.417536,-1.190584 0.29272,-0.29059 c 0.160996,-0.159825 0.335408,-0.433736 0.387579,-0.608694 l 0.09486,-0.318102 0.757711,0.353336 c 3.229243,1.505866 6.88925,3.536217 8.466623,4.696774 l 0.582336,0.428454 -0.05185,0.443247 c -0.209838,1.793817 -1.80593,3.990114 -3.718211,5.116432 -0.657574,0.387306 -1.700238,0.767766 -2.108151,0.769247 -0.259109,9.44e-4 -0.320721,-0.04048 -0.542971,-0.365034 z m -17.22989,-6.554893 c -0.867971,-1.173195 -1.27782,-2.734145 -1.22393,-4.661448 0.01771,-0.633257 0.05931,-1.195463 0.09246,-1.249348 0.04691,-0.07625 1.271111,-0.09745 5.522975,-0.09564 l 5.462709,0.0023 0.580498,0.255465 0.580498,0.255467 0.0072,0.506529 0.0072,0.506529 -1.140345,0.604805 c -3.184465,1.688943 -7.201025,3.552391 -8.550335,3.966853 -0.801813,0.246288 -1.104262,0.225608 -1.338909,-0.09155 z m 10.80756,-5.816696 c -0.453333,-0.166846 -0.440199,-0.192071 0.100005,-0.192071 0.467771,0 0.483537,0.0064 0.388923,0.158648 -0.113855,0.183171 -0.08703,0.181337 -0.488928,0.03342 z"
         id="path3200"
         inkscape:connector-curvature="0" />
      <path
         style="fill:#f7f7f7;fill-opacity:1"
         d="M 24.714122,37.872028 C 23.060396,37.770962 21.003867,37.254278 19.36455,36.527995 14.9246,34.56092 11.530841,30.364461 10.516989,25.58779 10.405946,25.064622 10.294565,24.483655 10.269475,24.296752 l -0.04562,-0.339823 0.849965,0.02253 0.849966,0.02253 0.09152,0.604394 c 0.507116,3.349015 2.588659,6.794995 5.356356,8.867409 2.030306,1.520266 3.984047,2.34496 6.513472,2.749402 1.21706,0.194601 3.647953,0.119379 4.856544,-0.150283 3.681788,-0.821484 6.76603,-2.921637 8.809547,-5.99868 0.286396,-0.431245 0.670121,-1.072602 0.852721,-1.425239 0.182601,-0.352638 0.361716,-0.641159 0.398033,-0.641159 0.03632,0 0.238805,0.116011 0.449973,0.257802 0.356514,0.239387 0.385627,0.283926 0.407554,0.623522 0.02952,0.457155 -0.185619,0.959337 -0.828818,1.934665 -2.185126,3.313464 -5.591728,5.715226 -9.39284,6.622247 -1.380113,0.329323 -3.369555,0.50872 -4.723727,0.425962 z m 0.552658,-2.216871 c -0.982638,-0.232847 -1.525441,-0.453554 -2.054764,-0.835479 -0.319208,-0.23032 -0.353245,-0.286068 -0.353233,-0.578558 3.6e-5,-0.872764 0.648907,-3.420989 1.950799,-7.661116 0.328191,-1.068886 0.640213,-2.086212 0.693382,-2.260724 l 0.09667,-0.317294 0.71255,-0.02268 0.71255,-0.02268 0.333749,0.934907 c 1.222725,3.425132 2.529805,7.603663 2.771067,8.858677 l 0.105092,0.546671 -0.270266,0.226692 c -0.359309,0.301379 -1.423862,0.823381 -2.013257,0.987197 -0.458508,0.127437 -2.33087,0.228156 -2.68434,0.144397 z m -4.658119,-1.69549 c -2.907713,-0.729443 -4.789849,-2.344149 -5.550672,-4.761982 -0.329483,-1.047074 -0.378511,-0.92322 0.632746,-1.598428 1.369793,-0.9146 3.035247,-1.889085 5.194257,-3.039248 l 1.121935,-0.597685 1.68914,0 c 0.929027,0 1.68914,0.01226 1.68914,0.02724 0,0.01498 -0.22786,0.702122 -0.506355,1.52698 -1.54857,4.586614 -2.71566,7.551964 -3.298586,8.38107 -0.174853,0.248695 -0.216913,0.251382 -0.971605,0.06206 z m 10.462164,-0.67516 C 30.756104,32.82492 29.969567,31.169302 29.423774,29.817558 28.924478,28.580972 27.39197,24.479823 27.317316,24.180464 l -0.0544,-0.21814 2.368389,0 2.368389,0 1.094284,0.600737 c 1.551074,0.851505 2.980115,1.722203 3.736315,2.276492 l 0.649899,0.476372 -0.05471,0.439978 c -0.168141,1.352098 -1.220606,3.13548 -2.494512,4.226901 -0.998567,0.855524 -2.298457,1.522271 -3.168003,1.624952 l -0.435564,0.05143 -0.256576,-0.374682 z M 13.83896,26.718415 c -0.29159,-0.384097 -0.729604,-1.29534 -0.918919,-1.911718 -0.291191,-0.948062 -0.805858,-0.844971 4.195031,-0.840286 l 4.362052,0.0041 -0.868463,0.44521 c -1.889785,0.968781 -4.546067,2.131116 -5.56065,2.433226 -0.688496,0.205012 -0.978062,0.173754 -1.209051,-0.130517 z"
         id="path3198"
         inkscape:connector-curvature="0" />
      <path
         style="fill:#f7f7f7;fill-opacity:1"
         d="m 24.55622,37.842746 c -5.124607,-0.395526 -9.712144,-3.294238 -12.300854,-7.772501 -0.38748,-0.67031 -0.923468,-1.781019 -0.923468,-1.913671 0,-0.03818 0.392774,-0.06942 0.872831,-0.06942 l 0.872831,0 0.20418,0.448091 c 0.524195,1.150396 1.536091,2.558767 2.632351,3.663745 2.671133,2.692376 6.139709,4.145158 9.906453,4.149231 2.258854,0.0024 4.053109,-0.391463 5.999183,-1.317043 1.122421,-0.533839 1.784182,-0.945324 2.789828,-1.734724 1.538331,-1.207539 2.977922,-2.973048 3.81106,-4.673866 0.291133,-0.594338 0.37341,-0.631324 0.81805,-0.367743 0.328775,0.194898 0.436704,0.365348 0.436704,0.689681 0,0.806926 -1.289214,2.752211 -2.87631,4.340042 -2.099632,2.100604 -4.544391,3.470216 -7.426818,4.160676 -1.536335,0.368017 -3.305798,0.514064 -4.816021,0.397502 z m 0.276329,-2.298515 c -0.654838,-0.176084 -1.422607,-0.540451 -1.756664,-0.833676 -0.163004,-0.143079 -0.217116,-0.263177 -0.217116,-0.481878 0,-0.624575 0.603675,-3.173156 1.271531,-5.368118 l 0.235323,-0.773405 2.046926,0 2.046926,0 0.513414,1.606303 c 0.556309,1.740511 1.004828,3.334579 1.157233,4.112891 l 0.09619,0.491231 -0.269133,0.224786 c -0.3631,0.303271 -1.424365,0.823324 -2.006058,0.98303 -0.276624,0.07595 -0.900719,0.144204 -1.500072,0.164059 -0.853047,0.02826 -1.126357,0.0071 -1.618499,-0.125223 z m -4.353471,-1.628289 c -2.538906,-0.700316 -4.136683,-1.903497 -5.035893,-3.792201 -0.412454,-0.866322 -0.692044,-1.873689 -0.545868,-1.966776 0.113156,-0.07206 9.066769,-0.09889 9.066769,-0.02717 0,0.08097 -1.011347,2.776048 -1.383036,3.685569 -0.652187,1.595902 -1.049867,2.304951 -1.286942,2.294574 -0.07303,-0.0032 -0.439798,-0.0905 -0.81503,-0.193997 z m 10.641801,-0.576487 c -0.314,-0.410836 -1.110799,-2.0965 -1.777979,-3.761392 -0.309536,-0.772422 -0.562793,-1.423867 -0.562793,-1.447657 0,-0.02379 1.934362,-0.04325 4.298584,-0.04325 l 4.298583,0 -0.122914,0.41585 c -0.641198,2.169332 -2.846638,4.369984 -5.00015,4.989296 -0.73328,0.210877 -0.869365,0.192524 -1.133331,-0.152845 z"
         id="path3196"
         inkscape:connector-curvature="0" />
      <path
         style="fill:#f7f7f7;fill-opacity:1"
         d="M 24.635171,37.836383 C 20.717059,37.55403 17.178526,35.875484 14.486863,33.022413 l -0.802,-0.850092 1.040836,-0.02218 1.040835,-0.02218 0.605186,0.542593 c 2.986917,2.677982 6.657404,3.954588 10.52755,3.661512 3.132617,-0.237224 6.16568,-1.54495 8.447801,-3.642324 l 0.606153,-0.557082 0.958593,0 0.958594,0 -0.617331,0.67404 c -3.20157,3.495673 -7.902416,5.369499 -12.617909,5.029683 z m 0.360965,-2.251953 c -0.600089,-0.137133 -1.520053,-0.561809 -1.880775,-0.868212 -0.193857,-0.164664 -0.256592,-0.281972 -0.256592,-0.479801 0,-0.236189 0.255306,-1.621118 0.362228,-1.964941 0.04019,-0.129231 0.265726,-0.138816 3.266198,-0.138816 l 3.223028,0 0.166633,0.620464 c 0.09165,0.341255 0.20491,0.828497 0.251692,1.082761 0.08384,0.455692 0.08187,0.464927 -0.138246,0.646259 -0.350189,0.288489 -1.353423,0.790625 -1.960231,0.981128 -0.726008,0.227926 -2.292898,0.290499 -3.033935,0.121158 z M 20.52971,33.92015 c -1.320676,-0.343586 -2.582265,-0.936815 -3.276474,-1.540676 l -0.276329,-0.240367 2.704078,-0.0032 c 2.113952,-0.0025 2.703394,0.01842 2.700948,0.09593 -0.0064,0.204258 -0.9096,1.84486 -1.023236,1.858735 -0.06513,0.008 -0.438179,-0.06873 -0.828987,-0.170399 z M 31.188138,33.382007 C 31.07589,33.240216 30.85915,32.901108 30.706494,32.628432 l -0.277556,-0.495772 2.154968,0 2.154969,0 -0.433209,0.317671 c -0.801579,0.587797 -2.205522,1.189478 -2.77549,1.189478 -0.07587,0 -0.229789,-0.116011 -0.342038,-0.257802 z"
         id="path3194"
         inkscape:connector-curvature="0" />
    </g>
  </g>
  <g
     inkscape:label="Symbol"
     inkscape:groupmode="layer"
     id="layer1"
     transform="translate(0,-1004.3622)"
     style="display:inline" />
  <g
     inkscape:groupmode="layer"
     id="layer4"
     inkscape:label="Inset"
     sodipodi:insensitive="true"
     style="display:inline">
    <path
       style="opacity:0.15;fill:#000000;fill-opacity:1;stroke:none"
       d="m 2,34 0,3 c 0,4.986 4.014,9 9,9 l 26,0 c 4.986,0 9,-4.014 9,-9 l 0,-3 c 0,4.986 -4.014,9 -9,9 L 11,43 C 6.014,43 2,38.986 2,34 z"
       id="rect3038-42"
       inkscape:connector-curvature="0" />
  </g>
  <g
     inkscape:groupmode="layer"
     id="layer7"
     inkscape:label="Baseshape"
     sodipodi:insensitive="true"
     style="display:none">
    <rect
       rx="9"
       ry="9"
       y="2"
       x="2"
       height="44"
       width="44"
       id="rect4169"
       style="fill:#abe1ad;fill-opacity:1;stroke:none;display:inline" />
  </g>
</svg>
