<?xml version="1.0" encoding="UTF-8" standalone="no"?>
<!-- Created with Inkscape (http://www.inkscape.org/) -->

<svg
   xmlns:dc="http://purl.org/dc/elements/1.1/"
   xmlns:cc="http://creativecommons.org/ns#"
   xmlns:rdf="http://www.w3.org/1999/02/22-rdf-syntax-ns#"
   xmlns:svg="http://www.w3.org/2000/svg"
   xmlns="http://www.w3.org/2000/svg"
   xmlns:xlink="http://www.w3.org/1999/xlink"
   xmlns:sodipodi="http://sodipodi.sourceforge.net/DTD/sodipodi-0.dtd"
   xmlns:inkscape="http://www.inkscape.org/namespaces/inkscape"
   width="48"
   height="48"
   id="svg4230"
   version="1.1"
   inkscape:version="0.91pre2 r13566 custom"
   sodipodi:docname="audacity.svg">
  <defs
     id="defs4232">
    <linearGradient
       id="linearGradient4524">
      <stop
         style="stop-color:#e53929;stop-opacity:1"
         offset="0"
         id="stop4526" />
      <stop
         style="stop-color:#eb6255;stop-opacity:1"
         offset="1"
         id="stop4528" />
    </linearGradient>
    <linearGradient
       id="linearGradient4243">
      <stop
         style="stop-color:#000000;stop-opacity:1;"
         offset="0"
         id="stop4245" />
      <stop
         style="stop-color:#000000;stop-opacity:0;"
         offset="1"
         id="stop4247" />
    </linearGradient>
    <radialGradient
       inkscape:collect="always"
       xlink:href="#linearGradient4243"
       id="radialGradient4274"
       gradientUnits="userSpaceOnUse"
       gradientTransform="matrix(1.0434782,0,0,0.1956518,-1.0434797,35.184809)"
       cx="24.000001"
       cy="42.499991"
       fx="24.000001"
       fy="42.499991"
       r="23" />
    <linearGradient
       inkscape:collect="always"
       xlink:href="#linearGradient4524"
       id="linearGradient4530"
       x1="24"
       y1="46"
       x2="24"
       y2="2"
       gradientUnits="userSpaceOnUse" />
  </defs>
  <sodipodi:namedview
     id="base"
     pagecolor="#ffffff"
     bordercolor="#666666"
     borderopacity="1.0"
     inkscape:pageopacity="0.0"
     inkscape:pageshadow="2"
     inkscape:zoom="11.313708"
     inkscape:cx="14.899833"
     inkscape:cy="19.123006"
     inkscape:document-units="px"
     inkscape:current-layer="layer1"
     showgrid="false"
     inkscape:showpageshadow="false"
     borderlayer="true"
     inkscape:window-width="1920"
     inkscape:window-height="954"
     inkscape:window-x="0"
     inkscape:window-y="25"
     inkscape:window-maximized="1"
     showguides="false"
     inkscape:guide-bbox="true">
    <inkscape:grid
       type="xygrid"
       id="grid4162" />
    <sodipodi:guide
       position="1.0000013,47.000017"
       orientation="46,0"
       id="guide4163" />
    <sodipodi:guide
       position="1.0000013,1.0000174"
       orientation="0,45.999999"
       id="guide4165" />
    <sodipodi:guide
       position="47,1.0000174"
       orientation="-46,0"
       id="guide4167" />
    <sodipodi:guide
       position="47,47.000017"
       orientation="0,-45.999999"
       id="guide4169" />
    <sodipodi:guide
       position="2.0000007,46.000017"
       orientation="44,0"
       id="guide4173" />
    <sodipodi:guide
       position="2.0000007,2.0000174"
       orientation="0,43.999999"
       id="guide4175" />
    <sodipodi:guide
       position="46,2.0000174"
       orientation="-44,0"
       id="guide4177" />
    <sodipodi:guide
       position="46,46.000017"
       orientation="0,-43.999999"
       id="guide4179" />
    <sodipodi:guide
       position="3,45.000017"
       orientation="42,0"
       id="guide4183" />
    <sodipodi:guide
       position="45,3.0000174"
       orientation="-42,0"
       id="guide4187" />
    <sodipodi:guide
       position="45,45.000017"
       orientation="0,-42"
       id="guide4189" />
    <sodipodi:guide
       position="3,45.000017"
       orientation="42,0"
       id="guide4193" />
    <sodipodi:guide
       position="3,3.0000174"
       orientation="0,42"
       id="guide4195" />
    <sodipodi:guide
       position="45,3.0000174"
       orientation="-42,0"
       id="guide4197" />
    <sodipodi:guide
       position="45,45.000017"
       orientation="0,-42"
       id="guide4199" />
    <sodipodi:guide
       position="3,10.000017"
       orientation="7,0"
       id="guide4203" />
    <sodipodi:guide
       position="3,3.0000174"
       orientation="0,42"
       id="guide4205" />
    <sodipodi:guide
       position="45,3.0000174"
       orientation="-7,0"
       id="guide4207" />
    <sodipodi:guide
       position="45,10.000017"
       orientation="0,-42"
       id="guide4209" />
  </sodipodi:namedview>
  <metadata
     id="metadata4235">
    <rdf:RDF>
      <cc:Work
         rdf:about="">
        <dc:format>image/svg+xml</dc:format>
        <dc:type
           rdf:resource="http://purl.org/dc/dcmitype/StillImage" />
        <dc:title></dc:title>
      </cc:Work>
    </rdf:RDF>
  </metadata>
  <g
     inkscape:groupmode="layer"
     id="layer3"
     inkscape:label="Fake blur shadow"
     style="display:inline"
     sodipodi:insensitive="true">
    <path
       style="opacity:0.06000001;fill:#000000;fill-opacity:1;stroke:none"
       d="M 10,1 C 5.014,1 1,5.014 1,10 l 0,28 c 0,4.986 4.014,9 9,9 l 28,0 c 4.986,0 9,-4.014 9,-9 L 47,10 C 47,5.014 42.986,1 38,1 L 10,1 Z m 0.5,0.5 27,0 c 4.986,0 9,4.014 9,9 l 0,27 c 0,4.986 -4.014,9 -9,9 l -27,0 c -4.986,0 -9,-4.014 -9,-9 l 0,-27 c 0,-4.986 4.014,-9 9,-9 z"
       id="rect3829"
       inkscape:connector-curvature="0" />
    <path
       style="opacity:0.12000002;fill:#000000;fill-opacity:1;stroke:none"
       d="m 10.5,1.5 c -4.986,0 -9,4.014 -9,9 l 0,27 c 0,4.986 4.014,9 9,9 l 27,0 c 4.986,0 9,-4.014 9,-9 l 0,-27 c 0,-4.986 -4.014,-9 -9,-9 l -27,0 z m 0.25,0.25 26.5,0 c 4.986,0 9,4.014 9,9 l 0,26.5 c 0,4.986 -4.014,9 -9,9 l -26.5,0 c -4.986,0 -9,-4.014 -9,-9 l 0,-26.5 c 0,-4.986 4.014,-9 9,-9 z"
       id="rect3827"
       inkscape:connector-curvature="0" />
    <rect
       style="opacity:0.23999999;fill:#000000;fill-opacity:1;stroke:none"
       id="rect3038-4"
       width="44.5"
       height="44.5"
       x="1.75"
       y="1.75"
       ry="9"
       rx="9" />
  </g>
  <g
     inkscape:groupmode="layer"
     id="layer6"
     inkscape:label="Blob"
     style="display:inline"
     sodipodi:insensitive="true">
    <path
       style="opacity:0.3;fill:url(#radialGradient4274);fill-opacity:1;stroke:none"
       d="M 1.03125,39 C 1.5192036,43.518898 5.3471961,47 10,47 l 28,0 c 4.652804,0 8.480796,-3.481102 8.96875,-8 l -45.9375,0 z"
       id="rect4241"
       inkscape:connector-curvature="0" />
  </g>
  <g
     inkscape:groupmode="layer"
     id="layer2"
     inkscape:label="Baseplate"
     style="display:inline"
     sodipodi:insensitive="true">
    <rect
       style="fill:url(#linearGradient4530);fill-opacity:1;stroke:none"
       id="rect3038"
       width="44"
       height="44"
       x="2"
       y="1.9999826"
       ry="9"
       rx="9" />
  </g>
  <g
     inkscape:label="Symbol"
     inkscape:groupmode="layer"
     id="layer1"
     transform="translate(0,-1004.3622)"
     style="display:inline">
    <path
       id="path4377"
       d="m 25.492188,1016.6376 c -0.440592,0.023 -1.036953,1.7125 -1.773438,3.1855 -1.071245,2.1425 -1.176851,2.2221 -2.623047,2.0079 -0.888165,-0.1317 -2.373044,5.6513 -4.097656,6.1601 -1.438446,0.4245 -2.252175,-8.7036 -3.564453,-9.5605 -1.163415,-0.7598 -2.125833,4.8448 -4.605469,8.4609 -1.2329645,1.7982 -4.5978882,0.3181 -6.828125,0.4648 l 0,2.5293 c 1.9655134,-0.084 4.5166972,0.069 6.6992188,1.0176 2.5989592,1.1298 0.9687114,7.688 3.8789062,8.8438 1.212955,0.4817 3.743341,-9.219 5.730469,-9.1582 1.760294,0.054 0.863663,6.3167 1.714844,6.5058 0.602565,0.1339 0.239757,-0.9898 0.77539,-0.8828 0.535611,0.1072 1.152106,2.7445 1.419922,3.2266 0.267816,0.482 1.347597,0.05 1.607422,0.3359 0.535633,0.5891 0.212676,4.3806 1.660156,4.3125 1.248319,-0.059 0.78492,-5.5327 1.052734,-8.2109 0.267808,-2.6781 1.704909,-3.7602 2.347657,-3.8672 0.642757,-0.1072 1.124319,-1.4061 1.808593,-1.3399 0.655271,0.063 0.336197,5.6776 1.003907,5.6914 0.964299,0.02 0.974961,-5.6292 2.167969,-5.8398 0.649602,-0.1147 1.341332,3.2006 1.876953,3.3613 0.535633,0.1608 0.988648,-2.2212 1.470703,-2.4355 0.482065,-0.2142 0.577723,2.0223 1.488281,1.9687 0.910574,-0.054 0.596115,-2.4497 2.529297,-3.0957 0.576392,-0.1925 2.801384,-0.2437 4.767578,-0.2597 l 0,-2.7735 c -1.434846,-0.051 -3.095008,-0.1153 -4.21875,-0.2187 -4.291041,-0.3944 -4.861111,-3.5253 -6.011719,-3.2149 -0.843609,0.2277 -0.884336,3.7225 -1.701172,3.8965 -0.683032,0.1456 -1.352012,-3.6121 -2.15625,-3.5215 -0.870666,0.098 -0.328798,2.7016 -2.685547,3.1836 -2.35677,0.4821 -2.80196,-6.8658 -3.230468,-9.5976 -0.133908,-0.8536 -0.303633,-1.1865 -0.503906,-1.1758 z"
       clip-path="none"
       style="display:inline;opacity:0.15;fill:#000000;fill-opacity:1;stroke:none"
       inkscape:connector-curvature="0"
       sodipodi:nodetypes="csccccccccccccccsccccccccccccccccc" />
    <path
       style="display:inline;fill:#ffffff;fill-opacity:1;stroke:none"
       clip-path="none"
       d="M 25.492188 10.275391 C 25.051596 10.298391 24.455235 11.987937 23.71875 13.460938 C 22.647505 15.603438 22.541899 15.68295 21.095703 15.46875 C 20.207538 15.33715 18.722659 21.120106 16.998047 21.628906 C 15.559601 22.053406 14.745872 12.925259 13.433594 12.068359 C 12.270179 11.308559 11.307761 16.913197 8.828125 20.529297 C 7.5951605 22.327454 4.2302368 22.847365 2 22.994141 L 2 23.523438 C 3.9655134 23.439451 6.5166972 23.592175 8.6992188 24.541016 C 11.298178 25.670816 9.6679302 32.228966 12.578125 33.384766 C 13.79108 33.866466 16.321466 24.165763 18.308594 24.226562 C 20.068888 24.280563 19.172257 30.543322 20.023438 30.732422 C 20.626003 30.866322 20.263195 29.742609 20.798828 29.849609 C 21.334439 29.956809 21.950934 32.594072 22.21875 33.076172 C 22.486566 33.558172 23.566347 33.126309 23.826172 33.412109 C 24.361805 34.001209 24.038848 37.792709 25.486328 37.724609 C 26.734647 37.665609 26.271248 32.191872 26.539062 29.513672 C 26.80687 26.835572 28.243971 25.753484 28.886719 25.646484 C 29.529476 25.539284 30.011038 24.240441 30.695312 24.306641 C 31.350583 24.369641 31.031509 29.984247 31.699219 29.998047 C 32.663518 30.018047 32.67418 24.368803 33.867188 24.158203 C 34.51679 24.043503 35.20852 27.358831 35.744141 27.519531 C 36.279774 27.680331 36.732789 25.298284 37.214844 25.083984 C 37.696909 24.869784 37.792567 27.106334 38.703125 27.052734 C 39.613699 26.998734 39.29924 24.603031 41.232422 23.957031 C 41.808814 23.764512 44.033806 23.713282 46 23.697266 L 46 22.923828 C 44.565154 22.873221 42.904992 22.808453 41.78125 22.705078 C 37.490209 22.310678 36.920139 17.179834 35.769531 17.490234 C 34.925922 17.717934 34.885195 21.212719 34.068359 21.386719 C 33.385327 21.532319 32.716347 17.774634 31.912109 17.865234 C 31.041443 17.963234 31.583311 20.566828 29.226562 21.048828 C 26.869792 21.530928 26.424602 14.182972 25.996094 11.451172 C 25.862186 10.597572 25.692461 10.264691 25.492188 10.275391 z "
       id="rect4357"
       transform="translate(0,1004.3622)" />
  </g>
  <g
     inkscape:groupmode="layer"
     id="layer4"
     inkscape:label="Inset"
     sodipodi:insensitive="true"
     style="display:none">
    <path
       style="opacity:0.15;fill:#000000;fill-opacity:1;stroke:none"
       d="m 2,34 0,3 c 0,4.986 4.014,9 9,9 l 26,0 c 4.986,0 9,-4.014 9,-9 l 0,-3 c 0,4.986 -4.014,9 -9,9 L 11,43 C 6.014,43 2,38.986 2,34 Z"
       id="rect3038-42"
       inkscape:connector-curvature="0" />
  </g>
  <g
     inkscape:groupmode="layer"
     id="layer7"
     inkscape:label="Baseshape"
     sodipodi:insensitive="true"
     style="display:none">
    <rect
       rx="9"
       ry="9"
       y="2"
       x="2"
       height="44"
       width="44"
       id="rect4169"
       style="display:inline;fill:#abe1ad;fill-opacity:1;stroke:none" />
  </g>
</svg>
