<?xml version="1.0" encoding="UTF-8" standalone="no"?>
<!-- Created with Inkscape (http://www.inkscape.org/) -->

<svg
   xmlns:dc="http://purl.org/dc/elements/1.1/"
   xmlns:cc="http://creativecommons.org/ns#"
   xmlns:rdf="http://www.w3.org/1999/02/22-rdf-syntax-ns#"
   xmlns:svg="http://www.w3.org/2000/svg"
   xmlns="http://www.w3.org/2000/svg"
   xmlns:xlink="http://www.w3.org/1999/xlink"
   xmlns:sodipodi="http://sodipodi.sourceforge.net/DTD/sodipodi-0.dtd"
   xmlns:inkscape="http://www.inkscape.org/namespaces/inkscape"
   width="48"
   height="48"
   id="svg4230"
   version="1.1"
   inkscape:version="0.48.5 r"
   sodipodi:docname="audacious.svg">
  <defs
     id="defs4232">
    <linearGradient
       id="linearGradient3796">
      <stop
         style="stop-color:#f7f7f7;stop-opacity:1;"
         offset="0"
         id="stop3798" />
      <stop
         style="stop-color:#ececec;stop-opacity:1;"
         offset="1"
         id="stop3800" />
    </linearGradient>
    <linearGradient
       id="linearGradient4524">
      <stop
         style="stop-color:#427ee6;stop-opacity:1;"
         offset="0"
         id="stop4526" />
      <stop
         style="stop-color:#6998eb;stop-opacity:1;"
         offset="1"
         id="stop4528" />
    </linearGradient>
    <linearGradient
       id="linearGradient4243">
      <stop
         style="stop-color:#000000;stop-opacity:1;"
         offset="0"
         id="stop4245" />
      <stop
         style="stop-color:#000000;stop-opacity:0;"
         offset="1"
         id="stop4247" />
    </linearGradient>
    <radialGradient
       inkscape:collect="always"
       xlink:href="#linearGradient4243"
       id="radialGradient4274"
       gradientUnits="userSpaceOnUse"
       gradientTransform="matrix(1.0434782,0,0,0.1956518,-1.0434797,35.184809)"
       cx="24.000001"
       cy="42.499991"
       fx="24.000001"
       fy="42.499991"
       r="23" />
    <linearGradient
       inkscape:collect="always"
       xlink:href="#linearGradient3068-1"
       id="linearGradient4530"
       x1="24"
       y1="46"
       x2="24"
       y2="2"
       gradientUnits="userSpaceOnUse" />
    <linearGradient
       id="linearGradient3068-1">
      <stop
         style="stop-color:#cccccc;stop-opacity:1;"
         offset="0"
         id="stop3070-5" />
      <stop
         style="stop-color:#dddddd;stop-opacity:1;"
         offset="1"
         id="stop3072-7" />
    </linearGradient>
    <linearGradient
       inkscape:collect="always"
       xlink:href="#linearGradient3068-1"
       id="linearGradient4245"
       x1="24.230993"
       y1="1043.1351"
       x2="24.230993"
       y2="1010.4795"
       gradientUnits="userSpaceOnUse" />
    <linearGradient
       inkscape:collect="always"
       xlink:href="#linearGradient3796"
       id="linearGradient3802"
       x1="24"
       y1="1015.3622"
       x2="24"
       y2="1039.3622"
       gradientUnits="userSpaceOnUse" />
  </defs>
  <sodipodi:namedview
     id="base"
     pagecolor="#ffffff"
     bordercolor="#666666"
     borderopacity="1.0"
     inkscape:pageopacity="0.0"
     inkscape:pageshadow="2"
     inkscape:zoom="9.4562896"
     inkscape:cx="30.32989"
     inkscape:cy="20.436005"
     inkscape:document-units="px"
     inkscape:current-layer="layer2"
     showgrid="true"
     inkscape:showpageshadow="false"
     borderlayer="true"
     inkscape:window-width="1366"
     inkscape:window-height="736"
     inkscape:window-x="0"
     inkscape:window-y="32"
     inkscape:window-maximized="1"
     showguides="true"
     inkscape:guide-bbox="true">
    <inkscape:grid
       type="xygrid"
       id="grid4162" />
  </sodipodi:namedview>
  <metadata
     id="metadata4235">
    <rdf:RDF>
      <cc:Work
         rdf:about="">
        <dc:format>image/svg+xml</dc:format>
        <dc:type
           rdf:resource="http://purl.org/dc/dcmitype/StillImage" />
        <dc:title />
      </cc:Work>
    </rdf:RDF>
  </metadata>
  <g
     inkscape:groupmode="layer"
     id="layer3"
     inkscape:label="Fake blur shadow"
     style="display:inline"
     sodipodi:insensitive="true">
    <path
       style="opacity:0.06000001;fill:#000000;fill-opacity:1;stroke:none"
       d="M 10,1 C 5.014,1 1,5.014 1,10 l 0,28 c 0,4.986 4.014,9 9,9 l 28,0 c 4.986,0 9,-4.014 9,-9 L 47,10 C 47,5.014 42.986,1 38,1 L 10,1 z m 0.5,0.5 27,0 c 4.986,0 9,4.014 9,9 l 0,27 c 0,4.986 -4.014,9 -9,9 l -27,0 c -4.986,0 -9,-4.014 -9,-9 l 0,-27 c 0,-4.986 4.014,-9 9,-9 z"
       id="rect3829"
       inkscape:connector-curvature="0" />
    <path
       style="opacity:0.12000002;fill:#000000;fill-opacity:1;stroke:none"
       d="m 10.5,1.5 c -4.986,0 -9,4.014 -9,9 l 0,27 c 0,4.986 4.014,9 9,9 l 27,0 c 4.986,0 9,-4.014 9,-9 l 0,-27 c 0,-4.986 -4.014,-9 -9,-9 l -27,0 z m 0.25,0.25 26.5,0 c 4.986,0 9,4.014 9,9 l 0,26.5 c 0,4.986 -4.014,9 -9,9 l -26.5,0 c -4.986,0 -9,-4.014 -9,-9 l 0,-26.5 c 0,-4.986 4.014,-9 9,-9 z"
       id="rect3827"
       inkscape:connector-curvature="0" />
    <rect
       style="opacity:0.23999999;fill:#000000;fill-opacity:1;stroke:none"
       id="rect3038-4"
       width="44.5"
       height="44.5"
       x="1.75"
       y="1.75"
       ry="9"
       rx="9" />
  </g>
  <g
     inkscape:groupmode="layer"
     id="layer6"
     inkscape:label="Blob"
     style="display:inline"
     sodipodi:insensitive="true">
    <path
       style="opacity:0.3;fill:url(#radialGradient4274);fill-opacity:1;stroke:none"
       d="M 1.03125,39 C 1.5192036,43.518898 5.3471961,47 10,47 l 28,0 c 4.652804,0 8.480796,-3.481102 8.96875,-8 l -45.9375,0 z"
       id="rect4241"
       inkscape:connector-curvature="0" />
  </g>
  <g
     inkscape:groupmode="layer"
     id="layer2"
     inkscape:label="Baseplate"
     style="display:inline">
    <rect
       style="fill:url(#linearGradient4530);fill-opacity:1.0;stroke:none"
       id="rect3038"
       width="44"
       height="44"
       x="2"
       y="1.9999826"
       ry="9"
       rx="9" />
  </g>
  <g
     inkscape:label="Symbol"
     inkscape:groupmode="layer"
     id="layer1"
     transform="translate(0,-1004.3622)"
     style="display:inline">
    <path
       inkscape:connector-curvature="0"
       id="path3087"
       d="m 24.472222,1012.3692 a 15.999998,15.996516 0 0 0 -16.4722205,15.9965 15.999998,15.996516 0 0 0 31.9999965,0 15.999998,15.996516 0 0 0 -15.527776,-15.9965 z m -0.08333,6.9706 c 0.780489,0 1.606089,0.1298 2.444444,0.3611 0.867156,0.26 1.588445,0.5418 2.166667,0.8887 0.607026,0.3179 1.096411,0.7039 1.472222,1.1664 0.375769,0.4624 0.658739,1.0294 0.861111,1.694 0.202327,0.6359 0.356572,1.4092 0.472222,2.3051 0.0578,0.3179 0.109965,0.6264 0.138889,0.9443 0.0578,0.3179 0.08331,0.6541 0.08333,0.9719 -2.2e-5,0.2313 -0.05219,0.4365 -0.138889,0.6388 -0.08675,0.1734 -0.136648,0.3531 -0.194444,0.5555 -2.2e-5,0.029 -2.2e-5,0.1065 0,0.2221 -2.7e-5,0.1157 -0.02668,0.2444 -0.05556,0.3889 -2.2e-5,0.1156 -2.2e-5,0.2453 0,0.3609 -2.2e-5,0.087 -2.2e-5,0.1373 0,0.1667 -0.05783,0.3179 -0.108871,0.6263 -0.166666,0.9442 -0.02892,0.318 -0.05558,0.6541 -0.05556,0.9721 l 0,0.1111 c 0.02889,0.1156 0.07991,0.3486 0.166667,0.6665 0.08671,0.3179 0.1656,0.5229 0.194444,0.6387 l 0,0.2777 c -2.3e-5,0.3468 -0.104359,0.6818 -0.277777,0.9998 -0.173463,0.3179 -0.405398,0.6008 -0.694445,0.8609 -0.289089,0.2602 -0.597582,0.4665 -0.944444,0.611 -0.317996,0.1443 -0.653137,0.1944 -1,0.1944 -0.462529,0 -0.899748,-0.1031 -1.333333,-0.3055 -0.433622,-0.2311 -0.873099,-0.4098 -1.277778,-0.5832 -0.05783,-0.029 -0.159908,-0.055 -0.333333,-0.055 l -0.305556,0 c -0.549249,0 -1.0908,0.1033 -1.611111,0.3055 -0.491431,0.1734 -0.980817,0.3532 -1.472222,0.5555 -0.05782,0.029 -0.185424,0.1065 -0.416666,0.2221 -0.202362,0.1156 -0.331085,0.1929 -0.388889,0.2222 -0.11564,0.058 -0.219974,0.057 -0.277778,0.028 l -0.305556,0 -0.333333,0 c -0.144547,-0.029 -0.427517,-0.1054 -0.861111,-0.2499 -0.404707,-0.1445 -0.688809,-0.2478 -0.833333,-0.3056 -0.02892,0 -0.07996,0 -0.166667,-0.028 -0.05783,-0.028 -0.11112,-0.082 -0.111111,-0.1111 -0.46252,-0.3179 -0.951906,-0.6785 -1.472222,-1.0832 -0.491427,-0.4335 -0.798787,-0.9216 -0.972222,-1.4996 -0.05782,-0.2024 -0.162157,-0.4864 -0.277778,-0.8332 -0.115631,-0.3757 -0.166674,-0.5554 -0.166666,-0.5554 l 0,-2.1662 c -8e-6,-0.029 0.02551,-0.1332 0.08333,-0.2777 0.08671,-0.1445 0.1644,-0.22 0.222222,-0.2777 0.317969,-0.5781 0.730796,-1.1195 1.222222,-1.6108 0.520316,-0.5203 1.060738,-0.9584 1.638889,-1.3052 0.404689,-0.2313 0.816385,-0.3611 1.25,-0.3611 0.433591,-0.029 0.84529,-0.1054 1.25,-0.2499 0.0578,-0.029 0.187657,-0.081 0.361111,-0.1389 0.202336,-0.087 0.331057,-0.1373 0.388889,-0.1666 0.115614,-0.058 0.296508,-0.084 0.527777,-0.084 0.23124,-0.028 0.463175,-0.054 0.694445,-0.083 0.231241,-0.058 0.411005,-0.136 0.555555,-0.2222 0.173427,-0.1156 0.249985,-0.2964 0.25,-0.5276 -1.5e-5,-0.26 -0.102093,-0.4388 -0.333333,-0.5833 -0.231271,-0.1448 -0.489852,-0.2221 -0.75,-0.2221 l -2.972222,0 c -0.173452,0.058 -0.380995,0.082 -0.583333,0.111 -0.202359,0.029 -0.382125,0.055 -0.555556,0.055 -0.46252,0 -0.874218,-0.1541 -1.25,-0.472 -0.346892,-0.3469 -0.527785,-0.7595 -0.527777,-1.222 -8e-6,-0.2023 0.02551,-0.382 0.08333,-0.5554 0.08671,-0.1735 0.163271,-0.3277 0.25,-0.4722 l 0.916666,-0.9164 c 0.231245,-0.2024 0.489867,-0.3318 0.75,-0.3611 0.289058,-0.058 0.545383,-0.082 0.805556,-0.1111 0.115618,-0.029 0.374198,-0.055 0.75,-0.055 0.404685,-0.029 0.688786,-0.028 0.833333,-0.028 0.375778,-0.2024 0.787476,-0.3056 1.25,-0.3056 0.491404,-0.029 0.92862,-0.055 1.333333,-0.055 z m -1.361111,10.1089 c -0.153862,0.053 -0.274401,0.1999 -0.361111,0.4167 -0.115644,0.2601 -0.16668,0.493 -0.166667,0.6665 -1.3e-5,0.4624 0.127584,0.7974 0.416667,0.9998 0.289053,0.1733 0.650844,0.2499 1.055556,0.2499 l 0.472222,0 c 0.0867,0 0.138873,-0.026 0.138889,-0.084 0.0578,-0.058 0.133226,-0.161 0.277777,-0.3055 0.173426,-0.1445 0.30328,-0.2477 0.361111,-0.3055 0.0578,-0.087 0.08332,-0.1887 0.08333,-0.3332 -1.6e-5,-0.1445 -1.6e-5,-0.274 0,-0.3611 l 0,-0.4165 c -0.02893,-0.087 -0.10661,-0.1899 -0.222222,-0.3056 -0.08674,-0.1448 -0.189944,-0.2221 -0.305556,-0.2221 l -1.583333,0 c -0.05781,0 -0.115379,-0.018 -0.166667,0 z"
       style="fill:#000000;opacity:0.15" />
    <path
       style="fill:#1a1a1a"
       d="m 24.472222,1011.3692 a 15.999998,15.996516 0 0 0 -16.4722205,15.9965 15.999998,15.996516 0 0 0 31.9999965,0 15.999998,15.996516 0 0 0 -15.527776,-15.9965 z m -0.08333,6.9706 c 0.780489,0 1.606089,0.1298 2.444444,0.3611 0.867156,0.26 1.588445,0.5418 2.166667,0.8887 0.607026,0.3179 1.096411,0.7039 1.472222,1.1664 0.375769,0.4624 0.658739,1.0294 0.861111,1.694 0.202327,0.6359 0.356572,1.4092 0.472222,2.3051 0.0578,0.3179 0.109965,0.6264 0.138889,0.9443 0.0578,0.3179 0.08331,0.6541 0.08333,0.9719 -2.2e-5,0.2313 -0.05219,0.4365 -0.138889,0.6388 -0.08675,0.1734 -0.136648,0.3531 -0.194444,0.5555 -2.2e-5,0.029 -2.2e-5,0.1065 0,0.2221 -2.7e-5,0.1157 -0.02668,0.2444 -0.05556,0.3889 -2.2e-5,0.1156 -2.2e-5,0.2453 0,0.3609 -2.2e-5,0.087 -2.2e-5,0.1373 0,0.1667 -0.05783,0.3179 -0.108871,0.6263 -0.166666,0.9442 -0.02892,0.318 -0.05558,0.6541 -0.05556,0.9721 l 0,0.1111 c 0.02889,0.1156 0.07991,0.3486 0.166667,0.6665 0.08671,0.3179 0.1656,0.5229 0.194444,0.6387 l 0,0.2777 c -2.3e-5,0.3468 -0.104359,0.6818 -0.277777,0.9998 -0.173463,0.3179 -0.405398,0.6008 -0.694445,0.8609 -0.289089,0.2602 -0.597582,0.4665 -0.944444,0.611 -0.317996,0.1443 -0.653137,0.1944 -1,0.1944 -0.462529,0 -0.899748,-0.1031 -1.333333,-0.3055 -0.433622,-0.2311 -0.873099,-0.4098 -1.277778,-0.5832 -0.05783,-0.029 -0.159908,-0.055 -0.333333,-0.055 l -0.305556,0 c -0.549249,0 -1.0908,0.1033 -1.611111,0.3055 -0.491431,0.1734 -0.980817,0.3532 -1.472222,0.5555 -0.05782,0.029 -0.185424,0.1065 -0.416666,0.2221 -0.202362,0.1156 -0.331085,0.1929 -0.388889,0.2222 -0.11564,0.058 -0.219974,0.057 -0.277778,0.028 l -0.305556,0 -0.333333,0 c -0.144547,-0.029 -0.427517,-0.1054 -0.861111,-0.2499 -0.404707,-0.1445 -0.688809,-0.2478 -0.833333,-0.3056 -0.02892,0 -0.07996,0 -0.166667,-0.028 -0.05783,-0.028 -0.11112,-0.082 -0.111111,-0.1111 -0.46252,-0.3179 -0.951906,-0.6785 -1.472222,-1.0832 -0.491427,-0.4335 -0.798787,-0.9216 -0.972222,-1.4996 -0.05782,-0.2024 -0.162157,-0.4864 -0.277778,-0.8332 -0.115631,-0.3757 -0.166674,-0.5554 -0.166666,-0.5554 l 0,-2.1662 c -8e-6,-0.029 0.02551,-0.1332 0.08333,-0.2777 0.08671,-0.1445 0.1644,-0.22 0.222222,-0.2777 0.317969,-0.5781 0.730796,-1.1195 1.222222,-1.6108 0.520316,-0.5203 1.060738,-0.9584 1.638889,-1.3052 0.404689,-0.2313 0.816385,-0.3611 1.25,-0.3611 0.433591,-0.029 0.84529,-0.1054 1.25,-0.2499 0.0578,-0.029 0.187657,-0.081 0.361111,-0.1389 0.202336,-0.087 0.331057,-0.1373 0.388889,-0.1666 0.115614,-0.058 0.296508,-0.084 0.527777,-0.084 0.23124,-0.028 0.463175,-0.054 0.694445,-0.083 0.231241,-0.058 0.411005,-0.136 0.555555,-0.2222 0.173427,-0.1156 0.249985,-0.2964 0.25,-0.5276 -1.5e-5,-0.26 -0.102093,-0.4388 -0.333333,-0.5833 -0.231271,-0.1448 -0.489852,-0.2221 -0.75,-0.2221 l -2.972222,0 c -0.173452,0.058 -0.380995,0.082 -0.583333,0.111 -0.202359,0.029 -0.382125,0.055 -0.555556,0.055 -0.46252,0 -0.874218,-0.1541 -1.25,-0.472 -0.346892,-0.3469 -0.527785,-0.7595 -0.527777,-1.222 -8e-6,-0.2023 0.02551,-0.382 0.08333,-0.5554 0.08671,-0.1735 0.163271,-0.3277 0.25,-0.4722 l 0.916666,-0.9164 c 0.231245,-0.2024 0.489867,-0.3318 0.75,-0.3611 0.289058,-0.058 0.545383,-0.082 0.805556,-0.1111 0.115618,-0.029 0.374198,-0.055 0.75,-0.055 0.404685,-0.029 0.688786,-0.028 0.833333,-0.028 0.375778,-0.2024 0.787476,-0.3056 1.25,-0.3056 0.491404,-0.029 0.92862,-0.055 1.333333,-0.055 z m -1.361111,10.1089 c -0.153862,0.053 -0.274401,0.1999 -0.361111,0.4167 -0.115644,0.2601 -0.16668,0.493 -0.166667,0.6665 -1.3e-5,0.4624 0.127584,0.7974 0.416667,0.9998 0.289053,0.1733 0.650844,0.2499 1.055556,0.2499 l 0.472222,0 c 0.0867,0 0.138873,-0.026 0.138889,-0.084 0.0578,-0.058 0.133226,-0.161 0.277777,-0.3055 0.173426,-0.1445 0.30328,-0.2477 0.361111,-0.3055 0.0578,-0.087 0.08332,-0.1887 0.08333,-0.3332 -1.6e-5,-0.1445 -1.6e-5,-0.274 0,-0.3611 l 0,-0.4165 c -0.02893,-0.087 -0.10661,-0.1899 -0.222222,-0.3056 -0.08674,-0.1448 -0.189944,-0.2221 -0.305556,-0.2221 l -1.583333,0 c -0.05781,0 -0.115379,-0.018 -0.166667,0 z"
       id="path3068"
       inkscape:connector-curvature="0" />
  </g>
  <g
     inkscape:groupmode="layer"
     id="layer4"
     inkscape:label="Inset"
     style="display:inline"
     sodipodi:insensitive="true">
    <path
       style="opacity:0.15;fill:#000000;fill-opacity:1;stroke:none"
       d="m 2,34 0,3 c 0,4.986 4.014,9 9,9 l 26,0 c 4.986,0 9,-4.014 9,-9 l 0,-3 c 0,4.986 -4.014,9 -9,9 L 11,43 C 6.014,43 2,38.986 2,34 Z"
       id="rect3038-42"
       inkscape:connector-curvature="0" />
  </g>
  <g
     inkscape:groupmode="layer"
     id="layer7"
     inkscape:label="Baseshape"
     sodipodi:insensitive="true"
     style="display:none">
    <rect
       rx="9"
       ry="9"
       y="2"
       x="2"
       height="44"
       width="44"
       id="rect4169"
       style="fill:#abe1ad;fill-opacity:1;stroke:none;display:inline" />
  </g>
</svg>
