<?xml version="1.0" encoding="UTF-8" standalone="no"?>
<!-- Created with Inkscape (http://www.inkscape.org/) -->

<svg
   xmlns:dc="http://purl.org/dc/elements/1.1/"
   xmlns:cc="http://creativecommons.org/ns#"
   xmlns:rdf="http://www.w3.org/1999/02/22-rdf-syntax-ns#"
   xmlns:svg="http://www.w3.org/2000/svg"
   xmlns="http://www.w3.org/2000/svg"
   xmlns:xlink="http://www.w3.org/1999/xlink"
   xmlns:sodipodi="http://sodipodi.sourceforge.net/DTD/sodipodi-0.dtd"
   xmlns:inkscape="http://www.inkscape.org/namespaces/inkscape"
   width="48"
   height="48"
   id="svg4230"
   version="1.1"
   inkscape:version="0.48.5 r"
   sodipodi:docname="audacious.svg">
  <defs
     id="defs4232">
    <linearGradient
       id="linearGradient3796">
      <stop
         style="stop-color:#f7f7f7;stop-opacity:1;"
         offset="0"
         id="stop3798" />
      <stop
         style="stop-color:#ececec;stop-opacity:1;"
         offset="1"
         id="stop3800" />
    </linearGradient>
    <linearGradient
       id="linearGradient4524">
      <stop
         style="stop-color:#427ee6;stop-opacity:1;"
         offset="0"
         id="stop4526" />
      <stop
         style="stop-color:#6998eb;stop-opacity:1;"
         offset="1"
         id="stop4528" />
    </linearGradient>
    <linearGradient
       id="linearGradient4243">
      <stop
         style="stop-color:#000000;stop-opacity:1;"
         offset="0"
         id="stop4245" />
      <stop
         style="stop-color:#000000;stop-opacity:0;"
         offset="1"
         id="stop4247" />
    </linearGradient>
    <radialGradient
       inkscape:collect="always"
       xlink:href="#linearGradient4243"
       id="radialGradient4274"
       gradientUnits="userSpaceOnUse"
       gradientTransform="matrix(1.0434782,0,0,0.1956518,-1.0434797,35.184809)"
       cx="24.000001"
       cy="42.499991"
       fx="24.000001"
       fy="42.499991"
       r="23" />
    <linearGradient
       inkscape:collect="always"
       xlink:href="#linearGradient3068-1"
       id="linearGradient4530"
       x1="24"
       y1="46"
       x2="24"
       y2="2"
       gradientUnits="userSpaceOnUse" />
    <linearGradient
       id="linearGradient3068-1">
      <stop
         style="stop-color:#cccccc;stop-opacity:1;"
         offset="0"
         id="stop3070-5" />
      <stop
         style="stop-color:#dddddd;stop-opacity:1;"
         offset="1"
         id="stop3072-7" />
    </linearGradient>
    <linearGradient
       inkscape:collect="always"
       xlink:href="#linearGradient3068-1"
       id="linearGradient4245"
       x1="24.230993"
       y1="1043.1351"
       x2="24.230993"
       y2="1010.4795"
       gradientUnits="userSpaceOnUse" />
    <linearGradient
       inkscape:collect="always"
       xlink:href="#linearGradient3796"
       id="linearGradient3802"
       x1="24"
       y1="1015.3622"
       x2="24"
       y2="1039.3622"
       gradientUnits="userSpaceOnUse" />
  </defs>
  <sodipodi:namedview
     id="base"
     pagecolor="#ffffff"
     bordercolor="#666666"
     borderopacity="1.0"
     inkscape:pageopacity="0.0"
     inkscape:pageshadow="2"
     inkscape:zoom="9.4562896"
     inkscape:cx="41.110752"
     inkscape:cy="25.2894"
     inkscape:document-units="px"
     inkscape:current-layer="layer1"
     showgrid="true"
     inkscape:showpageshadow="false"
     borderlayer="true"
     inkscape:window-width="1327"
     inkscape:window-height="736"
     inkscape:window-x="39"
     inkscape:window-y="32"
     inkscape:window-maximized="1"
     showguides="true"
     inkscape:guide-bbox="true">
    <inkscape:grid
       type="xygrid"
       id="grid4162" />
  </sodipodi:namedview>
  <metadata
     id="metadata4235">
    <rdf:RDF>
      <cc:Work
         rdf:about="">
        <dc:format>image/svg+xml</dc:format>
        <dc:type
           rdf:resource="http://purl.org/dc/dcmitype/StillImage" />
        <dc:title />
      </cc:Work>
    </rdf:RDF>
  </metadata>
  <g
     inkscape:groupmode="layer"
     id="layer3"
     inkscape:label="Fake blur shadow"
     style="display:inline"
     sodipodi:insensitive="true">
    <path
       style="opacity:0.06000001;fill:#000000;fill-opacity:1;stroke:none"
       d="M 10,1 C 5.014,1 1,5.014 1,10 l 0,28 c 0,4.986 4.014,9 9,9 l 28,0 c 4.986,0 9,-4.014 9,-9 L 47,10 C 47,5.014 42.986,1 38,1 L 10,1 z m 0.5,0.5 27,0 c 4.986,0 9,4.014 9,9 l 0,27 c 0,4.986 -4.014,9 -9,9 l -27,0 c -4.986,0 -9,-4.014 -9,-9 l 0,-27 c 0,-4.986 4.014,-9 9,-9 z"
       id="rect3829"
       inkscape:connector-curvature="0" />
    <path
       style="opacity:0.12000002;fill:#000000;fill-opacity:1;stroke:none"
       d="m 10.5,1.5 c -4.986,0 -9,4.014 -9,9 l 0,27 c 0,4.986 4.014,9 9,9 l 27,0 c 4.986,0 9,-4.014 9,-9 l 0,-27 c 0,-4.986 -4.014,-9 -9,-9 l -27,0 z m 0.25,0.25 26.5,0 c 4.986,0 9,4.014 9,9 l 0,26.5 c 0,4.986 -4.014,9 -9,9 l -26.5,0 c -4.986,0 -9,-4.014 -9,-9 l 0,-26.5 c 0,-4.986 4.014,-9 9,-9 z"
       id="rect3827"
       inkscape:connector-curvature="0" />
    <rect
       style="opacity:0.23999999;fill:#000000;fill-opacity:1;stroke:none"
       id="rect3038-4"
       width="44.5"
       height="44.5"
       x="1.75"
       y="1.75"
       ry="9"
       rx="9" />
  </g>
  <g
     inkscape:groupmode="layer"
     id="layer6"
     inkscape:label="Blob"
     style="display:inline"
     sodipodi:insensitive="true">
    <path
       style="opacity:0.3;fill:url(#radialGradient4274);fill-opacity:1;stroke:none"
       d="M 1.03125,39 C 1.5192036,43.518898 5.3471961,47 10,47 l 28,0 c 4.652804,0 8.480796,-3.481102 8.96875,-8 l -45.9375,0 z"
       id="rect4241"
       inkscape:connector-curvature="0" />
  </g>
  <g
     inkscape:groupmode="layer"
     id="layer2"
     inkscape:label="Baseplate"
     style="display:inline">
    <rect
       style="fill:url(#linearGradient4530);fill-opacity:1.0;stroke:none"
       id="rect3038"
       width="44"
       height="44"
       x="2"
       y="1.9999826"
       ry="9"
       rx="9" />
  </g>
  <g
     inkscape:label="Symbol"
     inkscape:groupmode="layer"
     id="layer1"
     transform="translate(0,-1004.3622)"
     style="display:inline">
    <path
       inkscape:connector-curvature="0"
       d="m 24.067732,1019.3626 c -1.01221,0 -1.93346,0.107 -2.799998,0.2704 -0.0069,0 -0.01567,0 -0.02258,0 -0.83455,0.1393 -1.469091,0.2785 -2.009677,0.5181 a 1.1438089,1.14122 0 0 0 -0.654839,1.1942 l 0.316129,2.2078 a 1.1438089,1.14122 0 0 0 1.558064,0.9012 c 0.146706,-0.061 0.632929,-0.1816 1.264516,-0.2928 a 1.1438089,1.14122 0 0 0 0.02258,0 c 0.583663,-0.1166 1.272242,-0.1802 2.099999,-0.1802 0.57914,0 0.949729,0.08 1.151613,0.1802 a 1.1438089,1.14122 0 0 0 0.06774,0.022 c 0.292676,0.127 0.480597,0.3034 0.587097,0.4504 a 1.1438089,1.14122 0 0 0 0.02258,0.022 c 0.144579,0.1886 0.251086,0.3999 0.31613,0.6983 0.03112,0.1366 0.02782,0.302 0.04516,0.4507 -0.178152,-0.03 -0.355161,-0.075 -0.541936,-0.09 -0.03154,0 -0.05846,-0.02 -0.09031,-0.022 l 0,0.022 c -0.291593,-0.037 -0.604048,-0.09 -0.925807,-0.09 -0.935559,0 -1.818534,0.1255 -2.664515,0.3155 -0.880605,0.1976 -1.688624,0.5007 -2.393548,0.9461 -0.733321,0.4633 -1.331625,1.109 -1.761291,1.8475 a 1.1438089,1.14122 0 0 0 0,0.022 c -0.428039,0.7786 -0.654839,1.6763 -0.654838,2.6584 -1e-6,0.988 0.161499,1.8938 0.541936,2.7036 0.366996,0.7812 0.920207,1.4493 1.580644,1.9375 a 1.1438089,1.14122 0 0 0 0.02258,0 c 0.649945,0.4564 1.401998,0.789 2.235484,0.9913 0.8052,0.1954 1.683795,0.3154 2.619355,0.3154 0.623496,-10e-5 1.238299,-0.055 1.851612,-0.1127 l 0,0.022 c 0.620087,-0.039 1.227131,-0.096 1.783872,-0.1577 0.541367,-0.06 0.995774,-0.1225 1.399999,-0.1802 a 1.1438089,1.14122 0 0 0 0.04516,0 c 0.43749,-0.079 0.758356,-0.1488 0.948387,-0.1803 a 1.1438089,1.14122 0 0 0 0.970967,-1.1266 l 0,-9.3722 c -1.4e-5,-0.9084 -0.09145,-1.7743 -0.316129,-2.5908 -0.0018,-0.01 0.0018,-0.016 0,-0.022 -0.233932,-0.8519 -0.673459,-1.6039 -1.241935,-2.2304 l 0.02258,-0.022 c -0.01057,-0.012 -0.03445,-0.01 -0.04516,-0.022 -0.572984,-0.6565 -1.329195,-1.1485 -2.190322,-1.4644 -0.01619,-0.01 -0.02891,-0.017 -0.04516,-0.022 l 0,0.022 c -0.892423,-0.3449 -1.938771,-0.5407 -3.116129,-0.5407 z m 0.65484,10.7242 c 0.572364,0 1.03088,0.031 1.354838,0.09 l 0,2.5909 c -0.05369,0.01 -0.07873,0.018 -0.135484,0.022 -0.01852,0 -0.02632,0 -0.04516,0 -0.443581,0.017 -0.966063,0.022 -1.580644,0.022 -0.933259,0 -1.585039,-0.1716 -1.941936,-0.383 -0.230335,-0.1515 -0.361293,-0.3457 -0.36129,-1.0364 -3e-6,-0.324 0.05271,-0.4442 0.112903,-0.5182 a 1.1438089,1.14122 0 0 0 0.02258,-0.022 c 0.141138,-0.1841 0.303184,-0.3032 0.519355,-0.4054 a 1.1438089,1.14122 0 0 0 0.02258,-0.022 c 0.274871,-0.1372 0.55637,-0.2287 0.858064,-0.2704 0.0081,0 0.01444,0 0.02258,0 0.416521,-0.051 0.814809,-0.068 1.151613,-0.068 z M 40,1028.3622 c 0,8.8366 -7.163444,16 -16,16 -8.836555,0 -16,-7.1634 -16,-16 0,-8.8366 7.163445,-16 16,-16 8.836556,0 16,7.1634 16,16 z"
       style="font-size:40px;font-style:normal;font-variant:normal;font-weight:normal;font-stretch:normal;line-height:125%;letter-spacing:0px;word-spacing:0px;fill:#000000;fill-opacity:1;stroke:none;font-family:Ubuntu;-inkscape-font-specification:Ubuntu;opacity:0.15"
       id="path3030" />
    <path
       id="path3023"
       style="font-size:40px;font-style:normal;font-variant:normal;font-weight:normal;font-stretch:normal;line-height:125%;letter-spacing:0px;word-spacing:0px;fill:#000000;fill-opacity:1;stroke:none;font-family:Ubuntu;-inkscape-font-specification:Ubuntu"
       d="m 24.067732,1018.3626 c -1.01221,0 -1.93346,0.107 -2.799998,0.2704 -0.0069,0 -0.01567,0 -0.02258,0 -0.83455,0.1393 -1.469091,0.2785 -2.009677,0.5181 a 1.1438089,1.14122 0 0 0 -0.654839,1.1942 l 0.316129,2.2078 a 1.1438089,1.14122 0 0 0 1.558064,0.9012 c 0.146706,-0.061 0.632929,-0.1816 1.264516,-0.2928 a 1.1438089,1.14122 0 0 0 0.02258,0 c 0.583663,-0.1166 1.272242,-0.1802 2.099999,-0.1802 0.57914,0 0.949729,0.08 1.151613,0.1802 a 1.1438089,1.14122 0 0 0 0.06774,0.022 c 0.292676,0.127 0.480597,0.3034 0.587097,0.4504 a 1.1438089,1.14122 0 0 0 0.02258,0.022 c 0.144579,0.1886 0.251086,0.3999 0.31613,0.6983 0.03112,0.1366 0.02782,0.302 0.04516,0.4507 -0.178152,-0.03 -0.355161,-0.075 -0.541936,-0.09 -0.03154,0 -0.05846,-0.02 -0.09031,-0.022 l 0,0.022 c -0.291593,-0.037 -0.604048,-0.09 -0.925807,-0.09 -0.935559,0 -1.818534,0.1255 -2.664515,0.3155 -0.880605,0.1976 -1.688624,0.5007 -2.393548,0.9461 -0.733321,0.4633 -1.331625,1.109 -1.761291,1.8475 a 1.1438089,1.14122 0 0 0 0,0.022 c -0.428039,0.7786 -0.654839,1.6763 -0.654838,2.6584 -1e-6,0.988 0.161499,1.8938 0.541936,2.7036 0.366996,0.7812 0.920207,1.4493 1.580644,1.9375 a 1.1438089,1.14122 0 0 0 0.02258,0 c 0.649945,0.4564 1.401998,0.789 2.235484,0.9913 0.8052,0.1954 1.683795,0.3154 2.619355,0.3154 0.623496,-10e-5 1.238299,-0.055 1.851612,-0.1127 l 0,0.022 c 0.620087,-0.039 1.227131,-0.096 1.783872,-0.1577 0.541367,-0.06 0.995774,-0.1225 1.399999,-0.1802 a 1.1438089,1.14122 0 0 0 0.04516,0 c 0.43749,-0.079 0.758356,-0.1488 0.948387,-0.1803 a 1.1438089,1.14122 0 0 0 0.970967,-1.1266 l 0,-9.3722 c -1.4e-5,-0.9084 -0.09145,-1.7743 -0.316129,-2.5908 -0.0018,-0.01 0.0018,-0.016 0,-0.022 -0.233932,-0.8519 -0.673459,-1.6039 -1.241935,-2.2304 l 0.02258,-0.022 c -0.01057,-0.012 -0.03445,-0.01 -0.04516,-0.022 -0.572984,-0.6565 -1.329195,-1.1485 -2.190322,-1.4644 -0.01619,-0.01 -0.02891,-0.017 -0.04516,-0.022 l 0,0.022 c -0.892423,-0.3449 -1.938771,-0.5407 -3.116129,-0.5407 z m 0.65484,10.7242 c 0.572364,0 1.03088,0.031 1.354838,0.09 l 0,2.5909 c -0.05369,0.01 -0.07873,0.018 -0.135484,0.022 -0.01852,0 -0.02632,0 -0.04516,0 -0.443581,0.017 -0.966063,0.022 -1.580644,0.022 -0.933259,0 -1.585039,-0.1716 -1.941936,-0.383 -0.230335,-0.1515 -0.361293,-0.3457 -0.36129,-1.0364 -3e-6,-0.324 0.05271,-0.4442 0.112903,-0.5182 a 1.1438089,1.14122 0 0 0 0.02258,-0.022 c 0.141138,-0.1841 0.303184,-0.3032 0.519355,-0.4054 a 1.1438089,1.14122 0 0 0 0.02258,-0.022 c 0.274871,-0.1372 0.55637,-0.2287 0.858064,-0.2704 0.0081,0 0.01444,0 0.02258,0 0.416521,-0.051 0.814809,-0.068 1.151613,-0.068 z M 40,1027.3622 c 0,8.8366 -7.163444,16 -16,16 -8.836555,0 -16,-7.1634 -16,-16 0,-8.8366 7.163445,-16 16,-16 8.836556,0 16,7.1634 16,16 z"
       inkscape:connector-curvature="0" />
  </g>
  <g
     inkscape:groupmode="layer"
     id="layer4"
     inkscape:label="Inset"
     style="display:inline"
     sodipodi:insensitive="true">
    <path
       style="opacity:0.15;fill:#000000;fill-opacity:1;stroke:none"
       d="m 2,34 0,3 c 0,4.986 4.014,9 9,9 l 26,0 c 4.986,0 9,-4.014 9,-9 l 0,-3 c 0,4.986 -4.014,9 -9,9 L 11,43 C 6.014,43 2,38.986 2,34 Z"
       id="rect3038-42"
       inkscape:connector-curvature="0" />
  </g>
  <g
     inkscape:groupmode="layer"
     id="layer7"
     inkscape:label="Baseshape"
     sodipodi:insensitive="true"
     style="display:none">
    <rect
       rx="9"
       ry="9"
       y="2"
       x="2"
       height="44"
       width="44"
       id="rect4169"
       style="fill:#abe1ad;fill-opacity:1;stroke:none;display:inline" />
  </g>
</svg>
