<?xml version="1.0" encoding="UTF-8" standalone="no"?>
<!-- Created with Inkscape (http://www.inkscape.org/) -->

<svg
   xmlns:dc="http://purl.org/dc/elements/1.1/"
   xmlns:cc="http://creativecommons.org/ns#"
   xmlns:rdf="http://www.w3.org/1999/02/22-rdf-syntax-ns#"
   xmlns:svg="http://www.w3.org/2000/svg"
   xmlns="http://www.w3.org/2000/svg"
   xmlns:xlink="http://www.w3.org/1999/xlink"
   xmlns:sodipodi="http://sodipodi.sourceforge.net/DTD/sodipodi-0.dtd"
   xmlns:inkscape="http://www.inkscape.org/namespaces/inkscape"
   width="48"
   height="48"
   id="svg2"
   version="1.1"
   inkscape:version="0.48.5 r10040"
   sodipodi:docname="blender.svg">
  <defs
     id="defs4">
    <linearGradient
       id="linearGradient3793">
      <stop
         style="stop-color:#f3f3f3;stop-opacity:1;"
         offset="0"
         id="stop3795" />
      <stop
         style="stop-color:#c9c9c9;stop-opacity:1;"
         offset="1"
         id="stop3797" />
    </linearGradient>
    <radialGradient
       r="23"
       fy="42.499992"
       fx="24.000002"
       cy="42.499992"
       cx="24.000002"
       gradientTransform="matrix(1.0434782,0,0,0.1956518,-1.07163,41.184809)"
       gradientUnits="userSpaceOnUse"
       id="radialGradient3913"
       xlink:href="#linearGradient4243-9"
       inkscape:collect="always" />
    <linearGradient
       id="linearGradient4243-9">
      <stop
         style="stop-color:#000000;stop-opacity:1;"
         offset="0"
         id="stop4245-0" />
      <stop
         style="stop-color:#000000;stop-opacity:0;"
         offset="1"
         id="stop4247-7" />
    </linearGradient>
    <radialGradient
       r="23"
       fy="42.499992"
       fx="24.000002"
       cy="42.499992"
       cx="24.000002"
       gradientTransform="matrix(1.0434782,0,0,0.1956518,-1.07173,1045.547)"
       gradientUnits="userSpaceOnUse"
       id="radialGradient3076"
       xlink:href="#linearGradient4243-9"
       inkscape:collect="always" />
    <linearGradient
       inkscape:collect="always"
       xlink:href="#linearGradient3800"
       id="linearGradient3827"
       gradientUnits="userSpaceOnUse"
       x1="-271.62115"
       y1="206.28366"
       x2="-184.278"
       y2="338.28366" />
    <linearGradient
       id="linearGradient3800">
      <stop
         style="stop-color:#fb9b3d;stop-opacity:1;"
         offset="0"
         id="stop3802" />
      <stop
         style="stop-color:#e18830;stop-opacity:1;"
         offset="1"
         id="stop3804" />
    </linearGradient>
    <linearGradient
       inkscape:collect="always"
       xlink:href="#linearGradient3793"
       id="linearGradient3799"
       x1="2"
       y1="1028.3622"
       x2="46"
       y2="1028.3622"
       gradientUnits="userSpaceOnUse"
       gradientTransform="translate(1004.3622,-1052.3622)" />
  </defs>
  <sodipodi:namedview
     id="base"
     pagecolor="#ffffff"
     bordercolor="#666666"
     borderopacity="1.0"
     inkscape:pageopacity="0.0"
     inkscape:pageshadow="2"
     inkscape:zoom="7.9195959"
     inkscape:cx="9.8108255"
     inkscape:cy="25.652957"
     inkscape:document-units="px"
     inkscape:current-layer="layer4"
     showgrid="true"
     inkscape:window-width="1366"
     inkscape:window-height="712"
     inkscape:window-x="0"
     inkscape:window-y="27"
     inkscape:window-maximized="1">
    <inkscape:grid
       type="xygrid"
       id="grid3801" />
  </sodipodi:namedview>
  <metadata
     id="metadata7">
    <rdf:RDF>
      <cc:Work
         rdf:about="">
        <dc:format>image/svg+xml</dc:format>
        <dc:type
           rdf:resource="http://purl.org/dc/dcmitype/StillImage" />
        <dc:title />
      </cc:Work>
    </rdf:RDF>
  </metadata>
  <g
     inkscape:label="Fake blur shadow"
     inkscape:groupmode="layer"
     id="layer1"
     transform="translate(0,-1004.3622)"
     sodipodi:insensitive="true">
    <g
       id="g3878"
       transform="translate(-39.765879,1007.8889)">
      <path
         inkscape:connector-curvature="0"
         id="rect3829"
         d="m 49.765879,-2.5266567 c -4.986,0 -9,4.014 -9,9 l 0,27.9999997 c 0,4.986 4.014,9 9,9 l 28,0 c 4.986,0 9,-4.014 9,-9 l 0,-27.9999997 c 0,-4.986 -4.014,-9 -9,-9 l -28,0 z m 0.5,0.5 27,0 c 4.986,0 9,4.014 9,9 l 0,26.9999997 c 0,4.986 -4.014,9 -9,9 l -27,0 c -4.986,0 -9,-4.014 -9,-9 l 0,-26.9999997 c 0,-4.986 4.014,-9 9,-9 z"
         style="opacity:0.06000001;fill:#000000;fill-opacity:1;stroke:none;display:inline" />
      <path
         inkscape:connector-curvature="0"
         id="rect3827"
         d="m 50.265879,-2.0266567 c -4.986,0 -9,4.014 -9,9 l 0,26.9999997 c 0,4.986 4.014,9 9,9 l 27,0 c 4.986,0 9,-4.014 9,-9 l 0,-26.9999997 c 0,-4.986 -4.014,-9 -9,-9 l -27,0 z m 0.25,0.25 26.5,0 c 4.986,0 9,4.014 9,9 l 0,26.4999997 c 0,4.986 -4.014,9 -9,9 l -26.5,0 c -4.986,0 -9,-4.014 -9,-9 l 0,-26.4999997 c 0,-4.986 4.014,-9 9,-9 z"
         style="opacity:0.12000002;fill:#000000;fill-opacity:1;stroke:none;display:inline" />
      <rect
         rx="9"
         ry="9"
         y="-1.7766566"
         x="41.515881"
         height="44.5"
         width="44.5"
         id="rect3038-4"
         style="opacity:0.23999999;fill:#000000;fill-opacity:1;stroke:none;display:inline" />
    </g>
  </g>
  <g
     inkscape:groupmode="layer"
     id="layer2"
     inkscape:label="Blob"
     transform="translate(0,-1004.3622)"
     sodipodi:insensitive="true">
    <path
       style="opacity:0.3;fill:url(#radialGradient3076);fill-opacity:1;stroke:none;display:inline"
       d="m 1.003,1049.3622 c 0.487953,4.5189 4.315946,8 8.96875,8 l 28,0 c 4.652804,0 8.480796,-3.4811 8.96875,-8 l -45.9375,0 z"
       id="rect4241"
       inkscape:connector-curvature="0" />
  </g>
  <g
     inkscape:groupmode="layer"
     id="layer3"
     inkscape:label="Baseplate"
     transform="translate(0,-1004.3622)">
    <rect
       rx="9"
       ry="9"
       y="-46"
       x="1006.3622"
       height="44"
       width="44"
       id="rect4169-3"
       style="fill:url(#linearGradient3799);fill-opacity:1.0;stroke:none;display:inline"
       transform="matrix(0,1,-1,0,0,0)" />
  </g>
  <g
     inkscape:groupmode="layer"
     id="layer4"
     inkscape:label="Symbol"
     transform="translate(0,-1004.3622)">
    <g
       id="g3820"
       transform="matrix(0.13563922,0,0,0.13563922,57.329552,991.07002)">
      <path
         inkscape:connector-curvature="0"
         style="fill:#666666;fill-opacity:1;display:inline"
         d="m -221.49464,246.14292 c -7.01699,0 -13.43451,2.49295 -18.21875,6.5625 -4.86529,4.13872 -8.10165,9.97188 -8.46875,16.59375 -0.37389,6.81243 2.34543,13.15798 7.125,17.84375 4.86571,4.77362 11.8041,7.78125 19.5625,7.78125 7.76053,0 14.69848,-3.00763 19.5625,-7.78125 4.78126,-4.68577 7.50102,-11.02623 7.125,-17.84375 -0.3705,-6.62017 -3.60218,-12.45503 -8.46875,-16.59375 -4.78465,-4.06912 -11.20007,-6.5625 -18.21875,-6.5625 z"
         id="path3810" />
      <path
         inkscape:connector-curvature="0"
         id="path3808"
         d="m -247.9683,173.04923 c -3.29714,0 -6.49621,0.95299 -8.96875,2.6875 -2.658,1.85674 -4.17515,4.31473 -4.28125,6.9375 -0.0972,2.44623 1.08738,4.82073 3.3125,6.65625 4.37554,3.45205 8.72246,6.96859 13.09375,10.5 4.2427,3.42913 8.61826,6.9682 12.96875,10.40624 l -83.28125,-0.0625 c -9.52305,0 -16.00987,4.48195 -17.34375,11.96875 -0.58609,3.27931 0.46913,6.86344 2.78125,9.625 2.45302,2.92792 6.01772,4.5625 10.03125,4.5625 l 6.34375,0 c 8.76975,0 17.57852,-0.0101 26.375,-0.0312 l 8.375,-0.0312 -75.5625,55.90625 -0.3125,0.21875 c -4.22148,3.23645 -6.96623,7.76446 -7.5625,12.4375 -0.45199,3.54033 0.35954,6.79127 2.375,9.375 2.40209,3.07984 6.15386,4.78125 10.5625,4.78125 4.33098,0 8.73846,-1.63682 12.4375,-4.625 l 40.8125,-33.40625 c -0.17442,1.63096 -0.36794,4.01337 -0.34375,5.75 0.0458,2.74967 0.91496,8.27091 2.3125,12.75 2.8876,9.2056 7.76412,17.63486 14.46875,25.03125 6.97625,7.69475 15.47103,13.79062 25.25,18.125 10.33874,4.57246 21.44987,6.90625 33.03125,6.90625 l 0.0937,0 c 11.61831,-0.028 22.78441,-2.40702 33.15625,-7.03125 9.79509,-4.38573 18.26882,-10.49317 25.21875,-18.1875 6.69614,-7.43374 11.55541,-15.89578 14.43749,-25.09375 1.42428,-4.54996 2.33764,-9.25397 2.71875,-14 0.35607,-4.5958 0.21395,-9.27904 -0.4375,-13.90625 -1.27234,-8.95351 -4.37256,-17.42894 -9.21874,-25.21875 -4.22288,-6.79179 -9.62878,-12.86421 -16.09375,-18 l -0.0312,0 -67.96875,-52.21874 c -0.0564,-0.0492 -0.11763,-0.0983 -0.15625,-0.125 -2.26076,-1.73154 -5.30042,-2.6875 -8.59375,-2.6875 z m 27.71875,59.68749 c 25.52368,0 46.21875,18.5048 46.21875,41.34375 4.3e-4,22.84106 -20.69507,41.34375 -46.21875,41.34375 -25.52411,0 -46.21875,-18.50269 -46.21875,-41.34375 0,-22.83895 20.69507,-41.34375 46.21875,-41.34375 z"
         style="fill:#666666;fill-opacity:1;display:inline" />
      <path
         style="fill:url(#linearGradient3827);fill-opacity:1;display:inline"
         d="m -249.9683,171.04923 c -3.29714,0 -6.49621,0.95299 -8.96875,2.6875 -2.658,1.85674 -4.17515,4.31473 -4.28125,6.9375 -0.0972,2.44623 1.08738,4.82073 3.3125,6.65625 4.37554,3.45205 8.72246,6.96859 13.09375,10.5 4.2427,3.42913 8.61826,6.9682 12.96875,10.40624 l -83.28125,-0.0625 c -9.52305,0 -16.00987,4.48195 -17.34375,11.96875 -0.58609,3.27931 0.46913,6.86344 2.78125,9.625 2.45302,2.92792 6.01772,4.5625 10.03125,4.5625 l 6.34375,0 c 8.76975,0 17.57852,-0.0101 26.375,-0.0312 l 8.375,-0.0312 -75.5625,55.90625 -0.3125,0.21875 c -4.22148,3.23645 -6.96623,7.76446 -7.5625,12.4375 -0.45199,3.54033 0.35954,6.79127 2.375,9.375 2.40209,3.07984 6.15386,4.78125 10.5625,4.78125 4.33098,0 8.73846,-1.63682 12.4375,-4.625 l 40.8125,-33.40625 c -0.17442,1.63096 -0.36794,4.01337 -0.34375,5.75 0.0458,2.74967 0.91496,8.27091 2.3125,12.75 2.8876,9.2056 7.76412,17.63486 14.46875,25.03125 6.97625,7.69475 15.47103,13.79062 25.25,18.125 10.33874,4.57246 21.44987,6.90625 33.03125,6.90625 l 0.0937,0 c 11.61831,-0.028 22.78441,-2.40702 33.15625,-7.03125 9.79509,-4.38573 18.26882,-10.49317 25.21875,-18.1875 6.69614,-7.43374 11.55541,-15.89578 14.43749,-25.09375 1.42428,-4.54996 2.33764,-9.25397 2.71875,-14 0.35607,-4.5958 0.21395,-9.27904 -0.4375,-13.90625 -1.27234,-8.95351 -4.37256,-17.42894 -9.21874,-25.21875 -4.22288,-6.79179 -9.62878,-12.86421 -16.09375,-18 l -0.0312,0 -67.96875,-52.21874 c -0.0564,-0.0492 -0.11763,-0.0983 -0.15625,-0.125 -2.26076,-1.73154 -5.30042,-2.6875 -8.59375,-2.6875 z m 27.71875,59.68749 c 25.52368,0 46.21875,18.5048 46.21875,41.34375 4.3e-4,22.84106 -20.69507,41.34375 -46.21875,41.34375 -25.52411,0 -46.21875,-18.50269 -46.21875,-41.34375 0,-22.83895 20.69507,-41.34375 46.21875,-41.34375 z"
         id="path3781"
         inkscape:connector-curvature="0" />
      <path
         id="path3769"
         d="m -261.375,185.875 c 0.21512,0.26432 0.43657,0.50003 0.6875,0.75 -0.24515,-0.24537 -0.47628,-0.49052 -0.6875,-0.75 z m 39.09375,59.40625 c -7.01699,0 -13.43451,2.49295 -18.21875,6.5625 -4.86529,4.13872 -8.10165,9.97188 -8.46875,16.59375 -0.37389,6.81243 2.34543,13.15798 7.125,17.84375 4.86571,4.77362 11.8041,7.78125 19.5625,7.78125 7.76053,0 14.69848,-3.00763 19.5625,-7.78125 4.78126,-4.68577 7.50102,-11.02623 7.125,-17.84375 -0.3705,-6.62017 -3.60218,-12.45503 -8.46875,-16.59375 -4.78465,-4.06912 -11.20007,-6.5625 -18.21875,-6.5625 z m 69.875,7.84375 c 0.8813,2.06871 1.65457,4.17106 2.3125,6.3125 -0.65803,-2.14326 -1.4311,-4.24197 -2.3125,-6.3125 z m 5.125,26.625 c -0.0266,1.15764 -0.0985,2.3198 -0.1875,3.46875 -0.0953,1.18651 -0.21352,2.35175 -0.375,3.53125 0.15994,-1.16998 0.3118,-2.355 0.40625,-3.53125 0.089,-1.14895 0.13072,-2.31171 0.15625,-3.46875 z m -150.78125,2.03125 c -0.0717,1.01914 -0.10584,2.06919 -0.0937,2.9375 -0.0121,-0.86831 0.0266,-1.92095 0.0937,-2.9375 z m 147.875,15.4375 c -0.72052,2.29949 -1.56577,4.54707 -2.53125,6.75 0.96525,-2.20051 1.81073,-4.45051 2.53125,-6.75 z m -213.5,3.875 c -0.14088,0.57758 -0.23796,1.16587 -0.3125,1.75 0.0745,-0.58413 0.17214,-1.17264 0.3125,-1.75 z m -0.4375,3.0625 c -0.0502,1.29699 0.0736,2.53802 0.375,3.71875 -0.29874,-1.18368 -0.42639,-2.42047 -0.375,-3.71875 z m 3.46875,9.125 c 0.34587,0.34726 0.67729,0.66804 1.0625,0.96875 -0.3792,-0.2963 -0.72141,-0.62748 -1.0625,-0.96875 z M -189.84375,340.5 c -1.29648,0.57803 -2.61687,1.11734 -3.9375,1.625 1.32016,-0.50708 2.64102,-1.04697 3.9375,-1.625 z m -3.9375,1.625 c -1.32063,0.50766 -2.65655,0.96937 -4,1.40625 1.34264,-0.43589 2.67984,-0.89917 4,-1.40625 z"
         style="fill:#0000ff;display:inline"
         inkscape:connector-curvature="0" />
      <path
         id="path3786"
         d="m -222.28125,245.28125 c -7.01699,0 -13.43451,2.49295 -18.21875,6.5625 -4.86529,4.13872 -8.10165,9.97188 -8.46875,16.59375 -0.37389,6.81243 2.34543,13.15798 7.125,17.84375 4.86571,4.77362 11.8041,7.78125 19.5625,7.78125 7.76053,0 14.69848,-3.00763 19.5625,-7.78125 4.78126,-4.68577 7.50102,-11.02623 7.125,-17.84375 -0.3705,-6.62017 -3.60218,-12.45503 -8.46875,-16.59375 -4.78465,-4.06912 -11.20007,-6.5625 -18.21875,-6.5625 z"
         style="fill:#045585;fill-opacity:1;display:inline"
         inkscape:connector-curvature="0" />
    </g>
  </g>
  <g
     inkscape:groupmode="layer"
     id="layer5"
     inkscape:label="Inset"
     transform="translate(0,-1004.3622)"
     sodipodi:insensitive="true"
     style="display:inline">
    <path
       style="opacity:0.15;fill:#000000;fill-opacity:1;stroke:none;display:inline"
       d="m 1.991,1038.3622 0,3 c 0,4.986 4.014,9 9.000001,9 l 25.999999,0 c 4.986,0 9,-4.014 9,-9 l 0,-3 c 0,4.986 -4.014,9 -9,9 l -25.999999,0 c -4.986001,0 -9.000001,-4.014 -9.000001,-9 z"
       id="rect3038-42"
       inkscape:connector-curvature="0" />
  </g>
  <g
     inkscape:groupmode="layer"
     id="layer6"
     inkscape:label="Baseshape"
     transform="translate(0,-1004.3622)"
     sodipodi:insensitive="true"
     style="display:none">
    <rect
       rx="9"
       ry="9"
       y="1006.3622"
       x="2"
       height="44"
       width="44"
       id="rect4169"
       style="fill:#abe1ad;fill-opacity:1;stroke:none;display:inline" />
  </g>
</svg>
