<?xml version="1.0" encoding="UTF-8" standalone="no"?>
<!-- Created with Inkscape (http://www.inkscape.org/) -->

<svg
   xmlns:dc="http://purl.org/dc/elements/1.1/"
   xmlns:cc="http://creativecommons.org/ns#"
   xmlns:rdf="http://www.w3.org/1999/02/22-rdf-syntax-ns#"
   xmlns:svg="http://www.w3.org/2000/svg"
   xmlns="http://www.w3.org/2000/svg"
   xmlns:xlink="http://www.w3.org/1999/xlink"
   xmlns:sodipodi="http://sodipodi.sourceforge.net/DTD/sodipodi-0.dtd"
   xmlns:inkscape="http://www.inkscape.org/namespaces/inkscape"
   width="48"
   height="48"
   id="svg2"
   version="1.1"
   inkscape:version="0.48.5 r10040"
   sodipodi:docname="blender.svg">
  <defs
     id="defs4">
    <linearGradient
       id="linearGradient3768">
      <stop
         style="stop-color:#f7f7e8;stop-opacity:1;"
         offset="0"
         id="stop3770" />
      <stop
         style="stop-color:#f0f0e8;stop-opacity:1;"
         offset="1"
         id="stop3772" />
    </linearGradient>
    <radialGradient
       r="23"
       fy="42.499992"
       fx="24.000002"
       cy="42.499992"
       cx="24.000002"
       gradientTransform="matrix(1.0434782,0,0,0.1956518,-1.07163,41.184809)"
       gradientUnits="userSpaceOnUse"
       id="radialGradient3913"
       xlink:href="#linearGradient4243-9"
       inkscape:collect="always" />
    <linearGradient
       id="linearGradient4243-9">
      <stop
         style="stop-color:#000000;stop-opacity:1;"
         offset="0"
         id="stop4245-0" />
      <stop
         style="stop-color:#000000;stop-opacity:0;"
         offset="1"
         id="stop4247-7" />
    </linearGradient>
    <radialGradient
       r="23"
       fy="42.499992"
       fx="24.000002"
       cy="42.499992"
       cx="24.000002"
       gradientTransform="matrix(1.0434782,0,0,0.1956518,-1.07173,1045.547)"
       gradientUnits="userSpaceOnUse"
       id="radialGradient3076"
       xlink:href="#linearGradient4243-9"
       inkscape:collect="always" />
    <linearGradient
       inkscape:collect="always"
       xlink:href="#linearGradient3768"
       id="linearGradient3776"
       x1="2"
       y1="1028.3622"
       x2="46"
       y2="1028.3622"
       gradientUnits="userSpaceOnUse"
       gradientTransform="translate(1004.3622,-1052.3622)" />
  </defs>
  <sodipodi:namedview
     id="base"
     pagecolor="#ffffff"
     bordercolor="#666666"
     borderopacity="1.0"
     inkscape:pageopacity="0.0"
     inkscape:pageshadow="2"
     inkscape:zoom="13.003265"
     inkscape:cx="51.988159"
     inkscape:cy="28.164296"
     inkscape:document-units="px"
     inkscape:current-layer="layer4"
     showgrid="false"
     inkscape:window-width="1920"
     inkscape:window-height="1052"
     inkscape:window-x="0"
     inkscape:window-y="28"
     inkscape:window-maximized="1" />
  <metadata
     id="metadata7">
    <rdf:RDF>
      <cc:Work
         rdf:about="">
        <dc:format>image/svg+xml</dc:format>
        <dc:type
           rdf:resource="http://purl.org/dc/dcmitype/StillImage" />
        <dc:title />
      </cc:Work>
    </rdf:RDF>
  </metadata>
  <g
     inkscape:label="Fake blur shadow"
     inkscape:groupmode="layer"
     id="layer1"
     transform="translate(0,-1004.3622)"
     sodipodi:insensitive="true">
    <g
       id="g3878"
       transform="translate(-39.765879,1007.8889)">
      <path
         inkscape:connector-curvature="0"
         id="rect3829"
         d="m 49.765879,-2.5266567 c -4.986,0 -9,4.014 -9,9 l 0,27.9999997 c 0,4.986 4.014,9 9,9 l 28,0 c 4.986,0 9,-4.014 9,-9 l 0,-27.9999997 c 0,-4.986 -4.014,-9 -9,-9 l -28,0 z m 0.5,0.5 27,0 c 4.986,0 9,4.014 9,9 l 0,26.9999997 c 0,4.986 -4.014,9 -9,9 l -27,0 c -4.986,0 -9,-4.014 -9,-9 l 0,-26.9999997 c 0,-4.986 4.014,-9 9,-9 z"
         style="opacity:0.06000001;fill:#000000;fill-opacity:1;stroke:none;display:inline" />
      <path
         inkscape:connector-curvature="0"
         id="rect3827"
         d="m 50.265879,-2.0266567 c -4.986,0 -9,4.014 -9,9 l 0,26.9999997 c 0,4.986 4.014,9 9,9 l 27,0 c 4.986,0 9,-4.014 9,-9 l 0,-26.9999997 c 0,-4.986 -4.014,-9 -9,-9 l -27,0 z m 0.25,0.25 26.5,0 c 4.986,0 9,4.014 9,9 l 0,26.4999997 c 0,4.986 -4.014,9 -9,9 l -26.5,0 c -4.986,0 -9,-4.014 -9,-9 l 0,-26.4999997 c 0,-4.986 4.014,-9 9,-9 z"
         style="opacity:0.12000002;fill:#000000;fill-opacity:1;stroke:none;display:inline" />
      <rect
         rx="9"
         ry="9"
         y="-1.7766566"
         x="41.515881"
         height="44.5"
         width="44.5"
         id="rect3038-4"
         style="opacity:0.23999999;fill:#000000;fill-opacity:1;stroke:none;display:inline" />
    </g>
  </g>
  <g
     inkscape:groupmode="layer"
     id="layer2"
     inkscape:label="Blob"
     transform="translate(0,-1004.3622)"
     sodipodi:insensitive="true"
     style="display:none">
    <path
       style="opacity:0.3;fill:url(#radialGradient3076);fill-opacity:1;stroke:none;display:inline"
       d="m 1.003,1049.3622 c 0.487953,4.5189 4.315946,8 8.96875,8 l 28,0 c 4.652804,0 8.480796,-3.4811 8.96875,-8 l -45.9375,0 z"
       id="rect4241"
       inkscape:connector-curvature="0" />
  </g>
  <g
     inkscape:groupmode="layer"
     id="layer3"
     inkscape:label="Baseplate"
     transform="translate(0,-1004.3622)">
    <rect
       rx="9"
       ry="9"
       y="-46"
       x="1006.3622"
       height="44"
       width="44"
       id="rect4169-3"
       style="fill:url(#linearGradient3776);fill-opacity:1;stroke:none;display:inline"
       transform="matrix(0,1,-1,0,0,0)" />
  </g>
  <g
     inkscape:groupmode="layer"
     id="layer4"
     inkscape:label="Symbol"
     transform="translate(0,-1004.3622)">
    <g
       transform="matrix(0.04297393,0,0,0.04297393,13.072406,1017.4515)"
       id="g3862"
       style="opacity:0.15;fill:#000000">
      <g
         id="g3864"
         style="fill:#000000">
        <g
           id="g3866"
           style="fill:#000000">
          <polygon
             style="fill:#000000"
             points="27,136.655 27,254.875 123,303.193 123,184.973 "
             id="polygon3868" />
          <polygon
             style="fill:#000000"
             points="242,244.967 146,196.636 146,314.855 242,363.193 "
             id="polygon3870" />
          <polygon
             style="fill:#000000"
             points="242,509.92 242,391.752 146,343.428 146,461.635 "
             id="polygon3872" />
          <polygon
             style="fill:#000000"
             points="27,401.622 123,449.946 123,331.765 27,283.453 "
             id="polygon3874" />
        </g>
        <g
           id="g3876"
           style="fill:#000000">
          <polygon
             style="fill:#000000"
             points="486,136.655 486,254.875 390,303.193 390,184.973 "
             id="polygon3878" />
          <polygon
             style="fill:#000000"
             points="271,244.967 367,196.636 367,314.855 271,363.193 "
             id="polygon3880" />
          <polygon
             style="fill:#000000"
             points="271,509.92 271,391.752 367,343.428 367,461.635 "
             id="polygon3882" />
          <polygon
             style="fill:#000000"
             points="486,401.622 390,449.946 390,331.765 486,283.453 "
             id="polygon3884" />
        </g>
      </g>
      <g
         id="g3886"
         style="fill:#000000">
        <polygon
           style="fill:#000000"
           points="255.718,1.305 157.738,46.844 255.796,94.214 353.971,46.11 "
           id="polygon3888" />
        <polygon
           style="fill:#000000"
           points="484.074,105.467 378.516,57.312 280.36,106.078 385.919,157.071 "
           id="polygon3890" />
        <polygon
           style="fill:#000000"
           points="255.978,225.415 361.373,170.006 255.815,118.259 150.679,170.493 "
           id="polygon3892" />
        <polygon
           style="fill:#000000"
           points="28.627,106.85 126.212,157.733 231.276,106.24 133.296,58.201 "
           id="polygon3894" />
      </g>
    </g>
    <g
       id="g3903"
       transform="translate(0,1.4999826)">
      <polygon
         transform="matrix(0.04297393,0,0,0.04297393,12.881967,1015.8035)"
         id="polygon3146"
         points="242,363.193 242,244.967 146,196.636 146,314.855 "
         style="fill:#209cc8;fill-opacity:1" />
      <polygon
         transform="matrix(0.04297393,0,0,0.04297393,12.881967,1015.8035)"
         id="polygon3156"
         points="271,363.193 271,244.967 367,196.636 367,314.855 "
         style="fill:#209cc8;fill-opacity:1" />
      <polygon
         transform="matrix(0.04297393,0,0,0.04297393,12.881967,1015.8035)"
         style="fill:#209cc8;fill-opacity:1"
         points="361.373,170.006 255.815,118.259 150.679,170.493 255.978,225.415 "
         id="polygon3168" />
    </g>
    <g
       id="g3892"
       style="fill:#f77c00;fill-opacity:1"
       transform="translate(0,1.4999826)">
      <polygon
         transform="matrix(0.04297393,0,0,0.04297393,12.881967,1015.8035)"
         id="polygon3144"
         points="123,184.973 27,136.655 27,254.875 123,303.193 "
         style="fill:#f77c00;fill-opacity:1" />
      <polygon
         transform="matrix(0.04297393,0,0,0.04297393,12.881967,1015.8035)"
         id="polygon3148"
         points="146,461.635 242,509.92 242,391.752 146,343.428 "
         style="fill:#f77c00;fill-opacity:1" />
      <polygon
         transform="matrix(0.04297393,0,0,0.04297393,12.881967,1015.8035)"
         id="polygon3150"
         points="27,283.453 27,401.622 123,449.946 123,331.765 "
         style="fill:#f77c00;fill-opacity:1" />
      <polygon
         transform="matrix(0.04297393,0,0,0.04297393,12.881967,1015.8035)"
         id="polygon3154"
         points="390,184.973 486,136.655 486,254.875 390,303.193 "
         style="fill:#f77c00;fill-opacity:1" />
      <polygon
         transform="matrix(0.04297393,0,0,0.04297393,12.881967,1015.8035)"
         id="polygon3158"
         points="367,461.635 271,509.92 271,391.752 367,343.428 "
         style="fill:#f77c00;fill-opacity:1" />
      <polygon
         transform="matrix(0.04297393,0,0,0.04297393,12.881967,1015.8035)"
         id="polygon3160"
         points="486,283.453 486,401.622 390,449.946 390,331.765 "
         style="fill:#f77c00;fill-opacity:1" />
      <polygon
         transform="matrix(0.04297393,0,0,0.04297393,12.881967,1015.8035)"
         style="fill:#f77c00;fill-opacity:1"
         points="157.738,46.844 255.796,94.214 353.971,46.11 255.718,1.305 "
         id="polygon3164" />
      <polygon
         transform="matrix(0.04297393,0,0,0.04297393,12.881967,1015.8035)"
         style="fill:#f77c00;fill-opacity:1"
         points="378.516,57.312 280.36,106.078 385.919,157.071 484.074,105.467 "
         id="polygon3166" />
      <polygon
         transform="matrix(0.04297393,0,0,0.04297393,12.881967,1015.8035)"
         style="fill:#f77c00;fill-opacity:1"
         points="126.212,157.733 231.276,106.24 133.296,58.201 28.627,106.85 "
         id="polygon3170" />
    </g>
    <g
       style="opacity:0.15;fill:#000000;fill-opacity:1"
       transform="translate(0.04611965,-0.3636924)"
       id="g4596">
      <path
         style="fill:#000000;fill-opacity:1;stroke:none"
         d="m 8.5710677,1013.3665 0,8.8892 1.3304721,0 0,-7.5587 7.5587452,0 0,-1.3305 -8.8892173,0 z"
         id="path4598"
         inkscape:connector-curvature="0" />
      <path
         id="path4600"
         d="m 8.5710677,1044.3665 8.8892303,0 0,-1.3305 -7.5587582,0 0,-7.5588 -1.3304721,0 0,8.8893 z"
         style="fill:#000000;fill-opacity:1;stroke:none"
         inkscape:connector-curvature="0" />
      <path
         id="path4602"
         d="m 39.571068,1013.3665 0,8.8892 -1.330471,0 0,-7.5587 -7.558747,0 0,-1.3305 8.889218,0 z"
         style="fill:#000000;fill-opacity:1;stroke:none"
         inkscape:connector-curvature="0" />
      <path
         inkscape:connector-curvature="0"
         style="fill:#000000;fill-opacity:1;stroke:none"
         d="m 39.571068,1044.3665 -8.889232,0 0,-1.3305 7.558761,0 0,-7.5588 1.330471,0 0,8.8893 z"
         id="path4604" />
    </g>
    <g
       id="g4539"
       transform="translate(-0.18825535,-0.6449424)"
       style="fill:#045585;fill-opacity:1">
      <path
         inkscape:connector-curvature="0"
         id="rect4522"
         d="m 8.5710677,1013.3665 0,8.8892 1.3304721,0 0,-7.5587 7.5587452,0 0,-1.3305 -8.8892173,0 z"
         style="fill:#045585;fill-opacity:1;stroke:none" />
      <path
         inkscape:connector-curvature="0"
         style="fill:#045585;fill-opacity:1;stroke:none"
         d="m 8.5710677,1044.3665 8.8892303,0 0,-1.3305 -7.5587582,0 0,-7.5588 -1.3304721,0 0,8.8893 z"
         id="path4529" />
      <path
         inkscape:connector-curvature="0"
         style="fill:#045585;fill-opacity:1;stroke:none"
         d="m 39.571068,1013.3665 0,8.8892 -1.330471,0 0,-7.5587 -7.558747,0 0,-1.3305 8.889218,0 z"
         id="path4531" />
      <path
         id="path4533"
         d="m 39.571068,1044.3665 -8.889232,0 0,-1.3305 7.558761,0 0,-7.5588 1.330471,0 0,8.8893 z"
         style="fill:#045585;fill-opacity:1;stroke:none"
         inkscape:connector-curvature="0" />
    </g>
  </g>
  <g
     inkscape:groupmode="layer"
     id="layer5"
     inkscape:label="Inset"
     transform="translate(0,-1004.3622)"
     sodipodi:insensitive="true"
     style="display:inline">
    <path
       style="opacity:0.15;fill:#000000;fill-opacity:1;stroke:none;display:inline"
       d="m 1.991,1038.3622 0,3 c 0,4.986 4.014,9 9.000001,9 l 25.999999,0 c 4.986,0 9,-4.014 9,-9 l 0,-3 c 0,4.986 -4.014,9 -9,9 l -25.999999,0 c -4.986001,0 -9.000001,-4.014 -9.000001,-9 z"
       id="rect3038-42"
       inkscape:connector-curvature="0" />
  </g>
  <g
     inkscape:groupmode="layer"
     id="layer6"
     inkscape:label="Baseshape"
     transform="translate(0,-1004.3622)"
     sodipodi:insensitive="true"
     style="display:none">
    <rect
       rx="9"
       ry="9"
       y="1006.3622"
       x="2"
       height="44"
       width="44"
       id="rect4169"
       style="fill:#abe1ad;fill-opacity:1;stroke:none;display:inline" />
  </g>
</svg>
