<?xml version="1.0" encoding="UTF-8" standalone="no"?>
<!-- Created with Inkscape (http://www.inkscape.org/) -->

<svg
   xmlns:dc="http://purl.org/dc/elements/1.1/"
   xmlns:cc="http://creativecommons.org/ns#"
   xmlns:rdf="http://www.w3.org/1999/02/22-rdf-syntax-ns#"
   xmlns:svg="http://www.w3.org/2000/svg"
   xmlns="http://www.w3.org/2000/svg"
   xmlns:xlink="http://www.w3.org/1999/xlink"
   xmlns:sodipodi="http://sodipodi.sourceforge.net/DTD/sodipodi-0.dtd"
   xmlns:inkscape="http://www.inkscape.org/namespaces/inkscape"
   width="48"
   height="48"
   id="svg4230"
   version="1.1"
   inkscape:version="0.91+devel r"
   sodipodi:docname="conky-manager.svg">
  <defs
     id="defs4232">
    <linearGradient
       inkscape:collect="always"
       id="linearGradient4356">
      <stop
         style="stop-color:#171f29;stop-opacity:1"
         offset="0"
         id="stop4358" />
      <stop
         style="stop-color:#1a2430;stop-opacity:1"
         offset="1"
         id="stop4360" />
    </linearGradient>
    <linearGradient
       id="linearGradient4348">
      <stop
         id="stop4350"
         offset="0"
         style="stop-color:#5678a1;stop-opacity:1" />
      <stop
         id="stop4352"
         offset="1"
         style="stop-color:#5d81ae;stop-opacity:1" />
    </linearGradient>
    <linearGradient
       id="linearGradient4243">
      <stop
         style="stop-color:#000000;stop-opacity:1;"
         offset="0"
         id="stop4245" />
      <stop
         style="stop-color:#000000;stop-opacity:0;"
         offset="1"
         id="stop4247" />
    </linearGradient>
    <radialGradient
       inkscape:collect="always"
       xlink:href="#linearGradient4243"
       id="radialGradient4274"
       gradientUnits="userSpaceOnUse"
       gradientTransform="matrix(1.0434782,0,0,0.1956518,-1.0434797,35.184809)"
       cx="24.000001"
       cy="42.499991"
       fx="24.000001"
       fy="42.499991"
       r="23" />
    <linearGradient
       inkscape:collect="always"
       xlink:href="#linearGradient4356"
       id="linearGradient4362"
       x1="19.997875"
       y1="34.004734"
       x2="19.997875"
       y2="9.9978161"
       gradientUnits="userSpaceOnUse" />
    <linearGradient
       gradientTransform="matrix(0.26578948,0,0,0.25,29.921052,8.25)"
       inkscape:collect="always"
       xlink:href="#linearGradient5080"
       id="linearGradient5086"
       x1="25"
       y1="35"
       x2="25"
       y2="11"
       gradientUnits="userSpaceOnUse" />
    <linearGradient
       inkscape:collect="always"
       id="linearGradient5080">
      <stop
         style="stop-color:#dcf0fa;stop-opacity:1"
         offset="0"
         id="stop5082" />
      <stop
         style="stop-color:#ffffff;stop-opacity:1"
         offset="1"
         id="stop5084" />
    </linearGradient>
    <linearGradient
       inkscape:collect="always"
       xlink:href="#linearGradient5080"
       id="linearGradient4217"
       x1="25.013903"
       y1="26.587923"
       x2="25.013903"
       y2="17.43973"
       gradientUnits="userSpaceOnUse" />
    <linearGradient
       id="linearGradient4198">
      <stop
         style="stop-color:#cbcbcb;stop-opacity:1;"
         offset="0"
         id="stop4200" />
      <stop
         style="stop-color:#e2e2e2;stop-opacity:1;"
         offset="1"
         id="stop4202" />
    </linearGradient>
    <linearGradient
       id="linearGradient3874">
      <stop
         id="stop3876"
         offset="0"
         style="stop-color:#d9e0e3;stop-opacity:1" />
      <stop
         id="stop3878"
         offset="1"
         style="stop-color:#ecf1f3;stop-opacity:1" />
    </linearGradient>
    <linearGradient
       gradientUnits="userSpaceOnUse"
       y2="2"
       x2="2"
       y1="43"
       x1="44"
       id="linearGradient3880"
       xlink:href="#linearGradient3755"
       inkscape:collect="always" />
    <linearGradient
       id="linearGradient3755">
      <stop
         style="stop-color:#00f0b3;stop-opacity:1;"
         offset="0"
         id="stop3757" />
      <stop
         id="stop3763"
         offset="0.70833331"
         style="stop-color:#2db1e4;stop-opacity:1;" />
      <stop
         style="stop-color:#9d4ede;stop-opacity:1;"
         offset="1"
         id="stop3759" />
    </linearGradient>
    <linearGradient
       gradientUnits="userSpaceOnUse"
       y2="4"
       x2="5"
       y1="41"
       x1="44"
       id="linearGradient3868-3"
       xlink:href="#linearGradient3755"
       inkscape:collect="always" />
  </defs>
  <sodipodi:namedview
     id="base"
     pagecolor="#ffffff"
     bordercolor="#666666"
     borderopacity="1.0"
     inkscape:pageopacity="0.0"
     inkscape:pageshadow="2"
     inkscape:zoom="11.313708"
     inkscape:cx="26.990912"
     inkscape:cy="24.105124"
     inkscape:document-units="px"
     inkscape:current-layer="layer2"
     showgrid="true"
     inkscape:showpageshadow="false"
     borderlayer="true"
     inkscape:window-width="1366"
     inkscape:window-height="670"
     inkscape:window-x="-4"
     inkscape:window-y="29"
     inkscape:window-maximized="1"
     showguides="false"
     inkscape:guide-bbox="true"
     inkscape:snap-nodes="false"
     inkscape:object-paths="false"
     inkscape:snap-intersection-paths="true"
     inkscape:snap-smooth-nodes="false"
     inkscape:object-nodes="false"
     inkscape:snap-midpoints="false"
     inkscape:snap-global="true"
     guidetolerance="20"
     gridtolerance="10000">
    <inkscape:grid
       type="xygrid"
       id="grid4162" />
    <sodipodi:guide
       position="1.0000013,47.000017"
       orientation="46,0"
       id="guide4163" />
    <sodipodi:guide
       position="1.0000013,1.0000174"
       orientation="0,45.999999"
       id="guide4165" />
    <sodipodi:guide
       position="47,1.0000174"
       orientation="-46,0"
       id="guide4167" />
    <sodipodi:guide
       position="47,47.000017"
       orientation="0,-45.999999"
       id="guide4169" />
    <sodipodi:guide
       position="2.0000007,46.000017"
       orientation="44,0"
       id="guide4173" />
    <sodipodi:guide
       position="2.0000007,2.0000174"
       orientation="0,43.999999"
       id="guide4175" />
    <sodipodi:guide
       position="46,2.0000174"
       orientation="-44,0"
       id="guide4177" />
    <sodipodi:guide
       position="46,46.000017"
       orientation="0,-43.999999"
       id="guide4179" />
    <sodipodi:guide
       position="3,45.000017"
       orientation="42,0"
       id="guide4183" />
    <sodipodi:guide
       position="45,3.0000174"
       orientation="-42,0"
       id="guide4187" />
    <sodipodi:guide
       position="45,45.000017"
       orientation="0,-42"
       id="guide4189" />
    <sodipodi:guide
       position="3,45.000017"
       orientation="42,0"
       id="guide4193" />
    <sodipodi:guide
       position="3,3.0000174"
       orientation="0,42"
       id="guide4195" />
    <sodipodi:guide
       position="45,3.0000174"
       orientation="-42,0"
       id="guide4197" />
    <sodipodi:guide
       position="45,45.000017"
       orientation="0,-42"
       id="guide4199" />
    <sodipodi:guide
       position="3,10.000017"
       orientation="7,0"
       id="guide4203" />
    <sodipodi:guide
       position="3,3.0000174"
       orientation="0,42"
       id="guide4205" />
    <sodipodi:guide
       position="45,3.0000174"
       orientation="-7,0"
       id="guide4207" />
    <sodipodi:guide
       position="45,10.000017"
       orientation="0,-42"
       id="guide4209" />
  </sodipodi:namedview>
  <metadata
     id="metadata4235">
    <rdf:RDF>
      <cc:Work
         rdf:about="">
        <dc:format>image/svg+xml</dc:format>
        <dc:type
           rdf:resource="http://purl.org/dc/dcmitype/StillImage" />
        <dc:title />
      </cc:Work>
    </rdf:RDF>
  </metadata>
  <g
     inkscape:groupmode="layer"
     id="layer3"
     inkscape:label="Fake blur shadow"
     style="display:inline"
     sodipodi:insensitive="true">
    <path
       style="opacity:0.06000001;fill:#000000;fill-opacity:1;stroke:none"
       d="M 10,1 C 5.014,1 1,5.014 1,10 l 0,28 c 0,4.986 4.014,9 9,9 l 28,0 c 4.986,0 9,-4.014 9,-9 L 47,10 C 47,5.014 42.986,1 38,1 L 10,1 z m 0.5,0.5 27,0 c 4.986,0 9,4.014 9,9 l 0,27 c 0,4.986 -4.014,9 -9,9 l -27,0 c -4.986,0 -9,-4.014 -9,-9 l 0,-27 c 0,-4.986 4.014,-9 9,-9 z"
       id="rect3829"
       inkscape:connector-curvature="0" />
    <path
       style="opacity:0.12000002;fill:#000000;fill-opacity:1;stroke:none"
       d="m 10.5,1.5 c -4.986,0 -9,4.014 -9,9 l 0,27 c 0,4.986 4.014,9 9,9 l 27,0 c 4.986,0 9,-4.014 9,-9 l 0,-27 c 0,-4.986 -4.014,-9 -9,-9 l -27,0 z m 0.25,0.25 26.5,0 c 4.986,0 9,4.014 9,9 l 0,26.5 c 0,4.986 -4.014,9 -9,9 l -26.5,0 c -4.986,0 -9,-4.014 -9,-9 l 0,-26.5 c 0,-4.986 4.014,-9 9,-9 z"
       id="rect3827"
       inkscape:connector-curvature="0" />
    <rect
       style="opacity:0.23999999;fill:#000000;fill-opacity:1;stroke:none"
       id="rect3038-4"
       width="44.5"
       height="44.5"
       x="1.75"
       y="1.75"
       ry="9"
       rx="9" />
  </g>
  <g
     inkscape:groupmode="layer"
     id="layer6"
     inkscape:label="Blob"
     style="display:inline"
     sodipodi:insensitive="true">
    <path
       style="opacity:0.3;fill:url(#radialGradient4274);fill-opacity:1;stroke:none"
       d="M 1.03125,39 C 1.5192036,43.518898 5.3471961,47 10,47 l 28,0 c 4.652804,0 8.480796,-3.481102 8.96875,-8 l -45.9375,0 z"
       id="rect4241"
       inkscape:connector-curvature="0" />
  </g>
  <g
     inkscape:groupmode="layer"
     id="layer2"
     inkscape:label="Baseplate"
     style="display:inline">
    <g
       id="layer2-8"
       inkscape:label="Baseplate"
       style="display:inline"
       transform="translate(0,1.7404556e-5)">
      <rect
         style="fill:url(#linearGradient3880);fill-opacity:1;stroke:none"
         id="rect3038-5"
         width="44"
         height="44"
         x="2"
         y="1.9999826"
         ry="9"
         rx="9" />
    </g>
    <rect
       ry="0.99794447"
       rx="0"
       y="11"
       x="5"
       height="24"
       width="38"
       id="rect4399"
       style="opacity:1;fill:#000000;fill-opacity:0.23529412;stroke:none" />
    <rect
       style="opacity:1;fill:url(#linearGradient4362);fill-opacity:1;stroke:none"
       id="rect4354"
       width="38"
       height="24"
       x="5"
       y="10"
       rx="0"
       ry="0.99794447" />
    <path
       id="path4219"
       d="m 10.208984,18.435547 c -0.3013975,0 -0.5871006,0.05822 -0.8554684,0.173828 -0.264239,0.111475 -0.4951801,0.266664 -0.6933594,0.464844 -0.1981792,0.198179 -0.3550985,0.42912 -0.4707031,0.693359 -0.1114758,0.264239 -0.1660156,0.546258 -0.1660156,0.847656 l 0,4.769532 c 0,0.301397 0.05454,0.583417 0.1660156,0.847656 0.1156046,0.264239 0.2725239,0.49518 0.4707031,0.693359 0.1981793,0.19818 0.4291204,0.355099 0.6933594,0.470703 0.2683678,0.111476 0.5540709,0.167969 0.8554684,0.167969 l 0.376954,0 c 0.301397,0 0.58537,-0.05649 0.849609,-0.167969 0.264239,-0.115604 0.49518,-0.272523 0.693359,-0.470703 0.19818,-0.198179 0.353368,-0.42912 0.464844,-0.693359 0.115605,-0.264239 0.173828,-0.546259 0.173828,-0.847656 l 0,-4.769532 c 0,-0.301398 -0.05822,-0.583417 -0.173828,-0.847656 -0.111476,-0.264239 -0.266664,-0.49518 -0.464844,-0.693359 -0.198179,-0.19818 -0.42912,-0.353369 -0.693359,-0.464844 -0.264239,-0.115605 -0.548212,-0.173828 -0.849609,-0.173828 l -0.376954,0 z m 9.240235,0 c -0.301398,0 -0.587101,0.05822 -0.855469,0.173828 -0.264239,0.111475 -0.495181,0.266664 -0.693359,0.464844 -0.19818,0.198179 -0.355099,0.42912 -0.470703,0.693359 -0.111476,0.264239 -0.166016,0.546258 -0.166016,0.847656 l 0,4.769532 c 0,0.301397 0.05454,0.583417 0.166016,0.847656 0.115604,0.264239 0.272523,0.49518 0.470703,0.693359 0.198178,0.19818 0.42912,0.355099 0.693359,0.470703 0.268368,0.111476 0.554071,0.167969 0.855469,0.167969 l 0.376953,0 c 0.301398,0 0.585371,-0.05649 0.849609,-0.167969 0.26424,-0.115604 0.49518,-0.272523 0.69336,-0.470703 0.198179,-0.198179 0.353367,-0.42912 0.464843,-0.693359 0.115604,-0.264239 0.171875,-0.546259 0.171875,-0.847656 l 0,-4.769532 c 0,-0.301398 -0.05627,-0.583417 -0.171875,-0.847656 -0.111476,-0.264239 -0.266664,-0.49518 -0.464843,-0.693359 -0.19818,-0.19818 -0.42912,-0.353369 -0.69336,-0.464844 -0.264238,-0.115605 -0.548211,-0.173828 -0.849609,-0.173828 l -0.376953,0 z m 6.515625,0 c -0.301398,0 -0.587101,0.05822 -0.855469,0.173828 -0.264239,0.111475 -0.49518,0.266664 -0.693359,0.464844 -0.19818,0.198179 -0.355099,0.42912 -0.470704,0.693359 -0.111475,0.264239 -0.167968,0.546258 -0.167968,0.847656 l 0,4.769532 c 0,0.301397 0.05649,0.583417 0.167968,0.847656 0.115605,0.264239 0.272524,0.49518 0.470704,0.693359 0.198179,0.19818 0.42912,0.355099 0.693359,0.470703 0.268368,0.111476 0.554071,0.167969 0.855469,0.167969 l 0.376953,0 c 0.301397,0 0.583417,-0.05649 0.847656,-0.167969 0.264239,-0.115604 0.497133,-0.272523 0.695313,-0.470703 0.198179,-0.198179 0.351414,-0.42912 0.46289,-0.693359 0.115605,-0.264239 0.173828,-0.546259 0.173828,-0.847656 l 0,-4.769532 c 0,-0.301398 -0.05822,-0.583417 -0.173828,-0.847656 -0.111476,-0.264239 -0.264711,-0.49518 -0.46289,-0.693359 -0.19818,-0.19818 -0.431074,-0.353369 -0.695313,-0.464844 -0.264239,-0.115605 -0.546259,-0.173828 -0.847656,-0.173828 l -0.376953,0 z m -15.71875,0.761719 0.302734,0 c 0.198179,0 0.383457,0.03701 0.552734,0.111328 0.173408,0.07432 0.323182,0.176697 0.451172,0.304687 0.127991,0.127991 0.228417,0.277765 0.302735,0.451172 0.07432,0.169278 0.111328,0.352602 0.111328,0.550781 l 0,4.769532 c 0,0.198178 -0.03701,0.383233 -0.111328,0.55664 -0.07432,0.169278 -0.174744,0.321006 -0.302735,0.453125 -0.12799,0.127991 -0.277764,0.228417 -0.451172,0.302735 -0.169278,0.07432 -0.354555,0.111328 -0.552734,0.111328 l -0.302734,0 c -0.198179,0 -0.383234,-0.03701 -0.5566409,-0.111328 C 9.520175,26.622948 9.3684477,26.522522 9.2363281,26.394531 9.1083373,26.262412 9.0079109,26.110684 8.9335938,25.941406 8.8592766,25.767999 8.8222656,25.582944 8.8222656,25.384766 l 0,-4.769532 c 0,-0.198179 0.037011,-0.381503 0.1113282,-0.550781 0.074317,-0.173407 0.1747435,-0.323181 0.3027343,-0.451172 0.1321196,-0.12799 0.2838469,-0.23037 0.453125,-0.304687 0.1734069,-0.07432 0.3584619,-0.111328 0.5566409,-0.111328 z m 9.240234,0 0.302734,0 c 0.19818,0 0.381504,0.03701 0.550782,0.111328 0.173406,0.07432 0.325134,0.176697 0.453125,0.304687 0.127991,0.127991 0.228417,0.277765 0.302734,0.451172 0.07432,0.169278 0.111328,0.352602 0.111328,0.550781 l 0,4.769532 c 0,0.198178 -0.03701,0.383233 -0.111328,0.55664 -0.07432,0.169278 -0.174743,0.321006 -0.302734,0.453125 -0.127991,0.127991 -0.279719,0.228417 -0.453125,0.302735 -0.169278,0.07432 -0.352602,0.111328 -0.550782,0.111328 l -0.302734,0 c -0.198179,0 -0.383234,-0.03701 -0.55664,-0.111328 -0.169279,-0.07432 -0.321006,-0.174744 -0.453126,-0.302735 -0.12799,-0.132119 -0.228417,-0.283847 -0.302734,-0.453125 -0.07432,-0.173407 -0.111328,-0.358462 -0.111328,-0.55664 l 0,-4.769532 c 0,-0.198179 0.03701,-0.381503 0.111328,-0.550781 0.07432,-0.173407 0.174744,-0.323181 0.302734,-0.451172 0.13212,-0.12799 0.283847,-0.23037 0.453126,-0.304687 0.173406,-0.07432 0.358461,-0.111328 0.55664,-0.111328 z m 6.515625,0 0.302735,0 c 0.198179,0 0.381503,0.03701 0.550781,0.111328 0.173407,0.07432 0.325134,0.176697 0.453125,0.304687 0.12799,0.127991 0.228417,0.277765 0.302734,0.451172 0.07432,0.169278 0.111328,0.352602 0.111328,0.550781 l 0,4.769532 c 0,0.198178 -0.03701,0.383233 -0.111328,0.55664 -0.07432,0.169278 -0.174744,0.321006 -0.302734,0.453125 -0.127991,0.127991 -0.279718,0.228417 -0.453125,0.302735 -0.169278,0.07432 -0.352602,0.111328 -0.550781,0.111328 l -0.302735,0 c -0.198179,0 -0.385187,-0.03701 -0.558594,-0.111328 -0.169278,-0.07432 -0.319052,-0.174744 -0.451171,-0.302735 -0.127991,-0.132119 -0.230371,-0.283847 -0.304688,-0.453125 -0.07432,-0.173407 -0.111328,-0.358462 -0.111328,-0.55664 l 0,-4.769532 c 0,-0.198179 0.03701,-0.381503 0.111328,-0.550781 0.07432,-0.173407 0.176697,-0.323181 0.304688,-0.451172 0.13212,-0.12799 0.281893,-0.23037 0.451171,-0.304687 0.173407,-0.07432 0.360415,-0.111328 0.558594,-0.111328 z m -11.464844,1.902343 0,0.953125 0.955079,0 0,-0.953125 -0.955079,0 z m 18.355469,1.419922 0,4.921875 0.44336,0 0,-1.892578 1.115234,0 c 0.167028,0 0.324268,-0.03002 0.470703,-0.0918 0.148723,-0.06406 0.278845,-0.151892 0.388672,-0.261719 0.109824,-0.109826 0.194079,-0.23833 0.255859,-0.384765 0.06407,-0.146435 0.09766,-0.301722 0.09766,-0.46875 l 0,-0.611328 c 0,-0.167028 -0.03359,-0.324268 -0.09766,-0.470703 -0.06178,-0.148724 -0.146032,-0.276892 -0.255859,-0.386719 -0.109827,-0.109824 -0.239949,-0.196033 -0.388672,-0.257813 -0.146435,-0.06407 -0.303675,-0.0957 -0.470703,-0.0957 l -1.558594,0 z m 3.611328,0 0,4.921875 0.44336,0 0,-3.375 0.02734,0.208985 1.152344,3.166015 0.234375,0 1.142578,-3.166015 0.03125,-0.208985 0,3.375 0.441406,0 0,-4.921875 -0.232421,0 -1.490235,4.035157 -0.01367,0.18164 -0.01367,-0.18164 -1.492187,-4.035157 -0.230469,0 z m -3.167968,0.421875 1.095703,0 c 0.109826,0 0.210876,0.01936 0.304687,0.06055 0.0961,0.04118 0.17907,0.09866 0.25,0.171875 0.07322,0.07093 0.130688,0.155855 0.171875,0.251953 0.04119,0.09381 0.0625,0.194861 0.0625,0.304688 l 0,0.611328 c 0,0.109827 -0.02131,0.212496 -0.0625,0.308594 -0.04118,0.09381 -0.09866,0.175164 -0.171875,0.246093 -0.07093,0.07093 -0.153902,0.128736 -0.25,0.169922 -0.09381,0.04119 -0.194861,0.06055 -0.304687,0.06055 l -1.095703,0 0,-2.185547 z m -18.798829,3.544922 0,0.955078 0.955079,0 0,-0.955078 -0.955079,0 z"
       style="font-style:normal;font-variant:normal;font-weight:normal;font-stretch:normal;font-size:medium;line-height:125%;font-family:Abel;-inkscape-font-specification:Abel;letter-spacing:0px;word-spacing:0px;fill:#000000;fill-opacity:0.35294119;stroke:none;stroke-width:1px;stroke-linecap:butt;stroke-linejoin:miter;stroke-opacity:1"
       inkscape:connector-curvature="0" />
    <path
       style="font-style:normal;font-variant:normal;font-weight:normal;font-stretch:normal;font-size:medium;line-height:125%;font-family:Abel;-inkscape-font-specification:Abel;letter-spacing:0px;word-spacing:0px;fill:url(#linearGradient4217);fill-opacity:1;stroke:none;stroke-width:1px;stroke-linecap:butt;stroke-linejoin:miter;stroke-opacity:1"
       d="M 10.208984 17.435547 C 9.9075865 17.435547 9.6218834 17.49377 9.3535156 17.609375 C 9.0892766 17.72085 8.8583355 17.876039 8.6601562 18.074219 C 8.461977 18.272398 8.3050577 18.503339 8.1894531 18.767578 C 8.0779773 19.031817 8.0234375 19.313836 8.0234375 19.615234 L 8.0234375 24.384766 C 8.0234375 24.686163 8.0779773 24.968183 8.1894531 25.232422 C 8.3050577 25.496661 8.461977 25.727602 8.6601562 25.925781 C 8.8583355 26.123961 9.0892766 26.28088 9.3535156 26.396484 C 9.6218834 26.50796 9.9075865 26.564453 10.208984 26.564453 L 10.585938 26.564453 C 10.887335 26.564453 11.171308 26.50796 11.435547 26.396484 C 11.699786 26.28088 11.930727 26.123961 12.128906 25.925781 C 12.327086 25.727602 12.482274 25.496661 12.59375 25.232422 C 12.709355 24.968183 12.767578 24.686163 12.767578 24.384766 L 12.767578 19.615234 C 12.767578 19.313836 12.709355 19.031817 12.59375 18.767578 C 12.482274 18.503339 12.327086 18.272398 12.128906 18.074219 C 11.930727 17.876039 11.699786 17.72085 11.435547 17.609375 C 11.171308 17.49377 10.887335 17.435547 10.585938 17.435547 L 10.208984 17.435547 z M 19.449219 17.435547 C 19.147821 17.435547 18.862118 17.49377 18.59375 17.609375 C 18.329511 17.72085 18.098569 17.876039 17.900391 18.074219 C 17.702211 18.272398 17.545292 18.503339 17.429688 18.767578 C 17.318212 19.031817 17.263672 19.313836 17.263672 19.615234 L 17.263672 24.384766 C 17.263672 24.686163 17.318212 24.968183 17.429688 25.232422 C 17.545292 25.496661 17.702211 25.727602 17.900391 25.925781 C 18.098569 26.123961 18.329511 26.28088 18.59375 26.396484 C 18.862118 26.50796 19.147821 26.564453 19.449219 26.564453 L 19.826172 26.564453 C 20.12757 26.564453 20.411543 26.50796 20.675781 26.396484 C 20.940021 26.28088 21.170961 26.123961 21.369141 25.925781 C 21.56732 25.727602 21.722508 25.496661 21.833984 25.232422 C 21.949588 24.968183 22.005859 24.686163 22.005859 24.384766 L 22.005859 19.615234 C 22.005859 19.313836 21.949588 19.031817 21.833984 18.767578 C 21.722508 18.503339 21.56732 18.272398 21.369141 18.074219 C 21.170961 17.876039 20.940021 17.72085 20.675781 17.609375 C 20.411543 17.49377 20.12757 17.435547 19.826172 17.435547 L 19.449219 17.435547 z M 25.964844 17.435547 C 25.663446 17.435547 25.377743 17.49377 25.109375 17.609375 C 24.845136 17.72085 24.614195 17.876039 24.416016 18.074219 C 24.217836 18.272398 24.060917 18.503339 23.945312 18.767578 C 23.833837 19.031817 23.777344 19.313836 23.777344 19.615234 L 23.777344 24.384766 C 23.777344 24.686163 23.833837 24.968183 23.945312 25.232422 C 24.060917 25.496661 24.217836 25.727602 24.416016 25.925781 C 24.614195 26.123961 24.845136 26.28088 25.109375 26.396484 C 25.377743 26.50796 25.663446 26.564453 25.964844 26.564453 L 26.341797 26.564453 C 26.643194 26.564453 26.925214 26.50796 27.189453 26.396484 C 27.453692 26.28088 27.686586 26.123961 27.884766 25.925781 C 28.082945 25.727602 28.23618 25.496661 28.347656 25.232422 C 28.463261 24.968183 28.521484 24.686163 28.521484 24.384766 L 28.521484 19.615234 C 28.521484 19.313836 28.463261 19.031817 28.347656 18.767578 C 28.23618 18.503339 28.082945 18.272398 27.884766 18.074219 C 27.686586 17.876039 27.453692 17.72085 27.189453 17.609375 C 26.925214 17.49377 26.643194 17.435547 26.341797 17.435547 L 25.964844 17.435547 z M 10.246094 18.197266 L 10.548828 18.197266 C 10.747007 18.197266 10.932285 18.234276 11.101562 18.308594 C 11.27497 18.382911 11.424744 18.485291 11.552734 18.613281 C 11.680725 18.741272 11.781151 18.891046 11.855469 19.064453 C 11.929786 19.233731 11.966797 19.417055 11.966797 19.615234 L 11.966797 24.384766 C 11.966797 24.582944 11.929786 24.767999 11.855469 24.941406 C 11.781151 25.110684 11.680725 25.262412 11.552734 25.394531 C 11.424744 25.522522 11.27497 25.622948 11.101562 25.697266 C 10.932284 25.771583 10.747007 25.808594 10.548828 25.808594 L 10.246094 25.808594 C 10.047915 25.808594 9.86286 25.771583 9.6894531 25.697266 C 9.520175 25.622948 9.3684477 25.522522 9.2363281 25.394531 C 9.1083373 25.262412 9.0079109 25.110684 8.9335938 24.941406 C 8.8592766 24.767999 8.8222656 24.582944 8.8222656 24.384766 L 8.8222656 19.615234 C 8.8222656 19.417055 8.8592766 19.233731 8.9335938 19.064453 C 9.007911 18.891046 9.1083373 18.741272 9.2363281 18.613281 C 9.3684477 18.485291 9.520175 18.382911 9.6894531 18.308594 C 9.86286 18.234276 10.047915 18.197266 10.246094 18.197266 z M 19.486328 18.197266 L 19.789062 18.197266 C 19.987242 18.197266 20.170566 18.234276 20.339844 18.308594 C 20.51325 18.382911 20.664978 18.485291 20.792969 18.613281 C 20.92096 18.741272 21.021386 18.891046 21.095703 19.064453 C 21.17002 19.233731 21.207031 19.417055 21.207031 19.615234 L 21.207031 24.384766 C 21.207031 24.582944 21.17002 24.767999 21.095703 24.941406 C 21.021386 25.110684 20.92096 25.262412 20.792969 25.394531 C 20.664978 25.522522 20.51325 25.622948 20.339844 25.697266 C 20.170566 25.771583 19.987242 25.808594 19.789062 25.808594 L 19.486328 25.808594 C 19.288149 25.808594 19.103094 25.771583 18.929688 25.697266 C 18.760409 25.622948 18.608682 25.522522 18.476562 25.394531 C 18.348572 25.262412 18.248145 25.110684 18.173828 24.941406 C 18.099511 24.767999 18.0625 24.582944 18.0625 24.384766 L 18.0625 19.615234 C 18.0625 19.417055 18.099511 19.233731 18.173828 19.064453 C 18.248145 18.891046 18.348572 18.741272 18.476562 18.613281 C 18.608682 18.485291 18.760409 18.382911 18.929688 18.308594 C 19.103094 18.234276 19.288149 18.197266 19.486328 18.197266 z M 26.001953 18.197266 L 26.304688 18.197266 C 26.502867 18.197266 26.686191 18.234276 26.855469 18.308594 C 27.028876 18.382911 27.180603 18.485291 27.308594 18.613281 C 27.436584 18.741272 27.537011 18.891046 27.611328 19.064453 C 27.685645 19.233731 27.722656 19.417055 27.722656 19.615234 L 27.722656 24.384766 C 27.722656 24.582944 27.685645 24.767999 27.611328 24.941406 C 27.537011 25.110684 27.436584 25.262412 27.308594 25.394531 C 27.180603 25.522522 27.028876 25.622948 26.855469 25.697266 C 26.686191 25.771583 26.502867 25.808594 26.304688 25.808594 L 26.001953 25.808594 C 25.803774 25.808594 25.616766 25.771583 25.443359 25.697266 C 25.274081 25.622948 25.124307 25.522522 24.992188 25.394531 C 24.864197 25.262412 24.761817 25.110684 24.6875 24.941406 C 24.613183 24.767999 24.576172 24.582944 24.576172 24.384766 L 24.576172 19.615234 C 24.576172 19.417055 24.613183 19.233731 24.6875 19.064453 C 24.761817 18.891046 24.864197 18.741272 24.992188 18.613281 C 25.124308 18.485291 25.274081 18.382911 25.443359 18.308594 C 25.616766 18.234276 25.803774 18.197266 26.001953 18.197266 z M 14.537109 20.099609 L 14.537109 21.052734 L 15.492188 21.052734 L 15.492188 20.099609 L 14.537109 20.099609 z M 32.892578 21.519531 L 32.892578 26.441406 L 33.335938 26.441406 L 33.335938 24.548828 L 34.451172 24.548828 C 34.6182 24.548828 34.77544 24.518811 34.921875 24.457031 C 35.070598 24.392966 35.20072 24.305139 35.310547 24.195312 C 35.420371 24.085486 35.504626 23.956982 35.566406 23.810547 C 35.630473 23.664112 35.664062 23.508825 35.664062 23.341797 L 35.664062 22.730469 C 35.664062 22.563441 35.630473 22.406201 35.566406 22.259766 C 35.504629 22.111042 35.420374 21.982874 35.310547 21.873047 C 35.20072 21.763223 35.070598 21.677014 34.921875 21.615234 C 34.77544 21.551168 34.6182 21.519531 34.451172 21.519531 L 32.892578 21.519531 z M 36.503906 21.519531 L 36.503906 26.441406 L 36.947266 26.441406 L 36.947266 23.066406 L 36.974609 23.275391 L 38.126953 26.441406 L 38.361328 26.441406 L 39.503906 23.275391 L 39.535156 23.066406 L 39.535156 26.441406 L 39.976562 26.441406 L 39.976562 21.519531 L 39.744141 21.519531 L 38.253906 25.554688 L 38.240234 25.736328 L 38.226562 25.554688 L 36.734375 21.519531 L 36.503906 21.519531 z M 33.335938 21.941406 L 34.431641 21.941406 C 34.541467 21.941406 34.642517 21.960766 34.736328 22.001953 C 34.832426 22.043138 34.915398 22.10061 34.986328 22.173828 C 35.059544 22.244757 35.117016 22.329683 35.158203 22.425781 C 35.19939 22.519591 35.220703 22.620642 35.220703 22.730469 L 35.220703 23.341797 C 35.220703 23.451624 35.19939 23.554293 35.158203 23.650391 C 35.117018 23.744201 35.059545 23.825555 34.986328 23.896484 C 34.915398 23.967412 34.832426 24.02522 34.736328 24.066406 C 34.642517 24.107593 34.541467 24.126953 34.431641 24.126953 L 33.335938 24.126953 L 33.335938 21.941406 z M 14.537109 25.486328 L 14.537109 26.441406 L 15.492188 26.441406 L 15.492188 25.486328 L 14.537109 25.486328 z "
       id="path4371" />
    <path
       style="opacity:1;fill:#000000;fill-opacity:1;stroke:none"
       d="M 5 32.001953 L 5 33.001953 C 5 33.554814 5.4451856 34 5.9980469 34 L 42.001953 34 C 42.554814 34 43 33.554814 43 33.001953 L 43 32.001953 C 43 32.554814 42.554814 33 42.001953 33 L 5.9980469 33 C 5.4451856 33 5 32.554814 5 32.001953 z "
       id="rect4403" />
    <path
       inkscape:connector-curvature="0"
       id="path4225"
       d="m 36.831578,12 a 1.8605255,1.7499995 0 0 1 1.782657,1.251953 1.7276318,1.625 0 0 1 1.655475,1.410157 C 40.908025,14.938841 41.35,15.543253 41.35,16.25 c 0,0.9695 -0.829796,1.75 -1.860526,1.75 -0.03053,0 -0.06017,-0.003 -0.09031,-0.0044 C 39.384954,17.997 39.371204,18 39.356584,18 l -6.378948,0 c -0.01498,0 -0.02909,-0.0029 -0.0436,-0.0044 C 32.904296,17.9971 32.874886,18 32.844736,18 31.961252,18 31.25,17.331 31.25,16.5 c 0,-0.714763 0.526631,-1.308494 1.236025,-1.460938 A 2.1263156,2 0 0 1 32.313156,14.25 a 2.1263156,2 0 0 1 2.126318,-2 2.1263156,2 0 0 1 1.06679,0.272461 A 1.8605255,1.7499995 0 0 1 36.831578,12 Z"
       style="color:#000000;text-decoration:none;text-decoration-line:none;text-decoration-style:solid;text-decoration-color:#000000;clip-rule:nonzero;display:inline;overflow:visible;visibility:visible;opacity:1;isolation:auto;mix-blend-mode:normal;color-interpolation:sRGB;color-interpolation-filters:linearRGB;solid-color:#000000;solid-opacity:1;fill:#000000;fill-opacity:0.23529412;fill-rule:nonzero;stroke:none;stroke-width:1;stroke-linecap:butt;stroke-linejoin:miter;stroke-miterlimit:4;stroke-dasharray:none;stroke-dashoffset:0;stroke-opacity:1;color-rendering:auto;image-rendering:auto;shape-rendering:auto;text-rendering:auto;enable-background:accumulate" />
    <path
       style="color:#000000;text-decoration:none;text-decoration-line:none;text-decoration-style:solid;text-decoration-color:#000000;clip-rule:nonzero;display:inline;overflow:visible;visibility:visible;opacity:1;isolation:auto;mix-blend-mode:normal;color-interpolation:sRGB;color-interpolation-filters:linearRGB;solid-color:#000000;solid-opacity:1;fill:url(#linearGradient5086);fill-opacity:1;fill-rule:nonzero;stroke:none;stroke-width:1;stroke-linecap:butt;stroke-linejoin:miter;stroke-miterlimit:4;stroke-dasharray:none;stroke-dashoffset:0;stroke-opacity:1;color-rendering:auto;image-rendering:auto;shape-rendering:auto;text-rendering:auto;enable-background:accumulate"
       d="m 36.831578,11 a 1.8605255,1.7499995 0 0 1 1.782657,1.251953 1.7276318,1.625 0 0 1 1.655475,1.410157 C 40.908025,13.938841 41.35,14.543253 41.35,15.25 41.35,16.2195 40.520204,17 39.489474,17 39.458942,17 39.429308,16.997 39.39916,16.9956 39.384949,16.997 39.371199,17 39.356584,17 l -6.378948,0 c -0.01498,0 -0.02909,-0.0029 -0.0436,-0.0044 C 32.904294,16.997143 32.87489,17 32.844734,17 31.961252,17 31.25,16.331 31.25,15.5 c 0,-0.714763 0.526631,-1.308494 1.236025,-1.460938 A 2.1263156,2 0 0 1 32.313156,13.25 a 2.1263156,2 0 0 1 2.126318,-2 2.1263156,2 0 0 1 1.06679,0.272461 A 1.8605255,1.7499995 0 0 1 36.831578,11 Z"
       id="rect5019"
       inkscape:connector-curvature="0" />
    <g
       id="layer7-7"
       inkscape:label="Baseshape"
       style="display:none"
       transform="translate(-14.019503,-16.723966)">
      <rect
         rx="9"
         ry="9"
         y="2"
         x="2"
         height="44"
         width="44"
         id="rect4169-9"
         style="display:inline;fill:#abe1ad;fill-opacity:1;stroke:none" />
    </g>
  </g>
  <g
     inkscape:label="Symbol"
     inkscape:groupmode="layer"
     id="layer1"
     transform="translate(0,-1004.3622)"
     style="display:inline" />
  <g
     inkscape:groupmode="layer"
     id="layer4"
     inkscape:label="Inset"
     sodipodi:insensitive="true"
     style="display:inline">
    <path
       style="opacity:0.15;fill:#000000;fill-opacity:1;stroke:none"
       d="m 2,34 0,3 c 0,4.986 4.014,9 9,9 l 26,0 c 4.986,0 9,-4.014 9,-9 l 0,-3 c 0,4.986 -4.014,9 -9,9 L 11,43 C 6.014,43 2,38.986 2,34 z"
       id="rect3038-42"
       inkscape:connector-curvature="0" />
  </g>
  <g
     inkscape:groupmode="layer"
     id="layer7"
     inkscape:label="Baseshape"
     sodipodi:insensitive="true"
     style="display:none">
    <rect
       rx="9"
       ry="9"
       y="2"
       x="2"
       height="44"
       width="44"
       id="rect4169"
       style="fill:#abe1ad;fill-opacity:1;stroke:none;display:inline" />
  </g>
</svg>
