<?xml version="1.0" encoding="UTF-8" standalone="no"?>
<!-- Created with Inkscape (http://www.inkscape.org/) -->

<svg
   xmlns:dc="http://purl.org/dc/elements/1.1/"
   xmlns:cc="http://creativecommons.org/ns#"
   xmlns:rdf="http://www.w3.org/1999/02/22-rdf-syntax-ns#"
   xmlns:svg="http://www.w3.org/2000/svg"
   xmlns="http://www.w3.org/2000/svg"
   xmlns:xlink="http://www.w3.org/1999/xlink"
   xmlns:sodipodi="http://sodipodi.sourceforge.net/DTD/sodipodi-0.dtd"
   xmlns:inkscape="http://www.inkscape.org/namespaces/inkscape"
   width="48"
   height="48"
   id="svg4230"
   version="1.1"
   inkscape:version="0.48.5 r10040"
   sodipodi:docname="designer.svg">
  <defs
     id="defs4232">
    <linearGradient
       id="linearGradient3779">
      <stop
         style="stop-color:#85c668;stop-opacity:1;"
         offset="0"
         id="stop3781" />
      <stop
         style="stop-color:#78c555;stop-opacity:1;"
         offset="1"
         id="stop3783" />
    </linearGradient>
    <linearGradient
       id="linearGradient3796">
      <stop
         style="stop-color:#f7f7f7;stop-opacity:1;"
         offset="0"
         id="stop3798" />
      <stop
         style="stop-color:#ececec;stop-opacity:1;"
         offset="1"
         id="stop3800" />
    </linearGradient>
    <linearGradient
       id="linearGradient4524">
      <stop
         style="stop-color:#1c5ed1;stop-opacity:1;"
         offset="0"
         id="stop4526" />
      <stop
         style="stop-color:#3675e3;stop-opacity:1;"
         offset="1"
         id="stop4528" />
    </linearGradient>
    <linearGradient
       id="linearGradient4243">
      <stop
         style="stop-color:#000000;stop-opacity:1;"
         offset="0"
         id="stop4245" />
      <stop
         style="stop-color:#000000;stop-opacity:0;"
         offset="1"
         id="stop4247" />
    </linearGradient>
    <radialGradient
       inkscape:collect="always"
       xlink:href="#linearGradient4243"
       id="radialGradient4274"
       gradientUnits="userSpaceOnUse"
       gradientTransform="matrix(1.0434782,0,0,0.1956518,-1.0434797,35.184809)"
       cx="24.000001"
       cy="42.499991"
       fx="24.000001"
       fy="42.499991"
       r="23" />
    <linearGradient
       id="linearGradient3068-1">
      <stop
         style="stop-color:#dfdfdf;stop-opacity:1;"
         offset="0"
         id="stop3070-5" />
      <stop
         style="stop-color:#ffffff;stop-opacity:1;"
         offset="1"
         id="stop3072-7" />
    </linearGradient>
    <linearGradient
       inkscape:collect="always"
       xlink:href="#linearGradient3068-1"
       id="linearGradient4245"
       x1="24.230993"
       y1="1043.1351"
       x2="24.230993"
       y2="1010.4795"
       gradientUnits="userSpaceOnUse" />
    <linearGradient
       inkscape:collect="always"
       xlink:href="#linearGradient3779"
       id="linearGradient3785"
       x1="25"
       y1="2"
       x2="25"
       y2="46"
       gradientUnits="userSpaceOnUse"
       gradientTransform="translate(0,-1.1964215)" />
    <linearGradient
       inkscape:collect="always"
       xlink:href="#linearGradient3779"
       id="linearGradient3814"
       gradientUnits="userSpaceOnUse"
       gradientTransform="translate(-0.21149944,-1.1964215)"
       x1="25"
       y1="2"
       x2="25"
       y2="46" />
  </defs>
  <sodipodi:namedview
     id="base"
     pagecolor="#ffffff"
     bordercolor="#666666"
     borderopacity="1.0"
     inkscape:pageopacity="0.0"
     inkscape:pageshadow="2"
     inkscape:zoom="13.373213"
     inkscape:cx="14.960682"
     inkscape:cy="26.7943"
     inkscape:document-units="px"
     inkscape:current-layer="layer2"
     showgrid="true"
     inkscape:showpageshadow="false"
     borderlayer="true"
     inkscape:window-width="1918"
     inkscape:window-height="1017"
     inkscape:window-x="0"
     inkscape:window-y="29"
     inkscape:window-maximized="1"
     showguides="true"
     inkscape:guide-bbox="true">
    <inkscape:grid
       type="xygrid"
       id="grid4162" />
  </sodipodi:namedview>
  <metadata
     id="metadata4235">
    <rdf:RDF>
      <cc:Work
         rdf:about="">
        <dc:format>image/svg+xml</dc:format>
        <dc:type
           rdf:resource="http://purl.org/dc/dcmitype/StillImage" />
        <dc:title />
      </cc:Work>
    </rdf:RDF>
  </metadata>
  <g
     inkscape:groupmode="layer"
     id="layer3"
     inkscape:label="Fake blur shadow"
     style="display:inline"
     sodipodi:insensitive="true">
    <path
       style="opacity:0.06000001;fill:#000000;fill-opacity:1;stroke:none"
       d="M 10,1 C 5.014,1 1,5.014 1,10 l 0,28 c 0,4.986 4.014,9 9,9 l 28,0 c 4.986,0 9,-4.014 9,-9 L 47,10 C 47,5.014 42.986,1 38,1 L 10,1 z m 0.5,0.5 27,0 c 4.986,0 9,4.014 9,9 l 0,27 c 0,4.986 -4.014,9 -9,9 l -27,0 c -4.986,0 -9,-4.014 -9,-9 l 0,-27 c 0,-4.986 4.014,-9 9,-9 z"
       id="rect3829"
       inkscape:connector-curvature="0" />
    <path
       style="opacity:0.12000002;fill:#000000;fill-opacity:1;stroke:none"
       d="m 10.5,1.5 c -4.986,0 -9,4.014 -9,9 l 0,27 c 0,4.986 4.014,9 9,9 l 27,0 c 4.986,0 9,-4.014 9,-9 l 0,-27 c 0,-4.986 -4.014,-9 -9,-9 l -27,0 z m 0.25,0.25 26.5,0 c 4.986,0 9,4.014 9,9 l 0,26.5 c 0,4.986 -4.014,9 -9,9 l -26.5,0 c -4.986,0 -9,-4.014 -9,-9 l 0,-26.5 c 0,-4.986 4.014,-9 9,-9 z"
       id="rect3827"
       inkscape:connector-curvature="0" />
    <rect
       style="opacity:0.23999999;fill:#000000;fill-opacity:1;stroke:none"
       id="rect3038-4"
       width="44.5"
       height="44.5"
       x="1.75"
       y="1.75"
       ry="9"
       rx="9" />
  </g>
  <g
     inkscape:groupmode="layer"
     id="layer6"
     inkscape:label="Blob"
     style="display:inline"
     sodipodi:insensitive="true">
    <path
       style="opacity:0.3;fill:url(#radialGradient4274);fill-opacity:1;stroke:none"
       d="M 1.03125,39 C 1.5192036,43.518898 5.3471961,47 10,47 l 28,0 c 4.652804,0 8.480796,-3.481102 8.96875,-8 l -45.9375,0 z"
       id="rect4241"
       inkscape:connector-curvature="0" />
  </g>
  <g
     inkscape:groupmode="layer"
     id="layer2"
     inkscape:label="Baseplate"
     style="display:inline">
    <rect
       style="fill:url(#linearGradient3814);fill-opacity:1;stroke:none"
       id="rect3038"
       width="44"
       height="44"
       x="1.7885005"
       y="0.80356109"
       ry="9"
       rx="9" />
    <g
       id="g3017"
       transform="matrix(0.806986,0,0,0.806986,4.7368267,0.97376874)">
      <text
         sodipodi:linespacing="125%"
         id="text3783-2"
         y="32.251156"
         x="9.000371"
         style="font-size:26.17832375px;font-style:normal;font-weight:normal;line-height:125%;letter-spacing:0px;word-spacing:0px;opacity:0.15;fill:#000000;fill-opacity:1;stroke:none;display:inline;font-family:Sans"
         xml:space="preserve"><tspan
           style="font-style:normal;font-variant:normal;font-weight:bold;font-stretch:normal;fill:#000000;fill-opacity:1;font-family:Source Han Sans CN;-inkscape-font-specification:Source Han Sans CN Bold"
           y="32.251156"
           x="9.000371"
           id="tspan3785-6"
           sodipodi:role="line">Qt</tspan></text>
      <text
         sodipodi:linespacing="125%"
         id="text3783"
         y="31.250916"
         x="8"
         style="font-size:26.17832375px;font-style:normal;font-weight:normal;line-height:125%;letter-spacing:0px;word-spacing:0px;fill:#ffffff;fill-opacity:1;stroke:none;font-family:Sans"
         xml:space="preserve"><tspan
           style="font-style:normal;font-variant:normal;font-weight:bold;font-stretch:normal;fill:#ffffff;fill-opacity:1;font-family:Source Han Sans CN;-inkscape-font-specification:Source Han Sans CN Bold"
           y="31.250916"
           x="8"
           id="tspan3785"
           sodipodi:role="line">Qt</tspan></text>
    </g>
    <path
       style="opacity:0.14999999999999999;fill:none;stroke:#000000;stroke-width:0.95999997999999997px;stroke-linecap:butt;stroke-linejoin:round;stroke-opacity:1;display:inline"
       d="m 13,34 0,4 9.995942,0 M 29.023676,38 37,38 37,34"
       id="path3040-2"
       inkscape:connector-curvature="0"
       sodipodi:nodetypes="cccccc" />
    <path
       style="fill:none;stroke:#ffffff;stroke-width:0.95999998px;stroke-linecap:butt;stroke-linejoin:round;stroke-opacity:1"
       d="m 12,33 0,4 9.995942,0 M 28.023676,37 36,37 36,33"
       id="path3040"
       inkscape:connector-curvature="0"
       sodipodi:nodetypes="cccccc" />
    <text
       xml:space="preserve"
       style="font-size:6.29337357999999991px;font-style:normal;font-weight:normal;line-height:125%;letter-spacing:0px;word-spacing:0px;opacity:0.14999999999999999;fill:#000000;fill-opacity:1;stroke:none;display:inline;font-family:Sans"
       x="24.009348"
       y="41"
       id="text3810-5"
       sodipodi:linespacing="125%"><tspan
         sodipodi:role="line"
         id="tspan3812-4"
         x="24.009348"
         y="41">4</tspan></text>
    <text
       xml:space="preserve"
       style="font-size:6.29337358px;font-style:normal;font-weight:normal;line-height:125%;letter-spacing:0px;word-spacing:0px;fill:#ffffff;fill-opacity:1;stroke:none;font-family:Sans"
       x="23.009348"
       y="40"
       id="text3810"
       sodipodi:linespacing="125%"><tspan
         sodipodi:role="line"
         id="tspan3812"
         x="23.009348"
         y="40">4</tspan></text>
  </g>
  <g
     inkscape:label="Symbol"
     inkscape:groupmode="layer"
     id="layer1"
     transform="translate(0,-1004.3622)"
     style="display:inline" />
  <g
     inkscape:groupmode="layer"
     id="layer4"
     inkscape:label="Inset"
     style="display:inline"
     sodipodi:insensitive="true">
    <path
       style="opacity:0.15;fill:#000000;fill-opacity:1;stroke:none"
       d="m 2,34 0,3 c 0,4.986 4.014,9 9,9 l 26,0 c 4.986,0 9,-4.014 9,-9 l 0,-3 c 0,4.986 -4.014,9 -9,9 L 11,43 C 6.014,43 2,38.986 2,34 Z"
       id="rect3038-42"
       inkscape:connector-curvature="0" />
  </g>
  <g
     inkscape:groupmode="layer"
     id="layer7"
     inkscape:label="Baseshape"
     sodipodi:insensitive="true"
     style="display:none">
    <rect
       rx="9"
       ry="9"
       y="2"
       x="2"
       height="44"
       width="44"
       id="rect4169"
       style="fill:#abe1ad;fill-opacity:1;stroke:none;display:inline" />
  </g>
</svg>
