<?xml version="1.0" encoding="UTF-8" standalone="no"?>
<svg
   xmlns:dc="http://purl.org/dc/elements/1.1/"
   xmlns:cc="http://creativecommons.org/ns#"
   xmlns:rdf="http://www.w3.org/1999/02/22-rdf-syntax-ns#"
   xmlns:svg="http://www.w3.org/2000/svg"
   xmlns="http://www.w3.org/2000/svg"
   xmlns:xlink="http://www.w3.org/1999/xlink"
   version="1.1"
   id="svg4230"
   height="48"
   width="48">
  <defs
     id="defs4232">
    <linearGradient
       id="linearGradient4025">
      <stop
         id="stop4027"
         offset="0"
         style="stop-color:#000000;stop-opacity:1;" />
      <stop
         id="stop4029"
         offset="1"
         style="stop-color:#000000;stop-opacity:0;" />
    </linearGradient>
    <linearGradient
       id="linearGradient4012">
      <stop
         id="stop4014"
         offset="0"
         style="stop-color:#000000;stop-opacity:1;" />
      <stop
         id="stop4016"
         offset="1"
         style="stop-color:#000000;stop-opacity:0;" />
    </linearGradient>
    <linearGradient
       id="linearGradient4002">
      <stop
         id="stop4004"
         offset="0"
         style="stop-color:#000000;stop-opacity:1;" />
      <stop
         id="stop4006"
         offset="1"
         style="stop-color:#000000;stop-opacity:0;" />
    </linearGradient>
    <linearGradient
       id="linearGradient3979">
      <stop
         style="stop-color:#ffffff;stop-opacity:1;"
         offset="0"
         id="stop3981" />
      <stop
         style="stop-color:#ffffff;stop-opacity:0;"
         offset="1"
         id="stop3983" />
    </linearGradient>
    <linearGradient
       id="linearGradient3967">
      <stop
         id="stop3969"
         offset="0"
         style="stop-color:#000000;stop-opacity:1;" />
      <stop
         id="stop3971"
         offset="1"
         style="stop-color:#000000;stop-opacity:0;" />
    </linearGradient>
    <linearGradient
       id="linearGradient3932">
      <stop
         id="stop3934"
         offset="0"
         style="stop-color:#000000;stop-opacity:1;" />
      <stop
         id="stop3936"
         offset="1"
         style="stop-color:#000000;stop-opacity:0.05" />
    </linearGradient>
    <linearGradient
       id="linearGradient3910">
      <stop
         id="stop3912"
         offset="0"
         style="stop-color:#a3a7b1;stop-opacity:1;" />
      <stop
         id="stop3914"
         offset="1"
         style="stop-color:#e8eef2;stop-opacity:1;" />
    </linearGradient>
    <linearGradient
       id="linearGradient3898">
      <stop
         id="stop3900"
         offset="0"
         style="stop-color:#000000;stop-opacity:1;" />
      <stop
         id="stop3902"
         offset="1"
         style="stop-color:#000000;stop-opacity:0;" />
    </linearGradient>
    <linearGradient
       id="linearGradient4083">
      <stop
         style="stop-color:#cccccc;stop-opacity:1"
         offset="0"
         id="stop4085" />
      <stop
         style="stop-color:#f9f9f9;stop-opacity:1"
         offset="1"
         id="stop4087" />
    </linearGradient>
    <linearGradient
       id="linearGradient4044">
      <stop
         id="stop4046"
         offset="0"
         style="stop-color:#000000;stop-opacity:1;" />
      <stop
         id="stop4048"
         offset="1"
         style="stop-color:#ffffff;stop-opacity:1;" />
    </linearGradient>
    <linearGradient
       id="linearGradient4034">
      <stop
         id="stop4036"
         offset="0"
         style="stop-color:#000000;stop-opacity:1;" />
      <stop
         id="stop4038"
         offset="1"
         style="stop-color:#000000;stop-opacity:0;" />
    </linearGradient>
    <linearGradient
       id="linearGradient4005">
      <stop
         style="stop-color:#e1e1e1;stop-opacity:1;"
         offset="0"
         id="stop4007" />
      <stop
         style="stop-color:#ececec;stop-opacity:1;"
         offset="1"
         id="stop4009" />
    </linearGradient>
    <linearGradient
       id="linearGradient3976">
      <stop
         id="stop3978"
         offset="0"
         style="stop-color:#c4c9cc;stop-opacity:1;" />
      <stop
         id="stop3980"
         offset="1"
         style="stop-color:#fefefe;stop-opacity:1;" />
    </linearGradient>
    <linearGradient
       id="linearGradient3874">
      <stop
         id="stop3876"
         offset="0"
         style="stop-color:#ea508d;stop-opacity:1;" />
      <stop
         id="stop3878"
         offset="1"
         style="stop-color:#e66296;stop-opacity:1;" />
    </linearGradient>
    <linearGradient
       id="linearGradient4026">
      <stop
         id="stop4028"
         offset="0"
         style="stop-color:#f1f1e9;stop-opacity:1;" />
      <stop
         id="stop4030"
         offset="1"
         style="stop-color:#f5f5ea;stop-opacity:1;" />
    </linearGradient>
    <linearGradient
       id="linearGradient4243">
      <stop
         id="stop4245"
         offset="0"
         style="stop-color:#000000;stop-opacity:1;" />
      <stop
         id="stop4247"
         offset="1"
         style="stop-color:#000000;stop-opacity:0;" />
    </linearGradient>
    <linearGradient
       id="linearGradient4216">
      <stop
         id="stop4218"
         offset="0"
         style="stop-color:#a0c4e6;stop-opacity:1;" />
      <stop
         id="stop4220"
         offset="1"
         style="stop-color:#d0e2f1;stop-opacity:1;" />
    </linearGradient>
    <linearGradient
       id="linearGradient4208">
      <stop
         id="stop4210"
         offset="0"
         style="stop-color:#70a3d6;stop-opacity:1;" />
      <stop
         id="stop4212"
         offset="1"
         style="stop-color:#88b6e1;stop-opacity:1;" />
    </linearGradient>
    <linearGradient
       id="linearGradient4200">
      <stop
         id="stop4202"
         offset="0"
         style="stop-color:#427dbe;stop-opacity:1;" />
      <stop
         id="stop4204"
         offset="1"
         style="stop-color:#739bd1;stop-opacity:1;" />
    </linearGradient>
    <linearGradient
       id="linearGradient4192">
      <stop
         id="stop4194"
         offset="0"
         style="stop-color:#4970a4;stop-opacity:1;" />
      <stop
         id="stop4196"
         offset="1"
         style="stop-color:#6090c0;stop-opacity:1;" />
    </linearGradient>
    <radialGradient
       r="2.5"
       fy="43.5"
       fx="4.9929786"
       cy="43.5"
       cx="4.9929786"
       gradientTransform="matrix(2.3201711,0,0,0.39999996,28.617836,28.600002)"
       gradientUnits="userSpaceOnUse"
       id="radialGradient4351"
       xlink:href="#linearGradient3688-166-749-5-9-1" />
    <linearGradient
       id="linearGradient3688-166-749-5-9-1">
      <stop
         offset="0"
         style="stop-color:#181818;stop-opacity:1"
         id="stop2883-0-2-9" />
      <stop
         offset="1"
         style="stop-color:#181818;stop-opacity:0"
         id="stop2885-5-3-8" />
    </linearGradient>
    <linearGradient
       id="linearGradient3688-464-309-8-9-4">
      <stop
         offset="0"
         style="stop-color:#181818;stop-opacity:1"
         id="stop2889-9-9-1" />
      <stop
         offset="1"
         style="stop-color:#181818;stop-opacity:0"
         id="stop2891-4-2-9" />
    </linearGradient>
    <linearGradient
       id="linearGradient3702-501-757-0-4-0">
      <stop
         offset="0"
         style="stop-color:#181818;stop-opacity:0"
         id="stop2895-0-2-1" />
      <stop
         offset="0.5"
         style="stop-color:#181818;stop-opacity:1"
         id="stop2897-2-8-2" />
      <stop
         offset="1"
         style="stop-color:#181818;stop-opacity:0"
         id="stop2899-6-1-6" />
    </linearGradient>
    <linearGradient
       id="linearGradient3811-3">
      <stop
         id="stop3813-0"
         offset="0"
         style="stop-color:#000000;stop-opacity:1;" />
      <stop
         id="stop3815-0"
         offset="1"
         style="stop-color:#000000;stop-opacity:0;" />
    </linearGradient>
    <clipPath
       id="clipPath-887332295">
      <g
         transform="translate(0,-1004.3622)"
         id="g3945">
        <rect
           rx="4"
           y="1005.36"
           x="1"
           height="46"
           width="46"
           fill="#1890d0"
           id="rect3947" />
      </g>
    </clipPath>
    <clipPath
       id="clipPath-867792831">
      <g
         transform="translate(0,-1004.3622)"
         id="g3940">
        <rect
           rx="4"
           y="1005.36"
           x="1"
           height="46"
           width="46"
           fill="#1890d0"
           id="rect3942" />
      </g>
    </clipPath>
    <linearGradient
       id="linearGradient3764"
       x1="1"
       x2="47"
       gradientUnits="userSpaceOnUse"
       gradientTransform="translate(-47.997785,0.00221467)">
      <stop
         stop-color="#e4e4e4"
         stop-opacity="1"
         id="stop3935" />
      <stop
         offset="1"
         stop-color="#eee"
         stop-opacity="1"
         id="stop3937" />
    </linearGradient>
    <radialGradient
       r="23"
       fy="42.499991"
       fx="24.000001"
       cy="42.499991"
       cx="24.000001"
       gradientTransform="matrix(1.0434782,0,0,0.1956518,-1.0434797,35.184809)"
       gradientUnits="userSpaceOnUse"
       id="radialGradient4274"
       xlink:href="#linearGradient4243" />
    <linearGradient
       gradientUnits="userSpaceOnUse"
       y2="1002.0031"
       x2="-41.197594"
       y1="1042.7213"
       x1="-41.197594"
       id="linearGradient4032"
       xlink:href="#linearGradient4026" />
    <linearGradient
       y2="1002.0031"
       x2="-41.197594"
       y1="1042.7213"
       x1="-41.197594"
       gradientUnits="userSpaceOnUse"
       id="linearGradient4078"
       xlink:href="#linearGradient4026" />
    <linearGradient
       y2="1002.0031"
       x2="-41.197594"
       y1="1042.7213"
       x1="-41.197594"
       gradientUnits="userSpaceOnUse"
       id="linearGradient4114"
       xlink:href="#linearGradient4026" />
    <linearGradient
       y2="1002.0031"
       x2="-41.197594"
       y1="1042.7213"
       x1="-41.197594"
       gradientUnits="userSpaceOnUse"
       id="linearGradient4150"
       xlink:href="#linearGradient4026" />
    <linearGradient
       gradientUnits="userSpaceOnUse"
       y2="2"
       x2="26"
       y1="46"
       x1="26"
       id="linearGradient3880"
       xlink:href="#linearGradient4083" />
    <linearGradient
       y2="12"
       x2="16"
       y1="22"
       x1="16"
       gradientUnits="userSpaceOnUse"
       id="linearGradient4015"
       xlink:href="#linearGradient4005" />
    <linearGradient
       gradientTransform="matrix(0.6,0,0,-0.6,6.4,27.2)"
       y2="12"
       x2="16"
       y1="22"
       x1="16"
       gradientUnits="userSpaceOnUse"
       id="linearGradient4017"
       xlink:href="#linearGradient4005" />
    <linearGradient
       gradientTransform="translate(-49,6)"
       y2="1026.3622"
       x2="25"
       y1="1016.3622"
       x1="25"
       gradientUnits="userSpaceOnUse"
       id="linearGradient4074"
       xlink:href="#linearGradient4044" />
    <linearGradient
       y2="17"
       x2="27"
       y1="14"
       x1="27"
       gradientTransform="matrix(-1,0,0,1,48,1010.3622)"
       gradientUnits="userSpaceOnUse"
       id="linearGradient4076"
       xlink:href="#linearGradient4034" />
    <linearGradient
       y2="12"
       x2="16"
       y1="22"
       x1="16"
       gradientUnits="userSpaceOnUse"
       id="linearGradient4079"
       xlink:href="#linearGradient3976" />
    <linearGradient
       y2="12"
       x2="16"
       y1="22"
       x1="16"
       gradientUnits="userSpaceOnUse"
       id="linearGradient4081"
       xlink:href="#linearGradient3976" />
    <radialGradient
       gradientUnits="userSpaceOnUse"
       r="5"
       fy="17"
       fx="16"
       cy="17"
       cx="16"
       id="radialGradient3904"
       xlink:href="#linearGradient3898" />
    <linearGradient
       gradientUnits="userSpaceOnUse"
       y2="1033.3622"
       x2="25"
       y1="1021.3622"
       x1="25"
       id="linearGradient3916"
       xlink:href="#linearGradient3910" />
    <linearGradient
       gradientTransform="matrix(1,0,0,-1,0,1048.3622)"
       y2="21"
       x2="22"
       y1="19"
       x1="22"
       gradientUnits="userSpaceOnUse"
       id="linearGradient3942"
       xlink:href="#linearGradient3932" />
    <radialGradient
       gradientUnits="userSpaceOnUse"
       gradientTransform="matrix(1.3571429,-3.2967685e-7,6.5395621e-8,0.28571427,-8.9285727,14.285722)"
       r="14"
       fy="20"
       fx="25"
       cy="20"
       cx="25"
       id="radialGradient3973"
       xlink:href="#linearGradient3967" />
    <radialGradient
       r="14"
       fy="20"
       fx="25"
       cy="20"
       cx="25"
       gradientTransform="matrix(1.3571429,3.2967685e-7,6.5395621e-8,-0.28571427,-20.928573,1036.0765)"
       gradientUnits="userSpaceOnUse"
       id="radialGradient3977"
       xlink:href="#linearGradient3979" />
    <radialGradient
       gradientUnits="userSpaceOnUse"
       gradientTransform="matrix(1,0,0,0.33333333,0,686.24146)"
       r="18"
       fy="1029.3622"
       fx="24"
       cy="1029.3622"
       cx="24"
       id="radialGradient4008"
       xlink:href="#linearGradient4002" />
    <linearGradient
       gradientUnits="userSpaceOnUse"
       y2="31"
       x2="23"
       y1="27"
       x1="23"
       id="linearGradient4018"
       xlink:href="#linearGradient4012" />
    <radialGradient
       gradientUnits="userSpaceOnUse"
       gradientTransform="matrix(1,0,0,0.25,0,20.25)"
       r="16"
       fy="27"
       fx="25"
       cy="27"
       cx="25"
       id="radialGradient4031"
       xlink:href="#linearGradient4025" />
    <radialGradient
       r="14"
       fy="20"
       fx="25"
       cy="20"
       cx="25"
       gradientTransform="matrix(1.3571429,3.2967685e-7,6.5395621e-8,-0.28571427,-8.9285727,1036.0765)"
       gradientUnits="userSpaceOnUse"
       id="radialGradient4051"
       xlink:href="#linearGradient3979" />
    <linearGradient
       gradientTransform="matrix(.95758 0 0 -1 -290.20455 264.24999)"
       xlink:href="#linearGradient4025"
       id="linearGradient3903"
       y1="221.062"
       y2="226.25"
       gradientUnits="userSpaceOnUse"
       x2="0" />
    <linearGradient
       gradientTransform="matrix(.5 0 0 2 12 -25)"
       xlink:href="#linearGradient3850"
       id="linearGradient3908"
       x1="12"
       gradientUnits="userSpaceOnUse"
       x2="36" />
    <linearGradient
       xlink:href="#linearGradient3915"
       id="linearGradient3921"
       y1="24"
       x1="10.5"
       y2="30"
       x2="10.548"
       gradientUnits="userSpaceOnUse" />
    <linearGradient
       id="linearGradient3915">
      <stop
         offset="0"
         style="stop-color:#ccc"
         id="stop3502" />
      <stop
         offset="1"
         style="stop-color:#fff"
         id="stop3504" />
    </linearGradient>
    <linearGradient
       gradientTransform="matrix(1.40505 0 0 1.40476 -124.60265 -166.30655)"
       xlink:href="#linearGradient3915"
       id="linearGradient3898-3"
       y1="236.125"
       y2="224.438"
       gradientUnits="userSpaceOnUse"
       x2="0" />
    <linearGradient
       id="linearGradient3850">
      <stop
         offset="0"
         style="stop-color:#028ccc"
         id="stop3513" />
      <stop
         offset="1"
         style="stop-color:#03a9f4"
         id="stop3515" />
    </linearGradient>
    <radialGradient
       cx="62.625"
       cy="4.625"
       gradientTransform="matrix(-2.25882 0 0 .32941 165.45886 42.97647)"
       xlink:href="#radialGradient4760"
       id="radialGradient3913"
       r="10.625"
       gradientUnits="userSpaceOnUse" />
    <radialGradient
       cx="62.625"
       cy="4.625"
       gradientTransform="matrix(5.77506 0 0 2.00858 -297.66314 30.79602)"
       id="radialGradient4760"
       r="10.625"
       gradientUnits="userSpaceOnUse">
      <stop
         offset="0"
         style="stop-opacity:.15"
         id="stop3519" />
      <stop
         offset="1"
         style="stop-opacity:0"
         id="stop3521" />
    </radialGradient>
    <linearGradient
       gradientUnits="userSpaceOnUse"
       y2="1031.3622"
       x2="-25"
       y1="1023.3622"
       x1="-25"
       id="linearGradient4373"
       xlink:href="#linearGradient3850" />
  </defs>
  <metadata
     id="metadata4235">
    <rdf:RDF>
      <cc:Work
         rdf:about="">
        <dc:format>image/svg+xml</dc:format>
        <dc:type
           rdf:resource="http://purl.org/dc/dcmitype/StillImage" />
        <dc:title></dc:title>
      </cc:Work>
    </rdf:RDF>
  </metadata>
  <g
     style="display:inline"
     id="layer3">
    <path
       id="rect3829"
       d="M 10,1 C 5.014,1 1,5.014 1,10 l 0,28 c 0,4.986 4.014,9 9,9 l 28,0 c 4.986,0 9,-4.014 9,-9 L 47,10 C 47,5.014 42.986,1 38,1 L 10,1 z m 0.5,0.5 27,0 c 4.986,0 9,4.014 9,9 l 0,27 c 0,4.986 -4.014,9 -9,9 l -27,0 c -4.986,0 -9,-4.014 -9,-9 l 0,-27 c 0,-4.986 4.014,-9 9,-9 z"
       style="opacity:0.06000001;fill:#000000;fill-opacity:1;stroke:none" />
    <path
       id="rect3827"
       d="m 10.5,1.5 c -4.986,0 -9,4.014 -9,9 l 0,27 c 0,4.986 4.014,9 9,9 l 27,0 c 4.986,0 9,-4.014 9,-9 l 0,-27 c 0,-4.986 -4.014,-9 -9,-9 l -27,0 z m 0.25,0.25 26.5,0 c 4.986,0 9,4.014 9,9 l 0,26.5 c 0,4.986 -4.014,9 -9,9 l -26.5,0 c -4.986,0 -9,-4.014 -9,-9 l 0,-26.5 c 0,-4.986 4.014,-9 9,-9 z"
       style="opacity:0.12000002;fill:#000000;fill-opacity:1;stroke:none" />
    <rect
       rx="9"
       ry="9"
       y="1.75"
       x="1.75"
       height="44.5"
       width="44.5"
       id="rect3038-4"
       style="opacity:0.23999999;fill:#000000;fill-opacity:1;stroke:none" />
  </g>
  <g
     style="display:inline"
     id="layer6">
    <path
       id="rect4241"
       d="M 1.03125,39 C 1.5192036,43.518898 5.3471961,47 10,47 l 28,0 c 4.652804,0 8.480796,-3.481102 8.96875,-8 l -45.9375,0 z"
       style="opacity:0.3;fill:url(#radialGradient4274);fill-opacity:1;stroke:none" />
  </g>
  <g
     style="display:inline"
     id="layer2">
    <rect
       rx="9"
       ry="9"
       y="1.9999826"
       x="2"
       height="44"
       width="44"
       id="rect3038"
       style="fill:url(#linearGradient3880);fill-opacity:1.0;stroke:none" />
  </g>
  <g
     style="display:inline"
     transform="translate(0,-1004.3622)"
     id="layer1">
    <rect
       ry="6"
       rx="6"
       y="1021.3622"
       x="11"
       height="12"
       width="28"
       id="rect3908"
       style="fill:url(#linearGradient3916);fill-opacity:1;stroke:none" />
    <path
       id="rect3985"
       transform="translate(0,1004.3622)"
       d="M 16 28 L 16 28.90625 C 16.323493 28.959808 16.660862 29 17 29 L 33 29 C 33.339138 29 33.676507 28.959808 34 28.90625 L 34 28 L 16 28 z "
       style="fill:#eaeef1;fill-opacity:1;stroke:none;opacity:0.6" />
    <path
       style="fill:url(#radialGradient3904);fill-opacity:1;stroke:none"
       id="path3906"
       d="m 21,17 a 5,5 0 0 1 -5,5 5,5 0 0 1 -5,-5 5,5 0 0 1 5,-5 5,5 0 0 1 5,5 z"
       transform="matrix(-1,0,0,1,48,1011.3622)" />
    <rect
       transform="scale(-1,1)"
       style="fill:url(#linearGradient4373);fill-opacity:1;stroke:none"
       id="rect4060"
       width="22"
       height="8"
       x="-35"
       y="1023.3622"
       rx="3"
       ry="3" />
    <path
       transform="matrix(-1,0,0,1,48,1011.3622)"
       d="m 21,17 a 5,5 0 0 1 -5,5 5,5 0 0 1 -5,-5 5,5 0 0 1 5,-5 5,5 0 0 1 5,5 z"
       id="path3894"
       style="fill:url(#radialGradient3904);fill-opacity:1;stroke:none" />
    <path
       style="fill:url(#linearGradient4079);fill-opacity:1;stroke:none"
       id="path4066"
       d="m 21,17 a 5,5 0 0 1 -5,5 5,5 0 0 1 -5,-5 5,5 0 0 1 5,-5 5,5 0 0 1 5,5 z"
       transform="matrix(-1,0,0,1,48,1010.3622)" />
    <path
       style="opacity:0.1;fill:#000000;fill-opacity:1;stroke:none"
       d="m 36.998089,1027.1122 c 0.0043,0.085 0,0.164 0,0.25 0,2.7614 -2.237724,5 -4.998096,5 -2.760372,0 -4.998095,-2.2386 -4.998095,-5 0,-0.086 -0.0043,-0.1651 0,-0.25 0.133367,2.6423 2.323649,4.75 4.998095,4.75 2.674446,0 4.864729,-2.1077 4.998096,-4.75 z"
       id="path4068" />
    <path
       transform="matrix(-0.6,0,0,-0.6,41.6,1037.5622)"
       d="m 21,17 a 5,5 0 0 1 -5,5 5,5 0 0 1 -5,-5 5,5 0 0 1 5,-5 5,5 0 0 1 5,5 z"
       id="path4070"
       style="fill:url(#linearGradient4081);fill-opacity:1.0;stroke:none" />
    <path
       style="opacity:0.1;fill:#000000;fill-opacity:1;stroke:none"
       d="m 32,1024.3622 c 1.656854,0 3,1.3431 3,3 0,0.087 -0.02393,0.1645 -0.03125,0.25 -0.13149,-1.5354 -1.399278,-2.75 -2.96875,-2.75 -1.569472,0 -2.83726,1.2146 -2.96875,2.75 -0.0073,-0.086 -0.03125,-0.1626 -0.03125,-0.25 0,-1.6569 1.343146,-3 3,-3 z"
       id="path4072" />
    <path
       id="rect3959"
       transform="translate(0,1004.3622)"
       d="M 17 17 C 13.676 17 11 19.676 11 23 L 11.09375 23 C 11.56513 20.152831 14.015138 18 17 18 L 33 18 C 35.984862 18 38.43487 20.152831 38.90625 23 L 39 23 C 39 19.676 36.324 17 33 17 L 17 17 z "
       style="opacity:0.14999999999999999;fill:url(#radialGradient3973);fill-opacity:1;stroke:none" />
    <path
       style="opacity:0.25;fill:url(#radialGradient4051);fill-opacity:1;stroke:none"
       d="m 17,1033.3622 c -3.324,0 -6,-2.676 -6,-6 l 0.09375,0 c 0.47138,2.8472 2.921388,5 5.90625,5 l 16,0 c 2.984862,0 5.43487,-2.1528 5.90625,-5 l 0.09375,0 c 0,3.324 -2.676,6 -6,6 l -16,0 z"
       id="path4049" />
    <path
       style="opacity:0.4;fill:#868a92;fill-opacity:1;stroke:none"
       d="m 16,1022.3622 0,-0.9063 c 0.323493,-0.053 0.660862,-0.094 1,-0.094 l 16,0 c 0.339138,0 0.676507,0.04 1,0.094 l 0,0.9063 -18,0 z"
       id="path3990" />
  </g>
  <g
     style="display:inline"
     id="layer4">
    <path
       id="rect3038-42"
       d="m 2,34 0,3 c 0,4.986 4.014,9 9,9 l 26,0 c 4.986,0 9,-4.014 9,-9 l 0,-3 c 0,4.986 -4.014,9 -9,9 L 11,43 C 6.014,43 2,38.986 2,34 z"
       style="opacity:0.15;fill:#000000;fill-opacity:1;stroke:none" />
  </g>
  <g
     style="display:none"
     id="layer7">
    <rect
       style="fill:#abe1ad;fill-opacity:1;stroke:none;display:inline"
       id="rect4169"
       width="44"
       height="44"
       x="2"
       y="2"
       ry="9"
       rx="9" />
  </g>
</svg>
