<svg xmlns="http://www.w3.org/2000/svg" viewBox="0 0 48 48"><defs><clipPath><rect fill="#1890d0" width="46" height="46" x="1" y=".998" rx="4" stroke-width="1"/></clipPath><clipPath id="1"><path d="m104.51 961.94h151.52c29.06 0 52.45 23.393 52.45 52.45v2.368 2.367 2.368 2.367 2.368 2.367 2.368 2.367 2.368 2.367 2.368 2.367 2.368 2.367 2.368h-256.43v-2.368-2.367-2.368-2.367-2.368-2.367-2.368-2.367-2.368-2.367-2.368-2.367-2.368-2.367-2.368c0-29.06 23.393-52.45 52.45-52.45"/></clipPath><clipPath><rect fill="#1890d0" width="46" height="46" x="1" y=".998" rx="4" stroke-width="1"/></clipPath><linearGradient gradientUnits="userSpaceOnUse" y1="1218.37" x2="0" y2="961.94"><stop stop-color="#ff9e00"/><stop offset="1" stop-color="#edc400"/></linearGradient><linearGradient y2="2" x2="0" y1="46" gradientUnits="userSpaceOnUse" id="2"><stop stop-color="#1e91e1"/><stop offset="1" stop-color="#6aa9e4"/></linearGradient><radialGradient id="0" gradientUnits="userSpaceOnUse" gradientTransform="matrix(1.04348 0 0 .19565-1.043 35.18)" cx="24" cy="42.5" r="23"><stop/><stop offset="1" stop-opacity="0"/></radialGradient></defs><path d="m10 1c-4.986 0-9 4.01-9 9v28c0 4.986 4.01 9 9 9h28c4.986 0 9-4.01 9-9v-28c0-4.986-4.01-9-9-9h-28m.5.5h27c4.986 0 9 4.01 9 9v27c0 4.986-4.01 9-9 9h-27c-4.986 0-9-4.01-9-9v-27c0-4.986 4.01-9 9-9" opacity=".06"/><path d="m10.5 1.5c-4.986 0-9 4.01-9 9v27c0 4.986 4.01 9 9 9h27c4.986 0 9-4.01 9-9v-27c0-4.986-4.01-9-9-9h-27m.25.25h26.5c4.986 0 9 4.01 9 9v26.5c0 4.986-4.01 9-9 9h-26.5c-4.986 0-9-4.01-9-9v-26.5c0-4.986 4.01-9 9-9" opacity=".12"/><rect width="44.5" height="44.5" x="1.75" y="1.75" rx="9" opacity=".24"/><path d="m1.031 39c.488 4.519 4.316 8 8.969 8h28c4.653 0 8.481-3.481 8.969-8h-45.938" opacity=".3" fill="url(#0)"/><rect width="44" height="44" x="2" y="2" rx="9" fill="url(#2)"/><g opacity=".1"><path d="m4.908 3.532c-2.326 0-4.248 1.893-4.248 4.219 0 2.326 1.922 4.248 4.248 4.248 2.327 0 4.219-1.921 4.219-4.248 0-2.326-1.892-4.219-4.219-4.219m0 .827c1.88 0 3.392 1.514 3.392 3.392 0 1.879-1.512 3.421-3.392 3.421-1.879 0-3.421-1.542-3.421-3.421 0-1.879 1.542-3.392 3.421-3.392" transform="matrix(2.3622 0 0 2.3622 12.44 12.657)"/></g><path d="m24 20c-5.523 0-10 4.477-10 10 0 5.523 4.477 10 10 10 5.523 0 10-4.477 10-10 0-5.523-4.477-10-10-10m-3 5.313l8 5.094-8 5.094v-10.188" fill="#f7f7f7"/><g transform="translate(0-1004.36)"><g color="#000"><g transform="matrix(.17159 0 0 .17052-6.932 843.33)" clip-path="url(#1)" opacity=".15"><path d="m58.4-29.11l25.949-17.01 47.742 47.705-44.584 44.47-.071-45.665z" transform="translate(0 1004.36)"/><path d="m124.07 959.73l40.14-1.488 47.742 47.705-44.584 44.47h-41.2l44.09-44.633z"/><path d="m203.89 959.73l40.14-1.488 47.742 47.705-44.584 44.47h-41.2l44.09-44.633z"/><path d="m164.87 959.73l40.14-1.488 47.742 47.705-44.584 44.47h-41.2l44.09-44.633z"/><path d="m85.05 959.73l40.14-1.488 47.742 47.705-44.584 44.47h-41.2l44.09-44.633z"/><path d="m244.4 959.73l40.14-1.488 47.742 47.705-44.584 44.47h-41.2l44.09-44.633z"/><path d="m285.49 959.73l40.14-1.488 47.742 47.705-44.584 44.47h-41.2l44.09-44.633z"/><path d="m45.09 977.71h43.16v72.43h-43.16z"/><path d="m5.313 8c0 .552-.448 1-1 1-.552 0-1-.448-1-1 0-.552.448-1 1-1 .552 0 1 .448 1 1" transform="matrix(7.37322 0 0 7.37322 38.478 940.2)"/></g><g transform="translate(0 1004.36)"><g fill="#171717"><path d="m14.719 2l7.563 7.531-7.563 7.469h7.06l7.656-7.438-7.563-7.563z"/><path d="m28.438 2l7.531 7.531-7.563 7.469h7.06l7.656-7.438-7.563-7.563z"/></g><g fill="#f7f7f7"><path d="m21.719 2l7.563 7.531-7.563 7.469h7.06l7.656-7.438-7.563-7.563z"/><path d="m11 2c-.901 0-1.774.131-2.594.375l7.188 7.156-7.563 7.469h7.06l7.656-7.438-7.594-7.563z"/><path d="m35.38 2l7.563 7.531-7.563 7.469h7.06l3.563-3.375v-2.625c0-4.986-4.01-9-9-9z"/></g><path d="m46 13.563l-3.594 3.438h3.594z" fill="#171717"/></g></g><path d="m8.551 1013.9l37.34-.048" opacity=".411" fill="none" stroke="#000" stroke-width=".099"/><g color="#000"><g transform="translate(0 1004.36)"><path d="m8.5 2.375c-1.716.493-3.217 1.462-4.344 2.781l4.375 4.375-6.531 6.625v.844h6.03l7.656-7.438z" fill="#171717"/><path d="m8.563 2.344c-3.794 1.058-6.563 4.516-6.563 8.656v6h7z" fill="#717171"/></g><path transform="matrix(1.5 0 0 1.5-.969 1002.86)" d="m5.313 8c0 .552-.448 1-1 1-.552 0-1-.448-1-1 0-.552.448-1 1-1 .552 0 1 .448 1 1" fill="#fff"/></g></g><path d="m2 34v3c0 4.986 4.01 9 9 9h26c4.986 0 9-4.01 9-9v-3c0 4.986-4.01 9-9 9h-26c-4.986 0-9-4.01-9-9" opacity=".15"/></svg>