<?xml version="1.0" encoding="UTF-8" standalone="no"?>
<!-- Created with Inkscape (http://www.inkscape.org/) -->

<svg
   xmlns:dc="http://purl.org/dc/elements/1.1/"
   xmlns:cc="http://creativecommons.org/ns#"
   xmlns:rdf="http://www.w3.org/1999/02/22-rdf-syntax-ns#"
   xmlns:svg="http://www.w3.org/2000/svg"
   xmlns="http://www.w3.org/2000/svg"
   xmlns:xlink="http://www.w3.org/1999/xlink"
   xmlns:sodipodi="http://sodipodi.sourceforge.net/DTD/sodipodi-0.dtd"
   xmlns:inkscape="http://www.inkscape.org/namespaces/inkscape"
   width="48"
   height="48"
   id="svg4230"
   version="1.1"
   inkscape:version="0.48.5 r10040"
   sodipodi:docname="zahranvane.svg"
   inkscape:export-filename="/home/webdesign/Downloads/ozon icons/texteditor.png"
   inkscape:export-xdpi="960"
   inkscape:export-ydpi="960">
  <defs
     id="defs4232">
    <linearGradient
       inkscape:collect="always"
       id="linearGradient3991">
      <stop
         style="stop-color:#000000;stop-opacity:1;"
         offset="0"
         id="stop3993" />
      <stop
         style="stop-color:#000000;stop-opacity:0;"
         offset="1"
         id="stop3995" />
    </linearGradient>
    <linearGradient
       inkscape:collect="always"
       id="linearGradient3978">
      <stop
         style="stop-color:#000000;stop-opacity:1;"
         offset="0"
         id="stop3981" />
      <stop
         style="stop-color:#000000;stop-opacity:0;"
         offset="1"
         id="stop3983" />
    </linearGradient>
    <linearGradient
       id="linearGradient3912">
      <stop
         id="stop3914"
         offset="0"
         style="stop-color:#d3d3d3;stop-opacity:1;" />
      <stop
         id="stop3916"
         offset="1"
         style="stop-color:#ededed;stop-opacity:1;" />
    </linearGradient>
    <linearGradient
       id="linearGradient3896">
      <stop
         style="stop-color:#b9bbbf;stop-opacity:1;"
         offset="0"
         id="stop3898" />
      <stop
         style="stop-color:#e1e1e2;stop-opacity:1;"
         offset="1"
         id="stop3900" />
    </linearGradient>
    <linearGradient
       id="linearGradient4083">
      <stop
         id="stop4085"
         offset="0"
         style="stop-color:#bcbec2;stop-opacity:1;" />
      <stop
         id="stop4087"
         offset="1"
         style="stop-color:#f5f5f5;stop-opacity:1;" />
    </linearGradient>
    <linearGradient
       id="linearGradient4044">
      <stop
         style="stop-color:#000000;stop-opacity:1;"
         offset="0"
         id="stop4046" />
      <stop
         style="stop-color:#ffffff;stop-opacity:1;"
         offset="1"
         id="stop4048" />
    </linearGradient>
    <linearGradient
       id="linearGradient4005">
      <stop
         id="stop4007"
         offset="0"
         style="stop-color:#e1e1e1;stop-opacity:1;" />
      <stop
         id="stop4009"
         offset="1"
         style="stop-color:#ececec;stop-opacity:1;" />
    </linearGradient>
    <linearGradient
       id="linearGradient3976">
      <stop
         style="stop-color:#c0c0c0;stop-opacity:1;"
         offset="0"
         id="stop3978" />
      <stop
         style="stop-color:#ffffff;stop-opacity:1;"
         offset="1"
         id="stop3980" />
    </linearGradient>
    <linearGradient
       id="linearGradient3874">
      <stop
         style="stop-color:#ea508d;stop-opacity:1;"
         offset="0"
         id="stop3876" />
      <stop
         style="stop-color:#e66296;stop-opacity:1;"
         offset="1"
         id="stop3878" />
    </linearGradient>
    <linearGradient
       id="linearGradient4026">
      <stop
         style="stop-color:#f1f1e9;stop-opacity:1;"
         offset="0"
         id="stop4028" />
      <stop
         style="stop-color:#f5f5ea;stop-opacity:1;"
         offset="1"
         id="stop4030" />
    </linearGradient>
    <linearGradient
       id="linearGradient4243">
      <stop
         style="stop-color:#000000;stop-opacity:1;"
         offset="0"
         id="stop4245" />
      <stop
         style="stop-color:#000000;stop-opacity:0;"
         offset="1"
         id="stop4247" />
    </linearGradient>
    <linearGradient
       id="linearGradient4216">
      <stop
         style="stop-color:#a0c4e6;stop-opacity:1;"
         offset="0"
         id="stop4218" />
      <stop
         style="stop-color:#d0e2f1;stop-opacity:1;"
         offset="1"
         id="stop4220" />
    </linearGradient>
    <linearGradient
       id="linearGradient4208">
      <stop
         style="stop-color:#70a3d6;stop-opacity:1;"
         offset="0"
         id="stop4210" />
      <stop
         style="stop-color:#88b6e1;stop-opacity:1;"
         offset="1"
         id="stop4212" />
    </linearGradient>
    <linearGradient
       id="linearGradient4200">
      <stop
         style="stop-color:#427dbe;stop-opacity:1;"
         offset="0"
         id="stop4202" />
      <stop
         style="stop-color:#739bd1;stop-opacity:1;"
         offset="1"
         id="stop4204" />
    </linearGradient>
    <linearGradient
       id="linearGradient4192">
      <stop
         style="stop-color:#4970a4;stop-opacity:1;"
         offset="0"
         id="stop4194" />
      <stop
         style="stop-color:#6090c0;stop-opacity:1;"
         offset="1"
         id="stop4196" />
    </linearGradient>
    <radialGradient
       inkscape:collect="always"
       xlink:href="#linearGradient3688-166-749-5-9-1"
       id="radialGradient4351"
       gradientUnits="userSpaceOnUse"
       gradientTransform="matrix(2.3201711,0,0,0.39999996,28.617836,28.600002)"
       cx="4.9929786"
       cy="43.5"
       fx="4.9929786"
       fy="43.5"
       r="2.5" />
    <linearGradient
       id="linearGradient3688-166-749-5-9-1">
      <stop
         id="stop2883-0-2-9"
         style="stop-color:#181818;stop-opacity:1"
         offset="0" />
      <stop
         id="stop2885-5-3-8"
         style="stop-color:#181818;stop-opacity:0"
         offset="1" />
    </linearGradient>
    <linearGradient
       id="linearGradient3688-464-309-8-9-4">
      <stop
         id="stop2889-9-9-1"
         style="stop-color:#181818;stop-opacity:1"
         offset="0" />
      <stop
         id="stop2891-4-2-9"
         style="stop-color:#181818;stop-opacity:0"
         offset="1" />
    </linearGradient>
    <linearGradient
       id="linearGradient3702-501-757-0-4-0">
      <stop
         id="stop2895-0-2-1"
         style="stop-color:#181818;stop-opacity:0"
         offset="0" />
      <stop
         id="stop2897-2-8-2"
         style="stop-color:#181818;stop-opacity:1"
         offset="0.5" />
      <stop
         id="stop2899-6-1-6"
         style="stop-color:#181818;stop-opacity:0"
         offset="1" />
    </linearGradient>
    <linearGradient
       id="linearGradient3811-3">
      <stop
         style="stop-color:#000000;stop-opacity:1;"
         offset="0"
         id="stop3813-0" />
      <stop
         style="stop-color:#000000;stop-opacity:0;"
         offset="1"
         id="stop3815-0" />
    </linearGradient>
    <clipPath
       id="clipPath-887332295">
      <g
         id="g3945"
         transform="translate(0,-1004.3622)">
        <rect
           id="rect3947"
           fill="#1890d0"
           width="46"
           height="46"
           x="1"
           y="1005.36"
           rx="4" />
      </g>
    </clipPath>
    <clipPath
       id="clipPath-867792831">
      <g
         id="g3940"
         transform="translate(0,-1004.3622)">
        <rect
           id="rect3942"
           fill="#1890d0"
           width="46"
           height="46"
           x="1"
           y="1005.36"
           rx="4" />
      </g>
    </clipPath>
    <linearGradient
       gradientTransform="translate(-47.997785,0.00221467)"
       gradientUnits="userSpaceOnUse"
       x2="47"
       x1="1"
       id="linearGradient3764">
      <stop
         id="stop3935"
         stop-opacity="1"
         stop-color="#e4e4e4" />
      <stop
         id="stop3937"
         stop-opacity="1"
         stop-color="#eee"
         offset="1" />
    </linearGradient>
    <radialGradient
       inkscape:collect="always"
       xlink:href="#linearGradient4243"
       id="radialGradient4274"
       gradientUnits="userSpaceOnUse"
       gradientTransform="matrix(1.0434782,0,0,0.1956518,-1.0434797,35.184809)"
       cx="24.000001"
       cy="42.499991"
       fx="24.000001"
       fy="42.499991"
       r="23" />
    <linearGradient
       inkscape:collect="always"
       xlink:href="#linearGradient4026"
       id="linearGradient4032"
       x1="-41.197594"
       y1="1042.7213"
       x2="-41.197594"
       y2="1002.0031"
       gradientUnits="userSpaceOnUse" />
    <linearGradient
       inkscape:collect="always"
       xlink:href="#linearGradient4026"
       id="linearGradient4078"
       gradientUnits="userSpaceOnUse"
       x1="-41.197594"
       y1="1042.7213"
       x2="-41.197594"
       y2="1002.0031" />
    <linearGradient
       inkscape:collect="always"
       xlink:href="#linearGradient4026"
       id="linearGradient4114"
       gradientUnits="userSpaceOnUse"
       x1="-41.197594"
       y1="1042.7213"
       x2="-41.197594"
       y2="1002.0031" />
    <linearGradient
       inkscape:collect="always"
       xlink:href="#linearGradient4026"
       id="linearGradient4150"
       gradientUnits="userSpaceOnUse"
       x1="-41.197594"
       y1="1042.7213"
       x2="-41.197594"
       y2="1002.0031" />
    <linearGradient
       inkscape:collect="always"
       xlink:href="#linearGradient4083"
       id="linearGradient3880"
       x1="26"
       y1="46"
       x2="26"
       y2="2"
       gradientUnits="userSpaceOnUse" />
    <linearGradient
       inkscape:collect="always"
       xlink:href="#linearGradient4005"
       id="linearGradient4015"
       gradientUnits="userSpaceOnUse"
       x1="16"
       y1="22"
       x2="16"
       y2="12" />
    <linearGradient
       inkscape:collect="always"
       xlink:href="#linearGradient4005"
       id="linearGradient4017"
       gradientUnits="userSpaceOnUse"
       x1="16"
       y1="22"
       x2="16"
       y2="12"
       gradientTransform="matrix(0.6,0,0,-0.6,6.4,27.2)" />
    <linearGradient
       inkscape:collect="always"
       xlink:href="#linearGradient3896"
       id="linearGradient3902"
       x1="-3.5"
       y1="15"
       x2="-3.5"
       y2="39"
       gradientUnits="userSpaceOnUse" />
    <linearGradient
       inkscape:collect="always"
       xlink:href="#linearGradient3912"
       id="linearGradient3910"
       gradientUnits="userSpaceOnUse"
       x1="7.0000005"
       y1="27"
       x2="-14"
       y2="27" />
    <linearGradient
       inkscape:collect="always"
       xlink:href="#linearGradient4044"
       id="linearGradient3974"
       gradientUnits="userSpaceOnUse"
       x1="-3.5"
       y1="15"
       x2="-3.5"
       y2="39" />
    <radialGradient
       inkscape:collect="always"
       xlink:href="#linearGradient3978"
       id="radialGradient3985"
       cx="-3.5"
       cy="27"
       fx="-3.5"
       fy="27"
       r="10.5"
       gradientTransform="matrix(1,0,0,1.1428571,0,-3.8571429)"
       gradientUnits="userSpaceOnUse" />
    <radialGradient
       inkscape:collect="always"
       xlink:href="#linearGradient3991"
       id="radialGradient3997"
       cx="-3.5"
       cy="27"
       fx="-3.5"
       fy="27"
       r="10.5"
       gradientTransform="matrix(1,0,0,1.1428571,0,-3.8571429)"
       gradientUnits="userSpaceOnUse" />
    <radialGradient
       inkscape:collect="always"
       xlink:href="#linearGradient3991"
       id="radialGradient4001"
       gradientUnits="userSpaceOnUse"
       gradientTransform="matrix(1,0,0,1.1428571,0,-3.8571429)"
       cx="-3.5"
       cy="27"
       fx="-3.5"
       fy="27"
       r="10.5" />
  </defs>
  <sodipodi:namedview
     id="base"
     pagecolor="#ffffff"
     bordercolor="#666666"
     borderopacity="1.0"
     inkscape:pageopacity="0.0"
     inkscape:pageshadow="2"
     inkscape:zoom="6.6701125"
     inkscape:cx="28.067155"
     inkscape:cy="13.376017"
     inkscape:document-units="px"
     inkscape:current-layer="layer1"
     showgrid="true"
     inkscape:showpageshadow="false"
     borderlayer="true"
     inkscape:window-width="1920"
     inkscape:window-height="1023"
     inkscape:window-x="0"
     inkscape:window-y="28"
     inkscape:window-maximized="1"
     showguides="false"
     inkscape:guide-bbox="true">
    <inkscape:grid
       type="xygrid"
       id="grid4162" />
    <sodipodi:guide
       position="1.0000013,47.000017"
       orientation="46,0"
       id="guide4163" />
    <sodipodi:guide
       position="1.0000013,1.0000174"
       orientation="0,45.999999"
       id="guide4165" />
    <sodipodi:guide
       position="47,1.0000174"
       orientation="-46,0"
       id="guide4167" />
    <sodipodi:guide
       position="47,47.000017"
       orientation="0,-45.999999"
       id="guide4169" />
    <sodipodi:guide
       position="2.0000007,46.000017"
       orientation="44,0"
       id="guide4173" />
    <sodipodi:guide
       position="2.0000007,2.0000174"
       orientation="0,43.999999"
       id="guide4175" />
    <sodipodi:guide
       position="46,2.0000174"
       orientation="-44,0"
       id="guide4177" />
    <sodipodi:guide
       position="46,46.000017"
       orientation="0,-43.999999"
       id="guide4179" />
    <sodipodi:guide
       position="3,45.000017"
       orientation="42,0"
       id="guide4183" />
    <sodipodi:guide
       position="45,3.0000174"
       orientation="-42,0"
       id="guide4187" />
    <sodipodi:guide
       position="45,45.000017"
       orientation="0,-42"
       id="guide4189" />
    <sodipodi:guide
       position="3,45.000017"
       orientation="42,0"
       id="guide4193" />
    <sodipodi:guide
       position="3,3.0000174"
       orientation="0,42"
       id="guide4195" />
    <sodipodi:guide
       position="45,3.0000174"
       orientation="-42,0"
       id="guide4197" />
    <sodipodi:guide
       position="45,45.000017"
       orientation="0,-42"
       id="guide4199" />
    <sodipodi:guide
       position="3,10.000017"
       orientation="7,0"
       id="guide4203" />
    <sodipodi:guide
       position="3,3.0000174"
       orientation="0,42"
       id="guide4205" />
    <sodipodi:guide
       position="45,3.0000174"
       orientation="-7,0"
       id="guide4207" />
    <sodipodi:guide
       position="45,10.000017"
       orientation="0,-42"
       id="guide4209" />
  </sodipodi:namedview>
  <metadata
     id="metadata4235">
    <rdf:RDF>
      <cc:Work
         rdf:about="">
        <dc:format>image/svg+xml</dc:format>
        <dc:type
           rdf:resource="http://purl.org/dc/dcmitype/StillImage" />
        <dc:title></dc:title>
      </cc:Work>
    </rdf:RDF>
  </metadata>
  <g
     inkscape:groupmode="layer"
     id="layer3"
     inkscape:label="Fake blur shadow"
     style="display:inline"
     sodipodi:insensitive="true">
    <path
       style="opacity:0.06000001;fill:#000000;fill-opacity:1;stroke:none"
       d="M 10,1 C 5.014,1 1,5.014 1,10 l 0,28 c 0,4.986 4.014,9 9,9 l 28,0 c 4.986,0 9,-4.014 9,-9 L 47,10 C 47,5.014 42.986,1 38,1 L 10,1 z m 0.5,0.5 27,0 c 4.986,0 9,4.014 9,9 l 0,27 c 0,4.986 -4.014,9 -9,9 l -27,0 c -4.986,0 -9,-4.014 -9,-9 l 0,-27 c 0,-4.986 4.014,-9 9,-9 z"
       id="rect3829"
       inkscape:connector-curvature="0" />
    <path
       style="opacity:0.12000002;fill:#000000;fill-opacity:1;stroke:none"
       d="m 10.5,1.5 c -4.986,0 -9,4.014 -9,9 l 0,27 c 0,4.986 4.014,9 9,9 l 27,0 c 4.986,0 9,-4.014 9,-9 l 0,-27 c 0,-4.986 -4.014,-9 -9,-9 l -27,0 z m 0.25,0.25 26.5,0 c 4.986,0 9,4.014 9,9 l 0,26.5 c 0,4.986 -4.014,9 -9,9 l -26.5,0 c -4.986,0 -9,-4.014 -9,-9 l 0,-26.5 c 0,-4.986 4.014,-9 9,-9 z"
       id="rect3827"
       inkscape:connector-curvature="0" />
    <rect
       style="opacity:0.23999999;fill:#000000;fill-opacity:1;stroke:none"
       id="rect3038-4"
       width="44.5"
       height="44.5"
       x="1.75"
       y="1.75"
       ry="9"
       rx="9" />
  </g>
  <g
     inkscape:groupmode="layer"
     id="layer6"
     inkscape:label="Blob"
     style="display:inline"
     sodipodi:insensitive="true">
    <path
       style="opacity:0.3;fill:url(#radialGradient4274);fill-opacity:1;stroke:none"
       d="M 1.03125,39 C 1.5192036,43.518898 5.3471961,47 10,47 l 28,0 c 4.652804,0 8.480796,-3.481102 8.96875,-8 l -45.9375,0 z"
       id="rect4241"
       inkscape:connector-curvature="0" />
  </g>
  <g
     inkscape:groupmode="layer"
     id="layer2"
     inkscape:label="Baseplate"
     style="display:inline">
    <rect
       style="fill:url(#linearGradient3880);fill-opacity:1.0;stroke:none"
       id="rect3038"
       width="44"
       height="44"
       x="2"
       y="1.9999826"
       ry="9"
       rx="9" />
  </g>
  <g
     inkscape:label="Symbol"
     inkscape:groupmode="layer"
     id="layer1"
     transform="translate(0,-1004.3622)"
     style="display:inline">
    <path
       transform="matrix(1.4285714,0,0,1.25,29,996.6122)"
       d="m 7,27 a 10.5,12 0 1 1 -21,0 10.5,12 0 1 1 21,0 z"
       sodipodi:ry="12"
       sodipodi:rx="10.5"
       sodipodi:cy="27"
       sodipodi:cx="-3.5"
       id="path3976"
       style="fill:url(#radialGradient3985);fill-opacity:1;stroke:none"
       sodipodi:type="arc" />
    <path
       sodipodi:type="arc"
       style="fill:url(#linearGradient3902);fill-opacity:1;stroke:none"
       id="path3107"
       sodipodi:cx="-3.5"
       sodipodi:cy="27"
       sodipodi:rx="10.5"
       sodipodi:ry="12"
       d="m 7,27 a 10.5,12 0 1 1 -21,0 10.5,12 0 1 1 21,0 z"
       transform="matrix(1.4285714,0,0,1.25,29,993.6122)" />
    <path
       transform="matrix(1.2380952,0,0,1.0833334,28.333333,998.1122)"
       d="m 7,27 a 10.5,12 0 1 1 -21,0 10.5,12 0 1 1 21,0 z"
       sodipodi:ry="12"
       sodipodi:rx="10.5"
       sodipodi:cy="27"
       sodipodi:cx="-3.5"
       id="path3904"
       style="fill:#c2c4c9;fill-opacity:1;stroke:none"
       sodipodi:type="arc" />
    <path
       style="fill:#9abe40;fill-opacity:1;stroke:none"
       d="m 24,10 0,3 5.90625,21.5625 C 34.108878,32.408534 37,28.047025 37,23 37,15.820298 31.179702,10 24,10 z"
       transform="translate(0,1004.3622)"
       id="rect3918"
       inkscape:connector-curvature="0"
       sodipodi:nodetypes="cccsc" />
    <path
       sodipodi:type="arc"
       style="fill:url(#radialGradient4001);fill-opacity:1;stroke:none"
       id="path3987"
       sodipodi:cx="-3.5"
       sodipodi:cy="27"
       sodipodi:rx="10.5"
       sodipodi:ry="12"
       d="m 7,27 a 10.5,12 0 1 1 -21,0 10.5,12 0 1 1 21,0 z"
       transform="matrix(1.047619,0,0,0.91666669,27.666666,1002.6122)" />
    <path
       transform="matrix(1.047619,0,0,0.91666669,27.666666,1002.6122)"
       d="m 7,27 a 10.5,12 0 1 1 -21,0 10.5,12 0 1 1 21,0 z"
       sodipodi:ry="12"
       sodipodi:rx="10.5"
       sodipodi:cy="27"
       sodipodi:cx="-3.5"
       id="path4003"
       style="fill:url(#radialGradient4001);fill-opacity:1;stroke:none"
       sodipodi:type="arc" />
    <path
       transform="matrix(0.95238095,0,0,0.83333335,27.333333,1004.8622)"
       d="m 7,27 a 10.5,12 0 1 1 -21,0 10.5,12 0 1 1 21,0 z"
       sodipodi:ry="12"
       sodipodi:rx="10.5"
       sodipodi:cy="27"
       sodipodi:cx="-3.5"
       id="path3908"
       style="fill:url(#linearGradient3910);fill-opacity:1;stroke:none"
       sodipodi:type="arc" />
    <path
       style="font-size:8.30727005px;font-style:normal;font-variant:normal;font-weight:normal;font-stretch:normal;line-height:125%;letter-spacing:0px;word-spacing:0px;fill:#888888;fill-opacity:1;stroke:none;font-family:Open Sans;-inkscape-font-specification:Open Sans"
       d="m 30.987342,1027.3622 c -0.325001,0 -0.567231,0.1335 -0.734177,0.3846 -0.164728,0.2512 -0.253168,0.6068 -0.253165,1.1026 -3e-6,0.4847 0.08399,0.8683 0.253165,1.1282 0.171399,0.2598 0.41808,0.3846 0.734177,0.3846 0.329443,0 0.590312,-0.1313 0.759493,-0.3846 0.171397,-0.2555 0.25316,-0.6326 0.253165,-1.1282 -5e-6,-0.4849 -0.100406,-0.8472 -0.278481,-1.1026 -0.17586,-0.2577 -0.418089,-0.3846 -0.734177,-0.3846 z m 0,0.3846 c 0.186979,0 0.341335,0.1009 0.43038,0.2821 0.08903,0.1791 0.126577,0.447 0.126582,0.8205 -5e-6,0.3777 -0.03755,0.6627 -0.126582,0.8461 -0.08905,0.1813 -0.243401,0.2821 -0.43038,0.2821 -0.186989,0 -0.322705,-0.099 -0.405064,-0.2821 -0.08237,-0.1856 -0.126586,-0.4728 -0.126582,-0.8461 -4e-6,-0.3735 0.04422,-0.6414 0.126582,-0.8205 0.08236,-0.1812 0.218075,-0.2821 0.405064,-0.2821 z"
       id="path3945"
       inkscape:connector-curvature="0" />
    <path
       style="font-size:8.30727005px;font-style:normal;font-variant:normal;font-weight:normal;font-stretch:normal;line-height:125%;letter-spacing:0px;word-spacing:0px;fill:#888888;fill-opacity:1;stroke:none;font-family:Open Sans;-inkscape-font-specification:Open Sans"
       sodipodi:nodetypes="ccccccccccccccc"
       inkscape:connector-curvature="0"
       id="path3934"
       d="m 20,1029.3622 0,0 0,1 -1,0 0,-1 -3,0 0,-1.0001 2.5,-3.9999 1.5,0 0,4 1,0 0,1 m -2,-4 -2,3 2,-4e-4" />
    <path
       style="font-size:8.30727005px;font-style:normal;font-variant:normal;font-weight:normal;font-stretch:normal;line-height:125%;letter-spacing:0px;word-spacing:0px;fill:#888888;fill-opacity:1;stroke:none;font-family:Open Sans;-inkscape-font-specification:Open Sans"
       sodipodi:nodetypes="cccccccc"
       inkscape:connector-curvature="0"
       id="path3936"
       d="m 24,1030.3622 -1,0 0,-4 0,-1 -1.125,0.75 -0.375,-0.5 1.500001,-1.2503 1,0" />
    <path
       style="font-size:8.30727005px;font-style:normal;font-variant:normal;font-weight:normal;font-stretch:normal;line-height:125%;letter-spacing:0px;word-spacing:0px;fill:#888888;fill-opacity:1;stroke:none;font-family:Open Sans;-inkscape-font-specification:Open Sans"
       d="m 26.987342,1024.3622 c -0.324998,0 -0.567227,0.1334 -0.734177,0.3846 C 26.08844,1024.9979 26,1025.3537 26,1025.8493 c 0,0.487 0.08176,0.8684 0.253165,1.1282 0.173628,0.2599 0.422535,0.3847 0.734177,0.3847 0.329447,0 0.590315,-0.1314 0.759493,-0.3847 0.171401,-0.2555 0.253163,-0.6303 0.253165,-1.1282 -2e-6,-0.4782 -0.07954,-0.8426 -0.253165,-1.1025 -0.17363,-0.2598 -0.436724,-0.3846 -0.759493,-0.3846 z m 0,0.3846 c 0.365063,0 0.556959,0.3645 0.556962,1.1025 -3e-6,0.7425 -0.191899,1.1282 -0.556962,1.1282 -0.18476,0 -0.322703,-0.096 -0.405064,-0.282 -0.08236,-0.1855 -0.126583,-0.475 -0.126582,-0.8462 -1e-6,-0.3712 0.04422,-0.6371 0.126582,-0.8205 0.08236,-0.1834 0.220304,-0.282 0.405064,-0.282 z"
       id="path3949"
       inkscape:connector-curvature="0" />
    <path
       style="font-size:8.30727005px;font-style:normal;font-variant:normal;font-weight:normal;font-stretch:normal;line-height:125%;letter-spacing:0px;word-spacing:0px;fill:#888888;fill-opacity:1;stroke:none;font-family:Open Sans;-inkscape-font-specification:Open Sans"
       d="m 31,1024.3622 -3.4,6 -0.6,0 3.4,-6"
       id="path3938" />
    <path
       style="fill:#9c9fa9;fill-opacity:1;stroke:none;opacity:0.8"
       d="M 24 10 C 16.820298 10 11 15.820298 11 23 C 11 30.179702 16.820298 36 24 36 C 31.179702 36 37 30.179702 37 23 C 37 15.820298 31.179702 10 24 10 z M 24 10.5 C 30.903559 10.5 36.5 16.09644 36.5 23 C 36.5 29.90356 30.903559 35.5 24 35.5 C 17.096441 35.5 11.5 29.90356 11.5 23 C 11.5 16.09644 17.096441 10.5 24 10.5 z "
       transform="translate(0,1004.3622)"
       id="path3957" />
  </g>
  <g
     inkscape:groupmode="layer"
     id="layer4"
     inkscape:label="Inset"
     sodipodi:insensitive="true"
     style="display:inline">
    <path
       style="opacity:0.15;fill:#000000;fill-opacity:1;stroke:none"
       d="m 2,34 0,3 c 0,4.986 4.014,9 9,9 l 26,0 c 4.986,0 9,-4.014 9,-9 l 0,-3 c 0,4.986 -4.014,9 -9,9 L 11,43 C 6.014,43 2,38.986 2,34 z"
       id="rect3038-42"
       inkscape:connector-curvature="0" />
  </g>
  <g
     inkscape:groupmode="layer"
     id="layer7"
     inkscape:label="Baseshape"
     sodipodi:insensitive="true"
     style="display:none">
    <rect
       rx="9"
       ry="9"
       y="2"
       x="2"
       height="44"
       width="44"
       id="rect4169"
       style="fill:#abe1ad;fill-opacity:1;stroke:none;display:inline" />
  </g>
</svg>
