<?xml version="1.0" encoding="UTF-8" standalone="no"?>
<!-- Created with Inkscape (http://www.inkscape.org/) -->

<svg
   xmlns:dc="http://purl.org/dc/elements/1.1/"
   xmlns:cc="http://creativecommons.org/ns#"
   xmlns:rdf="http://www.w3.org/1999/02/22-rdf-syntax-ns#"
   xmlns:svg="http://www.w3.org/2000/svg"
   xmlns="http://www.w3.org/2000/svg"
   xmlns:xlink="http://www.w3.org/1999/xlink"
   xmlns:sodipodi="http://sodipodi.sourceforge.net/DTD/sodipodi-0.dtd"
   xmlns:inkscape="http://www.inkscape.org/namespaces/inkscape"
   width="48"
   height="48"
   id="svg4230"
   version="1.1"
   inkscape:version="0.48.4 r9939"
   sodipodi:docname="google-music.svg">
  <defs
     id="defs4232">
    <linearGradient
       id="linearGradient3890">
      <stop
         style="stop-color:#ca3f08;stop-opacity:1;"
         offset="0"
         id="stop3892" />
      <stop
         style="stop-color:#f04b0a;stop-opacity:1;"
         offset="1"
         id="stop3894" />
    </linearGradient>
    <linearGradient
       id="linearGradient3874">
      <stop
         style="stop-color:#f67e22;stop-opacity:1;"
         offset="0"
         id="stop3876" />
      <stop
         style="stop-color:#e76809;stop-opacity:1;"
         offset="1"
         id="stop3878" />
    </linearGradient>
    <linearGradient
       id="linearGradient3858">
      <stop
         style="stop-color:#292929;stop-opacity:1;"
         offset="0"
         id="stop3860" />
      <stop
         style="stop-color:#3d3d3d;stop-opacity:1;"
         offset="1"
         id="stop3862" />
    </linearGradient>
    <linearGradient
       id="linearGradient4000">
      <stop
         style="stop-color:#eb6601;stop-opacity:1;"
         offset="0"
         id="stop4002" />
      <stop
         style="stop-color:#fe7a16;stop-opacity:1;"
         offset="1"
         id="stop4004" />
    </linearGradient>
    <linearGradient
       id="linearGradient3990">
      <stop
         style="stop-color:#292929;stop-opacity:1;"
         offset="0"
         id="stop3992" />
      <stop
         style="stop-color:#3d3d3d;stop-opacity:1;"
         offset="1"
         id="stop3994" />
    </linearGradient>
    <linearGradient
       id="linearGradient4524">
      <stop
         style="stop-color:#cc5013;stop-opacity:1;"
         offset="0"
         id="stop4526" />
      <stop
         style="stop-color:#e36527;stop-opacity:1;"
         offset="1"
         id="stop4528" />
    </linearGradient>
    <linearGradient
       id="linearGradient4512">
      <stop
         style="stop-color:#dfdfdf;stop-opacity:1;"
         offset="0"
         id="stop4514" />
      <stop
         style="stop-color:#f3f3f3;stop-opacity:1;"
         offset="1"
         id="stop4516" />
    </linearGradient>
    <linearGradient
       id="linearGradient4243">
      <stop
         style="stop-color:#000000;stop-opacity:1;"
         offset="0"
         id="stop4245" />
      <stop
         style="stop-color:#000000;stop-opacity:0;"
         offset="1"
         id="stop4247" />
    </linearGradient>
    <linearGradient
       id="linearGradient4216">
      <stop
         style="stop-color:#a0c4e6;stop-opacity:1;"
         offset="0"
         id="stop4218" />
      <stop
         style="stop-color:#d0e2f1;stop-opacity:1;"
         offset="1"
         id="stop4220" />
    </linearGradient>
    <linearGradient
       id="linearGradient4208">
      <stop
         style="stop-color:#70a3d6;stop-opacity:1;"
         offset="0"
         id="stop4210" />
      <stop
         style="stop-color:#88b6e1;stop-opacity:1;"
         offset="1"
         id="stop4212" />
    </linearGradient>
    <linearGradient
       id="linearGradient4200">
      <stop
         style="stop-color:#427dbe;stop-opacity:1;"
         offset="0"
         id="stop4202" />
      <stop
         style="stop-color:#739bd1;stop-opacity:1;"
         offset="1"
         id="stop4204" />
    </linearGradient>
    <linearGradient
       id="linearGradient4192">
      <stop
         style="stop-color:#4970a4;stop-opacity:1;"
         offset="0"
         id="stop4194" />
      <stop
         style="stop-color:#6090c0;stop-opacity:1;"
         offset="1"
         id="stop4196" />
    </linearGradient>
    <radialGradient
       inkscape:collect="always"
       xlink:href="#linearGradient3688-166-749-5-9-1"
       id="radialGradient4351"
       gradientUnits="userSpaceOnUse"
       gradientTransform="matrix(2.3201711,0,0,0.39999996,28.617836,28.600002)"
       cx="4.9929786"
       cy="43.5"
       fx="4.9929786"
       fy="43.5"
       r="2.5" />
    <linearGradient
       id="linearGradient3688-166-749-5-9-1">
      <stop
         id="stop2883-0-2-9"
         style="stop-color:#181818;stop-opacity:1"
         offset="0" />
      <stop
         id="stop2885-5-3-8"
         style="stop-color:#181818;stop-opacity:0"
         offset="1" />
    </linearGradient>
    <linearGradient
       id="linearGradient3688-464-309-8-9-4">
      <stop
         id="stop2889-9-9-1"
         style="stop-color:#181818;stop-opacity:1"
         offset="0" />
      <stop
         id="stop2891-4-2-9"
         style="stop-color:#181818;stop-opacity:0"
         offset="1" />
    </linearGradient>
    <linearGradient
       id="linearGradient3702-501-757-0-4-0">
      <stop
         id="stop2895-0-2-1"
         style="stop-color:#181818;stop-opacity:0"
         offset="0" />
      <stop
         id="stop2897-2-8-2"
         style="stop-color:#181818;stop-opacity:1"
         offset="0.5" />
      <stop
         id="stop2899-6-1-6"
         style="stop-color:#181818;stop-opacity:0"
         offset="1" />
    </linearGradient>
    <linearGradient
       id="linearGradient3811-3">
      <stop
         style="stop-color:#000000;stop-opacity:1;"
         offset="0"
         id="stop3813-0" />
      <stop
         style="stop-color:#000000;stop-opacity:0;"
         offset="1"
         id="stop3815-0" />
    </linearGradient>
    <clipPath
       id="clipPath-887332295">
      <g
         id="g3945"
         transform="translate(0,-1004.3622)">
        <rect
           id="rect3947"
           fill="#1890d0"
           width="46"
           height="46"
           x="1"
           y="1005.36"
           rx="4" />
      </g>
    </clipPath>
    <clipPath
       id="clipPath-867792831">
      <g
         id="g3940"
         transform="translate(0,-1004.3622)">
        <rect
           id="rect3942"
           fill="#1890d0"
           width="46"
           height="46"
           x="1"
           y="1005.36"
           rx="4" />
      </g>
    </clipPath>
    <linearGradient
       gradientTransform="translate(-47.997785,0.00221467)"
       gradientUnits="userSpaceOnUse"
       x2="47"
       x1="1"
       id="linearGradient3764">
      <stop
         id="stop3935"
         stop-opacity="1"
         stop-color="#e4e4e4" />
      <stop
         id="stop3937"
         stop-opacity="1"
         stop-color="#eee"
         offset="1" />
    </linearGradient>
    <radialGradient
       inkscape:collect="always"
       xlink:href="#linearGradient4243"
       id="radialGradient4274"
       gradientUnits="userSpaceOnUse"
       gradientTransform="matrix(1.0434782,0,0,0.1956518,-1.0434797,35.184809)"
       cx="24.000001"
       cy="42.499991"
       fx="24.000001"
       fy="42.499991"
       r="23" />
    <linearGradient
       inkscape:collect="always"
       xlink:href="#linearGradient4512"
       id="linearGradient4530"
       x1="24"
       y1="46"
       x2="24"
       y2="2"
       gradientUnits="userSpaceOnUse" />
    <linearGradient
       inkscape:collect="always"
       xlink:href="#linearGradient4512"
       id="linearGradient4554"
       gradientUnits="userSpaceOnUse"
       x1="12.5"
       y1="28.000042"
       x2="12.5"
       y2="17.000042" />
    <linearGradient
       inkscape:collect="always"
       xlink:href="#linearGradient4000"
       id="linearGradient4006"
       x1="24"
       y1="1040.3622"
       x2="24"
       y2="1012.3622"
       gradientUnits="userSpaceOnUse" />
    <linearGradient
       inkscape:collect="always"
       xlink:href="#linearGradient3858"
       id="linearGradient3864"
       x1="19"
       y1="36"
       x2="19"
       y2="24"
       gradientUnits="userSpaceOnUse" />
    <linearGradient
       inkscape:collect="always"
       xlink:href="#linearGradient3858"
       id="linearGradient3872"
       x1="29"
       y1="1040.3622"
       x2="29"
       y2="1028.3622"
       gradientUnits="userSpaceOnUse" />
    <radialGradient
       inkscape:collect="always"
       xlink:href="#linearGradient3874"
       id="radialGradient3880"
       cx="16"
       cy="30"
       fx="16"
       fy="30"
       r="3"
       gradientTransform="matrix(1,0,0,1.3333333,0,-10)"
       gradientUnits="userSpaceOnUse" />
    <radialGradient
       inkscape:collect="always"
       xlink:href="#linearGradient3874"
       id="radialGradient3888"
       cx="16"
       cy="30"
       fx="16"
       fy="30"
       r="3"
       gradientTransform="matrix(1,0,0,1.3333333,0,-10)"
       gradientUnits="userSpaceOnUse" />
    <linearGradient
       inkscape:collect="always"
       xlink:href="#linearGradient3890"
       id="linearGradient3896"
       x1="-528.57776"
       y1="864.29467"
       x2="-525.81667"
       y2="864.29467"
       gradientUnits="userSpaceOnUse" />
    <linearGradient
       inkscape:collect="always"
       xlink:href="#linearGradient3890"
       id="linearGradient3904"
       x1="-486.47296"
       y1="889.21069"
       x2="-483.71188"
       y2="889.21069"
       gradientUnits="userSpaceOnUse" />
    <linearGradient
       inkscape:collect="always"
       xlink:href="#linearGradient3890"
       id="linearGradient3912"
       x1="24"
       y1="1021.3622"
       x2="24"
       y2="1012.3622"
       gradientUnits="userSpaceOnUse" />
  </defs>
  <sodipodi:namedview
     id="base"
     pagecolor="#ffffff"
     bordercolor="#666666"
     borderopacity="1.0"
     inkscape:pageopacity="0.0"
     inkscape:pageshadow="2"
     inkscape:zoom="16.979167"
     inkscape:cx="33.423312"
     inkscape:cy="24"
     inkscape:document-units="px"
     inkscape:current-layer="layer1"
     showgrid="true"
     inkscape:showpageshadow="false"
     borderlayer="true"
     inkscape:window-width="1920"
     inkscape:window-height="1014"
     inkscape:window-x="0"
     inkscape:window-y="27"
     inkscape:window-maximized="1"
     showguides="false"
     inkscape:guide-bbox="true">
    <inkscape:grid
       type="xygrid"
       id="grid4162" />
    <sodipodi:guide
       position="1.0000013,47.000017"
       orientation="46,0"
       id="guide4163" />
    <sodipodi:guide
       position="1.0000013,1.0000174"
       orientation="0,45.999999"
       id="guide4165" />
    <sodipodi:guide
       position="47,1.0000174"
       orientation="-46,0"
       id="guide4167" />
    <sodipodi:guide
       position="47,47.000017"
       orientation="0,-45.999999"
       id="guide4169" />
    <sodipodi:guide
       position="2.0000007,46.000017"
       orientation="44,0"
       id="guide4173" />
    <sodipodi:guide
       position="2.0000007,2.0000174"
       orientation="0,43.999999"
       id="guide4175" />
    <sodipodi:guide
       position="46,2.0000174"
       orientation="-44,0"
       id="guide4177" />
    <sodipodi:guide
       position="46,46.000017"
       orientation="0,-43.999999"
       id="guide4179" />
    <sodipodi:guide
       position="3,45.000017"
       orientation="42,0"
       id="guide4183" />
    <sodipodi:guide
       position="45,3.0000174"
       orientation="-42,0"
       id="guide4187" />
    <sodipodi:guide
       position="45,45.000017"
       orientation="0,-42"
       id="guide4189" />
    <sodipodi:guide
       position="3,45.000017"
       orientation="42,0"
       id="guide4193" />
    <sodipodi:guide
       position="3,3.0000174"
       orientation="0,42"
       id="guide4195" />
    <sodipodi:guide
       position="45,3.0000174"
       orientation="-42,0"
       id="guide4197" />
    <sodipodi:guide
       position="45,45.000017"
       orientation="0,-42"
       id="guide4199" />
    <sodipodi:guide
       position="3,10.000017"
       orientation="7,0"
       id="guide4203" />
    <sodipodi:guide
       position="3,3.0000174"
       orientation="0,42"
       id="guide4205" />
    <sodipodi:guide
       position="45,3.0000174"
       orientation="-7,0"
       id="guide4207" />
    <sodipodi:guide
       position="45,10.000017"
       orientation="0,-42"
       id="guide4209" />
  </sodipodi:namedview>
  <metadata
     id="metadata4235">
    <rdf:RDF>
      <cc:Work
         rdf:about="">
        <dc:format>image/svg+xml</dc:format>
        <dc:type
           rdf:resource="http://purl.org/dc/dcmitype/StillImage" />
        <dc:title />
      </cc:Work>
    </rdf:RDF>
  </metadata>
  <g
     inkscape:groupmode="layer"
     id="layer3"
     inkscape:label="Fake blur shadow"
     style="display:inline"
     sodipodi:insensitive="true">
    <path
       style="opacity:0.06000001;fill:#000000;fill-opacity:1;stroke:none"
       d="M 10,1 C 5.014,1 1,5.014 1,10 l 0,28 c 0,4.986 4.014,9 9,9 l 28,0 c 4.986,0 9,-4.014 9,-9 L 47,10 C 47,5.014 42.986,1 38,1 L 10,1 z m 0.5,0.5 27,0 c 4.986,0 9,4.014 9,9 l 0,27 c 0,4.986 -4.014,9 -9,9 l -27,0 c -4.986,0 -9,-4.014 -9,-9 l 0,-27 c 0,-4.986 4.014,-9 9,-9 z"
       id="rect3829"
       inkscape:connector-curvature="0" />
    <path
       style="opacity:0.12000002;fill:#000000;fill-opacity:1;stroke:none"
       d="m 10.5,1.5 c -4.986,0 -9,4.014 -9,9 l 0,27 c 0,4.986 4.014,9 9,9 l 27,0 c 4.986,0 9,-4.014 9,-9 l 0,-27 c 0,-4.986 -4.014,-9 -9,-9 l -27,0 z m 0.25,0.25 26.5,0 c 4.986,0 9,4.014 9,9 l 0,26.5 c 0,4.986 -4.014,9 -9,9 l -26.5,0 c -4.986,0 -9,-4.014 -9,-9 l 0,-26.5 c 0,-4.986 4.014,-9 9,-9 z"
       id="rect3827"
       inkscape:connector-curvature="0" />
    <rect
       style="opacity:0.23999999;fill:#000000;fill-opacity:1;stroke:none"
       id="rect3038-4"
       width="44.5"
       height="44.5"
       x="1.75"
       y="1.75"
       ry="9"
       rx="9" />
  </g>
  <g
     inkscape:groupmode="layer"
     id="layer6"
     inkscape:label="Blob"
     style="display:inline"
     sodipodi:insensitive="true">
    <path
       style="opacity:0.3;fill:url(#radialGradient4274);fill-opacity:1;stroke:none"
       d="M 1.03125,39 C 1.5192036,43.518898 5.3471961,47 10,47 l 28,0 c 4.652804,0 8.480796,-3.481102 8.96875,-8 l -45.9375,0 z"
       id="rect4241"
       inkscape:connector-curvature="0" />
  </g>
  <g
     inkscape:groupmode="layer"
     id="layer2"
     inkscape:label="Baseplate"
     style="display:inline">
    <rect
       style="fill:url(#linearGradient4530);fill-opacity:1.0;stroke:none"
       id="rect3038"
       width="44"
       height="44"
       x="2"
       y="1.9999826"
       ry="9"
       rx="9" />
  </g>
  <g
     inkscape:label="Symbol"
     inkscape:groupmode="layer"
     id="layer1"
     transform="translate(0,-1004.3622)"
     style="display:inline">
    <path
       id="path3998"
       d="m 23.847306,1013.4247 c -3.781249,0.087 -8.116257,1.7201 -12.40625,6.25 l 0.90625,0.875 c -1.493273,3.0901 -1.512486,5.7131 -1.125,7.5625 0.0524,0.2501 0.123332,0.4645 0.1875,0.6875 -0.416063,0.4225 -0.543948,1.0895 -0.25,1.625 l 2.03125,3.6875 c -0.113323,0.3936 -0.1875,0.813 -0.1875,1.25 0,2.029 1.318056,3.6776 3.03125,3.9375 0.162093,1.1698 1.159183,2.0625 2.375,2.0625 l 1.1875,0 c 1.3296,0 2.40625,-1.0766 2.40625,-2.4062 l 0,-7.1875 c 0,-1.3297 -1.07665,-2.4063 -2.40625,-2.4063 l -1.1875,0 c -1.215817,0 -2.212907,0.8927 -2.375,2.0625 -0.36592,0.055 -0.710104,0.1694 -1.03125,0.3438 l -1.53125,-2.75 c -0.207227,-0.3775 -0.547954,-0.6146 -0.9375,-0.6563 -0.04515,-0.1672 -0.08585,-0.3132 -0.125,-0.5 -0.328145,-1.5661 -0.35369,-3.7597 0.875,-6.4687 l 0.46875,0.4687 c 5.868022,-6.1961 10.619427,-5.9867 14.3125,-4.5312 3.693073,1.4552 6.09375,4.4062 6.09375,4.4062 l 0.46875,-0.375 c 1.332446,2.8109 1.305684,5.1106 0.96875,6.7188 -0.02187,0.1043 -0.03857,0.1831 -0.0625,0.2812 -0.412511,0.024 -0.782043,0.2592 -1,0.6563 l -1.53125,2.75 c -0.321146,-0.1744 -0.66533,-0.2883 -1.03125,-0.3438 -0.162093,-1.1698 -1.159183,-2.0625 -2.375,-2.0625 l -1.1875,0 c -1.3296,0 -2.40625,1.0766 -2.40625,2.4063 l 0,7.1875 c 0,1.3296 1.07665,2.4062 2.40625,2.4062 l 1.1875,0 c 1.215817,0 2.212907,-0.8927 2.375,-2.0625 1.713194,-0.2599 3.03125,-1.9085 3.03125,-3.9375 0,-0.437 -0.07418,-0.8564 -0.1875,-1.25 l 2.03125,-3.6875 c 0.286879,-0.5226 0.172949,-1.1703 -0.21875,-1.5937 0.04645,-0.1723 0.116857,-0.312 0.15625,-0.5 0.390187,-1.8623 0.368184,-4.5381 -1.15625,-7.6563 a 0.60006002,0.60006002 0 0 0 -0.03125,-0.062 l 1.0625,-0.8437 c 0,0 -2.789769,-3.587 -7.40625,-5.4063 -1.15412,-0.4548 -2.438134,-0.7785 -3.8125,-0.9062 -0.515387,-0.048 -1.053572,-0.044 -1.59375,-0.031 z"
       style="opacity:0.15;fill:#000000;fill-opacity:1;stroke:none"
       inkscape:connector-curvature="0" />
    <path
       style="fill:url(#linearGradient4006);fill-opacity:1;stroke:none"
       d="m 23.847306,1012.4247 c -3.781249,0.087 -8.116257,1.7201 -12.40625,6.25 l 0.90625,0.875 c -1.493273,3.0901 -1.512486,5.7131 -1.125,7.5625 0.0524,0.2501 0.123332,0.4645 0.1875,0.6875 -0.416063,0.4225 -0.543948,1.0895 -0.25,1.625 l 2.03125,3.6875 c -0.113323,0.3936 -0.1875,0.813 -0.1875,1.25 0,2.029 1.318056,3.6776 3.03125,3.9375 0.162093,1.1698 1.159183,2.0625 2.375,2.0625 l 1.1875,0 c 1.3296,0 2.40625,-1.0766 2.40625,-2.4062 l 0,-7.1875 c 0,-1.3297 -1.07665,-2.4063 -2.40625,-2.4063 l -1.1875,0 c -1.215817,0 -2.212907,0.8927 -2.375,2.0625 -0.36592,0.055 -0.710104,0.1694 -1.03125,0.3438 l -1.53125,-2.75 c -0.207227,-0.3775 -0.547954,-0.6146 -0.9375,-0.6563 -0.04515,-0.1672 -0.08585,-0.3132 -0.125,-0.5 -0.328145,-1.5661 -0.35369,-3.7597 0.875,-6.4687 l 0.46875,0.4687 c 5.868022,-6.1961 10.619427,-5.9867 14.3125,-4.5312 3.693073,1.4552 6.09375,4.4062 6.09375,4.4062 l 0.46875,-0.375 c 1.332446,2.8109 1.305684,5.1106 0.96875,6.7188 -0.02187,0.1043 -0.03857,0.1831 -0.0625,0.2812 -0.412511,0.024 -0.782043,0.2592 -1,0.6563 l -1.53125,2.75 c -0.321146,-0.1744 -0.66533,-0.2883 -1.03125,-0.3438 -0.162093,-1.1698 -1.159183,-2.0625 -2.375,-2.0625 l -1.1875,0 c -1.3296,0 -2.40625,1.0766 -2.40625,2.4063 l 0,7.1875 c 0,1.3296 1.07665,2.4062 2.40625,2.4062 l 1.1875,0 c 1.215817,0 2.212907,-0.8927 2.375,-2.0625 1.713194,-0.2599 3.03125,-1.9085 3.03125,-3.9375 0,-0.437 -0.07418,-0.8564 -0.1875,-1.25 l 2.03125,-3.6875 c 0.286879,-0.5226 0.172949,-1.1703 -0.21875,-1.5937 0.04645,-0.1723 0.116857,-0.312 0.15625,-0.5 0.390187,-1.8623 0.368184,-4.5381 -1.15625,-7.6563 a 0.60006002,0.60006002 0 0 0 -0.03125,-0.062 l 1.0625,-0.8437 c 0,0 -2.789769,-3.587 -7.40625,-5.4063 -1.15412,-0.4548 -2.438134,-0.7785 -3.8125,-0.9062 -0.515387,-0.048 -1.053572,-0.044 -1.59375,-0.031 z"
       id="rect3878" />
    <path
       style="fill:none;stroke:url(#linearGradient3912);stroke-width:3.18874145000000020;stroke-linecap:butt;stroke-linejoin:miter;stroke-miterlimit:4;stroke-opacity:1;stroke-dasharray:none"
       d="m 12.594371,1019.7678 c 0,0 11.405629,-13.0753 22.811259,0"
       id="path3076"
       inkscape:connector-curvature="0"
       sodipodi:nodetypes="cc" />
    <rect
       transform="matrix(-0.85501041,-0.51861083,-0.4816171,0.87638175,0,0)"
       ry="1.4150116"
       rx="1.3805468"
       y="860.5213"
       x="-528.57776"
       height="7.5467291"
       width="2.7610936"
       id="rect3852"
       style="fill:url(#linearGradient3896);fill-opacity:1;fill-rule:evenodd;stroke:none" />
    <path
       transform="translate(16,1004.3622)"
       d="m 19,30 a 3,4 0 1 1 -6,0 3,4 0 1 1 6,0 z"
       sodipodi:ry="4"
       sodipodi:rx="3"
       sodipodi:cy="30"
       sodipodi:cx="16"
       id="path3856"
       style="fill:url(#radialGradient3880);fill-opacity:1;fill-rule:evenodd;stroke:none"
       sodipodi:type="arc" />
    <rect
       ry="2"
       rx="2"
       y="1028.3622"
       x="26"
       height="12"
       width="6"
       id="rect3848"
       style="fill:url(#linearGradient3872);fill-opacity:1;fill-rule:evenodd;stroke:none" />
    <rect
       style="fill:url(#linearGradient3904);fill-opacity:1.0;fill-rule:evenodd;stroke:none"
       id="rect3850"
       width="2.7610936"
       height="7.5467291"
       x="-486.47296"
       y="885.43732"
       rx="1.3805468"
       ry="1.4150116"
       transform="matrix(0.85501041,-0.51861083,0.4816171,0.87638175,0,0)" />
    <path
       sodipodi:type="arc"
       style="fill:url(#radialGradient3888);fill-opacity:1.0;fill-rule:evenodd;stroke:none"
       id="path3854"
       sodipodi:cx="16"
       sodipodi:cy="30"
       sodipodi:rx="3"
       sodipodi:ry="4"
       d="m 19,30 a 3,4 0 1 1 -6,0 3,4 0 1 1 6,0 z"
       transform="translate(0,1004.3622)" />
    <rect
       style="fill:url(#linearGradient3864);fill-opacity:1;fill-rule:evenodd;stroke:none"
       id="rect3846"
       width="6"
       height="12"
       x="16"
       y="24"
       rx="2"
       ry="2"
       transform="translate(0,1004.3622)" />
  </g>
  <g
     inkscape:groupmode="layer"
     id="layer4"
     inkscape:label="Inset"
     sodipodi:insensitive="true"
     style="display:inline">
    <path
       style="opacity:0.15;fill:#000000;fill-opacity:1;stroke:none"
       d="m 2,34 0,3 c 0,4.986 4.014,9 9,9 l 26,0 c 4.986,0 9,-4.014 9,-9 l 0,-3 c 0,4.986 -4.014,9 -9,9 L 11,43 C 6.014,43 2,38.986 2,34 z"
       id="rect3038-42"
       inkscape:connector-curvature="0" />
  </g>
  <g
     inkscape:groupmode="layer"
     id="layer7"
     inkscape:label="Baseshape"
     sodipodi:insensitive="true"
     style="display:none">
    <rect
       rx="9"
       ry="9"
       y="2"
       x="2"
       height="44"
       width="44"
       id="rect4169"
       style="fill:#abe1ad;fill-opacity:1;stroke:none;display:inline" />
  </g>
</svg>
