<?xml version="1.0" encoding="UTF-8" standalone="no"?>
<!-- Created with Inkscape (http://www.inkscape.org/) -->

<svg
   xmlns:dc="http://purl.org/dc/elements/1.1/"
   xmlns:cc="http://creativecommons.org/ns#"
   xmlns:rdf="http://www.w3.org/1999/02/22-rdf-syntax-ns#"
   xmlns:svg="http://www.w3.org/2000/svg"
   xmlns="http://www.w3.org/2000/svg"
   xmlns:xlink="http://www.w3.org/1999/xlink"
   xmlns:sodipodi="http://sodipodi.sourceforge.net/DTD/sodipodi-0.dtd"
   xmlns:inkscape="http://www.inkscape.org/namespaces/inkscape"
   width="48"
   height="48"
   id="svg4230"
   version="1.1"
   inkscape:version="0.48.5 r10040"
   sodipodi:docname="gŭgŭl-muzika.svg"
   inkscape:export-filename="/home/webdesign/Downloads/ozon icons/texteditor.png"
   inkscape:export-xdpi="960"
   inkscape:export-ydpi="960">
  <defs
     id="defs4232">
    <linearGradient
       inkscape:collect="always"
       id="linearGradient4113">
      <stop
         style="stop-color:#000000;stop-opacity:1;"
         offset="0"
         id="stop4115" />
      <stop
         style="stop-color:#000000;stop-opacity:0;"
         offset="1"
         id="stop4117" />
    </linearGradient>
    <linearGradient
       id="linearGradient4010">
      <stop
         style="stop-color:#4c3549;stop-opacity:1;"
         offset="0"
         id="stop4012" />
      <stop
         style="stop-color:#4c3549;stop-opacity:1;"
         offset="1"
         id="stop4014" />
    </linearGradient>
    <linearGradient
       id="linearGradient3955">
      <stop
         id="stop3957"
         offset="0"
         style="stop-color:#1c0f18;stop-opacity:1;" />
      <stop
         id="stop3959"
         offset="1"
         style="stop-color:#21111b;stop-opacity:1;" />
    </linearGradient>
    <linearGradient
       id="linearGradient3943">
      <stop
         style="stop-color:#c91822;stop-opacity:1;"
         offset="0"
         id="stop3945" />
      <stop
         style="stop-color:#f33040;stop-opacity:1;"
         offset="1"
         id="stop3947" />
    </linearGradient>
    <linearGradient
       id="linearGradient3874">
      <stop
         style="stop-color:#ea508d;stop-opacity:1;"
         offset="0"
         id="stop3876" />
      <stop
         style="stop-color:#e66296;stop-opacity:1;"
         offset="1"
         id="stop3878" />
    </linearGradient>
    <linearGradient
       id="linearGradient4026">
      <stop
         style="stop-color:#f1f1e9;stop-opacity:1;"
         offset="0"
         id="stop4028" />
      <stop
         style="stop-color:#f5f5ea;stop-opacity:1;"
         offset="1"
         id="stop4030" />
    </linearGradient>
    <linearGradient
       id="linearGradient4243">
      <stop
         style="stop-color:#000000;stop-opacity:1;"
         offset="0"
         id="stop4245" />
      <stop
         style="stop-color:#000000;stop-opacity:0;"
         offset="1"
         id="stop4247" />
    </linearGradient>
    <linearGradient
       id="linearGradient4216">
      <stop
         style="stop-color:#a0c4e6;stop-opacity:1;"
         offset="0"
         id="stop4218" />
      <stop
         style="stop-color:#d0e2f1;stop-opacity:1;"
         offset="1"
         id="stop4220" />
    </linearGradient>
    <linearGradient
       id="linearGradient4208">
      <stop
         style="stop-color:#70a3d6;stop-opacity:1;"
         offset="0"
         id="stop4210" />
      <stop
         style="stop-color:#88b6e1;stop-opacity:1;"
         offset="1"
         id="stop4212" />
    </linearGradient>
    <linearGradient
       id="linearGradient4200">
      <stop
         style="stop-color:#427dbe;stop-opacity:1;"
         offset="0"
         id="stop4202" />
      <stop
         style="stop-color:#739bd1;stop-opacity:1;"
         offset="1"
         id="stop4204" />
    </linearGradient>
    <linearGradient
       id="linearGradient4192">
      <stop
         style="stop-color:#4970a4;stop-opacity:1;"
         offset="0"
         id="stop4194" />
      <stop
         style="stop-color:#6090c0;stop-opacity:1;"
         offset="1"
         id="stop4196" />
    </linearGradient>
    <radialGradient
       inkscape:collect="always"
       xlink:href="#linearGradient3688-166-749-5-9-1"
       id="radialGradient4351"
       gradientUnits="userSpaceOnUse"
       gradientTransform="matrix(2.3201711,0,0,0.39999996,28.617836,28.600002)"
       cx="4.9929786"
       cy="43.5"
       fx="4.9929786"
       fy="43.5"
       r="2.5" />
    <linearGradient
       id="linearGradient3688-166-749-5-9-1">
      <stop
         id="stop2883-0-2-9"
         style="stop-color:#181818;stop-opacity:1"
         offset="0" />
      <stop
         id="stop2885-5-3-8"
         style="stop-color:#181818;stop-opacity:0"
         offset="1" />
    </linearGradient>
    <linearGradient
       id="linearGradient3688-464-309-8-9-4">
      <stop
         id="stop2889-9-9-1"
         style="stop-color:#181818;stop-opacity:1"
         offset="0" />
      <stop
         id="stop2891-4-2-9"
         style="stop-color:#181818;stop-opacity:0"
         offset="1" />
    </linearGradient>
    <linearGradient
       id="linearGradient3702-501-757-0-4-0">
      <stop
         id="stop2895-0-2-1"
         style="stop-color:#181818;stop-opacity:0"
         offset="0" />
      <stop
         id="stop2897-2-8-2"
         style="stop-color:#181818;stop-opacity:1"
         offset="0.5" />
      <stop
         id="stop2899-6-1-6"
         style="stop-color:#181818;stop-opacity:0"
         offset="1" />
    </linearGradient>
    <linearGradient
       id="linearGradient3811-3">
      <stop
         style="stop-color:#000000;stop-opacity:1;"
         offset="0"
         id="stop3813-0" />
      <stop
         style="stop-color:#000000;stop-opacity:0;"
         offset="1"
         id="stop3815-0" />
    </linearGradient>
    <clipPath
       id="clipPath-887332295">
      <g
         id="g3945"
         transform="translate(0,-1004.3622)">
        <rect
           id="rect3947"
           fill="#1890d0"
           width="46"
           height="46"
           x="1"
           y="1005.36"
           rx="4" />
      </g>
    </clipPath>
    <clipPath
       id="clipPath-867792831">
      <g
         id="g3940"
         transform="translate(0,-1004.3622)">
        <rect
           id="rect3942"
           fill="#1890d0"
           width="46"
           height="46"
           x="1"
           y="1005.36"
           rx="4" />
      </g>
    </clipPath>
    <linearGradient
       gradientTransform="translate(-47.997785,0.00221467)"
       gradientUnits="userSpaceOnUse"
       x2="47"
       x1="1"
       id="linearGradient3764">
      <stop
         id="stop3935"
         stop-opacity="1"
         stop-color="#e4e4e4" />
      <stop
         id="stop3937"
         stop-opacity="1"
         stop-color="#eee"
         offset="1" />
    </linearGradient>
    <radialGradient
       inkscape:collect="always"
       xlink:href="#linearGradient4243"
       id="radialGradient4274"
       gradientUnits="userSpaceOnUse"
       gradientTransform="matrix(1.0434782,0,0,0.1956518,-1.0434797,35.184809)"
       cx="24.000001"
       cy="42.499991"
       fx="24.000001"
       fy="42.499991"
       r="23" />
    <linearGradient
       inkscape:collect="always"
       xlink:href="#linearGradient4026"
       id="linearGradient4032"
       x1="-41.197594"
       y1="1042.7213"
       x2="-41.197594"
       y2="1002.0031"
       gradientUnits="userSpaceOnUse" />
    <linearGradient
       inkscape:collect="always"
       xlink:href="#linearGradient4026"
       id="linearGradient4078"
       gradientUnits="userSpaceOnUse"
       x1="-41.197594"
       y1="1042.7213"
       x2="-41.197594"
       y2="1002.0031" />
    <linearGradient
       inkscape:collect="always"
       xlink:href="#linearGradient4026"
       id="linearGradient4114"
       gradientUnits="userSpaceOnUse"
       x1="-41.197594"
       y1="1042.7213"
       x2="-41.197594"
       y2="1002.0031" />
    <linearGradient
       inkscape:collect="always"
       xlink:href="#linearGradient4026"
       id="linearGradient4150"
       gradientUnits="userSpaceOnUse"
       x1="-41.197594"
       y1="1042.7213"
       x2="-41.197594"
       y2="1002.0031" />
    <linearGradient
       inkscape:collect="always"
       xlink:href="#linearGradient3068"
       id="linearGradient3880"
       x1="26"
       y1="46"
       x2="26"
       y2="2"
       gradientUnits="userSpaceOnUse" />
    <linearGradient
       y2="-7.7778559"
       x2="78.210526"
       y1="33.777702"
       x1="78.210526"
       gradientTransform="matrix(0.86363632,0,0,0.81818178,-42.545451,1012.7259)"
       gradientUnits="userSpaceOnUse"
       id="linearGradient3084"
       xlink:href="#linearGradient3068"
       inkscape:collect="always" />
    <linearGradient
       id="linearGradient3068">
      <stop
         style="stop-color:#e4dde4;stop-opacity:1;"
         offset="0"
         id="stop3070" />
      <stop
         style="stop-color:#faf6f7;stop-opacity:1;"
         offset="1"
         id="stop3072" />
    </linearGradient>
    <linearGradient
       inkscape:collect="always"
       xlink:href="#linearGradient3943"
       id="linearGradient3949"
       x1="-3.999999"
       y1="38"
       x2="-3.999999"
       y2="19"
       gradientUnits="userSpaceOnUse" />
    <linearGradient
       inkscape:collect="always"
       xlink:href="#linearGradient3955"
       id="linearGradient3953"
       gradientUnits="userSpaceOnUse"
       x1="-3.999999"
       y1="38"
       x2="-3.999999"
       y2="19" />
    <linearGradient
       inkscape:collect="always"
       xlink:href="#linearGradient4010"
       id="linearGradient4016"
       x1="24"
       y1="23"
       x2="24"
       y2="37"
       gradientUnits="userSpaceOnUse"
       gradientTransform="translate(0,1004.3622)" />
    <linearGradient
       inkscape:collect="always"
       xlink:href="#linearGradient4010"
       id="linearGradient4024"
       x1="24"
       y1="23"
       x2="38"
       y2="23"
       gradientUnits="userSpaceOnUse"
       gradientTransform="translate(0,1004.3622)" />
    <linearGradient
       inkscape:collect="always"
       xlink:href="#linearGradient4010"
       id="linearGradient4033"
       x1="24"
       y1="23"
       x2="24"
       y2="9"
       gradientUnits="userSpaceOnUse"
       gradientTransform="translate(0,1004.3622)" />
    <linearGradient
       inkscape:collect="always"
       xlink:href="#linearGradient4010"
       id="linearGradient4041"
       x1="24"
       y1="23"
       x2="10"
       y2="23"
       gradientUnits="userSpaceOnUse"
       gradientTransform="translate(0,1004.3622)" />
    <radialGradient
       inkscape:collect="always"
       xlink:href="#linearGradient4113"
       id="radialGradient4119"
       cx="-4"
       cy="28.5"
       fx="-4"
       fy="28.5"
       r="18"
       gradientTransform="matrix(1,0,0,0.52777778,0,13.458333)"
       gradientUnits="userSpaceOnUse" />
  </defs>
  <sodipodi:namedview
     id="base"
     pagecolor="#ffffff"
     bordercolor="#666666"
     borderopacity="1.0"
     inkscape:pageopacity="0.0"
     inkscape:pageshadow="2"
     inkscape:zoom="26.286989"
     inkscape:cx="9.8511905"
     inkscape:cy="20.693164"
     inkscape:document-units="px"
     inkscape:current-layer="layer1"
     showgrid="true"
     inkscape:showpageshadow="false"
     borderlayer="true"
     inkscape:window-width="1920"
     inkscape:window-height="1023"
     inkscape:window-x="0"
     inkscape:window-y="28"
     inkscape:window-maximized="1"
     showguides="false">
    <inkscape:grid
       type="xygrid"
       id="grid4162" />
    <sodipodi:guide
       position="1.0000013,47.000017"
       orientation="46,0"
       id="guide4163" />
    <sodipodi:guide
       position="1.0000013,1.0000174"
       orientation="0,45.999999"
       id="guide4165" />
    <sodipodi:guide
       position="47,1.0000174"
       orientation="-46,0"
       id="guide4167" />
    <sodipodi:guide
       position="47,47.000017"
       orientation="0,-45.999999"
       id="guide4169" />
    <sodipodi:guide
       position="2.0000007,46.000017"
       orientation="44,0"
       id="guide4173" />
    <sodipodi:guide
       position="2.0000007,2.0000174"
       orientation="0,43.999999"
       id="guide4175" />
    <sodipodi:guide
       position="46,2.0000174"
       orientation="-44,0"
       id="guide4177" />
    <sodipodi:guide
       position="46,46.000017"
       orientation="0,-43.999999"
       id="guide4179" />
    <sodipodi:guide
       position="3,45.000017"
       orientation="42,0"
       id="guide4183" />
    <sodipodi:guide
       position="45,3.0000174"
       orientation="-42,0"
       id="guide4187" />
    <sodipodi:guide
       position="45,45.000017"
       orientation="0,-42"
       id="guide4189" />
    <sodipodi:guide
       position="3,45.000017"
       orientation="42,0"
       id="guide4193" />
    <sodipodi:guide
       position="3,3.0000174"
       orientation="0,42"
       id="guide4195" />
    <sodipodi:guide
       position="45,3.0000174"
       orientation="-42,0"
       id="guide4197" />
    <sodipodi:guide
       position="45,45.000017"
       orientation="0,-42"
       id="guide4199" />
    <sodipodi:guide
       position="3,10.000017"
       orientation="7,0"
       id="guide4203" />
    <sodipodi:guide
       position="3,3.0000174"
       orientation="0,42"
       id="guide4205" />
    <sodipodi:guide
       position="45,3.0000174"
       orientation="-7,0"
       id="guide4207" />
    <sodipodi:guide
       position="45,10.000017"
       orientation="0,-42"
       id="guide4209" />
  </sodipodi:namedview>
  <metadata
     id="metadata4235">
    <rdf:RDF>
      <cc:Work
         rdf:about="">
        <dc:format>image/svg+xml</dc:format>
        <dc:type
           rdf:resource="http://purl.org/dc/dcmitype/StillImage" />
        <dc:title />
      </cc:Work>
    </rdf:RDF>
  </metadata>
  <g
     inkscape:groupmode="layer"
     id="layer3"
     inkscape:label="Fake blur shadow"
     style="display:inline"
     sodipodi:insensitive="true">
    <path
       style="opacity:0.06000001;fill:#000000;fill-opacity:1;stroke:none"
       d="M 10,1 C 5.014,1 1,5.014 1,10 l 0,28 c 0,4.986 4.014,9 9,9 l 28,0 c 4.986,0 9,-4.014 9,-9 L 47,10 C 47,5.014 42.986,1 38,1 L 10,1 z m 0.5,0.5 27,0 c 4.986,0 9,4.014 9,9 l 0,27 c 0,4.986 -4.014,9 -9,9 l -27,0 c -4.986,0 -9,-4.014 -9,-9 l 0,-27 c 0,-4.986 4.014,-9 9,-9 z"
       id="rect3829"
       inkscape:connector-curvature="0" />
    <path
       style="opacity:0.12000002;fill:#000000;fill-opacity:1;stroke:none"
       d="m 10.5,1.5 c -4.986,0 -9,4.014 -9,9 l 0,27 c 0,4.986 4.014,9 9,9 l 27,0 c 4.986,0 9,-4.014 9,-9 l 0,-27 c 0,-4.986 -4.014,-9 -9,-9 l -27,0 z m 0.25,0.25 26.5,0 c 4.986,0 9,4.014 9,9 l 0,26.5 c 0,4.986 -4.014,9 -9,9 l -26.5,0 c -4.986,0 -9,-4.014 -9,-9 l 0,-26.5 c 0,-4.986 4.014,-9 9,-9 z"
       id="rect3827"
       inkscape:connector-curvature="0" />
    <rect
       style="opacity:0.23999999;fill:#000000;fill-opacity:1;stroke:none"
       id="rect3038-4"
       width="44.5"
       height="44.5"
       x="1.75"
       y="1.75"
       ry="9"
       rx="9" />
  </g>
  <g
     inkscape:groupmode="layer"
     id="layer6"
     inkscape:label="Blob"
     style="display:inline"
     sodipodi:insensitive="true">
    <path
       style="opacity:0.3;fill:url(#radialGradient4274);fill-opacity:1;stroke:none"
       d="M 1.03125,39 C 1.5192036,43.518898 5.3471961,47 10,47 l 28,0 c 4.652804,0 8.480796,-3.481102 8.96875,-8 l -45.9375,0 z"
       id="rect4241"
       inkscape:connector-curvature="0" />
  </g>
  <g
     inkscape:groupmode="layer"
     id="layer2"
     inkscape:label="Baseplate"
     style="display:inline">
    <rect
       style="fill:url(#linearGradient3880);fill-opacity:1;stroke:none"
       id="rect3038"
       width="44"
       height="44"
       x="2"
       y="1.9999826"
       ry="9"
       rx="9" />
  </g>
  <g
     inkscape:label="Symbol"
     inkscape:groupmode="layer"
     id="layer1"
     transform="translate(0,-1004.3622)"
     style="display:inline">
    <path
       sodipodi:type="arc"
       style="fill:url(#radialGradient4119);fill-opacity:1;stroke:none;opacity:0.5"
       id="path3101"
       sodipodi:cx="-4"
       sodipodi:cy="28.5"
       sodipodi:rx="18"
       sodipodi:ry="9.5"
       d="m 14,28.5 c 0,5.246705 -8.0588745,9.5 -18,9.5 -9.941125,0 -18,-4.253295 -18,-9.5 0,-5.246705 8.058875,-9.5 18,-9.5 9.9411255,0 18,4.253295 18,9.5 z"
       transform="matrix(0.94444444,0,0,1.7894738,27.777778,976.3622)" />
    <path
       transform="matrix(0.94444444,0,0,1.7894738,27.777778,976.3622)"
       d="m 14,28.5 c 0,5.246705 -8.0588745,9.5 -18,9.5 -9.941125,0 -18,-4.253295 -18,-9.5 0,-5.246705 8.058875,-9.5 18,-9.5 9.9411255,0 18,4.253295 18,9.5 z"
       sodipodi:ry="9.5"
       sodipodi:rx="18"
       sodipodi:cy="28.5"
       sodipodi:cx="-4"
       id="path4125"
       style="fill:url(#radialGradient4119);fill-opacity:1;stroke:none"
       sodipodi:type="arc" />
    <path
       transform="matrix(0.83333333,0,0,1.5789474,27.333333,982.3622)"
       d="m 14,28.5 c 0,5.246705 -8.0588745,9.5 -18,9.5 -9.941125,0 -18,-4.253295 -18,-9.5 0,-5.246705 8.058875,-9.5 18,-9.5 9.9411255,0 18,4.253295 18,9.5 z"
       sodipodi:ry="9.5"
       sodipodi:rx="18"
       sodipodi:cy="28.5"
       sodipodi:cx="-4"
       id="path4089"
       style="fill:#e7d5e5;fill-opacity:1;stroke:none"
       sodipodi:type="arc" />
    <path
       sodipodi:type="arc"
       style="fill:#241623;fill-opacity:1;stroke:none"
       id="path3935"
       sodipodi:cx="-4"
       sodipodi:cy="28.5"
       sodipodi:rx="18"
       sodipodi:ry="9.5"
       d="m 14,28.5 c 0,5.246705 -8.0588745,9.5 -18,9.5 -9.941125,0 -18,-4.253295 -18,-9.5 0,-5.246705 8.058875,-9.5 18,-9.5 9.9411255,0 18,4.253295 18,9.5 z"
       transform="matrix(0.77777778,0,0,1.4736842,27.111111,985.3622)" />
    <path
       sodipodi:type="arc"
       style="fill:url(#linearGradient3953);fill-opacity:1.0;stroke:none"
       id="path3951"
       sodipodi:cx="-4"
       sodipodi:cy="28.5"
       sodipodi:rx="18"
       sodipodi:ry="9.5"
       d="m 14,28.5 c 0,5.246705 -8.0588745,9.5 -18,9.5 -9.941125,0 -18,-4.253295 -18,-9.5 0,-5.246705 8.058875,-9.5 18,-9.5 9.9411255,0 18,4.253295 18,9.5 z"
       transform="matrix(0.38888889,0,0,0.7368421,25.555556,1006.3622)" />
    <path
       sodipodi:type="arc"
       style="opacity:0.6;fill:none;stroke:#a797a5;stroke-width:0.29933259000000001;stroke-miterlimit:4;stroke-opacity:1;stroke-dasharray:none"
       id="path4083"
       sodipodi:cx="8.5"
       sodipodi:cy="23"
       sodipodi:rx="3.5"
       sodipodi:ry="4"
       d="m 12,23 c 0,2.209139 -1.567003,4 -3.5,4 C 6.5670034,27 5,25.209139 5,23 c 0,-2.209139 1.5670034,-4 3.5,-4 1.932997,0 3.5,1.790861 3.5,4 z"
       transform="matrix(3.5714286,0,0,3.125,-6.3571431,955.4872)" />
    <path
       transform="matrix(3,0,0,2.625,-1.5,966.9872)"
       d="m 12,23 c 0,2.209139 -1.567003,4 -3.5,4 C 6.5670034,27 5,25.209139 5,23 c 0,-2.209139 1.5670034,-4 3.5,-4 1.932997,0 3.5,1.790861 3.5,4 z"
       sodipodi:ry="4"
       sodipodi:rx="3.5"
       sodipodi:cy="23"
       sodipodi:cx="8.5"
       id="path4085"
       style="opacity:0.6;fill:none;stroke:#a797a5;stroke-width:0.35634831000000000;stroke-miterlimit:4;stroke-opacity:1;stroke-dasharray:none"
       sodipodi:type="arc" />
    <path
       sodipodi:type="arc"
       style="opacity:0.6;fill:none;stroke:#a797a5;stroke-width:0.44019499000000001;stroke-miterlimit:4;stroke-opacity:1;stroke-dasharray:none"
       id="path4087"
       sodipodi:cx="8.5"
       sodipodi:cy="23"
       sodipodi:rx="3.5"
       sodipodi:ry="4"
       d="m 12,23 c 0,2.209139 -1.567003,4 -3.5,4 C 6.5670034,27 5,25.209139 5,23 c 0,-2.209139 1.5670034,-4 3.5,-4 1.932997,0 3.5,1.790861 3.5,4 z"
       transform="matrix(2.4285714,0,0,2.125,3.357143,978.4872)" />
    <path
       style="opacity:0.42;fill:url(#linearGradient4016);fill-opacity:1;stroke:none"
       d="m 24,1027.3622 c -4,4 -6,8 -5.90625,12.6875 1.7967,0.8386 3.79262,1.3125 5.90625,1.3125 2.381992,0 4.630101,-0.607 6.59375,-1.6562 C 30,1035.3622 28,1031.3622 24,1027.3622 z"
       id="path3982"
       inkscape:connector-curvature="0"
       sodipodi:nodetypes="ccscc" />
    <path
       style="opacity:0.42;fill:url(#linearGradient4024);fill-opacity:1;stroke:none"
       d="M 36.6875,1021.456 C 32,1021.3622 28,1023.3622 24,1027.3622 c 4,4 8,7 12.34375,6.5938 1.049297,-1.9637 1.65625,-4.2118 1.65625,-6.5938 0,-2.1136 -0.473859,-4.1095 -1.3125,-5.9062 z"
       id="path3986"
       inkscape:connector-curvature="0"
       sodipodi:nodetypes="cccsc" />
    <path
       style="opacity:0.42;fill:url(#linearGradient4033);fill-opacity:1;stroke:none"
       d="m 24,1013.3622 c -2.11363,0 -4.10955,0.4739 -5.90625,1.3125 C 18,1019.3622 20,1023.3622 24,1027.3622 c 4,-4 7,-8 6.59375,-12.3437 -1.963649,-1.0493 -4.211758,-1.6563 -6.59375,-1.6563 z"
       id="path3984"
       inkscape:connector-curvature="0"
       sodipodi:nodetypes="scccs" />
    <path
       style="opacity:0.42;fill:url(#linearGradient4041);fill-opacity:1;stroke:none"
       d="m 11.3125,1021.456 c -0.838641,1.7967 -1.3125,3.7926 -1.3125,5.9062 0,2.382 0.606953,4.6301 1.65625,6.5938 C 16,1033.3622 20,1031.3622 24,1027.3622 c -4,-4 -8,-6 -12.6875,-5.9062 z"
       id="path3988"
       inkscape:connector-curvature="0"
       sodipodi:nodetypes="csccc" />
    <path
       transform="matrix(0.33333333,0,0,0.63157894,25.333333,1009.3622)"
       d="m 14,28.5 c 0,5.246705 -8.0588745,9.5 -18,9.5 -9.941125,0 -18,-4.253295 -18,-9.5 0,-5.246705 8.058875,-9.5 18,-9.5 9.9411255,0 18,4.253295 18,9.5 z"
       sodipodi:ry="9.5"
       sodipodi:rx="18"
       sodipodi:cy="28.5"
       sodipodi:cx="-4"
       id="path3941"
       style="fill:url(#linearGradient3949);fill-opacity:1;stroke:none"
       sodipodi:type="arc" />
    <path
       sodipodi:type="arc"
       style="fill:#351017;fill-opacity:1;stroke:none"
       id="path4043"
       sodipodi:cx="23"
       sodipodi:cy="22.5"
       sodipodi:rx="2"
       sodipodi:ry="1.5"
       d="m 25,22.5 c 0,0.828427 -0.895431,1.5 -2,1.5 -1.104569,0 -2,-0.671573 -2,-1.5 0,-0.828427 0.895431,-1.5 2,-1.5 1.104569,0 2,0.671573 2,1.5 z"
       transform="matrix(0.5,0,0,0.66666667,12.5,1012.3622)" />
    <path
       style="fill:#f7f3f4;stroke:none;stroke-width:1px;stroke-linecap:butt;stroke-linejoin:miter;stroke-opacity:1;fill-opacity:1"
       d="M 24 22 C 23.447715 22 23 22.447715 23 23 L 25 23 C 25 22.447715 24.552285 22 24 22 z "
       transform="translate(0,1004.3622)"
       id="path4067" />
  </g>
  <g
     inkscape:groupmode="layer"
     id="layer4"
     inkscape:label="Inset"
     sodipodi:insensitive="true"
     style="display:inline">
    <path
       style="opacity:0.15;fill:#000000;fill-opacity:1;stroke:none"
       d="m 2,34 0,3 c 0,4.986 4.014,9 9,9 l 26,0 c 4.986,0 9,-4.014 9,-9 l 0,-3 c 0,4.986 -4.014,9 -9,9 L 11,43 C 6.014,43 2,38.986 2,34 z"
       id="rect3038-42"
       inkscape:connector-curvature="0" />
  </g>
  <g
     inkscape:groupmode="layer"
     id="layer7"
     inkscape:label="Baseshape"
     sodipodi:insensitive="true"
     style="display:none">
    <rect
       rx="9"
       ry="9"
       y="2"
       x="2"
       height="44"
       width="44"
       id="rect4169"
       style="fill:#abe1ad;fill-opacity:1;stroke:none;display:inline" />
  </g>
</svg>
