<?xml version="1.0" encoding="UTF-8" standalone="no"?>
<!-- Created with Inkscape (http://www.inkscape.org/) -->

<svg
   xmlns:dc="http://purl.org/dc/elements/1.1/"
   xmlns:cc="http://creativecommons.org/ns#"
   xmlns:rdf="http://www.w3.org/1999/02/22-rdf-syntax-ns#"
   xmlns:svg="http://www.w3.org/2000/svg"
   xmlns="http://www.w3.org/2000/svg"
   xmlns:xlink="http://www.w3.org/1999/xlink"
   xmlns:sodipodi="http://sodipodi.sourceforge.net/DTD/sodipodi-0.dtd"
   xmlns:inkscape="http://www.inkscape.org/namespaces/inkscape"
   width="48"
   height="48"
   id="svg4230"
   version="1.1"
   inkscape:version="0.48.5 r10040"
   sodipodi:docname="gufw.svg">
  <defs
     id="defs4232">
    <linearGradient
       id="linearGradient3893">
      <stop
         id="stop3895"
         offset="0"
         style="stop-color:#b9292a;stop-opacity:1;" />
      <stop
         id="stop3897"
         offset="1"
         style="stop-color:#ef5457;stop-opacity:1;" />
    </linearGradient>
    <linearGradient
       id="linearGradient4015">
      <stop
         style="stop-color:#000000;stop-opacity:0.39215687;"
         offset="0"
         id="stop4017" />
      <stop
         style="stop-color:#000000;stop-opacity:0;"
         offset="1"
         id="stop4019" />
    </linearGradient>
    <linearGradient
       id="linearGradient3997">
      <stop
         style="stop-color:#d7d6d6;stop-opacity:1;"
         offset="0"
         id="stop3999" />
      <stop
         style="stop-color:#ffffff;stop-opacity:1;"
         offset="1"
         id="stop4001" />
    </linearGradient>
    <linearGradient
       id="linearGradient3932">
      <stop
         style="stop-color:#f7f7f7;stop-opacity:1;"
         offset="0"
         id="stop3934" />
      <stop
         style="stop-color:#ffdbdb;stop-opacity:1;"
         offset="1"
         id="stop3936" />
    </linearGradient>
    <linearGradient
       inkscape:collect="always"
       id="linearGradient3890">
      <stop
         style="stop-color:#000000;stop-opacity:1;"
         offset="0"
         id="stop3892" />
      <stop
         style="stop-color:#000000;stop-opacity:0;"
         offset="1"
         id="stop3894" />
    </linearGradient>
    <linearGradient
       id="linearGradient3877">
      <stop
         style="stop-color:#000000;stop-opacity:0;"
         offset="0"
         id="stop3879" />
      <stop
         style="stop-color:#000000;stop-opacity:0.03921569;"
         offset="1"
         id="stop3881" />
    </linearGradient>
    <linearGradient
       id="linearGradient4524">
      <stop
         style="stop-color:#b9292a;stop-opacity:1;"
         offset="0"
         id="stop4526" />
      <stop
         style="stop-color:#ef5457;stop-opacity:1;"
         offset="1"
         id="stop4528" />
    </linearGradient>
    <linearGradient
       id="linearGradient4512">
      <stop
         style="stop-color:#d9d2d1;stop-opacity:1;"
         offset="0"
         id="stop4514" />
      <stop
         style="stop-color:#fefcfc;stop-opacity:1;"
         offset="1"
         id="stop4516" />
    </linearGradient>
    <linearGradient
       id="linearGradient4243">
      <stop
         style="stop-color:#000000;stop-opacity:1;"
         offset="0"
         id="stop4245" />
      <stop
         style="stop-color:#000000;stop-opacity:0;"
         offset="1"
         id="stop4247" />
    </linearGradient>
    <linearGradient
       id="linearGradient4216">
      <stop
         style="stop-color:#a0c4e6;stop-opacity:1;"
         offset="0"
         id="stop4218" />
      <stop
         style="stop-color:#d0e2f1;stop-opacity:1;"
         offset="1"
         id="stop4220" />
    </linearGradient>
    <linearGradient
       id="linearGradient4208">
      <stop
         style="stop-color:#70a3d6;stop-opacity:1;"
         offset="0"
         id="stop4210" />
      <stop
         style="stop-color:#88b6e1;stop-opacity:1;"
         offset="1"
         id="stop4212" />
    </linearGradient>
    <linearGradient
       id="linearGradient4200">
      <stop
         style="stop-color:#427dbe;stop-opacity:1;"
         offset="0"
         id="stop4202" />
      <stop
         style="stop-color:#739bd1;stop-opacity:1;"
         offset="1"
         id="stop4204" />
    </linearGradient>
    <linearGradient
       id="linearGradient4192">
      <stop
         style="stop-color:#4970a4;stop-opacity:1;"
         offset="0"
         id="stop4194" />
      <stop
         style="stop-color:#6090c0;stop-opacity:1;"
         offset="1"
         id="stop4196" />
    </linearGradient>
    <radialGradient
       inkscape:collect="always"
       xlink:href="#linearGradient3688-166-749-5-9-1"
       id="radialGradient4351"
       gradientUnits="userSpaceOnUse"
       gradientTransform="matrix(2.3201711,0,0,0.39999996,28.617836,28.600002)"
       cx="4.9929786"
       cy="43.5"
       fx="4.9929786"
       fy="43.5"
       r="2.5" />
    <linearGradient
       id="linearGradient3688-166-749-5-9-1">
      <stop
         id="stop2883-0-2-9"
         style="stop-color:#181818;stop-opacity:1"
         offset="0" />
      <stop
         id="stop2885-5-3-8"
         style="stop-color:#181818;stop-opacity:0"
         offset="1" />
    </linearGradient>
    <linearGradient
       id="linearGradient3688-464-309-8-9-4">
      <stop
         id="stop2889-9-9-1"
         style="stop-color:#181818;stop-opacity:1"
         offset="0" />
      <stop
         id="stop2891-4-2-9"
         style="stop-color:#181818;stop-opacity:0"
         offset="1" />
    </linearGradient>
    <linearGradient
       id="linearGradient3702-501-757-0-4-0">
      <stop
         id="stop2895-0-2-1"
         style="stop-color:#181818;stop-opacity:0"
         offset="0" />
      <stop
         id="stop2897-2-8-2"
         style="stop-color:#181818;stop-opacity:1"
         offset="0.5" />
      <stop
         id="stop2899-6-1-6"
         style="stop-color:#181818;stop-opacity:0"
         offset="1" />
    </linearGradient>
    <linearGradient
       id="linearGradient3811-3">
      <stop
         style="stop-color:#000000;stop-opacity:1;"
         offset="0"
         id="stop3813-0" />
      <stop
         style="stop-color:#000000;stop-opacity:0;"
         offset="1"
         id="stop3815-0" />
    </linearGradient>
    <clipPath
       id="clipPath-887332295">
      <g
         id="g3945"
         transform="translate(0,-1004.3622)">
        <rect
           id="rect3947"
           fill="#1890d0"
           width="46"
           height="46"
           x="1"
           y="1005.36"
           rx="4" />
      </g>
    </clipPath>
    <clipPath
       id="clipPath-867792831">
      <g
         id="g3940"
         transform="translate(0,-1004.3622)">
        <rect
           id="rect3942"
           fill="#1890d0"
           width="46"
           height="46"
           x="1"
           y="1005.36"
           rx="4" />
      </g>
    </clipPath>
    <linearGradient
       gradientTransform="translate(-47.997785,0.00221467)"
       gradientUnits="userSpaceOnUse"
       x2="47"
       x1="1"
       id="linearGradient3764">
      <stop
         id="stop3935"
         stop-opacity="1"
         stop-color="#e4e4e4" />
      <stop
         id="stop3937"
         stop-opacity="1"
         stop-color="#eee"
         offset="1" />
    </linearGradient>
    <radialGradient
       inkscape:collect="always"
       xlink:href="#linearGradient4243"
       id="radialGradient4274"
       gradientUnits="userSpaceOnUse"
       gradientTransform="matrix(1.0434782,0,0,0.1956518,-1.0434797,35.184809)"
       cx="24.000001"
       cy="42.499991"
       fx="24.000001"
       fy="42.499991"
       r="23" />
    <linearGradient
       inkscape:collect="always"
       xlink:href="#linearGradient3951"
       id="linearGradient4530"
       x1="24"
       y1="46"
       x2="24"
       y2="2"
       gradientUnits="userSpaceOnUse" />
    <linearGradient
       inkscape:collect="always"
       xlink:href="#linearGradient4512"
       id="linearGradient4554"
       gradientUnits="userSpaceOnUse"
       x1="12.5"
       y1="28.000042"
       x2="12.5"
       y2="17.000042" />
    <radialGradient
       inkscape:collect="always"
       xlink:href="#linearGradient3877"
       id="radialGradient3883"
       cx="24"
       cy="23"
       fx="24"
       fy="23"
       r="15"
       gradientUnits="userSpaceOnUse" />
    <radialGradient
       inkscape:collect="always"
       xlink:href="#linearGradient3890"
       id="radialGradient3896"
       cx="24"
       cy="23"
       fx="24"
       fy="23"
       r="15"
       gradientUnits="userSpaceOnUse" />
    <linearGradient
       inkscape:collect="always"
       xlink:href="#linearGradient3932"
       id="linearGradient3938"
       x1="24"
       y1="1018.3622"
       x2="24"
       y2="1037.3622"
       gradientUnits="userSpaceOnUse" />
    <linearGradient
       inkscape:collect="always"
       xlink:href="#linearGradient3932"
       id="linearGradient3086"
       gradientUnits="userSpaceOnUse"
       x1="24"
       y1="1018.3622"
       x2="24"
       y2="1037.3622" />
    <linearGradient
       inkscape:collect="always"
       xlink:href="#linearGradient3932"
       id="linearGradient3088"
       gradientUnits="userSpaceOnUse"
       x1="24"
       y1="1018.3622"
       x2="24"
       y2="1037.3622" />
    <linearGradient
       inkscape:collect="always"
       xlink:href="#linearGradient3932"
       id="linearGradient3091"
       gradientUnits="userSpaceOnUse"
       x1="24"
       y1="1018.3622"
       x2="24"
       y2="1036.3622"
       gradientTransform="translate(0,1)" />
    <linearGradient
       inkscape:collect="always"
       xlink:href="#linearGradient3932"
       id="linearGradient3094"
       gradientUnits="userSpaceOnUse"
       x1="24"
       y1="1018.3622"
       x2="24"
       y2="1037.3622"
       gradientTransform="translate(0,1)" />
    <linearGradient
       inkscape:collect="always"
       xlink:href="#linearGradient3932"
       id="linearGradient3098"
       gradientUnits="userSpaceOnUse"
       x1="24"
       y1="1018.3622"
       x2="24"
       y2="1036.3622"
       gradientTransform="matrix(1,0,0,-1,0,2054.7244)" />
    <linearGradient
       inkscape:collect="always"
       xlink:href="#linearGradient3932"
       id="linearGradient3892"
       x1="24"
       y1="1018.3622"
       x2="24"
       y2="1037.3622"
       gradientUnits="userSpaceOnUse" />
    <clipPath
       id="clipPath-440697951">
      <g
         id="g3109"
         transform="translate(0,-1004.3622)">
        <path
           id="path3111"
           fill="#1890d0"
           transform="matrix(15.333333,0,0,11.5,414.99999,878.8622)"
           d="m -24 13 c 0 1.105 -0.672 2 -1.5 2 -0.828 0 -1.5 -0.895 -1.5 -2 0 -1.105 0.672 -2 1.5 -2 0.828 0 1.5 0.895 1.5 2 z" />
      </g>
    </clipPath>
    <clipPath
       id="clipPath-429329264">
      <g
         id="g3104"
         transform="translate(0,-1004.3622)">
        <path
           id="path3106"
           fill="#1890d0"
           transform="matrix(15.333333,0,0,11.5,414.99999,878.8622)"
           d="m -24 13 c 0 1.105 -0.672 2 -1.5 2 -0.828 0 -1.5 -0.895 -1.5 -2 0 -1.105 0.672 -2 1.5 -2 0.828 0 1.5 0.895 1.5 2 z" />
      </g>
    </clipPath>
    <linearGradient
       gradientTransform="matrix(0,-1,1,0,-1.5e-6,47.999998)"
       gradientUnits="userSpaceOnUse"
       x2="47"
       x1="1"
       id="linearGradient3764-6">
      <stop
         id="stop3099"
         stop-opacity="1"
         stop-color="#e1281f"
         offset="0"
         style="stop-color:#d60009;stop-opacity:1;" />
      <stop
         id="stop3101"
         stop-opacity="1"
         stop-color="#e33a31"
         offset="1" />
    </linearGradient>
    <linearGradient
       inkscape:collect="always"
       xlink:href="#linearGradient4025"
       id="linearGradient4031"
       x1="35"
       y1="23"
       x2="35"
       y2="-2"
       gradientUnits="userSpaceOnUse"
       gradientTransform="translate(-69.230769,1022.391)" />
    <linearGradient
       id="linearGradient4025">
      <stop
         style="stop-color:#d54337;stop-opacity:1;"
         offset="0"
         id="stop4027" />
      <stop
         style="stop-color:#f36c4a;stop-opacity:1;"
         offset="1"
         id="stop4029" />
    </linearGradient>
    <linearGradient
       inkscape:collect="always"
       xlink:href="#linearGradient4025-6"
       id="linearGradient4530-9"
       x1="24"
       y1="46"
       x2="24"
       y2="2"
       gradientUnits="userSpaceOnUse" />
    <linearGradient
       id="linearGradient4025-6">
      <stop
         style="stop-color:#d54337;stop-opacity:1;"
         offset="0"
         id="stop4027-1" />
      <stop
         style="stop-color:#f36c4a;stop-opacity:1;"
         offset="1"
         id="stop4029-9" />
    </linearGradient>
    <linearGradient
       inkscape:collect="always"
       xlink:href="#linearGradient3951"
       id="linearGradient4530-2"
       x1="24"
       y1="46"
       x2="24"
       y2="2"
       gradientUnits="userSpaceOnUse" />
    <linearGradient
       id="linearGradient3951">
      <stop
         style="stop-color:#d4d4d3;stop-opacity:1;"
         offset="0"
         id="stop3953" />
      <stop
         style="stop-color:#f7f7f7;stop-opacity:1;"
         offset="1"
         id="stop3955" />
    </linearGradient>
    <linearGradient
       inkscape:collect="always"
       xlink:href="#linearGradient4025-6"
       id="linearGradient3998"
       gradientUnits="userSpaceOnUse"
       gradientTransform="matrix(0.86666667,0,0,1,44.333333,13)"
       x1="-28.076923"
       y1="23"
       x2="-28.076923"
       y2="18" />
    <linearGradient
       inkscape:collect="always"
       xlink:href="#linearGradient4025-6"
       id="linearGradient4004"
       gradientUnits="userSpaceOnUse"
       gradientTransform="matrix(0.7422222,0,0,1,29.844444,7)"
       x1="-26.736526"
       y1="22.625"
       x2="-26.568113"
       y2="18" />
    <linearGradient
       inkscape:collect="always"
       xlink:href="#linearGradient4025-6"
       id="linearGradient4014"
       gradientUnits="userSpaceOnUse"
       gradientTransform="matrix(0.46666667,0,0,1,44.333333,13)"
       x1="-26.42857"
       y1="23"
       x2="-26.42857"
       y2="18" />
    <linearGradient
       inkscape:collect="always"
       xlink:href="#linearGradient4025-6"
       id="linearGradient4018"
       gradientUnits="userSpaceOnUse"
       gradientTransform="matrix(0.06666667,0,0,1,4.3333332,7)"
       x1="-34.999996"
       y1="23"
       x2="-34.999996"
       y2="18" />
    <linearGradient
       inkscape:collect="always"
       xlink:href="#linearGradient4025-6"
       id="linearGradient4022"
       gradientUnits="userSpaceOnUse"
       gradientTransform="matrix(0.46666668,0,0,1,49.333332,7)"
       x1="-26.428568"
       y1="23"
       x2="-26.428568"
       y2="18" />
    <linearGradient
       inkscape:collect="always"
       xlink:href="#linearGradient4025-6"
       id="linearGradient4026"
       gradientUnits="userSpaceOnUse"
       gradientTransform="matrix(0.47555554,0,0,1,52.51111,13)"
       x1="-28.411213"
       y1="23"
       x2="-28.411213"
       y2="18" />
    <linearGradient
       inkscape:collect="always"
       xlink:href="#linearGradient4025-6"
       id="linearGradient4030"
       gradientUnits="userSpaceOnUse"
       gradientTransform="matrix(0.33333334,0,0,1,52.666666,7)"
       x1="-25.999998"
       y1="23"
       x2="-25.999998"
       y2="18" />
    <linearGradient
       inkscape:collect="always"
       xlink:href="#linearGradient4025-6-9"
       id="linearGradient3998-1"
       gradientUnits="userSpaceOnUse"
       gradientTransform="matrix(0.86666667,0,0,1,44.333333,13)"
       x1="-35"
       y1="20.5"
       x2="-20"
       y2="20.5" />
    <linearGradient
       id="linearGradient4025-6-9">
      <stop
         style="stop-color:#d54337;stop-opacity:1;"
         offset="0"
         id="stop4027-1-0" />
      <stop
         style="stop-color:#f36c4a;stop-opacity:1;"
         offset="1"
         id="stop4029-9-5" />
    </linearGradient>
    <linearGradient
       inkscape:collect="always"
       xlink:href="#linearGradient4330"
       id="linearGradient4340"
       gradientUnits="userSpaceOnUse"
       x1="10"
       y1="15"
       x2="10"
       y2="5"
       gradientTransform="matrix(0.60000068,0,0,0.60000068,-14.750004,8.6249897)" />
    <linearGradient
       id="linearGradient4330">
      <stop
         style="stop-color:#f6b024;stop-opacity:1;"
         offset="0"
         id="stop4332" />
      <stop
         style="stop-color:#ffcc00;stop-opacity:1;"
         offset="1"
         id="stop4334" />
    </linearGradient>
    <linearGradient
       y2="5"
       x2="10"
       y1="15"
       x1="10"
       gradientTransform="matrix(0.60000068,0,0,0.60000068,45.999996,12.000007)"
       gradientUnits="userSpaceOnUse"
       id="linearGradient3842"
       xlink:href="#linearGradient4330"
       inkscape:collect="always" />
    <linearGradient
       inkscape:collect="always"
       xlink:href="#linearGradient3764-6-6"
       id="linearGradient4159-9"
       x1="24"
       y1="28"
       x2="24"
       y2="5"
       gradientUnits="userSpaceOnUse" />
    <linearGradient
       gradientTransform="matrix(0,-1,1,0,-1.5e-6,47.999998)"
       gradientUnits="userSpaceOnUse"
       x2="47"
       x1="1"
       id="linearGradient3764-6-6">
      <stop
         id="stop3099-8"
         stop-opacity="1"
         stop-color="#e1281f"
         offset="0"
         style="stop-color:#ea000b;stop-opacity:1;" />
      <stop
         id="stop3101-0"
         stop-opacity="1"
         stop-color="#e33a31"
         offset="1"
         style="stop-color:#fe2a00;stop-opacity:1;" />
    </linearGradient>
    <linearGradient
       inkscape:collect="always"
       xlink:href="#linearGradient4025-6-6"
       id="linearGradient4014-8"
       gradientUnits="userSpaceOnUse"
       gradientTransform="matrix(0.46666667,0,0,1,44.333333,13)"
       x1="-35"
       y1="20.5"
       x2="-20"
       y2="20.5" />
    <linearGradient
       id="linearGradient4025-6-6">
      <stop
         style="stop-color:#d54337;stop-opacity:1;"
         offset="0"
         id="stop4027-1-01" />
      <stop
         style="stop-color:#f36c4a;stop-opacity:1;"
         offset="1"
         id="stop4029-9-4" />
    </linearGradient>
    <linearGradient
       y2="18"
       x2="-27.469028"
       y1="23"
       x1="-27.469028"
       gradientTransform="matrix(0.53554497,0,0,1,20.7109,19)"
       gradientUnits="userSpaceOnUse"
       id="linearGradient4239"
       xlink:href="#linearGradient4025-6-6"
       inkscape:collect="always" />
    <linearGradient
       inkscape:collect="always"
       xlink:href="#linearGradient4025-6-1"
       id="linearGradient4004-8"
       gradientUnits="userSpaceOnUse"
       gradientTransform="matrix(0.86666667,0,0,1,34.2,7)"
       x1="-35"
       y1="20.5"
       x2="-20"
       y2="20.5" />
    <linearGradient
       id="linearGradient4025-6-1">
      <stop
         style="stop-color:#d54337;stop-opacity:1;"
         offset="0"
         id="stop4027-1-8" />
      <stop
         style="stop-color:#f36c4a;stop-opacity:1;"
         offset="1"
         id="stop4029-9-6" />
    </linearGradient>
    <linearGradient
       y2="18.000002"
       x2="-28.076923"
       y1="23.000002"
       x1="-28.076923"
       gradientTransform="matrix(0.86666667,0,0,1,41.333333,18.999999)"
       gradientUnits="userSpaceOnUse"
       id="linearGradient4273"
       xlink:href="#linearGradient4025-6-1"
       inkscape:collect="always" />
    <linearGradient
       inkscape:collect="always"
       xlink:href="#linearGradient4025-6-8"
       id="linearGradient4030-6"
       gradientUnits="userSpaceOnUse"
       gradientTransform="matrix(0.46666668,0,0,1,55.333332,7)"
       x1="-35"
       y1="20.5"
       x2="-20"
       y2="20.5" />
    <linearGradient
       id="linearGradient4025-6-8">
      <stop
         style="stop-color:#d54337;stop-opacity:1;"
         offset="0"
         id="stop4027-1-4" />
      <stop
         style="stop-color:#f36c4a;stop-opacity:1;"
         offset="1"
         id="stop4029-9-9" />
    </linearGradient>
    <linearGradient
       y2="18"
       x2="-27.499996"
       y1="23"
       x1="-27.499996"
       gradientTransform="matrix(0.66666669,0,0,1,48.333331,19)"
       gradientUnits="userSpaceOnUse"
       id="linearGradient4307"
       xlink:href="#linearGradient4025-6-8"
       inkscape:collect="always" />
    <linearGradient
       inkscape:collect="always"
       xlink:href="#linearGradient4025-6"
       id="linearGradient4328"
       gradientUnits="userSpaceOnUse"
       gradientTransform="matrix(0.27555554,0,0,1,45.51111,19)"
       x1="-27.258062"
       y1="23"
       x2="-27.258062"
       y2="18" />
    <linearGradient
       y2="20.5"
       x2="-20"
       y1="21"
       x1="-32.946903"
       gradientTransform="matrix(0.53554497,0,0,1,20.7109,19)"
       gradientUnits="userSpaceOnUse"
       id="linearGradient4239-6"
       xlink:href="#linearGradient4025-6-6-3"
       inkscape:collect="always" />
    <linearGradient
       id="linearGradient4025-6-6-3">
      <stop
         style="stop-color:#d54337;stop-opacity:1;"
         offset="0"
         id="stop4027-1-01-4" />
      <stop
         style="stop-color:#f36c4a;stop-opacity:1;"
         offset="1"
         id="stop4029-9-4-6" />
    </linearGradient>
    <linearGradient
       y2="18"
       x2="-28.962835"
       y1="23"
       x1="-28.962835"
       gradientTransform="matrix(-0.33471561,0,0,1,34.305687,19)"
       gradientUnits="userSpaceOnUse"
       id="linearGradient4345"
       xlink:href="#linearGradient4025-6-6-3"
       inkscape:collect="always" />
    <linearGradient
       y2="20.5"
       x2="-20"
       y1="20.5"
       x1="-35"
       gradientTransform="matrix(0.86666667,0,0,1,41.333333,18.999999)"
       gradientUnits="userSpaceOnUse"
       id="linearGradient4273-9"
       xlink:href="#linearGradient4025-6-1-3"
       inkscape:collect="always" />
    <linearGradient
       id="linearGradient4025-6-1-3">
      <stop
         style="stop-color:#d54337;stop-opacity:1;"
         offset="0"
         id="stop4027-1-8-7" />
      <stop
         style="stop-color:#f36c4a;stop-opacity:1;"
         offset="1"
         id="stop4029-9-6-5" />
    </linearGradient>
    <linearGradient
       y2="18.000002"
       x2="-25.76923"
       y1="21.000002"
       x1="-25.76923"
       gradientTransform="matrix(0.86666667,0,0,1,34.333333,24.999999)"
       gradientUnits="userSpaceOnUse"
       id="linearGradient4398"
       xlink:href="#linearGradient4025-6-1-3"
       inkscape:collect="always" />
    <linearGradient
       y2="20.5"
       x2="-20"
       y1="20.5"
       x1="-35"
       gradientTransform="matrix(0.86666667,0,0,1,41.333333,18.999999)"
       gradientUnits="userSpaceOnUse"
       id="linearGradient4273-6"
       xlink:href="#linearGradient4025-6-1-35"
       inkscape:collect="always" />
    <linearGradient
       id="linearGradient4025-6-1-35">
      <stop
         style="stop-color:#d54337;stop-opacity:1;"
         offset="0"
         id="stop4027-1-8-6" />
      <stop
         style="stop-color:#f36c4a;stop-opacity:1;"
         offset="1"
         id="stop4029-9-6-7" />
    </linearGradient>
    <linearGradient
       inkscape:collect="always"
       xlink:href="#linearGradient4025-6-8"
       id="linearGradient4439"
       gradientUnits="userSpaceOnUse"
       gradientTransform="matrix(0.66250002,0,0,0.6,41.187498,32.2)"
       x1="-27.452826"
       y1="23"
       x2="-27.452826"
       y2="18" />
    <linearGradient
       inkscape:collect="always"
       xlink:href="#linearGradient4025-6-8-9"
       id="linearGradient4439-0"
       gradientUnits="userSpaceOnUse"
       gradientTransform="matrix(0.66250002,0,0,0.6,41.187498,32.2)"
       x1="-35"
       y1="20.5"
       x2="-19.905657"
       y2="21.333334" />
    <linearGradient
       id="linearGradient4025-6-8-9">
      <stop
         style="stop-color:#d54337;stop-opacity:1;"
         offset="0"
         id="stop4027-1-4-1" />
      <stop
         style="stop-color:#f36c4a;stop-opacity:1;"
         offset="1"
         id="stop4029-9-9-4" />
    </linearGradient>
    <linearGradient
       y2="18"
       x2="-28.530993"
       y1="23"
       x1="-28.530993"
       gradientTransform="matrix(0.46375001,0,0,0.6,45.231248,32.2)"
       gradientUnits="userSpaceOnUse"
       id="linearGradient4456"
       xlink:href="#linearGradient4025-6-8-9"
       inkscape:collect="always" />
    <linearGradient
       inkscape:collect="always"
       xlink:href="#linearGradient4025-6-8-4"
       id="linearGradient4439-2"
       gradientUnits="userSpaceOnUse"
       gradientTransform="matrix(0.66250002,0,0,0.6,41.187498,32.2)"
       x1="-35"
       y1="20.5"
       x2="-19.905657"
       y2="21.333334" />
    <linearGradient
       id="linearGradient4025-6-8-4">
      <stop
         style="stop-color:#d54337;stop-opacity:1;"
         offset="0"
         id="stop4027-1-4-6" />
      <stop
         style="stop-color:#f36c4a;stop-opacity:1;"
         offset="1"
         id="stop4029-9-9-7" />
    </linearGradient>
    <linearGradient
       y2="20.5"
       x2="-20"
       y1="20.000002"
       x1="-33.846153"
       gradientTransform="matrix(0.86666667,0,0,1,34.333333,24.999999)"
       gradientUnits="userSpaceOnUse"
       id="linearGradient4398-1"
       xlink:href="#linearGradient4025-6-1-3-9"
       inkscape:collect="always" />
    <linearGradient
       id="linearGradient4025-6-1-3-9">
      <stop
         style="stop-color:#d54337;stop-opacity:1;"
         offset="0"
         id="stop4027-1-8-7-1" />
      <stop
         style="stop-color:#f36c4a;stop-opacity:1;"
         offset="1"
         id="stop4029-9-6-5-7" />
    </linearGradient>
    <linearGradient
       y2="18.000002"
       x2="-29.138891"
       y1="21.000002"
       x1="-29.138891"
       gradientTransform="matrix(-0.43768992,0,0,1,28.246201,24.999999)"
       gradientUnits="userSpaceOnUse"
       id="linearGradient4524-5"
       xlink:href="#linearGradient4025-6-1-3-9"
       inkscape:collect="always" />
    <linearGradient
       inkscape:collect="always"
       xlink:href="#linearGradient4524-2"
       id="linearGradient4530-5"
       x1="24"
       y1="46"
       x2="24"
       y2="2"
       gradientUnits="userSpaceOnUse" />
    <linearGradient
       id="linearGradient4524-2">
      <stop
         style="stop-color:#565656;stop-opacity:1;"
         offset="0"
         id="stop4526-7" />
      <stop
         style="stop-color:#6a6a6a;stop-opacity:1;"
         offset="1"
         id="stop4528-8" />
    </linearGradient>
    <linearGradient
       inkscape:collect="always"
       xlink:href="#linearGradient4025-6"
       id="linearGradient4567"
       gradientUnits="userSpaceOnUse"
       gradientTransform="matrix(1.0666667,0,0,1,53.333333,7)"
       x1="-35"
       y1="20.5"
       x2="-20"
       y2="20.5" />
    <linearGradient
       inkscape:collect="always"
       xlink:href="#linearGradient3764-6-6"
       id="linearGradient3209"
       gradientUnits="userSpaceOnUse"
       gradientTransform="matrix(1.2857142,0,0,1.2882617,-6.8571405,-1.0713279)"
       x1="15.000001"
       y1="21.473252"
       x2="33.000001"
       y2="21.473252" />
    <linearGradient
       inkscape:collect="always"
       xlink:href="#linearGradient4330"
       id="linearGradient3212"
       gradientUnits="userSpaceOnUse"
       gradientTransform="matrix(1.2857142,0,0,1.2882617,-6.8571405,-1.0713279)"
       x1="24"
       y1="26"
       x2="24"
       y2="9" />
    <linearGradient
       inkscape:collect="always"
       xlink:href="#linearGradient4025-6-1-3-9"
       id="linearGradient3986"
       x1="7"
       y1="36"
       x2="7"
       y2="31"
       gradientUnits="userSpaceOnUse" />
    <linearGradient
       inkscape:collect="always"
       xlink:href="#linearGradient4025-6-1-3-9"
       id="linearGradient3994"
       x1="45"
       y1="36"
       x2="45"
       y2="31"
       gradientUnits="userSpaceOnUse" />
  </defs>
  <sodipodi:namedview
     id="base"
     pagecolor="#ffffff"
     bordercolor="#666666"
     borderopacity="1.0"
     inkscape:pageopacity="0.0"
     inkscape:pageshadow="2"
     inkscape:zoom="31.999999"
     inkscape:cx="49.244442"
     inkscape:cy="17.009283"
     inkscape:document-units="px"
     inkscape:current-layer="layer2"
     showgrid="true"
     inkscape:showpageshadow="false"
     borderlayer="true"
     inkscape:window-width="1366"
     inkscape:window-height="704"
     inkscape:window-x="0"
     inkscape:window-y="25"
     inkscape:window-maximized="1"
     showguides="false"
     inkscape:guide-bbox="true"
     inkscape:snap-nodes="true">
    <inkscape:grid
       type="xygrid"
       id="grid4162" />
    <sodipodi:guide
       position="1.0000013,47.000017"
       orientation="46,0"
       id="guide4163" />
    <sodipodi:guide
       position="1.0000013,1.0000174"
       orientation="0,45.999999"
       id="guide4165" />
    <sodipodi:guide
       position="47,1.0000174"
       orientation="-46,0"
       id="guide4167" />
    <sodipodi:guide
       position="47,47.000017"
       orientation="0,-45.999999"
       id="guide4169" />
    <sodipodi:guide
       position="2.0000007,46.000017"
       orientation="44,0"
       id="guide4173" />
    <sodipodi:guide
       position="2.0000007,2.0000174"
       orientation="0,43.999999"
       id="guide4175" />
    <sodipodi:guide
       position="46,2.0000174"
       orientation="-44,0"
       id="guide4177" />
    <sodipodi:guide
       position="46,46.000017"
       orientation="0,-43.999999"
       id="guide4179" />
    <sodipodi:guide
       position="3,45.000017"
       orientation="42,0"
       id="guide4183" />
    <sodipodi:guide
       position="45,3.0000174"
       orientation="-42,0"
       id="guide4187" />
    <sodipodi:guide
       position="45,45.000017"
       orientation="0,-42"
       id="guide4189" />
    <sodipodi:guide
       position="3,45.000017"
       orientation="42,0"
       id="guide4193" />
    <sodipodi:guide
       position="3,3.0000174"
       orientation="0,42"
       id="guide4195" />
    <sodipodi:guide
       position="45,3.0000174"
       orientation="-42,0"
       id="guide4197" />
    <sodipodi:guide
       position="45,45.000017"
       orientation="0,-42"
       id="guide4199" />
    <sodipodi:guide
       position="3,10.000017"
       orientation="7,0"
       id="guide4203" />
    <sodipodi:guide
       position="3,3.0000174"
       orientation="0,42"
       id="guide4205" />
    <sodipodi:guide
       position="45,3.0000174"
       orientation="-7,0"
       id="guide4207" />
    <sodipodi:guide
       position="45,10.000017"
       orientation="0,-42"
       id="guide4209" />
  </sodipodi:namedview>
  <metadata
     id="metadata4235">
    <rdf:RDF>
      <cc:Work
         rdf:about="">
        <dc:format>image/svg+xml</dc:format>
        <dc:type
           rdf:resource="http://purl.org/dc/dcmitype/StillImage" />
        <dc:title />
      </cc:Work>
    </rdf:RDF>
  </metadata>
  <g
     inkscape:groupmode="layer"
     id="layer3"
     inkscape:label="Fake blur shadow"
     style="display:inline"
     sodipodi:insensitive="true">
    <path
       style="opacity:0.06000001;fill:#000000;fill-opacity:1;stroke:none"
       d="M 10,1 C 5.014,1 1,5.014 1,10 l 0,28 c 0,4.986 4.014,9 9,9 l 28,0 c 4.986,0 9,-4.014 9,-9 L 47,10 C 47,5.014 42.986,1 38,1 L 10,1 z m 0.5,0.5 27,0 c 4.986,0 9,4.014 9,9 l 0,27 c 0,4.986 -4.014,9 -9,9 l -27,0 c -4.986,0 -9,-4.014 -9,-9 l 0,-27 c 0,-4.986 4.014,-9 9,-9 z"
       id="rect3829"
       inkscape:connector-curvature="0" />
    <path
       style="opacity:0.12000002;fill:#000000;fill-opacity:1;stroke:none"
       d="m 10.5,1.5 c -4.986,0 -9,4.014 -9,9 l 0,27 c 0,4.986 4.014,9 9,9 l 27,0 c 4.986,0 9,-4.014 9,-9 l 0,-27 c 0,-4.986 -4.014,-9 -9,-9 l -27,0 z m 0.25,0.25 26.5,0 c 4.986,0 9,4.014 9,9 l 0,26.5 c 0,4.986 -4.014,9 -9,9 l -26.5,0 c -4.986,0 -9,-4.014 -9,-9 l 0,-26.5 c 0,-4.986 4.014,-9 9,-9 z"
       id="rect3827"
       inkscape:connector-curvature="0" />
    <rect
       style="opacity:0.23999999;fill:#000000;fill-opacity:1;stroke:none"
       id="rect3038-4"
       width="44.5"
       height="44.5"
       x="1.75"
       y="1.75"
       ry="9"
       rx="9" />
  </g>
  <g
     inkscape:groupmode="layer"
     id="layer6"
     inkscape:label="Blob"
     style="display:inline"
     sodipodi:insensitive="true">
    <path
       style="opacity:0.3;fill:url(#radialGradient4274);fill-opacity:1;stroke:none"
       d="M 1.03125,39 C 1.5192036,43.518898 5.3471961,47 10,47 l 28,0 c 4.652804,0 8.480796,-3.481102 8.96875,-8 l -45.9375,0 z"
       id="rect4241"
       inkscape:connector-curvature="0" />
  </g>
  <g
     inkscape:groupmode="layer"
     id="layer2"
     inkscape:label="Baseplate"
     style="display:inline">
    <rect
       style="fill:url(#linearGradient4530);fill-opacity:1.0;stroke:none"
       id="rect3038"
       width="44"
       height="44"
       x="2"
       y="1.9999826"
       ry="9"
       rx="9" />
    <path
       style="fill:url(#linearGradient3986);fill-opacity:1;stroke:none"
       d="m 2,31 c 0,0 0,1.115 0,2.5 0,1.385 0,2.5 0,2.5 l 10.266666,0 C 12.672934,36 13,34.885 13,33.5 13,32.115 12.672934,31 12.266666,31 z"
       id="rect3965"
       inkscape:connector-curvature="0"
       sodipodi:nodetypes="cscsssc" />
    <path
       inkscape:connector-curvature="0"
       id="path3995"
       d="M 14.866667,31 C 14.386534,31 14,32.115 14,33.5 c 0,1.385 0.386534,2.5 0.866667,2.5 l 11.266666,0 C 26.613467,36 27,34.885 27,33.5 27,32.115 26.613467,31 26.133333,31 l -11.266666,0 z"
       style="fill:url(#linearGradient3998);fill-opacity:1;stroke:none" />
    <path
       style="fill:url(#linearGradient4004);fill-opacity:1;stroke:none"
       d="m 4.6088895,25 c -0.4111908,0 -0.7422225,1.115 -0.7422225,2.5 0,1.385 0.3310317,2.5 0.7422225,2.5 l 9.6488885,0 C 14.668969,30 15,28.885 15,27.5 15,26.115 14.668969,25 14.257778,25 l -9.6488885,0 z"
       id="path4002"
       inkscape:connector-curvature="0" />
    <path
       style="fill:url(#linearGradient4014);fill-opacity:1;stroke:none"
       d="M 28.466667,31 C 28.208133,31 28,32.115 28,33.5 c 0,1.385 0.208133,2.5 0.466667,2.5 l 6.066666,0 C 34.791867,36 35,34.885 35,33.5 35,32.115 34.791867,31 34.533333,31 l -6.066666,0 z"
       id="path4012"
       inkscape:connector-curvature="0" />
    <path
       inkscape:connector-curvature="0"
       id="path4016"
       d="m 2,25 c -0.036933,0 0,2 0,2.5 0,1.385 0,2.5 0,2.5 l 0.9333333,0 C 2.9702667,30 3,28.885 3,27.5 3,26.115 2.9702667,25 2.9333333,25 z"
       style="fill:url(#linearGradient4018);fill-opacity:1;stroke:none"
       sodipodi:nodetypes="sscssss" />
    <path
       inkscape:connector-curvature="0"
       id="path4020"
       d="M 33.466666,25 C 33.208134,25 33,26.115 33,27.5 c 0,1.385 0.208134,2.5 0.466666,2.5 l 6.066668,0 C 39.791868,30 40,28.885 40,27.5 40,26.115 39.791868,25 39.533334,25 l -6.066668,0 z"
       style="fill:url(#linearGradient4022);fill-opacity:1;stroke:none" />
    <path
       inkscape:connector-curvature="0"
       id="path4024"
       d="m 36.342223,31 c -0.263458,0 -0.475556,1.115 -0.475556,2.5 0,1.385 0.212098,2.5 0.475556,2.5 l 6.182221,0 C 42.787902,36 43,34.885 43,33.5 43,32.115 42.787902,31 42.524444,31 l -6.182221,0 z"
       style="fill:url(#linearGradient4026);fill-opacity:1;stroke:none" />
    <path
       inkscape:connector-curvature="0"
       id="path4028"
       d="M 41.333334,25 C 41.148666,25 41,26.115 41,27.5 41,28.885 41.148666,30 41.333334,30 L 46,30 c 0,-1 0,-1.115 0,-2.5 0,-1.385 0,-1.5 0,-2.5 z"
       style="fill:url(#linearGradient4030);fill-opacity:1;stroke:none"
       sodipodi:nodetypes="ssscscs" />
    <path
       style="fill:url(#linearGradient3994);fill-opacity:1;stroke:none"
       d="M 44.133333,31 C 44.059466,31 44,32.115 44,33.5 44,34.885 44.05947,36 44.133333,36 L 46,36 c 0,-1 0,-1.115 0,-2.5 0,-1.385 0,-1.5 0,-2.5 z"
       id="path4032"
       inkscape:connector-curvature="0"
       sodipodi:nodetypes="ssscscs" />
    <path
       style="fill:url(#linearGradient4239);fill-opacity:1;stroke:none;display:inline"
       d="m 2,37 0.055242,0.994583 C 2.1472203,39.650548 3.1824094,41.616118 3.4796965,42 l 5.9847577,0 C 9.7611476,42 10,40.885 10,39.5 10,38.115 9.7611474,37 9.4644546,37 z"
       id="path4012-4"
       inkscape:connector-curvature="0"
       sodipodi:nodetypes="cscsssc" />
    <path
       style="fill:url(#linearGradient4273);fill-opacity:1;stroke:none;display:inline"
       d="M 11.866667,37 C 11.386534,37 11,38.115 11,39.5 c 0,1.385 0.386534,2.5 0.866667,2.5 l 11.266666,0 C 23.613467,42 24,40.885 24,39.5 24,38.115 23.613467,37 23.133333,37 l -11.266666,0 z"
       id="path4002-3"
       inkscape:connector-curvature="0" />
    <path
       inkscape:connector-curvature="0"
       id="path4028-3"
       d="M 25.666667,37 C 25.297331,37 25,38.115 25,39.5 c 0,1.385 0.297331,2.5 0.666667,2.5 l 8.666666,0 C 34.702669,42 35,40.885 35,39.5 35,38.115 34.702669,37 34.333333,37 l -8.666666,0 z"
       style="fill:url(#linearGradient4307);fill-opacity:1;stroke:none;display:inline" />
    <path
       style="fill:url(#linearGradient4328);fill-opacity:1;stroke:none"
       d="m 36.142223,37 c -0.152658,0 -0.275556,1.115 -0.275556,2.5 0,1.385 0.122898,2.5 0.275556,2.5 l 3.582221,0 C 39.877102,42 40,40.885 40,39.5 40,38.115 39.877102,37 39.724444,37 l -3.582221,0 z"
       id="path4326"
       inkscape:connector-curvature="0" />
    <path
       style="fill:url(#linearGradient4345);fill-opacity:1;stroke:none;display:inline"
       d="m 46,37 -0.01563,0.691406 c -0.02872,1.270375 -0.695655,3.229926 -1.488837,4.308899 L 41.334716,42 c -0.185433,-1.8e-5 -0.260497,-1.818125 -0.260497,-3.203125 0,-1.385 0.07506,-1.796875 0.260497,-1.796875 z"
       id="path4012-4-7"
       inkscape:connector-curvature="0"
       sodipodi:nodetypes="cscsssc" />
    <path
       style="fill:url(#linearGradient4398);fill-opacity:1;stroke:none;display:inline"
       d="m 4.2403674,42.995424 c 0.9926735,0.966394 1.5730773,1.530123 3.0115677,2.207118 0,0 1.2562979,0.642779 3.1622789,0.797458 L 17,46 c 0.01224,-0.167884 0,-0.321313 0,-0.5 0,-1.385 -0.394866,-2.499815 -0.875,-2.5 z"
       id="path4002-3-7"
       inkscape:connector-curvature="0"
       sodipodi:nodetypes="csccssc" />
    <path
       style="fill:url(#linearGradient4439);fill-opacity:1;stroke:none;display:inline"
       d="M 18.6625,43 C 18.295473,43 18,43.668999 18,44.5 c 0,0.830999 0,1.5 0,1.5 l 10,0 c 0,-1 0,-1 0,-2 0,-0.503891 -0.357973,-1 -0.725,-1 z"
       id="path4437"
       inkscape:connector-curvature="0"
       sodipodi:nodetypes="ssccsss" />
    <path
       style="fill:url(#linearGradient4456);fill-opacity:1;stroke:none;display:inline"
       d="M 29.46375,43 C 29.206831,43 29,43.668999 29,44.5 c 0,0.830999 0,1.5 0,1.5 l 7,0 c 0,-1 0,-1 0,-2 0,-0.503891 -0.250581,-1 -0.5075,-1 z"
       id="path4437-7"
       inkscape:connector-curvature="0"
       sodipodi:nodetypes="ssccsss" />
    <path
       style="fill:url(#linearGradient4524-5);fill-opacity:1;stroke:none;display:inline"
       d="M 37.43915,43 C 37.19667,42.999553 37,44.115 37,45.5 c 0,0.178687 0.02309,0.332116 0.02928,0.5 l 1.059109,-0.03125 c 0.687178,-0.02027 2.357022,-0.617188 2.357022,-0.617188 1.689176,-0.757957 2.665051,-1.66793 3.269432,-2.347657 z"
       id="path4002-3-7-6"
       inkscape:connector-curvature="0"
       sodipodi:nodetypes="cscsccc" />
    <path
       style="fill:url(#linearGradient4567);fill-opacity:1;stroke:none"
       d="M 17.066667,25 C 16.475734,25 16,26.115 16,27.5 c 0,1.385 0.475734,2.5 1.066667,2.5 l 13.866666,0 C 31.524267,30 32,28.885 32,27.5 32,26.115 31.524267,25 30.933333,25 l -13.866666,0 z"
       id="path4565"
       inkscape:connector-curvature="0" />
  </g>
  <g
     inkscape:label="Symbol"
     inkscape:groupmode="layer"
     id="layer1"
     transform="translate(0,-1004.3622)"
     style="display:inline">
    <g
       transform="matrix(1.2857142,0,0,1.2882617,-6.8571414,1005.5791)"
       id="g4577"
       style="opacity:0.15;fill:#000000;display:inline">
      <path
         inkscape:connector-curvature="0"
         style="fill:#000000;fill-opacity:1;stroke:none"
         d="m 23.430761,12.65625 c 0,0 -1.71282,1.156816 -3.03125,5.34375 0,0 -0.5724,-0.317499 -0.71875,-1 0,0 -1.069463,8.17325 4.09375,8.21875 0,0 3.626074,0.678468 4.21875,-4.6875 l -0.8125,0.4375 c 0,0 0.742233,-3.131883 -1.125,-4.65625 0,0 -0.489536,-0.890349 -0.34375,-1.84375 l -0.90625,0.59375 c 0,0 -1.30127,-1.064117 -1.375,-2.40625 z"
         id="path4579" />
      <path
         d="m 30.846419,13.228203 c -0.244718,1.137267 -1.20886,1.705667 -1.20886,1.705667 -2.196883,-6.9783022 -5.06988,-8.9338702 -5.06988,-8.9338702 -0.122078,2.238601 -2.288167,4.0035352 -2.288167,4.0035352 L 20.776655,9.0146679 c 0.242669,1.5885341 -0.534056,3.0723011 -0.534056,3.0723011 -3.112675,2.541234 -1.914836,7.768369 -1.914836,7.768369 L 17,19.101205 c 0.988028,8.943903 7.027276,7.857269 7.027276,7.857269 8.604615,-0.07583 6.819143,-13.730271 6.819143,-13.730271 z M 23.796556,25.27334 c -5.163213,-0.0455 -4.091748,-8.238303 -4.091748,-8.238303 0.14635,0.682501 0.72483,1.0234 0.72483,1.0234 1.31843,-4.186934 3.042115,-5.359901 3.042115,-5.359901 0.07373,1.342133 1.373311,2.4024 1.373311,2.4024 l 0.901415,-0.593833 c -0.145786,0.953401 0.320511,1.843101 0.320511,1.843101 1.867233,1.524367 1.148939,4.661068 1.148939,4.661068 l 0.796511,-0.4522 c -0.592676,5.365968 -4.215884,4.714268 -4.215884,4.714268 z"
         id="path4581"
         style="fill:#000000;fill-opacity:1;fill-rule:evenodd;display:inline"
         inkscape:connector-curvature="0" />
    </g>
    <path
       d="M 32.802538,17.258321 C 32.487901,18.723419 31.24829,19.455667 31.24829,19.455667 28.423726,10.465787 24.729873,7.9465039 24.729873,7.9465039 24.572916,10.830408 21.787944,13.104105 21.787944,13.104105 L 19.8557,11.830185 c 0.312003,2.046448 -0.686644,3.957928 -0.686644,3.957928 -4.00201,3.273775 -2.461931,10.007692 -2.461931,10.007692 l -1.707124,-0.97152 c 1.270322,11.522087 9.035068,10.122218 9.035068,10.122218 11.063076,-0.09769 8.767469,-17.688182 8.767469,-17.688182 z M 23.738429,32.77561 c -6.638416,-0.05862 -5.260818,-10.61309 -5.260818,-10.61309 0.188164,0.87924 0.931924,1.318407 0.931924,1.318407 1.695124,-5.393867 3.911291,-6.904955 3.911291,-6.904955 0.0948,1.729018 1.765685,3.094919 1.765685,3.094919 l 1.158962,-0.765012 c -0.187439,1.22823 0.412086,2.374397 0.412086,2.374397 2.400728,1.963783 1.477207,6.004675 1.477207,6.004675 l 1.024085,-0.582552 c -0.762012,6.912771 -5.420422,6.073211 -5.420422,6.073211 z"
       id="Ember-4"
       style="display:inline;fill:url(#linearGradient3209);fill-opacity:1;fill-rule:evenodd"
       inkscape:connector-curvature="0"
       transform="translate(0,1004.3622)" />
    <path
       inkscape:connector-curvature="0"
       style="display:inline;fill:url(#linearGradient3212);fill-opacity:1;stroke:none"
       d="m 23.268122,16.521496 c 0,0 -2.202197,1.490282 -3.897322,6.884149 0,0 -0.735942,-0.409022 -0.924107,-1.288262 0,0 -1.375023,10.529285 5.263393,10.587901 0,0 4.662095,0.874044 5.424107,-6.038727 l -1.044643,0.563614 c 0,0 0.954299,-4.034684 -1.446429,-5.998468 0,0 -0.629403,-1.147003 -0.441964,-2.375233 l -1.165178,0.764906 c 0,0 -1.673062,-1.370861 -1.767857,-3.09988 z"
       id="rect4111"
       transform="translate(0,1004.3622)" />
  </g>
  <g
     inkscape:groupmode="layer"
     id="layer4"
     inkscape:label="Inset"
     sodipodi:insensitive="true"
     style="display:inline">
    <path
       style="opacity:0.15;fill:#000000;fill-opacity:1;stroke:none"
       d="m 2,34 0,3 c 0,4.986 4.014,9 9,9 l 26,0 c 4.986,0 9,-4.014 9,-9 l 0,-3 c 0,4.986 -4.014,9 -9,9 L 11,43 C 6.014,43 2,38.986 2,34 z"
       id="rect3038-42"
       inkscape:connector-curvature="0" />
  </g>
  <g
     inkscape:groupmode="layer"
     id="layer7"
     inkscape:label="Baseshape"
     sodipodi:insensitive="true"
     style="display:none">
    <rect
       rx="9"
       ry="9"
       y="2"
       x="2"
       height="44"
       width="44"
       id="rect4169"
       style="fill:#abe1ad;fill-opacity:1;stroke:none;display:inline" />
  </g>
</svg>
