<?xml version="1.0" encoding="UTF-8" standalone="no"?>
<!-- Created with Inkscape (http://www.inkscape.org/) -->

<svg
   xmlns:dc="http://purl.org/dc/elements/1.1/"
   xmlns:cc="http://creativecommons.org/ns#"
   xmlns:rdf="http://www.w3.org/1999/02/22-rdf-syntax-ns#"
   xmlns:svg="http://www.w3.org/2000/svg"
   xmlns="http://www.w3.org/2000/svg"
   xmlns:xlink="http://www.w3.org/1999/xlink"
   xmlns:sodipodi="http://sodipodi.sourceforge.net/DTD/sodipodi-0.dtd"
   xmlns:inkscape="http://www.inkscape.org/namespaces/inkscape"
   width="48"
   height="48"
   id="svg4230"
   version="1.1"
   inkscape:version="0.48.4 r9939"
   sodipodi:docname="inkscape_2.svg">
  <defs
     id="defs4232">
    <linearGradient
       id="linearGradient3082">
      <stop
         style="stop-color:#ffc34f;stop-opacity:1;"
         offset="0"
         id="stop3084" />
      <stop
         id="stop3090"
         offset="0.5"
         style="stop-color:#ff4100;stop-opacity:1;" />
      <stop
         style="stop-color:#ff0076;stop-opacity:1;"
         offset="0.75"
         id="stop3092" />
      <stop
         style="stop-color:#ff8700;stop-opacity:1;"
         offset="1"
         id="stop3086" />
    </linearGradient>
    <linearGradient
       id="linearGradient4524">
      <stop
         style="stop-color:#dddddd;stop-opacity:1;"
         offset="0"
         id="stop4526" />
      <stop
         style="stop-color:#ffffff;stop-opacity:1;"
         offset="1"
         id="stop4528" />
    </linearGradient>
    <linearGradient
       id="linearGradient4512">
      <stop
         style="stop-color:#d9d2d1;stop-opacity:1;"
         offset="0"
         id="stop4514" />
      <stop
         style="stop-color:#fefcfc;stop-opacity:1;"
         offset="1"
         id="stop4516" />
    </linearGradient>
    <linearGradient
       id="linearGradient4243">
      <stop
         style="stop-color:#000000;stop-opacity:1;"
         offset="0"
         id="stop4245" />
      <stop
         style="stop-color:#000000;stop-opacity:0;"
         offset="1"
         id="stop4247" />
    </linearGradient>
    <linearGradient
       id="linearGradient4216">
      <stop
         style="stop-color:#a0c4e6;stop-opacity:1;"
         offset="0"
         id="stop4218" />
      <stop
         style="stop-color:#d0e2f1;stop-opacity:1;"
         offset="1"
         id="stop4220" />
    </linearGradient>
    <linearGradient
       id="linearGradient4208">
      <stop
         style="stop-color:#70a3d6;stop-opacity:1;"
         offset="0"
         id="stop4210" />
      <stop
         style="stop-color:#88b6e1;stop-opacity:1;"
         offset="1"
         id="stop4212" />
    </linearGradient>
    <linearGradient
       id="linearGradient4200">
      <stop
         style="stop-color:#427dbe;stop-opacity:1;"
         offset="0"
         id="stop4202" />
      <stop
         style="stop-color:#739bd1;stop-opacity:1;"
         offset="1"
         id="stop4204" />
    </linearGradient>
    <linearGradient
       id="linearGradient4192">
      <stop
         style="stop-color:#4970a4;stop-opacity:1;"
         offset="0"
         id="stop4194" />
      <stop
         style="stop-color:#6090c0;stop-opacity:1;"
         offset="1"
         id="stop4196" />
    </linearGradient>
    <radialGradient
       inkscape:collect="always"
       xlink:href="#linearGradient3688-166-749-5-9-1"
       id="radialGradient4351"
       gradientUnits="userSpaceOnUse"
       gradientTransform="matrix(2.3201711,0,0,0.39999996,28.617836,28.600002)"
       cx="4.9929786"
       cy="43.5"
       fx="4.9929786"
       fy="43.5"
       r="2.5" />
    <linearGradient
       id="linearGradient3688-166-749-5-9-1">
      <stop
         id="stop2883-0-2-9"
         style="stop-color:#181818;stop-opacity:1"
         offset="0" />
      <stop
         id="stop2885-5-3-8"
         style="stop-color:#181818;stop-opacity:0"
         offset="1" />
    </linearGradient>
    <linearGradient
       id="linearGradient3688-464-309-8-9-4">
      <stop
         id="stop2889-9-9-1"
         style="stop-color:#181818;stop-opacity:1"
         offset="0" />
      <stop
         id="stop2891-4-2-9"
         style="stop-color:#181818;stop-opacity:0"
         offset="1" />
    </linearGradient>
    <linearGradient
       id="linearGradient3702-501-757-0-4-0">
      <stop
         id="stop2895-0-2-1"
         style="stop-color:#181818;stop-opacity:0"
         offset="0" />
      <stop
         id="stop2897-2-8-2"
         style="stop-color:#181818;stop-opacity:1"
         offset="0.5" />
      <stop
         id="stop2899-6-1-6"
         style="stop-color:#181818;stop-opacity:0"
         offset="1" />
    </linearGradient>
    <linearGradient
       id="linearGradient3811-3">
      <stop
         style="stop-color:#000000;stop-opacity:1;"
         offset="0"
         id="stop3813-0" />
      <stop
         style="stop-color:#000000;stop-opacity:0;"
         offset="1"
         id="stop3815-0" />
    </linearGradient>
    <clipPath
       id="clipPath-887332295">
      <g
         id="g3945"
         transform="translate(0,-1004.3622)">
        <rect
           id="rect3947"
           fill="#1890d0"
           width="46"
           height="46"
           x="1"
           y="1005.36"
           rx="4" />
      </g>
    </clipPath>
    <clipPath
       id="clipPath-867792831">
      <g
         id="g3940"
         transform="translate(0,-1004.3622)">
        <rect
           id="rect3942"
           fill="#1890d0"
           width="46"
           height="46"
           x="1"
           y="1005.36"
           rx="4" />
      </g>
    </clipPath>
    <linearGradient
       gradientTransform="translate(-47.997785,0.00221467)"
       gradientUnits="userSpaceOnUse"
       x2="47"
       x1="1"
       id="linearGradient3764">
      <stop
         id="stop3935"
         stop-opacity="1"
         stop-color="#e4e4e4" />
      <stop
         id="stop3937"
         stop-opacity="1"
         stop-color="#eee"
         offset="1" />
    </linearGradient>
    <radialGradient
       inkscape:collect="always"
       xlink:href="#linearGradient4243"
       id="radialGradient4274"
       gradientUnits="userSpaceOnUse"
       gradientTransform="matrix(1.0434782,0,0,0.1956518,-1.0434797,35.184809)"
       cx="24.000001"
       cy="42.499991"
       fx="24.000001"
       fy="42.499991"
       r="23" />
    <linearGradient
       inkscape:collect="always"
       xlink:href="#linearGradient4524"
       id="linearGradient4530"
       x1="24"
       y1="46"
       x2="24"
       y2="2"
       gradientUnits="userSpaceOnUse" />
    <linearGradient
       inkscape:collect="always"
       xlink:href="#linearGradient4512"
       id="linearGradient4554"
       gradientUnits="userSpaceOnUse"
       x1="12.5"
       y1="28.000042"
       x2="12.5"
       y2="17.000042" />
    <linearGradient
       inkscape:collect="always"
       xlink:href="#linearGradient3082"
       id="linearGradient3088"
       x1="24"
       y1="37"
       x2="24"
       y2="8"
       gradientUnits="userSpaceOnUse"
       gradientTransform="translate(60,0)" />
  </defs>
  <sodipodi:namedview
     id="base"
     pagecolor="#ffffff"
     bordercolor="#666666"
     borderopacity="1.0"
     inkscape:pageopacity="0.0"
     inkscape:pageshadow="2"
     inkscape:zoom="3.9999998"
     inkscape:cx="66.383894"
     inkscape:cy="9.3851163"
     inkscape:document-units="px"
     inkscape:current-layer="g3287"
     showgrid="true"
     inkscape:showpageshadow="false"
     borderlayer="true"
     inkscape:window-width="1920"
     inkscape:window-height="1030"
     inkscape:window-x="0"
     inkscape:window-y="22"
     inkscape:window-maximized="1"
     showguides="false"
     inkscape:guide-bbox="true">
    <inkscape:grid
       type="xygrid"
       id="grid4162" />
    <sodipodi:guide
       position="1.0000013,47.000017"
       orientation="46,0"
       id="guide4163" />
    <sodipodi:guide
       position="1.0000013,1.0000174"
       orientation="0,45.999999"
       id="guide4165" />
    <sodipodi:guide
       position="47,1.0000174"
       orientation="-46,0"
       id="guide4167" />
    <sodipodi:guide
       position="47,47.000017"
       orientation="0,-45.999999"
       id="guide4169" />
    <sodipodi:guide
       position="2.0000007,46.000017"
       orientation="44,0"
       id="guide4173" />
    <sodipodi:guide
       position="2.0000007,2.0000174"
       orientation="0,43.999999"
       id="guide4175" />
    <sodipodi:guide
       position="46,2.0000174"
       orientation="-44,0"
       id="guide4177" />
    <sodipodi:guide
       position="46,46.000017"
       orientation="0,-43.999999"
       id="guide4179" />
    <sodipodi:guide
       position="3,45.000017"
       orientation="42,0"
       id="guide4183" />
    <sodipodi:guide
       position="45,3.0000174"
       orientation="-42,0"
       id="guide4187" />
    <sodipodi:guide
       position="45,45.000017"
       orientation="0,-42"
       id="guide4189" />
    <sodipodi:guide
       position="3,45.000017"
       orientation="42,0"
       id="guide4193" />
    <sodipodi:guide
       position="3,3.0000174"
       orientation="0,42"
       id="guide4195" />
    <sodipodi:guide
       position="45,3.0000174"
       orientation="-42,0"
       id="guide4197" />
    <sodipodi:guide
       position="45,45.000017"
       orientation="0,-42"
       id="guide4199" />
    <sodipodi:guide
       position="3,10.000017"
       orientation="7,0"
       id="guide4203" />
    <sodipodi:guide
       position="3,3.0000174"
       orientation="0,42"
       id="guide4205" />
    <sodipodi:guide
       position="45,3.0000174"
       orientation="-7,0"
       id="guide4207" />
    <sodipodi:guide
       position="45,10.000017"
       orientation="0,-42"
       id="guide4209" />
  </sodipodi:namedview>
  <metadata
     id="metadata4235">
    <rdf:RDF>
      <cc:Work
         rdf:about="">
        <dc:format>image/svg+xml</dc:format>
        <dc:type
           rdf:resource="http://purl.org/dc/dcmitype/StillImage" />
        <dc:title />
      </cc:Work>
    </rdf:RDF>
  </metadata>
  <g
     inkscape:groupmode="layer"
     id="layer3"
     inkscape:label="Fake blur shadow"
     style="display:inline"
     sodipodi:insensitive="true">
    <path
       style="opacity:0.06000001;fill:#000000;fill-opacity:1;stroke:none"
       d="M 10,1 C 5.014,1 1,5.014 1,10 l 0,28 c 0,4.986 4.014,9 9,9 l 28,0 c 4.986,0 9,-4.014 9,-9 L 47,10 C 47,5.014 42.986,1 38,1 L 10,1 z m 0.5,0.5 27,0 c 4.986,0 9,4.014 9,9 l 0,27 c 0,4.986 -4.014,9 -9,9 l -27,0 c -4.986,0 -9,-4.014 -9,-9 l 0,-27 c 0,-4.986 4.014,-9 9,-9 z"
       id="rect3829"
       inkscape:connector-curvature="0" />
    <path
       style="opacity:0.12000002;fill:#000000;fill-opacity:1;stroke:none"
       d="m 10.5,1.5 c -4.986,0 -9,4.014 -9,9 l 0,27 c 0,4.986 4.014,9 9,9 l 27,0 c 4.986,0 9,-4.014 9,-9 l 0,-27 c 0,-4.986 -4.014,-9 -9,-9 l -27,0 z m 0.25,0.25 26.5,0 c 4.986,0 9,4.014 9,9 l 0,26.5 c 0,4.986 -4.014,9 -9,9 l -26.5,0 c -4.986,0 -9,-4.014 -9,-9 l 0,-26.5 c 0,-4.986 4.014,-9 9,-9 z"
       id="rect3827"
       inkscape:connector-curvature="0" />
    <rect
       style="opacity:0.23999999;fill:#000000;fill-opacity:1;stroke:none"
       id="rect3038-4"
       width="44.5"
       height="44.5"
       x="1.75"
       y="1.75"
       ry="9"
       rx="9" />
  </g>
  <g
     inkscape:groupmode="layer"
     id="layer6"
     inkscape:label="Blob"
     style="display:inline"
     sodipodi:insensitive="true">
    <path
       style="opacity:0.3;fill:url(#radialGradient4274);fill-opacity:1;stroke:none"
       d="M 1.03125,39 C 1.5192036,43.518898 5.3471961,47 10,47 l 28,0 c 4.652804,0 8.480796,-3.481102 8.96875,-8 l -45.9375,0 z"
       id="rect4241"
       inkscape:connector-curvature="0" />
  </g>
  <g
     inkscape:groupmode="layer"
     id="layer2"
     inkscape:label="Baseplate"
     style="display:inline">
    <rect
       style="fill:url(#linearGradient4530);fill-opacity:1;stroke:none"
       id="rect3038"
       width="44"
       height="44"
       x="2"
       y="1.9999826"
       ry="9"
       rx="9" />
    <g
       transform="matrix(0.98846217,0,0,0.98485063,66.616608,-49.733448)"
       id="g3287">
      <g
         id="g3289"
         transform="translate(0,1.0000497)"
         style="opacity:0.15;stroke:#000000">
        <path
           style="fill:none;stroke:#000000;stroke-width:1.01280272;stroke-linecap:butt;stroke-linejoin:miter;stroke-miterlimit:4;stroke-opacity:1;stroke-dasharray:none"
           d="m -46.785784,84.995392 c 2.092969,-0.124868 1.749347,1.248682 1.749347,1.248682 0.249907,1.997893 3.061358,1.155032 3.061358,1.155032 4.529559,-1.373551 2.374113,-2.12276 2.374113,-2.12276 -1.811823,-0.717993 0.718482,-1.592071 0.718482,-1.592071 0,0 2.186684,-0.780427 3.092596,-1.592071 0.905911,-0.811644 1.030865,-0.842861 1.062103,-0.998946 0,0 -1.030864,-1.030163 -1.593155,-1.248683 0,0 -1.374487,-0.624341 -1.187057,-1.030164 0,0 -0.343622,-0.593124 0.93715,-0.84286 0,0 5.716617,-1.123815 6.841197,-2.247629 0,0 2.280399,-1.155032 0.281145,-3.964568 L -40.66307,60.489991 c 0,0 -2.530305,-3.028056 -5.497947,0 l -10.496082,10.582587 c 0,0 -2.748975,2.809537 -0.281146,3.340227 0,0 7.997016,1.779372 4.71699,2.747102 -0.999627,0.437039 -1.155819,0.624341 -1.811824,0.998946 0,0 -1.249533,0.811644 1.374487,1.467203"
           id="path3291"
           inkscape:connector-curvature="0"
           sodipodi:nodetypes="cccccsccccccccccccc" />
        <path
           style="fill:#800000;stroke:#000000"
           d="m -50.125,68.09375 3.65625,-0.28125 1.25,-3.0625 1.15625,3.5 2.625,-1.875 1.84375,0.90625 0.21875,-2.46875 3.09375,1.46875 c 0,0 0.53125,-0.21875 -1.40625,-1.625 -1.9375,-1.40625 -5.28125,-3.875 -5.28125,-3.875 0,0 -0.71875,-0.5 -1.53125,0.28125 0,0 -2.4375,1.3125 -4.59375,3.875 0,0 -1.4375,1.09375 -1.03125,3.15625 z"
           id="path3293"
           inkscape:connector-curvature="0" />
        <path
           style="fill:#800000;stroke:#000000"
           d="m -43.354485,77.897359 0.04419,0.640815 c 0,0 -4.596195,-0.486136 -5.060233,-1.613087 0,0 3.358761,1.082758 5.016043,0.972272 z"
           id="path3295"
           inkscape:connector-curvature="0" />
        <path
           style="fill:#800000;stroke:#000000"
           d="m -34.648232,82.626135 c 0,0 -0.83969,0.132583 -0.441942,1.259534 0,0 0.574524,0.994369 1.568893,0.309359 0,0 1.038564,-0.861787 -1.126951,-1.568893 z"
           id="path3297"
           inkscape:connector-curvature="0" />
        <path
           style="fill:#800000;stroke:#000000"
           d="m -49.07763,82.581941 c 0,0 0.994369,0.243068 -0.68501,1.149049 -1.679378,0.90598 -1.966641,0.309359 -2.209709,-0.220971 -0.243068,-0.53033 1.171146,-1.546796 1.679379,-1.436311 0.508233,0.110486 1.06066,0.419845 1.21534,0.508233 z"
           id="path3299"
           inkscape:connector-curvature="0" />
        <path
           style="fill:#800000;stroke:#000000"
           d="m -33.83064,80.92466 c 0,0 -0.53033,0.287262 0.265165,0.640815 0.795495,0.353554 2.519068,0.419845 2.519068,0.419845 0,0 0.883883,-0.04419 1.06066,-0.795495 0.176777,-0.751301 -1.370019,-1.060661 -1.723573,-1.038563 -0.353553,0.0221 -2.12132,0.773398 -2.12132,0.773398 z"
           id="path3302"
           inkscape:connector-curvature="0" />
        <g
           style="fill:#000000;stroke:#000000;display:inline"
           transform="translate(-17.147601,76.071329)"
           id="g3304">
          <path
             sodipodi:type="arc"
             style="fill:#000000;stroke:#000000"
             id="path3306"
             sodipodi:cx="-29.5"
             sodipodi:cy="8.5"
             sodipodi:rx="1.5"
             sodipodi:ry="1.5"
             d="m -28,8.5 c 0,0.8284271 -0.671573,1.5 -1.5,1.5 -0.828427,0 -1.5,-0.6715729 -1.5,-1.5 0,-0.8284271 0.671573,-1.5 1.5,-1.5 0.828427,0 1.5,0.6715729 1.5,1.5 z"
             transform="matrix(0.66666667,0,0,0.66666667,-10.208333,3.2083332)" />
          <path
             d="m -28,8.5 c 0,0.8284271 -0.671573,1.5 -1.5,1.5 -0.828427,0 -1.5,-0.6715729 -1.5,-1.5 0,-0.8284271 0.671573,-1.5 1.5,-1.5 0.828427,0 1.5,0.6715729 1.5,1.5 z"
             sodipodi:ry="1.5"
             sodipodi:rx="1.5"
             sodipodi:cy="8.5"
             sodipodi:cx="-29.5"
             id="path3308"
             style="fill:#000000;stroke:#000000"
             sodipodi:type="arc"
             transform="matrix(0.33333333,0,0,0.33333333,-20.041666,6.0416666)" />
        </g>
        <g
           style="fill:#000000;stroke:#000000;display:inline"
           transform="translate(-22.8125,70.8125)"
           id="g3310">
          <path
             sodipodi:type="arc"
             style="fill:#000000;stroke:#000000"
             id="path3312"
             sodipodi:cx="-29.5"
             sodipodi:cy="8.5"
             sodipodi:rx="1.5"
             sodipodi:ry="1.5"
             d="m -28,8.5 c 0,0.8284271 -0.671573,1.5 -1.5,1.5 -0.828427,0 -1.5,-0.6715729 -1.5,-1.5 0,-0.8284271 0.671573,-1.5 1.5,-1.5 0.828427,0 1.5,0.6715729 1.5,1.5 z"
             transform="matrix(0.66666667,0,0,0.66666667,-10.208333,3.2083332)" />
          <path
             d="m -28,8.5 c 0,0.8284271 -0.671573,1.5 -1.5,1.5 -0.828427,0 -1.5,-0.6715729 -1.5,-1.5 0,-0.8284271 0.671573,-1.5 1.5,-1.5 0.828427,0 1.5,0.6715729 1.5,1.5 z"
             sodipodi:ry="1.5"
             sodipodi:rx="1.5"
             sodipodi:cy="8.5"
             sodipodi:cx="-29.5"
             id="path3314"
             style="fill:#000000;stroke:#000000"
             sodipodi:type="arc"
             transform="matrix(0.33333333,0,0,0.33333333,-20.041666,6.0416666)" />
        </g>
      </g>
      <g
         id="g3316"
         transform="matrix(0.99963291,0,0,0.99895799,-0.02146418,0.09179151)">
        <path
           sodipodi:nodetypes="cccccsccccccccccccc"
           inkscape:connector-curvature="0"
           id="path3318"
           d="m -46.78125,85 c 2.09375,-0.125 1.75,1.25 1.75,1.25 0.25,2 3.0625,1.15625 3.0625,1.15625 4.53125,-1.375 2.375,-2.125 2.375,-2.125 -1.8125,-0.71875 0.71875,-1.59375 0.71875,-1.59375 0,0 2.1875,-0.78125 3.09375,-1.59375 0.90625,-0.8125 1.03125,-0.84375 1.0625,-1 0,0 -1.03125,-1.03125 -1.59375,-1.25 0,0 -1.375,-0.625 -1.1875,-1.03125 0,0 -0.34375,-0.59375 0.9375,-0.84375 0,0 5.71875,-1.125 6.84375,-2.25 0,0 2.28125,-1.15625 0.28125,-3.96875 L -40.65625,60.46875 c 0,0 -2.53125,-3.03125 -5.5,0 l -10.5,10.59375 c 0,0 -2.75,2.8125 -0.28125,3.34375 0,0 8,1.78125 4.71875,2.75 -1,0.4375 -1.15625,0.625 -1.8125,1 0,0 -1.25,0.8125 1.375,1.46875"
           style="fill:none;stroke:#800000;stroke-width:1.01352572;stroke-linecap:butt;stroke-linejoin:miter;stroke-miterlimit:4;stroke-opacity:1;stroke-dasharray:none" />
        <path
           inkscape:connector-curvature="0"
           id="path3320"
           d="m -50.125,68.09375 3.65625,-0.28125 1.25,-3.0625 1.15625,3.5 2.625,-1.875 1.84375,0.90625 0.21875,-2.46875 3.09375,1.46875 c 0,0 0.53125,-0.21875 -1.40625,-1.625 -1.9375,-1.40625 -5.28125,-3.875 -5.28125,-3.875 0,0 -0.71875,-0.5 -1.53125,0.28125 0,0 -2.4375,1.3125 -4.59375,3.875 0,0 -1.4375,1.09375 -1.03125,3.15625 z"
           style="fill:#800000;stroke:none" />
        <path
           inkscape:connector-curvature="0"
           id="path3322"
           d="m -43.354485,77.897359 0.04419,0.640815 c 0,0 -4.596195,-0.486136 -5.060233,-1.613087 0,0 3.358761,1.082758 5.016043,0.972272 z"
           style="fill:#800000;stroke:none" />
        <path
           inkscape:connector-curvature="0"
           id="path3324"
           d="m -34.648232,82.626135 c 0,0 -0.83969,0.132583 -0.441942,1.259534 0,0 0.574524,0.994369 1.568893,0.309359 0,0 1.038564,-0.861787 -1.126951,-1.568893 z"
           style="fill:#800000;stroke:none" />
        <path
           inkscape:connector-curvature="0"
           id="path3326"
           d="m -49.07763,82.581941 c 0,0 0.994369,0.243068 -0.68501,1.149049 -1.679378,0.90598 -1.966641,0.309359 -2.209709,-0.220971 -0.243068,-0.53033 1.171146,-1.546796 1.679379,-1.436311 0.508233,0.110486 1.06066,0.419845 1.21534,0.508233 z"
           style="fill:#800000;stroke:none" />
        <path
           inkscape:connector-curvature="0"
           id="path3328"
           d="m -33.83064,80.92466 c 0,0 -0.53033,0.287262 0.265165,0.640815 0.795495,0.353554 2.519068,0.419845 2.519068,0.419845 0,0 0.883883,-0.04419 1.06066,-0.795495 0.176777,-0.751301 -1.370019,-1.060661 -1.723573,-1.038563 -0.353553,0.0221 -2.12132,0.773398 -2.12132,0.773398 z"
           style="fill:#800000;stroke:none" />
        <g
           id="g3330"
           transform="translate(-17.147601,76.071329)"
           style="display:inline">
          <path
             transform="matrix(0.66666667,0,0,0.66666667,-10.208333,3.2083332)"
             d="m -28,8.5 c 0,0.8284271 -0.671573,1.5 -1.5,1.5 -0.828427,0 -1.5,-0.6715729 -1.5,-1.5 0,-0.8284271 0.671573,-1.5 1.5,-1.5 0.828427,0 1.5,0.6715729 1.5,1.5 z"
             sodipodi:ry="1.5"
             sodipodi:rx="1.5"
             sodipodi:cy="8.5"
             sodipodi:cx="-29.5"
             id="path3332"
             style="fill:#ff8080;stroke:none"
             sodipodi:type="arc" />
          <path
             transform="matrix(0.33333333,0,0,0.33333333,-20.041666,6.0416666)"
             sodipodi:type="arc"
             style="fill:#ffffff;stroke:none"
             id="path3334"
             sodipodi:cx="-29.5"
             sodipodi:cy="8.5"
             sodipodi:rx="1.5"
             sodipodi:ry="1.5"
             d="m -28,8.5 c 0,0.8284271 -0.671573,1.5 -1.5,1.5 -0.828427,0 -1.5,-0.6715729 -1.5,-1.5 0,-0.8284271 0.671573,-1.5 1.5,-1.5 0.828427,0 1.5,0.6715729 1.5,1.5 z" />
        </g>
        <g
           id="g3336"
           transform="translate(-22.8125,70.8125)"
           style="display:inline">
          <path
             transform="matrix(0.66666667,0,0,0.66666667,-10.208333,3.2083332)"
             d="m -28,8.5 c 0,0.8284271 -0.671573,1.5 -1.5,1.5 -0.828427,0 -1.5,-0.6715729 -1.5,-1.5 0,-0.8284271 0.671573,-1.5 1.5,-1.5 0.828427,0 1.5,0.6715729 1.5,1.5 z"
             sodipodi:ry="1.5"
             sodipodi:rx="1.5"
             sodipodi:cy="8.5"
             sodipodi:cx="-29.5"
             id="path3338"
             style="fill:#ff8080;stroke:none"
             sodipodi:type="arc" />
          <path
             transform="matrix(0.33333333,0,0,0.33333333,-20.041666,6.0416666)"
             sodipodi:type="arc"
             style="fill:#ffffff;stroke:none"
             id="path3340"
             sodipodi:cx="-29.5"
             sodipodi:cy="8.5"
             sodipodi:rx="1.5"
             sodipodi:ry="1.5"
             d="m -28,8.5 c 0,0.8284271 -0.671573,1.5 -1.5,1.5 -0.828427,0 -1.5,-0.6715729 -1.5,-1.5 0,-0.8284271 0.671573,-1.5 1.5,-1.5 0.828427,0 1.5,0.6715729 1.5,1.5 z" />
        </g>
      </g>
    </g>
  </g>
  <g
     inkscape:label="Symbol"
     inkscape:groupmode="layer"
     id="layer1"
     transform="translate(0,-1004.3622)"
     style="display:inline" />
  <g
     inkscape:groupmode="layer"
     id="layer4"
     inkscape:label="Inset"
     sodipodi:insensitive="true"
     style="display:inline">
    <path
       style="opacity:0.15;fill:#000000;fill-opacity:1;stroke:none"
       d="m 2,34 0,3 c 0,4.986 4.014,9 9,9 l 26,0 c 4.986,0 9,-4.014 9,-9 l 0,-3 c 0,4.986 -4.014,9 -9,9 L 11,43 C 6.014,43 2,38.986 2,34 z"
       id="rect3038-42"
       inkscape:connector-curvature="0" />
  </g>
  <g
     inkscape:groupmode="layer"
     id="layer7"
     inkscape:label="Baseshape"
     sodipodi:insensitive="true"
     style="display:none">
    <rect
       rx="9"
       ry="9"
       y="2"
       x="2"
       height="44"
       width="44"
       id="rect4169"
       style="fill:#abe1ad;fill-opacity:1;stroke:none;display:inline" />
  </g>
</svg>
