<?xml version="1.0" encoding="UTF-8" standalone="no"?>
<!-- Created with Inkscape (http://www.inkscape.org/) -->

<svg
   xmlns:dc="http://purl.org/dc/elements/1.1/"
   xmlns:cc="http://creativecommons.org/ns#"
   xmlns:rdf="http://www.w3.org/1999/02/22-rdf-syntax-ns#"
   xmlns:svg="http://www.w3.org/2000/svg"
   xmlns="http://www.w3.org/2000/svg"
   xmlns:xlink="http://www.w3.org/1999/xlink"
   xmlns:sodipodi="http://sodipodi.sourceforge.net/DTD/sodipodi-0.dtd"
   xmlns:inkscape="http://www.inkscape.org/namespaces/inkscape"
   width="48"
   height="48"
   id="svg4230"
   version="1.1"
   inkscape:version="0.48.5 r10040"
   sodipodi:docname="inkscape.svg">
  <defs
     id="defs4232">
    <linearGradient
       id="linearGradient3082">
      <stop
         style="stop-color:#ffc34f;stop-opacity:1;"
         offset="0"
         id="stop3084" />
      <stop
         id="stop3090"
         offset="0.5"
         style="stop-color:#ff4100;stop-opacity:1;" />
      <stop
         style="stop-color:#ff0076;stop-opacity:1;"
         offset="0.75"
         id="stop3092" />
      <stop
         style="stop-color:#ff8700;stop-opacity:1;"
         offset="1"
         id="stop3086" />
    </linearGradient>
    <linearGradient
       id="linearGradient4524">
      <stop
         style="stop-color:#dddddd;stop-opacity:1;"
         offset="0"
         id="stop4526" />
      <stop
         style="stop-color:#ffffff;stop-opacity:1;"
         offset="1"
         id="stop4528" />
    </linearGradient>
    <linearGradient
       id="linearGradient4512">
      <stop
         style="stop-color:#d9d2d1;stop-opacity:1;"
         offset="0"
         id="stop4514" />
      <stop
         style="stop-color:#fefcfc;stop-opacity:1;"
         offset="1"
         id="stop4516" />
    </linearGradient>
    <linearGradient
       id="linearGradient4243">
      <stop
         style="stop-color:#000000;stop-opacity:1;"
         offset="0"
         id="stop4245" />
      <stop
         style="stop-color:#000000;stop-opacity:0;"
         offset="1"
         id="stop4247" />
    </linearGradient>
    <linearGradient
       id="linearGradient4216">
      <stop
         style="stop-color:#a0c4e6;stop-opacity:1;"
         offset="0"
         id="stop4218" />
      <stop
         style="stop-color:#d0e2f1;stop-opacity:1;"
         offset="1"
         id="stop4220" />
    </linearGradient>
    <linearGradient
       id="linearGradient4208">
      <stop
         style="stop-color:#70a3d6;stop-opacity:1;"
         offset="0"
         id="stop4210" />
      <stop
         style="stop-color:#88b6e1;stop-opacity:1;"
         offset="1"
         id="stop4212" />
    </linearGradient>
    <linearGradient
       id="linearGradient4200">
      <stop
         style="stop-color:#427dbe;stop-opacity:1;"
         offset="0"
         id="stop4202" />
      <stop
         style="stop-color:#739bd1;stop-opacity:1;"
         offset="1"
         id="stop4204" />
    </linearGradient>
    <linearGradient
       id="linearGradient4192">
      <stop
         style="stop-color:#4970a4;stop-opacity:1;"
         offset="0"
         id="stop4194" />
      <stop
         style="stop-color:#6090c0;stop-opacity:1;"
         offset="1"
         id="stop4196" />
    </linearGradient>
    <radialGradient
       inkscape:collect="always"
       xlink:href="#linearGradient3688-166-749-5-9-1"
       id="radialGradient4351"
       gradientUnits="userSpaceOnUse"
       gradientTransform="matrix(2.3201711,0,0,0.39999996,28.617836,28.600002)"
       cx="4.9929786"
       cy="43.5"
       fx="4.9929786"
       fy="43.5"
       r="2.5" />
    <linearGradient
       id="linearGradient3688-166-749-5-9-1">
      <stop
         id="stop2883-0-2-9"
         style="stop-color:#181818;stop-opacity:1"
         offset="0" />
      <stop
         id="stop2885-5-3-8"
         style="stop-color:#181818;stop-opacity:0"
         offset="1" />
    </linearGradient>
    <linearGradient
       id="linearGradient3688-464-309-8-9-4">
      <stop
         id="stop2889-9-9-1"
         style="stop-color:#181818;stop-opacity:1"
         offset="0" />
      <stop
         id="stop2891-4-2-9"
         style="stop-color:#181818;stop-opacity:0"
         offset="1" />
    </linearGradient>
    <linearGradient
       id="linearGradient3702-501-757-0-4-0">
      <stop
         id="stop2895-0-2-1"
         style="stop-color:#181818;stop-opacity:0"
         offset="0" />
      <stop
         id="stop2897-2-8-2"
         style="stop-color:#181818;stop-opacity:1"
         offset="0.5" />
      <stop
         id="stop2899-6-1-6"
         style="stop-color:#181818;stop-opacity:0"
         offset="1" />
    </linearGradient>
    <linearGradient
       id="linearGradient3811-3">
      <stop
         style="stop-color:#000000;stop-opacity:1;"
         offset="0"
         id="stop3813-0" />
      <stop
         style="stop-color:#000000;stop-opacity:0;"
         offset="1"
         id="stop3815-0" />
    </linearGradient>
    <clipPath
       id="clipPath-887332295">
      <g
         id="g3945"
         transform="translate(0,-1004.3622)">
        <rect
           id="rect3947"
           fill="#1890d0"
           width="46"
           height="46"
           x="1"
           y="1005.36"
           rx="4" />
      </g>
    </clipPath>
    <clipPath
       id="clipPath-867792831">
      <g
         id="g3940"
         transform="translate(0,-1004.3622)">
        <rect
           id="rect3942"
           fill="#1890d0"
           width="46"
           height="46"
           x="1"
           y="1005.36"
           rx="4" />
      </g>
    </clipPath>
    <linearGradient
       gradientTransform="translate(-47.997785,0.00221467)"
       gradientUnits="userSpaceOnUse"
       x2="47"
       x1="1"
       id="linearGradient3764">
      <stop
         id="stop3935"
         stop-opacity="1"
         stop-color="#e4e4e4" />
      <stop
         id="stop3937"
         stop-opacity="1"
         stop-color="#eee"
         offset="1" />
    </linearGradient>
    <radialGradient
       inkscape:collect="always"
       xlink:href="#linearGradient4243"
       id="radialGradient4274"
       gradientUnits="userSpaceOnUse"
       gradientTransform="matrix(1.0434782,0,0,0.1956518,-1.0434797,35.184809)"
       cx="24.000001"
       cy="42.499991"
       fx="24.000001"
       fy="42.499991"
       r="23" />
    <linearGradient
       inkscape:collect="always"
       xlink:href="#linearGradient4524"
       id="linearGradient4530"
       x1="24"
       y1="46"
       x2="24"
       y2="2"
       gradientUnits="userSpaceOnUse" />
    <linearGradient
       inkscape:collect="always"
       xlink:href="#linearGradient4512"
       id="linearGradient4554"
       gradientUnits="userSpaceOnUse"
       x1="12.5"
       y1="28.000042"
       x2="12.5"
       y2="17.000042" />
    <linearGradient
       inkscape:collect="always"
       xlink:href="#linearGradient3082"
       id="linearGradient3088"
       x1="24"
       y1="37"
       x2="24"
       y2="8"
       gradientUnits="userSpaceOnUse"
       gradientTransform="translate(60,0)" />
  </defs>
  <sodipodi:namedview
     id="base"
     pagecolor="#ffffff"
     bordercolor="#666666"
     borderopacity="1.0"
     inkscape:pageopacity="0.0"
     inkscape:pageshadow="2"
     inkscape:zoom="6.3810194"
     inkscape:cx="22.360297"
     inkscape:cy="13.022684"
     inkscape:document-units="px"
     inkscape:current-layer="layer2"
     showgrid="true"
     inkscape:showpageshadow="false"
     borderlayer="true"
     inkscape:window-width="1920"
     inkscape:window-height="1052"
     inkscape:window-x="0"
     inkscape:window-y="28"
     inkscape:window-maximized="1"
     showguides="false"
     inkscape:guide-bbox="true">
    <inkscape:grid
       type="xygrid"
       id="grid4162" />
    <sodipodi:guide
       position="1.0000013,47.000017"
       orientation="46,0"
       id="guide4163" />
    <sodipodi:guide
       position="1.0000013,1.0000174"
       orientation="0,45.999999"
       id="guide4165" />
    <sodipodi:guide
       position="47,1.0000174"
       orientation="-46,0"
       id="guide4167" />
    <sodipodi:guide
       position="47,47.000017"
       orientation="0,-45.999999"
       id="guide4169" />
    <sodipodi:guide
       position="2.0000007,46.000017"
       orientation="44,0"
       id="guide4173" />
    <sodipodi:guide
       position="2.0000007,2.0000174"
       orientation="0,43.999999"
       id="guide4175" />
    <sodipodi:guide
       position="46,2.0000174"
       orientation="-44,0"
       id="guide4177" />
    <sodipodi:guide
       position="46,46.000017"
       orientation="0,-43.999999"
       id="guide4179" />
    <sodipodi:guide
       position="3,45.000017"
       orientation="42,0"
       id="guide4183" />
    <sodipodi:guide
       position="45,3.0000174"
       orientation="-42,0"
       id="guide4187" />
    <sodipodi:guide
       position="45,45.000017"
       orientation="0,-42"
       id="guide4189" />
    <sodipodi:guide
       position="3,45.000017"
       orientation="42,0"
       id="guide4193" />
    <sodipodi:guide
       position="3,3.0000174"
       orientation="0,42"
       id="guide4195" />
    <sodipodi:guide
       position="45,3.0000174"
       orientation="-42,0"
       id="guide4197" />
    <sodipodi:guide
       position="45,45.000017"
       orientation="0,-42"
       id="guide4199" />
    <sodipodi:guide
       position="3,10.000017"
       orientation="7,0"
       id="guide4203" />
    <sodipodi:guide
       position="3,3.0000174"
       orientation="0,42"
       id="guide4205" />
    <sodipodi:guide
       position="45,3.0000174"
       orientation="-7,0"
       id="guide4207" />
    <sodipodi:guide
       position="45,10.000017"
       orientation="0,-42"
       id="guide4209" />
  </sodipodi:namedview>
  <metadata
     id="metadata4235">
    <rdf:RDF>
      <cc:Work
         rdf:about="">
        <dc:format>image/svg+xml</dc:format>
        <dc:type
           rdf:resource="http://purl.org/dc/dcmitype/StillImage" />
        <dc:title />
      </cc:Work>
    </rdf:RDF>
  </metadata>
  <g
     inkscape:groupmode="layer"
     id="layer3"
     inkscape:label="Fake blur shadow"
     style="display:inline"
     sodipodi:insensitive="true">
    <path
       style="opacity:0.06000001;fill:#000000;fill-opacity:1;stroke:none"
       d="M 10,1 C 5.014,1 1,5.014 1,10 l 0,28 c 0,4.986 4.014,9 9,9 l 28,0 c 4.986,0 9,-4.014 9,-9 L 47,10 C 47,5.014 42.986,1 38,1 L 10,1 z m 0.5,0.5 27,0 c 4.986,0 9,4.014 9,9 l 0,27 c 0,4.986 -4.014,9 -9,9 l -27,0 c -4.986,0 -9,-4.014 -9,-9 l 0,-27 c 0,-4.986 4.014,-9 9,-9 z"
       id="rect3829"
       inkscape:connector-curvature="0" />
    <path
       style="opacity:0.12000002;fill:#000000;fill-opacity:1;stroke:none"
       d="m 10.5,1.5 c -4.986,0 -9,4.014 -9,9 l 0,27 c 0,4.986 4.014,9 9,9 l 27,0 c 4.986,0 9,-4.014 9,-9 l 0,-27 c 0,-4.986 -4.014,-9 -9,-9 l -27,0 z m 0.25,0.25 26.5,0 c 4.986,0 9,4.014 9,9 l 0,26.5 c 0,4.986 -4.014,9 -9,9 l -26.5,0 c -4.986,0 -9,-4.014 -9,-9 l 0,-26.5 c 0,-4.986 4.014,-9 9,-9 z"
       id="rect3827"
       inkscape:connector-curvature="0" />
    <rect
       style="opacity:0.23999999;fill:#000000;fill-opacity:1;stroke:none"
       id="rect3038-4"
       width="44.5"
       height="44.5"
       x="1.75"
       y="1.75"
       ry="9"
       rx="9" />
  </g>
  <g
     inkscape:groupmode="layer"
     id="layer6"
     inkscape:label="Blob"
     style="display:inline"
     sodipodi:insensitive="true">
    <path
       style="opacity:0.3;fill:url(#radialGradient4274);fill-opacity:1;stroke:none"
       d="M 1.03125,39 C 1.5192036,43.518898 5.3471961,47 10,47 l 28,0 c 4.652804,0 8.480796,-3.481102 8.96875,-8 l -45.9375,0 z"
       id="rect4241"
       inkscape:connector-curvature="0" />
  </g>
  <g
     inkscape:groupmode="layer"
     id="layer2"
     inkscape:label="Baseplate"
     style="display:inline">
    <path
       transform="matrix(0.65873288,0,0,0.65588294,39.565012,29.354171)"
       d="m -28,8.5 a 1.5,1.5 0 1 1 -3,0 1.5,1.5 0 1 1 3,0 z"
       sodipodi:ry="1.5"
       sodipodi:rx="1.5"
       sodipodi:cy="8.5"
       sodipodi:cx="-29.5"
       id="path3934"
       style="fill:#000000;stroke:none;fill-opacity:1;opacity:0.15"
       sodipodi:type="arc" />
    <rect
       style="fill:url(#linearGradient4530);fill-opacity:1;stroke:none"
       id="rect3038"
       width="44"
       height="44"
       x="2"
       y="1.9999826"
       ry="9"
       rx="9" />
    <path
       transform="matrix(0.65873288,0,0,0.65588294,33.967529,24.180406)"
       d="m -28,8.5 a 1.5,1.5 0 1 1 -3,0 1.5,1.5 0 1 1 3,0 z"
       sodipodi:ry="1.5"
       sodipodi:rx="1.5"
       sodipodi:cy="8.5"
       sodipodi:cx="-29.5"
       id="path3936"
       style="fill:#000000;stroke:none;fill-opacity:1;opacity:0.15"
       sodipodi:type="arc" />
    <path
       style="opacity:0.15;fill:#000000;fill-opacity:1;stroke:none"
       d="m 23.756855,27.994328 0.04366,0.630449 c 0,0 -4.541497,-0.478272 -5.000013,-1.586994 0,0 3.318789,1.065244 4.956349,0.956545 z"
       id="path3904"
       inkscape:connector-curvature="0" />
    <path
       style="opacity:0.15;fill:#000000;fill-opacity:1;stroke:none"
       d="m 32.359497,32.646613 c 0,0 -0.829697,0.130438 -0.436683,1.23916 0,0 0.567687,0.978285 1.550223,0.304355 0,0 1.026204,-0.847847 -1.11354,-1.543515 z"
       id="path3906"
       inkscape:connector-curvature="0" />
    <path
       style="opacity:0.15;fill:#000000;fill-opacity:1;stroke:none"
       d="m 18.101819,32.603133 c 0,0 0.982535,0.239137 -0.676858,1.130463 -1.659392,0.891326 -1.943237,0.304356 -2.183412,-0.217397 -0.240175,-0.521751 1.157208,-1.521775 1.659393,-1.413077 0.502185,0.108699 1.048038,0.413053 1.200877,0.500011 z"
       id="path3908"
       inkscape:connector-curvature="0" />
    <path
       style="opacity:0.15;fill:#000000;fill-opacity:1;stroke:none"
       d="m 33.16736,30.97266 c 0,0 -0.52402,0.282616 0.262008,0.630449 0.786028,0.347836 2.48909,0.413054 2.48909,0.413054 0,0 0.873364,-0.04347 1.048037,-0.782627 0.174673,-0.739148 -1.353715,-1.043504 -1.703061,-1.021764 -0.349345,0.02175 -2.096074,0.760888 -2.096074,0.760888 z"
       id="path3910"
       inkscape:connector-curvature="0" />
    <path
       style="opacity:0.15;fill:#000000;fill-opacity:1;stroke:none"
       d="m 17.066913,18.349278 3.612738,-0.276701 1.235124,-3.012962 1.142491,3.443385 2.59376,-1.84467 1.821808,0.891591 0.216147,-2.428817 3.056932,1.444993 c 0,0 0.524928,-0.215212 -1.389514,-1.598715 -1.914443,-1.383504 -5.2184,-3.81232 -5.2184,-3.81232 0,0 -0.710196,-0.491912 -1.513027,0.276701 0,0 -2.408492,1.291269 -4.539081,3.812319 0,0 -1.420393,1.076058 -1.018978,3.105196 z"
       id="path3902"
       inkscape:connector-curvature="0" />
    <path
       style="opacity:0.15;fill:none;stroke:#000000;stroke-width:0.99929529;stroke-linecap:butt;stroke-linejoin:miter;stroke-miterlimit:4;stroke-opacity:1;stroke-dasharray:none"
       d="m 20.370871,34.982183 c 2.068832,-0.122978 1.729173,1.22978 1.729173,1.22978 0.247025,1.967649 3.026054,1.137547 3.026054,1.137547 4.477326,-1.352759 2.346736,-2.090626 2.346736,-2.090626 -1.790929,-0.707124 0.710196,-1.567971 0.710196,-1.567971 0,0 2.161467,-0.768613 3.056933,-1.56797 0.895465,-0.799357 1.018977,-0.830102 1.049856,-0.983824 0,0 -1.018978,-1.014569 -1.574784,-1.22978 0,0 -1.358636,-0.614891 -1.173368,-1.01457 0,0 -0.339659,-0.584145 0.926344,-0.830102 0,0 5.650692,-1.106802 6.762304,-2.213604 0,0 2.254102,-1.137547 0.277903,-3.904554 L 26.422978,10.84774 c 0,0 -2.501125,-2.9822176 -5.434546,0 L 10.61339,21.27013 c 0,0 -2.7172737,2.767006 -0.277903,3.289662 0,0 7.904794,1.752438 4.662594,2.705518 -0.9881,0.430423 -1.142491,0.614891 -1.790931,0.983824 0,0 -1.235124,0.799357 1.358636,1.444992"
       id="path3132"
       inkscape:connector-curvature="0"
       sodipodi:nodetypes="cccccsccccccccccccc" />
    <path
       sodipodi:nodetypes="cccccsccccccccccccc"
       inkscape:connector-curvature="0"
       id="path3318"
       d="m 20.370871,33.982028 c 2.068832,-0.122979 1.729173,1.22978 1.729173,1.22978 0.247025,1.967649 3.026054,1.137547 3.026054,1.137547 4.477326,-1.352759 2.346736,-2.090627 2.346736,-2.090627 -1.790929,-0.707123 0.710196,-1.56797 0.710196,-1.56797 0,0 2.161467,-0.768613 3.056933,-1.56797 0.895465,-0.799357 1.018977,-0.830102 1.049856,-0.983825 0,0 -1.018978,-1.014568 -1.574784,-1.22978 0,0 -1.358636,-0.61489 -1.173368,-1.014569 0,0 -0.339659,-0.584146 0.926344,-0.830102 0,0 5.650692,-1.106802 6.762304,-2.213605 0,0 2.254102,-1.137546 0.277903,-3.904553 L 26.422978,9.8475845 c 0,0 -2.501125,-2.9822173 -5.434546,0 L 10.61339,20.269975 c 0,0 -2.7172737,2.767006 -0.277903,3.289662 0,0 7.904794,1.752437 4.662594,2.705518 -0.9881,0.430423 -1.142491,0.61489 -1.790931,0.983824 0,0 -1.235124,0.799357 1.358636,1.444992"
       style="fill:none;stroke:#800000;stroke-width:0.99929529;stroke-linecap:butt;stroke-linejoin:miter;stroke-miterlimit:4;stroke-opacity:1;stroke-dasharray:none" />
    <path
       inkscape:connector-curvature="0"
       id="path3320"
       d="m 17.066913,17.349246 3.612738,-0.276701 1.235124,-3.012962 1.142491,3.443385 2.59376,-1.84467 1.821808,0.891591 0.216147,-2.428817 3.056932,1.444993 c 0,0 0.524928,-0.215212 -1.389514,-1.598715 -1.914443,-1.383504 -5.2184,-3.81232 -5.2184,-3.81232 0,0 -0.710196,-0.491912 -1.513027,0.276701 0,0 -2.408492,1.291269 -4.539081,3.812319 0,0 -1.420393,1.076058 -1.018978,3.105196 z"
       style="fill:#800000;stroke:none" />
    <path
       inkscape:connector-curvature="0"
       id="path3322"
       d="m 23.756855,26.994276 0.04366,0.630449 c 0,0 -4.541497,-0.478272 -5.000013,-1.586994 0,0 3.318789,1.065244 4.956349,0.956545 z"
       style="fill:#800000;stroke:none" />
    <path
       inkscape:connector-curvature="0"
       id="path3324"
       d="m 32.359497,31.646561 c 0,0 -0.829697,0.130438 -0.436683,1.239161 0,0 0.567687,0.978284 1.550223,0.304354 0,0 1.026204,-0.847847 -1.11354,-1.543515 z"
       style="fill:#800000;stroke:none" />
    <path
       inkscape:connector-curvature="0"
       id="path3326"
       d="m 18.101819,31.603082 c 0,0 0.982535,0.239136 -0.676858,1.130462 -1.659392,0.891326 -1.943237,0.304356 -2.183412,-0.217396 -0.240175,-0.521752 1.157208,-1.521776 1.659393,-1.413078 0.502185,0.108699 1.048038,0.413053 1.200877,0.500012 z"
       style="fill:#800000;stroke:none" />
    <path
       inkscape:connector-curvature="0"
       id="path3328"
       d="m 33.16736,29.972608 c 0,0 -0.52402,0.282616 0.262008,0.630449 0.786028,0.347836 2.48909,0.413055 2.48909,0.413055 0,0 0.873364,-0.04347 1.048037,-0.782628 0.174673,-0.739148 -1.353715,-1.043504 -1.703061,-1.021763 -0.349345,0.02174 -2.096074,0.760887 -2.096074,0.760887 z"
       style="fill:#800000;stroke:none" />
    <path
       sodipodi:type="arc"
       style="fill:#ff8080;stroke:none"
       id="path3332"
       sodipodi:cx="-29.5"
       sodipodi:cy="8.5"
       sodipodi:rx="1.5"
       sodipodi:ry="1.5"
       d="m -28,8.5 a 1.5,1.5 0 1 1 -3,0 1.5,1.5 0 1 1 3,0 z"
       transform="matrix(0.65873288,0,0,0.65588294,39.565012,28.35422)" />
    <path
       d="m -28,8.5 a 1.5,1.5 0 1 1 -3,0 1.5,1.5 0 1 1 3,0 z"
       sodipodi:ry="1.5"
       sodipodi:rx="1.5"
       sodipodi:cy="8.5"
       sodipodi:cx="-29.5"
       id="path3334"
       style="fill:#ffffff;stroke:none"
       sodipodi:type="arc"
       transform="matrix(0.32936644,0,0,0.32794147,29.848702,31.141722)" />
    <path
       sodipodi:type="arc"
       style="fill:#ff8080;stroke:none"
       id="path3338"
       sodipodi:cx="-29.5"
       sodipodi:cy="8.5"
       sodipodi:rx="1.5"
       sodipodi:ry="1.5"
       d="m -28,8.5 a 1.5,1.5 0 1 1 -3,0 1.5,1.5 0 1 1 3,0 z"
       transform="matrix(0.65873288,0,0,0.65588294,33.967529,23.180455)" />
    <path
       d="m -28,8.5 a 1.5,1.5 0 1 1 -3,0 1.5,1.5 0 1 1 3,0 z"
       sodipodi:ry="1.5"
       sodipodi:rx="1.5"
       sodipodi:cy="8.5"
       sodipodi:cx="-29.5"
       id="path3340"
       style="fill:#ffffff;stroke:none"
       sodipodi:type="arc"
       transform="matrix(0.32936644,0,0,0.32794147,24.251219,25.967957)" />
  </g>
  <g
     inkscape:label="Symbol"
     inkscape:groupmode="layer"
     id="layer1"
     transform="translate(0,-1004.3622)"
     style="display:inline" />
  <g
     inkscape:groupmode="layer"
     id="layer4"
     inkscape:label="Inset"
     sodipodi:insensitive="true"
     style="display:inline">
    <path
       style="opacity:0.15;fill:#000000;fill-opacity:1;stroke:none"
       d="m 2,34 0,3 c 0,4.986 4.014,9 9,9 l 26,0 c 4.986,0 9,-4.014 9,-9 l 0,-3 c 0,4.986 -4.014,9 -9,9 L 11,43 C 6.014,43 2,38.986 2,34 z"
       id="rect3038-42"
       inkscape:connector-curvature="0" />
  </g>
  <g
     inkscape:groupmode="layer"
     id="layer7"
     inkscape:label="Baseshape"
     sodipodi:insensitive="true"
     style="display:none">
    <rect
       rx="9"
       ry="9"
       y="2"
       x="2"
       height="44"
       width="44"
       id="rect4169"
       style="fill:#abe1ad;fill-opacity:1;stroke:none;display:inline" />
  </g>
</svg>
