<?xml version="1.0" encoding="UTF-8" standalone="no"?>
<!-- Created with Inkscape (http://www.inkscape.org/) -->

<svg
   xmlns:dc="http://purl.org/dc/elements/1.1/"
   xmlns:cc="http://creativecommons.org/ns#"
   xmlns:rdf="http://www.w3.org/1999/02/22-rdf-syntax-ns#"
   xmlns:svg="http://www.w3.org/2000/svg"
   xmlns="http://www.w3.org/2000/svg"
   xmlns:xlink="http://www.w3.org/1999/xlink"
   xmlns:sodipodi="http://sodipodi.sourceforge.net/DTD/sodipodi-0.dtd"
   xmlns:inkscape="http://www.inkscape.org/namespaces/inkscape"
   width="48"
   height="48"
   id="svg4230"
   version="1.1"
   inkscape:version="0.48.4 r9939"
   sodipodi:docname="inkscape-2.svg">
  <defs
     id="defs4232">
    <linearGradient
       id="linearGradient3082">
      <stop
         style="stop-color:#ffc34f;stop-opacity:1;"
         offset="0"
         id="stop3084" />
      <stop
         id="stop3090"
         offset="0.5"
         style="stop-color:#ff4100;stop-opacity:1;" />
      <stop
         style="stop-color:#ff0076;stop-opacity:1;"
         offset="0.75"
         id="stop3092" />
      <stop
         style="stop-color:#ff8700;stop-opacity:1;"
         offset="1"
         id="stop3086" />
    </linearGradient>
    <linearGradient
       id="linearGradient4524">
      <stop
         style="stop-color:#dddddd;stop-opacity:1;"
         offset="0"
         id="stop4526" />
      <stop
         style="stop-color:#ffffff;stop-opacity:1;"
         offset="1"
         id="stop4528" />
    </linearGradient>
    <linearGradient
       id="linearGradient4512">
      <stop
         style="stop-color:#d9d2d1;stop-opacity:1;"
         offset="0"
         id="stop4514" />
      <stop
         style="stop-color:#fefcfc;stop-opacity:1;"
         offset="1"
         id="stop4516" />
    </linearGradient>
    <linearGradient
       id="linearGradient4243">
      <stop
         style="stop-color:#000000;stop-opacity:1;"
         offset="0"
         id="stop4245" />
      <stop
         style="stop-color:#000000;stop-opacity:0;"
         offset="1"
         id="stop4247" />
    </linearGradient>
    <linearGradient
       id="linearGradient4216">
      <stop
         style="stop-color:#a0c4e6;stop-opacity:1;"
         offset="0"
         id="stop4218" />
      <stop
         style="stop-color:#d0e2f1;stop-opacity:1;"
         offset="1"
         id="stop4220" />
    </linearGradient>
    <linearGradient
       id="linearGradient4208">
      <stop
         style="stop-color:#70a3d6;stop-opacity:1;"
         offset="0"
         id="stop4210" />
      <stop
         style="stop-color:#88b6e1;stop-opacity:1;"
         offset="1"
         id="stop4212" />
    </linearGradient>
    <linearGradient
       id="linearGradient4200">
      <stop
         style="stop-color:#427dbe;stop-opacity:1;"
         offset="0"
         id="stop4202" />
      <stop
         style="stop-color:#739bd1;stop-opacity:1;"
         offset="1"
         id="stop4204" />
    </linearGradient>
    <linearGradient
       id="linearGradient4192">
      <stop
         style="stop-color:#4970a4;stop-opacity:1;"
         offset="0"
         id="stop4194" />
      <stop
         style="stop-color:#6090c0;stop-opacity:1;"
         offset="1"
         id="stop4196" />
    </linearGradient>
    <radialGradient
       inkscape:collect="always"
       xlink:href="#linearGradient3688-166-749-5-9-1"
       id="radialGradient4351"
       gradientUnits="userSpaceOnUse"
       gradientTransform="matrix(2.3201711,0,0,0.39999996,28.617836,28.600002)"
       cx="4.9929786"
       cy="43.5"
       fx="4.9929786"
       fy="43.5"
       r="2.5" />
    <linearGradient
       id="linearGradient3688-166-749-5-9-1">
      <stop
         id="stop2883-0-2-9"
         style="stop-color:#181818;stop-opacity:1"
         offset="0" />
      <stop
         id="stop2885-5-3-8"
         style="stop-color:#181818;stop-opacity:0"
         offset="1" />
    </linearGradient>
    <linearGradient
       id="linearGradient3688-464-309-8-9-4">
      <stop
         id="stop2889-9-9-1"
         style="stop-color:#181818;stop-opacity:1"
         offset="0" />
      <stop
         id="stop2891-4-2-9"
         style="stop-color:#181818;stop-opacity:0"
         offset="1" />
    </linearGradient>
    <linearGradient
       id="linearGradient3702-501-757-0-4-0">
      <stop
         id="stop2895-0-2-1"
         style="stop-color:#181818;stop-opacity:0"
         offset="0" />
      <stop
         id="stop2897-2-8-2"
         style="stop-color:#181818;stop-opacity:1"
         offset="0.5" />
      <stop
         id="stop2899-6-1-6"
         style="stop-color:#181818;stop-opacity:0"
         offset="1" />
    </linearGradient>
    <linearGradient
       id="linearGradient3811-3">
      <stop
         style="stop-color:#000000;stop-opacity:1;"
         offset="0"
         id="stop3813-0" />
      <stop
         style="stop-color:#000000;stop-opacity:0;"
         offset="1"
         id="stop3815-0" />
    </linearGradient>
    <clipPath
       id="clipPath-887332295">
      <g
         id="g3945"
         transform="translate(0,-1004.3622)">
        <rect
           id="rect3947"
           fill="#1890d0"
           width="46"
           height="46"
           x="1"
           y="1005.36"
           rx="4" />
      </g>
    </clipPath>
    <clipPath
       id="clipPath-867792831">
      <g
         id="g3940"
         transform="translate(0,-1004.3622)">
        <rect
           id="rect3942"
           fill="#1890d0"
           width="46"
           height="46"
           x="1"
           y="1005.36"
           rx="4" />
      </g>
    </clipPath>
    <linearGradient
       gradientTransform="translate(-47.997785,0.00221467)"
       gradientUnits="userSpaceOnUse"
       x2="47"
       x1="1"
       id="linearGradient3764">
      <stop
         id="stop3935"
         stop-opacity="1"
         stop-color="#e4e4e4" />
      <stop
         id="stop3937"
         stop-opacity="1"
         stop-color="#eee"
         offset="1" />
    </linearGradient>
    <radialGradient
       inkscape:collect="always"
       xlink:href="#linearGradient4243"
       id="radialGradient4274"
       gradientUnits="userSpaceOnUse"
       gradientTransform="matrix(1.0434782,0,0,0.1956518,-1.0434797,35.184809)"
       cx="24.000001"
       cy="42.499991"
       fx="24.000001"
       fy="42.499991"
       r="23" />
    <linearGradient
       inkscape:collect="always"
       xlink:href="#linearGradient4524"
       id="linearGradient4530"
       x1="24"
       y1="46"
       x2="24"
       y2="2"
       gradientUnits="userSpaceOnUse" />
    <linearGradient
       inkscape:collect="always"
       xlink:href="#linearGradient4512"
       id="linearGradient4554"
       gradientUnits="userSpaceOnUse"
       x1="12.5"
       y1="28.000042"
       x2="12.5"
       y2="17.000042" />
    <linearGradient
       inkscape:collect="always"
       xlink:href="#linearGradient3082"
       id="linearGradient3088"
       x1="24"
       y1="37"
       x2="24"
       y2="8"
       gradientUnits="userSpaceOnUse"
       gradientTransform="translate(60,0)" />
  </defs>
  <sodipodi:namedview
     id="base"
     pagecolor="#ffffff"
     bordercolor="#666666"
     borderopacity="1.0"
     inkscape:pageopacity="0.0"
     inkscape:pageshadow="2"
     inkscape:zoom="8"
     inkscape:cx="76.649865"
     inkscape:cy="23.102529"
     inkscape:document-units="px"
     inkscape:current-layer="layer2"
     showgrid="true"
     inkscape:showpageshadow="false"
     borderlayer="true"
     inkscape:window-width="1306"
     inkscape:window-height="950"
     inkscape:window-x="299"
     inkscape:window-y="22"
     inkscape:window-maximized="0"
     showguides="false"
     inkscape:guide-bbox="true">
    <inkscape:grid
       type="xygrid"
       id="grid4162" />
    <sodipodi:guide
       position="1.0000013,47.000017"
       orientation="46,0"
       id="guide4163" />
    <sodipodi:guide
       position="1.0000013,1.0000174"
       orientation="0,45.999999"
       id="guide4165" />
    <sodipodi:guide
       position="47,1.0000174"
       orientation="-46,0"
       id="guide4167" />
    <sodipodi:guide
       position="47,47.000017"
       orientation="0,-45.999999"
       id="guide4169" />
    <sodipodi:guide
       position="2.0000007,46.000017"
       orientation="44,0"
       id="guide4173" />
    <sodipodi:guide
       position="2.0000007,2.0000174"
       orientation="0,43.999999"
       id="guide4175" />
    <sodipodi:guide
       position="46,2.0000174"
       orientation="-44,0"
       id="guide4177" />
    <sodipodi:guide
       position="46,46.000017"
       orientation="0,-43.999999"
       id="guide4179" />
    <sodipodi:guide
       position="3,45.000017"
       orientation="42,0"
       id="guide4183" />
    <sodipodi:guide
       position="45,3.0000174"
       orientation="-42,0"
       id="guide4187" />
    <sodipodi:guide
       position="45,45.000017"
       orientation="0,-42"
       id="guide4189" />
    <sodipodi:guide
       position="3,45.000017"
       orientation="42,0"
       id="guide4193" />
    <sodipodi:guide
       position="3,3.0000174"
       orientation="0,42"
       id="guide4195" />
    <sodipodi:guide
       position="45,3.0000174"
       orientation="-42,0"
       id="guide4197" />
    <sodipodi:guide
       position="45,45.000017"
       orientation="0,-42"
       id="guide4199" />
    <sodipodi:guide
       position="3,10.000017"
       orientation="7,0"
       id="guide4203" />
    <sodipodi:guide
       position="3,3.0000174"
       orientation="0,42"
       id="guide4205" />
    <sodipodi:guide
       position="45,3.0000174"
       orientation="-7,0"
       id="guide4207" />
    <sodipodi:guide
       position="45,10.000017"
       orientation="0,-42"
       id="guide4209" />
  </sodipodi:namedview>
  <metadata
     id="metadata4235">
    <rdf:RDF>
      <cc:Work
         rdf:about="">
        <dc:format>image/svg+xml</dc:format>
        <dc:type
           rdf:resource="http://purl.org/dc/dcmitype/StillImage" />
        <dc:title></dc:title>
      </cc:Work>
    </rdf:RDF>
  </metadata>
  <g
     inkscape:groupmode="layer"
     id="layer3"
     inkscape:label="Fake blur shadow"
     style="display:inline"
     sodipodi:insensitive="true">
    <path
       style="opacity:0.06000001;fill:#000000;fill-opacity:1;stroke:none"
       d="M 10,1 C 5.014,1 1,5.014 1,10 l 0,28 c 0,4.986 4.014,9 9,9 l 28,0 c 4.986,0 9,-4.014 9,-9 L 47,10 C 47,5.014 42.986,1 38,1 L 10,1 z m 0.5,0.5 27,0 c 4.986,0 9,4.014 9,9 l 0,27 c 0,4.986 -4.014,9 -9,9 l -27,0 c -4.986,0 -9,-4.014 -9,-9 l 0,-27 c 0,-4.986 4.014,-9 9,-9 z"
       id="rect3829"
       inkscape:connector-curvature="0" />
    <path
       style="opacity:0.12000002;fill:#000000;fill-opacity:1;stroke:none"
       d="m 10.5,1.5 c -4.986,0 -9,4.014 -9,9 l 0,27 c 0,4.986 4.014,9 9,9 l 27,0 c 4.986,0 9,-4.014 9,-9 l 0,-27 c 0,-4.986 -4.014,-9 -9,-9 l -27,0 z m 0.25,0.25 26.5,0 c 4.986,0 9,4.014 9,9 l 0,26.5 c 0,4.986 -4.014,9 -9,9 l -26.5,0 c -4.986,0 -9,-4.014 -9,-9 l 0,-26.5 c 0,-4.986 4.014,-9 9,-9 z"
       id="rect3827"
       inkscape:connector-curvature="0" />
    <rect
       style="opacity:0.23999999;fill:#000000;fill-opacity:1;stroke:none"
       id="rect3038-4"
       width="44.5"
       height="44.5"
       x="1.75"
       y="1.75"
       ry="9"
       rx="9" />
  </g>
  <g
     inkscape:groupmode="layer"
     id="layer6"
     inkscape:label="Blob"
     style="display:inline"
     sodipodi:insensitive="true">
    <path
       style="opacity:0.3;fill:url(#radialGradient4274);fill-opacity:1;stroke:none"
       d="M 1.03125,39 C 1.5192036,43.518898 5.3471961,47 10,47 l 28,0 c 4.652804,0 8.480796,-3.481102 8.96875,-8 l -45.9375,0 z"
       id="rect4241"
       inkscape:connector-curvature="0" />
  </g>
  <g
     inkscape:groupmode="layer"
     id="layer2"
     inkscape:label="Baseplate"
     style="display:inline">
    <rect
       style="fill:url(#linearGradient4530);fill-opacity:1;stroke:none"
       id="rect3038"
       width="44"
       height="44"
       x="2"
       y="1.9999826"
       ry="9"
       rx="9" />
    <g
       id="g4176"
       style="opacity:0.15"
       transform="translate(0,26.9375)">
      <path
         style="fill:#000000;stroke:#000000;stroke-width:1;stroke-linecap:butt;stroke-linejoin:miter;stroke-miterlimit:4;stroke-opacity:1;stroke-dasharray:none"
         d="m 9.903478,-10.026999 0,13.303998"
         id="path4013"
         inkscape:connector-curvature="0" />
      <path
         style="fill:none;stroke:#000000;stroke-width:1;stroke-miterlimit:4"
         d="m 14.19652,3.125 c 3.589851,0 6.5,-2.910149 6.5,-6.5 0,-3.589851 -2.910149,-6.5 -6.5,-6.5"
         id="path4015"
         inkscape:connector-curvature="0"
         sodipodi:nodetypes="csc" />
      <path
         style="fill:none;stroke:#000000;stroke-width:1;stroke-miterlimit:4"
         d="m 24.717679,2.903518 c 3.46753,-0.929122 5.525316,-4.493312 4.596194,-7.960842 -0.929122,-3.46753 -4.493312,-5.525316 -7.960842,-4.596194 -3.467529,0.929122 -5.525316,4.493312 -4.596194,7.960842"
         id="path4017"
         inkscape:connector-curvature="0"
         sodipodi:nodetypes="cssc" />
      <path
         inkscape:connector-curvature="0"
         id="path4019"
         d="m 33.903478,-10.026999 0,13.303998"
         style="fill:#000000;stroke:#000000;stroke-width:1;stroke-linecap:butt;stroke-linejoin:miter;stroke-miterlimit:4;stroke-opacity:1;stroke-dasharray:none" />
      <path
         style="fill:#000000;stroke:#000000;stroke-width:1;stroke-linecap:butt;stroke-linejoin:miter;stroke-miterlimit:4;stroke-opacity:1;stroke-dasharray:none"
         d="m 38.205332,-7.280562 -4.603708,4.603708"
         id="path4021"
         inkscape:connector-curvature="0" />
      <path
         inkscape:connector-curvature="0"
         id="path4023"
         d="m 33.601624,-3.676854 4.603708,4.603708"
         style="fill:#000000;stroke:#000000;stroke-width:1;stroke-linecap:butt;stroke-linejoin:miter;stroke-miterlimit:4;stroke-opacity:1;stroke-dasharray:none" />
      <path
         id="path4027"
         d="m 9.90625,-10.875 c -0.5522846,0 -1,0.447715 -1,1 0,0.5522847 0.4477154,1 1,1 0.552285,0 1,-0.4477153 1,-1 0,-0.552285 -0.447715,-1 -1,-1 z m 4.28125,0 c -0.552284,0 -1,0.447715 -1,1 0,0.5522847 0.447716,1 1,1 0.552285,0 1,-0.4477153 1,-1 0,-0.552285 -0.447715,-1 -1,-1 z m 19.71875,0 c -0.552284,0 -1,0.447715 -1,1 0,0.5522847 0.447716,1 1,1 0.552285,0 1,-0.4477153 1,-1 0,-0.552285 -0.447715,-1 -1,-1 z m 4.1875,2.6875 c -0.552284,0 -1,0.4477153 -1,1 0,0.5522847 0.447716,1 1,1 0.552285,0 1,-0.4477153 1,-1 0,-0.5522847 -0.447715,-1 -1,-1 z m -4.1875,4 c -0.552284,0 -1,0.4477153 -1,1 0,0.5522847 0.447716,1 1,1 0.552285,0 1,-0.4477153 1,-1 0,-0.5522847 -0.447715,-1 -1,-1 z m -17.25,1.5 c -0.552284,0 -1,0.4477153 -1,1 0,0.5522847 0.447716,1 1,1 0.552285,0 1,-0.4477153 1,-1 0,-0.5522847 -0.447715,-1 -1,-1 z m 21.4375,2.5 c -0.552284,0 -1,0.44771527 -1,1 0,0.5522847 0.447716,1 1,1 0.552285,0 1,-0.4477153 1,-1 0,-0.55228473 -0.447715,-1 -1,-1 z m -28.1875,2.25 c -0.5522846,0 -1,0.4477153 -1,1 0,0.5522847 0.4477154,1 1,1 0.552285,0 1,-0.4477153 1,-1 0,-0.5522847 -0.447715,-1 -1,-1 z m 4.28125,0 c -0.552284,0 -1,0.4477153 -1,1 0,0.5522847 0.447716,1 1,1 0.552285,0 1,-0.4477153 1,-1 0,-0.5522847 -0.447715,-1 -1,-1 z m 10.53125,0 c -0.552284,0 -1,0.4477153 -1,1 0,0.5522847 0.447716,1 1,1 0.552285,0 1,-0.4477153 1,-1 0,-0.5522847 -0.447715,-1 -1,-1 z m 9.1875,0 c -0.552284,0 -1,0.4477153 -1,1 0,0.5522847 0.447716,1 1,1 0.552285,0 1,-0.4477153 1,-1 0,-0.5522847 -0.447715,-1 -1,-1 z"
         style="fill:#000000;stroke:none"
         inkscape:connector-curvature="0" />
    </g>
    <g
       id="g3970"
       transform="translate(48.69652,-0.0624999)">
      <path
         inkscape:connector-curvature="0"
         id="path3094"
         d="m -38.793042,15.973001 0,13.303998"
         style="fill:#000000;stroke:#800000;stroke-width:1;stroke-linecap:butt;stroke-linejoin:miter;stroke-miterlimit:4;stroke-opacity:1;stroke-dasharray:none" />
      <path
         sodipodi:nodetypes="csc"
         inkscape:connector-curvature="0"
         id="path3096"
         d="m -34.5,29.125 c 3.589851,0 6.5,-2.910149 6.5,-6.5 0,-3.589851 -2.910149,-6.5 -6.5,-6.5"
         style="fill:none;stroke:#800000;stroke-width:1;stroke-miterlimit:4" />
      <path
         sodipodi:nodetypes="cssc"
         inkscape:connector-curvature="0"
         id="path3882"
         d="m -23.978841,28.903518 c 3.46753,-0.929122 5.525316,-4.493312 4.596194,-7.960842 -0.929122,-3.46753 -4.493312,-5.525316 -7.960842,-4.596194 -3.467529,0.929122 -5.525316,4.493312 -4.596194,7.960842"
         style="fill:none;stroke:#800000;stroke-width:1;stroke-miterlimit:4" />
      <path
         style="fill:#000000;stroke:#800000;stroke-width:1;stroke-linecap:butt;stroke-linejoin:miter;stroke-miterlimit:4;stroke-opacity:1;stroke-dasharray:none"
         d="m -14.793042,15.973001 0,13.303998"
         id="path3893"
         inkscape:connector-curvature="0" />
      <path
         inkscape:connector-curvature="0"
         id="path3895"
         d="m -10.491188,18.719438 -4.603708,4.603708"
         style="fill:#000000;stroke:#800000;stroke-width:1;stroke-linecap:butt;stroke-linejoin:miter;stroke-miterlimit:4;stroke-opacity:1;stroke-dasharray:none" />
      <path
         style="fill:#000000;stroke:#800000;stroke-width:1;stroke-linecap:butt;stroke-linejoin:miter;stroke-miterlimit:4;stroke-opacity:1;stroke-dasharray:none"
         d="m -15.094896,22.323146 4.603708,4.603708"
         id="path3899"
         inkscape:connector-curvature="0" />
      <g
         transform="translate(-4.6250002,7.2500003)"
         id="g3905">
        <path
           sodipodi:type="arc"
           style="fill:#ff8080;stroke:none"
           id="path3901"
           sodipodi:cx="-29.5"
           sodipodi:cy="8.5"
           sodipodi:rx="1.5"
           sodipodi:ry="1.5"
           d="m -28,8.5 c 0,0.8284271 -0.671573,1.5 -1.5,1.5 -0.828427,0 -1.5,-0.6715729 -1.5,-1.5 0,-0.8284271 0.671573,-1.5 1.5,-1.5 0.828427,0 1.5,0.6715729 1.5,1.5 z"
           transform="matrix(0.66666667,0,0,0.66666667,-10.208333,3.2083332)" />
        <path
           d="m -28,8.5 c 0,0.8284271 -0.671573,1.5 -1.5,1.5 -0.828427,0 -1.5,-0.6715729 -1.5,-1.5 0,-0.8284271 0.671573,-1.5 1.5,-1.5 0.828427,0 1.5,0.6715729 1.5,1.5 z"
           sodipodi:ry="1.5"
           sodipodi:rx="1.5"
           sodipodi:cy="8.5"
           sodipodi:cx="-29.5"
           id="path3903"
           style="fill:#ffffff;stroke:none"
           sodipodi:type="arc"
           transform="matrix(0.33333333,0,0,0.33333333,-20.041666,6.0416666)" />
      </g>
      <g
         id="g3909"
         transform="translate(-4.6250002,20.1875)">
        <path
           transform="matrix(0.66666667,0,0,0.66666667,-10.208333,3.2083332)"
           d="m -28,8.5 c 0,0.8284271 -0.671573,1.5 -1.5,1.5 -0.828427,0 -1.5,-0.6715729 -1.5,-1.5 0,-0.8284271 0.671573,-1.5 1.5,-1.5 0.828427,0 1.5,0.6715729 1.5,1.5 z"
           sodipodi:ry="1.5"
           sodipodi:rx="1.5"
           sodipodi:cy="8.5"
           sodipodi:cx="-29.5"
           id="path3911"
           style="fill:#ff8080;stroke:none"
           sodipodi:type="arc" />
        <path
           transform="matrix(0.33333333,0,0,0.33333333,-20.041666,6.0416666)"
           sodipodi:type="arc"
           style="fill:#ffffff;stroke:none"
           id="path3913"
           sodipodi:cx="-29.5"
           sodipodi:cy="8.5"
           sodipodi:rx="1.5"
           sodipodi:ry="1.5"
           d="m -28,8.5 c 0,0.8284271 -0.671573,1.5 -1.5,1.5 -0.828427,0 -1.5,-0.6715729 -1.5,-1.5 0,-0.8284271 0.671573,-1.5 1.5,-1.5 0.828427,0 1.5,0.6715729 1.5,1.5 z" />
      </g>
      <g
         transform="translate(-2.1625001,15.4375)"
         id="g3915">
        <path
           sodipodi:type="arc"
           style="fill:#ff8080;stroke:none"
           id="path3917"
           sodipodi:cx="-29.5"
           sodipodi:cy="8.5"
           sodipodi:rx="1.5"
           sodipodi:ry="1.5"
           d="m -28,8.5 c 0,0.8284271 -0.671573,1.5 -1.5,1.5 -0.828427,0 -1.5,-0.6715729 -1.5,-1.5 0,-0.8284271 0.671573,-1.5 1.5,-1.5 0.828427,0 1.5,0.6715729 1.5,1.5 z"
           transform="matrix(0.66666667,0,0,0.66666667,-10.208333,3.2083332)" />
        <path
           d="m -28,8.5 c 0,0.8284271 -0.671573,1.5 -1.5,1.5 -0.828427,0 -1.5,-0.6715729 -1.5,-1.5 0,-0.8284271 0.671573,-1.5 1.5,-1.5 0.828427,0 1.5,0.6715729 1.5,1.5 z"
           sodipodi:ry="1.5"
           sodipodi:rx="1.5"
           sodipodi:cy="8.5"
           sodipodi:cx="-29.5"
           id="path3919"
           style="fill:#ffffff;stroke:none"
           sodipodi:type="arc"
           transform="matrix(0.33333333,0,0,0.33333333,-20.041666,6.0416666)" />
      </g>
      <g
         id="g3921"
         transform="translate(5.9000003,20.1875)">
        <path
           transform="matrix(0.66666667,0,0,0.66666667,-10.208333,3.2083332)"
           d="m -28,8.5 c 0,0.8284271 -0.671573,1.5 -1.5,1.5 -0.828427,0 -1.5,-0.6715729 -1.5,-1.5 0,-0.8284271 0.671573,-1.5 1.5,-1.5 0.828427,0 1.5,0.6715729 1.5,1.5 z"
           sodipodi:ry="1.5"
           sodipodi:rx="1.5"
           sodipodi:cy="8.5"
           sodipodi:cx="-29.5"
           id="path3923"
           style="fill:#ff8080;stroke:none"
           sodipodi:type="arc" />
        <path
           transform="matrix(0.33333333,0,0,0.33333333,-20.041666,6.0416666)"
           sodipodi:type="arc"
           style="fill:#ffffff;stroke:none"
           id="path3925"
           sodipodi:cx="-29.5"
           sodipodi:cy="8.5"
           sodipodi:rx="1.5"
           sodipodi:ry="1.5"
           d="m -28,8.5 c 0,0.8284271 -0.671573,1.5 -1.5,1.5 -0.828427,0 -1.5,-0.6715729 -1.5,-1.5 0,-0.8284271 0.671573,-1.5 1.5,-1.5 0.828427,0 1.5,0.6715729 1.5,1.5 z" />
      </g>
      <g
         transform="translate(15.087501,7.2500003)"
         id="g3927">
        <path
           sodipodi:type="arc"
           style="fill:#ff8080;stroke:none"
           id="path3929"
           sodipodi:cx="-29.5"
           sodipodi:cy="8.5"
           sodipodi:rx="1.5"
           sodipodi:ry="1.5"
           d="m -28,8.5 c 0,0.8284271 -0.671573,1.5 -1.5,1.5 -0.828427,0 -1.5,-0.6715729 -1.5,-1.5 0,-0.8284271 0.671573,-1.5 1.5,-1.5 0.828427,0 1.5,0.6715729 1.5,1.5 z"
           transform="matrix(0.66666667,0,0,0.66666667,-10.208333,3.2083332)" />
        <path
           d="m -28,8.5 c 0,0.8284271 -0.671573,1.5 -1.5,1.5 -0.828427,0 -1.5,-0.6715729 -1.5,-1.5 0,-0.8284271 0.671573,-1.5 1.5,-1.5 0.828427,0 1.5,0.6715729 1.5,1.5 z"
           sodipodi:ry="1.5"
           sodipodi:rx="1.5"
           sodipodi:cy="8.5"
           sodipodi:cx="-29.5"
           id="path3931"
           style="fill:#ffffff;stroke:none"
           sodipodi:type="arc"
           transform="matrix(0.33333333,0,0,0.33333333,-20.041666,6.0416666)" />
      </g>
      <g
         id="g3933"
         transform="translate(15.087501,20.1875)">
        <path
           transform="matrix(0.66666667,0,0,0.66666667,-10.208333,3.2083332)"
           d="m -28,8.5 c 0,0.8284271 -0.671573,1.5 -1.5,1.5 -0.828427,0 -1.5,-0.6715729 -1.5,-1.5 0,-0.8284271 0.671573,-1.5 1.5,-1.5 0.828427,0 1.5,0.6715729 1.5,1.5 z"
           sodipodi:ry="1.5"
           sodipodi:rx="1.5"
           sodipodi:cy="8.5"
           sodipodi:cx="-29.5"
           id="path3935"
           style="fill:#ff8080;stroke:none"
           sodipodi:type="arc" />
        <path
           transform="matrix(0.33333333,0,0,0.33333333,-20.041666,6.0416666)"
           sodipodi:type="arc"
           style="fill:#ffffff;stroke:none"
           id="path3937"
           sodipodi:cx="-29.5"
           sodipodi:cy="8.5"
           sodipodi:rx="1.5"
           sodipodi:ry="1.5"
           d="m -28,8.5 c 0,0.8284271 -0.671573,1.5 -1.5,1.5 -0.828427,0 -1.5,-0.6715729 -1.5,-1.5 0,-0.8284271 0.671573,-1.5 1.5,-1.5 0.828427,0 1.5,0.6715729 1.5,1.5 z" />
      </g>
      <g
         transform="translate(15.087501,13.948146)"
         id="g3939">
        <path
           sodipodi:type="arc"
           style="fill:#ff8080;stroke:none"
           id="path3941"
           sodipodi:cx="-29.5"
           sodipodi:cy="8.5"
           sodipodi:rx="1.5"
           sodipodi:ry="1.5"
           d="m -28,8.5 c 0,0.8284271 -0.671573,1.5 -1.5,1.5 -0.828427,0 -1.5,-0.6715729 -1.5,-1.5 0,-0.8284271 0.671573,-1.5 1.5,-1.5 0.828427,0 1.5,0.6715729 1.5,1.5 z"
           transform="matrix(0.66666667,0,0,0.66666667,-10.208333,3.2083332)" />
        <path
           d="m -28,8.5 c 0,0.8284271 -0.671573,1.5 -1.5,1.5 -0.828427,0 -1.5,-0.6715729 -1.5,-1.5 0,-0.8284271 0.671573,-1.5 1.5,-1.5 0.828427,0 1.5,0.6715729 1.5,1.5 z"
           sodipodi:ry="1.5"
           sodipodi:rx="1.5"
           sodipodi:cy="8.5"
           sodipodi:cx="-29.5"
           id="path3943"
           style="fill:#ffffff;stroke:none"
           sodipodi:type="arc"
           transform="matrix(0.33333333,0,0,0.33333333,-20.041666,6.0416666)" />
      </g>
      <g
         id="g3946"
         transform="translate(19.275001,9.9481458)">
        <path
           transform="matrix(0.66666667,0,0,0.66666667,-10.208333,3.2083332)"
           d="m -28,8.5 c 0,0.8284271 -0.671573,1.5 -1.5,1.5 -0.828427,0 -1.5,-0.6715729 -1.5,-1.5 0,-0.8284271 0.671573,-1.5 1.5,-1.5 0.828427,0 1.5,0.6715729 1.5,1.5 z"
           sodipodi:ry="1.5"
           sodipodi:rx="1.5"
           sodipodi:cy="8.5"
           sodipodi:cx="-29.5"
           id="path3948"
           style="fill:#ff8080;stroke:none"
           sodipodi:type="arc" />
        <path
           transform="matrix(0.33333333,0,0,0.33333333,-20.041666,6.0416666)"
           sodipodi:type="arc"
           style="fill:#ffffff;stroke:none"
           id="path3950"
           sodipodi:cx="-29.5"
           sodipodi:cy="8.5"
           sodipodi:rx="1.5"
           sodipodi:ry="1.5"
           d="m -28,8.5 c 0,0.8284271 -0.671573,1.5 -1.5,1.5 -0.828427,0 -1.5,-0.6715729 -1.5,-1.5 0,-0.8284271 0.671573,-1.5 1.5,-1.5 0.828427,0 1.5,0.6715729 1.5,1.5 z" />
      </g>
      <g
         transform="translate(19.275001,17.948146)"
         id="g3952">
        <path
           sodipodi:type="arc"
           style="fill:#ff8080;stroke:none"
           id="path3954"
           sodipodi:cx="-29.5"
           sodipodi:cy="8.5"
           sodipodi:rx="1.5"
           sodipodi:ry="1.5"
           d="m -28,8.5 c 0,0.8284271 -0.671573,1.5 -1.5,1.5 -0.828427,0 -1.5,-0.6715729 -1.5,-1.5 0,-0.8284271 0.671573,-1.5 1.5,-1.5 0.828427,0 1.5,0.6715729 1.5,1.5 z"
           transform="matrix(0.66666667,0,0,0.66666667,-10.208333,3.2083332)" />
        <path
           d="m -28,8.5 c 0,0.8284271 -0.671573,1.5 -1.5,1.5 -0.828427,0 -1.5,-0.6715729 -1.5,-1.5 0,-0.8284271 0.671573,-1.5 1.5,-1.5 0.828427,0 1.5,0.6715729 1.5,1.5 z"
           sodipodi:ry="1.5"
           sodipodi:rx="1.5"
           sodipodi:cy="8.5"
           sodipodi:cx="-29.5"
           id="path3956"
           style="fill:#ffffff;stroke:none"
           sodipodi:type="arc"
           transform="matrix(0.33333333,0,0,0.33333333,-20.041666,6.0416666)" />
      </g>
      <g
         id="g3958"
         transform="translate(-8.9180422,7.2500003)">
        <path
           transform="matrix(0.66666667,0,0,0.66666667,-10.208333,3.2083332)"
           d="m -28,8.5 c 0,0.8284271 -0.671573,1.5 -1.5,1.5 -0.828427,0 -1.5,-0.6715729 -1.5,-1.5 0,-0.8284271 0.671573,-1.5 1.5,-1.5 0.828427,0 1.5,0.6715729 1.5,1.5 z"
           sodipodi:ry="1.5"
           sodipodi:rx="1.5"
           sodipodi:cy="8.5"
           sodipodi:cx="-29.5"
           id="path3960"
           style="fill:#ff8080;stroke:none"
           sodipodi:type="arc" />
        <path
           transform="matrix(0.33333333,0,0,0.33333333,-20.041666,6.0416666)"
           sodipodi:type="arc"
           style="fill:#ffffff;stroke:none"
           id="path3962"
           sodipodi:cx="-29.5"
           sodipodi:cy="8.5"
           sodipodi:rx="1.5"
           sodipodi:ry="1.5"
           d="m -28,8.5 c 0,0.8284271 -0.671573,1.5 -1.5,1.5 -0.828427,0 -1.5,-0.6715729 -1.5,-1.5 0,-0.8284271 0.671573,-1.5 1.5,-1.5 0.828427,0 1.5,0.6715729 1.5,1.5 z" />
      </g>
      <g
         transform="translate(-8.9180422,20.1875)"
         id="g3964">
        <path
           sodipodi:type="arc"
           style="fill:#ff8080;stroke:none"
           id="path3966"
           sodipodi:cx="-29.5"
           sodipodi:cy="8.5"
           sodipodi:rx="1.5"
           sodipodi:ry="1.5"
           d="m -28,8.5 c 0,0.8284271 -0.671573,1.5 -1.5,1.5 -0.828427,0 -1.5,-0.6715729 -1.5,-1.5 0,-0.8284271 0.671573,-1.5 1.5,-1.5 0.828427,0 1.5,0.6715729 1.5,1.5 z"
           transform="matrix(0.66666667,0,0,0.66666667,-10.208333,3.2083332)" />
        <path
           d="m -28,8.5 c 0,0.8284271 -0.671573,1.5 -1.5,1.5 -0.828427,0 -1.5,-0.6715729 -1.5,-1.5 0,-0.8284271 0.671573,-1.5 1.5,-1.5 0.828427,0 1.5,0.6715729 1.5,1.5 z"
           sodipodi:ry="1.5"
           sodipodi:rx="1.5"
           sodipodi:cy="8.5"
           sodipodi:cx="-29.5"
           id="path3968"
           style="fill:#ffffff;stroke:none"
           sodipodi:type="arc"
           transform="matrix(0.33333333,0,0,0.33333333,-20.041666,6.0416666)" />
      </g>
    </g>
  </g>
  <g
     inkscape:label="Symbol"
     inkscape:groupmode="layer"
     id="layer1"
     transform="translate(0,-1004.3622)"
     style="display:inline" />
  <g
     inkscape:groupmode="layer"
     id="layer4"
     inkscape:label="Inset"
     sodipodi:insensitive="true"
     style="display:inline">
    <path
       style="opacity:0.15;fill:#000000;fill-opacity:1;stroke:none"
       d="m 2,34 0,3 c 0,4.986 4.014,9 9,9 l 26,0 c 4.986,0 9,-4.014 9,-9 l 0,-3 c 0,4.986 -4.014,9 -9,9 L 11,43 C 6.014,43 2,38.986 2,34 z"
       id="rect3038-42"
       inkscape:connector-curvature="0" />
  </g>
  <g
     inkscape:groupmode="layer"
     id="layer7"
     inkscape:label="Baseshape"
     sodipodi:insensitive="true"
     style="display:none">
    <rect
       rx="9"
       ry="9"
       y="2"
       x="2"
       height="44"
       width="44"
       id="rect4169"
       style="fill:#abe1ad;fill-opacity:1;stroke:none;display:inline" />
  </g>
</svg>
