<?xml version="1.0" encoding="UTF-8" standalone="no"?>
<!-- Created with Inkscape (http://www.inkscape.org/) -->

<svg
   xmlns:dc="http://purl.org/dc/elements/1.1/"
   xmlns:cc="http://creativecommons.org/ns#"
   xmlns:rdf="http://www.w3.org/1999/02/22-rdf-syntax-ns#"
   xmlns:svg="http://www.w3.org/2000/svg"
   xmlns="http://www.w3.org/2000/svg"
   xmlns:xlink="http://www.w3.org/1999/xlink"
   xmlns:sodipodi="http://sodipodi.sourceforge.net/DTD/sodipodi-0.dtd"
   xmlns:inkscape="http://www.inkscape.org/namespaces/inkscape"
   width="48"
   height="48"
   id="svg4230"
   version="1.1"
   inkscape:version="0.48.4 r9939"
   sodipodi:docname="inkscape-2.svg">
  <defs
     id="defs4232">
    <linearGradient
       id="linearGradient3082">
      <stop
         style="stop-color:#ffc34f;stop-opacity:1;"
         offset="0"
         id="stop3084" />
      <stop
         id="stop3090"
         offset="0.5"
         style="stop-color:#ff4100;stop-opacity:1;" />
      <stop
         style="stop-color:#ff0076;stop-opacity:1;"
         offset="0.75"
         id="stop3092" />
      <stop
         style="stop-color:#ff8700;stop-opacity:1;"
         offset="1"
         id="stop3086" />
    </linearGradient>
    <linearGradient
       id="linearGradient4524">
      <stop
         style="stop-color:#dddddd;stop-opacity:1;"
         offset="0"
         id="stop4526" />
      <stop
         style="stop-color:#ffffff;stop-opacity:1;"
         offset="1"
         id="stop4528" />
    </linearGradient>
    <linearGradient
       id="linearGradient4512">
      <stop
         style="stop-color:#d9d2d1;stop-opacity:1;"
         offset="0"
         id="stop4514" />
      <stop
         style="stop-color:#fefcfc;stop-opacity:1;"
         offset="1"
         id="stop4516" />
    </linearGradient>
    <linearGradient
       id="linearGradient4243">
      <stop
         style="stop-color:#000000;stop-opacity:1;"
         offset="0"
         id="stop4245" />
      <stop
         style="stop-color:#000000;stop-opacity:0;"
         offset="1"
         id="stop4247" />
    </linearGradient>
    <linearGradient
       id="linearGradient4216">
      <stop
         style="stop-color:#a0c4e6;stop-opacity:1;"
         offset="0"
         id="stop4218" />
      <stop
         style="stop-color:#d0e2f1;stop-opacity:1;"
         offset="1"
         id="stop4220" />
    </linearGradient>
    <linearGradient
       id="linearGradient4208">
      <stop
         style="stop-color:#70a3d6;stop-opacity:1;"
         offset="0"
         id="stop4210" />
      <stop
         style="stop-color:#88b6e1;stop-opacity:1;"
         offset="1"
         id="stop4212" />
    </linearGradient>
    <linearGradient
       id="linearGradient4200">
      <stop
         style="stop-color:#427dbe;stop-opacity:1;"
         offset="0"
         id="stop4202" />
      <stop
         style="stop-color:#739bd1;stop-opacity:1;"
         offset="1"
         id="stop4204" />
    </linearGradient>
    <linearGradient
       id="linearGradient4192">
      <stop
         style="stop-color:#4970a4;stop-opacity:1;"
         offset="0"
         id="stop4194" />
      <stop
         style="stop-color:#6090c0;stop-opacity:1;"
         offset="1"
         id="stop4196" />
    </linearGradient>
    <radialGradient
       inkscape:collect="always"
       xlink:href="#linearGradient3688-166-749-5-9-1"
       id="radialGradient4351"
       gradientUnits="userSpaceOnUse"
       gradientTransform="matrix(2.3201711,0,0,0.39999996,28.617836,28.600002)"
       cx="4.9929786"
       cy="43.5"
       fx="4.9929786"
       fy="43.5"
       r="2.5" />
    <linearGradient
       id="linearGradient3688-166-749-5-9-1">
      <stop
         id="stop2883-0-2-9"
         style="stop-color:#181818;stop-opacity:1"
         offset="0" />
      <stop
         id="stop2885-5-3-8"
         style="stop-color:#181818;stop-opacity:0"
         offset="1" />
    </linearGradient>
    <linearGradient
       id="linearGradient3688-464-309-8-9-4">
      <stop
         id="stop2889-9-9-1"
         style="stop-color:#181818;stop-opacity:1"
         offset="0" />
      <stop
         id="stop2891-4-2-9"
         style="stop-color:#181818;stop-opacity:0"
         offset="1" />
    </linearGradient>
    <linearGradient
       id="linearGradient3702-501-757-0-4-0">
      <stop
         id="stop2895-0-2-1"
         style="stop-color:#181818;stop-opacity:0"
         offset="0" />
      <stop
         id="stop2897-2-8-2"
         style="stop-color:#181818;stop-opacity:1"
         offset="0.5" />
      <stop
         id="stop2899-6-1-6"
         style="stop-color:#181818;stop-opacity:0"
         offset="1" />
    </linearGradient>
    <linearGradient
       id="linearGradient3811-3">
      <stop
         style="stop-color:#000000;stop-opacity:1;"
         offset="0"
         id="stop3813-0" />
      <stop
         style="stop-color:#000000;stop-opacity:0;"
         offset="1"
         id="stop3815-0" />
    </linearGradient>
    <clipPath
       id="clipPath-887332295">
      <g
         id="g3945"
         transform="translate(0,-1004.3622)">
        <rect
           id="rect3947"
           fill="#1890d0"
           width="46"
           height="46"
           x="1"
           y="1005.36"
           rx="4" />
      </g>
    </clipPath>
    <clipPath
       id="clipPath-867792831">
      <g
         id="g3940"
         transform="translate(0,-1004.3622)">
        <rect
           id="rect3942"
           fill="#1890d0"
           width="46"
           height="46"
           x="1"
           y="1005.36"
           rx="4" />
      </g>
    </clipPath>
    <linearGradient
       gradientTransform="translate(-47.997785,0.00221467)"
       gradientUnits="userSpaceOnUse"
       x2="47"
       x1="1"
       id="linearGradient3764">
      <stop
         id="stop3935"
         stop-opacity="1"
         stop-color="#e4e4e4" />
      <stop
         id="stop3937"
         stop-opacity="1"
         stop-color="#eee"
         offset="1" />
    </linearGradient>
    <radialGradient
       inkscape:collect="always"
       xlink:href="#linearGradient4243"
       id="radialGradient4274"
       gradientUnits="userSpaceOnUse"
       gradientTransform="matrix(1.0434782,0,0,0.1956518,-1.0434797,35.184809)"
       cx="24.000001"
       cy="42.499991"
       fx="24.000001"
       fy="42.499991"
       r="23" />
    <linearGradient
       inkscape:collect="always"
       xlink:href="#linearGradient4524"
       id="linearGradient4530"
       x1="24"
       y1="46"
       x2="24"
       y2="2"
       gradientUnits="userSpaceOnUse" />
    <linearGradient
       inkscape:collect="always"
       xlink:href="#linearGradient4512"
       id="linearGradient4554"
       gradientUnits="userSpaceOnUse"
       x1="12.5"
       y1="28.000042"
       x2="12.5"
       y2="17.000042" />
    <linearGradient
       inkscape:collect="always"
       xlink:href="#linearGradient3082"
       id="linearGradient3088"
       x1="24"
       y1="37"
       x2="24"
       y2="8"
       gradientUnits="userSpaceOnUse" />
  </defs>
  <sodipodi:namedview
     id="base"
     pagecolor="#ffffff"
     bordercolor="#666666"
     borderopacity="1.0"
     inkscape:pageopacity="0.0"
     inkscape:pageshadow="2"
     inkscape:zoom="11.313708"
     inkscape:cx="24.534554"
     inkscape:cy="26.719068"
     inkscape:document-units="px"
     inkscape:current-layer="layer2"
     showgrid="true"
     inkscape:showpageshadow="false"
     borderlayer="true"
     inkscape:window-width="1306"
     inkscape:window-height="950"
     inkscape:window-x="299"
     inkscape:window-y="22"
     inkscape:window-maximized="0"
     showguides="false"
     inkscape:guide-bbox="true">
    <inkscape:grid
       type="xygrid"
       id="grid4162" />
    <sodipodi:guide
       position="1.0000013,47.000017"
       orientation="46,0"
       id="guide4163" />
    <sodipodi:guide
       position="1.0000013,1.0000174"
       orientation="0,45.999999"
       id="guide4165" />
    <sodipodi:guide
       position="47,1.0000174"
       orientation="-46,0"
       id="guide4167" />
    <sodipodi:guide
       position="47,47.000017"
       orientation="0,-45.999999"
       id="guide4169" />
    <sodipodi:guide
       position="2.0000007,46.000017"
       orientation="44,0"
       id="guide4173" />
    <sodipodi:guide
       position="2.0000007,2.0000174"
       orientation="0,43.999999"
       id="guide4175" />
    <sodipodi:guide
       position="46,2.0000174"
       orientation="-44,0"
       id="guide4177" />
    <sodipodi:guide
       position="46,46.000017"
       orientation="0,-43.999999"
       id="guide4179" />
    <sodipodi:guide
       position="3,45.000017"
       orientation="42,0"
       id="guide4183" />
    <sodipodi:guide
       position="45,3.0000174"
       orientation="-42,0"
       id="guide4187" />
    <sodipodi:guide
       position="45,45.000017"
       orientation="0,-42"
       id="guide4189" />
    <sodipodi:guide
       position="3,45.000017"
       orientation="42,0"
       id="guide4193" />
    <sodipodi:guide
       position="3,3.0000174"
       orientation="0,42"
       id="guide4195" />
    <sodipodi:guide
       position="45,3.0000174"
       orientation="-42,0"
       id="guide4197" />
    <sodipodi:guide
       position="45,45.000017"
       orientation="0,-42"
       id="guide4199" />
    <sodipodi:guide
       position="3,10.000017"
       orientation="7,0"
       id="guide4203" />
    <sodipodi:guide
       position="3,3.0000174"
       orientation="0,42"
       id="guide4205" />
    <sodipodi:guide
       position="45,3.0000174"
       orientation="-7,0"
       id="guide4207" />
    <sodipodi:guide
       position="45,10.000017"
       orientation="0,-42"
       id="guide4209" />
  </sodipodi:namedview>
  <metadata
     id="metadata4235">
    <rdf:RDF>
      <cc:Work
         rdf:about="">
        <dc:format>image/svg+xml</dc:format>
        <dc:type
           rdf:resource="http://purl.org/dc/dcmitype/StillImage" />
        <dc:title></dc:title>
      </cc:Work>
    </rdf:RDF>
  </metadata>
  <g
     inkscape:groupmode="layer"
     id="layer3"
     inkscape:label="Fake blur shadow"
     style="display:inline"
     sodipodi:insensitive="true">
    <path
       style="opacity:0.06000001;fill:#000000;fill-opacity:1;stroke:none"
       d="M 10,1 C 5.014,1 1,5.014 1,10 l 0,28 c 0,4.986 4.014,9 9,9 l 28,0 c 4.986,0 9,-4.014 9,-9 L 47,10 C 47,5.014 42.986,1 38,1 L 10,1 z m 0.5,0.5 27,0 c 4.986,0 9,4.014 9,9 l 0,27 c 0,4.986 -4.014,9 -9,9 l -27,0 c -4.986,0 -9,-4.014 -9,-9 l 0,-27 c 0,-4.986 4.014,-9 9,-9 z"
       id="rect3829"
       inkscape:connector-curvature="0" />
    <path
       style="opacity:0.12000002;fill:#000000;fill-opacity:1;stroke:none"
       d="m 10.5,1.5 c -4.986,0 -9,4.014 -9,9 l 0,27 c 0,4.986 4.014,9 9,9 l 27,0 c 4.986,0 9,-4.014 9,-9 l 0,-27 c 0,-4.986 -4.014,-9 -9,-9 l -27,0 z m 0.25,0.25 26.5,0 c 4.986,0 9,4.014 9,9 l 0,26.5 c 0,4.986 -4.014,9 -9,9 l -26.5,0 c -4.986,0 -9,-4.014 -9,-9 l 0,-26.5 c 0,-4.986 4.014,-9 9,-9 z"
       id="rect3827"
       inkscape:connector-curvature="0" />
    <rect
       style="opacity:0.23999999;fill:#000000;fill-opacity:1;stroke:none"
       id="rect3038-4"
       width="44.5"
       height="44.5"
       x="1.75"
       y="1.75"
       ry="9"
       rx="9" />
  </g>
  <g
     inkscape:groupmode="layer"
     id="layer6"
     inkscape:label="Blob"
     style="display:inline"
     sodipodi:insensitive="true">
    <path
       style="opacity:0.3;fill:url(#radialGradient4274);fill-opacity:1;stroke:none"
       d="M 1.03125,39 C 1.5192036,43.518898 5.3471961,47 10,47 l 28,0 c 4.652804,0 8.480796,-3.481102 8.96875,-8 l -45.9375,0 z"
       id="rect4241"
       inkscape:connector-curvature="0" />
  </g>
  <g
     inkscape:groupmode="layer"
     id="layer2"
     inkscape:label="Baseplate"
     style="display:inline">
    <rect
       style="fill:url(#linearGradient4530);fill-opacity:1;stroke:none"
       id="rect3038"
       width="44"
       height="44"
       x="2"
       y="1.9999826"
       ry="9"
       rx="9" />
    <path
       style="fill:#000000;fill-opacity:1;opacity:0.15"
       inkscape:connector-curvature="0"
       id="path3105"
       d="m 23.749582,9.3845615 c -0.896665,-0.0018 -1.785636,0.3166491 -2.429102,0.9752525 L 10.619802,21.313337 c -3.6169362,4.479136 2.460171,3.965412 5.065889,5.255524 0.93472,0.955433 -3.580529,1.653474 -2.645817,2.609702 0.934713,0.955433 5.646636,1.843903 6.58295,2.799335 0.934712,0.955432 -1.909965,1.970324 -0.975252,2.925756 0.934712,0.955432 3.098872,0.05183 3.503678,2.257527 0.288464,1.576186 3.888608,0.676863 5.652856,-0.614047 0.934712,-0.95623 -1.783549,-0.86865 -0.848836,-1.824082 2.32444,-2.377027 4.48735,-0.860003 5.282616,-3.24181 0.392848,-1.176959 -3.41959,-1.816812 -2.483276,-2.772244 2.689388,-1.570606 11.986864,-2.596759 7.576261,-7.007366 L 26.232866,10.359814 C 25.554339,9.7083826 24.646246,9.3863545 23.749582,9.3845615 z m 0.09933,1.0384635 c 0.640172,0.0034 1.274395,0.238983 1.733781,0.704348 l 4.235123,4.307362 c 0.401619,0.410382 0.39629,1.20709 0.171574,1.435788 l -2.10402,-1.688631 -0.415381,2.492311 -1.751847,-0.930101 -2.817391,1.778931 -0.930102,-3.747496 -1.508032,2.618732 -2.311702,0 c -0.94189,0 -1.054491,-1.194009 -0.198666,-2.049835 1.494906,-1.613637 3.212499,-3.26402 4.144824,-4.217061 0.468554,-0.478911 1.111667,-0.707734 1.751839,-0.704348 z m -5.083951,16.732794 c 0.286068,0.177699 4.604449,1.061816 5.661881,1.237125 0.366549,0.07729 0.107879,0.449354 -0.397331,0.704349 -1.139506,0.302806 -6.659053,-1.941474 -5.26455,-1.941474 z m 16.823094,3.016057 c -0.870569,0.02998 -1.731895,0.475455 -1.968563,1.309366 0,0.543457 4.000341,0.892494 4.000341,-0.135452 -0.285275,-0.825544 -1.161209,-1.203896 -2.031778,-1.173914 z m -18.529784,2.356859 c -1.213431,0.06446 -2.516354,0.936299 -1.48094,1.833112 0.948258,0.819966 2.414448,-0.201199 2.853515,-1.345486 -0.287116,-0.381496 -0.821018,-0.516928 -1.372575,-0.487626 z m 16.055533,0.06321 c -1.222375,1.096476 0.140643,2.207405 1.345491,1.498999 0.268541,-0.272526 -0.01078,-1.226473 -1.345491,-1.498999 z" />
    <path
       d="m 23.749582,8.3845612 c -0.896665,-0.0018 -1.785636,0.3166491 -2.429102,0.9752521 L 10.619802,20.313337 c -3.6169362,4.479136 2.460171,3.965412 5.065889,5.255524 0.93472,0.955433 -3.580529,1.653474 -2.645817,2.609702 0.934713,0.955433 5.646636,1.843903 6.58295,2.799335 0.934712,0.955432 -1.909965,1.970324 -0.975252,2.925756 0.934712,0.955432 3.098872,0.05183 3.503678,2.257527 0.288464,1.576186 3.888608,0.676863 5.652856,-0.614047 0.934712,-0.95623 -1.783549,-0.86865 -0.848836,-1.824082 2.32444,-2.377027 4.48735,-0.860003 5.282616,-3.24181 0.392848,-1.176959 -3.41959,-1.816812 -2.483276,-2.772244 2.689388,-1.570606 11.986864,-2.596759 7.576261,-7.007366 L 26.232866,9.3598133 C 25.554339,8.7083823 24.646246,8.3863542 23.749582,8.3845612 z m 0.09933,1.0384631 c 0.640172,0.0034 1.274395,0.238983 1.733781,0.7043487 l 4.235123,4.307362 c 0.401619,0.410382 0.39629,1.20709 0.171574,1.435788 l -2.10402,-1.688631 -0.415381,2.492311 -1.751847,-0.930101 -2.817391,1.778931 -0.930102,-3.747496 -1.508032,2.618732 -2.311702,0 c -0.94189,0 -1.054491,-1.194009 -0.198666,-2.049835 1.494906,-1.613637 3.212499,-3.26402 4.144824,-4.217061 0.468554,-0.4789117 1.111667,-0.7077347 1.751839,-0.7043487 z M 18.764961,26.155819 c 0.286068,0.177699 4.604449,1.061816 5.661881,1.237125 0.366549,0.07729 0.107879,0.449354 -0.397331,0.704349 -1.139506,0.302806 -6.659053,-1.941474 -5.26455,-1.941474 z m 16.823094,3.016057 c -0.870569,0.02998 -1.731895,0.475455 -1.968563,1.309366 0,0.543457 4.000341,0.892494 4.000341,-0.135452 -0.285275,-0.825544 -1.161209,-1.203896 -2.031778,-1.173914 z m -18.529784,2.356859 c -1.213431,0.06446 -2.516354,0.936299 -1.48094,1.833112 0.948258,0.819966 2.414448,-0.201199 2.853515,-1.345486 -0.287116,-0.381496 -0.821018,-0.516928 -1.372575,-0.487626 z m 16.055533,0.06321 c -1.222375,1.096476 0.140643,2.207405 1.345491,1.498999 0.268541,-0.272526 -0.01078,-1.226473 -1.345491,-1.498999 z"
       id="path5"
       inkscape:connector-curvature="0"
       style="fill:url(#linearGradient3088);fill-opacity:1;stroke:#000000;stroke-width:0.25;stroke-miterlimit:4;stroke-dasharray:none" />
  </g>
  <g
     inkscape:label="Symbol"
     inkscape:groupmode="layer"
     id="layer1"
     transform="translate(0,-1004.3622)"
     style="display:inline" />
  <g
     inkscape:groupmode="layer"
     id="layer4"
     inkscape:label="Inset"
     sodipodi:insensitive="true"
     style="display:inline">
    <path
       style="opacity:0.15;fill:#000000;fill-opacity:1;stroke:none"
       d="m 2,34 0,3 c 0,4.986 4.014,9 9,9 l 26,0 c 4.986,0 9,-4.014 9,-9 l 0,-3 c 0,4.986 -4.014,9 -9,9 L 11,43 C 6.014,43 2,38.986 2,34 z"
       id="rect3038-42"
       inkscape:connector-curvature="0" />
  </g>
  <g
     inkscape:groupmode="layer"
     id="layer7"
     inkscape:label="Baseshape"
     sodipodi:insensitive="true"
     style="display:none">
    <rect
       rx="9"
       ry="9"
       y="2"
       x="2"
       height="44"
       width="44"
       id="rect4169"
       style="fill:#abe1ad;fill-opacity:1;stroke:none;display:inline" />
  </g>
</svg>
