<?xml version="1.0" encoding="UTF-8" standalone="no"?>
<!-- Created with Inkscape (http://www.inkscape.org/) -->

<svg
   xmlns:dc="http://purl.org/dc/elements/1.1/"
   xmlns:cc="http://creativecommons.org/ns#"
   xmlns:rdf="http://www.w3.org/1999/02/22-rdf-syntax-ns#"
   xmlns:svg="http://www.w3.org/2000/svg"
   xmlns="http://www.w3.org/2000/svg"
   xmlns:xlink="http://www.w3.org/1999/xlink"
   xmlns:sodipodi="http://sodipodi.sourceforge.net/DTD/sodipodi-0.dtd"
   xmlns:inkscape="http://www.inkscape.org/namespaces/inkscape"
   width="48"
   height="48"
   id="svg4230"
   version="1.1"
   inkscape:version="0.48.5 r10040"
   sodipodi:docname="linguist-qt4.svg"
   inkscape:export-filename="/home/satya/Workspace/Numix/ozon-icon-theme/Ozon/48x48/apps/preferences-system-time.png"
   inkscape:export-xdpi="90"
   inkscape:export-ydpi="90">
  <defs
     id="defs4232">
    <linearGradient
       id="linearGradient3983">
      <stop
         style="stop-color:#3299bb;stop-opacity:1;"
         offset="0"
         id="stop3985" />
      <stop
         style="stop-color:#bf9ee2;stop-opacity:0;"
         offset="1"
         id="stop3987" />
    </linearGradient>
    <linearGradient
       inkscape:collect="always"
       id="linearGradient3962">
      <stop
         style="stop-color:#000000;stop-opacity:1;"
         offset="0"
         id="stop3964" />
      <stop
         style="stop-color:#000000;stop-opacity:0;"
         offset="1"
         id="stop3966" />
    </linearGradient>
    <linearGradient
       id="linearGradient3954">
      <stop
         id="stop3956"
         offset="0"
         style="stop-color:#8f54ea;stop-opacity:1;" />
      <stop
         id="stop3958"
         offset="1"
         style="stop-color:#a64ce2;stop-opacity:1;" />
    </linearGradient>
    <linearGradient
       id="linearGradient3946">
      <stop
         style="stop-color:#2eeec8;stop-opacity:1;"
         offset="0"
         id="stop3948" />
      <stop
         style="stop-color:#3299bb;stop-opacity:1;"
         offset="1"
         id="stop3950" />
    </linearGradient>
    <linearGradient
       id="linearGradient4115">
      <stop
         style="stop-color:#ffffff;stop-opacity:1;"
         offset="0"
         id="stop4117" />
      <stop
         style="stop-color:#ffffff;stop-opacity:0;"
         offset="1"
         id="stop4119" />
    </linearGradient>
    <linearGradient
       id="linearGradient4079">
      <stop
         id="stop4081"
         offset="0"
         style="stop-color:#f2e073;stop-opacity:1;" />
      <stop
         id="stop4083"
         offset="1"
         style="stop-color:#f2e073;stop-opacity:0;" />
    </linearGradient>
    <linearGradient
       inkscape:collect="always"
       id="linearGradient4031">
      <stop
         style="stop-color:#ffffff;stop-opacity:1;"
         offset="0"
         id="stop4033" />
      <stop
         style="stop-color:#ffffff;stop-opacity:0;"
         offset="1"
         id="stop4035" />
    </linearGradient>
    <linearGradient
       id="linearGradient4015">
      <stop
         style="stop-color:#f2e073;stop-opacity:1;"
         offset="0"
         id="stop4017" />
      <stop
         style="stop-color:#f2ec73;stop-opacity:1;"
         offset="1"
         id="stop4019" />
    </linearGradient>
    <linearGradient
       id="linearGradient3955">
      <stop
         id="stop3957"
         offset="0"
         style="stop-color:#d9e1ea;stop-opacity:1;" />
      <stop
         id="stop3959"
         offset="1"
         style="stop-color:#effcfc;stop-opacity:1;" />
    </linearGradient>
    <linearGradient
       id="linearGradient3938">
      <stop
         id="stop3940"
         offset="0"
         style="stop-color:#effcfc;stop-opacity:1;" />
      <stop
         id="stop3942"
         offset="1"
         style="stop-color:#d9e1ea;stop-opacity:1;" />
    </linearGradient>
    <linearGradient
       id="linearGradient4524">
      <stop
         style="stop-color:#ed00e0;stop-opacity:1;"
         offset="0"
         id="stop4526" />
      <stop
         style="stop-color:#301afa;stop-opacity:1;"
         offset="1"
         id="stop4528" />
    </linearGradient>
    <linearGradient
       id="linearGradient4512">
      <stop
         style="stop-color:#d9d2d1;stop-opacity:1;"
         offset="0"
         id="stop4514" />
      <stop
         style="stop-color:#fefcfc;stop-opacity:1;"
         offset="1"
         id="stop4516" />
    </linearGradient>
    <linearGradient
       id="linearGradient4243">
      <stop
         style="stop-color:#000000;stop-opacity:1;"
         offset="0"
         id="stop4245" />
      <stop
         style="stop-color:#000000;stop-opacity:0;"
         offset="1"
         id="stop4247" />
    </linearGradient>
    <linearGradient
       id="linearGradient4216">
      <stop
         style="stop-color:#a0c4e6;stop-opacity:1;"
         offset="0"
         id="stop4218" />
      <stop
         style="stop-color:#d0e2f1;stop-opacity:1;"
         offset="1"
         id="stop4220" />
    </linearGradient>
    <linearGradient
       id="linearGradient4208">
      <stop
         style="stop-color:#70a3d6;stop-opacity:1;"
         offset="0"
         id="stop4210" />
      <stop
         style="stop-color:#88b6e1;stop-opacity:1;"
         offset="1"
         id="stop4212" />
    </linearGradient>
    <linearGradient
       id="linearGradient4200">
      <stop
         style="stop-color:#427dbe;stop-opacity:1;"
         offset="0"
         id="stop4202" />
      <stop
         style="stop-color:#739bd1;stop-opacity:1;"
         offset="1"
         id="stop4204" />
    </linearGradient>
    <linearGradient
       id="linearGradient4192">
      <stop
         style="stop-color:#4970a4;stop-opacity:1;"
         offset="0"
         id="stop4194" />
      <stop
         style="stop-color:#6090c0;stop-opacity:1;"
         offset="1"
         id="stop4196" />
    </linearGradient>
    <radialGradient
       inkscape:collect="always"
       xlink:href="#linearGradient3688-166-749-5-9-1"
       id="radialGradient4351"
       gradientUnits="userSpaceOnUse"
       gradientTransform="matrix(2.3201711,0,0,0.39999996,28.617836,28.600002)"
       cx="4.9929786"
       cy="43.5"
       fx="4.9929786"
       fy="43.5"
       r="2.5" />
    <linearGradient
       id="linearGradient3688-166-749-5-9-1">
      <stop
         id="stop2883-0-2-9"
         style="stop-color:#181818;stop-opacity:1"
         offset="0" />
      <stop
         id="stop2885-5-3-8"
         style="stop-color:#181818;stop-opacity:0"
         offset="1" />
    </linearGradient>
    <linearGradient
       id="linearGradient3688-464-309-8-9-4">
      <stop
         id="stop2889-9-9-1"
         style="stop-color:#181818;stop-opacity:1"
         offset="0" />
      <stop
         id="stop2891-4-2-9"
         style="stop-color:#181818;stop-opacity:0"
         offset="1" />
    </linearGradient>
    <linearGradient
       id="linearGradient3702-501-757-0-4-0">
      <stop
         id="stop2895-0-2-1"
         style="stop-color:#181818;stop-opacity:0"
         offset="0" />
      <stop
         id="stop2897-2-8-2"
         style="stop-color:#181818;stop-opacity:1"
         offset="0.5" />
      <stop
         id="stop2899-6-1-6"
         style="stop-color:#181818;stop-opacity:0"
         offset="1" />
    </linearGradient>
    <linearGradient
       id="linearGradient3811-3">
      <stop
         style="stop-color:#000000;stop-opacity:1;"
         offset="0"
         id="stop3813-0" />
      <stop
         style="stop-color:#000000;stop-opacity:0;"
         offset="1"
         id="stop3815-0" />
    </linearGradient>
    <clipPath
       id="clipPath-887332295">
      <g
         id="g3945"
         transform="translate(0,-1004.3622)">
        <rect
           id="rect3947"
           fill="#1890d0"
           width="46"
           height="46"
           x="1"
           y="1005.36"
           rx="4" />
      </g>
    </clipPath>
    <clipPath
       id="clipPath-867792831">
      <g
         id="g3940"
         transform="translate(0,-1004.3622)">
        <rect
           id="rect3942"
           fill="#1890d0"
           width="46"
           height="46"
           x="1"
           y="1005.36"
           rx="4" />
      </g>
    </clipPath>
    <linearGradient
       gradientTransform="translate(-47.997785,0.00221467)"
       gradientUnits="userSpaceOnUse"
       x2="47"
       x1="1"
       id="linearGradient3764">
      <stop
         id="stop3935"
         stop-opacity="1"
         stop-color="#e4e4e4" />
      <stop
         id="stop3937"
         stop-opacity="1"
         stop-color="#eee"
         offset="1" />
    </linearGradient>
    <radialGradient
       inkscape:collect="always"
       xlink:href="#linearGradient4243"
       id="radialGradient4274"
       gradientUnits="userSpaceOnUse"
       gradientTransform="matrix(1.0434782,0,0,0.1956518,-1.0434797,35.184809)"
       cx="24.000001"
       cy="42.499991"
       fx="24.000001"
       fy="42.499991"
       r="23" />
    <linearGradient
       inkscape:collect="always"
       xlink:href="#linearGradient4512"
       id="linearGradient4518"
       x1="12.5"
       y1="28.000042"
       x2="12.5"
       y2="17.000042"
       gradientUnits="userSpaceOnUse" />
    <linearGradient
       inkscape:collect="always"
       xlink:href="#linearGradient4512"
       id="linearGradient4522"
       gradientUnits="userSpaceOnUse"
       x1="12.5"
       y1="28.000042"
       x2="12.5"
       y2="17.000042" />
    <linearGradient
       inkscape:collect="always"
       xlink:href="#linearGradient4512"
       id="linearGradient4554"
       gradientUnits="userSpaceOnUse"
       x1="12.5"
       y1="28.000042"
       x2="12.5"
       y2="17.000042" />
    <radialGradient
       inkscape:collect="always"
       xlink:href="#linearGradient4031"
       id="radialGradient4037"
       cx="24"
       cy="1027.1652"
       fx="24"
       fy="1027.1652"
       r="10"
       gradientTransform="matrix(1.3,6.6610732e-6,-8.4544272e-6,1.6499977,-7.1913159,-667.45818)"
       gradientUnits="userSpaceOnUse" />
    <radialGradient
       inkscape:collect="always"
       xlink:href="#linearGradient4015"
       id="radialGradient4065"
       cx="24"
       cy="1026.8622"
       fx="24"
       fy="1026.8622"
       r="10"
       gradientTransform="matrix(1,0,0,1.35,0,-359.40177)"
       gradientUnits="userSpaceOnUse" />
    <radialGradient
       inkscape:collect="always"
       xlink:href="#linearGradient4079"
       id="radialGradient4085"
       gradientUnits="userSpaceOnUse"
       gradientTransform="matrix(1.9989393,-0.00210497,0.00173541,1.6479993,-25.739215,-665.37545)"
       cx="24"
       cy="1026.8622"
       fx="24"
       fy="1026.8622"
       r="10" />
    <linearGradient
       inkscape:collect="always"
       xlink:href="#linearGradient4524-2"
       id="linearGradient4530-6"
       x1="25"
       y1="48"
       x2="25"
       y2="0"
       gradientUnits="userSpaceOnUse" />
    <linearGradient
       id="linearGradient4524-2">
      <stop
         style="stop-color:#a5de71;stop-opacity:1;"
         offset="0"
         id="stop4526-1" />
      <stop
         style="stop-color:#42b1e5;stop-opacity:1;"
         offset="1"
         id="stop4528-9" />
    </linearGradient>
    <linearGradient
       inkscape:collect="always"
       xlink:href="#linearGradient3946"
       id="linearGradient3952"
       x1="-41.423077"
       y1="21.846155"
       x2="-29"
       y2="35"
       gradientUnits="userSpaceOnUse" />
    <radialGradient
       inkscape:collect="always"
       xlink:href="#linearGradient3962"
       id="radialGradient3974"
       gradientUnits="userSpaceOnUse"
       gradientTransform="matrix(1,0,0,1.1176471,0,-3)"
       cx="-37.5"
       cy="25.5"
       fx="-37.5"
       fy="25.5"
       r="8.5" />
    <linearGradient
       inkscape:collect="always"
       xlink:href="#linearGradient3983"
       id="linearGradient3989"
       x1="15.583409"
       y1="36.075745"
       x2="14.568078"
       y2="34.265102"
       gradientUnits="userSpaceOnUse" />
    <linearGradient
       inkscape:collect="always"
       xlink:href="#linearGradient4524-3"
       id="linearGradient4530-7"
       x1="24"
       y1="46"
       x2="24"
       y2="2"
       gradientUnits="userSpaceOnUse" />
    <linearGradient
       id="linearGradient4524-3">
      <stop
         style="stop-color:#66b036;stop-opacity:1;"
         offset="0"
         id="stop4526-2" />
      <stop
         style="stop-color:#73cc38;stop-opacity:1;"
         offset="1"
         id="stop4528-2" />
    </linearGradient>
    <linearGradient
       gradientTransform="translate(0,1.7607349e-5)"
       y2="2"
       x2="24"
       y1="46"
       x1="24"
       gradientUnits="userSpaceOnUse"
       id="linearGradient3220"
       xlink:href="#linearGradient4524-3"
       inkscape:collect="always" />
  </defs>
  <sodipodi:namedview
     id="base"
     pagecolor="#ffffff"
     bordercolor="#666666"
     borderopacity="1.0"
     inkscape:pageopacity="0.0"
     inkscape:pageshadow="2"
     inkscape:zoom="45.254834"
     inkscape:cx="10.517201"
     inkscape:cy="9.1036475"
     inkscape:document-units="px"
     inkscape:current-layer="layer1"
     showgrid="false"
     inkscape:showpageshadow="false"
     borderlayer="true"
     inkscape:window-width="1366"
     inkscape:window-height="704"
     inkscape:window-x="0"
     inkscape:window-y="25"
     inkscape:window-maximized="1"
     showguides="false"
     inkscape:guide-bbox="true"
     inkscape:snap-nodes="false">
    <inkscape:grid
       type="xygrid"
       id="grid4162" />
    <sodipodi:guide
       position="1.0000013,47.000017"
       orientation="46,0"
       id="guide4163" />
    <sodipodi:guide
       position="1.0000013,1.0000174"
       orientation="0,45.999999"
       id="guide4165" />
    <sodipodi:guide
       position="47,1.0000174"
       orientation="-46,0"
       id="guide4167" />
    <sodipodi:guide
       position="47,47.000017"
       orientation="0,-45.999999"
       id="guide4169" />
    <sodipodi:guide
       position="2.0000007,46.000017"
       orientation="44,0"
       id="guide4173" />
    <sodipodi:guide
       position="2.0000007,2.0000174"
       orientation="0,43.999999"
       id="guide4175" />
    <sodipodi:guide
       position="46,2.0000174"
       orientation="-44,0"
       id="guide4177" />
    <sodipodi:guide
       position="46,46.000017"
       orientation="0,-43.999999"
       id="guide4179" />
    <sodipodi:guide
       position="3,45.000017"
       orientation="42,0"
       id="guide4183" />
    <sodipodi:guide
       position="45,3.0000174"
       orientation="-42,0"
       id="guide4187" />
    <sodipodi:guide
       position="45,45.000017"
       orientation="0,-42"
       id="guide4189" />
    <sodipodi:guide
       position="3,45.000017"
       orientation="42,0"
       id="guide4193" />
    <sodipodi:guide
       position="3,3.0000174"
       orientation="0,42"
       id="guide4195" />
    <sodipodi:guide
       position="45,3.0000174"
       orientation="-42,0"
       id="guide4197" />
    <sodipodi:guide
       position="45,45.000017"
       orientation="0,-42"
       id="guide4199" />
    <sodipodi:guide
       position="3,10.000017"
       orientation="7,0"
       id="guide4203" />
    <sodipodi:guide
       position="3,3.0000174"
       orientation="0,42"
       id="guide4205" />
    <sodipodi:guide
       position="45,3.0000174"
       orientation="-7,0"
       id="guide4207" />
    <sodipodi:guide
       position="45,10.000017"
       orientation="0,-42"
       id="guide4209" />
  </sodipodi:namedview>
  <metadata
     id="metadata4235">
    <rdf:RDF>
      <cc:Work
         rdf:about="">
        <dc:format>image/svg+xml</dc:format>
        <dc:type
           rdf:resource="http://purl.org/dc/dcmitype/StillImage" />
        <dc:title></dc:title>
      </cc:Work>
    </rdf:RDF>
  </metadata>
  <g
     inkscape:groupmode="layer"
     id="layer3"
     inkscape:label="Fake blur shadow"
     style="display:inline"
     sodipodi:insensitive="true">
    <path
       style="opacity:0.06000001;fill:#000000;fill-opacity:1;stroke:none"
       d="M 10,1 C 5.014,1 1,5.014 1,10 l 0,28 c 0,4.986 4.014,9 9,9 l 28,0 c 4.986,0 9,-4.014 9,-9 L 47,10 C 47,5.014 42.986,1 38,1 L 10,1 z m 0.5,0.5 27,0 c 4.986,0 9,4.014 9,9 l 0,27 c 0,4.986 -4.014,9 -9,9 l -27,0 c -4.986,0 -9,-4.014 -9,-9 l 0,-27 c 0,-4.986 4.014,-9 9,-9 z"
       id="rect3829"
       inkscape:connector-curvature="0" />
    <path
       style="opacity:0.12000002;fill:#000000;fill-opacity:1;stroke:none"
       d="m 10.5,1.5 c -4.986,0 -9,4.014 -9,9 l 0,27 c 0,4.986 4.014,9 9,9 l 27,0 c 4.986,0 9,-4.014 9,-9 l 0,-27 c 0,-4.986 -4.014,-9 -9,-9 l -27,0 z m 0.25,0.25 26.5,0 c 4.986,0 9,4.014 9,9 l 0,26.5 c 0,4.986 -4.014,9 -9,9 l -26.5,0 c -4.986,0 -9,-4.014 -9,-9 l 0,-26.5 c 0,-4.986 4.014,-9 9,-9 z"
       id="rect3827"
       inkscape:connector-curvature="0" />
    <rect
       style="opacity:0.23999999;fill:#000000;fill-opacity:1;stroke:none"
       id="rect3038-4"
       width="44.5"
       height="44.5"
       x="1.75"
       y="1.75"
       ry="9"
       rx="9" />
  </g>
  <g
     inkscape:groupmode="layer"
     id="layer6"
     inkscape:label="Blob"
     style="display:inline"
     sodipodi:insensitive="true">
    <path
       style="opacity:0.3;fill:url(#radialGradient4274);fill-opacity:1;stroke:none"
       d="M 1.03125,39 C 1.5192036,43.518898 5.3471961,47 10,47 l 28,0 c 4.652804,0 8.480796,-3.481102 8.96875,-8 l -45.9375,0 z"
       id="rect4241"
       inkscape:connector-curvature="0" />
  </g>
  <g
     inkscape:groupmode="layer"
     id="layer2"
     inkscape:label="Baseplate"
     style="display:inline">
    <rect
       style="fill:url(#linearGradient3220);fill-opacity:1;stroke:none;display:inline"
       id="rect3038-9"
       width="44"
       height="44"
       x="2"
       y="2"
       ry="9"
       rx="9" />
  </g>
  <g
     inkscape:label="Symbol"
     inkscape:groupmode="layer"
     id="layer1"
     transform="translate(0,-1004.3622)"
     style="display:inline">
    <path
       style="fill:#55ddff;fill-opacity:1;stroke:none"
       d="m 13,1032.3622 8,4 c -2,3 -6,4 -9,4 2,-2 2,-5 1,-8 z"
       id="path3901"
       inkscape:connector-curvature="0"
       sodipodi:nodetypes="cccc" />
    <path
       style="fill:url(#linearGradient3989);stroke:none;stroke-width:1px;stroke-linecap:butt;stroke-linejoin:miter;stroke-opacity:1;fill-opacity:1"
       d="M 19 31 L 12 36 C 14.186712 36 16.912488 35.44987 19 34 L 19 31 z "
       transform="translate(0,1004.3622)"
       id="path3978" />
    <path
       sodipodi:type="arc"
       style="fill:url(#radialGradient3974);fill-opacity:1;stroke:none"
       id="path3970"
       sodipodi:cx="-37.5"
       sodipodi:cy="25.5"
       sodipodi:rx="8.5"
       sodipodi:ry="9.5"
       d="m -29,25.5 a 8.5,9.5 0 1 1 -17,0 8.5,9.5 0 1 1 17,0 z"
       transform="matrix(1.5294118,0,0,1.3684211,81.352941,994.46746)" />
    <path
       sodipodi:type="arc"
       style="fill:url(#linearGradient3952);fill-opacity:1.0;stroke:none"
       id="path3899"
       sodipodi:cx="-37.5"
       sodipodi:cy="25.5"
       sodipodi:rx="8.5"
       sodipodi:ry="9.5"
       d="m -29,25.5 a 8.5,9.5 0 1 1 -17,0 8.5,9.5 0 1 1 17,0 z"
       transform="matrix(1.5294118,0,0,1.3684211,81.352943,992.46746)" />
    <g
       transform="matrix(0.98365733,0,0,0.98187703,0.31583306,19.360623)"
       id="g4188"
       style="opacity:0.15;fill:#000000">
      <path
         inkscape:connector-curvature="0"
         style="fill:#000000;stroke-miterlimit:10"
         id="path4190"
         d="m 27.60474,1021.2313 1.161258,0.1249 0,2.0373 1.306412,0.093 0,1.2782 -1.306412,-0.061 0,4.6703 c 0,0.4062 0.04435,0.6673 0.135075,0.7852 0.08064,0.1079 0.205638,0.1603 0.37398,0.1603 0.01612,0 0.03325,0 0.04942,0 0.257053,-0.015 0.537287,-0.094 0.841714,-0.2329 l 0,1.1744 c -0.518131,0.2268 -1.026183,0.3629 -1.525158,0.4052 -0.07157,0.01 -0.142137,0.01 -0.209678,0.01 -0.451595,0 -0.796346,-0.1311 -1.032223,-0.3962 -0.275198,-0.3075 -0.412292,-0.8014 -0.412292,-1.4788 l 0,-5.1773 -0.628004,-0.028 0,-1.3699 0.765098,0.056 0.480836,-2.0473" />
      <path
         inkscape:connector-curvature="0"
         style="fill:#000000;stroke-miterlimit:10"
         id="path4192"
         d="m 30.07241,1024.7644 -1.306412,-0.061 0,0.028 0.699577,0.032 0.606835,0" />
      <path
         inkscape:connector-curvature="0"
         style="fill:#000000;stroke-miterlimit:10"
         id="path4194"
         d="m 29.038167,1030.2723 c 0.06653,0.032 0.14415,0.047 0.236886,0.047 0.01612,0 0.03325,0 0.04942,0 0.257053,-0.015 0.537287,-0.094 0.841714,-0.2328 l -0.60684,0 c -0.18346,0.084 -0.355835,0.1472 -0.521155,0.1865" />
      <path
         inkscape:connector-curvature="0"
         style="fill:#000000;stroke-miterlimit:10"
         id="path4196"
         d="m 27.399102,1031.2773 c -0.275198,-0.3074 -0.412292,-0.8013 -0.412292,-1.4787 l 0,-5.1773 -0.628004,-0.028 0,-1.3699 -0.605831,0 0,0.3064 c 0.0877,0.3297 0.156244,0.6875 0.207658,1.0726 l 0.420346,0.019 0,5.1773 c 0,0.6774 0.137094,1.1713 0.412292,1.4788 0.235877,0.2651 0.580629,0.3961 1.03223,0.3961 l 0.605825,0 c -0.451595,0 -0.796347,-0.131 -1.032224,-0.3961 z m 0.205638,-10.046 -0.605831,0 -0.470756,2.0039 0.595751,0.043 0.480836,-2.0473" />
      <path
         inkscape:connector-curvature="0"
         style="fill:#000000;stroke-miterlimit:10"
         id="path4198"
         d="M 23.646178,1029.9497 C 23.883065,1029.3409 24,1028.1444 24,1026.3601 c 0,-1.6017 -0.115925,-2.7035 -0.350799,-3.3074 -0.235877,-0.6078 -0.587685,-0.9364 -1.060455,-0.9778 -0.03626,-0.01 -0.07157,-0.01 -0.106849,-0.01 -0.437488,0 -0.774174,0.2561 -1.009047,0.7692 -0.254023,0.5584 -0.382047,1.7176 -0.382047,3.4716 0,1.6946 0.125001,2.8982 0.37701,3.6038 0.236887,0.6723 0.591712,1.006 1.058436,1.006 0.0212,0 0.04133,0 0.0625,0 0.466724,-0.03 0.818526,-0.3528 1.057432,-0.9688 m 1.81245,0.3781 c -0.415309,0.9788 -1.048356,1.6189 -1.914262,1.9152 0.0877,0.4486 0.219751,0.751 0.39515,0.9093 0.136084,0.123 0.345755,0.1835 0.627,0.1835 0.08165,0 0.169352,-0.01 0.261079,-0.015 l 0,1.3226 -0.600788,0.08 c -0.176403,0.023 -0.344746,0.034 -0.504019,0.034 -0.526191,0 -0.951586,-0.1281 -1.27214,-0.3861 -0.424385,-0.3397 -0.736878,-0.997 -0.937473,-1.9687 -0.920338,-0.1966 -1.639071,-0.7823 -2.136033,-1.7641 -0.504019,-0.9989 -0.761065,-2.4596 -0.761065,-4.3688 0,-2.0594 0.351802,-3.5795 1.043313,-4.5442 0.582649,-0.8125 1.397141,-1.2127 2.421305,-1.2127 0.163305,0 0.333662,0.01 0.508051,0.03 1.204606,0.1391 2.078572,0.7077 2.647108,1.6925 0.55845,0.9637 0.831628,2.3457 0.831628,4.1592 0,1.6622 -0.201605,2.9686 -0.608854,3.9333" />
      <path
         inkscape:connector-curvature="0"
         style="fill:#000000;stroke-miterlimit:10"
         id="path4200"
         d="m 24.566516,1033.3357 c 0.08165,0 0.168343,-0.01 0.261079,-0.015 l -0.486877,0 c 0.06753,0.01 0.146164,0.015 0.225798,0.015" />
      <path
         inkscape:connector-curvature="0"
         style="fill:#000000;stroke-miterlimit:10"
         id="path4202"
         d="m 23.011118,1023.0527 c 0.235877,0.6039 0.351802,1.7057 0.351802,3.3074 0,1.7843 -0.116935,2.9808 -0.354831,3.5896 -0.190516,0.492 -0.455628,0.7974 -0.792314,0.9153 0.09778,0.036 0.201605,0.055 0.310474,0.055 0.0212,0 0.04133,0 0.0625,0 0.466724,-0.03 0.818526,-0.3528 1.057432,-0.9687 C 23.883065,1029.3429 24,1028.1464 24,1026.3622 c 0,-1.6018 -0.115925,-2.7036 -0.350799,-3.3074 -0.235877,-0.6078 -0.587685,-0.9364 -1.060455,-0.9778 -0.03626,-0.01 -0.07157,-0.01 -0.106849,-0.01 -0.109878,0 -0.213704,0.016 -0.310474,0.05 l 0,0 c 0.362892,0.1119 0.642117,0.4244 0.839695,0.9335 z m -0.235883,11.5189 c -0.0111,-0.01 -0.02321,-0.01 -0.03425,-0.016 -0.0012,0 -0.0018,0 -0.003,0 -0.0111,-0.01 -0.0212,-0.011 -0.03124,-0.016 -0.0018,0 -0.0041,0 -0.0061,-0.01 -0.0091,-0.01 -0.01813,-0.01 -0.02822,-0.015 -0.003,0 -0.0053,-0.01 -0.0081,-0.01 -0.0081,-0.01 -0.01712,-0.01 -0.02521,-0.014 -0.0041,0 -0.0071,-0.01 -0.0111,-0.01 -0.0071,-0.01 -0.01411,-0.01 -0.0212,-0.012 -0.0053,-0.01 -0.0101,-0.01 -0.01411,-0.01 -0.006,-0.01 -0.01211,-0.01 -0.01813,-0.012 -0.006,-0.01 -0.0111,-0.01 -0.01712,-0.011 -0.0053,-0.01 -0.0101,-0.01 -0.01512,-0.01 -0.006,-0.01 -0.01311,-0.01 -0.01913,-0.013 -0.0041,-0.01 -0.0081,-0.01 -0.0121,-0.01 -0.007,-0.01 -0.01512,-0.011 -0.02214,-0.017 -0.003,0 -0.0061,-0.01 -0.0081,-0.01 -0.0101,-0.01 -0.02014,-0.016 -0.03023,-0.024 -0.424385,-0.3397 -0.736878,-0.9969 -0.937473,-1.9687 -0.920338,-0.1965 -1.639071,-0.7822 -2.136033,-1.764 -0.504019,-0.999 -0.761065,-2.4597 -0.761065,-4.3689 0,-2.0594 0.351802,-3.5795 1.043313,-4.5442 0.582649,-0.8125 1.397141,-1.2127 2.421305,-1.2127 0.003,0 -0.640103,0 -0.640103,0 l 0,0 c -1.023154,0 -1.836643,0.4002 -2.419285,1.2127 -0.691517,0.9647 -1.043319,2.4848 -1.043319,4.5442 0,1.9092 0.257052,3.3699 0.761065,4.3689 0.497972,0.9818 1.215695,1.5675 2.137042,1.7641 0.199592,0.9717 0.513089,1.6289 0.936464,1.9686 0.320553,0.2581 0.745948,0.3861 1.272146,0.3861 0.0101,0 0.02014,0 0.03023,0 l 0.55845,0 c -0.343742,-0.01 -0.643126,-0.066 -0.897149,-0.1845 -0.0012,0 -0.0012,0 -0.0012,0" />
    </g>
    <g
       id="g4163"
       transform="matrix(0.98365733,0,0,0.98187703,0.31583306,18.360623)">
      <path
         d="m 27.60474,1021.2313 1.161258,0.1249 0,2.0373 1.306412,0.093 0,1.2782 -1.306412,-0.061 0,4.6703 c 0,0.4062 0.04435,0.6673 0.135075,0.7852 0.08064,0.1079 0.205638,0.1603 0.37398,0.1603 0.01612,0 0.03325,0 0.04942,0 0.257053,-0.015 0.537287,-0.094 0.841714,-0.2329 l 0,1.1744 c -0.518131,0.2268 -1.026183,0.3629 -1.525158,0.4052 -0.07157,0.01 -0.142137,0.01 -0.209678,0.01 -0.451595,0 -0.796346,-0.1311 -1.032223,-0.3962 -0.275198,-0.3075 -0.412292,-0.8014 -0.412292,-1.4788 l 0,-5.1773 -0.628004,-0.028 0,-1.3699 0.765098,0.056 0.480836,-2.0473"
         id="path14-9"
         style="fill:#ffffff;stroke-miterlimit:10"
         inkscape:connector-curvature="0" />
      <path
         d="m 30.07241,1024.7644 -1.306412,-0.061 0,0.028 0.699577,0.032 0.606835,0"
         id="path16"
         style="fill:#0c481e;stroke-miterlimit:10"
         inkscape:connector-curvature="0" />
      <path
         d="m 29.038167,1030.2723 c 0.06653,0.032 0.14415,0.047 0.236886,0.047 0.01612,0 0.03325,0 0.04942,0 0.257053,-0.015 0.537287,-0.094 0.841714,-0.2328 l -0.60684,0 c -0.18346,0.084 -0.355835,0.1472 -0.521155,0.1865"
         id="path18"
         style="fill:#0c481e;stroke-miterlimit:10"
         inkscape:connector-curvature="0" />
      <path
         d="m 27.399102,1031.2773 c -0.275198,-0.3074 -0.412292,-0.8013 -0.412292,-1.4787 l 0,-5.1773 -0.628004,-0.028 0,-1.3699 -0.605831,0 0,0.3064 c 0.0877,0.3297 0.156244,0.6875 0.207658,1.0726 l 0.420346,0.019 0,5.1773 c 0,0.6774 0.137094,1.1713 0.412292,1.4788 0.235877,0.2651 0.580629,0.3961 1.03223,0.3961 l 0.605825,0 c -0.451595,0 -0.796347,-0.131 -1.032224,-0.3961 z m 0.205638,-10.046 -0.605831,0 -0.470756,2.0039 0.595751,0.043 0.480836,-2.0473"
         id="path20-7"
         style="fill:#0c481e;stroke-miterlimit:10"
         inkscape:connector-curvature="0" />
      <path
         d="M 23.646178,1029.9497 C 23.883065,1029.3409 24,1028.1444 24,1026.3601 c 0,-1.6017 -0.115925,-2.7035 -0.350799,-3.3074 -0.235877,-0.6078 -0.587685,-0.9364 -1.060455,-0.9778 -0.03626,-0.01 -0.07157,-0.01 -0.106849,-0.01 -0.437488,0 -0.774174,0.2561 -1.009047,0.7692 -0.254023,0.5584 -0.382047,1.7176 -0.382047,3.4716 0,1.6946 0.125001,2.8982 0.37701,3.6038 0.236887,0.6723 0.591712,1.006 1.058436,1.006 0.0212,0 0.04133,0 0.0625,0 0.466724,-0.03 0.818526,-0.3528 1.057432,-0.9688 m 1.81245,0.3781 c -0.415309,0.9788 -1.048356,1.6189 -1.914262,1.9152 0.0877,0.4486 0.219751,0.751 0.39515,0.9093 0.136084,0.123 0.345755,0.1835 0.627,0.1835 0.08165,0 0.169352,-0.01 0.261079,-0.015 l 0,1.3226 -0.600788,0.08 c -0.176403,0.023 -0.344746,0.034 -0.504019,0.034 -0.526191,0 -0.951586,-0.1281 -1.27214,-0.3861 -0.424385,-0.3397 -0.736878,-0.997 -0.937473,-1.9687 -0.920338,-0.1966 -1.639071,-0.7823 -2.136033,-1.7641 -0.504019,-0.9989 -0.761065,-2.4596 -0.761065,-4.3688 0,-2.0594 0.351802,-3.5795 1.043313,-4.5442 0.582649,-0.8125 1.397141,-1.2127 2.421305,-1.2127 0.163305,0 0.333662,0.01 0.508051,0.03 1.204606,0.1391 2.078572,0.7077 2.647108,1.6925 0.55845,0.9637 0.831628,2.3457 0.831628,4.1592 0,1.6622 -0.201605,2.9686 -0.608854,3.9333"
         id="path22-8"
         style="fill:#ffffff;stroke-miterlimit:10"
         inkscape:connector-curvature="0" />
      <path
         d="m 24.566516,1033.3357 c 0.08165,0 0.168343,-0.01 0.261079,-0.015 l -0.486877,0 c 0.06753,0.01 0.146164,0.015 0.225798,0.015"
         id="path24"
         style="fill:#0c481e;stroke-miterlimit:10"
         inkscape:connector-curvature="0" />
      <path
         d="m 23.011118,1023.0527 c 0.235877,0.6039 0.351802,1.7057 0.351802,3.3074 0,1.7843 -0.116935,2.9808 -0.354831,3.5896 -0.190516,0.492 -0.455628,0.7974 -0.792314,0.9153 0.09778,0.036 0.201605,0.055 0.310474,0.055 0.0212,0 0.04133,0 0.0625,0 0.466724,-0.03 0.818526,-0.3528 1.057432,-0.9687 C 23.883065,1029.3429 24,1028.1464 24,1026.3622 c 0,-1.6018 -0.115925,-2.7036 -0.350799,-3.3074 -0.235877,-0.6078 -0.587685,-0.9364 -1.060455,-0.9778 -0.03626,-0.01 -0.07157,-0.01 -0.106849,-0.01 -0.109878,0 -0.213704,0.016 -0.310474,0.05 l 0,0 c 0.362892,0.1119 0.642117,0.4244 0.839695,0.9335 z m -0.235883,11.5189 c -0.0111,-0.01 -0.02321,-0.01 -0.03425,-0.016 -0.0012,0 -0.0018,0 -0.003,0 -0.0111,-0.01 -0.0212,-0.011 -0.03124,-0.016 -0.0018,0 -0.0041,0 -0.0061,-0.01 -0.0091,-0.01 -0.01813,-0.01 -0.02822,-0.015 -0.003,0 -0.0053,-0.01 -0.0081,-0.01 -0.0081,-0.01 -0.01712,-0.01 -0.02521,-0.014 -0.0041,0 -0.0071,-0.01 -0.0111,-0.01 -0.0071,-0.01 -0.01411,-0.01 -0.0212,-0.012 -0.0053,-0.01 -0.0101,-0.01 -0.01411,-0.01 -0.006,-0.01 -0.01211,-0.01 -0.01813,-0.012 -0.006,-0.01 -0.0111,-0.01 -0.01712,-0.011 -0.0053,-0.01 -0.0101,-0.01 -0.01512,-0.01 -0.006,-0.01 -0.01311,-0.01 -0.01913,-0.013 -0.0041,-0.01 -0.0081,-0.01 -0.0121,-0.01 -0.007,-0.01 -0.01512,-0.011 -0.02214,-0.017 -0.003,0 -0.0061,-0.01 -0.0081,-0.01 -0.0101,-0.01 -0.02014,-0.016 -0.03023,-0.024 -0.424385,-0.3397 -0.736878,-0.9969 -0.937473,-1.9687 -0.920338,-0.1965 -1.639071,-0.7822 -2.136033,-1.764 -0.504019,-0.999 -0.761065,-2.4597 -0.761065,-4.3689 0,-2.0594 0.351802,-3.5795 1.043313,-4.5442 0.582649,-0.8125 1.397141,-1.2127 2.421305,-1.2127 0.003,0 -0.640103,0 -0.640103,0 l 0,0 c -1.023154,0 -1.836643,0.4002 -2.419285,1.2127 -0.691517,0.9647 -1.043319,2.4848 -1.043319,4.5442 0,1.9092 0.257052,3.3699 0.761065,4.3689 0.497972,0.9818 1.215695,1.5675 2.137042,1.7641 0.199592,0.9717 0.513089,1.6289 0.936464,1.9686 0.320553,0.2581 0.745948,0.3861 1.272146,0.3861 0.0101,0 0.02014,0 0.03023,0 l 0.55845,0 c -0.343742,-0.01 -0.643126,-0.066 -0.897149,-0.1845 -0.0012,0 -0.0012,0 -0.0012,0"
         id="path26-6"
         style="fill:#0c481e;stroke-miterlimit:10"
         inkscape:connector-curvature="0" />
    </g>
  </g>
  <g
     inkscape:groupmode="layer"
     id="layer4"
     inkscape:label="Inset"
     sodipodi:insensitive="true"
     style="display:inline">
    <path
       style="opacity:0.15;fill:#000000;fill-opacity:1;stroke:none"
       d="m 2,34 0,3 c 0,4.986 4.014,9 9,9 l 26,0 c 4.986,0 9,-4.014 9,-9 l 0,-3 c 0,4.986 -4.014,9 -9,9 L 11,43 C 6.014,43 2,38.986 2,34 z"
       id="rect3038-42"
       inkscape:connector-curvature="0" />
  </g>
  <g
     inkscape:groupmode="layer"
     id="layer7"
     inkscape:label="Baseshape"
     sodipodi:insensitive="true"
     style="display:none">
    <rect
       rx="9"
       ry="9"
       y="2"
       x="2"
       height="44"
       width="44"
       id="rect4169"
       style="fill:#abe1ad;fill-opacity:1;stroke:none;display:inline" />
  </g>
</svg>
