<?xml version="1.0" encoding="UTF-8" standalone="no"?>
<!-- Created with Inkscape (http://www.inkscape.org/) -->

<svg
   xmlns:dc="http://purl.org/dc/elements/1.1/"
   xmlns:cc="http://creativecommons.org/ns#"
   xmlns:rdf="http://www.w3.org/1999/02/22-rdf-syntax-ns#"
   xmlns:svg="http://www.w3.org/2000/svg"
   xmlns="http://www.w3.org/2000/svg"
   xmlns:xlink="http://www.w3.org/1999/xlink"
   xmlns:sodipodi="http://sodipodi.sourceforge.net/DTD/sodipodi-0.dtd"
   xmlns:inkscape="http://www.inkscape.org/namespaces/inkscape"
   width="48"
   height="48"
   id="svg4230"
   version="1.1"
   inkscape:version="0.48.5 r"
   sodipodi:docname="midori.svg">
  <defs
     id="defs4232">
    <linearGradient
       id="linearGradient3796">
      <stop
         style="stop-color:#f7f7f7;stop-opacity:1;"
         offset="0"
         id="stop3798" />
      <stop
         style="stop-color:#ececec;stop-opacity:1;"
         offset="1"
         id="stop3800" />
    </linearGradient>
    <linearGradient
       id="linearGradient4524">
      <stop
         style="stop-color:#1c5ed1;stop-opacity:1;"
         offset="0"
         id="stop4526" />
      <stop
         style="stop-color:#3675e3;stop-opacity:1;"
         offset="1"
         id="stop4528" />
    </linearGradient>
    <linearGradient
       id="linearGradient4243">
      <stop
         style="stop-color:#000000;stop-opacity:1;"
         offset="0"
         id="stop4245" />
      <stop
         style="stop-color:#000000;stop-opacity:0;"
         offset="1"
         id="stop4247" />
    </linearGradient>
    <radialGradient
       inkscape:collect="always"
       xlink:href="#linearGradient4243"
       id="radialGradient4274"
       gradientUnits="userSpaceOnUse"
       gradientTransform="matrix(1.0434782,0,0,0.1956518,-1.0434797,35.184809)"
       cx="24.000001"
       cy="42.499991"
       fx="24.000001"
       fy="42.499991"
       r="23" />
    <linearGradient
       id="linearGradient3068-1">
      <stop
         style="stop-color:#cccccc;stop-opacity:1;"
         offset="0"
         id="stop3070-5" />
      <stop
         style="stop-color:#ffffff;stop-opacity:1;"
         offset="1"
         id="stop3072-7" />
    </linearGradient>
    <linearGradient
       inkscape:collect="always"
       xlink:href="#linearGradient3068-1"
       id="linearGradient4245"
       x1="24.230993"
       y1="1043.1351"
       x2="24.230993"
       y2="1010.4795"
       gradientUnits="userSpaceOnUse" />
    <linearGradient
       inkscape:collect="always"
       xlink:href="#linearGradient3796"
       id="linearGradient3802"
       x1="24"
       y1="1015.3622"
       x2="24"
       y2="1039.3622"
       gradientUnits="userSpaceOnUse" />
    <linearGradient
       y2="5"
       x2="4"
       y1="33"
       x1="33"
       gradientTransform="matrix(1.1626866,0.3285437,-0.3285437,1.1626866,327.75135,406.92561)"
       gradientUnits="userSpaceOnUse"
       id="linearGradient2427"
       xlink:href="#linearGradient3458"
       inkscape:collect="always" />
    <linearGradient
       y2="19"
       x2="40"
       y1="11"
       x1="13"
       gradientTransform="matrix(1.1626866,0.3285437,-0.3285437,1.1626866,325.6313,407.16081)"
       gradientUnits="userSpaceOnUse"
       id="linearGradient2416"
       xlink:href="#linearGradient3412"
       inkscape:collect="always" />
    <linearGradient
       id="linearGradient3458">
      <stop
         id="stop3460"
         offset="0"
         style="stop-color:#41a100;stop-opacity:1;" />
      <stop
         id="stop3462"
         offset="1"
         style="stop-color:#73d216;stop-opacity:1;" />
    </linearGradient>
    <linearGradient
       id="linearGradient3412">
      <stop
         id="stop3414"
         offset="0"
         style="stop-color:#ffffff;stop-opacity:0.59836066;" />
      <stop
         id="stop3416"
         offset="1"
         style="stop-color:#4e9a06;stop-opacity:0;" />
    </linearGradient>
    <inkscape:perspective
       id="perspective42"
       inkscape:persp3d-origin="17.346334 : 13.131055 : 1"
       inkscape:vp_z="34.692669 : 19.696583 : 1"
       inkscape:vp_y="0 : 1000 : 0"
       inkscape:vp_x="0 : 19.696583 : 1"
       sodipodi:type="inkscape:persp3d" />
    <linearGradient
       inkscape:collect="always"
       xlink:href="#linearGradient3412"
       id="linearGradient3165"
       gradientUnits="userSpaceOnUse"
       gradientTransform="matrix(1.1626866,0.3285437,-0.3285437,1.1626866,-48.12367,981.76163)"
       x1="13"
       y1="11"
       x2="40"
       y2="19" />
    <linearGradient
       inkscape:collect="always"
       xlink:href="#linearGradient3458"
       id="linearGradient3176"
       gradientUnits="userSpaceOnUse"
       gradientTransform="matrix(1.1626866,0.3285437,-0.3285437,1.1626866,-42.27112,989.15503)"
       x1="33"
       y1="33"
       x2="4"
       y2="5" />
    <linearGradient
       inkscape:collect="always"
       xlink:href="#linearGradient3458"
       id="linearGradient3966"
       x1="29"
       y1="45.999981"
       x2="24"
       y2="1.9999828"
       gradientUnits="userSpaceOnUse"
       gradientTransform="translate(0,1.72e-5)" />
    <linearGradient
       inkscape:collect="always"
       xlink:href="#linearGradient3068-1"
       id="linearGradient4258"
       x1="21"
       y1="24"
       x2="27"
       y2="24"
       gradientUnits="userSpaceOnUse" />
    <linearGradient
       inkscape:collect="always"
       xlink:href="#linearGradient3068-1"
       id="linearGradient4262"
       gradientUnits="userSpaceOnUse"
       x1="21"
       y1="24"
       x2="27"
       y2="24" />
    <linearGradient
       inkscape:collect="always"
       xlink:href="#linearGradient3068-1"
       id="linearGradient4270"
       x1="10"
       y1="38"
       x2="24"
       y2="24"
       gradientUnits="userSpaceOnUse" />
  </defs>
  <sodipodi:namedview
     id="base"
     pagecolor="#ffffff"
     bordercolor="#666666"
     borderopacity="1.0"
     inkscape:pageopacity="0.0"
     inkscape:pageshadow="2"
     inkscape:zoom="11.313709"
     inkscape:cx="25.708209"
     inkscape:cy="19.999789"
     inkscape:document-units="px"
     inkscape:current-layer="layer2"
     showgrid="true"
     inkscape:showpageshadow="false"
     borderlayer="true"
     inkscape:window-width="1327"
     inkscape:window-height="736"
     inkscape:window-x="39"
     inkscape:window-y="32"
     inkscape:window-maximized="1"
     showguides="true"
     inkscape:guide-bbox="true">
    <inkscape:grid
       type="xygrid"
       id="grid4162" />
    <sodipodi:guide
       orientation="0,1"
       position="25,40"
       id="guide3992" />
    <sodipodi:guide
       orientation="1,0"
       position="8,24"
       id="guide3994" />
    <sodipodi:guide
       orientation="1,0"
       position="40,24"
       id="guide3996" />
    <sodipodi:guide
       orientation="0,1"
       position="25,8"
       id="guide3998" />
    <sodipodi:guide
       orientation="0,1"
       position="7,24"
       id="guide4229" />
    <sodipodi:guide
       orientation="1,0"
       position="24,8"
       id="guide4231" />
  </sodipodi:namedview>
  <metadata
     id="metadata4235">
    <rdf:RDF>
      <cc:Work
         rdf:about="">
        <dc:format>image/svg+xml</dc:format>
        <dc:type
           rdf:resource="http://purl.org/dc/dcmitype/StillImage" />
        <dc:title />
      </cc:Work>
    </rdf:RDF>
  </metadata>
  <g
     inkscape:groupmode="layer"
     id="layer3"
     inkscape:label="Fake blur shadow"
     style="display:inline"
     sodipodi:insensitive="true">
    <path
       style="opacity:0.06000001;fill:#000000;fill-opacity:1;stroke:none"
       d="M 10,1 C 5.014,1 1,5.014 1,10 l 0,28 c 0,4.986 4.014,9 9,9 l 28,0 c 4.986,0 9,-4.014 9,-9 L 47,10 C 47,5.014 42.986,1 38,1 L 10,1 z m 0.5,0.5 27,0 c 4.986,0 9,4.014 9,9 l 0,27 c 0,4.986 -4.014,9 -9,9 l -27,0 c -4.986,0 -9,-4.014 -9,-9 l 0,-27 c 0,-4.986 4.014,-9 9,-9 z"
       id="rect3829"
       inkscape:connector-curvature="0" />
    <path
       style="opacity:0.12000002;fill:#000000;fill-opacity:1;stroke:none"
       d="m 10.5,1.5 c -4.986,0 -9,4.014 -9,9 l 0,27 c 0,4.986 4.014,9 9,9 l 27,0 c 4.986,0 9,-4.014 9,-9 l 0,-27 c 0,-4.986 -4.014,-9 -9,-9 l -27,0 z m 0.25,0.25 26.5,0 c 4.986,0 9,4.014 9,9 l 0,26.5 c 0,4.986 -4.014,9 -9,9 l -26.5,0 c -4.986,0 -9,-4.014 -9,-9 l 0,-26.5 c 0,-4.986 4.014,-9 9,-9 z"
       id="rect3827"
       inkscape:connector-curvature="0" />
    <rect
       style="opacity:0.23999999;fill:#000000;fill-opacity:1;stroke:none"
       id="rect3038-4"
       width="44.5"
       height="44.5"
       x="1.75"
       y="1.75"
       ry="9"
       rx="9" />
  </g>
  <g
     inkscape:groupmode="layer"
     id="layer6"
     inkscape:label="Blob"
     style="display:inline"
     sodipodi:insensitive="true">
    <path
       style="opacity:0.3;fill:url(#radialGradient4274);fill-opacity:1;stroke:none"
       d="M 1.03125,39 C 1.5192036,43.518898 5.3471961,47 10,47 l 28,0 c 4.652804,0 8.480796,-3.481102 8.96875,-8 l -45.9375,0 z"
       id="rect4241"
       inkscape:connector-curvature="0" />
  </g>
  <g
     inkscape:groupmode="layer"
     id="layer2"
     inkscape:label="Baseplate"
     style="display:inline">
    <rect
       rx="9"
       ry="9"
       y="2"
       x="2"
       height="44"
       width="44"
       id="rect3958"
       style="fill:url(#linearGradient3966);fill-opacity:1;stroke:none" />
    <path
       sodipodi:nodetypes="cccccccccccccccccsssss"
       inkscape:connector-curvature="0"
       id="path4239"
       d="M 24,9 19.928571,18.892857 16,17 17.892857,20.928571 8,25 17.892857,29.071429 16,33 19.928571,31.071429 24,41 28.071429,31.107143 32,33 30.071429,29.035714 40,25 30.142857,20.892857 32,17 28.071429,18.928571 z m 0,10.285714 c 3.152857,0 5.714286,2.561428 5.714286,5.714286 0,3.152857 -2.561429,5.714286 -5.714286,5.714286 -3.152857,0 -5.714286,-2.561429 -5.714286,-5.714286 0,-3.152858 2.561429,-5.714286 5.714286,-5.714286 z"
       style="opacity:0.14999999999999999;fill:#000000;fill-opacity:1" />
    <path
       style="fill:#358004;opacity:1;fill-opacity:1"
       d="M 24,8 19.928571,17.892857 16,16 17.892857,19.928571 8,24 17.892857,28.071429 16,32 19.928571,30.071429 24,40 28.071429,30.107143 32,32 30.071429,28.035714 40,24 30.142857,19.892857 32,16 28.071429,17.928571 z m 0,10.285714 c 3.152857,0 5.714286,2.561428 5.714286,5.714286 0,3.152857 -2.561429,5.714286 -5.714286,5.714286 -3.152857,0 -5.714286,-2.561429 -5.714286,-5.714286 0,-3.152858 2.561429,-5.714286 5.714286,-5.714286 z"
       id="polygon4065"
       inkscape:connector-curvature="0"
       sodipodi:nodetypes="cccccccccccccccccsssss" />
    <path
       d="m 27,24 a 3,3 0 1 1 -6,0 3,3 0 1 1 6,0 z"
       sodipodi:ry="3"
       sodipodi:rx="3"
       sodipodi:cy="24"
       sodipodi:cx="24"
       id="path4243"
       style="fill:#000000;fill-opacity:1;stroke:none;opacity:0.15"
       sodipodi:type="arc"
       transform="translate(0,1)" />
    <path
       sodipodi:nodetypes="ccccc"
       inkscape:connector-curvature="0"
       id="path4245"
       d="M 24,25 21,25 10,39 24,28 z"
       style="opacity:0.15;fill:#000000" />
    <path
       style="fill:#000000;fill-opacity:1;opacity:0.1"
       d="M 24,8 19.9375,17.90625 16,16 16.625,17.3125 19.9375,18.90625 24,9 28.0625,18.9375 31.375,17.3125 32,16 28.0625,17.9375 24,8 z M 30.5625,20.0625 30.15625,20.90625 38.78125,24.5 40,24 30.5625,20.0625 z M 17.5,20.09375 8,24 9.21875,24.5 17.90625,20.9375 17.5,20.09375 z m 0.8125,4.5 c -0.0092,0.132675 -0.03125,0.271252 -0.03125,0.40625 0,3.152857 2.565893,5.71875 5.71875,5.71875 3.152857,0 5.71875,-2.565893 5.71875,-5.71875 0,-0.134998 -0.02201,-0.273575 -0.03125,-0.40625 -0.292953,2.879281 -2.731697,5.125 -5.6875,5.125 -2.955803,0 -5.394547,-2.245719 -5.6875,-5.125 z M 30.46875,28.875 30.0625,29.03125 31.375,31.6875 32,32 30.46875,28.875 z M 17.5,28.90625 16,32 16.625,31.6875 17.90625,29.0625 17.5,28.90625 z"
       id="path4247"
       inkscape:connector-curvature="0" />
    <path
       style="fill:url(#linearGradient4270);fill-opacity:1"
       d="M 24,24 21,24 10,38 24,27 z"
       id="polygon4227"
       inkscape:connector-curvature="0"
       sodipodi:nodetypes="ccccc" />
    <path
       style="opacity:0.15;fill:#000000;fill-opacity:1"
       d="M 24,25 27,25 38,11 24,22 z"
       id="path4241"
       inkscape:connector-curvature="0"
       sodipodi:nodetypes="ccccc" />
    <path
       sodipodi:nodetypes="ccccc"
       inkscape:connector-curvature="0"
       id="path4234"
       d="M 24,24 27,24 38,10 24,21 z"
       style="fill:#ff6f72;fill-opacity:1" />
    <path
       sodipodi:type="arc"
       style="fill:url(#linearGradient4258);fill-opacity:1;stroke:none"
       id="path4237"
       sodipodi:cx="24"
       sodipodi:cy="24"
       sodipodi:rx="3"
       sodipodi:ry="3"
       d="m 27,24 a 3,3 0 1 1 -6,0 3,3 0 1 1 6,0 z"
       transform="matrix(0,-1,1,0,0,48)" />
    <path
       transform="matrix(0,0.66666667,0.66666667,0,7.9999999,7.9999998)"
       d="m 27,24 a 3,3 0 1 1 -6,0 3,3 0 1 1 6,0 z"
       sodipodi:ry="3"
       sodipodi:rx="3"
       sodipodi:cy="24"
       sodipodi:cx="24"
       id="path4260"
       style="fill:url(#linearGradient4262);fill-opacity:1;stroke:none"
       sodipodi:type="arc" />
  </g>
  <g
     inkscape:label="Symbol"
     inkscape:groupmode="layer"
     id="layer1"
     transform="translate(0,-1004.3622)"
     style="display:inline" />
  <g
     inkscape:groupmode="layer"
     id="layer4"
     inkscape:label="Inset"
     style="display:inline"
     sodipodi:insensitive="true">
    <path
       style="opacity:0.15;fill:#000000;fill-opacity:1;stroke:none"
       d="m 2,34 0,3 c 0,4.986 4.014,9 9,9 l 26,0 c 4.986,0 9,-4.014 9,-9 l 0,-3 c 0,4.986 -4.014,9 -9,9 L 11,43 C 6.014,43 2,38.986 2,34 Z"
       id="rect3038-42"
       inkscape:connector-curvature="0" />
  </g>
  <g
     inkscape:groupmode="layer"
     id="layer7"
     inkscape:label="Baseshape"
     sodipodi:insensitive="true"
     style="display:none">
    <rect
       rx="9"
       ry="9"
       y="2"
       x="2"
       height="44"
       width="44"
       id="rect4169"
       style="fill:#abe1ad;fill-opacity:1;stroke:none;display:inline" />
  </g>
</svg>
