<?xml version="1.0" encoding="UTF-8" standalone="no"?>
<!-- Created with Inkscape (http://www.inkscape.org/) -->

<svg
   xmlns:dc="http://purl.org/dc/elements/1.1/"
   xmlns:cc="http://creativecommons.org/ns#"
   xmlns:rdf="http://www.w3.org/1999/02/22-rdf-syntax-ns#"
   xmlns:svg="http://www.w3.org/2000/svg"
   xmlns="http://www.w3.org/2000/svg"
   xmlns:xlink="http://www.w3.org/1999/xlink"
   xmlns:sodipodi="http://sodipodi.sourceforge.net/DTD/sodipodi-0.dtd"
   xmlns:inkscape="http://www.inkscape.org/namespaces/inkscape"
   width="48"
   height="48"
   id="svg4230"
   version="1.1"
   inkscape:version="0.48.5 r10040"
   sodipodi:docname="muzika.svg"
   inkscape:export-filename="/home/webdesign/Downloads/ozon icons/texteditor.png"
   inkscape:export-xdpi="960"
   inkscape:export-ydpi="960">
  <defs
     id="defs4232">
    <linearGradient
       id="linearGradient4266">
      <stop
         style="stop-color:#f0752f;stop-opacity:0.07843138;"
         offset="0"
         id="stop4268" />
      <stop
         id="stop4274"
         offset="0.5"
         style="stop-color:#f0752f;stop-opacity:0.15686275;" />
      <stop
         style="stop-color:#f0752f;stop-opacity:0.23529412;"
         offset="0.75"
         id="stop4276" />
      <stop
         id="stop4278"
         offset="0.875"
         style="stop-color:#f0752f;stop-opacity:0.3137255;" />
      <stop
         style="stop-color:#f0752f;stop-opacity:0.39215687;"
         offset="0.9375"
         id="stop4280" />
      <stop
         id="stop4282"
         offset="0.96875"
         style="stop-color:#f0752f;stop-opacity:0.47058824;" />
      <stop
         style="stop-color:#f0752f;stop-opacity:0.54901963;"
         offset="0.984375"
         id="stop4284" />
      <stop
         id="stop4286"
         offset="0.9921875"
         style="stop-color:#f0752f;stop-opacity:0.627451;" />
      <stop
         style="stop-color:#f0752f;stop-opacity:0.70588237;"
         offset="0.99609375"
         id="stop4288" />
      <stop
         id="stop4290"
         offset="0.99804688"
         style="stop-color:#f0752f;stop-opacity:0.78431374;" />
      <stop
         style="stop-color:#f0752f;stop-opacity:0.86274511;"
         offset="0.99902344"
         id="stop4292" />
      <stop
         id="stop4294"
         offset="0.99951172"
         style="stop-color:#f0752f;stop-opacity:0.94117647;" />
      <stop
         style="stop-color:#f0752f;stop-opacity:1;"
         offset="1"
         id="stop4270" />
    </linearGradient>
    <linearGradient
       id="linearGradient4223">
      <stop
         style="stop-color:#f0752f;stop-opacity:1;"
         offset="0"
         id="stop4225" />
      <stop
         style="stop-color:#e37a3e;stop-opacity:0;"
         offset="1"
         id="stop4227" />
    </linearGradient>
    <linearGradient
       inkscape:collect="always"
       id="linearGradient4201">
      <stop
         style="stop-color:#e08484;stop-opacity:1;"
         offset="0"
         id="stop4203" />
      <stop
         style="stop-color:#e08484;stop-opacity:0;"
         offset="1"
         id="stop4205" />
    </linearGradient>
    <linearGradient
       inkscape:collect="always"
       id="linearGradient4166">
      <stop
         style="stop-color:#ffffff;stop-opacity:1;"
         offset="0"
         id="stop4168" />
      <stop
         style="stop-color:#ffffff;stop-opacity:0;"
         offset="1"
         id="stop4170" />
    </linearGradient>
    <linearGradient
       id="linearGradient4010">
      <stop
         style="stop-color:#4c3549;stop-opacity:1;"
         offset="0"
         id="stop4012" />
      <stop
         style="stop-color:#4c3549;stop-opacity:1;"
         offset="1"
         id="stop4014" />
    </linearGradient>
    <linearGradient
       id="linearGradient3955">
      <stop
         id="stop3957"
         offset="0"
         style="stop-color:#1c0f18;stop-opacity:1;" />
      <stop
         id="stop3959"
         offset="1"
         style="stop-color:#21111b;stop-opacity:1;" />
    </linearGradient>
    <linearGradient
       id="linearGradient3943">
      <stop
         style="stop-color:#c91822;stop-opacity:1;"
         offset="0"
         id="stop3945" />
      <stop
         style="stop-color:#f33040;stop-opacity:1;"
         offset="1"
         id="stop3947" />
    </linearGradient>
    <linearGradient
       id="linearGradient3874">
      <stop
         style="stop-color:#ea508d;stop-opacity:1;"
         offset="0"
         id="stop3876" />
      <stop
         style="stop-color:#e66296;stop-opacity:1;"
         offset="1"
         id="stop3878" />
    </linearGradient>
    <linearGradient
       id="linearGradient4026">
      <stop
         style="stop-color:#f1f1e9;stop-opacity:1;"
         offset="0"
         id="stop4028" />
      <stop
         style="stop-color:#f5f5ea;stop-opacity:1;"
         offset="1"
         id="stop4030" />
    </linearGradient>
    <linearGradient
       id="linearGradient4243">
      <stop
         style="stop-color:#000000;stop-opacity:1;"
         offset="0"
         id="stop4245" />
      <stop
         style="stop-color:#000000;stop-opacity:0;"
         offset="1"
         id="stop4247" />
    </linearGradient>
    <linearGradient
       id="linearGradient4216">
      <stop
         style="stop-color:#a0c4e6;stop-opacity:1;"
         offset="0"
         id="stop4218" />
      <stop
         style="stop-color:#d0e2f1;stop-opacity:1;"
         offset="1"
         id="stop4220" />
    </linearGradient>
    <linearGradient
       id="linearGradient4208">
      <stop
         style="stop-color:#70a3d6;stop-opacity:1;"
         offset="0"
         id="stop4210" />
      <stop
         style="stop-color:#88b6e1;stop-opacity:1;"
         offset="1"
         id="stop4212" />
    </linearGradient>
    <linearGradient
       id="linearGradient4200">
      <stop
         style="stop-color:#427dbe;stop-opacity:1;"
         offset="0"
         id="stop4202" />
      <stop
         style="stop-color:#739bd1;stop-opacity:1;"
         offset="1"
         id="stop4204" />
    </linearGradient>
    <linearGradient
       id="linearGradient4192">
      <stop
         style="stop-color:#4970a4;stop-opacity:1;"
         offset="0"
         id="stop4194" />
      <stop
         style="stop-color:#6090c0;stop-opacity:1;"
         offset="1"
         id="stop4196" />
    </linearGradient>
    <radialGradient
       inkscape:collect="always"
       xlink:href="#linearGradient3688-166-749-5-9-1"
       id="radialGradient4351"
       gradientUnits="userSpaceOnUse"
       gradientTransform="matrix(2.3201711,0,0,0.39999996,28.617836,28.600002)"
       cx="4.9929786"
       cy="43.5"
       fx="4.9929786"
       fy="43.5"
       r="2.5" />
    <linearGradient
       id="linearGradient3688-166-749-5-9-1">
      <stop
         id="stop2883-0-2-9"
         style="stop-color:#181818;stop-opacity:1"
         offset="0" />
      <stop
         id="stop2885-5-3-8"
         style="stop-color:#181818;stop-opacity:0"
         offset="1" />
    </linearGradient>
    <linearGradient
       id="linearGradient3688-464-309-8-9-4">
      <stop
         id="stop2889-9-9-1"
         style="stop-color:#181818;stop-opacity:1"
         offset="0" />
      <stop
         id="stop2891-4-2-9"
         style="stop-color:#181818;stop-opacity:0"
         offset="1" />
    </linearGradient>
    <linearGradient
       id="linearGradient3702-501-757-0-4-0">
      <stop
         id="stop2895-0-2-1"
         style="stop-color:#181818;stop-opacity:0"
         offset="0" />
      <stop
         id="stop2897-2-8-2"
         style="stop-color:#181818;stop-opacity:1"
         offset="0.5" />
      <stop
         id="stop2899-6-1-6"
         style="stop-color:#181818;stop-opacity:0"
         offset="1" />
    </linearGradient>
    <linearGradient
       id="linearGradient3811-3">
      <stop
         style="stop-color:#000000;stop-opacity:1;"
         offset="0"
         id="stop3813-0" />
      <stop
         style="stop-color:#000000;stop-opacity:0;"
         offset="1"
         id="stop3815-0" />
    </linearGradient>
    <clipPath
       id="clipPath-887332295">
      <g
         id="g3945"
         transform="translate(0,-1004.3622)">
        <rect
           id="rect3947"
           fill="#1890d0"
           width="46"
           height="46"
           x="1"
           y="1005.36"
           rx="4" />
      </g>
    </clipPath>
    <clipPath
       id="clipPath-867792831">
      <g
         id="g3940"
         transform="translate(0,-1004.3622)">
        <rect
           id="rect3942"
           fill="#1890d0"
           width="46"
           height="46"
           x="1"
           y="1005.36"
           rx="4" />
      </g>
    </clipPath>
    <linearGradient
       gradientTransform="translate(-47.997785,0.00221467)"
       gradientUnits="userSpaceOnUse"
       x2="47"
       x1="1"
       id="linearGradient3764">
      <stop
         id="stop3935"
         stop-opacity="1"
         stop-color="#e4e4e4" />
      <stop
         id="stop3937"
         stop-opacity="1"
         stop-color="#eee"
         offset="1" />
    </linearGradient>
    <radialGradient
       inkscape:collect="always"
       xlink:href="#linearGradient4243"
       id="radialGradient4274"
       gradientUnits="userSpaceOnUse"
       gradientTransform="matrix(1.0434782,0,0,0.1956518,-1.0434797,35.184809)"
       cx="24.000001"
       cy="42.499991"
       fx="24.000001"
       fy="42.499991"
       r="23" />
    <linearGradient
       inkscape:collect="always"
       xlink:href="#linearGradient4026"
       id="linearGradient4032"
       x1="-41.197594"
       y1="1042.7213"
       x2="-41.197594"
       y2="1002.0031"
       gradientUnits="userSpaceOnUse" />
    <linearGradient
       inkscape:collect="always"
       xlink:href="#linearGradient4026"
       id="linearGradient4078"
       gradientUnits="userSpaceOnUse"
       x1="-41.197594"
       y1="1042.7213"
       x2="-41.197594"
       y2="1002.0031" />
    <linearGradient
       inkscape:collect="always"
       xlink:href="#linearGradient4026"
       id="linearGradient4114"
       gradientUnits="userSpaceOnUse"
       x1="-41.197594"
       y1="1042.7213"
       x2="-41.197594"
       y2="1002.0031" />
    <linearGradient
       inkscape:collect="always"
       xlink:href="#linearGradient4026"
       id="linearGradient4150"
       gradientUnits="userSpaceOnUse"
       x1="-41.197594"
       y1="1042.7213"
       x2="-41.197594"
       y2="1002.0031" />
    <linearGradient
       inkscape:collect="always"
       xlink:href="#linearGradient3068"
       id="linearGradient3880"
       x1="26"
       y1="46"
       x2="26"
       y2="2"
       gradientUnits="userSpaceOnUse" />
    <linearGradient
       y2="-7.7778559"
       x2="78.210526"
       y1="33.777702"
       x1="78.210526"
       gradientTransform="matrix(0.86363632,0,0,0.81818178,-42.545451,1012.7259)"
       gradientUnits="userSpaceOnUse"
       id="linearGradient3084"
       xlink:href="#linearGradient3068"
       inkscape:collect="always" />
    <linearGradient
       id="linearGradient3068">
      <stop
         style="stop-color:#d7366a;stop-opacity:1;"
         offset="0"
         id="stop3070" />
      <stop
         style="stop-color:#e83754;stop-opacity:1;"
         offset="1"
         id="stop3072" />
    </linearGradient>
    <radialGradient
       inkscape:collect="always"
       xlink:href="#linearGradient4166"
       id="radialGradient4172"
       cx="-18.5"
       cy="21"
       fx="-18.5"
       fy="21"
       r="23.5"
       gradientTransform="matrix(1,0,0,0.80851064,0,4.0212766)"
       gradientUnits="userSpaceOnUse" />
    <linearGradient
       inkscape:collect="always"
       xlink:href="#linearGradient4201"
       id="linearGradient4207"
       x1="25"
       y1="26"
       x2="24"
       y2="24"
       gradientUnits="userSpaceOnUse" />
    <radialGradient
       inkscape:collect="always"
       xlink:href="#linearGradient4223"
       id="radialGradient4229"
       cx="25.5"
       cy="36.5"
       fx="25.5"
       fy="36.5"
       r="1.5"
       gradientUnits="userSpaceOnUse" />
    <linearGradient
       inkscape:collect="always"
       xlink:href="#linearGradient4201"
       id="linearGradient4242"
       x1="26"
       y1="37"
       x2="24"
       y2="34"
       gradientUnits="userSpaceOnUse" />
    <linearGradient
       inkscape:collect="always"
       xlink:href="#linearGradient4266"
       id="linearGradient4272"
       x1="24"
       y1="9"
       x2="24"
       y2="37"
       gradientUnits="userSpaceOnUse" />
  </defs>
  <sodipodi:namedview
     id="base"
     pagecolor="#ffffff"
     bordercolor="#666666"
     borderopacity="1.0"
     inkscape:pageopacity="0.0"
     inkscape:pageshadow="2"
     inkscape:zoom="9.8285159"
     inkscape:cx="27.215177"
     inkscape:cy="17.020034"
     inkscape:document-units="px"
     inkscape:current-layer="layer1"
     showgrid="true"
     inkscape:showpageshadow="false"
     borderlayer="true"
     inkscape:window-width="1920"
     inkscape:window-height="1023"
     inkscape:window-x="0"
     inkscape:window-y="28"
     inkscape:window-maximized="1"
     showguides="false">
    <inkscape:grid
       type="xygrid"
       id="grid4162" />
    <sodipodi:guide
       position="1.0000013,47.000017"
       orientation="46,0"
       id="guide4163" />
    <sodipodi:guide
       position="1.0000013,1.0000174"
       orientation="0,45.999999"
       id="guide4165" />
    <sodipodi:guide
       position="47,1.0000174"
       orientation="-46,0"
       id="guide4167" />
    <sodipodi:guide
       position="47,47.000017"
       orientation="0,-45.999999"
       id="guide4169" />
    <sodipodi:guide
       position="2.0000007,46.000017"
       orientation="44,0"
       id="guide4173" />
    <sodipodi:guide
       position="2.0000007,2.0000174"
       orientation="0,43.999999"
       id="guide4175" />
    <sodipodi:guide
       position="46,2.0000174"
       orientation="-44,0"
       id="guide4177" />
    <sodipodi:guide
       position="46,46.000017"
       orientation="0,-43.999999"
       id="guide4179" />
    <sodipodi:guide
       position="3,45.000017"
       orientation="42,0"
       id="guide4183" />
    <sodipodi:guide
       position="45,3.0000174"
       orientation="-42,0"
       id="guide4187" />
    <sodipodi:guide
       position="45,45.000017"
       orientation="0,-42"
       id="guide4189" />
    <sodipodi:guide
       position="3,45.000017"
       orientation="42,0"
       id="guide4193" />
    <sodipodi:guide
       position="3,3.0000174"
       orientation="0,42"
       id="guide4195" />
    <sodipodi:guide
       position="45,3.0000174"
       orientation="-42,0"
       id="guide4197" />
    <sodipodi:guide
       position="45,45.000017"
       orientation="0,-42"
       id="guide4199" />
    <sodipodi:guide
       position="3,10.000017"
       orientation="7,0"
       id="guide4203" />
    <sodipodi:guide
       position="3,3.0000174"
       orientation="0,42"
       id="guide4205" />
    <sodipodi:guide
       position="45,3.0000174"
       orientation="-7,0"
       id="guide4207" />
    <sodipodi:guide
       position="45,10.000017"
       orientation="0,-42"
       id="guide4209" />
  </sodipodi:namedview>
  <metadata
     id="metadata4235">
    <rdf:RDF>
      <cc:Work
         rdf:about="">
        <dc:format>image/svg+xml</dc:format>
        <dc:type
           rdf:resource="http://purl.org/dc/dcmitype/StillImage" />
        <dc:title></dc:title>
      </cc:Work>
    </rdf:RDF>
  </metadata>
  <g
     inkscape:groupmode="layer"
     id="layer3"
     inkscape:label="Fake blur shadow"
     style="display:inline"
     sodipodi:insensitive="true">
    <path
       style="opacity:0.06000001;fill:#000000;fill-opacity:1;stroke:none"
       d="M 10,1 C 5.014,1 1,5.014 1,10 l 0,28 c 0,4.986 4.014,9 9,9 l 28,0 c 4.986,0 9,-4.014 9,-9 L 47,10 C 47,5.014 42.986,1 38,1 L 10,1 z m 0.5,0.5 27,0 c 4.986,0 9,4.014 9,9 l 0,27 c 0,4.986 -4.014,9 -9,9 l -27,0 c -4.986,0 -9,-4.014 -9,-9 l 0,-27 c 0,-4.986 4.014,-9 9,-9 z"
       id="rect3829"
       inkscape:connector-curvature="0" />
    <path
       style="opacity:0.12000002;fill:#000000;fill-opacity:1;stroke:none"
       d="m 10.5,1.5 c -4.986,0 -9,4.014 -9,9 l 0,27 c 0,4.986 4.014,9 9,9 l 27,0 c 4.986,0 9,-4.014 9,-9 l 0,-27 c 0,-4.986 -4.014,-9 -9,-9 l -27,0 z m 0.25,0.25 26.5,0 c 4.986,0 9,4.014 9,9 l 0,26.5 c 0,4.986 -4.014,9 -9,9 l -26.5,0 c -4.986,0 -9,-4.014 -9,-9 l 0,-26.5 c 0,-4.986 4.014,-9 9,-9 z"
       id="rect3827"
       inkscape:connector-curvature="0" />
    <rect
       style="opacity:0.23999999;fill:#000000;fill-opacity:1;stroke:none"
       id="rect3038-4"
       width="44.5"
       height="44.5"
       x="1.75"
       y="1.75"
       ry="9"
       rx="9" />
  </g>
  <g
     inkscape:groupmode="layer"
     id="layer6"
     inkscape:label="Blob"
     style="display:inline"
     sodipodi:insensitive="true">
    <path
       style="opacity:0.3;fill:url(#radialGradient4274);fill-opacity:1;stroke:none"
       d="M 1.03125,39 C 1.5192036,43.518898 5.3471961,47 10,47 l 28,0 c 4.652804,0 8.480796,-3.481102 8.96875,-8 l -45.9375,0 z"
       id="rect4241"
       inkscape:connector-curvature="0" />
  </g>
  <g
     inkscape:groupmode="layer"
     id="layer2"
     inkscape:label="Baseplate"
     style="display:inline">
    <rect
       style="fill:url(#linearGradient3880);fill-opacity:1;stroke:none"
       id="rect3038"
       width="44"
       height="44"
       x="2"
       y="1.9999826"
       ry="9"
       rx="9" />
  </g>
  <g
     inkscape:label="Symbol"
     inkscape:groupmode="layer"
     id="layer1"
     transform="translate(0,-1004.3622)"
     style="display:inline">
    <path
       id="path4316"
       d="M 24 9 L 24 10 C 31.179702 10 37 15.820298 37 23 C 37 30.179702 31.179702 36 24 36 L 24 37 C 31.731986 37 38 30.731986 38 23 C 38 15.268014 31.731986 9 24 9 z "
       style="fill:url(#linearGradient4272);fill-opacity:1;stroke:none"
       transform="translate(0,1004.3622)" />
    <path
       id="path4300"
       d="M 24 9 L 24 10 C 31.179702 10 37 15.820298 37 23 C 37 30.179702 31.179702 36 24 36 L 24 37 C 31.731986 37 38 30.731986 38 23 C 38 15.268014 31.731986 9 24 9 z "
       style="fill:url(#linearGradient4272);fill-opacity:1;stroke:none"
       transform="translate(0,1004.3622)" />
    <path
       id="path4296"
       d="M 24 9 L 24 10 C 31.179702 10 37 15.820298 37 23 C 37 30.179702 31.179702 36 24 36 L 24 37 C 31.731986 37 38 30.731986 38 23 C 38 15.268014 31.731986 9 24 9 z "
       style="fill:url(#linearGradient4272);fill-opacity:1;stroke:none"
       transform="translate(0,1004.3622)" />
    <path
       transform="matrix(0.68085106,0,0,0.84210526,36.595745,1009.678)"
       d="m 5,21 a 23.5,19 0 1 1 -47,0 23.5,19 0 1 1 47,0 z"
       sodipodi:ry="19"
       sodipodi:rx="23.5"
       sodipodi:cy="21"
       sodipodi:cx="-18.5"
       id="path4148"
       style="fill:#ffffff;fill-opacity:1;stroke:none;opacity:0.2"
       sodipodi:type="arc" />
    <path
       sodipodi:type="arc"
       style="opacity:1;fill:#2b2b2b;fill-opacity:1;stroke:none"
       id="path4146"
       sodipodi:cx="-18.5"
       sodipodi:cy="21"
       sodipodi:rx="23.5"
       sodipodi:ry="19"
       d="m 5,21 a 23.5,19 0 1 1 -47,0 23.5,19 0 1 1 47,0 z"
       transform="matrix(0.63829787,0,0,0.78947368,35.808511,1010.7833)" />
    <path
       style="fill:url(#linearGradient4272);fill-opacity:1;stroke:none"
       d="M 24 9 L 24 10 C 31.179702 10 37 15.820298 37 23 C 37 30.179702 31.179702 36 24 36 L 24 37 C 31.731986 37 38 30.731986 38 23 C 38 15.268014 31.731986 9 24 9 z "
       id="path4250"
       transform="translate(0,1004.3622)" />
    <path
       transform="matrix(0.5106383,0,0,0.63157895,33.446809,1014.099)"
       d="m 5,21 a 23.5,19 0 1 1 -47,0 23.5,19 0 1 1 47,0 z"
       sodipodi:ry="19"
       sodipodi:rx="23.5"
       sodipodi:cy="21"
       sodipodi:cx="-18.5"
       id="path4150"
       style="fill:#171616;fill-opacity:1;stroke:none"
       sodipodi:type="arc" />
    <path
       transform="matrix(1.6666667,0,0,1.6666667,-18.000001,979.02887)"
       d="m 27,36.5 a 1.5,1.5 0 1 1 -3,0 1.5,1.5 0 1 1 3,0 z"
       sodipodi:ry="1.5"
       sodipodi:rx="1.5"
       sodipodi:cy="36.5"
       sodipodi:cx="25.5"
       id="path4221"
       style="opacity:0.8;fill:url(#radialGradient4229);fill-opacity:1;stroke:none"
       sodipodi:type="arc" />
    <path
       transform="matrix(0.42553191,0,0,0.52631579,31.87234,1016.3096)"
       d="m 5,21 a 23.5,19 0 1 1 -47,0 23.5,19 0 1 1 47,0 z"
       sodipodi:ry="19"
       sodipodi:rx="23.5"
       sodipodi:cy="21"
       sodipodi:cx="-18.5"
       id="path4164"
       style="fill:url(#radialGradient4172);fill-opacity:1;stroke:none"
       sodipodi:type="arc" />
    <path
       sodipodi:type="arc"
       style="fill:#b51b4c;fill-opacity:1;stroke:none"
       id="path4152"
       sodipodi:cx="-18.5"
       sodipodi:cy="21"
       sodipodi:rx="23.5"
       sodipodi:ry="19"
       d="m 5,21 a 23.5,19 0 1 1 -47,0 23.5,19 0 1 1 47,0 z"
       transform="matrix(0.38297872,0,0,0.47368421,31.085106,1017.4148)" />
    <path
       style="fill:#080707;fill-opacity:1;stroke:none"
       d="M 24 11 C 17.372583 11 12 16.372583 12 23 C 12 23.170031 12.024247 23.33169 12.03125 23.5 C 12.297212 17.107991 17.542614 12 24 12 C 30.457386 12 35.702788 17.107991 35.96875 23.5 C 35.975753 23.33169 36 23.170031 36 23 C 36 16.372583 30.627417 11 24 11 z "
       id="path4154"
       transform="translate(0,1004.3622)" />
    <path
       style="fill:#ffffff;fill-opacity:1;stroke:none;opacity:0.35"
       d="M 24 14 C 19.029437 14 15 18.029437 15 23 C 15 27.970563 19.029437 32 24 32 C 28.970563 32 33 27.970563 33 23 C 33 18.029437 28.970563 14 24 14 z M 24 14.5 C 28.69442 14.5 32.5 18.30558 32.5 23 C 32.5 27.69442 28.69442 31.5 24 31.5 C 19.30558 31.5 15.5 27.69442 15.5 23 C 15.5 18.30558 19.30558 14.5 24 14.5 z "
       id="path4159"
       transform="translate(0,1004.3622)" />
    <path
       inkscape:connector-curvature="0"
       id="path4209"
       d="m 20,1020.3622 0,14 11,-7 z"
       style="opacity:0.2;fill:#000000;fill-opacity:1;stroke:none;display:inline"
       sodipodi:nodetypes="cccc" />
    <path
       style="fill:#e1dddd;fill-opacity:1;stroke:none;display:inline"
       d="m 21,1022.3622 0,10 8,-5 z"
       id="path4174"
       inkscape:connector-curvature="0" />
    <path
       id="path4304"
       d="M 24 9 L 24 10 C 31.179702 10 37 15.820298 37 23 C 37 30.179702 31.179702 36 24 36 L 24 37 C 31.731986 37 38 30.731986 38 23 C 38 15.268014 31.731986 9 24 9 z "
       style="fill:url(#linearGradient4272);fill-opacity:1;stroke:none"
       transform="translate(0,1004.3622)" />
    <path
       style="fill:url(#linearGradient4207);fill-opacity:1;stroke:none;display:inline"
       d="M 27.6875 22.1875 L 21 26.375 L 21 28 L 29 23 L 27.6875 22.1875 z "
       id="path4196"
       transform="translate(0,1004.3622)" />
    <path
       transform="translate(0,1004.3622)"
       style="fill:url(#linearGradient4272);fill-opacity:1;stroke:none"
       d="M 24 9 L 24 10 C 31.179702 10 37 15.820298 37 23 C 37 30.179702 31.179702 36 24 36 L 24 37 C 31.731986 37 38 30.731986 38 23 C 38 15.268014 31.731986 9 24 9 z "
       id="path4314" />
    <path
       id="path4320"
       d="M 24 9 L 24 10 C 31.179702 10 37 15.820298 37 23 C 37 30.179702 31.179702 36 24 36 L 24 37 C 31.731986 37 38 30.731986 38 23 C 38 15.268014 31.731986 9 24 9 z "
       style="fill:url(#linearGradient4272);fill-opacity:1;stroke:none"
       transform="translate(0,1004.3622)" />
    <path
       transform="translate(0,1004.3622)"
       style="fill:#f8ae43;fill-opacity:1;stroke:none;opacity:0.45"
       d="M 24 9 L 24 10 C 31.179702 10 37 15.820298 37 23 C 37 30.179702 31.179702 36 24 36 L 24 37 C 31.731986 37 38 30.731986 38 23 C 38 15.268014 31.731986 9 24 9 z "
       id="path4322" />
    <path
       sodipodi:type="arc"
       style="opacity:1;fill:#d4d1d1;fill-opacity:1;stroke:none"
       id="path4219"
       sodipodi:cx="25.5"
       sodipodi:cy="36.5"
       sodipodi:rx="1.5"
       sodipodi:ry="1.5"
       d="m 27,36.5 a 1.5,1.5 0 1 1 -3,0 1.5,1.5 0 1 1 3,0 z"
       transform="translate(-1,1003.3622)" />
    <path
       style="opacity:0.7;fill:url(#linearGradient4242);fill-opacity:1;stroke:none"
       d="M 24.9375 34.0625 C 24.977656 34.197896 25 34.351573 25 34.5 C 25 35.328427 24.328427 36 23.5 36 C 23.351573 36 23.197896 35.977656 23.0625 35.9375 C 23.246469 36.557802 23.819999 37 24.5 37 C 25.328427 37 26 36.328427 26 35.5 C 26 34.819999 25.557802 34.246469 24.9375 34.0625 z "
       id="path4231"
       transform="translate(0,1004.3622)" />
  </g>
  <g
     inkscape:groupmode="layer"
     id="layer4"
     inkscape:label="Inset"
     sodipodi:insensitive="true"
     style="display:inline">
    <path
       style="opacity:0.15;fill:#000000;fill-opacity:1;stroke:none"
       d="m 2,34 0,3 c 0,4.986 4.014,9 9,9 l 26,0 c 4.986,0 9,-4.014 9,-9 l 0,-3 c 0,4.986 -4.014,9 -9,9 L 11,43 C 6.014,43 2,38.986 2,34 z"
       id="rect3038-42"
       inkscape:connector-curvature="0" />
  </g>
  <g
     inkscape:groupmode="layer"
     id="layer7"
     inkscape:label="Baseshape"
     sodipodi:insensitive="true"
     style="display:none">
    <rect
       rx="9"
       ry="9"
       y="2"
       x="2"
       height="44"
       width="44"
       id="rect4169"
       style="fill:#abe1ad;fill-opacity:1;stroke:none;display:inline" />
  </g>
</svg>
