<?xml version="1.0" encoding="UTF-8" standalone="no"?>
<!-- Created with Inkscape (http://www.inkscape.org/) -->

<svg
   xmlns:dc="http://purl.org/dc/elements/1.1/"
   xmlns:cc="http://creativecommons.org/ns#"
   xmlns:rdf="http://www.w3.org/1999/02/22-rdf-syntax-ns#"
   xmlns:svg="http://www.w3.org/2000/svg"
   xmlns="http://www.w3.org/2000/svg"
   xmlns:xlink="http://www.w3.org/1999/xlink"
   xmlns:sodipodi="http://sodipodi.sourceforge.net/DTD/sodipodi-0.dtd"
   xmlns:inkscape="http://www.inkscape.org/namespaces/inkscape"
   width="48"
   height="48"
   id="svg4230"
   version="1.1"
   inkscape:version="0.48.5 r"
   sodipodi:docname="nvidia-settings.svg">
  <defs
     id="defs4232">
    <linearGradient
       id="linearGradient3792">
      <stop
         style="stop-color:#77b900;stop-opacity:1;"
         offset="0"
         id="stop3794" />
      <stop
         style="stop-color:#67a000;stop-opacity:1;"
         offset="1"
         id="stop3796" />
    </linearGradient>
    <linearGradient
       id="linearGradient3921">
      <stop
         style="stop-color:#fcfcfc;stop-opacity:1;"
         offset="0"
         id="stop3923" />
      <stop
         style="stop-color:#dcdcdc;stop-opacity:1;"
         offset="1"
         id="stop3925" />
    </linearGradient>
    <linearGradient
       id="linearGradient3913">
      <stop
         style="stop-color:#fcfcfc;stop-opacity:1;"
         offset="0"
         id="stop3915" />
      <stop
         style="stop-color:#fcfcfc;stop-opacity:0;"
         offset="1"
         id="stop3917" />
    </linearGradient>
    <linearGradient
       id="linearGradient3796">
      <stop
         style="stop-color:#f7f7f7;stop-opacity:1;"
         offset="0"
         id="stop3798" />
      <stop
         style="stop-color:#ececec;stop-opacity:1;"
         offset="1"
         id="stop3800" />
    </linearGradient>
    <linearGradient
       id="linearGradient4524">
      <stop
         style="stop-color:#1c5ed1;stop-opacity:1;"
         offset="0"
         id="stop4526" />
      <stop
         style="stop-color:#3675e3;stop-opacity:1;"
         offset="1"
         id="stop4528" />
    </linearGradient>
    <linearGradient
       id="linearGradient4243">
      <stop
         style="stop-color:#000000;stop-opacity:1;"
         offset="0"
         id="stop4245" />
      <stop
         style="stop-color:#000000;stop-opacity:0;"
         offset="1"
         id="stop4247" />
    </linearGradient>
    <radialGradient
       inkscape:collect="always"
       xlink:href="#linearGradient4243"
       id="radialGradient4274"
       gradientUnits="userSpaceOnUse"
       gradientTransform="matrix(1.0434782,0,0,0.1956518,-1.0434797,35.184809)"
       cx="24.000001"
       cy="42.499991"
       fx="24.000001"
       fy="42.499991"
       r="23" />
    <linearGradient
       id="linearGradient3068-1">
      <stop
         style="stop-color:#dfdfdf;stop-opacity:1;"
         offset="0"
         id="stop3070-5" />
      <stop
         style="stop-color:#ffffff;stop-opacity:1;"
         offset="1"
         id="stop3072-7" />
    </linearGradient>
    <linearGradient
       inkscape:collect="always"
       xlink:href="#linearGradient3068-1"
       id="linearGradient4245"
       x1="24.230993"
       y1="1043.1351"
       x2="24.230993"
       y2="1010.4795"
       gradientUnits="userSpaceOnUse" />
    <linearGradient
       inkscape:collect="always"
       xlink:href="#linearGradient3921"
       id="linearGradient3927"
       x1="23"
       y1="2"
       x2="23"
       y2="43"
       gradientUnits="userSpaceOnUse" />
    <linearGradient
       inkscape:collect="always"
       xlink:href="#linearGradient3921"
       id="linearGradient3109"
       gradientUnits="userSpaceOnUse"
       x1="23"
       y1="2"
       x2="23"
       y2="43"
       gradientTransform="translate(-1.4294434e-6,1004.3622)" />
    <clipPath
       clipPathUnits="userSpaceOnUse"
       id="clipPath3111">
      <rect
         rx="9"
         ry="9"
         y="1006.3622"
         x="2"
         height="44"
         width="44"
         id="rect3113"
         style="fill:url(#linearGradient3115);fill-opacity:1;stroke:none;display:inline" />
    </clipPath>
    <linearGradient
       inkscape:collect="always"
       xlink:href="#linearGradient3921"
       id="linearGradient3115"
       gradientUnits="userSpaceOnUse"
       gradientTransform="translate(-1.4294434e-6,1004.3622)"
       x1="23"
       y1="2"
       x2="23"
       y2="43" />
    <linearGradient
       inkscape:collect="always"
       xlink:href="#linearGradient3921"
       id="linearGradient3121"
       gradientUnits="userSpaceOnUse"
       gradientTransform="translate(-41.876891,1002.5645)"
       x1="23"
       y1="2"
       x2="23"
       y2="43" />
    <linearGradient
       inkscape:collect="always"
       xlink:href="#linearGradient3792"
       id="linearGradient3798"
       x1="30"
       y1="1006.3622"
       x2="30"
       y2="1050.3622"
       gradientUnits="userSpaceOnUse" />
  </defs>
  <sodipodi:namedview
     id="base"
     pagecolor="#ffffff"
     bordercolor="#666666"
     borderopacity="1.0"
     inkscape:pageopacity="0.0"
     inkscape:pageshadow="2"
     inkscape:zoom="11.313708"
     inkscape:cx="29.106923"
     inkscape:cy="24.634738"
     inkscape:document-units="px"
     inkscape:current-layer="layer1"
     showgrid="true"
     inkscape:showpageshadow="false"
     borderlayer="true"
     inkscape:window-width="1366"
     inkscape:window-height="736"
     inkscape:window-x="0"
     inkscape:window-y="32"
     inkscape:window-maximized="1"
     showguides="true"
     inkscape:guide-bbox="true"
     inkscape:snap-global="true">
    <inkscape:grid
       type="xygrid"
       id="grid4162" />
  </sodipodi:namedview>
  <metadata
     id="metadata4235">
    <rdf:RDF>
      <cc:Work
         rdf:about="">
        <dc:format>image/svg+xml</dc:format>
        <dc:type
           rdf:resource="http://purl.org/dc/dcmitype/StillImage" />
        <dc:title />
      </cc:Work>
    </rdf:RDF>
  </metadata>
  <g
     inkscape:groupmode="layer"
     id="layer3"
     inkscape:label="Fake blur shadow"
     style="display:inline"
     sodipodi:insensitive="true">
    <path
       style="opacity:0.06000001;fill:#000000;fill-opacity:1;stroke:none"
       d="M 10,1 C 5.014,1 1,5.014 1,10 l 0,28 c 0,4.986 4.014,9 9,9 l 28,0 c 4.986,0 9,-4.014 9,-9 L 47,10 C 47,5.014 42.986,1 38,1 L 10,1 z m 0.5,0.5 27,0 c 4.986,0 9,4.014 9,9 l 0,27 c 0,4.986 -4.014,9 -9,9 l -27,0 c -4.986,0 -9,-4.014 -9,-9 l 0,-27 c 0,-4.986 4.014,-9 9,-9 z"
       id="rect3829"
       inkscape:connector-curvature="0" />
    <path
       style="opacity:0.12000002;fill:#000000;fill-opacity:1;stroke:none"
       d="m 10.5,1.5 c -4.986,0 -9,4.014 -9,9 l 0,27 c 0,4.986 4.014,9 9,9 l 27,0 c 4.986,0 9,-4.014 9,-9 l 0,-27 c 0,-4.986 -4.014,-9 -9,-9 l -27,0 z m 0.25,0.25 26.5,0 c 4.986,0 9,4.014 9,9 l 0,26.5 c 0,4.986 -4.014,9 -9,9 l -26.5,0 c -4.986,0 -9,-4.014 -9,-9 l 0,-26.5 c 0,-4.986 4.014,-9 9,-9 z"
       id="rect3827"
       inkscape:connector-curvature="0" />
    <rect
       style="opacity:0.23999999;fill:#000000;fill-opacity:1;stroke:none"
       id="rect3038-4"
       width="44.5"
       height="44.5"
       x="1.75"
       y="1.75"
       ry="9"
       rx="9" />
  </g>
  <g
     inkscape:groupmode="layer"
     id="layer6"
     inkscape:label="Blob"
     style="display:inline"
     sodipodi:insensitive="true">
    <path
       style="opacity:0.3;fill:url(#radialGradient4274);fill-opacity:1;stroke:none"
       d="M 1.03125,39 C 1.5192036,43.518898 5.3471961,47 10,47 l 28,0 c 4.652804,0 8.480796,-3.481102 8.96875,-8 l -45.9375,0 z"
       id="rect4241"
       inkscape:connector-curvature="0" />
  </g>
  <g
     inkscape:groupmode="layer"
     id="layer2"
     inkscape:label="Baseplate"
     style="display:inline">
    <rect
       style="fill:url(#linearGradient3927);fill-opacity:1;stroke:none"
       id="rect3038"
       width="44"
       height="44"
       x="2"
       y="1.9999826"
       ry="9"
       rx="9" />
  </g>
  <g
     inkscape:label="Symbol"
     inkscape:groupmode="layer"
     id="layer1"
     transform="translate(0,-1004.3622)"
     style="display:inline">
    <path
       clip-path="none"
       sodipodi:nodetypes="ccccsccsccsccccccccccscccccc"
       d="m 22.297597,1015.3617 1.36e-4,2.595 c 0.240665,-0.018 0.481328,-0.034 0.72331,-0.042 9.320486,-0.3142 15.393413,7.6442 15.393413,7.6442 0,0 -6.974962,8.4813 -14.241654,8.4813 -0.665986,0 -1.289469,-0.062 -1.875069,-0.1654 l 0,2.2629 c 0.500767,0.062 1.019979,0.1015 1.561761,0.1015 6.762138,0 11.652338,-3.4536 16.387532,-7.5409 0.785081,0.6288 3.999199,2.1585 4.659912,2.828 -4.502271,3.7697 -14.995107,6.808 -20.943831,6.808 -0.57341,0 -1.124086,-0.035 -1.665374,-0.087 l -1.63e-4,2.1149 23.702403,0 2.7e-5,-25 -23.70243,0 z m 1.36e-4,7.0305 0,-2.4512 c 0.238193,-0.016 0.478198,-0.03 0.72331,-0.037 6.702343,-0.2104 11.09952,5.7596 11.09952,5.7596 0,0 -4.749361,6.5961 -9.841679,6.5961 -0.732861,0 -1.38995,-0.1181 -1.981314,-0.3165 l 0,-7.4315 c 2.609247,0.3153 3.134392,1.4679 4.703071,4.0829 l 3.488882,-2.9417 c 0,0 -2.546818,-3.3402 -6.840053,-3.3402 -0.466667,-10e-5 -0.913237,0.033 -1.351737,0.079"
       id="path3117"
       inkscape:connector-curvature="0"
       style="fill:#000000;opacity:0.15" />
    <path
       style="fill:#000000;opacity:0.15"
       inkscape:connector-curvature="0"
       id="path3130"
       d="m 11.188964,1025.9667 c 0,0 3.706978,-5.4696 11.10858,-6.0354 l 0,-1.9841 C 14.09933,1018.6055 7,1025.5491 7,1025.5491 c 0,0 4.020943,11.6238 15.297544,12.6881 l 0,-2.1091 c -8.275305,-1.0411 -11.10858,-10.1614 -11.10858,-10.1614 z m 11.10858,5.9667 0,1.9317 c -6.25429,-1.1151 -7.990329,-7.6163 -7.990329,-7.6163 0,0 3.002942,-3.3267 7.990329,-3.8662 l 0,2.1194 c -0.0039,0 -0.0064,0 -0.0095,0 -2.617649,-0.3142 -4.662549,2.1314 -4.662549,2.1314 0,0 1.146157,4.1166 4.672102,5.3012"
       sodipodi:nodetypes="ccccccccccccccc"
       clip-path="none" />
    <path
       style="fill:url(#linearGradient3798);fill-opacity:1"
       inkscape:connector-curvature="0"
       id="path21"
       d="m 11.188964,1024.9751 c 0,0 3.706978,-5.4696 11.10858,-6.0354 l 0,-1.9841 C 14.09933,1017.6139 7,1024.5575 7,1024.5575 c 0,0 4.020943,11.6238 15.297544,12.6881 l 0,-2.1091 c -8.275305,-1.0411 -11.10858,-10.1614 -11.10858,-10.1614 z m 11.10858,5.9667 0,1.9317 c -6.25429,-1.1151 -7.990329,-7.6163 -7.990329,-7.6163 0,0 3.002942,-3.3267 7.990329,-3.8662 l 0,2.1194 c -0.0039,0 -0.0064,0 -0.0095,0 -2.617649,-0.3142 -4.662549,2.1314 -4.662549,2.1314 0,0 1.146157,4.1166 4.672102,5.3012 m 0,-24.5813 0,10.595 c 0.240665,-0.018 0.481328,-0.034 0.72331,-0.042 9.320486,-0.3142 15.393413,7.6442 15.393413,7.6442 0,0 -6.974962,8.4813 -14.241654,8.4813 -0.665986,0 -1.289469,-0.062 -1.875069,-0.1654 l 0,2.2629 c 0.500767,0.062 1.019979,0.1015 1.561761,0.1015 6.762138,0 11.652338,-3.4536 16.387532,-7.5409 0.785081,0.6288 3.999199,2.1585 4.659912,2.828 -4.502271,3.7697 -14.995107,6.808 -20.943831,6.808 -0.57341,0 -1.124086,-0.035 -1.665374,-0.087 l 0,13.1149 23.702403,0 0,-44 -23.70243,0 z m 0,15.0305 0,-2.4512 c 0.238193,-0.016 0.478198,-0.03 0.72331,-0.037 6.702343,-0.2104 11.09952,5.7596 11.09952,5.7596 0,0 -4.749361,6.5961 -9.841679,6.5961 -0.732861,0 -1.38995,-0.1181 -1.981314,-0.3165 l 0,-7.4315 c 2.609247,0.3153 3.134392,1.4679 4.703071,4.0829 l 3.488882,-2.9417 c 0,0 -2.546818,-3.3402 -6.840053,-3.3402 -0.466667,-10e-5 -0.913237,0.033 -1.351737,0.079"
       sodipodi:nodetypes="cccccccccccccccccccsccsccsccccccccccscccccc"
       clip-path="url(#clipPath3111)" />
  </g>
  <g
     inkscape:groupmode="layer"
     id="layer4"
     inkscape:label="Inset"
     style="display:inline"
     sodipodi:insensitive="true">
    <path
       style="opacity:0.15;fill:#000000;fill-opacity:1;stroke:none"
       d="m 2,34 0,3 c 0,4.986 4.014,9 9,9 l 26,0 c 4.986,0 9,-4.014 9,-9 l 0,-3 c 0,4.986 -4.014,9 -9,9 L 11,43 C 6.014,43 2,38.986 2,34 Z"
       id="rect3038-42"
       inkscape:connector-curvature="0" />
  </g>
  <g
     inkscape:groupmode="layer"
     id="layer7"
     inkscape:label="Baseshape"
     sodipodi:insensitive="true"
     style="display:none">
    <rect
       rx="9"
       ry="9"
       y="2"
       x="2"
       height="44"
       width="44"
       id="rect4169"
       style="fill:#abe1ad;fill-opacity:1;stroke:none;display:inline" />
  </g>
</svg>
