<?xml version="1.0" encoding="UTF-8" standalone="no"?>
<!-- Created with Inkscape (http://www.inkscape.org/) -->

<svg
   xmlns:dc="http://purl.org/dc/elements/1.1/"
   xmlns:cc="http://creativecommons.org/ns#"
   xmlns:rdf="http://www.w3.org/1999/02/22-rdf-syntax-ns#"
   xmlns:svg="http://www.w3.org/2000/svg"
   xmlns="http://www.w3.org/2000/svg"
   xmlns:xlink="http://www.w3.org/1999/xlink"
   xmlns:sodipodi="http://sodipodi.sourceforge.net/DTD/sodipodi-0.dtd"
   xmlns:inkscape="http://www.inkscape.org/namespaces/inkscape"
   width="48"
   height="48"
   id="svg4230"
   version="1.1"
   inkscape:version="0.48.5 r"
   sodipodi:docname="opera.svg"
   inkscape:export-filename="/media/Data/Home/Documents/my-ozon/preview/opera2.png"
   inkscape:export-xdpi="240"
   inkscape:export-ydpi="240">
  <defs
     id="defs4232">
    <linearGradient
       id="linearGradient3796">
      <stop
         style="stop-color:#f7f7f7;stop-opacity:1;"
         offset="0"
         id="stop3798" />
      <stop
         style="stop-color:#ececec;stop-opacity:1;"
         offset="1"
         id="stop3800" />
    </linearGradient>
    <linearGradient
       id="linearGradient4524">
      <stop
         style="stop-color:#1c5ed1;stop-opacity:1;"
         offset="0"
         id="stop4526" />
      <stop
         style="stop-color:#3675e3;stop-opacity:1;"
         offset="1"
         id="stop4528" />
    </linearGradient>
    <linearGradient
       id="linearGradient4243">
      <stop
         style="stop-color:#000000;stop-opacity:1;"
         offset="0"
         id="stop4245" />
      <stop
         style="stop-color:#000000;stop-opacity:0;"
         offset="1"
         id="stop4247" />
    </linearGradient>
    <radialGradient
       inkscape:collect="always"
       xlink:href="#linearGradient4243"
       id="radialGradient4274"
       gradientUnits="userSpaceOnUse"
       gradientTransform="matrix(1.0434782,0,0,0.1956518,-1.0434797,35.184809)"
       cx="24.000001"
       cy="42.499991"
       fx="24.000001"
       fy="42.499991"
       r="23" />
    <linearGradient
       id="linearGradient3068-1">
      <stop
         style="stop-color:#dfdfdf;stop-opacity:1;"
         offset="0"
         id="stop3070-5" />
      <stop
         style="stop-color:#ffffff;stop-opacity:1;"
         offset="1"
         id="stop3072-7" />
    </linearGradient>
    <linearGradient
       inkscape:collect="always"
       xlink:href="#linearGradient3068-1"
       id="linearGradient4245"
       x1="24.230993"
       y1="1043.1351"
       x2="24.230993"
       y2="1010.4795"
       gradientUnits="userSpaceOnUse" />
    <linearGradient
       id="linearGradient3783-1">
      <stop
         id="stop3785-2"
         offset="0"
         style="stop-color:#1e94d3;stop-opacity:1;" />
      <stop
         style="stop-color:#1e94d3;stop-opacity:1;"
         offset="1"
         id="stop3803-6" />
    </linearGradient>
    <linearGradient
       gradientUnits="userSpaceOnUse"
       y2="50"
       x2="30"
       y1="90"
       x1="-10"
       id="linearGradient3827-7"
       xlink:href="#linearGradient3783-1"
       inkscape:collect="always" />
    <linearGradient
       gradientUnits="userSpaceOnUse"
       y2="50"
       x2="30"
       y1="90"
       x1="-10"
       id="linearGradient3827"
       xlink:href="#linearGradient3783"
       inkscape:collect="always" />
    <linearGradient
       id="linearGradient3783">
      <stop
         id="stop3785"
         offset="0"
         style="stop-color:#1e94d3;stop-opacity:1;" />
      <stop
         style="stop-color:#1e94d3;stop-opacity:1;"
         offset="1"
         id="stop3803" />
    </linearGradient>
    <linearGradient
       id="linearGradient3821">
      <stop
         id="stop3823"
         offset="0"
         style="stop-color:#fe6565;stop-opacity:1;" />
      <stop
         id="stop3825"
         offset="1"
         style="stop-color:#db2229;stop-opacity:1;" />
    </linearGradient>
    <linearGradient
       id="linearGradient3829">
      <stop
         style="stop-color:#1f96d4;stop-opacity:1;"
         offset="0"
         id="stop3831" />
      <stop
         style="stop-color:#37aee2;stop-opacity:1;"
         offset="1"
         id="stop3833" />
    </linearGradient>
    <linearGradient
       id="linearGradient3877">
      <stop
         id="stop3879"
         offset="0"
         style="stop-color:#eff7fc;stop-opacity:1;" />
      <stop
         id="stop3881"
         offset="1"
         style="stop-color:#ffffff;stop-opacity:1;" />
    </linearGradient>
    <linearGradient
       inkscape:collect="always"
       xlink:href="#linearGradient3821"
       id="linearGradient3948"
       x1="25"
       y1="2"
       x2="25"
       y2="46"
       gradientUnits="userSpaceOnUse" />
    <linearGradient
       inkscape:collect="always"
       xlink:href="#linearGradient3821"
       id="linearGradient3950"
       gradientUnits="userSpaceOnUse"
       x1="16.666666"
       y1="56.666668"
       x2="6.6666665"
       y2="80" />
    <linearGradient
       inkscape:collect="always"
       xlink:href="#linearGradient3877"
       id="linearGradient3977"
       gradientUnits="userSpaceOnUse"
       gradientTransform="matrix(0.18333333,0,0,0.18333333,-54.810053,1004.2832)"
       x1="135"
       y1="120"
       x2="160"
       y2="160" />
    <linearGradient
       inkscape:collect="always"
       xlink:href="#linearGradient3877"
       id="linearGradient3980"
       gradientUnits="userSpaceOnUse"
       gradientTransform="matrix(0.19923867,0,0,0.2010056,0.25370612,1003.8542)"
       x1="135"
       y1="120"
       x2="160"
       y2="160" />
  </defs>
  <sodipodi:namedview
     id="base"
     pagecolor="#ffffff"
     bordercolor="#666666"
     borderopacity="1.0"
     inkscape:pageopacity="0.0"
     inkscape:pageshadow="2"
     inkscape:zoom="9.4562896"
     inkscape:cx="21.602773"
     inkscape:cy="19.73258"
     inkscape:document-units="px"
     inkscape:current-layer="layer1"
     showgrid="true"
     inkscape:showpageshadow="false"
     borderlayer="true"
     inkscape:window-width="1327"
     inkscape:window-height="736"
     inkscape:window-x="39"
     inkscape:window-y="32"
     inkscape:window-maximized="1"
     showguides="true"
     inkscape:guide-bbox="true">
    <inkscape:grid
       type="xygrid"
       id="grid4162" />
  </sodipodi:namedview>
  <metadata
     id="metadata4235">
    <rdf:RDF>
      <cc:Work
         rdf:about="">
        <dc:format>image/svg+xml</dc:format>
        <dc:type
           rdf:resource="http://purl.org/dc/dcmitype/StillImage" />
        <dc:title></dc:title>
      </cc:Work>
    </rdf:RDF>
  </metadata>
  <g
     inkscape:groupmode="layer"
     id="layer3"
     inkscape:label="Fake blur shadow"
     style="display:inline"
     sodipodi:insensitive="true">
    <path
       style="opacity:0.06000001;fill:#000000;fill-opacity:1;stroke:none"
       d="M 10,1 C 5.014,1 1,5.014 1,10 l 0,28 c 0,4.986 4.014,9 9,9 l 28,0 c 4.986,0 9,-4.014 9,-9 L 47,10 C 47,5.014 42.986,1 38,1 L 10,1 z m 0.5,0.5 27,0 c 4.986,0 9,4.014 9,9 l 0,27 c 0,4.986 -4.014,9 -9,9 l -27,0 c -4.986,0 -9,-4.014 -9,-9 l 0,-27 c 0,-4.986 4.014,-9 9,-9 z"
       id="rect3829"
       inkscape:connector-curvature="0" />
    <path
       style="opacity:0.12000002;fill:#000000;fill-opacity:1;stroke:none"
       d="m 10.5,1.5 c -4.986,0 -9,4.014 -9,9 l 0,27 c 0,4.986 4.014,9 9,9 l 27,0 c 4.986,0 9,-4.014 9,-9 l 0,-27 c 0,-4.986 -4.014,-9 -9,-9 l -27,0 z m 0.25,0.25 26.5,0 c 4.986,0 9,4.014 9,9 l 0,26.5 c 0,4.986 -4.014,9 -9,9 l -26.5,0 c -4.986,0 -9,-4.014 -9,-9 l 0,-26.5 c 0,-4.986 4.014,-9 9,-9 z"
       id="rect3827"
       inkscape:connector-curvature="0" />
    <rect
       style="opacity:0.23999999;fill:#000000;fill-opacity:1;stroke:none"
       id="rect3038-4"
       width="44.5"
       height="44.5"
       x="1.75"
       y="1.75"
       ry="9"
       rx="9" />
  </g>
  <g
     inkscape:groupmode="layer"
     id="layer6"
     inkscape:label="Blob"
     style="display:inline"
     sodipodi:insensitive="true">
    <path
       style="opacity:0.3;fill:url(#radialGradient4274);fill-opacity:1;stroke:none"
       d="M 1.03125,39 C 1.5192036,43.518898 5.3471961,47 10,47 l 28,0 c 4.652804,0 8.480796,-3.481102 8.96875,-8 l -45.9375,0 z"
       id="rect4241"
       inkscape:connector-curvature="0" />
  </g>
  <g
     inkscape:groupmode="layer"
     id="layer2"
     inkscape:label="Baseplate"
     style="display:inline">
    <rect
       style="fill:url(#linearGradient3948);fill-opacity:1;stroke:none"
       id="rect3038"
       width="44"
       height="44"
       x="2"
       y="1.9999826"
       ry="9"
       rx="9" />
  </g>
  <g
     inkscape:label="Symbol"
     inkscape:groupmode="layer"
     id="layer1"
     transform="translate(0,-1004.3622)"
     style="display:inline">
    <path
       inkscape:connector-curvature="0"
       id="path3032"
       d="m 23.999995,1012.3622 c -8.284262,0 -14.999995,7.1637 -14.999995,16 0,8.8363 6.715733,16 14.999995,16 8.284273,0 15.000005,-7.1637 15.000005,-16 0,-8.8363 -6.715732,-16 -15.000005,-16 z m -0.06081,3.6666 c 4.609738,-0.072 5.327688,6.799 5.286459,12.2051 -0.04717,6.1835 -0.706258,12.1032 -5.164937,12.1539 -4.417887,0.051 -5.414636,-6.0603 -5.407985,-11.9144 0.0053,-4.4944 0.722637,-12.3726 5.286463,-12.4446 z"
       style="opacity:0.15;fill:#000000;fill-opacity:1;stroke:none" />
    <path
       style="fill:#ffffff;fill-opacity:1;stroke:none"
       d="m 23.999996,1011.3622 c -8.284262,0 -14.999996,7.1637 -14.999996,16 0,8.8363 6.715734,16 14.999996,16 8.284272,0 15.000004,-7.1637 15.000004,-16 0,-8.8363 -6.715732,-16 -15.000004,-16 z m -0.06081,3.6666 c 4.609738,-0.072 5.327688,6.799 5.286458,12.2051 -0.04716,6.1835 -0.706258,12.1032 -5.164936,12.1539 -4.417887,0.051 -5.414636,-6.0603 -5.407986,-11.9144 0.0054,-4.4944 0.722637,-12.3726 5.286464,-12.4446 z"
       id="path3877"
       inkscape:connector-curvature="0" />
  </g>
  <g
     inkscape:groupmode="layer"
     id="layer4"
     inkscape:label="Inset"
     style="display:inline"
     sodipodi:insensitive="true">
    <path
       style="opacity:0.15;fill:#000000;fill-opacity:1;stroke:none"
       d="m 2,34 0,3 c 0,4.986 4.014,9 9,9 l 26,0 c 4.986,0 9,-4.014 9,-9 l 0,-3 c 0,4.986 -4.014,9 -9,9 L 11,43 C 6.014,43 2,38.986 2,34 Z"
       id="rect3038-42"
       inkscape:connector-curvature="0" />
  </g>
  <g
     inkscape:groupmode="layer"
     id="layer7"
     inkscape:label="Baseshape"
     sodipodi:insensitive="true"
     style="display:none">
    <rect
       rx="9"
       ry="9"
       y="2"
       x="2"
       height="44"
       width="44"
       id="rect4169"
       style="fill:#abe1ad;fill-opacity:1;stroke:none;display:inline" />
  </g>
</svg>
