<?xml version="1.0" encoding="UTF-8" standalone="no"?>
<!-- Created with Inkscape (http://www.inkscape.org/) -->

<svg
   xmlns:dc="http://purl.org/dc/elements/1.1/"
   xmlns:cc="http://creativecommons.org/ns#"
   xmlns:rdf="http://www.w3.org/1999/02/22-rdf-syntax-ns#"
   xmlns:svg="http://www.w3.org/2000/svg"
   xmlns="http://www.w3.org/2000/svg"
   xmlns:xlink="http://www.w3.org/1999/xlink"
   xmlns:sodipodi="http://sodipodi.sourceforge.net/DTD/sodipodi-0.dtd"
   xmlns:inkscape="http://www.inkscape.org/namespaces/inkscape"
   width="48"
   height="48"
   id="svg4230"
   version="1.1"
   inkscape:version="0.48.5 r10040"
   sodipodi:docname="application-x-clementine.svg"
   inkscape:export-filename="/home/uri/mouse.png"
   inkscape:export-xdpi="960"
   inkscape:export-ydpi="960">
  <defs
     id="defs4232">
    <linearGradient
       id="linearGradient4243">
      <stop
         style="stop-color:#000000;stop-opacity:1;"
         offset="0"
         id="stop4245" />
      <stop
         style="stop-color:#000000;stop-opacity:0;"
         offset="1"
         id="stop4247" />
    </linearGradient>
    <radialGradient
       inkscape:collect="always"
       xlink:href="#linearGradient4243"
       id="radialGradient4274"
       gradientUnits="userSpaceOnUse"
       gradientTransform="matrix(1.0434782,0,0,0.1956518,-1.0434797,35.184809)"
       cx="24.000001"
       cy="42.499991"
       fx="24.000001"
       fy="42.499991"
       r="23" />
    <linearGradient
       inkscape:collect="always"
       xlink:href="#linearGradient3068"
       id="linearGradient3880"
       x1="26"
       y1="46"
       x2="26"
       y2="2"
       gradientUnits="userSpaceOnUse" />
    <linearGradient
       id="linearGradient3068">
      <stop
         style="stop-color:#333333;stop-opacity:1;"
         offset="0"
         id="stop3070" />
      <stop
         style="stop-color:#4b5252;stop-opacity:1;"
         offset="1"
         id="stop3072" />
    </linearGradient>
  </defs>
  <sodipodi:namedview
     id="base"
     pagecolor="#ffffff"
     bordercolor="#666666"
     borderopacity="1.0"
     inkscape:pageopacity="0.0"
     inkscape:pageshadow="2"
     inkscape:zoom="16"
     inkscape:cx="14.640368"
     inkscape:cy="29.344495"
     inkscape:document-units="px"
     inkscape:current-layer="layer1"
     showgrid="true"
     inkscape:showpageshadow="false"
     borderlayer="true"
     inkscape:window-width="1920"
     inkscape:window-height="1048"
     inkscape:window-x="0"
     inkscape:window-y="32"
     inkscape:window-maximized="1"
     showguides="true"
     inkscape:guide-bbox="true">
    <inkscape:grid
       type="xygrid"
       id="grid4162"
       empspacing="5"
       visible="true"
       enabled="true"
       snapvisiblegridlinesonly="true" />
    <sodipodi:guide
       position="1.0000013,47.000017"
       orientation="46,0"
       id="guide4163" />
    <sodipodi:guide
       position="1.0000013,1.0000174"
       orientation="0,45.999999"
       id="guide4165" />
    <sodipodi:guide
       position="47,1.0000174"
       orientation="-46,0"
       id="guide4167" />
    <sodipodi:guide
       position="47,47.000017"
       orientation="0,-45.999999"
       id="guide4169" />
    <sodipodi:guide
       position="2.0000007,46.000017"
       orientation="44,0"
       id="guide4173" />
    <sodipodi:guide
       position="2.0000007,2.0000174"
       orientation="0,43.999999"
       id="guide4175" />
    <sodipodi:guide
       position="46,2.0000174"
       orientation="-44,0"
       id="guide4177" />
    <sodipodi:guide
       position="46,46.000017"
       orientation="0,-43.999999"
       id="guide4179" />
    <sodipodi:guide
       position="40,40"
       orientation="-42,0"
       id="guide4187" />
    <sodipodi:guide
       position="45,45.000017"
       orientation="0,-42"
       id="guide4189" />
    <sodipodi:guide
       position="3,3.0000174"
       orientation="0,42"
       id="guide4195" />
    <sodipodi:guide
       position="8,41"
       orientation="-42,0"
       id="guide4197" />
    <sodipodi:guide
       position="45,45.000017"
       orientation="0,-42"
       id="guide4199" />
    <sodipodi:guide
       position="3,3.0000174"
       orientation="0,42"
       id="guide4205" />
    <sodipodi:guide
       position="6,42.000017"
       orientation="33.000017,0"
       id="guide4529" />
    <sodipodi:guide
       position="17,10"
       orientation="0,36"
       id="guide4531" />
    <sodipodi:guide
       position="42,9"
       orientation="-33.000017,0"
       id="guide4533" />
    <sodipodi:guide
       position="42,42.000017"
       orientation="0,-36"
       id="guide4535" />
  </sodipodi:namedview>
  <metadata
     id="metadata4235">
    <rdf:RDF>
      <cc:Work
         rdf:about="">
        <dc:format>image/svg+xml</dc:format>
        <dc:type
           rdf:resource="http://purl.org/dc/dcmitype/StillImage" />
        <dc:title></dc:title>
      </cc:Work>
    </rdf:RDF>
  </metadata>
  <g
     inkscape:groupmode="layer"
     id="layer3"
     inkscape:label="Fake blur shadow"
     style="display:inline"
     sodipodi:insensitive="true">
    <path
       style="opacity:0.06000001;fill:#000000;fill-opacity:1;stroke:none"
       d="M 10,1 C 5.014,1 1,5.014 1,10 l 0,28 c 0,4.986 4.014,9 9,9 l 28,0 c 4.986,0 9,-4.014 9,-9 L 47,10 C 47,5.014 42.986,1 38,1 L 10,1 z m 0.5,0.5 27,0 c 4.986,0 9,4.014 9,9 l 0,27 c 0,4.986 -4.014,9 -9,9 l -27,0 c -4.986,0 -9,-4.014 -9,-9 l 0,-27 c 0,-4.986 4.014,-9 9,-9 z"
       id="rect3829"
       inkscape:connector-curvature="0" />
    <path
       style="opacity:0.12000002;fill:#000000;fill-opacity:1;stroke:none"
       d="m 10.5,1.5 c -4.986,0 -9,4.014 -9,9 l 0,27 c 0,4.986 4.014,9 9,9 l 27,0 c 4.986,0 9,-4.014 9,-9 l 0,-27 c 0,-4.986 -4.014,-9 -9,-9 l -27,0 z m 0.25,0.25 26.5,0 c 4.986,0 9,4.014 9,9 l 0,26.5 c 0,4.986 -4.014,9 -9,9 l -26.5,0 c -4.986,0 -9,-4.014 -9,-9 l 0,-26.5 c 0,-4.986 4.014,-9 9,-9 z"
       id="rect3827"
       inkscape:connector-curvature="0" />
    <rect
       style="opacity:0.23999999;fill:#000000;fill-opacity:1;stroke:none"
       id="rect3038-4"
       width="44.5"
       height="44.5"
       x="1.75"
       y="1.75"
       ry="9"
       rx="9" />
  </g>
  <g
     inkscape:groupmode="layer"
     id="layer6"
     inkscape:label="Blob"
     style="display:inline"
     sodipodi:insensitive="true">
    <path
       style="opacity:0.3;fill:url(#radialGradient4274);fill-opacity:1;stroke:none"
       d="M 1.03125,39 C 1.5192036,43.518898 5.3471961,47 10,47 l 28,0 c 4.652804,0 8.480796,-3.481102 8.96875,-8 l -45.9375,0 z"
       id="rect4241"
       inkscape:connector-curvature="0" />
  </g>
  <g
     inkscape:groupmode="layer"
     id="layer2"
     inkscape:label="Baseplate"
     style="display:inline">
    <rect
       style="fill:url(#linearGradient3880);fill-opacity:1;stroke:none"
       id="rect3038"
       width="44"
       height="44"
       x="2"
       y="1.9999826"
       ry="9"
       rx="9" />
  </g>
  <g
     inkscape:label="Symbol"
     inkscape:groupmode="layer"
     id="layer1"
     transform="translate(0,-1004.3622)"
     style="display:inline">
    <path
       id="path3803"
       d="m 18.714639,1016.8886 a 1.9979642,1.9979642 0 0 0 -1.43305,0.6058 1.9979642,1.9979642 0 0 0 -0.253545,0.3243 c -1.83861,-0.7573 -3.222327,-0.8193 -3.886113,-0.156 -0.425184,0.4291 -0.558729,1.1496 -0.389665,2.1054 0.169076,0.9559 0.640189,2.1465 1.376967,3.479 -0.616906,-2.3023 -1.539561,-6.453 2.62891,-4.7624 a 1.9979642,1.9979642 0 0 0 -0.04148,0.4019 1.9979642,1.9979642 0 0 0 1.997973,1.998 1.9979642,1.9979642 0 0 0 1.369369,-0.5451 c 2.071753,1.4012 4.410316,3.363 6.570527,5.5225 7.865878,8.0547 9.637233,16.3236 -0.747196,10.3281 2.070314,1.5443 4.036291,2.6801 5.607175,3.2394 1.570914,0.5593 2.742005,0.5397 3.339304,-0.055 0.420467,-0.4206 0.558454,-1.1229 0.403098,-2.0553 -0.155353,-0.9323 -0.603461,-2.0938 -1.31095,-3.3959 -1.415025,-2.6044 -3.894362,-5.775 -6.736438,-8.617 -2.172281,-2.1715 -4.536265,-4.1351 -6.691458,-5.5657 a 1.9979642,1.9979642 0 0 0 0.19454,-0.8541 1.9979642,1.9979642 0 0 0 -1.997971,-1.998 z m 0,0.7846 a 1.2127989,1.2127989 0 0 1 1.213389,1.2128 1.2127989,1.2127989 0 0 1 -0.07712,0.423 c -3e-4,6e-4 -8.98e-4,0 -0.0012,0 -0.0073,0.019 -0.0157,0.038 -0.02396,0.057 a 1.2127989,1.2127989 0 0 1 -0.01753,0.04 c -0.0092,0.019 -0.01905,0.038 -0.02922,0.057 a 1.2127989,1.2127989 0 0 1 -0.01986,0.036 c -0.01149,0.019 -0.02312,0.039 -0.03564,0.058 -8.97e-4,9e-4 -0.0018,0 -0.003,0 -0.02937,0.044 -0.06166,0.085 -0.09639,0.1244 a 1.2127989,1.2127989 0 0 1 -0.02163,0.025 c -0.01412,0.015 -0.02952,0.03 -0.0444,0.044 a 1.2127989,1.2127989 0 0 1 -0.03856,0.036 c -0.01185,0.011 -0.02405,0.021 -0.03622,0.031 a 1.2127989,1.2127989 0 0 1 -0.07653,0.058 1.2127989,1.2127989 0 0 1 -0.0088,0.01 c -5.99e-4,3e-4 -5.99e-4,9e-4 -0.0012,0 a 1.2127989,1.2127989 0 0 1 -0.682348,0.2103 1.2127989,1.2127989 0 0 1 -1.213389,-1.2128 1.2127989,1.2127989 0 0 1 0.003,-0.067 c 8.98e-4,-0.017 0.003,-0.034 0.0047,-0.051 a 1.2127989,1.2127989 0 0 1 0.0076,-0.06 c 0.0027,-0.018 0.0053,-0.036 0.0088,-0.054 a 1.2127989,1.2127989 0 0 1 0.0093,-0.042 c 0.0169,-0.072 0.04049,-0.1423 0.07011,-0.2103 a 1.2127989,1.2127989 0 0 1 0.01519,-0.035 c 0.0095,-0.02 0.02043,-0.04 0.03096,-0.06 a 1.2127989,1.2127989 0 0 1 0.0181,-0.033 c 0.01077,-0.018 0.02154,-0.037 0.0333,-0.055 a 1.2127989,1.2127989 0 0 1 0.0012,0 c 0.01684,-0.026 0.03493,-0.051 0.05374,-0.075 a 1.2127989,1.2127989 0 0 1 0.08763,-0.1023 1.2127989,1.2127989 0 0 1 0.869879,-0.368 z m -1.600131,9.0224 2.461244,9.3146 1.947148,-4.1467 4.401964,-1.2701 -8.810356,-3.8978 z"
       style="opacity:0.15;fill:#000000;fill-opacity:1;fill-rule:evenodd;stroke:none"
       inkscape:connector-curvature="0" />
    <path
       id="path3805"
       d="m 18.714639,1016.8886 a 1.9979641,1.9979641 0 0 0 -1.43305,0.6058 1.9979641,1.9979641 0 0 0 -0.253545,0.3243 c -0.0034,0 -0.0066,0 -0.0099,0 -0.12632,0.2008 -0.219972,0.425 -0.268734,0.666 0.0031,0 0.0057,0 0.0088,0 a 1.9979641,1.9979641 0 0 0 -0.04148,0.4019 1.9979641,1.9979641 0 0 0 1.997973,1.998 1.9979641,1.9979641 0 0 0 1.369369,-0.5451 c 0.0027,0 0.0056,0 0.0082,0.01 0.179922,-0.1695 0.327764,-0.3716 0.435232,-0.5976 -0.0031,0 -0.0063,0 -0.0093,-0.01 a 1.9979641,1.9979641 0 0 0 0.194539,-0.8541 1.9979641,1.9979641 0 0 0 -1.99797,-1.998 z m 0,0.7846 a 1.2127988,1.2127988 0 0 1 1.213389,1.2128 1.2127988,1.2127988 0 0 1 -0.07712,0.423 c -3e-4,6e-4 -8.98e-4,0 -0.0012,0 -0.0073,0.019 -0.0157,0.038 -0.02396,0.057 a 1.2127988,1.2127988 0 0 1 -0.01753,0.04 c -0.0092,0.019 -0.01905,0.038 -0.02922,0.057 a 1.2127988,1.2127988 0 0 1 -0.01986,0.036 c -0.01149,0.019 -0.02312,0.039 -0.03564,0.058 -8.97e-4,9e-4 -0.0018,0 -0.003,0 -0.02937,0.044 -0.06166,0.085 -0.09639,0.1244 a 1.2127988,1.2127988 0 0 1 -0.02163,0.025 c -0.01412,0.015 -0.02952,0.03 -0.0444,0.044 a 1.2127988,1.2127988 0 0 1 -0.03856,0.036 c -0.01185,0.011 -0.02405,0.021 -0.03622,0.031 a 1.2127988,1.2127988 0 0 1 -0.07653,0.058 1.2127988,1.2127988 0 0 1 -0.0088,0.01 c -5.99e-4,3e-4 -5.99e-4,9e-4 -0.0012,0 a 1.2127988,1.2127988 0 0 1 -0.682348,0.2103 1.2127988,1.2127988 0 0 1 -1.213389,-1.2128 1.2127988,1.2127988 0 0 1 0.003,-0.067 c 8.98e-4,-0.017 0.003,-0.034 0.0047,-0.051 a 1.2127988,1.2127988 0 0 1 0.0076,-0.06 c 0.0027,-0.018 0.0053,-0.036 0.0088,-0.054 a 1.2127988,1.2127988 0 0 1 0.0093,-0.042 c 0.0169,-0.072 0.04049,-0.1423 0.07011,-0.2103 a 1.2127988,1.2127988 0 0 1 0.01519,-0.035 c 0.0095,-0.02 0.02043,-0.04 0.03096,-0.06 a 1.2127988,1.2127988 0 0 1 0.0181,-0.033 c 0.01077,-0.018 0.02154,-0.037 0.0333,-0.055 a 1.2127988,1.2127988 0 0 1 0.0012,0 c 0.01684,-0.026 0.03493,-0.051 0.05374,-0.075 a 1.2127988,1.2127988 0 0 1 0.08763,-0.1023 1.2127988,1.2127988 0 0 1 0.869879,-0.368 z"
       style="opacity:0.15;fill:#000000;fill-opacity:1;fill-rule:evenodd;stroke:none"
       inkscape:connector-curvature="0" />
    <path
       inkscape:connector-curvature="0"
       style="fill:#f9f9f9;fill-opacity:1;fill-rule:evenodd;stroke:none"
       d="m 18.714639,1015.8889 a 1.9979642,1.9979642 0 0 0 -1.43305,0.6058 1.9979642,1.9979642 0 0 0 -0.253545,0.3243 c -1.83861,-0.7573 -3.222327,-0.8193 -3.886113,-0.156 -0.425184,0.4291 -0.558729,1.1496 -0.389665,2.1054 0.169076,0.9559 0.640189,2.1465 1.376967,3.479 -0.616906,-2.3023 -1.539561,-6.453 2.62891,-4.7624 a 1.9979642,1.9979642 0 0 0 -0.04148,0.4019 1.9979642,1.9979642 0 0 0 1.997973,1.998 1.9979642,1.9979642 0 0 0 1.369369,-0.5451 c 2.071753,1.4012 4.410316,3.363 6.570527,5.5225 7.865878,8.0547 9.637233,16.3236 -0.747196,10.3281 2.070314,1.5443 4.036291,2.6801 5.607175,3.2394 1.570914,0.5593 2.742005,0.5397 3.339304,-0.055 0.420467,-0.4206 0.558454,-1.1229 0.403098,-2.0553 -0.155353,-0.9323 -0.603461,-2.0938 -1.31095,-3.3959 -1.415025,-2.6044 -3.894362,-5.775 -6.736438,-8.617 -2.172281,-2.1715 -4.536265,-4.1351 -6.691458,-5.5657 a 1.9979642,1.9979642 0 0 0 0.19454,-0.8541 1.9979642,1.9979642 0 0 0 -1.997971,-1.998 z m 0,0.7846 a 1.2127989,1.2127989 0 0 1 1.213389,1.2128 1.2127989,1.2127989 0 0 1 -0.07712,0.423 c -3e-4,6e-4 -8.98e-4,0 -0.0012,0 -0.0073,0.019 -0.0157,0.038 -0.02396,0.057 a 1.2127989,1.2127989 0 0 1 -0.01753,0.04 c -0.0092,0.019 -0.01905,0.038 -0.02922,0.057 a 1.2127989,1.2127989 0 0 1 -0.01986,0.036 c -0.01149,0.019 -0.02312,0.039 -0.03564,0.058 -8.97e-4,9e-4 -0.0018,0 -0.003,0 -0.02937,0.044 -0.06166,0.085 -0.09639,0.1244 a 1.2127989,1.2127989 0 0 1 -0.02163,0.025 c -0.01412,0.015 -0.02952,0.03 -0.0444,0.044 a 1.2127989,1.2127989 0 0 1 -0.03856,0.036 c -0.01185,0.011 -0.02405,0.021 -0.03622,0.031 a 1.2127989,1.2127989 0 0 1 -0.07653,0.058 1.2127989,1.2127989 0 0 1 -0.0088,0.01 c -5.99e-4,3e-4 -5.99e-4,9e-4 -0.0012,0 a 1.2127989,1.2127989 0 0 1 -0.682348,0.2103 1.2127989,1.2127989 0 0 1 -1.213389,-1.2128 1.2127989,1.2127989 0 0 1 0.003,-0.067 c 8.98e-4,-0.017 0.003,-0.034 0.0047,-0.051 a 1.2127989,1.2127989 0 0 1 0.0076,-0.06 c 0.0027,-0.018 0.0053,-0.036 0.0088,-0.054 a 1.2127989,1.2127989 0 0 1 0.0093,-0.042 c 0.0169,-0.072 0.04049,-0.1423 0.07011,-0.2103 a 1.2127989,1.2127989 0 0 1 0.01519,-0.035 c 0.0095,-0.02 0.02043,-0.04 0.03096,-0.06 a 1.2127989,1.2127989 0 0 1 0.0181,-0.033 c 0.01077,-0.018 0.02154,-0.037 0.0333,-0.055 a 1.2127989,1.2127989 0 0 1 0.0012,0 c 0.01684,-0.026 0.03493,-0.051 0.05374,-0.075 a 1.2127989,1.2127989 0 0 1 0.08763,-0.1023 1.2127989,1.2127989 0 0 1 0.869879,-0.368 z m -1.600131,9.0224 2.461244,9.3146 1.947148,-4.1467 4.401964,-1.2701 -8.810356,-3.8978 z"
       id="path4299-0" />
    <path
       inkscape:connector-curvature="0"
       style="fill:#35cbc4;fill-opacity:1;fill-rule:evenodd;stroke:none"
       d="m 18.714639,1015.8889 a 1.9979641,1.9979641 0 0 0 -1.43305,0.6058 1.9979641,1.9979641 0 0 0 -0.253545,0.3243 c -0.0034,0 -0.0066,0 -0.0099,0 -0.12632,0.2008 -0.219972,0.425 -0.268734,0.666 0.0031,0 0.0057,0 0.0088,0 a 1.9979641,1.9979641 0 0 0 -0.04148,0.4019 1.9979641,1.9979641 0 0 0 1.997973,1.998 1.9979641,1.9979641 0 0 0 1.369369,-0.5451 c 0.0027,0 0.0056,0 0.0082,0.01 0.179922,-0.1695 0.327764,-0.3716 0.435232,-0.5976 -0.0031,0 -0.0063,0 -0.0093,-0.01 a 1.9979641,1.9979641 0 0 0 0.194539,-0.8541 1.9979641,1.9979641 0 0 0 -1.99797,-1.998 z m 0,0.7846 a 1.2127988,1.2127988 0 0 1 1.213389,1.2128 1.2127988,1.2127988 0 0 1 -0.07712,0.423 c -3e-4,6e-4 -8.98e-4,0 -0.0012,0 -0.0073,0.019 -0.0157,0.038 -0.02396,0.057 a 1.2127988,1.2127988 0 0 1 -0.01753,0.04 c -0.0092,0.019 -0.01905,0.038 -0.02922,0.057 a 1.2127988,1.2127988 0 0 1 -0.01986,0.036 c -0.01149,0.019 -0.02312,0.039 -0.03564,0.058 -8.97e-4,9e-4 -0.0018,0 -0.003,0 -0.02937,0.044 -0.06166,0.085 -0.09639,0.1244 a 1.2127988,1.2127988 0 0 1 -0.02163,0.025 c -0.01412,0.015 -0.02952,0.03 -0.0444,0.044 a 1.2127988,1.2127988 0 0 1 -0.03856,0.036 c -0.01185,0.011 -0.02405,0.021 -0.03622,0.031 a 1.2127988,1.2127988 0 0 1 -0.07653,0.058 1.2127988,1.2127988 0 0 1 -0.0088,0.01 c -5.99e-4,3e-4 -5.99e-4,9e-4 -0.0012,0 a 1.2127988,1.2127988 0 0 1 -0.682348,0.2103 1.2127988,1.2127988 0 0 1 -1.213389,-1.2128 1.2127988,1.2127988 0 0 1 0.003,-0.067 c 8.98e-4,-0.017 0.003,-0.034 0.0047,-0.051 a 1.2127988,1.2127988 0 0 1 0.0076,-0.06 c 0.0027,-0.018 0.0053,-0.036 0.0088,-0.054 a 1.2127988,1.2127988 0 0 1 0.0093,-0.042 c 0.0169,-0.072 0.04049,-0.1423 0.07011,-0.2103 a 1.2127988,1.2127988 0 0 1 0.01519,-0.035 c 0.0095,-0.02 0.02043,-0.04 0.03096,-0.06 a 1.2127988,1.2127988 0 0 1 0.0181,-0.033 c 0.01077,-0.018 0.02154,-0.037 0.0333,-0.055 a 1.2127988,1.2127988 0 0 1 0.0012,0 c 0.01684,-0.026 0.03493,-0.051 0.05374,-0.075 a 1.2127988,1.2127988 0 0 1 0.08763,-0.1023 1.2127988,1.2127988 0 0 1 0.869879,-0.368 z"
       id="path3425-4" />
  </g>
  <g
     inkscape:groupmode="layer"
     id="layer4"
     inkscape:label="Inset"
     sodipodi:insensitive="true"
     style="display:inline">
    <path
       style="opacity:0.15;fill:#000000;fill-opacity:1;stroke:none"
       d="m 2,34 0,3 c 0,4.986 4.014,9 9,9 l 26,0 c 4.986,0 9,-4.014 9,-9 l 0,-3 c 0,4.986 -4.014,9 -9,9 L 11,43 C 6.014,43 2,38.986 2,34 z"
       id="rect3038-42"
       inkscape:connector-curvature="0" />
  </g>
  <g
     inkscape:groupmode="layer"
     id="layer7"
     inkscape:label="Baseshape"
     sodipodi:insensitive="true"
     style="display:none">
    <rect
       rx="9"
       ry="9"
       y="2"
       x="2"
       height="44"
       width="44"
       id="rect4169"
       style="fill:#abe1ad;fill-opacity:1;stroke:none;display:inline" />
  </g>
</svg>
