<?xml version="1.0" encoding="UTF-8" standalone="no"?>
<!-- Created with Inkscape (http://www.inkscape.org/) -->

<svg
   xmlns:dc="http://purl.org/dc/elements/1.1/"
   xmlns:cc="http://creativecommons.org/ns#"
   xmlns:rdf="http://www.w3.org/1999/02/22-rdf-syntax-ns#"
   xmlns:svg="http://www.w3.org/2000/svg"
   xmlns="http://www.w3.org/2000/svg"
   xmlns:xlink="http://www.w3.org/1999/xlink"
   xmlns:sodipodi="http://sodipodi.sourceforge.net/DTD/sodipodi-0.dtd"
   xmlns:inkscape="http://www.inkscape.org/namespaces/inkscape"
   width="48"
   height="48"
   id="svg4230"
   version="1.1"
   inkscape:version="0.91pre2 r"
   sodipodi:docname="preferences-desktop-locale.svg">
  <defs
     id="defs4232">
    <linearGradient
       id="linearGradient4243">
      <stop
         style="stop-color:#000000;stop-opacity:1;"
         offset="0"
         id="stop4245" />
      <stop
         style="stop-color:#000000;stop-opacity:0;"
         offset="1"
         id="stop4247" />
    </linearGradient>
    <radialGradient
       inkscape:collect="always"
       xlink:href="#linearGradient4243"
       id="radialGradient4274"
       gradientUnits="userSpaceOnUse"
       gradientTransform="matrix(1.0434782,0,0,0.1956518,-1.0434797,35.184809)"
       cx="24.000001"
       cy="42.499991"
       fx="24.000001"
       fy="42.499991"
       r="23" />
    <linearGradient
       inkscape:collect="always"
       xlink:href="#linearGradient4524"
       id="linearGradient4530"
       x1="24"
       y1="46"
       x2="24"
       y2="2"
       gradientUnits="userSpaceOnUse" />
    <linearGradient
       inkscape:collect="always"
       xlink:href="#linearGradient5080"
       id="linearGradient5243"
       x1="25"
       y1="37"
       x2="25"
       y2="8"
       gradientUnits="userSpaceOnUse"
       gradientTransform="matrix(1.9999997,0,0,1.9999997,-23.999998,-15.999999)" />
    <linearGradient
       id="linearGradient5080"
       inkscape:collect="always">
      <stop
         id="stop5082"
         offset="0"
         style="stop-color:#dcf0fa;stop-opacity:1" />
      <stop
         id="stop5084"
         offset="1"
         style="stop-color:#ffffff;stop-opacity:1" />
    </linearGradient>
    <linearGradient
       id="linearGradient4524">
      <stop
         id="stop4526"
         offset="0"
         style="stop-color:#1b96d4;stop-opacity:1;" />
      <stop
         id="stop4528"
         offset="1"
         style="stop-color:#27b7ff;stop-opacity:1;" />
    </linearGradient>
  </defs>
  <sodipodi:namedview
     id="base"
     pagecolor="#ffffff"
     bordercolor="#666666"
     borderopacity="1.0"
     inkscape:pageopacity="0.0"
     inkscape:pageshadow="2"
     inkscape:zoom="4.7232523"
     inkscape:cx="14.988548"
     inkscape:cy="29.581995"
     inkscape:document-units="px"
     inkscape:current-layer="layer2"
     showgrid="true"
     inkscape:showpageshadow="false"
     borderlayer="true"
     inkscape:window-width="1366"
     inkscape:window-height="672"
     inkscape:window-x="-4"
     inkscape:window-y="25"
     inkscape:window-maximized="1"
     showguides="false"
     inkscape:guide-bbox="true">
    <inkscape:grid
       type="xygrid"
       id="grid4162" />
    <sodipodi:guide
       position="1.0000013,47.000017"
       orientation="46,0"
       id="guide4163" />
    <sodipodi:guide
       position="1.0000013,1.0000174"
       orientation="0,45.999999"
       id="guide4165" />
    <sodipodi:guide
       position="47,1.0000174"
       orientation="-46,0"
       id="guide4167" />
    <sodipodi:guide
       position="47,47.000017"
       orientation="0,-45.999999"
       id="guide4169" />
    <sodipodi:guide
       position="2.0000007,46.000017"
       orientation="44,0"
       id="guide4173" />
    <sodipodi:guide
       position="2.0000007,2.0000174"
       orientation="0,43.999999"
       id="guide4175" />
    <sodipodi:guide
       position="46,2.0000174"
       orientation="-44,0"
       id="guide4177" />
    <sodipodi:guide
       position="46,46.000017"
       orientation="0,-43.999999"
       id="guide4179" />
    <sodipodi:guide
       position="3,45.000017"
       orientation="42,0"
       id="guide4183" />
    <sodipodi:guide
       position="45,3.0000174"
       orientation="-42,0"
       id="guide4187" />
    <sodipodi:guide
       position="45,45.000017"
       orientation="0,-42"
       id="guide4189" />
    <sodipodi:guide
       position="3,45.000017"
       orientation="42,0"
       id="guide4193" />
    <sodipodi:guide
       position="3,3.0000174"
       orientation="0,42"
       id="guide4195" />
    <sodipodi:guide
       position="45,3.0000174"
       orientation="-42,0"
       id="guide4197" />
    <sodipodi:guide
       position="45,45.000017"
       orientation="0,-42"
       id="guide4199" />
    <sodipodi:guide
       position="3,10.000017"
       orientation="7,0"
       id="guide4203" />
    <sodipodi:guide
       position="3,3.0000174"
       orientation="0,42"
       id="guide4205" />
    <sodipodi:guide
       position="45,3.0000174"
       orientation="-7,0"
       id="guide4207" />
    <sodipodi:guide
       position="45,10.000017"
       orientation="0,-42"
       id="guide4209" />
  </sodipodi:namedview>
  <metadata
     id="metadata4235">
    <rdf:RDF>
      <cc:Work
         rdf:about="">
        <dc:format>image/svg+xml</dc:format>
        <dc:type
           rdf:resource="http://purl.org/dc/dcmitype/StillImage" />
        <dc:title />
      </cc:Work>
    </rdf:RDF>
  </metadata>
  <g
     inkscape:groupmode="layer"
     id="layer3"
     inkscape:label="Fake blur shadow"
     style="display:inline"
     sodipodi:insensitive="true">
    <path
       style="opacity:0.06000001;fill:#000000;fill-opacity:1;stroke:none"
       d="M 10,1 C 5.014,1 1,5.014 1,10 l 0,28 c 0,4.986 4.014,9 9,9 l 28,0 c 4.986,0 9,-4.014 9,-9 L 47,10 C 47,5.014 42.986,1 38,1 L 10,1 z m 0.5,0.5 27,0 c 4.986,0 9,4.014 9,9 l 0,27 c 0,4.986 -4.014,9 -9,9 l -27,0 c -4.986,0 -9,-4.014 -9,-9 l 0,-27 c 0,-4.986 4.014,-9 9,-9 z"
       id="rect3829"
       inkscape:connector-curvature="0" />
    <path
       style="opacity:0.12000002;fill:#000000;fill-opacity:1;stroke:none"
       d="m 10.5,1.5 c -4.986,0 -9,4.014 -9,9 l 0,27 c 0,4.986 4.014,9 9,9 l 27,0 c 4.986,0 9,-4.014 9,-9 l 0,-27 c 0,-4.986 -4.014,-9 -9,-9 l -27,0 z m 0.25,0.25 26.5,0 c 4.986,0 9,4.014 9,9 l 0,26.5 c 0,4.986 -4.014,9 -9,9 l -26.5,0 c -4.986,0 -9,-4.014 -9,-9 l 0,-26.5 c 0,-4.986 4.014,-9 9,-9 z"
       id="rect3827"
       inkscape:connector-curvature="0" />
    <rect
       style="opacity:0.23999999;fill:#000000;fill-opacity:1;stroke:none"
       id="rect3038-4"
       width="44.5"
       height="44.5"
       x="1.75"
       y="1.75"
       ry="9"
       rx="9" />
  </g>
  <g
     inkscape:groupmode="layer"
     id="layer6"
     inkscape:label="Blob"
     style="display:inline"
     sodipodi:insensitive="true">
    <path
       style="opacity:0.3;fill:url(#radialGradient4274);fill-opacity:1;stroke:none"
       d="M 1.03125,39 C 1.5192036,43.518898 5.3471961,47 10,47 l 28,0 c 4.652804,0 8.480796,-3.481102 8.96875,-8 l -45.9375,0 z"
       id="rect4241"
       inkscape:connector-curvature="0" />
  </g>
  <g
     inkscape:groupmode="layer"
     id="layer2"
     inkscape:label="Baseplate"
     style="display:inline">
    <rect
       style="fill:url(#linearGradient4530);fill-opacity:1.0;stroke:none"
       id="rect3038"
       width="44"
       height="44"
       x="2"
       y="1.9999826"
       ry="9"
       rx="9" />
    <path
       inkscape:connector-curvature="0"
       id="path5916"
       d="m 24,10 c -7.756,0 -14,6.244 -14,14 0,7.756 6.244,14 14,14 7.756,0 14,-6.244 14,-14 0,-7.756 -6.244,-14 -14,-14 z m 0,1.999999 c 0.854893,0 1.688781,0.08943 2.492185,0.257811 0.771412,1.389242 1.414906,2.989514 1.914064,4.74219 l -9.394532,0 C 19.490559,15.318669 20.10587,13.782999 20.835941,12.433593 21.845089,12.159797 22.901842,11.999999 24,11.999999 Z m 5.08203,1.136717 C 30.951997,14.009163 32.554991,15.341361 33.746097,17 l -3.304694,0 C 30.070108,15.636738 29.617106,14.339821 29.08203,13.136716 Z M 18.179685,13.5 c -0.467646,1.09984 -0.868756,2.272283 -1.203122,3.5 l -2.72266,0 c 1.032485,-1.437759 2.368363,-2.638143 3.925782,-3.5 z m -5.085936,5.499999 3.410159,0 c -0.262859,1.293658 -0.452326,2.632912 -0.566409,3.999998 l -3.88672,0 c 0.116352,-1.41977 0.478615,-2.76544 1.04297,-3.999998 z m 5.425783,0 10.378903,0 c 0.269228,1.281836 0.45672,2.622787 0.574221,3.999998 l -11.527346,0 c 0.117486,-1.377211 0.305,-2.718162 0.574222,-3.999998 z m 12.394533,0 3.992186,0 c 0.564355,1.234558 0.926606,2.580228 1.04297,3.999998 l -4.468754,0 c -0.1141,-1.367246 -0.303504,-2.70619 -0.566402,-3.999998 z m -18.863286,6.000004 3.777348,0 c -0.0095,0.333635 -0.02705,0.664513 -0.02732,0.999996 0.0016,1.008001 0.06093,2.007989 0.144527,3.000002 l -2.851562,0 c -0.56436,-1.234558 -0.926611,-2.580228 -1.042975,-3.999998 z m 5.781254,0 11.753908,0 c 0.0097,0.333764 0.03094,0.66362 0.03124,0.999996 -6.21e-4,1.010712 -0.04879,2.010638 -0.132818,3.000002 l -11.546877,0 c -0.08401,-0.989377 -0.136094,-1.989284 -0.136696,-3.000002 3.21e-4,-0.336376 0.02167,-0.666232 0.03124,-0.999996 z m 13.757813,0 4.359375,0 c -0.116352,1.41977 -0.478615,2.76544 -1.04297,3.999998 l -3.433596,0 C 31.556235,28.007988 31.61555,27.008 31.61718,25.999999 31.616922,25.664516 31.59925,25.333638 31.58985,25.000003 Z M 14.253903,31 l 1.910158,0 c 0.118466,0.834314 0.272718,1.652375 0.449219,2.45703 C 15.714159,32.754787 14.920162,31.927781 14.253903,31 Z m 3.91797,0 11.074221,0 c -0.210783,1.459136 -0.521218,2.853618 -0.910155,4.183593 C 26.990637,35.70292 25.532815,36.000001 24,36.000001 c -1.788461,0 -3.478101,-0.398036 -5.000001,-1.09375 C 18.649421,33.658697 18.367966,32.357443 18.171873,31 Z m 13.082032,0 2.492192,0 c -0.835799,1.163865 -1.866754,2.178011 -3.058594,2.976565 C 30.91729,33.007079 31.109763,32.014891 31.253905,31 Z"
       style="color:#000000;text-decoration:none;text-decoration-line:none;text-decoration-style:solid;text-decoration-color:#000000;clip-rule:nonzero;display:inline;overflow:visible;visibility:visible;opacity:1;isolation:auto;mix-blend-mode:normal;color-interpolation:sRGB;color-interpolation-filters:linearRGB;solid-color:#000000;solid-opacity:1;fill:#000000;fill-opacity:0.11764706;fill-rule:nonzero;stroke:none;stroke-width:1;stroke-linecap:butt;stroke-linejoin:miter;stroke-miterlimit:4;stroke-dasharray:none;stroke-dashoffset:0;stroke-opacity:1;color-rendering:auto;image-rendering:auto;shape-rendering:auto;text-rendering:auto;enable-background:accumulate" />
    <path
       style="color:#000000;text-decoration:none;text-decoration-line:none;text-decoration-style:solid;text-decoration-color:#000000;clip-rule:nonzero;display:inline;overflow:visible;visibility:visible;opacity:1;isolation:auto;mix-blend-mode:normal;color-interpolation:sRGB;color-interpolation-filters:linearRGB;solid-color:#000000;solid-opacity:1;fill:url(#linearGradient5243);fill-opacity:1.0;fill-rule:nonzero;stroke:none;stroke-width:1;stroke-linecap:butt;stroke-linejoin:miter;stroke-miterlimit:4;stroke-dasharray:none;stroke-dashoffset:0;stroke-opacity:1;color-rendering:auto;image-rendering:auto;shape-rendering:auto;text-rendering:auto;enable-background:accumulate"
       d="M 24,8.9999996 C 16.244,8.9999996 10,15.244 10,23 10,30.756 16.244,37 24,37 31.756,37 38,30.756 38,23 38,15.244 31.756,8.9999996 24,8.9999996 Z m 0,1.9999994 c 0.854893,0 1.688781,0.08943 2.492185,0.257811 0.771412,1.389242 1.414906,2.989514 1.914064,4.74219 l -9.394532,0 C 19.490559,14.318669 20.10587,12.782999 20.835941,11.433593 21.845089,11.159797 22.901842,10.999999 24,10.999999 Z m 5.08203,1.136717 C 30.951997,13.009163 32.554991,14.341361 33.746097,16 l -3.304694,0 C 30.070108,14.636738 29.617106,13.339821 29.08203,12.136716 Z M 18.179685,12.5 c -0.467646,1.09984 -0.868756,2.272283 -1.203122,3.5 l -2.72266,0 c 1.032485,-1.437759 2.368363,-2.638143 3.925782,-3.5 z m -5.085936,5.499999 3.410159,0 c -0.262859,1.293658 -0.452326,2.632912 -0.566409,3.999998 l -3.88672,0 c 0.116352,-1.41977 0.478615,-2.76544 1.04297,-3.999998 z m 5.425783,0 10.378903,0 c 0.269228,1.281836 0.45672,2.622787 0.574221,3.999998 l -11.527346,0 c 0.117486,-1.377211 0.305,-2.718162 0.574222,-3.999998 z m 12.394533,0 3.992186,0 c 0.564355,1.234558 0.926606,2.580228 1.04297,3.999998 l -4.468754,0 c -0.1141,-1.367246 -0.303504,-2.70619 -0.566402,-3.999998 z m -18.863286,6.000004 3.777348,0 c -0.0095,0.333635 -0.02705,0.664513 -0.02732,0.999996 0.0016,1.008001 0.06093,2.007989 0.144527,3.000002 l -2.851562,0 c -0.56436,-1.234558 -0.926611,-2.580228 -1.042975,-3.999998 z m 5.781254,0 11.753908,0 c 0.0097,0.333764 0.03094,0.66362 0.03124,0.999996 -6.21e-4,1.010712 -0.04879,2.010638 -0.132818,3.000002 l -11.546877,0 c -0.08401,-0.989377 -0.136094,-1.989284 -0.136696,-3.000002 3.21e-4,-0.336376 0.02167,-0.666232 0.03124,-0.999996 z m 13.757813,0 4.359375,0 c -0.116352,1.41977 -0.478615,2.76544 -1.04297,3.999998 l -3.433596,0 C 31.556235,27.007988 31.61555,26.008 31.61718,24.999999 31.616922,24.664516 31.59925,24.333638 31.58985,24.000003 Z M 14.253903,30 l 1.910158,0 c 0.118466,0.834314 0.272718,1.652375 0.449219,2.45703 C 15.714159,31.754787 14.920162,30.927781 14.253903,30 Z m 3.91797,0 11.074221,0 c -0.210783,1.459136 -0.521218,2.853618 -0.910155,4.183593 C 26.990637,34.70292 25.532815,35.000001 24,35.000001 c -1.788461,0 -3.478101,-0.398036 -5.000001,-1.09375 C 18.649421,32.658697 18.367966,31.357443 18.171873,30 Z m 13.082032,0 2.492192,0 c -0.835799,1.163865 -1.866754,2.178011 -3.058594,2.976565 C 30.91729,32.007079 31.109763,31.014891 31.253905,30 Z"
       id="path4204"
       inkscape:connector-curvature="0" />
    <path
       inkscape:connector-curvature="0"
       id="path4433"
       d="m 21,24 0,7 6,0 3,3 0,-3 1,0 0,-7 -10,0 z"
       style="color:#000000;text-decoration:none;text-decoration-line:none;text-decoration-style:solid;text-decoration-color:#000000;clip-rule:nonzero;display:inline;overflow:visible;visibility:visible;opacity:1;isolation:auto;mix-blend-mode:normal;color-interpolation:sRGB;color-interpolation-filters:linearRGB;solid-color:#000000;solid-opacity:1;fill:#000000;fill-opacity:0.11764706;fill-rule:nonzero;stroke:none;stroke-width:1;stroke-linecap:butt;stroke-linejoin:miter;stroke-miterlimit:4;stroke-dasharray:none;stroke-dashoffset:0;stroke-opacity:1;color-rendering:auto;image-rendering:auto;shape-rendering:auto;text-rendering:auto;enable-background:accumulate" />
    <path
       style="color:#000000;text-decoration:none;text-decoration-line:none;text-decoration-style:solid;text-decoration-color:#000000;clip-rule:nonzero;display:inline;overflow:visible;visibility:visible;opacity:1;isolation:auto;mix-blend-mode:normal;color-interpolation:sRGB;color-interpolation-filters:linearRGB;solid-color:#000000;solid-opacity:1;fill:#72c8f2;fill-opacity:1;fill-rule:nonzero;stroke:none;stroke-width:1;stroke-linecap:butt;stroke-linejoin:miter;stroke-miterlimit:4;stroke-dasharray:none;stroke-dashoffset:0;stroke-opacity:1;color-rendering:auto;image-rendering:auto;shape-rendering:auto;text-rendering:auto;enable-background:accumulate"
       d="m 21,23 0,7 6,0 3,3 0,-3 1,0 0,-7 -10,0 z"
       id="rect4180"
       inkscape:connector-curvature="0" />
    <path
       inkscape:connector-curvature="0"
       style="color:#000000;text-decoration:none;text-decoration-line:none;text-decoration-style:solid;text-decoration-color:#000000;clip-rule:nonzero;display:inline;overflow:visible;visibility:visible;opacity:1;isolation:auto;mix-blend-mode:normal;color-interpolation:sRGB;color-interpolation-filters:linearRGB;solid-color:#000000;solid-opacity:1;fill:#000000;fill-opacity:0.11764706;fill-rule:nonzero;stroke:none;stroke-width:1;stroke-linecap:butt;stroke-linejoin:miter;stroke-miterlimit:4;stroke-dasharray:none;stroke-dashoffset:0;stroke-opacity:1;color-rendering:auto;image-rendering:auto;shape-rendering:auto;text-rendering:auto;enable-background:accumulate"
       d="m 27,16 0,7 -6,0 -3,3 0,-3 -1,0 0,-7 10,0 z"
       id="path4435" />
    <path
       id="path4431"
       d="m 27,15 0,7 -6,0 -3,3 0,-3 -1,0 0,-7 10,0 z"
       style="color:#000000;text-decoration:none;text-decoration-line:none;text-decoration-style:solid;text-decoration-color:#000000;clip-rule:nonzero;display:inline;overflow:visible;visibility:visible;opacity:1;isolation:auto;mix-blend-mode:normal;color-interpolation:sRGB;color-interpolation-filters:linearRGB;solid-color:#000000;solid-opacity:1;fill:#5fcc40;fill-opacity:1;fill-rule:nonzero;stroke:none;stroke-width:1;stroke-linecap:butt;stroke-linejoin:miter;stroke-miterlimit:4;stroke-dasharray:none;stroke-dashoffset:0;stroke-opacity:1;color-rendering:auto;image-rendering:auto;shape-rendering:auto;text-rendering:auto;enable-background:accumulate"
       inkscape:connector-curvature="0" />
  </g>
  <g
     inkscape:label="Symbol"
     inkscape:groupmode="layer"
     id="layer1"
     transform="translate(0,-1004.3622)"
     style="display:inline" />
  <g
     inkscape:groupmode="layer"
     id="layer4"
     inkscape:label="Inset"
     sodipodi:insensitive="true"
     style="display:inline">
    <path
       style="opacity:0.15;fill:#000000;fill-opacity:1;stroke:none"
       d="m 2,34 0,3 c 0,4.986 4.014,9 9,9 l 26,0 c 4.986,0 9,-4.014 9,-9 l 0,-3 c 0,4.986 -4.014,9 -9,9 L 11,43 C 6.014,43 2,38.986 2,34 z"
       id="rect3038-42"
       inkscape:connector-curvature="0" />
  </g>
  <g
     inkscape:groupmode="layer"
     id="layer7"
     inkscape:label="Baseshape"
     sodipodi:insensitive="true"
     style="display:none">
    <rect
       rx="9"
       ry="9"
       y="2"
       x="2"
       height="44"
       width="44"
       id="rect4169"
       style="fill:#abe1ad;fill-opacity:1;stroke:none;display:inline" />
  </g>
</svg>
