<?xml version="1.0" encoding="UTF-8" standalone="no"?>
<!-- Created with Inkscape (http://www.inkscape.org/) -->

<svg
   xmlns:dc="http://purl.org/dc/elements/1.1/"
   xmlns:cc="http://creativecommons.org/ns#"
   xmlns:rdf="http://www.w3.org/1999/02/22-rdf-syntax-ns#"
   xmlns:svg="http://www.w3.org/2000/svg"
   xmlns="http://www.w3.org/2000/svg"
   xmlns:xlink="http://www.w3.org/1999/xlink"
   xmlns:sodipodi="http://sodipodi.sourceforge.net/DTD/sodipodi-0.dtd"
   xmlns:inkscape="http://www.inkscape.org/namespaces/inkscape"
   width="48"
   height="48"
   id="svg4230"
   version="1.1"
   inkscape:version="0.48.5 r10040"
   sodipodi:docname="tapet.svg"
   inkscape:export-filename="/home/uri/text-editor.png"
   inkscape:export-xdpi="960"
   inkscape:export-ydpi="960">
  <defs
     id="defs4232">
    <linearGradient
       inkscape:collect="always"
       id="linearGradient3979">
      <stop
         style="stop-color:#f7f7f7;stop-opacity:1;"
         offset="0"
         id="stop3981" />
      <stop
         style="stop-color:#f7f7f7;stop-opacity:0;"
         offset="1"
         id="stop3983" />
    </linearGradient>
    <linearGradient
       inkscape:collect="always"
       id="linearGradient3961">
      <stop
         style="stop-color:#f7f7f7;stop-opacity:1;"
         offset="0"
         id="stop3963" />
      <stop
         style="stop-color:#f7f7f7;stop-opacity:0;"
         offset="1"
         id="stop3965" />
    </linearGradient>
    <linearGradient
       inkscape:collect="always"
       id="linearGradient3947">
      <stop
         style="stop-color:#f7f7f7;stop-opacity:1;"
         offset="0"
         id="stop3949" />
      <stop
         style="stop-color:#f7f7f7;stop-opacity:0;"
         offset="1"
         id="stop3951" />
    </linearGradient>
    <linearGradient
       id="linearGradient4198">
      <stop
         id="stop4200"
         offset="0"
         style="stop-color:#cbcbcb;stop-opacity:1;" />
      <stop
         id="stop4202"
         offset="1"
         style="stop-color:#e2e2e2;stop-opacity:1;" />
    </linearGradient>
    <linearGradient
       id="linearGradient3874">
      <stop
         style="stop-color:#d9e0e3;stop-opacity:1"
         offset="0"
         id="stop3876" />
      <stop
         style="stop-color:#ecf1f3;stop-opacity:1"
         offset="1"
         id="stop3878" />
    </linearGradient>
    <linearGradient
       id="linearGradient4243">
      <stop
         style="stop-color:#000000;stop-opacity:1;"
         offset="0"
         id="stop4245" />
      <stop
         style="stop-color:#000000;stop-opacity:0;"
         offset="1"
         id="stop4247" />
    </linearGradient>
    <radialGradient
       inkscape:collect="always"
       xlink:href="#linearGradient4243"
       id="radialGradient4274"
       gradientUnits="userSpaceOnUse"
       gradientTransform="matrix(1.0434782,0,0,0.1956518,-1.0434797,35.184809)"
       cx="24.000001"
       cy="42.499991"
       fx="24.000001"
       fy="42.499991"
       r="23" />
    <linearGradient
       inkscape:collect="always"
       xlink:href="#linearGradient3755-7"
       id="linearGradient3880"
       x1="44"
       y1="43"
       x2="2"
       y2="2"
       gradientUnits="userSpaceOnUse" />
    <linearGradient
       id="linearGradient3755">
      <stop
         id="stop3757"
         offset="0"
         style="stop-color:#00f0b3;stop-opacity:1;" />
      <stop
         style="stop-color:#2db1e4;stop-opacity:1;"
         offset="0.70833331"
         id="stop3763" />
      <stop
         id="stop3759"
         offset="1"
         style="stop-color:#9d4ede;stop-opacity:1;" />
    </linearGradient>
    <linearGradient
       inkscape:collect="always"
       xlink:href="#linearGradient3755-7"
       id="linearGradient3868-3"
       x1="44"
       y1="41"
       x2="5"
       y2="4"
       gradientUnits="userSpaceOnUse" />
    <linearGradient
       id="linearGradient3755-7">
      <stop
         id="stop3757-3"
         offset="0"
         style="stop-color:#00f0b3;stop-opacity:1;" />
      <stop
         style="stop-color:#2db1e4;stop-opacity:1;"
         offset="0.70833331"
         id="stop3763-0" />
      <stop
         id="stop3759-8"
         offset="1"
         style="stop-color:#9d4ede;stop-opacity:1;" />
    </linearGradient>
    <radialGradient
       inkscape:collect="always"
       xlink:href="#linearGradient3947"
       id="radialGradient3953"
       cx="12.5"
       cy="31.5"
       fx="12.5"
       fy="31.5"
       r="2.5"
       gradientUnits="userSpaceOnUse" />
    <radialGradient
       inkscape:collect="always"
       xlink:href="#linearGradient3947"
       id="radialGradient3957"
       gradientUnits="userSpaceOnUse"
       cx="12.5"
       cy="31.5"
       fx="12.5"
       fy="31.5"
       r="2.5" />
    <radialGradient
       inkscape:collect="always"
       xlink:href="#linearGradient3961"
       id="radialGradient3967"
       cx="12.5"
       cy="31.5"
       fx="12.5"
       fy="31.5"
       r="2.5"
       gradientUnits="userSpaceOnUse" />
    <radialGradient
       inkscape:collect="always"
       xlink:href="#linearGradient3961"
       id="radialGradient3971"
       gradientUnits="userSpaceOnUse"
       cx="12.5"
       cy="31.5"
       fx="12.5"
       fy="31.5"
       r="2.5" />
    <radialGradient
       inkscape:collect="always"
       xlink:href="#linearGradient3961"
       id="radialGradient3975"
       gradientUnits="userSpaceOnUse"
       cx="12.5"
       cy="31.5"
       fx="12.5"
       fy="31.5"
       r="2.5" />
    <radialGradient
       inkscape:collect="always"
       xlink:href="#linearGradient3979"
       id="radialGradient3985"
       cx="12.5"
       cy="31.5"
       fx="12.5"
       fy="31.5"
       r="2.5"
       gradientUnits="userSpaceOnUse" />
    <radialGradient
       inkscape:collect="always"
       xlink:href="#linearGradient3979"
       id="radialGradient3989"
       gradientUnits="userSpaceOnUse"
       cx="12.5"
       cy="31.5"
       fx="12.5"
       fy="31.5"
       r="2.5" />
    <radialGradient
       inkscape:collect="always"
       xlink:href="#linearGradient3979"
       id="radialGradient3993"
       gradientUnits="userSpaceOnUse"
       cx="12.5"
       cy="31.5"
       fx="12.5"
       fy="31.5"
       r="2.5" />
    <radialGradient
       inkscape:collect="always"
       xlink:href="#linearGradient3979"
       id="radialGradient3080"
       gradientUnits="userSpaceOnUse"
       cx="12.5"
       cy="31.5"
       fx="12.5"
       fy="31.5"
       r="2.5" />
    <radialGradient
       inkscape:collect="always"
       xlink:href="#linearGradient3979"
       id="radialGradient3088"
       gradientUnits="userSpaceOnUse"
       cx="12.5"
       cy="31.5"
       fx="12.5"
       fy="31.5"
       r="2.5" />
    <radialGradient
       inkscape:collect="always"
       xlink:href="#linearGradient3979"
       id="radialGradient3090"
       gradientUnits="userSpaceOnUse"
       cx="12.5"
       cy="31.5"
       fx="12.5"
       fy="31.5"
       r="2.5" />
  </defs>
  <sodipodi:namedview
     id="base"
     pagecolor="#ffffff"
     bordercolor="#666666"
     borderopacity="1.0"
     inkscape:pageopacity="0.0"
     inkscape:pageshadow="2"
     inkscape:zoom="44.8875"
     inkscape:cx="12.466041"
     inkscape:cy="34.420951"
     inkscape:document-units="px"
     inkscape:current-layer="layer1"
     showgrid="true"
     inkscape:showpageshadow="false"
     borderlayer="true"
     inkscape:window-width="1920"
     inkscape:window-height="1023"
     inkscape:window-x="0"
     inkscape:window-y="28"
     inkscape:window-maximized="1"
     showguides="false"
     inkscape:guide-bbox="true">
    <inkscape:grid
       type="xygrid"
       id="grid4162" />
    <sodipodi:guide
       position="1.0000013,47.000017"
       orientation="46,0"
       id="guide4163" />
    <sodipodi:guide
       position="1.0000013,1.0000174"
       orientation="0,45.999999"
       id="guide4165" />
    <sodipodi:guide
       position="47,1.0000174"
       orientation="-46,0"
       id="guide4167" />
    <sodipodi:guide
       position="47,47.000017"
       orientation="0,-45.999999"
       id="guide4169" />
    <sodipodi:guide
       position="2.0000007,46.000017"
       orientation="44,0"
       id="guide4173" />
    <sodipodi:guide
       position="2.0000007,2.0000174"
       orientation="0,43.999999"
       id="guide4175" />
    <sodipodi:guide
       position="46,2.0000174"
       orientation="-44,0"
       id="guide4177" />
    <sodipodi:guide
       position="46,46.000017"
       orientation="0,-43.999999"
       id="guide4179" />
    <sodipodi:guide
       position="3,45.000017"
       orientation="42,0"
       id="guide4183" />
    <sodipodi:guide
       position="45,3.0000174"
       orientation="-42,0"
       id="guide4187" />
    <sodipodi:guide
       position="45,45.000017"
       orientation="0,-42"
       id="guide4189" />
    <sodipodi:guide
       position="3,45.000017"
       orientation="42,0"
       id="guide4193" />
    <sodipodi:guide
       position="3,3.0000174"
       orientation="0,42"
       id="guide4195" />
    <sodipodi:guide
       position="45,3.0000174"
       orientation="-42,0"
       id="guide4197" />
    <sodipodi:guide
       position="45,45.000017"
       orientation="0,-42"
       id="guide4199" />
    <sodipodi:guide
       position="3,10.000017"
       orientation="7,0"
       id="guide4203" />
    <sodipodi:guide
       position="3,3.0000174"
       orientation="0,42"
       id="guide4205" />
    <sodipodi:guide
       position="45,3.0000174"
       orientation="-7,0"
       id="guide4207" />
    <sodipodi:guide
       position="45,10.000017"
       orientation="0,-42"
       id="guide4209" />
  </sodipodi:namedview>
  <metadata
     id="metadata4235">
    <rdf:RDF>
      <cc:Work
         rdf:about="">
        <dc:format>image/svg+xml</dc:format>
        <dc:type
           rdf:resource="http://purl.org/dc/dcmitype/StillImage" />
        <dc:title />
      </cc:Work>
    </rdf:RDF>
  </metadata>
  <g
     inkscape:groupmode="layer"
     id="layer3"
     inkscape:label="Fake blur shadow"
     style="display:inline"
     sodipodi:insensitive="true">
    <path
       style="opacity:0.06000001;fill:#000000;fill-opacity:1;stroke:none"
       d="M 10,1 C 5.014,1 1,5.014 1,10 l 0,28 c 0,4.986 4.014,9 9,9 l 28,0 c 4.986,0 9,-4.014 9,-9 L 47,10 C 47,5.014 42.986,1 38,1 L 10,1 z m 0.5,0.5 27,0 c 4.986,0 9,4.014 9,9 l 0,27 c 0,4.986 -4.014,9 -9,9 l -27,0 c -4.986,0 -9,-4.014 -9,-9 l 0,-27 c 0,-4.986 4.014,-9 9,-9 z"
       id="rect3829"
       inkscape:connector-curvature="0" />
    <path
       style="opacity:0.12000002;fill:#000000;fill-opacity:1;stroke:none"
       d="m 10.5,1.5 c -4.986,0 -9,4.014 -9,9 l 0,27 c 0,4.986 4.014,9 9,9 l 27,0 c 4.986,0 9,-4.014 9,-9 l 0,-27 c 0,-4.986 -4.014,-9 -9,-9 l -27,0 z m 0.25,0.25 26.5,0 c 4.986,0 9,4.014 9,9 l 0,26.5 c 0,4.986 -4.014,9 -9,9 l -26.5,0 c -4.986,0 -9,-4.014 -9,-9 l 0,-26.5 c 0,-4.986 4.014,-9 9,-9 z"
       id="rect3827"
       inkscape:connector-curvature="0" />
    <rect
       style="opacity:0.23999999;fill:#000000;fill-opacity:1;stroke:none"
       id="rect3038-4"
       width="44.5"
       height="44.5"
       x="1.75"
       y="1.75"
       ry="9"
       rx="9" />
  </g>
  <g
     inkscape:groupmode="layer"
     id="layer6"
     inkscape:label="Blob"
     style="display:inline"
     sodipodi:insensitive="true">
    <path
       style="opacity:0.3;fill:url(#radialGradient4274);fill-opacity:1;stroke:none"
       d="M 1.03125,39 C 1.5192036,43.518898 5.3471961,47 10,47 l 28,0 c 4.652804,0 8.480796,-3.481102 8.96875,-8 l -45.9375,0 z"
       id="rect4241"
       inkscape:connector-curvature="0" />
  </g>
  <g
     inkscape:groupmode="layer"
     id="layer2"
     inkscape:label="Baseplate"
     style="display:inline">
    <rect
       style="fill:url(#linearGradient3880);fill-opacity:1;stroke:none"
       id="rect3038"
       width="44"
       height="44"
       x="2"
       y="1.9999826"
       ry="9"
       rx="9" />
  </g>
  <g
     inkscape:label="Symbol"
     inkscape:groupmode="layer"
     id="layer1"
     transform="translate(0,-1004.3622)"
     style="display:inline">
    <path
       style="fill:#000000"
       d=""
       id="path906"
       inkscape:connector-curvature="0" />
    <g
       id="g3963"
       transform="translate(0,1003.3644)" />
    <path
       sodipodi:type="arc"
       style="fill:url(#radialGradient3993);fill-opacity:1;stroke:none"
       id="path3991"
       sodipodi:cx="12.5"
       sodipodi:cy="31.5"
       sodipodi:rx="2.5"
       sodipodi:ry="2.5"
       d="m 15,31.5 a 2.5,2.5 0 1 1 -5,0 2.5,2.5 0 1 1 5,0 z"
       transform="matrix(0.6,0,0,0.6,8.5,995.4622)" />
    <path
       transform="matrix(0.6,0,0,0.6,29.5,1009.4622)"
       d="m 15,31.5 a 2.5,2.5 0 1 1 -5,0 2.5,2.5 0 1 1 5,0 z"
       sodipodi:ry="2.5"
       sodipodi:rx="2.5"
       sodipodi:cy="31.5"
       sodipodi:cx="12.5"
       id="path3987"
       style="fill:url(#radialGradient3989);fill-opacity:1;stroke:none"
       sodipodi:type="arc" />
    <path
       sodipodi:type="arc"
       style="fill:url(#radialGradient3985);fill-opacity:1;stroke:none"
       id="path3977"
       sodipodi:cx="12.5"
       sodipodi:cy="31.5"
       sodipodi:rx="2.5"
       sodipodi:ry="2.5"
       d="m 15,31.5 a 2.5,2.5 0 1 1 -5,0 2.5,2.5 0 1 1 5,0 z"
       transform="matrix(0.6,0,0,0.6,16.5,1019.4622)" />
    <path
       transform="translate(0,995.3622)"
       d="m 15,31.5 a 2.5,2.5 0 1 1 -5,0 2.5,2.5 0 1 1 5,0 z"
       sodipodi:ry="2.5"
       sodipodi:rx="2.5"
       sodipodi:cy="31.5"
       sodipodi:cx="12.5"
       id="path3973"
       style="fill:url(#radialGradient3975);fill-opacity:1;stroke:none"
       sodipodi:type="arc" />
    <path
       sodipodi:type="arc"
       style="fill:url(#radialGradient3971);fill-opacity:1;stroke:none"
       id="path3969"
       sodipodi:cx="12.5"
       sodipodi:cy="31.5"
       sodipodi:rx="2.5"
       sodipodi:ry="2.5"
       d="m 15,31.5 a 2.5,2.5 0 1 1 -5,0 2.5,2.5 0 1 1 5,0 z"
       transform="translate(15,985.3622)" />
    <path
       transform="translate(21,1006.3622)"
       d="m 15,31.5 a 2.5,2.5 0 1 1 -5,0 2.5,2.5 0 1 1 5,0 z"
       sodipodi:ry="2.5"
       sodipodi:rx="2.5"
       sodipodi:cy="31.5"
       sodipodi:cx="12.5"
       id="path3959"
       style="fill:url(#radialGradient3967);fill-opacity:1;stroke:none"
       sodipodi:type="arc" />
    <path
       transform="matrix(1.2,0,0,1.2,0,997.5622)"
       d="m 15,31.5 a 2.5,2.5 0 1 1 -5,0 2.5,2.5 0 1 1 5,0 z"
       sodipodi:ry="2.5"
       sodipodi:rx="2.5"
       sodipodi:cy="31.5"
       sodipodi:cx="12.5"
       id="path3955"
       style="fill:url(#radialGradient3957);fill-opacity:1;stroke:none"
       sodipodi:type="arc" />
    <path
       sodipodi:type="arc"
       style="fill:url(#radialGradient3953);fill-opacity:1;stroke:none"
       id="path3945"
       sodipodi:cx="12.5"
       sodipodi:cy="31.5"
       sodipodi:rx="2.5"
       sodipodi:ry="2.5"
       d="m 15,31.5 a 2.5,2.5 0 1 1 -5,0 2.5,2.5 0 1 1 5,0 z"
       transform="matrix(1.2,0,0,1.2,20,983.5622)" />
    <path
       inkscape:connector-curvature="0"
       style="fill:#f7f7f7;fill-opacity:1;fill-rule:evenodd;stroke:none;display:inline"
       d="m 20.206809,1018.3622 a 1.3930735,1.3930735 0 0 0 -0.999186,0.4224 1.3930735,1.3930735 0 0 0 -0.176793,0.226 c -1.28196,-0.528 -2.246755,-0.5712 -2.709577,-0.108 -0.296469,0.2992 -0.389585,0.8016 -0.27167,1.4679 0.117836,0.6664 0.446383,1.4966 0.960084,2.4257 -0.430144,-1.6053 -1.073455,-4.4994 1.832994,-3.3206 a 1.3930735,1.3930735 0 0 0 -0.0288,0.2804 1.3930735,1.3930735 0 0 0 1.393091,1.3929 1.3930735,1.3930735 0 0 0 0.954793,-0.38 c 1.444513,0.977 3.075067,2.3449 4.581265,3.8505 5.484454,5.6162 6.719533,11.3815 -0.52102,7.2013 1.443527,1.0768 2.8143,1.8687 3.909594,2.2587 1.09531,0.3898 1.911847,0.3762 2.328311,-0.038 0.293189,-0.2932 0.389425,-0.783 0.281109,-1.4331 -0.108315,-0.65 -0.420784,-1.4598 -0.914053,-2.3677 -0.98677,-1.8158 -2.715472,-4.0265 -4.697107,-6.0082 -1.514623,-1.514 -3.162904,-2.8831 -4.665598,-3.8807 a 1.3930735,1.3930735 0 0 0 0.135594,-0.5953 1.3930735,1.3930735 0 0 0 -1.39308,-1.3932 z m 0,0.547 a 0.84561972,0.84561972 0 0 1 0.846037,0.8458 0.84561972,0.84561972 0 0 1 -0.0536,0.2947 c -2.08e-4,4e-4 -6.24e-4,0 -8.32e-4,0 -0.0054,0.02 -0.0112,0.026 -0.0168,0.04 a 0.84561972,0.84561972 0 0 1 -0.012,0.028 c -0.0064,0.02 -0.0128,0.026 -0.02,0.04 a 0.84561972,0.84561972 0 0 1 -0.0136,0.024 c -0.008,0.02 -0.0168,0.028 -0.0248,0.04 -6.32e-4,6e-4 -0.0013,0 -0.002,0 -0.02,0.03 -0.0424,0.058 -0.0672,0.086 a 0.84561972,0.84561972 0 0 1 -0.0144,0.02 c -0.0104,0.02 -0.0208,0.02 -0.0304,0.03 a 0.84561972,0.84561972 0 0 1 -0.0272,0.024 c -0.008,0 -0.0168,0.02 -0.0256,0.022 a 0.84561972,0.84561972 0 0 1 -0.0536,0.04 0.84561972,0.84561972 0 0 1 -0.0056,0 c -4.16e-4,2e-4 -4.16e-4,6e-4 -8.32e-4,8e-4 a 0.84561972,0.84561972 0 0 1 -0.475741,0.146 0.84561972,0.84561972 0 0 1 -0.846032,-0.8455 0.84561972,0.84561972 0 0 1 0.0022,-0.046 c 6.24e-4,-0.02 0.002,-0.024 0.0032,-0.036 a 0.84561972,0.84561972 0 0 1 0.0054,-0.042 c 0.0018,-0.02 0.0038,-0.024 0.0056,-0.038 a 0.84561972,0.84561972 0 0 1 0.0066,-0.03 c 0.012,-0.05 0.0288,-0.1 0.0488,-0.146 a 0.84561972,0.84561972 0 0 1 0.0112,-0.024 c 0.007,-0.02 0.0136,-0.028 0.0216,-0.042 a 0.84561972,0.84561972 0 0 1 0.012,-0.022 c 0.0078,-0.02 0.0144,-0.026 0.0232,-0.038 a 0.84561972,0.84561972 0 0 1 8.32e-4,-8e-4 c 0.012,-0.02 0.024,-0.036 0.0376,-0.052 a 0.84561972,0.84561972 0 0 1 0.0608,-0.072 0.84561972,0.84561972 0 0 1 0.606537,-0.2566 z m -1.115686,6.2909 1.716087,6.4946 1.35765,-2.8913 3.069251,-0.8856 -6.142988,-2.7177 z"
       id="path4299" />
    <path
       sodipodi:type="arc"
       style="fill:#f7f7f7;fill-opacity:1;stroke:none"
       id="path3929"
       sodipodi:cx="12.5"
       sodipodi:cy="31.5"
       sodipodi:rx="2.5"
       sodipodi:ry="2.5"
       d="m 15,31.5 a 2.5,2.5 0 1 1 -5,0 2.5,2.5 0 1 1 5,0 z"
       transform="matrix(0.8,0,0,0.8,5,1010.1622)" />
    <path
       transform="matrix(0.8,0,0,0.8,25,996.1622)"
       d="m 15,31.5 a 2.5,2.5 0 1 1 -5,0 2.5,2.5 0 1 1 5,0 z"
       sodipodi:ry="2.5"
       sodipodi:rx="2.5"
       sodipodi:cy="31.5"
       sodipodi:cx="12.5"
       id="path3931"
       style="fill:#f7f7f7;fill-opacity:1;stroke:none"
       sodipodi:type="arc" />
    <path
       transform="matrix(0.6,0,0,0.6,5,1007.9622)"
       d="m 15,31.5 a 2.5,2.5 0 1 1 -5,0 2.5,2.5 0 1 1 5,0 z"
       sodipodi:ry="2.5"
       sodipodi:rx="2.5"
       sodipodi:cy="31.5"
       sodipodi:cx="12.5"
       id="path3933"
       style="fill:#f7f7f7;fill-opacity:1;stroke:none"
       sodipodi:type="arc" />
    <path
       sodipodi:type="arc"
       style="fill:#f7f7f7;fill-opacity:1;stroke:none"
       id="path3935"
       sodipodi:cx="12.5"
       sodipodi:cy="31.5"
       sodipodi:rx="2.5"
       sodipodi:ry="2.5"
       d="m 15,31.5 a 2.5,2.5 0 1 1 -5,0 2.5,2.5 0 1 1 5,0 z"
       transform="matrix(0.6,0,0,0.6,26,1018.9622)" />
    <path
       transform="matrix(0.6,0,0,0.6,20,997.9622)"
       d="m 15,31.5 a 2.5,2.5 0 1 1 -5,0 2.5,2.5 0 1 1 5,0 z"
       sodipodi:ry="2.5"
       sodipodi:rx="2.5"
       sodipodi:cy="31.5"
       sodipodi:cx="12.5"
       id="path3937"
       style="fill:#f7f7f7;fill-opacity:1;stroke:none"
       sodipodi:type="arc" />
    <path
       sodipodi:type="arc"
       style="fill:#f7f7f7;fill-opacity:1;stroke:none"
       id="path3939"
       sodipodi:cx="12.5"
       sodipodi:cy="31.5"
       sodipodi:rx="2.5"
       sodipodi:ry="2.5"
       d="m 15,31.5 a 2.5,2.5 0 1 1 -5,0 2.5,2.5 0 1 1 5,0 z"
       transform="matrix(0.4,0,0,0.4,11,1001.7622)" />
    <path
       transform="matrix(0.4,0,0,0.4,19,1025.7622)"
       d="m 15,31.5 a 2.5,2.5 0 1 1 -5,0 2.5,2.5 0 1 1 5,0 z"
       sodipodi:ry="2.5"
       sodipodi:rx="2.5"
       sodipodi:cy="31.5"
       sodipodi:cx="12.5"
       id="path3941"
       style="fill:#f7f7f7;fill-opacity:1;stroke:none"
       sodipodi:type="arc" />
    <path
       sodipodi:type="arc"
       style="fill:#f7f7f7;fill-opacity:1;stroke:none"
       id="path3943"
       sodipodi:cx="12.5"
       sodipodi:cy="31.5"
       sodipodi:rx="2.5"
       sodipodi:ry="2.5"
       d="m 15,31.5 a 2.5,2.5 0 1 1 -5,0 2.5,2.5 0 1 1 5,0 z"
       transform="matrix(0.4,0,0,0.4,32,1015.7622)" />
    <path
       transform="matrix(0.6,0,0,0.6,8.5,995.4622)"
       d="m 15,31.5 a 2.5,2.5 0 1 1 -5,0 2.5,2.5 0 1 1 5,0 z"
       sodipodi:ry="2.5"
       sodipodi:rx="2.5"
       sodipodi:cy="31.5"
       sodipodi:cx="12.5"
       id="path3995"
       style="opacity:0.75;fill:url(#radialGradient3080);fill-opacity:1;stroke:none"
       sodipodi:type="arc" />
    <path
       sodipodi:type="arc"
       style="fill:url(#radialGradient3989);fill-opacity:1;stroke:none;opacity:0.75"
       id="path3997"
       sodipodi:cx="12.5"
       sodipodi:cy="31.5"
       sodipodi:rx="2.5"
       sodipodi:ry="2.5"
       d="m 15,31.5 a 2.5,2.5 0 1 1 -5,0 2.5,2.5 0 1 1 5,0 z"
       transform="matrix(0.6,0,0,0.6,29.5,1009.4622)" />
    <path
       transform="matrix(0.6,0,0,0.6,16.5,1019.4622)"
       d="m 15,31.5 a 2.5,2.5 0 1 1 -5,0 2.5,2.5 0 1 1 5,0 z"
       sodipodi:ry="2.5"
       sodipodi:rx="2.5"
       sodipodi:cy="31.5"
       sodipodi:cx="12.5"
       id="path3999"
       style="fill:url(#radialGradient3985);fill-opacity:1;stroke:none;opacity:0.75"
       sodipodi:type="arc" />
    <path
       sodipodi:type="arc"
       style="fill:url(#radialGradient3975);fill-opacity:1;stroke:none;opacity:0.75"
       id="path4001"
       sodipodi:cx="12.5"
       sodipodi:cy="31.5"
       sodipodi:rx="2.5"
       sodipodi:ry="2.5"
       d="m 15,31.5 a 2.5,2.5 0 1 1 -5,0 2.5,2.5 0 1 1 5,0 z"
       transform="translate(0,995.3622)" />
    <path
       transform="translate(15,985.3622)"
       d="m 15,31.5 a 2.5,2.5 0 1 1 -5,0 2.5,2.5 0 1 1 5,0 z"
       sodipodi:ry="2.5"
       sodipodi:rx="2.5"
       sodipodi:cy="31.5"
       sodipodi:cx="12.5"
       id="path4003"
       style="fill:url(#radialGradient3971);fill-opacity:1;stroke:none;opacity:0.75"
       sodipodi:type="arc" />
    <path
       sodipodi:type="arc"
       style="fill:url(#radialGradient3967);fill-opacity:1;stroke:none;opacity:0.75"
       id="path4005"
       sodipodi:cx="12.5"
       sodipodi:cy="31.5"
       sodipodi:rx="2.5"
       sodipodi:ry="2.5"
       d="m 15,31.5 a 2.5,2.5 0 1 1 -5,0 2.5,2.5 0 1 1 5,0 z"
       transform="translate(21,1006.3622)" />
    <path
       sodipodi:type="arc"
       style="fill:url(#radialGradient3957);fill-opacity:1;stroke:none;opacity:0.75"
       id="path4007"
       sodipodi:cx="12.5"
       sodipodi:cy="31.5"
       sodipodi:rx="2.5"
       sodipodi:ry="2.5"
       d="m 15,31.5 a 2.5,2.5 0 1 1 -5,0 2.5,2.5 0 1 1 5,0 z"
       transform="matrix(1.2,0,0,1.2,0,997.5622)" />
    <path
       transform="matrix(1.2,0,0,1.2,20,983.5622)"
       d="m 15,31.5 a 2.5,2.5 0 1 1 -5,0 2.5,2.5 0 1 1 5,0 z"
       sodipodi:ry="2.5"
       sodipodi:rx="2.5"
       sodipodi:cy="31.5"
       sodipodi:cx="12.5"
       id="path4009"
       style="fill:url(#radialGradient3953);fill-opacity:1;stroke:none;opacity:0.75"
       sodipodi:type="arc" />
    <path
       transform="matrix(0.6,0,0,0.6,3.5,1001.4622)"
       d="m 15,31.5 a 2.5,2.5 0 1 1 -5,0 2.5,2.5 0 1 1 5,0 z"
       sodipodi:ry="2.5"
       sodipodi:rx="2.5"
       sodipodi:cy="31.5"
       sodipodi:cx="12.5"
       id="path3082"
       style="fill:url(#radialGradient3088);fill-opacity:1;stroke:none"
       sodipodi:type="arc" />
    <path
       transform="matrix(0.4,0,0,0.4,6,1007.7622)"
       d="m 15,31.5 a 2.5,2.5 0 1 1 -5,0 2.5,2.5 0 1 1 5,0 z"
       sodipodi:ry="2.5"
       sodipodi:rx="2.5"
       sodipodi:cy="31.5"
       sodipodi:cx="12.5"
       id="path3084"
       style="fill:#f7f7f7;fill-opacity:1;stroke:none"
       sodipodi:type="arc" />
    <path
       sodipodi:type="arc"
       style="opacity:0.75;fill:url(#radialGradient3090);fill-opacity:1;stroke:none"
       id="path3086"
       sodipodi:cx="12.5"
       sodipodi:cy="31.5"
       sodipodi:rx="2.5"
       sodipodi:ry="2.5"
       d="m 15,31.5 a 2.5,2.5 0 1 1 -5,0 2.5,2.5 0 1 1 5,0 z"
       transform="matrix(0.6,0,0,0.6,3.5,1001.4622)" />
  </g>
  <g
     inkscape:groupmode="layer"
     id="layer4"
     inkscape:label="Inset"
     sodipodi:insensitive="true"
     style="display:inline">
    <path
       style="opacity:0.15;fill:#000000;fill-opacity:1;stroke:none"
       d="m 2,34 0,3 c 0,4.986 4.014,9 9,9 l 26,0 c 4.986,0 9,-4.014 9,-9 l 0,-3 c 0,4.986 -4.014,9 -9,9 L 11,43 C 6.014,43 2,38.986 2,34 z"
       id="rect3038-42"
       inkscape:connector-curvature="0" />
  </g>
  <g
     inkscape:groupmode="layer"
     id="layer7"
     inkscape:label="Baseshape"
     sodipodi:insensitive="true"
     style="display:none">
    <rect
       rx="9"
       ry="9"
       y="2"
       x="2"
       height="44"
       width="44"
       id="rect4169"
       style="fill:#abe1ad;fill-opacity:1;stroke:none;display:inline" />
  </g>
</svg>
