<?xml version="1.0" encoding="UTF-8" standalone="no"?>
<!-- Created with Inkscape (http://www.inkscape.org/) -->

<svg
   xmlns:dc="http://purl.org/dc/elements/1.1/"
   xmlns:cc="http://creativecommons.org/ns#"
   xmlns:rdf="http://www.w3.org/1999/02/22-rdf-syntax-ns#"
   xmlns:svg="http://www.w3.org/2000/svg"
   xmlns="http://www.w3.org/2000/svg"
   xmlns:xlink="http://www.w3.org/1999/xlink"
   xmlns:sodipodi="http://sodipodi.sourceforge.net/DTD/sodipodi-0.dtd"
   xmlns:inkscape="http://www.inkscape.org/namespaces/inkscape"
   width="48"
   height="48"
   id="svg4230"
   version="1.1"
   inkscape:version="0.48.5 r10040"
   sodipodi:docname="preferences-desktop-keyboard.svg">
  <defs
     id="defs4232">
    <linearGradient
       id="linearGradient3887">
      <stop
         style="stop-color:#b3b3b3;stop-opacity:1;"
         offset="0"
         id="stop3889" />
      <stop
         id="stop3897"
         offset="0.30555555"
         style="stop-color:#ffffff;stop-opacity:0.74901962;" />
      <stop
         id="stop3895"
         offset="0.66666669"
         style="stop-color:#ffffff;stop-opacity:0.49803922;" />
      <stop
         style="stop-color:#b3b3b3;stop-opacity:1;"
         offset="1"
         id="stop3891" />
    </linearGradient>
    <linearGradient
       inkscape:collect="always"
       id="linearGradient4065">
      <stop
         style="stop-color:#ffffff;stop-opacity:1;"
         offset="0"
         id="stop4067" />
      <stop
         style="stop-color:#ffffff;stop-opacity:0;"
         offset="1"
         id="stop4069" />
    </linearGradient>
    <linearGradient
       id="linearGradient4053">
      <stop
         id="stop4057"
         offset="0"
         style="stop-color:#000000;stop-opacity:0;" />
      <stop
         style="stop-color:#000000;stop-opacity:1;"
         offset="1"
         id="stop4059" />
    </linearGradient>
    <linearGradient
       id="linearGradient4022">
      <stop
         id="stop4024"
         offset="0"
         style="stop-color:#000000;stop-opacity:1;" />
      <stop
         style="stop-color:#000000;stop-opacity:0;"
         offset="0.5"
         id="stop4026" />
      <stop
         id="stop4028"
         offset="1"
         style="stop-color:#000000;stop-opacity:1;" />
    </linearGradient>
    <linearGradient
       id="linearGradient3999">
      <stop
         style="stop-color:#ffffff;stop-opacity:0;"
         offset="0"
         id="stop4001" />
      <stop
         id="stop4007"
         offset="0.5"
         style="stop-color:#ffffff;stop-opacity:1;" />
      <stop
         style="stop-color:#ffffff;stop-opacity:0;"
         offset="1"
         id="stop4003" />
    </linearGradient>
    <linearGradient
       id="linearGradient3951">
      <stop
         style="stop-color:#d4d4d3;stop-opacity:1;"
         offset="0"
         id="stop3953" />
      <stop
         style="stop-color:#f7f7f7;stop-opacity:1;"
         offset="1"
         id="stop3955" />
    </linearGradient>
    <linearGradient
       id="linearGradient4524">
      <stop
         style="stop-color:#595858;stop-opacity:1;"
         offset="0"
         id="stop4526" />
      <stop
         style="stop-color:#6c6c6c;stop-opacity:1;"
         offset="1"
         id="stop4528" />
    </linearGradient>
    <linearGradient
       id="linearGradient4512">
      <stop
         style="stop-color:#d9d2d1;stop-opacity:1;"
         offset="0"
         id="stop4514" />
      <stop
         style="stop-color:#fefcfc;stop-opacity:1;"
         offset="1"
         id="stop4516" />
    </linearGradient>
    <linearGradient
       id="linearGradient4243">
      <stop
         style="stop-color:#000000;stop-opacity:1;"
         offset="0"
         id="stop4245" />
      <stop
         style="stop-color:#000000;stop-opacity:0;"
         offset="1"
         id="stop4247" />
    </linearGradient>
    <linearGradient
       id="linearGradient4216">
      <stop
         style="stop-color:#a0c4e6;stop-opacity:1;"
         offset="0"
         id="stop4218" />
      <stop
         style="stop-color:#d0e2f1;stop-opacity:1;"
         offset="1"
         id="stop4220" />
    </linearGradient>
    <linearGradient
       id="linearGradient4208">
      <stop
         style="stop-color:#70a3d6;stop-opacity:1;"
         offset="0"
         id="stop4210" />
      <stop
         style="stop-color:#88b6e1;stop-opacity:1;"
         offset="1"
         id="stop4212" />
    </linearGradient>
    <linearGradient
       id="linearGradient4200">
      <stop
         style="stop-color:#427dbe;stop-opacity:1;"
         offset="0"
         id="stop4202" />
      <stop
         style="stop-color:#739bd1;stop-opacity:1;"
         offset="1"
         id="stop4204" />
    </linearGradient>
    <linearGradient
       id="linearGradient4192">
      <stop
         style="stop-color:#4970a4;stop-opacity:1;"
         offset="0"
         id="stop4194" />
      <stop
         style="stop-color:#6090c0;stop-opacity:1;"
         offset="1"
         id="stop4196" />
    </linearGradient>
    <radialGradient
       inkscape:collect="always"
       xlink:href="#linearGradient3688-166-749-5-9-1"
       id="radialGradient4351"
       gradientUnits="userSpaceOnUse"
       gradientTransform="matrix(2.3201711,0,0,0.39999996,28.617836,28.600002)"
       cx="4.9929786"
       cy="43.5"
       fx="4.9929786"
       fy="43.5"
       r="2.5" />
    <linearGradient
       id="linearGradient3688-166-749-5-9-1">
      <stop
         id="stop2883-0-2-9"
         style="stop-color:#181818;stop-opacity:1"
         offset="0" />
      <stop
         id="stop2885-5-3-8"
         style="stop-color:#181818;stop-opacity:0"
         offset="1" />
    </linearGradient>
    <linearGradient
       id="linearGradient3688-464-309-8-9-4">
      <stop
         id="stop2889-9-9-1"
         style="stop-color:#181818;stop-opacity:1"
         offset="0" />
      <stop
         id="stop2891-4-2-9"
         style="stop-color:#181818;stop-opacity:0"
         offset="1" />
    </linearGradient>
    <linearGradient
       id="linearGradient3702-501-757-0-4-0">
      <stop
         id="stop2895-0-2-1"
         style="stop-color:#181818;stop-opacity:0"
         offset="0" />
      <stop
         id="stop2897-2-8-2"
         style="stop-color:#181818;stop-opacity:1"
         offset="0.5" />
      <stop
         id="stop2899-6-1-6"
         style="stop-color:#181818;stop-opacity:0"
         offset="1" />
    </linearGradient>
    <linearGradient
       id="linearGradient3811-3">
      <stop
         style="stop-color:#000000;stop-opacity:1;"
         offset="0"
         id="stop3813-0" />
      <stop
         style="stop-color:#000000;stop-opacity:0;"
         offset="1"
         id="stop3815-0" />
    </linearGradient>
    <clipPath
       id="clipPath-887332295">
      <g
         id="g3945"
         transform="translate(0,-1004.3622)">
        <rect
           id="rect3947"
           fill="#1890d0"
           width="46"
           height="46"
           x="1"
           y="1005.36"
           rx="4" />
      </g>
    </clipPath>
    <clipPath
       id="clipPath-867792831">
      <g
         id="g3940"
         transform="translate(0,-1004.3622)">
        <rect
           id="rect3942"
           fill="#1890d0"
           width="46"
           height="46"
           x="1"
           y="1005.36"
           rx="4" />
      </g>
    </clipPath>
    <linearGradient
       gradientTransform="translate(-47.997785,0.00221467)"
       gradientUnits="userSpaceOnUse"
       x2="47"
       x1="1"
       id="linearGradient3764">
      <stop
         id="stop3935"
         stop-opacity="1"
         stop-color="#e4e4e4" />
      <stop
         id="stop3937"
         stop-opacity="1"
         stop-color="#eee"
         offset="1" />
    </linearGradient>
    <radialGradient
       inkscape:collect="always"
       xlink:href="#linearGradient4243"
       id="radialGradient4274"
       gradientUnits="userSpaceOnUse"
       gradientTransform="matrix(1.0434782,0,0,0.1956518,-1.0434797,35.184809)"
       cx="24.000001"
       cy="42.499991"
       fx="24.000001"
       fy="42.499991"
       r="23" />
    <linearGradient
       inkscape:collect="always"
       xlink:href="#linearGradient4524"
       id="linearGradient4530"
       x1="24"
       y1="46"
       x2="24"
       y2="2"
       gradientUnits="userSpaceOnUse" />
    <linearGradient
       inkscape:collect="always"
       xlink:href="#linearGradient4512"
       id="linearGradient4554"
       gradientUnits="userSpaceOnUse"
       x1="12.5"
       y1="28.000042"
       x2="12.5"
       y2="17.000042" />
    <linearGradient
       inkscape:collect="always"
       xlink:href="#linearGradient4524-9"
       id="linearGradient3853-8"
       gradientUnits="userSpaceOnUse"
       x1="24"
       y1="46"
       x2="24"
       y2="2" />
    <linearGradient
       id="linearGradient4524-9">
      <stop
         style="stop-color:#595858;stop-opacity:1;"
         offset="0"
         id="stop4526-7" />
      <stop
         style="stop-color:#6c6c6c;stop-opacity:1;"
         offset="1"
         id="stop4528-7" />
    </linearGradient>
    <linearGradient
       inkscape:collect="always"
       xlink:href="#linearGradient4524-90"
       id="linearGradient4530-8"
       x1="24"
       y1="46"
       x2="24"
       y2="2"
       gradientUnits="userSpaceOnUse" />
    <linearGradient
       id="linearGradient4524-90">
      <stop
         style="stop-color:#595858;stop-opacity:1;"
         offset="0"
         id="stop4526-2" />
      <stop
         style="stop-color:#6c6c6c;stop-opacity:1;"
         offset="1"
         id="stop4528-3" />
    </linearGradient>
    <linearGradient
       inkscape:collect="always"
       xlink:href="#linearGradient3951"
       id="linearGradient3957"
       x1="23"
       y1="1045.3622"
       x2="23"
       y2="1008.3622"
       gradientUnits="userSpaceOnUse"
       gradientTransform="translate(2,-2)" />
    <linearGradient
       inkscape:collect="always"
       xlink:href="#linearGradient3999"
       id="linearGradient4005"
       x1="12"
       y1="42"
       x2="36"
       y2="42"
       gradientUnits="userSpaceOnUse" />
    <linearGradient
       inkscape:collect="always"
       xlink:href="#linearGradient4022"
       id="linearGradient4020"
       x1="13"
       y1="34"
       x2="12"
       y2="39"
       gradientUnits="userSpaceOnUse" />
    <radialGradient
       inkscape:collect="always"
       xlink:href="#linearGradient4053"
       id="radialGradient4061"
       cx="24.484375"
       cy="36.390625"
       fx="24.484375"
       fy="36.390625"
       r="14.671875"
       gradientTransform="matrix(1.6910826,-0.02190038,0.00879398,0.67904468,-17.240744,12.215982)"
       gradientUnits="userSpaceOnUse" />
    <radialGradient
       inkscape:collect="always"
       xlink:href="#linearGradient4065"
       id="radialGradient4071"
       cx="24.5"
       cy="37"
       fx="24.5"
       fy="37"
       r="9.5"
       gradientTransform="matrix(1,0,0,0.21052632,0,29.210526)"
       gradientUnits="userSpaceOnUse" />
    <linearGradient
       inkscape:collect="always"
       xlink:href="#linearGradient3951"
       id="linearGradient3110"
       gradientUnits="userSpaceOnUse"
       gradientTransform="translate(2,-6)"
       x1="23"
       y1="1045.3622"
       x2="23"
       y2="1008.3622" />
    <linearGradient
       inkscape:collect="always"
       xlink:href="#linearGradient3951"
       id="linearGradient3114"
       gradientUnits="userSpaceOnUse"
       gradientTransform="translate(2,-1006.3622)"
       x1="23"
       y1="1045.3622"
       x2="23"
       y2="1008.3622" />
    <linearGradient
       inkscape:collect="always"
       xlink:href="#linearGradient3887"
       id="linearGradient3893"
       x1="6"
       y1="34"
       x2="42"
       y2="34"
       gradientUnits="userSpaceOnUse" />
  </defs>
  <sodipodi:namedview
     id="base"
     pagecolor="#ffffff"
     bordercolor="#666666"
     borderopacity="1.0"
     inkscape:pageopacity="0.0"
     inkscape:pageshadow="2"
     inkscape:zoom="1"
     inkscape:cx="46.031847"
     inkscape:cy="27.912913"
     inkscape:document-units="px"
     inkscape:current-layer="layer1"
     showgrid="false"
     inkscape:showpageshadow="false"
     borderlayer="true"
     inkscape:window-width="1364"
     inkscape:window-height="708"
     inkscape:window-x="0"
     inkscape:window-y="29"
     inkscape:window-maximized="1"
     showguides="false"
     inkscape:guide-bbox="true">
    <inkscape:grid
       type="xygrid"
       id="grid4162" />
    <sodipodi:guide
       position="1.0000013,47.000017"
       orientation="46,0"
       id="guide4163" />
    <sodipodi:guide
       position="1.0000013,1.0000174"
       orientation="0,45.999999"
       id="guide4165" />
    <sodipodi:guide
       position="47,1.0000174"
       orientation="-46,0"
       id="guide4167" />
    <sodipodi:guide
       position="47,47.000017"
       orientation="0,-45.999999"
       id="guide4169" />
    <sodipodi:guide
       position="2.0000007,46.000017"
       orientation="44,0"
       id="guide4173" />
    <sodipodi:guide
       position="2.0000007,2.0000174"
       orientation="0,43.999999"
       id="guide4175" />
    <sodipodi:guide
       position="46,2.0000174"
       orientation="-44,0"
       id="guide4177" />
    <sodipodi:guide
       position="46,46.000017"
       orientation="0,-43.999999"
       id="guide4179" />
    <sodipodi:guide
       position="3,45.000017"
       orientation="42,0"
       id="guide4183" />
    <sodipodi:guide
       position="45,3.0000174"
       orientation="-42,0"
       id="guide4187" />
    <sodipodi:guide
       position="45,45.000017"
       orientation="0,-42"
       id="guide4189" />
    <sodipodi:guide
       position="3,45.000017"
       orientation="42,0"
       id="guide4193" />
    <sodipodi:guide
       position="3,3.0000174"
       orientation="0,42"
       id="guide4195" />
    <sodipodi:guide
       position="45,3.0000174"
       orientation="-42,0"
       id="guide4197" />
    <sodipodi:guide
       position="45,45.000017"
       orientation="0,-42"
       id="guide4199" />
    <sodipodi:guide
       position="3,10.000017"
       orientation="7,0"
       id="guide4203" />
    <sodipodi:guide
       position="3,3.0000174"
       orientation="0,42"
       id="guide4205" />
    <sodipodi:guide
       position="45,3.0000174"
       orientation="-7,0"
       id="guide4207" />
    <sodipodi:guide
       position="45,10.000017"
       orientation="0,-42"
       id="guide4209" />
  </sodipodi:namedview>
  <metadata
     id="metadata4235">
    <rdf:RDF>
      <cc:Work
         rdf:about="">
        <dc:format>image/svg+xml</dc:format>
        <dc:type
           rdf:resource="http://purl.org/dc/dcmitype/StillImage" />
        <dc:title />
      </cc:Work>
    </rdf:RDF>
  </metadata>
  <g
     inkscape:groupmode="layer"
     id="layer3"
     inkscape:label="Fake blur shadow"
     style="display:inline"
     sodipodi:insensitive="true">
    <path
       style="opacity:0.06000001;fill:#000000;fill-opacity:1;stroke:none"
       d="M 10,1 C 5.014,1 1,5.014 1,10 l 0,28 c 0,4.986 4.014,9 9,9 l 28,0 c 4.986,0 9,-4.014 9,-9 L 47,10 C 47,5.014 42.986,1 38,1 L 10,1 z m 0.5,0.5 27,0 c 4.986,0 9,4.014 9,9 l 0,27 c 0,4.986 -4.014,9 -9,9 l -27,0 c -4.986,0 -9,-4.014 -9,-9 l 0,-27 c 0,-4.986 4.014,-9 9,-9 z"
       id="rect3829"
       inkscape:connector-curvature="0" />
    <path
       style="opacity:0.12000002;fill:#000000;fill-opacity:1;stroke:none"
       d="m 10.5,1.5 c -4.986,0 -9,4.014 -9,9 l 0,27 c 0,4.986 4.014,9 9,9 l 27,0 c 4.986,0 9,-4.014 9,-9 l 0,-27 c 0,-4.986 -4.014,-9 -9,-9 l -27,0 z m 0.25,0.25 26.5,0 c 4.986,0 9,4.014 9,9 l 0,26.5 c 0,4.986 -4.014,9 -9,9 l -26.5,0 c -4.986,0 -9,-4.014 -9,-9 l 0,-26.5 c 0,-4.986 4.014,-9 9,-9 z"
       id="rect3827"
       inkscape:connector-curvature="0" />
    <rect
       style="opacity:0.23999999;fill:#000000;fill-opacity:1;stroke:none"
       id="rect3038-4"
       width="44.5"
       height="44.5"
       x="1.75"
       y="1.75"
       ry="9"
       rx="9" />
  </g>
  <g
     inkscape:groupmode="layer"
     id="layer6"
     inkscape:label="Blob"
     style="display:inline"
     sodipodi:insensitive="true">
    <path
       style="opacity:0.3;fill:url(#radialGradient4274);fill-opacity:1;stroke:none"
       d="M 1.03125,39 C 1.5192036,43.518898 5.3471961,47 10,47 l 28,0 c 4.652804,0 8.480796,-3.481102 8.96875,-8 l -45.9375,0 z"
       id="rect4241"
       inkscape:connector-curvature="0" />
  </g>
  <g
     inkscape:groupmode="layer"
     id="layer2"
     inkscape:label="Baseplate"
     style="display:inline">
    <rect
       style="fill:url(#linearGradient4530);fill-opacity:1;stroke:none"
       id="rect3038"
       width="44"
       height="44"
       x="2"
       y="1.9999826"
       ry="9"
       rx="9" />
  </g>
  <g
     inkscape:label="Symbol"
     inkscape:groupmode="layer"
     id="layer1"
     transform="translate(0,-1004.3622)"
     style="display:inline">
    <path
       inkscape:connector-curvature="0"
       style="fill:#b8b8b8;fill-opacity:1;stroke:none;display:inline"
       d="m 11,1006.3622 c -4.986,0 -9,4.014 -9,9 l 0,23 c 0,4.986 4.014,9 9,9 l 26,0 c 4.986,0 9,-4.014 9,-9 l 0,-23 c 0,-4.986 -4.014,-9 -9,-9 l -26,0 z"
       id="rect3831" />
    <rect
       rx="7"
       ry="7.0000172"
       y="1008.3622"
       x="4"
       height="37"
       width="40"
       id="rect3911"
       style="fill:#4d4d4c;fill-opacity:1;stroke:none;display:inline" />
    <rect
       style="fill:url(#linearGradient3957);fill-opacity:1;stroke:none;display:inline"
       id="rect3949"
       width="36"
       height="37"
       x="6"
       y="1006.3622"
       ry="6.0000172"
       rx="6" />
    <g
       id="g4073"
       style="font-size:11.89628219999999992px;font-style:normal;font-variant:normal;font-weight:normal;font-stretch:normal;line-height:125%;letter-spacing:0px;word-spacing:0px;fill:#000000;fill-opacity:1;stroke:none;font-family:Open Sans;-inkscape-font-specification:Open Sans;opacity:0.15"
       transform="matrix(0.9788248,0,0,1.0216333,0,0.99998911)">
      <path
         sodipodi:nodetypes="ccccccccccc"
         inkscape:connector-curvature="0"
         id="path4075"
         style="font-size:13.90376282000000074px;fill:#000000;font-family:Ubuntu;-inkscape-font-specification:Ubuntu;fill-opacity:1"
         d="m 22.220524,1005.6076 -0.970552,-2.9365 -4.699513,0 -0.970551,2.9365 -1.277042,0 4.086533,-9.78826 1.030052,6e-5 4.078115,9.7882 m -4.59735,-8.80943 -2.043267,4.89413 4.086533,0" />
    </g>
    <g
       transform="scale(0.9788248,1.0216333)"
       style="font-size:11.8962822px;font-style:normal;font-variant:normal;font-weight:normal;font-stretch:normal;line-height:125%;letter-spacing:0px;word-spacing:0px;fill:#6d6d6d;fill-opacity:1;stroke:none;font-family:Open Sans;-inkscape-font-specification:Open Sans"
       id="text3969">
      <path
         d="m 22.220524,1005.6076 -0.970552,-2.9365 -4.699513,0 -0.970551,2.9365 -1.277042,0 4.086533,-9.78826 1.030052,6e-5 4.078115,9.7882 m -4.59735,-8.80943 -2.043267,4.89413 4.086533,0"
         style="font-size:13.90376282px;fill:#6d6d6d;font-family:Ubuntu;-inkscape-font-specification:Ubuntu"
         id="path3974"
         inkscape:connector-curvature="0"
         sodipodi:nodetypes="ccccccccccc" />
    </g>
    <g
       transform="matrix(0.97905854,0,0,1.0216333,-0.00812514,1.0002847)"
       style="font-size:11.89628219999999992px;font-style:normal;font-variant:normal;font-weight:normal;font-stretch:normal;line-height:125%;letter-spacing:0px;word-spacing:0px;fill:#000000;fill-opacity:1;stroke:none;font-family:Open Sans;-inkscape-font-specification:Open Sans;opacity:0.15"
       id="g4077">
      <path
         sodipodi:nodetypes="cccccccccscccccccc"
         inkscape:connector-curvature="0"
         d="m 30.981029,997.7767 c 0.950623,-0.002 1.813986,0.25771 2.732869,0.48941 l 0,4.89449 0,0.4891 c 0,0.9788 0.439642,0.9102 1.02164,0.8592 l -6e-6,1.0984 c -0.417121,0 -0.950092,-0.074 -1.237429,-0.1947 -0.278082,-0.1298 -0.62973,-0.317 -0.805838,-0.5394 -0.231735,0.1761 -0.403795,0.354 -0.765287,0.5116 -0.361503,0.1483 -0.792519,0.2225 -1.29305,0.2225 -0.546885,0 -1.006563,0 -1.445992,-0.2781 -2.72891,-1.7992 -1.603837,-6.57367 0.634532,-7.27305 m 0.826531,6.57235 c 1.021633,0 1.377782,-0.2446 2.043267,-0.4894 l 0,-5.18781 c -0.545065,-0.0821 -1.021634,-0.19576 -1.655126,-0.19576 -1.799476,0.0874 -2.426311,1.72317 -2.431408,2.93647 0.04753,1.5889 0.514048,2.6857 2.043267,2.9365"
         style="font-size:13.90376282000000074px;fill:#000000;font-family:Ubuntu;-inkscape-font-specification:Ubuntu;fill-opacity:1"
         id="path4079" />
    </g>
    <g
       id="g3980"
       style="font-size:11.8962822px;font-style:normal;font-variant:normal;font-weight:normal;font-stretch:normal;line-height:125%;letter-spacing:0px;word-spacing:0px;fill:#6d6d6d;fill-opacity:1;stroke:none;font-family:Open Sans;-inkscape-font-specification:Open Sans"
       transform="matrix(0.97905854,0,0,1.0216333,-0.00812514,2.9559691e-4)">
      <path
         id="path3984"
         style="font-size:13.90376282px;fill:#6d6d6d;font-family:Ubuntu;-inkscape-font-specification:Ubuntu"
         d="m 30.981029,997.7767 c 0.950623,-0.002 1.813986,0.25771 2.732869,0.48941 l 0,4.89449 0,0.4891 c 0,0.9788 0.439642,0.9102 1.02164,0.8592 l -6e-6,1.0984 c -0.417121,0 -0.950092,-0.074 -1.237429,-0.1947 -0.278082,-0.1298 -0.62973,-0.317 -0.805838,-0.5394 -0.231735,0.1761 -0.403795,0.354 -0.765287,0.5116 -0.361503,0.1483 -0.792519,0.2225 -1.29305,0.2225 -0.546885,0 -1.006563,0 -1.445992,-0.2781 -2.72891,-1.7992 -1.603837,-6.57367 0.634532,-7.27305 m 0.826531,6.57235 c 1.021633,0 1.377782,-0.2446 2.043267,-0.4894 l 0,-5.18781 c -0.545065,-0.0821 -1.021634,-0.19576 -1.655126,-0.19576 -1.799476,0.0874 -2.426311,1.72317 -2.431408,2.93647 0.04753,1.5889 0.514048,2.6857 2.043267,2.9365"
         inkscape:connector-curvature="0"
         sodipodi:nodetypes="cccccccccscccccccc" />
    </g>
    <rect
       style="opacity:0.45;fill:url(#linearGradient4005);fill-opacity:1;stroke:none"
       id="rect3997"
       width="24"
       height="2"
       x="12"
       y="41"
       transform="translate(0,1004.3622)" />
    <rect
       style="opacity:0.3;fill:url(#radialGradient4071);fill-opacity:1;stroke:none"
       id="rect4063"
       width="19"
       height="4"
       x="15"
       y="35"
       transform="translate(0,1004.3622)" />
    <path
       style="fill:url(#linearGradient3893);fill-opacity:1;stroke:none;display:inline"
       d="M 6 29 L 6 33 C 6 36.32401 8.676 39 12 39 L 36 39 C 39.324 39 42 36.32401 42 33 L 42 29 C 42 32.32401 39.324 35 36 35 L 12 35 C 8.676 35 6 32.32401 6 29 z "
       transform="translate(0,1004.3622)"
       id="rect3112" />
  </g>
  <g
     inkscape:groupmode="layer"
     id="layer4"
     inkscape:label="Inset"
     style="display:inline"
     sodipodi:insensitive="true">
    <path
       style="opacity:0.15;fill:#000000;fill-opacity:1;stroke:none"
       d="m 2,34 0,3 c 0,4.986 4.014,9 9,9 l 26,0 c 4.986,0 9,-4.014 9,-9 l 0,-3 c 0,4.986 -4.014,9 -9,9 L 11,43 C 6.014,43 2,38.986 2,34 z"
       id="rect3038-42"
       inkscape:connector-curvature="0" />
  </g>
  <g
     inkscape:groupmode="layer"
     id="layer7"
     inkscape:label="Baseshape"
     sodipodi:insensitive="true"
     style="display:none">
    <rect
       rx="9"
       ry="9"
       y="2"
       x="2"
       height="44"
       width="44"
       id="rect4169"
       style="fill:#abe1ad;fill-opacity:1;stroke:none;display:inline" />
  </g>
</svg>
