<?xml version="1.0" encoding="UTF-8" standalone="no"?>
<!-- Created with Inkscape (http://www.inkscape.org/) -->

<svg
   xmlns:dc="http://purl.org/dc/elements/1.1/"
   xmlns:cc="http://creativecommons.org/ns#"
   xmlns:rdf="http://www.w3.org/1999/02/22-rdf-syntax-ns#"
   xmlns:svg="http://www.w3.org/2000/svg"
   xmlns="http://www.w3.org/2000/svg"
   xmlns:xlink="http://www.w3.org/1999/xlink"
   xmlns:sodipodi="http://sodipodi.sourceforge.net/DTD/sodipodi-0.dtd"
   xmlns:inkscape="http://www.inkscape.org/namespaces/inkscape"
   width="48"
   height="48"
   id="svg2"
   version="1.1"
   inkscape:version="0.48.5 r"
   sodipodi:docname="netbeans.svg"
   inkscape:export-filename="/home/webdesign/Desktop/netbeans.png"
   inkscape:export-xdpi="300"
   inkscape:export-ydpi="300">
  <defs
     id="defs4">
    <linearGradient
       id="linearGradient13869">
      <stop
         style="stop-color:#72c3fb;stop-opacity:1;"
         offset="0"
         id="stop13871" />
      <stop
         style="stop-color:#0577c7;stop-opacity:1;"
         offset="1"
         id="stop13873" />
    </linearGradient>
    <inkscape:perspective
       sodipodi:type="inkscape:persp3d"
       inkscape:vp_x="0 : 24 : 1"
       inkscape:vp_y="0 : 1000 : 0"
       inkscape:vp_z="48 : 24 : 1"
       inkscape:persp3d-origin="24 : 16 : 1"
       id="perspective13002" />
    <linearGradient
       id="linearGradient13021">
      <stop
         style="stop-color:#2342a5;stop-opacity:1;"
         offset="0"
         id="stop13023" />
      <stop
         style="stop-color:#9153d9;stop-opacity:1;"
         offset="1"
         id="stop13025" />
    </linearGradient>
    <linearGradient
       id="linearGradient3768">
      <stop
         style="stop-color:#7214b4;stop-opacity:1;"
         offset="0"
         id="stop3770" />
      <stop
         style="stop-color:#611199;stop-opacity:1;"
         offset="1"
         id="stop3772" />
    </linearGradient>
    <radialGradient
       r="23"
       fy="42.499992"
       fx="24.000002"
       cy="42.499992"
       cx="24.000002"
       gradientTransform="matrix(1.0434782,0,0,0.1956518,-1.07163,41.184809)"
       gradientUnits="userSpaceOnUse"
       id="radialGradient3913"
       xlink:href="#linearGradient4243-9"
       inkscape:collect="always" />
    <linearGradient
       id="linearGradient4243-9">
      <stop
         style="stop-color:#000000;stop-opacity:1;"
         offset="0"
         id="stop4245-0" />
      <stop
         style="stop-color:#000000;stop-opacity:0;"
         offset="1"
         id="stop4247-7" />
    </linearGradient>
    <radialGradient
       r="23"
       fy="42.499992"
       fx="24.000002"
       cy="42.499992"
       cx="24.000002"
       gradientTransform="matrix(1.0434782,0,0,0.1956518,-1.07173,1045.547)"
       gradientUnits="userSpaceOnUse"
       id="radialGradient3076"
       xlink:href="#linearGradient4243-9"
       inkscape:collect="always" />
    <linearGradient
       inkscape:collect="always"
       xlink:href="#linearGradient13869"
       id="linearGradient13875"
       x1="1008.3622"
       y1="-24"
       x2="1050.3622"
       y2="-24"
       gradientUnits="userSpaceOnUse" />
  </defs>
  <sodipodi:namedview
     id="base"
     pagecolor="#ffffff"
     bordercolor="#666666"
     borderopacity="1.0"
     inkscape:pageopacity="0.0"
     inkscape:pageshadow="2"
     inkscape:zoom="11.313708"
     inkscape:cx="25.492135"
     inkscape:cy="20.567826"
     inkscape:document-units="px"
     inkscape:current-layer="layer3"
     showgrid="true"
     inkscape:window-width="1920"
     inkscape:window-height="1028"
     inkscape:window-x="0"
     inkscape:window-y="0"
     inkscape:window-maximized="1"
     inkscape:showpageshadow="false">
    <inkscape:grid
       type="xygrid"
       id="grid3787"
       empspacing="5"
       visible="true"
       enabled="true"
       snapvisiblegridlinesonly="true" />
  </sodipodi:namedview>
  <metadata
     id="metadata7">
    <rdf:RDF>
      <cc:Work
         rdf:about="">
        <dc:format>image/svg+xml</dc:format>
        <dc:type
           rdf:resource="http://purl.org/dc/dcmitype/StillImage" />
        <dc:title></dc:title>
      </cc:Work>
    </rdf:RDF>
  </metadata>
  <g
     inkscape:label="Fake blur shadow"
     inkscape:groupmode="layer"
     id="layer1"
     transform="translate(0,-1004.3622)"
     sodipodi:insensitive="true">
    <g
       id="g3878"
       transform="translate(-39.765879,1007.8889)">
      <path
         inkscape:connector-curvature="0"
         id="rect3829"
         d="m 49.765879,-2.5266567 c -4.986,0 -9,4.014 -9,9 l 0,27.9999997 c 0,4.986 4.014,9 9,9 l 28,0 c 4.986,0 9,-4.014 9,-9 l 0,-27.9999997 c 0,-4.986 -4.014,-9 -9,-9 l -28,0 z m 0.5,0.5 27,0 c 4.986,0 9,4.014 9,9 l 0,26.9999997 c 0,4.986 -4.014,9 -9,9 l -27,0 c -4.986,0 -9,-4.014 -9,-9 l 0,-26.9999997 c 0,-4.986 4.014,-9 9,-9 z"
         style="opacity:0.06000001;fill:#000000;fill-opacity:1;stroke:none;display:inline" />
      <path
         inkscape:connector-curvature="0"
         id="rect3827"
         d="m 50.265879,-2.0266567 c -4.986,0 -9,4.014 -9,9 l 0,26.9999997 c 0,4.986 4.014,9 9,9 l 27,0 c 4.986,0 9,-4.014 9,-9 l 0,-26.9999997 c 0,-4.986 -4.014,-9 -9,-9 l -27,0 z m 0.25,0.25 26.5,0 c 4.986,0 9,4.014 9,9 l 0,26.4999997 c 0,4.986 -4.014,9 -9,9 l -26.5,0 c -4.986,0 -9,-4.014 -9,-9 l 0,-26.4999997 c 0,-4.986 4.014,-9 9,-9 z"
         style="opacity:0.12000002;fill:#000000;fill-opacity:1;stroke:none;display:inline" />
      <rect
         rx="9"
         ry="9"
         y="-1.7766566"
         x="41.515881"
         height="44.5"
         width="44.5"
         id="rect3038-4"
         style="opacity:0.23999999;fill:#000000;fill-opacity:1;stroke:none;display:inline" />
    </g>
  </g>
  <g
     inkscape:groupmode="layer"
     id="layer2"
     inkscape:label="Blob"
     transform="translate(0,-1004.3622)"
     sodipodi:insensitive="true"
     style="display:none">
    <path
       style="opacity:0.3;fill:url(#radialGradient3076);fill-opacity:1;stroke:none;display:inline"
       d="m 1.003,1049.3622 c 0.487953,4.5189 4.315946,8 8.96875,8 l 28,0 c 4.652804,0 8.480796,-3.4811 8.96875,-8 l -45.9375,0 z"
       id="rect4241"
       inkscape:connector-curvature="0" />
  </g>
  <g
     inkscape:groupmode="layer"
     id="layer3"
     inkscape:label="Baseplate"
     transform="translate(0,-1004.3622)">
    <rect
       rx="9"
       ry="9"
       y="-46"
       x="1006.3622"
       height="44"
       width="44"
       id="rect4169-3"
       style="fill:url(#linearGradient13875);fill-opacity:1;stroke:none;display:inline"
       transform="matrix(0,1,-1,0,0,0)" />
    <g
       id="g13844"
       transform="translate(0,1)"
       style="opacity:0.15">
      <path
         style="fill:#000000;fill-opacity:1;stroke:none"
         inkscape:transform-center-y="0.30341656"
         d="m 26,1014.3622 2.500004,2.5 -5.000008,0 z"
         id="path13846"
         inkscape:connector-curvature="0"
         sodipodi:nodetypes="cccc" />
      <path
         sodipodi:nodetypes="cccc"
         inkscape:connector-curvature="0"
         id="path13848"
         d="m 22,1038.3622 -2.500004,-2.5 5.000008,0 z"
         inkscape:transform-center-y="-0.30341656"
         style="fill:#000000;fill-opacity:1;stroke:none" />
      <path
         style="fill:#000000;fill-opacity:1;stroke:none"
         d="m 16,12 c -3.865993,0 -7,3.134007 -7,7 0,3.865993 3.134007,7 7,7 1.49037,0 2.864818,-0.45609 4,-1.25 l 0,-2.78125 C 19.088189,23.187985 17.639595,24 16,24 c -2.761424,0 -5,-2.238576 -5,-5 0,-2.761424 2.238576,-5 5,-5 2.761424,0 5,2.238576 5,5 l 0,4.875 c 1.230942,-1.261586 2,-2.973148 2,-4.875 0,-3.865993 -3.134007,-7 -7,-7 z"
         transform="translate(0,1004.3622)"
         id="path13850"
         inkscape:connector-curvature="0" />
      <path
         style="fill:#000000;fill-opacity:1;stroke:none"
         d="m 32,18 c -1.49037,0 -2.864818,0.45609 -4,1.25 l 0,2.78125 C 28.911811,20.812015 30.360405,20 32,20 c 2.761424,0 5,2.238576 5,5 0,2.761424 -2.238576,5 -5,5 -2.761424,0 -5,-2.238576 -5,-5 l 0,-4.875 c -1.230942,1.261586 -2,2.973148 -2,4.875 0,3.865993 3.134007,7 7,7 3.865993,0 7,-3.134007 7,-7 0,-3.865993 -3.134007,-7 -7,-7 z"
         transform="translate(0,1004.3622)"
         id="path13852"
         inkscape:connector-curvature="0" />
      <rect
         style="fill:#000000;fill-opacity:1;stroke:none"
         id="rect13854"
         width="2"
         height="13.000017"
         x="21"
         y="1023.3622" />
      <rect
         y="1016.3622"
         x="25"
         height="12.999983"
         width="2"
         id="rect13856"
         style="fill:#000000;fill-opacity:1;stroke:none" />
    </g>
    <g
       id="g13836"
       style="fill:#ffffff">
      <path
         sodipodi:nodetypes="cccc"
         inkscape:connector-curvature="0"
         id="rect13809"
         d="m 26,1014.3622 2.500004,2.5 -5.000008,0 z"
         inkscape:transform-center-y="0.30341656"
         style="opacity:1;fill:#ffffff;fill-opacity:1;stroke:none" />
      <path
         style="opacity:1;fill:#ffffff;fill-opacity:1;stroke:none"
         inkscape:transform-center-y="-0.30341656"
         d="m 22,1038.3622 -2.500004,-2.5 5.000008,0 z"
         id="path13812"
         inkscape:connector-curvature="0"
         sodipodi:nodetypes="cccc" />
      <path
         id="path13814"
         transform="translate(0,1004.3622)"
         d="M 16 12 C 12.134007 12 9 15.134007 9 19 C 9 22.865993 12.134007 26 16 26 C 17.49037 26 18.864818 25.54391 20 24.75 L 20 21.96875 C 19.088189 23.187985 17.639595 24 16 24 C 13.238576 24 11 21.761424 11 19 C 11 16.238576 13.238576 14 16 14 C 18.761424 14 21 16.238576 21 19 L 21 23.875 C 22.230942 22.613414 23 20.901852 23 19 C 23 15.134007 19.865993 12 16 12 z "
         style="opacity:1;fill:#ffffff;fill-opacity:1;stroke:none" />
      <path
         id="path13816"
         transform="translate(0,1004.3622)"
         d="M 32 18 C 30.50963 18 29.135182 18.45609 28 19.25 L 28 22.03125 C 28.911811 20.812015 30.360405 20 32 20 C 34.761424 20 37 22.238576 37 25 C 37 27.761424 34.761424 30 32 30 C 29.238576 30 27 27.761424 27 25 L 27 20.125 C 25.769058 21.386586 25 23.098148 25 25 C 25 28.865993 28.134007 32 32 32 C 35.865993 32 39 28.865993 39 25 C 39 21.134007 35.865993 18 32 18 z "
         style="opacity:1;fill:#ffffff;fill-opacity:1;stroke:none" />
      <rect
         y="1023.3622"
         x="21"
         height="13.000017"
         width="2"
         id="rect13818"
         style="opacity:1;fill:#ffffff;fill-opacity:1;stroke:none" />
      <rect
         style="opacity:1;fill:#ffffff;fill-opacity:1;stroke:none"
         id="rect13820"
         width="2"
         height="12.999983"
         x="25"
         y="1016.3622" />
    </g>
  </g>
  <g
     inkscape:groupmode="layer"
     id="layer4"
     inkscape:label="Symbol"
     transform="translate(0,-1004.3622)">
    <g
       id="g13793"
       transform="matrix(0.66666667,0,0,0.66666667,8.6666653,344.03738)" />
  </g>
  <g
     inkscape:groupmode="layer"
     id="layer5"
     inkscape:label="Inset"
     transform="translate(0,-1004.3622)"
     sodipodi:insensitive="true"
     style="display:inline">
    <path
       style="opacity:0.15;fill:#000000;fill-opacity:1;stroke:none;display:inline"
       d="m 1.991,1038.3622 0,3 c 0,4.986 4.014,9 9.000001,9 l 25.999999,0 c 4.986,0 9,-4.014 9,-9 l 0,-3 c 0,4.986 -4.014,9 -9,9 l -25.999999,0 c -4.986001,0 -9.000001,-4.014 -9.000001,-9 z"
       id="rect3038-42"
       inkscape:connector-curvature="0" />
  </g>
  <g
     inkscape:groupmode="layer"
     id="layer6"
     inkscape:label="Baseshape"
     transform="translate(0,-1004.3622)"
     sodipodi:insensitive="true"
     style="display:none">
    <rect
       rx="9"
       ry="9"
       y="1006.3622"
       x="2"
       height="44"
       width="44"
       id="rect4169"
       style="fill:#abe1ad;fill-opacity:1;stroke:none;display:inline" />
  </g>
</svg>
