<?xml version="1.0" encoding="UTF-8" standalone="no"?>
<!-- Created with Inkscape (http://www.inkscape.org/) -->

<svg
   xmlns:dc="http://purl.org/dc/elements/1.1/"
   xmlns:cc="http://creativecommons.org/ns#"
   xmlns:rdf="http://www.w3.org/1999/02/22-rdf-syntax-ns#"
   xmlns:svg="http://www.w3.org/2000/svg"
   xmlns="http://www.w3.org/2000/svg"
   xmlns:xlink="http://www.w3.org/1999/xlink"
   xmlns:sodipodi="http://sodipodi.sourceforge.net/DTD/sodipodi-0.dtd"
   xmlns:inkscape="http://www.inkscape.org/namespaces/inkscape"
   width="48"
   height="48"
   id="svg4230"
   version="1.1"
   inkscape:version="0.48.5 r10040"
   sodipodi:docname="seahorse.svg"
   inkscape:export-filename="/home/nathan/dl/seahorse.png"
   inkscape:export-xdpi="240"
   inkscape:export-ydpi="240">
  <defs
     id="defs4232">
    <linearGradient
       id="linearGradient3827">
      <stop
         id="stop3829"
         offset="0"
         style="stop-color:#847726;stop-opacity:1" />
      <stop
         id="stop3831"
         offset="1"
         style="stop-color:#a59d68;stop-opacity:1" />
    </linearGradient>
    <linearGradient
       id="linearGradient3821">
      <stop
         id="stop3823"
         offset="0"
         style="stop-color:#a39244;stop-opacity:1" />
      <stop
         id="stop3825"
         offset="1"
         style="stop-color:#efeab3;stop-opacity:1" />
    </linearGradient>
    <linearGradient
       id="linearGradient3976">
      <stop
         style="stop-color:#c0c0c0;stop-opacity:1;"
         offset="0"
         id="stop3978" />
      <stop
         style="stop-color:#ffffff;stop-opacity:1;"
         offset="1"
         id="stop3980" />
    </linearGradient>
    <linearGradient
       id="linearGradient4243">
      <stop
         style="stop-color:#000000;stop-opacity:1;"
         offset="0"
         id="stop4245" />
      <stop
         style="stop-color:#000000;stop-opacity:0;"
         offset="1"
         id="stop4247" />
    </linearGradient>
    <radialGradient
       inkscape:collect="always"
       xlink:href="#linearGradient4243"
       id="radialGradient4274"
       gradientUnits="userSpaceOnUse"
       gradientTransform="matrix(1.0434782,0,0,0.1956518,-1.0434797,35.184809)"
       cx="24.000001"
       cy="42.499991"
       fx="24.000001"
       fy="42.499991"
       r="23" />
    <linearGradient
       inkscape:collect="always"
       xlink:href="#linearGradient3951"
       id="linearGradient3880"
       x1="26"
       y1="46"
       x2="26"
       y2="2"
       gradientUnits="userSpaceOnUse" />
    <linearGradient
       id="linearGradient3955">
      <stop
         style="stop-color:#9a9764;stop-opacity:1"
         offset="0"
         id="stop3957" />
      <stop
         style="stop-color:#6e5f31;stop-opacity:1"
         offset="1"
         id="stop3959" />
    </linearGradient>
    <linearGradient
       inkscape:collect="always"
       xlink:href="#linearGradient3827"
       id="linearGradient4740"
       gradientUnits="userSpaceOnUse"
       gradientTransform="matrix(0.66666665,0,0,0.66666665,8.0000005,-1712.2703)"
       x1="24"
       y1="1042.3621"
       x2="24"
       y2="1012.3622" />
    <linearGradient
       inkscape:collect="always"
       xlink:href="#linearGradient3976"
       id="linearGradient4744"
       gradientUnits="userSpaceOnUse"
       gradientTransform="matrix(0.59999998,0,0,0.59999998,9.6000006,-1643.7795)"
       x1="24"
       y1="1042.3621"
       x2="24"
       y2="1012.3622" />
    <linearGradient
       inkscape:collect="always"
       xlink:href="#linearGradient3955"
       id="linearGradient4748"
       gradientUnits="userSpaceOnUse"
       gradientTransform="matrix(0.59999998,0,0,0.59999998,9.6000006,-1643.7795)"
       x1="24"
       y1="1042.3621"
       x2="24"
       y2="1012.3622" />
    <linearGradient
       inkscape:collect="always"
       xlink:href="#linearGradient3821"
       id="linearGradient4752"
       gradientUnits="userSpaceOnUse"
       gradientTransform="matrix(0.53333331,0,0,0.53333331,11.200001,-1575.2887)"
       x1="24"
       y1="1042.3621"
       x2="24"
       y2="1012.3622" />
    <linearGradient
       id="linearGradient3951">
      <stop
         id="stop3953"
         offset="0"
         style="stop-color:#dad07b;stop-opacity:1" />
      <stop
         id="stop3955"
         offset="1"
         style="stop-color:#eceac2;stop-opacity:1" />
    </linearGradient>
  </defs>
  <sodipodi:namedview
     id="base"
     pagecolor="#ffffff"
     bordercolor="#666666"
     borderopacity="1.0"
     inkscape:pageopacity="0.0"
     inkscape:pageshadow="2"
     inkscape:zoom="9.1760328"
     inkscape:cx="-10.361321"
     inkscape:cy="14.141147"
     inkscape:document-units="px"
     inkscape:current-layer="layer2"
     showgrid="false"
     inkscape:showpageshadow="false"
     borderlayer="true"
     inkscape:window-width="1680"
     inkscape:window-height="1022"
     inkscape:window-x="0"
     inkscape:window-y="28"
     inkscape:window-maximized="1"
     showguides="true"
     inkscape:guide-bbox="true"
     inkscape:snap-global="true">
    <inkscape:grid
       type="xygrid"
       id="grid4162" />
    <sodipodi:guide
       position="1.0000013,47.000017"
       orientation="46,0"
       id="guide4163" />
    <sodipodi:guide
       position="1.0000013,1.0000174"
       orientation="0,45.999999"
       id="guide4165" />
    <sodipodi:guide
       position="47,1.0000174"
       orientation="-46,0"
       id="guide4167" />
    <sodipodi:guide
       position="47,47.000017"
       orientation="0,-45.999999"
       id="guide4169" />
    <sodipodi:guide
       position="2.0000007,46.000017"
       orientation="44,0"
       id="guide4173" />
    <sodipodi:guide
       position="2.0000007,2.0000174"
       orientation="0,43.999999"
       id="guide4175" />
    <sodipodi:guide
       position="46,2.0000174"
       orientation="-44,0"
       id="guide4177" />
    <sodipodi:guide
       position="46,46.000017"
       orientation="0,-43.999999"
       id="guide4179" />
    <sodipodi:guide
       position="3,45.000017"
       orientation="42,0"
       id="guide4183" />
    <sodipodi:guide
       position="45,3.0000174"
       orientation="-42,0"
       id="guide4187" />
    <sodipodi:guide
       position="45,45.000017"
       orientation="0,-42"
       id="guide4189" />
    <sodipodi:guide
       position="3,45.000017"
       orientation="42,0"
       id="guide4193" />
    <sodipodi:guide
       position="3,3.0000174"
       orientation="0,42"
       id="guide4195" />
    <sodipodi:guide
       position="45,3.0000174"
       orientation="-42,0"
       id="guide4197" />
    <sodipodi:guide
       position="45,45.000017"
       orientation="0,-42"
       id="guide4199" />
    <sodipodi:guide
       position="3,10.000017"
       orientation="7,0"
       id="guide4203" />
    <sodipodi:guide
       position="3,3.0000174"
       orientation="0,42"
       id="guide4205" />
    <sodipodi:guide
       position="45,3.0000174"
       orientation="-7,0"
       id="guide4207" />
    <sodipodi:guide
       position="45,10.000017"
       orientation="0,-42"
       id="guide4209" />
  </sodipodi:namedview>
  <metadata
     id="metadata4235">
    <rdf:RDF>
      <cc:Work
         rdf:about="">
        <dc:format>image/svg+xml</dc:format>
        <dc:type
           rdf:resource="http://purl.org/dc/dcmitype/StillImage" />
        <dc:title />
      </cc:Work>
    </rdf:RDF>
  </metadata>
  <g
     inkscape:groupmode="layer"
     id="layer3"
     inkscape:label="Fake blur shadow"
     style="display:inline"
     sodipodi:insensitive="true">
    <path
       style="opacity:0.06000001;fill:#000000;fill-opacity:1;stroke:none"
       d="M 10,1 C 5.014,1 1,5.014 1,10 l 0,28 c 0,4.986 4.014,9 9,9 l 28,0 c 4.986,0 9,-4.014 9,-9 L 47,10 C 47,5.014 42.986,1 38,1 L 10,1 z m 0.5,0.5 27,0 c 4.986,0 9,4.014 9,9 l 0,27 c 0,4.986 -4.014,9 -9,9 l -27,0 c -4.986,0 -9,-4.014 -9,-9 l 0,-27 c 0,-4.986 4.014,-9 9,-9 z"
       id="rect3829"
       inkscape:connector-curvature="0" />
    <path
       style="opacity:0.12000002;fill:#000000;fill-opacity:1;stroke:none"
       d="m 10.5,1.5 c -4.986,0 -9,4.014 -9,9 l 0,27 c 0,4.986 4.014,9 9,9 l 27,0 c 4.986,0 9,-4.014 9,-9 l 0,-27 c 0,-4.986 -4.014,-9 -9,-9 l -27,0 z m 0.25,0.25 26.5,0 c 4.986,0 9,4.014 9,9 l 0,26.5 c 0,4.986 -4.014,9 -9,9 l -26.5,0 c -4.986,0 -9,-4.014 -9,-9 l 0,-26.5 c 0,-4.986 4.014,-9 9,-9 z"
       id="rect3827"
       inkscape:connector-curvature="0" />
    <rect
       style="opacity:0.23999999;fill:#000000;fill-opacity:1;stroke:none"
       id="rect3038-4"
       width="44.5"
       height="44.5"
       x="1.75"
       y="1.75"
       ry="9"
       rx="9" />
  </g>
  <g
     inkscape:groupmode="layer"
     id="layer6"
     inkscape:label="Blob"
     style="display:inline"
     sodipodi:insensitive="true">
    <path
       style="opacity:0.3;fill:url(#radialGradient4274);fill-opacity:1;stroke:none"
       d="M 1.03125,39 C 1.5192036,43.518898 5.3471961,47 10,47 l 28,0 c 4.652804,0 8.480796,-3.481102 8.96875,-8 l -45.9375,0 z"
       id="rect4241"
       inkscape:connector-curvature="0" />
  </g>
  <g
     inkscape:groupmode="layer"
     id="layer2"
     inkscape:label="Baseplate"
     style="display:inline">
    <rect
       style="fill:url(#linearGradient3880);fill-opacity:1.0;stroke:none"
       id="rect3038"
       width="44"
       height="44"
       x="2"
       y="1.9999826"
       ry="9"
       rx="9" />
  </g>
  <g
     inkscape:label="Symbol"
     inkscape:groupmode="layer"
     id="layer1"
     transform="translate(0,-1004.3622)"
     style="display:inline">
    <path
       style="color:#000000;text-decoration:none;text-decoration-line:none;text-decoration-style:solid;text-decoration-color:#000000;clip-rule:nonzero;display:inline;overflow:visible;visibility:visible;opacity:1;isolation:auto;mix-blend-mode:normal;color-interpolation:sRGB;color-interpolation-filters:linearRGB;solid-color:#000000;solid-opacity:1;fill:#000000;fill-opacity:0.23529412;fill-rule:nonzero;stroke:none;stroke-width:1;stroke-linecap:butt;stroke-linejoin:miter;stroke-miterlimit:4;stroke-dasharray:none;stroke-dashoffset:0;stroke-opacity:1;color-rendering:auto;image-rendering:auto;shape-rendering:auto;text-rendering:auto;enable-background:accumulate"
       d="m 24,1013.2621 c 8.309999,0 14.999999,6.69 14.999999,15 0,8.31 -6.69,15 -14.999999,15 -8.309999,0 -14.999999,-6.69 -14.999999,-15 0,-8.31 6.69,-15 14.999999,-15 z"
       id="rect4264" />
    <path
       style="color:#000000;text-decoration:none;text-decoration-line:none;text-decoration-style:solid;text-decoration-color:#000000;clip-rule:nonzero;display:inline;overflow:visible;visibility:visible;opacity:1;isolation:auto;mix-blend-mode:normal;color-interpolation:sRGB;color-interpolation-filters:linearRGB;solid-color:#000000;solid-opacity:1;fill:#c1bc85;fill-opacity:1;fill-rule:nonzero;stroke:none;stroke-width:1;stroke-linecap:butt;stroke-linejoin:miter;stroke-miterlimit:4;stroke-dasharray:none;stroke-dashoffset:0;stroke-opacity:1;color-rendering:auto;image-rendering:auto;shape-rendering:auto;text-rendering:auto;enable-background:accumulate"
       d="m 24,1012.3621 c 8.309999,0 14.999999,6.69 14.999999,15 0,8.31 -6.69,15 -14.999999,15 -8.309999,0 -14.999999,-6.69 -14.999999,-15 0,-8.31 6.69,-15 14.999999,-15 z"
       id="rect4259" />
    <path
       transform="scale(1,-1)"
       style="color:#000000;text-decoration:none;text-decoration-line:none;text-decoration-style:solid;text-decoration-color:#000000;clip-rule:nonzero;display:inline;overflow:visible;visibility:visible;opacity:1;isolation:auto;mix-blend-mode:normal;color-interpolation:sRGB;color-interpolation-filters:linearRGB;solid-color:#000000;solid-opacity:1;fill:#424242;fill-opacity:1;fill-rule:nonzero;stroke:none;stroke-width:1;stroke-linecap:butt;stroke-linejoin:miter;stroke-miterlimit:4;stroke-dasharray:none;stroke-dashoffset:0;stroke-opacity:1;color-rendering:auto;image-rendering:auto;shape-rendering:auto;text-rendering:auto;enable-background:accumulate"
       d="m 24,-1040.3621 c 7.201999,0 12.999999,5.798 12.999999,13 0,7.202 -5.798,13 -12.999999,13 -7.201999,0 -12.999999,-5.798 -12.999999,-13 0,-7.202 5.798,-13 12.999999,-13 z"
       id="rect4470" />
    <path
       transform="scale(1,-1)"
       style="color:#000000;text-decoration:none;text-decoration-line:none;text-decoration-style:solid;text-decoration-color:#000000;clip-rule:nonzero;display:inline;overflow:visible;visibility:visible;opacity:1;isolation:auto;mix-blend-mode:normal;color-interpolation:sRGB;color-interpolation-filters:linearRGB;solid-color:#000000;solid-opacity:1;fill:url(#linearGradient4740);fill-opacity:1;fill-rule:nonzero;stroke:none;stroke-width:1;stroke-linecap:butt;stroke-linejoin:miter;stroke-miterlimit:4;stroke-dasharray:none;stroke-dashoffset:0;stroke-opacity:1;color-rendering:auto;image-rendering:auto;shape-rendering:auto;text-rendering:auto;enable-background:accumulate"
       d="m 24,-1037.3621 c 5.539999,0 9.999999,4.46 9.999999,10 0,5.54 -4.46,10 -9.999999,10 -5.539999,0 -9.999999,-4.46 -9.999999,-10 0,-5.54 4.46,-10 9.999999,-10 z"
       id="rect4738" />
    <path
       transform="scale(1,-1)"
       style="color:#000000;text-decoration:none;text-decoration-line:none;text-decoration-style:solid;text-decoration-color:#000000;clip-rule:nonzero;display:inline;overflow:visible;visibility:visible;opacity:1;isolation:auto;mix-blend-mode:normal;color-interpolation:sRGB;color-interpolation-filters:linearRGB;solid-color:#000000;solid-opacity:1;fill:url(#linearGradient4744);fill-opacity:1;fill-rule:nonzero;stroke:none;stroke-width:1;stroke-linecap:butt;stroke-linejoin:miter;stroke-miterlimit:4;stroke-dasharray:none;stroke-dashoffset:0;stroke-opacity:1;color-rendering:auto;image-rendering:auto;shape-rendering:auto;text-rendering:auto;enable-background:accumulate"
       d="m 24,-1036.3621 c 4.985999,0 8.999999,4.014 8.999999,9 0,4.986 -4.014,9 -8.999999,9 -4.985999,0 -8.999999,-4.014 -8.999999,-9 0,-4.986 4.014,-9 8.999999,-9 z"
       id="rect4742" />
    <path
       style="color:#000000;text-decoration:none;text-decoration-line:none;text-decoration-style:solid;text-decoration-color:#000000;clip-rule:nonzero;display:inline;overflow:visible;visibility:visible;opacity:0.81553398;isolation:auto;mix-blend-mode:normal;color-interpolation:sRGB;color-interpolation-filters:linearRGB;solid-color:#000000;solid-opacity:1;fill:url(#linearGradient4748);fill-opacity:1;fill-rule:nonzero;stroke:none;stroke-width:1;stroke-linecap:butt;stroke-linejoin:miter;stroke-miterlimit:4;stroke-dasharray:none;stroke-dashoffset:0;stroke-opacity:1;color-rendering:auto;image-rendering:auto;shape-rendering:auto;text-rendering:auto;enable-background:accumulate"
       d="m 24,-1036.3621 c 4.985999,0 8.999999,4.014 8.999999,9 0,4.986 -4.014,9 -8.999999,9 -4.985999,0 -8.999999,-4.014 -8.999999,-9 0,-4.986 4.014,-9 8.999999,-9 z"
       id="rect4746"
       transform="scale(1,-1)" />
    <path
       style="color:#000000;text-decoration:none;text-decoration-line:none;text-decoration-style:solid;text-decoration-color:#000000;clip-rule:nonzero;display:inline;overflow:visible;visibility:visible;opacity:1;isolation:auto;mix-blend-mode:normal;color-interpolation:sRGB;color-interpolation-filters:linearRGB;solid-color:#000000;solid-opacity:1;fill:url(#linearGradient4752);fill-opacity:1;fill-rule:nonzero;stroke:none;stroke-width:1;stroke-linecap:butt;stroke-linejoin:miter;stroke-miterlimit:4;stroke-dasharray:none;stroke-dashoffset:0;stroke-opacity:1;color-rendering:auto;image-rendering:auto;shape-rendering:auto;text-rendering:auto;enable-background:accumulate"
       d="m 23.999999,-1035.3621 c 4.432,0 7.999999,3.568 7.999999,8 0,4.432 -3.567999,8 -7.999999,8 -4.431999,0 -7.999999,-3.568 -7.999999,-8 0,-4.432 3.568,-8 7.999999,-8 z"
       id="rect4750"
       transform="scale(1,-1)" />
    <path
       style="fill:#424242;fill-opacity:1;stroke:none"
       d="m 22,34 0,-3 c 0,0 2,0 2,-1 0,-1 -2,-1 -2,-1 l 0,-3 c 0,0 2,0 2,-1 0,-1 -2,-1 -2,-1 l 0,-5 c 0,0 0,-1 1,-1 1,0 1,1 1,1 l 0,4 c 0,0 2,0 2,1 0,1 0,1 0,2 0,1 -2,1 -2,1 l 0,1 c 0,0 2,0 2,1 0,1 0,5 0,5 z"
       id="path3051"
       inkscape:connector-curvature="0"
       transform="translate(0,1004.3622)"
       sodipodi:nodetypes="ccsccsccsccssccscc" />
  </g>
  <g
     inkscape:groupmode="layer"
     id="layer4"
     inkscape:label="Inset"
     sodipodi:insensitive="true"
     style="display:inline">
    <path
       style="opacity:0.15;fill:#000000;fill-opacity:1;stroke:none"
       d="m 2,34 0,3 c 0,4.986 4.014,9 9,9 l 26,0 c 4.986,0 9,-4.014 9,-9 l 0,-3 c 0,4.986 -4.014,9 -9,9 L 11,43 C 6.014,43 2,38.986 2,34 z"
       id="rect3038-42"
       inkscape:connector-curvature="0" />
  </g>
  <g
     inkscape:groupmode="layer"
     id="layer7"
     inkscape:label="Baseshape"
     sodipodi:insensitive="true"
     style="display:none">
    <rect
       rx="9"
       ry="9"
       y="2"
       x="2"
       height="44"
       width="44"
       id="rect4169"
       style="fill:#abe1ad;fill-opacity:1;stroke:none;display:inline" />
  </g>
</svg>
