<?xml version="1.0" encoding="UTF-8" standalone="no"?>
<!-- Created with Inkscape (http://www.inkscape.org/) -->

<svg
   xmlns:dc="http://purl.org/dc/elements/1.1/"
   xmlns:cc="http://creativecommons.org/ns#"
   xmlns:rdf="http://www.w3.org/1999/02/22-rdf-syntax-ns#"
   xmlns:svg="http://www.w3.org/2000/svg"
   xmlns="http://www.w3.org/2000/svg"
   xmlns:xlink="http://www.w3.org/1999/xlink"
   xmlns:sodipodi="http://sodipodi.sourceforge.net/DTD/sodipodi-0.dtd"
   xmlns:inkscape="http://www.inkscape.org/namespaces/inkscape"
   width="48"
   height="48"
   id="svg4230"
   version="1.1"
   inkscape:version="0.48.5 r10040"
   sodipodi:docname="smuksi.svg">
  <defs
     id="defs4232">
    <linearGradient
       id="linearGradient4524">
      <stop
         style="stop-color:#e7e3d9;stop-opacity:1;"
         offset="0"
         id="stop4526" />
      <stop
         style="stop-color:#eeebe2;stop-opacity:1;"
         offset="1"
         id="stop4528" />
    </linearGradient>
    <linearGradient
       id="linearGradient4512">
      <stop
         style="stop-color:#d9d2d1;stop-opacity:1;"
         offset="0"
         id="stop4514" />
      <stop
         style="stop-color:#fefcfc;stop-opacity:1;"
         offset="1"
         id="stop4516" />
    </linearGradient>
    <linearGradient
       id="linearGradient4243">
      <stop
         style="stop-color:#000000;stop-opacity:1;"
         offset="0"
         id="stop4245" />
      <stop
         style="stop-color:#000000;stop-opacity:0;"
         offset="1"
         id="stop4247" />
    </linearGradient>
    <linearGradient
       id="linearGradient4216">
      <stop
         style="stop-color:#a0c4e6;stop-opacity:1;"
         offset="0"
         id="stop4218" />
      <stop
         style="stop-color:#d0e2f1;stop-opacity:1;"
         offset="1"
         id="stop4220" />
    </linearGradient>
    <linearGradient
       id="linearGradient4208">
      <stop
         style="stop-color:#70a3d6;stop-opacity:1;"
         offset="0"
         id="stop4210" />
      <stop
         style="stop-color:#88b6e1;stop-opacity:1;"
         offset="1"
         id="stop4212" />
    </linearGradient>
    <linearGradient
       id="linearGradient4200">
      <stop
         style="stop-color:#427dbe;stop-opacity:1;"
         offset="0"
         id="stop4202" />
      <stop
         style="stop-color:#739bd1;stop-opacity:1;"
         offset="1"
         id="stop4204" />
    </linearGradient>
    <linearGradient
       id="linearGradient4192">
      <stop
         style="stop-color:#4970a4;stop-opacity:1;"
         offset="0"
         id="stop4194" />
      <stop
         style="stop-color:#6090c0;stop-opacity:1;"
         offset="1"
         id="stop4196" />
    </linearGradient>
    <radialGradient
       inkscape:collect="always"
       xlink:href="#linearGradient3688-166-749-5-9-1"
       id="radialGradient4351"
       gradientUnits="userSpaceOnUse"
       gradientTransform="matrix(2.3201711,0,0,0.39999996,28.617836,28.600002)"
       cx="4.9929786"
       cy="43.5"
       fx="4.9929786"
       fy="43.5"
       r="2.5" />
    <linearGradient
       id="linearGradient3688-166-749-5-9-1">
      <stop
         id="stop2883-0-2-9"
         style="stop-color:#181818;stop-opacity:1"
         offset="0" />
      <stop
         id="stop2885-5-3-8"
         style="stop-color:#181818;stop-opacity:0"
         offset="1" />
    </linearGradient>
    <linearGradient
       id="linearGradient3688-464-309-8-9-4">
      <stop
         id="stop2889-9-9-1"
         style="stop-color:#181818;stop-opacity:1"
         offset="0" />
      <stop
         id="stop2891-4-2-9"
         style="stop-color:#181818;stop-opacity:0"
         offset="1" />
    </linearGradient>
    <linearGradient
       id="linearGradient3702-501-757-0-4-0">
      <stop
         id="stop2895-0-2-1"
         style="stop-color:#181818;stop-opacity:0"
         offset="0" />
      <stop
         id="stop2897-2-8-2"
         style="stop-color:#181818;stop-opacity:1"
         offset="0.5" />
      <stop
         id="stop2899-6-1-6"
         style="stop-color:#181818;stop-opacity:0"
         offset="1" />
    </linearGradient>
    <linearGradient
       id="linearGradient3811-3">
      <stop
         style="stop-color:#000000;stop-opacity:1;"
         offset="0"
         id="stop3813-0" />
      <stop
         style="stop-color:#000000;stop-opacity:0;"
         offset="1"
         id="stop3815-0" />
    </linearGradient>
    <clipPath
       id="clipPath-887332295">
      <g
         id="g3945"
         transform="translate(0,-1004.3622)">
        <rect
           id="rect3947"
           fill="#1890d0"
           width="46"
           height="46"
           x="1"
           y="1005.36"
           rx="4" />
      </g>
    </clipPath>
    <clipPath
       id="clipPath-867792831">
      <g
         id="g3940"
         transform="translate(0,-1004.3622)">
        <rect
           id="rect3942"
           fill="#1890d0"
           width="46"
           height="46"
           x="1"
           y="1005.36"
           rx="4" />
      </g>
    </clipPath>
    <linearGradient
       gradientTransform="translate(-47.997785,0.00221467)"
       gradientUnits="userSpaceOnUse"
       x2="47"
       x1="1"
       id="linearGradient3764">
      <stop
         id="stop3935"
         stop-opacity="1"
         stop-color="#e4e4e4" />
      <stop
         id="stop3937"
         stop-opacity="1"
         stop-color="#eee"
         offset="1" />
    </linearGradient>
    <radialGradient
       inkscape:collect="always"
       xlink:href="#linearGradient4243"
       id="radialGradient4274"
       gradientUnits="userSpaceOnUse"
       gradientTransform="matrix(1.0434782,0,0,0.1956518,-1.0434797,35.184809)"
       cx="24.000001"
       cy="42.499991"
       fx="24.000001"
       fy="42.499991"
       r="23" />
    <linearGradient
       inkscape:collect="always"
       xlink:href="#linearGradient4524"
       id="linearGradient4530"
       x1="24"
       y1="46"
       x2="24"
       y2="2"
       gradientUnits="userSpaceOnUse" />
    <linearGradient
       inkscape:collect="always"
       xlink:href="#linearGradient4512"
       id="linearGradient4554"
       gradientUnits="userSpaceOnUse"
       x1="12.5"
       y1="28.000042"
       x2="12.5"
       y2="17.000042" />
    <clipPath
       id="2">
      <rect
         style="fill:url(#3)"
         width="44"
         height="44"
         x="2"
         y="1006.36"
         rx="4"
         id="rect13" />
    </clipPath>
    <linearGradient
       inkscape:collect="always"
       xlink:href="#linearGradient4524-7"
       id="linearGradient4530-3"
       x1="24"
       y1="46"
       x2="24"
       y2="2"
       gradientUnits="userSpaceOnUse" />
    <linearGradient
       id="linearGradient4524-7">
      <stop
         style="stop-color:#3aacff;stop-opacity:1;"
         offset="0"
         id="stop4526-9" />
      <stop
         style="stop-color:#7dbbff;stop-opacity:1;"
         offset="1"
         id="stop4528-0" />
    </linearGradient>
    <linearGradient
       inkscape:collect="always"
       xlink:href="#linearGradient4524-3"
       id="linearGradient4530-7"
       x1="24"
       y1="46"
       x2="24"
       y2="2"
       gradientUnits="userSpaceOnUse" />
    <linearGradient
       id="linearGradient4524-3">
      <stop
         style="stop-color:#3aacff;stop-opacity:1;"
         offset="0"
         id="stop4526-99" />
      <stop
         style="stop-color:#7dbbff;stop-opacity:1;"
         offset="1"
         id="stop4528-5" />
    </linearGradient>
  </defs>
  <sodipodi:namedview
     id="base"
     pagecolor="#ffffff"
     bordercolor="#666666"
     borderopacity="1.0"
     inkscape:pageopacity="0.0"
     inkscape:pageshadow="2"
     inkscape:zoom="10.413209"
     inkscape:cx="11.172589"
     inkscape:cy="28.272527"
     inkscape:document-units="px"
     inkscape:current-layer="layer1"
     showgrid="true"
     inkscape:showpageshadow="false"
     borderlayer="true"
     inkscape:window-width="1920"
     inkscape:window-height="1023"
     inkscape:window-x="0"
     inkscape:window-y="28"
     inkscape:window-maximized="1"
     showguides="false"
     inkscape:guide-bbox="true">
    <inkscape:grid
       type="xygrid"
       id="grid4162" />
    <sodipodi:guide
       position="1.0000013,47.000017"
       orientation="46,0"
       id="guide4163" />
    <sodipodi:guide
       position="1.0000013,1.0000174"
       orientation="0,45.999999"
       id="guide4165" />
    <sodipodi:guide
       position="47,1.0000174"
       orientation="-46,0"
       id="guide4167" />
    <sodipodi:guide
       position="47,47.000017"
       orientation="0,-45.999999"
       id="guide4169" />
    <sodipodi:guide
       position="2.0000007,46.000017"
       orientation="44,0"
       id="guide4173" />
    <sodipodi:guide
       position="2.0000007,2.0000174"
       orientation="0,43.999999"
       id="guide4175" />
    <sodipodi:guide
       position="46,2.0000174"
       orientation="-44,0"
       id="guide4177" />
    <sodipodi:guide
       position="46,46.000017"
       orientation="0,-43.999999"
       id="guide4179" />
    <sodipodi:guide
       position="3,45.000017"
       orientation="42,0"
       id="guide4183" />
    <sodipodi:guide
       position="45,3.0000174"
       orientation="-42,0"
       id="guide4187" />
    <sodipodi:guide
       position="45,45.000017"
       orientation="0,-42"
       id="guide4189" />
    <sodipodi:guide
       position="3,45.000017"
       orientation="42,0"
       id="guide4193" />
    <sodipodi:guide
       position="3,3.0000174"
       orientation="0,42"
       id="guide4195" />
    <sodipodi:guide
       position="45,3.0000174"
       orientation="-42,0"
       id="guide4197" />
    <sodipodi:guide
       position="45,45.000017"
       orientation="0,-42"
       id="guide4199" />
    <sodipodi:guide
       position="3,10.000017"
       orientation="7,0"
       id="guide4203" />
    <sodipodi:guide
       position="3,3.0000174"
       orientation="0,42"
       id="guide4205" />
    <sodipodi:guide
       position="45,3.0000174"
       orientation="-7,0"
       id="guide4207" />
    <sodipodi:guide
       position="45,10.000017"
       orientation="0,-42"
       id="guide4209" />
  </sodipodi:namedview>
  <metadata
     id="metadata4235">
    <rdf:RDF>
      <cc:Work
         rdf:about="">
        <dc:format>image/svg+xml</dc:format>
        <dc:type
           rdf:resource="http://purl.org/dc/dcmitype/StillImage" />
        <dc:title></dc:title>
      </cc:Work>
    </rdf:RDF>
  </metadata>
  <g
     inkscape:groupmode="layer"
     id="layer3"
     inkscape:label="Fake blur shadow"
     style="display:inline"
     sodipodi:insensitive="true">
    <path
       style="opacity:0.06000001;fill:#000000;fill-opacity:1;stroke:none"
       d="M 10,1 C 5.014,1 1,5.014 1,10 l 0,28 c 0,4.986 4.014,9 9,9 l 28,0 c 4.986,0 9,-4.014 9,-9 L 47,10 C 47,5.014 42.986,1 38,1 L 10,1 z m 0.5,0.5 27,0 c 4.986,0 9,4.014 9,9 l 0,27 c 0,4.986 -4.014,9 -9,9 l -27,0 c -4.986,0 -9,-4.014 -9,-9 l 0,-27 c 0,-4.986 4.014,-9 9,-9 z"
       id="rect3829"
       inkscape:connector-curvature="0" />
    <path
       style="opacity:0.12000002;fill:#000000;fill-opacity:1;stroke:none"
       d="m 10.5,1.5 c -4.986,0 -9,4.014 -9,9 l 0,27 c 0,4.986 4.014,9 9,9 l 27,0 c 4.986,0 9,-4.014 9,-9 l 0,-27 c 0,-4.986 -4.014,-9 -9,-9 l -27,0 z m 0.25,0.25 26.5,0 c 4.986,0 9,4.014 9,9 l 0,26.5 c 0,4.986 -4.014,9 -9,9 l -26.5,0 c -4.986,0 -9,-4.014 -9,-9 l 0,-26.5 c 0,-4.986 4.014,-9 9,-9 z"
       id="rect3827"
       inkscape:connector-curvature="0" />
    <rect
       style="opacity:0.23999999;fill:#000000;fill-opacity:1;stroke:none"
       id="rect3038-4"
       width="44.5"
       height="44.5"
       x="1.75"
       y="1.75"
       ry="9"
       rx="9" />
  </g>
  <g
     inkscape:groupmode="layer"
     id="layer6"
     inkscape:label="Blob"
     style="display:inline"
     sodipodi:insensitive="true">
    <path
       style="opacity:0.3;fill:url(#radialGradient4274);fill-opacity:1;stroke:none"
       d="M 1.03125,39 C 1.5192036,43.518898 5.3471961,47 10,47 l 28,0 c 4.652804,0 8.480796,-3.481102 8.96875,-8 l -45.9375,0 z"
       id="rect4241"
       inkscape:connector-curvature="0" />
  </g>
  <g
     inkscape:groupmode="layer"
     id="layer2"
     inkscape:label="Baseplate"
     style="display:inline">
    <rect
       style="fill:url(#linearGradient4530);fill-opacity:1;stroke:none"
       id="rect3038"
       width="44"
       height="44"
       x="2"
       y="1.9999826"
       ry="9"
       rx="9" />
  </g>
  <g
     inkscape:label="Symbol"
     inkscape:groupmode="layer"
     id="layer1"
     transform="translate(0,-1004.3622)"
     style="display:inline">
    <path
       style="opacity:0.15;fill:#000000;fill-opacity:1;stroke:none;display:inline"
       inkscape:connector-curvature="0"
       d="m 19.578158,1022.3846 c 1.176387,0.089 2.3386,0.4394 3.376797,1.0347 2.009069,1.1551 3.444119,3.1571 3.901209,5.4496 0.124017,0.6236 0.145276,0.8858 0.145276,1.6583 0,0.5456 -0.0035,0.7263 -0.02835,0.9177 -0.18071,1.3819 -0.591736,2.4874 -1.311033,3.5823 -0.683863,1.0452 -1.537807,1.7964 -2.607893,2.42 -1.452766,0.7866 -2.661043,1.0063 -4.053573,0.9177 -0.01417,0.011 0,0.6591 0,1.6371 0,0.7263 0.0071,1.3252 0,1.3322 -0.0071,0.011 -0.0248,0.028 -0.02835,0.028 -1.303946,-0.9496 -3.164196,-1.8638 -4.202392,-2.8134 -2.26419,-2.0941 -3.543333,-4.5992 -3.755934,-7.3736 -0.02835,-0.3721 -0.01063,-1.2792 0.02835,-1.5981 0.223229,-1.8177 0.985046,-3.4547 2.214583,-4.7374 1.151582,-1.2047 2.576002,-1.9842 4.191762,-2.3102 0.698036,-0.1417 1.420876,-0.202 2.125999,-0.1488 z"
       display="inline"
       id="path4302" />
    <path
       style="opacity:0.15;fill:#000000;fill-opacity:1;stroke:none;display:inline"
       inkscape:connector-curvature="0"
       d="m 30.427844,1015.3831 c -1.176387,0.088 -2.338599,0.4393 -3.376796,1.0346 -2.00907,1.1551 -3.44412,3.1571 -3.90121,5.4496 -0.124017,0.6236 -0.145277,0.8858 -0.145277,1.6583 0,0.5456 0.0035,0.7264 0.02835,0.9177 0.18071,1.3819 0.591737,2.4874 1.311033,3.5823 0.683863,1.0453 1.608674,1.9205 2.67876,2.5476 1.378357,0.6414 2.678759,0.6024 3.982706,0.7902 0.01417,0.011 0,0.659 0,1.637 0,0.7264 -0.0071,1.3252 0,1.3323 0.0071,0.011 0.0248,0.028 0.02835,0.028 1.456309,-0.9496 3.164196,-1.8638 4.202392,-2.8134 2.26419,-2.0941 3.543333,-4.5992 3.755933,-7.3736 0.02835,-0.372 0.01063,-1.2791 -0.02835,-1.598 -0.223229,-1.8177 -0.985046,-3.4548 -2.214583,-4.7374 -1.151583,-1.2048 -2.576002,-1.9843 -4.191762,-2.3103 -0.698037,-0.1417 -1.420876,-0.2019 -2.125999,-0.1488 z"
       display="inline"
       id="path4304" />
    <path
       id="path332"
       display="inline"
       d="m 18.578158,1021.3846 c 1.176387,0.089 2.3386,0.4394 3.376797,1.0347 2.009069,1.1551 3.444119,3.1571 3.901209,5.4496 0.124017,0.6236 0.145276,0.8858 0.145276,1.6583 0,0.5456 -0.0035,0.7263 -0.02835,0.9177 -0.18071,1.3819 -0.591736,2.4874 -1.311033,3.5823 -0.683863,1.0452 -1.537807,1.7964 -2.607893,2.42 -1.452766,0.7866 -2.661043,1.0063 -4.053573,0.9177 -0.01417,0.011 0,0.6591 0,1.6371 0,0.7263 0.0071,1.3252 0,1.3322 -0.0071,0.011 -0.0248,0.028 -0.02835,0.028 -1.303946,-0.9496 -3.164196,-1.8638 -4.202392,-2.8134 -2.26419,-2.0941 -3.543333,-4.5992 -3.755934,-7.3736 -0.02835,-0.3721 -0.01063,-1.2792 0.02835,-1.5981 0.223229,-1.8177 0.985046,-3.4547 2.214583,-4.7374 1.151582,-1.2047 2.576002,-1.9842 4.191762,-2.3102 0.698036,-0.1417 1.420876,-0.202 2.125999,-0.1488 z"
       inkscape:connector-curvature="0"
       style="fill:#5fcc40;fill-opacity:1;stroke:none;display:inline" />
    <path
       id="path334"
       display="inline"
       d="m 23.003782,1029.3642 c 0,0.5527 -0.446461,0.9992 -0.999221,0.9992 -0.55276,0 -0.999219,-0.4465 -0.999219,-0.9992 0,-0.5528 0.446459,-0.9993 0.999219,-0.9993 0.55276,0 0.999221,0.4465 0.999221,0.9993 z m -4.000423,0 c 0,0.5527 -0.446461,0.9992 -0.99922,0.9992 -0.55276,0 -0.99922,-0.4465 -0.99922,-0.9992 0,-0.5528 0.44646,-0.9993 0.99922,-0.9993 0.552759,0 0.99922,0.4465 0.99922,0.9993 z m -4.000422,0 c 0,0.5527 -0.446461,0.9992 -0.999221,0.9992 -0.55276,0 -0.99922,-0.4465 -0.99922,-0.9992 0,-0.5528 0.44646,-0.9993 0.99922,-0.9993 0.55276,0 0.999221,0.4465 0.999221,0.9993 z"
       inkscape:connector-curvature="0"
       style="fill:#fdf7e3;fill-opacity:1;stroke:none;display:inline" />
    <path
       id="path336"
       display="inline"
       d="m 29.427844,1014.3831 c -1.176387,0.088 -2.338599,0.4393 -3.376796,1.0346 -2.00907,1.1551 -3.44412,3.1571 -3.90121,5.4496 -0.124017,0.6236 -0.145277,0.8858 -0.145277,1.6583 0,0.5456 0.0035,0.7264 0.02835,0.9177 0.18071,1.3819 0.591737,2.4874 1.311033,3.5823 0.683863,1.0453 1.608674,1.9205 2.67876,2.5476 1.378357,0.6414 2.678759,0.6024 3.982706,0.7902 0.01417,0.011 0,0.659 0,1.637 0,0.7264 -0.0071,1.3252 0,1.3323 0.0071,0.011 0.0248,0.028 0.02835,0.028 1.456309,-0.9496 3.164196,-1.8638 4.202392,-2.8134 2.26419,-2.0941 3.543333,-4.5992 3.755933,-7.3736 0.02835,-0.372 0.01063,-1.2791 -0.02835,-1.598 -0.223229,-1.8177 -0.985046,-3.4548 -2.214583,-4.7374 -1.151583,-1.2048 -2.576002,-1.9843 -4.191762,-2.3103 -0.698037,-0.1417 -1.420876,-0.2019 -2.125999,-0.1488 z"
       inkscape:connector-curvature="0"
       style="fill:#37a6cd;fill-opacity:1;stroke:none;display:inline" />
    <path
       id="path338"
       display="inline"
       d="m 35.00505,1022.3626 c 0,0.5527 -0.44646,0.9992 -0.99922,0.9992 -0.55276,0 -0.999221,-0.4465 -0.999221,-0.9992 0,-0.5528 0.446461,-0.9992 0.999221,-0.9992 0.55276,0 0.99922,0.4464 0.99922,0.9992 z m -4.000423,0 c 0,0.5527 -0.44646,0.9992 -0.99922,0.9992 -0.55276,0 -0.99922,-0.4465 -0.99922,-0.9992 0,-0.5528 0.44646,-0.9992 0.99922,-0.9992 0.55276,0 0.99922,0.4464 0.99922,0.9992 z m -4.000423,0 c 0,0.5527 -0.446459,0.9992 -0.999219,0.9992 -0.552761,0 -0.999221,-0.4465 -0.999221,-0.9992 0,-0.5528 0.44646,-0.9992 0.999221,-0.9992 0.55276,0 0.999219,0.4464 0.999219,0.9992 z"
       inkscape:connector-curvature="0"
       style="fill:#fdf7e3;fill-opacity:1;stroke:none;display:inline" />
  </g>
  <g
     inkscape:groupmode="layer"
     id="layer4"
     inkscape:label="Inset"
     sodipodi:insensitive="true"
     style="display:inline">
    <path
       style="opacity:0.15;fill:#000000;fill-opacity:1;stroke:none"
       d="m 2,34 0,3 c 0,4.986 4.014,9 9,9 l 26,0 c 4.986,0 9,-4.014 9,-9 l 0,-3 c 0,4.986 -4.014,9 -9,9 L 11,43 C 6.014,43 2,38.986 2,34 z"
       id="rect3038-42"
       inkscape:connector-curvature="0" />
  </g>
  <g
     inkscape:groupmode="layer"
     id="layer7"
     inkscape:label="Baseshape"
     sodipodi:insensitive="true"
     style="display:none">
    <rect
       rx="9"
       ry="9"
       y="2"
       x="2"
       height="44"
       width="44"
       id="rect4169"
       style="fill:#abe1ad;fill-opacity:1;stroke:none;display:inline" />
  </g>
</svg>
