<?xml version="1.0" encoding="UTF-8" standalone="no"?>
<!-- Created with Inkscape (http://www.inkscape.org/) -->

<svg
   xmlns:dc="http://purl.org/dc/elements/1.1/"
   xmlns:cc="http://creativecommons.org/ns#"
   xmlns:rdf="http://www.w3.org/1999/02/22-rdf-syntax-ns#"
   xmlns:svg="http://www.w3.org/2000/svg"
   xmlns="http://www.w3.org/2000/svg"
   xmlns:xlink="http://www.w3.org/1999/xlink"
   xmlns:sodipodi="http://sodipodi.sourceforge.net/DTD/sodipodi-0.dtd"
   xmlns:inkscape="http://www.inkscape.org/namespaces/inkscape"
   width="48"
   height="48"
   id="svg4230"
   version="1.1"
   inkscape:version="0.48.4 r9939"
   sodipodi:docname="steam_icon_570.svg"
   inkscape:export-filename="/home/c42759/Desktop/dota_2.png"
   inkscape:export-xdpi="240"
   inkscape:export-ydpi="240">
  <defs
     id="defs4232">
    <linearGradient
       id="linearGradient3871">
      <stop
         style="stop-color:#a96931;stop-opacity:1;"
         offset="0"
         id="stop3873" />
      <stop
         style="stop-color:#dfb45e;stop-opacity:1;"
         offset="1"
         id="stop3875" />
    </linearGradient>
    <linearGradient
       id="linearGradient3859">
      <stop
         style="stop-color:#824319;stop-opacity:1;"
         offset="0"
         id="stop3861" />
      <stop
         style="stop-color:#c78c3d;stop-opacity:1;"
         offset="1"
         id="stop3863" />
    </linearGradient>
    <linearGradient
       id="linearGradient3882">
      <stop
         id="stop3884"
         offset="0"
         style="stop-color:#aaaaaa;stop-opacity:1;" />
      <stop
         id="stop3886"
         offset="1"
         style="stop-color:#d6d6d6;stop-opacity:1;" />
    </linearGradient>
    <linearGradient
       id="linearGradient4932">
      <stop
         style="stop-color:#f15336;stop-opacity:1;"
         offset="0"
         id="stop4934" />
      <stop
         style="stop-color:#ee3337;stop-opacity:1;"
         offset="1"
         id="stop4936" />
    </linearGradient>
    <linearGradient
       id="linearGradient4315"
       inkscape:collect="always">
      <stop
         id="stop4317"
         offset="0"
         style="stop-color:#232323;stop-opacity:1" />
      <stop
         id="stop4319"
         offset="1"
         style="stop-color:#010101;stop-opacity:1" />
    </linearGradient>
    <linearGradient
       id="linearGradient4083">
      <stop
         id="stop4085"
         offset="0"
         style="stop-color:#aaa9aa;stop-opacity:1" />
      <stop
         id="stop4087"
         offset="1"
         style="stop-color:#d4d4d2;stop-opacity:1" />
    </linearGradient>
    <linearGradient
       id="linearGradient4243">
      <stop
         style="stop-color:#000000;stop-opacity:1;"
         offset="0"
         id="stop4245" />
      <stop
         style="stop-color:#000000;stop-opacity:0;"
         offset="1"
         id="stop4247" />
    </linearGradient>
    <radialGradient
       inkscape:collect="always"
       xlink:href="#linearGradient4243"
       id="radialGradient4274"
       gradientUnits="userSpaceOnUse"
       gradientTransform="matrix(1.0434782,0,0,0.1956518,-1.0434797,35.184809)"
       cx="24.000001"
       cy="42.499991"
       fx="24.000001"
       fy="42.499991"
       r="23" />
    <linearGradient
       inkscape:collect="always"
       xlink:href="#linearGradient4932"
       id="linearGradient3880"
       x1="26"
       y1="46"
       x2="26"
       y2="2"
       gradientUnits="userSpaceOnUse" />
    <linearGradient
       inkscape:collect="always"
       xlink:href="#linearGradient4315"
       id="linearGradient4294"
       gradientUnits="userSpaceOnUse"
       gradientTransform="matrix(-1,0,0,1,55,11)"
       x1="23"
       y1="43"
       x2="23"
       y2="38" />
    <linearGradient
       inkscape:collect="always"
       xlink:href="#linearGradient4315"
       id="linearGradient4309"
       gradientUnits="userSpaceOnUse"
       gradientTransform="matrix(-1,0,0,1,37,11)"
       x1="23"
       y1="43"
       x2="23"
       y2="38" />
    <linearGradient
       id="linearGradient3951">
      <stop
         id="stop3953"
         offset="0"
         style="stop-color:#d4d4d3;stop-opacity:1;" />
      <stop
         id="stop3955"
         offset="1"
         style="stop-color:#f7f7f7;stop-opacity:1;" />
    </linearGradient>
    <linearGradient
       id="linearGradient4102">
      <stop
         style="stop-color:#e9ba39;stop-opacity:1;"
         offset="0"
         id="stop4104" />
      <stop
         style="stop-color:#f5d34e;stop-opacity:1;"
         offset="1"
         id="stop4106" />
    </linearGradient>
    <linearGradient
       inkscape:collect="always"
       xlink:href="#linearGradient3882-0"
       id="linearGradient3888-4"
       gradientUnits="userSpaceOnUse"
       x1="26"
       y1="46"
       x2="26"
       y2="2" />
    <linearGradient
       id="linearGradient3882-0">
      <stop
         id="stop3884-2"
         offset="0"
         style="stop-color:#aaaaaa;stop-opacity:1;" />
      <stop
         id="stop3886-1"
         offset="1"
         style="stop-color:#d6d6d6;stop-opacity:1;" />
    </linearGradient>
    <linearGradient
       gradientTransform="translate(50,1001.3622)"
       y2="2"
       x2="26"
       y1="46"
       x1="26"
       gradientUnits="userSpaceOnUse"
       id="linearGradient3905"
       xlink:href="#linearGradient3882-0"
       inkscape:collect="always" />
    <linearGradient
       inkscape:collect="always"
       xlink:href="#linearGradient4932-9"
       id="linearGradient3880-3"
       x1="26"
       y1="46"
       x2="26"
       y2="2"
       gradientUnits="userSpaceOnUse" />
    <linearGradient
       id="linearGradient4932-9">
      <stop
         style="stop-color:#2e80a4;stop-opacity:1;"
         offset="0"
         id="stop4934-7" />
      <stop
         style="stop-color:#60afdc;stop-opacity:1;"
         offset="1"
         id="stop4936-2" />
    </linearGradient>
    <linearGradient
       inkscape:collect="always"
       xlink:href="#linearGradient3882-0"
       id="linearGradient3992"
       gradientUnits="userSpaceOnUse"
       gradientTransform="translate(0,-1003.3622)"
       x1="24"
       y1="1050.3622"
       x2="24"
       y2="1034.3622" />
    <linearGradient
       inkscape:collect="always"
       xlink:href="#linearGradient3882-0"
       id="linearGradient3996"
       gradientUnits="userSpaceOnUse"
       gradientTransform="translate(0,2)"
       x1="24"
       y1="1050.3622"
       x2="24"
       y2="1034.3622" />
    <linearGradient
       inkscape:collect="always"
       xlink:href="#linearGradient4932-3"
       id="linearGradient3880-6"
       x1="26"
       y1="46"
       x2="26"
       y2="2"
       gradientUnits="userSpaceOnUse" />
    <linearGradient
       id="linearGradient4932-3">
      <stop
         style="stop-color:#2e80a4;stop-opacity:1;"
         offset="0"
         id="stop4934-0" />
      <stop
         style="stop-color:#60afdc;stop-opacity:1;"
         offset="1"
         id="stop4936-1" />
    </linearGradient>
    <linearGradient
       gradientTransform="translate(0,1004.3622)"
       y2="2"
       x2="26"
       y1="46"
       x1="26"
       gradientUnits="userSpaceOnUse"
       id="linearGradient4023"
       xlink:href="#linearGradient4932-3"
       inkscape:collect="always" />
    <linearGradient
       inkscape:collect="always"
       xlink:href="#linearGradient4932-4"
       id="linearGradient3880-8"
       x1="26"
       y1="46"
       x2="26"
       y2="2"
       gradientUnits="userSpaceOnUse" />
    <linearGradient
       id="linearGradient4932-4">
      <stop
         style="stop-color:#b07237;stop-opacity:1;"
         offset="0"
         id="stop4934-05" />
      <stop
         style="stop-color:#e2ba63;stop-opacity:1;"
         offset="1"
         id="stop4936-6" />
    </linearGradient>
    <linearGradient
       y2="5.9877172"
       x2="48"
       y1="90"
       x1="48"
       gradientTransform="matrix(4.4285714,0,0,4.4285714,43.4286,43.428556)"
       gradientUnits="userSpaceOnUse"
       id="linearGradient4061-1"
       xlink:href="#linearGradient3700-1-7"
       inkscape:collect="always" />
    <linearGradient
       id="linearGradient3700-1-7">
      <stop
         offset="0"
         style="stop-color:#a66836;stop-opacity:1;"
         id="stop3702-8-2" />
      <stop
         offset="1"
         style="stop-color:#c7a151;stop-opacity:1;"
         id="stop3704-1-2" />
    </linearGradient>
    <linearGradient
       y2="5.9877172"
       x2="48"
       y1="90"
       x1="48"
       gradientTransform="matrix(0.41283293,0,0,0.41283293,60.18402,1008.5462)"
       gradientUnits="userSpaceOnUse"
       id="linearGradient3284"
       xlink:href="#linearGradient3700-1-7"
       inkscape:collect="always" />
  </defs>
  <sodipodi:namedview
     id="base"
     pagecolor="#ffffff"
     bordercolor="#666666"
     borderopacity="1.0"
     inkscape:pageopacity="0.0"
     inkscape:pageshadow="2"
     inkscape:zoom="11.313708"
     inkscape:cx="11.102743"
     inkscape:cy="26.309793"
     inkscape:document-units="px"
     inkscape:current-layer="layer2"
     showgrid="true"
     inkscape:showpageshadow="false"
     borderlayer="true"
     inkscape:window-width="1920"
     inkscape:window-height="986"
     inkscape:window-x="0"
     inkscape:window-y="0"
     inkscape:window-maximized="1"
     showguides="false">
    <inkscape:grid
       type="xygrid"
       id="grid4162" />
    <sodipodi:guide
       position="1.0000013,47.000017"
       orientation="46,0"
       id="guide4163" />
    <sodipodi:guide
       position="1.0000013,1.0000174"
       orientation="0,45.999999"
       id="guide4165" />
    <sodipodi:guide
       position="47,1.0000174"
       orientation="-46,0"
       id="guide4167" />
    <sodipodi:guide
       position="47,47.000017"
       orientation="0,-45.999999"
       id="guide4169" />
    <sodipodi:guide
       position="2.0000007,46.000017"
       orientation="44,0"
       id="guide4173" />
    <sodipodi:guide
       position="2.0000007,2.0000174"
       orientation="0,43.999999"
       id="guide4175" />
    <sodipodi:guide
       position="46,2.0000174"
       orientation="-44,0"
       id="guide4177" />
    <sodipodi:guide
       position="46,46.000017"
       orientation="0,-43.999999"
       id="guide4179" />
    <sodipodi:guide
       position="3,45.000017"
       orientation="42,0"
       id="guide4183" />
    <sodipodi:guide
       position="45,45.000017"
       orientation="0,-42"
       id="guide4189" />
    <sodipodi:guide
       position="3,45.000017"
       orientation="42,0"
       id="guide4193" />
    <sodipodi:guide
       position="3,3.0000174"
       orientation="0,42"
       id="guide4195" />
    <sodipodi:guide
       position="45,3.0000174"
       orientation="-42,0"
       id="guide4197" />
    <sodipodi:guide
       position="45,45.000017"
       orientation="0,-42"
       id="guide4199" />
    <sodipodi:guide
       position="3,10.000017"
       orientation="7,0"
       id="guide4203" />
    <sodipodi:guide
       position="3,3.0000174"
       orientation="0,42"
       id="guide4205" />
    <sodipodi:guide
       position="45,3.0000174"
       orientation="-7,0"
       id="guide4207" />
    <sodipodi:guide
       position="45,10.000017"
       orientation="0,-42"
       id="guide4209" />
  </sodipodi:namedview>
  <metadata
     id="metadata4235">
    <rdf:RDF>
      <cc:Work
         rdf:about="">
        <dc:format>image/svg+xml</dc:format>
        <dc:type
           rdf:resource="http://purl.org/dc/dcmitype/StillImage" />
        <dc:title></dc:title>
      </cc:Work>
    </rdf:RDF>
  </metadata>
  <g
     inkscape:groupmode="layer"
     id="layer3"
     inkscape:label="Fake blur shadow"
     style="display:inline"
     sodipodi:insensitive="true">
    <path
       style="opacity:0.06000001;fill:#000000;fill-opacity:1;stroke:none"
       d="M 10,1 C 5.014,1 1,5.014 1,10 l 0,28 c 0,4.986 4.014,9 9,9 l 28,0 c 4.986,0 9,-4.014 9,-9 L 47,10 C 47,5.014 42.986,1 38,1 L 10,1 z m 0.5,0.5 27,0 c 4.986,0 9,4.014 9,9 l 0,27 c 0,4.986 -4.014,9 -9,9 l -27,0 c -4.986,0 -9,-4.014 -9,-9 l 0,-27 c 0,-4.986 4.014,-9 9,-9 z"
       id="rect3829"
       inkscape:connector-curvature="0" />
    <path
       style="opacity:0.12000002;fill:#000000;fill-opacity:1;stroke:none"
       d="m 10.5,1.5 c -4.986,0 -9,4.014 -9,9 l 0,27 c 0,4.986 4.014,9 9,9 l 27,0 c 4.986,0 9,-4.014 9,-9 l 0,-27 c 0,-4.986 -4.014,-9 -9,-9 l -27,0 z m 0.25,0.25 26.5,0 c 4.986,0 9,4.014 9,9 l 0,26.5 c 0,4.986 -4.014,9 -9,9 l -26.5,0 c -4.986,0 -9,-4.014 -9,-9 l 0,-26.5 c 0,-4.986 4.014,-9 9,-9 z"
       id="rect3827"
       inkscape:connector-curvature="0" />
    <rect
       style="opacity:0.23999999;fill:#000000;fill-opacity:1;stroke:none"
       id="rect3038-4"
       width="44.5"
       height="44.5"
       x="1.75"
       y="1.75"
       ry="9"
       rx="9" />
  </g>
  <g
     inkscape:groupmode="layer"
     id="layer6"
     inkscape:label="Blob"
     style="display:inline"
     sodipodi:insensitive="true">
    <path
       style="opacity:0.3;fill:url(#radialGradient4274);fill-opacity:1;stroke:none"
       d="M 1.03125,39 C 1.5192036,43.518898 5.3471961,47 10,47 l 28,0 c 4.652804,0 8.480796,-3.481102 8.96875,-8 l -45.9375,0 z"
       id="rect4241"
       inkscape:connector-curvature="0" />
  </g>
  <g
     inkscape:groupmode="layer"
     id="layer2"
     inkscape:label="Baseplate"
     style="display:inline">
    <rect
       style="fill:url(#linearGradient3880);fill-opacity:1.0;stroke:none"
       id="rect3038"
       width="44"
       height="44"
       x="2"
       y="1.9999826"
       ry="9"
       rx="9" />
    <path
       sodipodi:nodetypes="ssssscssscsssssssssssssssssscccsccsscccsscsscssssscssssssssccscccscsssccsssscsssssscscsssscssscscsssccccssscccsccsccccsssscsscsccssc"
       inkscape:connector-curvature="0"
       id="path3070"
       d="M 9.3336753,8.1536804 C 8.9438018,8.1728666 8.7383667,8.2300169 7.8623897,8.637901 7.4885469,8.8119717 7.0700849,9.0006005 6.9311953,9.0476261 6.6580238,9.1401178 6.1917113,9.2524886 6.0744971,9.2524886 c -0.039989,0 -0.074495,0.00602 -0.074495,0.018625 0,0.012563 0.055306,0.1311468 0.1117432,0.279358 0.1011173,0.2653104 0.097673,0.2763014 0.5400923,0.7077074 0.2471528,0.240998 0.8993341,0.894147 1.4340388,1.452662 1.0036631,1.048351 2.4767436,2.569702 3.5944086,3.687527 0.410171,0.410231 0.740485,0.775438 0.912569,1.005689 0.35085,0.469458 1.033664,1.181175 2.309361,2.421104 1.091502,1.060902 2.774498,2.779171 3.147435,3.203308 0.331093,0.376546 0.799998,0.875976 1.676151,1.806515 0.434518,0.461493 0.981463,1.05002 1.210552,1.303672 0.261574,0.289619 0.566261,0.573819 0.800828,0.763579 0.463212,0.374738 1.068723,1.006734 2.030001,2.085874 0.484692,0.544119 1.787649,1.907193 1.992755,2.085874 0.110838,0.09655 0.325195,0.264108 0.484221,0.372478 0.467772,0.318768 0.691062,0.540324 0.838075,0.838073 0.141213,0.286006 0.28608,0.452288 0.838074,1.042938 0.20857,0.223175 0.627032,0.686941 0.931194,1.024313 0.888493,0.985499 0.960884,1.06057 1.694772,1.806516 0.384744,0.391065 0.969557,1.030909 1.303672,1.415415 0.640758,0.737397 1.119358,1.225363 1.378167,1.396791 0.376841,0.249609 1.305776,0.397592 3.631656,0.57734 1.244469,0.09618 1.470583,0.09638 1.750644,0.05586 0.259328,-0.03751 0.463171,-0.141607 0.614589,-0.316605 0.164289,-0.189873 1.003752,-1.871699 1.247799,-2.4956 0.13085,-0.334516 0.239202,-0.673903 0.316606,-0.949818 0.0366,-0.130356 0.10595,-0.355109 0.148991,-0.502844 0.124116,-0.425964 0.317763,-1.107023 0.372477,-1.34092 0.03159,-0.134991 0.0876,-0.339644 0.279359,-0.968441 0.06625,-0.217259 0.139801,-0.492923 0.167615,-0.614588 0.02783,-0.121666 0.05889,-0.274398 0.0745,-0.33523 0.01561,-0.06084 0.045,-0.193698 0.05584,-0.297982 0.01085,-0.104284 0.02175,-0.257017 0.03725,-0.33523 0.01549,-0.07821 0.04541,-0.261989 0.05584,-0.409725 l 0.01872,-0.260735 -0.242109,-0.130366 c -0.135168,-0.06889 -0.476345,-0.304613 -0.763582,-0.521465 -0.287235,-0.216852 -0.724935,-0.542696 -0.968441,-0.726331 -0.243504,-0.183635 -0.599873,-0.428641 -0.782203,-0.540093 -0.182323,-0.111453 -0.468886,-0.307159 -0.633212,-0.446973 -0.342077,-0.291054 -0.472457,-0.372478 -0.633211,-0.372478 -0.06269,0 -0.184951,-0.02785 -0.279358,-0.05586 -0.378366,-0.112325 -0.651294,-0.286351 -1.266424,-0.856699 -0.445347,-0.412929 -0.72545,-0.626035 -1.061561,-0.782203 -0.172377,-0.08009 -0.682718,-0.394325 -1.285048,-0.800827 -1.36322,-0.920012 -1.346599,-0.919447 -1.601653,-1.080184 -0.12411,-0.07822 -0.353311,-0.244404 -0.502845,-0.372478 -0.149546,-0.128072 -0.309831,-0.25166 -0.353867,-0.279357 -0.310498,-0.19528 -2.06632,-1.370422 -2.30936,-1.545782 -0.267201,-0.192795 -0.861747,-0.57734 -0.893947,-0.57734 -0.0067,0 -0.215816,-0.119273 -0.465597,-0.260734 -0.560301,-0.31732 -0.931766,-0.562562 -1.322295,-0.875322 -0.165194,-0.132298 -0.563788,-0.429098 -0.893946,-0.651836 -0.330152,-0.222739 -0.962273,-0.635902 -1.396791,-0.931193 -0.434522,-0.295294 -1.015648,-0.692726 -1.285047,-0.875323 -0.2694,-0.182598 -0.689108,-0.474333 -0.949817,-0.651836 -0.260711,-0.177502 -0.749956,-0.502188 -1.080186,-0.726331 -0.330182,-0.224145 -0.67792,-0.466958 -0.782202,-0.540093 -0.104288,-0.07313 -0.368771,-0.245566 -0.577341,-0.372477 -0.208571,-0.12691 -0.490344,-0.322835 -0.633214,-0.428349 -0.142877,-0.105515 -0.368532,-0.247083 -0.48422,-0.316606 -0.115684,-0.06952 -0.320784,-0.209693 -0.465597,-0.316606 -0.144808,-0.106912 -0.326435,-0.212483 -0.409726,-0.24211 -0.08329,-0.02963 -0.18873,-0.07897 -0.223486,-0.09312 -0.03474,-0.01415 -0.187496,-0.0572 -0.33523,-0.111743 -0.360999,-0.133266 -0.508465,-0.231733 -0.651835,-0.409727 -0.200996,-0.249529 -0.275396,-0.289933 -0.893947,-0.521468 -0.685222,-0.256489 -1.138977,-0.696018 -1.210553,-1.173304 -0.0109,-0.07294 -0.04588,-0.160873 -0.0745,-0.186239 -0.0286,-0.02536 -0.525244,-0.337641 -1.098804,-0.689087 C 12.615283,9.9626 12.044088,9.614019 11.922422,9.5318425 11.800755,9.4496685 11.576005,9.3169256 11.419576,9.2338596 11.056253,9.0409293 10.900588,8.9210666 10.655998,8.6937675 10.386175,8.4430152 10.112968,8.2692251 9.8551722,8.190923 9.678397,8.1372323 9.5840203,8.1413553 9.3337029,8.1536732 z M 35.38848,8.4144145 c -0.02032,0 -0.138918,0.051568 -0.260733,0.1117432 -0.308395,0.1523465 -0.680985,0.263803 -1.266424,0.3911013 -0.18519,0.040271 -0.831817,0.2155537 -1.210553,0.3166057 -0.104287,0.02783 -0.37995,0.087685 -0.614587,0.148991 -0.234643,0.061304 -0.521481,0.1513596 -0.651836,0.1862397 -0.130354,0.034882 -0.36504,0.089522 -0.521468,0.1303666 -0.613724,0.160268 -1.04553,0.27279 -1.136057,0.297982 -0.134503,0.03742 -0.679399,0.181979 -0.987066,0.260733 -0.143394,0.03671 -0.260734,0.07706 -0.260734,0.09312 0,0.08467 0.218248,0.343032 0.42835,0.484221 0.130355,0.0876 0.363883,0.261042 0.502843,0.391102 0.246557,0.230761 0.393814,0.344247 0.707708,0.521468 0.08486,0.04791 0.31955,0.23247 0.521469,0.409726 0.735402,0.645585 1.217894,1.018975 1.694773,1.340919 0.567042,0.382812 0.882039,0.639481 1.247799,0.949818 0.260145,0.22072 1.969198,1.378676 2.272113,1.545781 0.0861,0.0475 0.279817,0.213359 0.42835,0.353854 0.148531,0.140495 0.316773,0.288375 0.391101,0.335229 0.234488,0.14782 0.678707,0.21227 0.838075,0.130368 0.20668,-0.106216 0.267879,-0.344401 0.297982,-1.136056 0.03444,-0.905708 0.120981,-1.481361 0.372477,-2.272113 0.128967,-0.405485 0.257844,-0.832262 0.316606,-1.154681 0.04547,-0.249602 0.07215,-0.9869 0.0745,-1.545782 l 0.01859,-0.48422 -0.24211,-0.09311 C 38.223636,10.069435 37.810764,9.801593 37.437077,9.5504807 36.928469,9.2087012 36.600582,9.0219502 36.096156,8.7682772 35.725551,8.5818977 35.408754,8.4144237 35.388449,8.4144237 z M 9.5385379,28.155723 c -0.012573,0.01307 -0.1159091,0.232201 -0.2234865,0.484221 -0.1075834,0.252021 -0.2115787,0.526441 -0.2421102,0.595965 -0.030514,0.06952 -0.2439218,0.540139 -0.4655967,1.06156 -0.221675,0.521422 -0.5042926,1.208652 -0.6332116,1.508535 -0.128925,0.299881 -0.3159087,0.739453 -0.4097261,0.987065 -0.202603,0.53472 -0.4016618,1.004139 -0.5959638,1.415415 -0.2550609,0.539892 -0.2799244,0.645615 -0.2979818,1.098809 -0.029259,0.734032 0.039332,0.863895 0.5400921,1.117432 0.1904464,0.09643 0.3578051,0.225904 0.4469729,0.316606 0.07848,0.07982 0.1964604,0.195942 0.2607351,0.260734 0.064264,0.06479 0.2380282,0.169747 0.3724774,0.24211 0.18516,0.09966 0.3828287,0.274252 0.8566979,0.707708 0.6998407,0.640157 0.8740894,0.779939 1.0801844,0.91257 0.139527,0.08979 0.165089,0.09453 0.707707,0.111743 0.979079,0.03105 1.784113,0.03242 2.06725,0 0.473702,-0.05427 0.816489,-0.16739 1.396791,-0.446973 0.587448,-0.283028 0.848671,-0.350991 1.527158,-0.446973 0.609069,-0.08616 1.035542,-0.237145 1.359543,-0.465598 0.04565,-0.03219 0.29027,-0.1243 0.540092,-0.204862 0.82022,-0.2645 0.994826,-0.321244 1.005689,-0.353854 0.02015,-0.06044 -0.214922,-0.37564 -0.446973,-0.595963 C 18.112655,36.203514 17.469704,35.623095 16.13139,34.413346 14.743515,33.1588 14.199149,32.645535 12.592852,31.042425 10.477658,28.931426 9.6000418,28.091733 9.5385379,28.155723 z"
       style="fill:#000000;stroke:none;opacity:0.25" />
    <path
       style="fill:#ffffff;stroke:none"
       d="M 9.3336753,7.1536804 C 8.9438018,7.1728666 8.7383667,7.2300169 7.8623897,7.637901 7.4885469,7.8119717 7.0700849,8.0006005 6.9311953,8.0476261 6.6580238,8.1401178 6.1917113,8.2524886 6.0744971,8.2524886 c -0.039989,0 -0.074495,0.00602 -0.074495,0.018625 0,0.012563 0.055306,0.1311468 0.1117432,0.279358 0.1011173,0.2653104 0.097673,0.2763014 0.5400923,0.7077074 0.2471528,0.240998 0.8993341,0.894147 1.4340388,1.452662 1.0036631,1.048351 2.4767436,2.569702 3.5944086,3.687527 0.410171,0.410231 0.740485,0.775438 0.912569,1.005689 0.35085,0.469458 1.033664,1.181175 2.309361,2.421104 1.091502,1.060902 2.774498,2.779171 3.147435,3.203308 0.331093,0.376546 0.799998,0.875976 1.676151,1.806515 0.434518,0.461493 0.981463,1.05002 1.210552,1.303672 0.261574,0.289619 0.566261,0.573819 0.800828,0.763579 0.463212,0.374738 1.068723,1.006734 2.030001,2.085874 0.484692,0.544119 1.787649,1.907193 1.992755,2.085874 0.110838,0.09655 0.325195,0.264108 0.484221,0.372478 0.467772,0.318768 0.691062,0.540324 0.838075,0.838073 0.141213,0.286006 0.28608,0.452288 0.838074,1.042938 0.20857,0.223175 0.627032,0.686941 0.931194,1.024313 0.888493,0.985499 0.960884,1.06057 1.694772,1.806516 0.384744,0.391065 0.969557,1.030909 1.303672,1.415415 0.640758,0.737397 1.119358,1.225363 1.378167,1.396791 0.376841,0.249609 1.305776,0.397592 3.631656,0.57734 1.244469,0.09618 1.470583,0.09638 1.750644,0.05586 0.259328,-0.03751 0.463171,-0.141607 0.614589,-0.316605 0.164289,-0.189873 1.003752,-1.871699 1.247799,-2.4956 0.13085,-0.334516 0.239202,-0.673903 0.316606,-0.949818 0.0366,-0.130356 0.10595,-0.355109 0.148991,-0.502844 0.124116,-0.425964 0.317763,-1.107023 0.372477,-1.34092 0.03159,-0.134991 0.0876,-0.339644 0.279359,-0.968441 0.06625,-0.217259 0.139801,-0.492923 0.167615,-0.614588 0.02783,-0.121666 0.05889,-0.274398 0.0745,-0.33523 0.01561,-0.06084 0.045,-0.193698 0.05584,-0.297982 0.01085,-0.104284 0.02175,-0.257017 0.03725,-0.33523 0.01549,-0.07821 0.04541,-0.261989 0.05584,-0.409725 l 0.01872,-0.260735 -0.242109,-0.130366 c -0.135168,-0.06889 -0.476345,-0.304613 -0.763582,-0.521465 -0.287235,-0.216852 -0.724935,-0.542696 -0.968441,-0.726331 -0.243504,-0.183635 -0.599873,-0.428641 -0.782203,-0.540093 -0.182323,-0.111453 -0.468886,-0.307159 -0.633212,-0.446973 -0.342077,-0.291054 -0.472457,-0.372478 -0.633211,-0.372478 -0.06269,0 -0.184951,-0.02785 -0.279358,-0.05586 -0.378366,-0.112325 -0.651294,-0.286351 -1.266424,-0.856699 -0.445347,-0.412929 -0.72545,-0.626035 -1.061561,-0.782203 -0.172377,-0.08009 -0.682718,-0.394325 -1.285048,-0.800827 -1.36322,-0.920012 -1.346599,-0.919447 -1.601653,-1.080184 -0.12411,-0.07822 -0.353311,-0.244404 -0.502845,-0.372478 -0.149546,-0.128072 -0.309831,-0.25166 -0.353867,-0.279357 -0.310498,-0.19528 -2.06632,-1.370422 -2.30936,-1.545782 -0.267201,-0.192795 -0.861747,-0.57734 -0.893947,-0.57734 -0.0067,0 -0.215816,-0.119273 -0.465597,-0.260734 -0.560301,-0.31732 -0.931766,-0.562562 -1.322295,-0.875322 -0.165194,-0.132298 -0.563788,-0.429098 -0.893946,-0.651836 -0.330152,-0.222739 -0.962273,-0.635902 -1.396791,-0.931193 -0.434522,-0.295294 -1.015648,-0.692726 -1.285047,-0.875323 -0.2694,-0.182598 -0.689108,-0.474333 -0.949817,-0.651836 -0.260711,-0.177502 -0.749956,-0.502188 -1.080186,-0.726331 -0.330182,-0.224145 -0.67792,-0.466958 -0.782202,-0.540093 -0.104288,-0.07313 -0.368771,-0.245566 -0.577341,-0.372477 -0.208571,-0.12691 -0.490344,-0.322835 -0.633214,-0.428349 -0.142877,-0.105515 -0.368532,-0.247083 -0.48422,-0.316606 -0.115684,-0.06952 -0.320784,-0.209693 -0.465597,-0.316606 -0.144808,-0.106912 -0.326435,-0.212483 -0.409726,-0.24211 -0.08329,-0.02963 -0.18873,-0.07897 -0.223486,-0.09312 -0.03474,-0.01415 -0.187496,-0.0572 -0.33523,-0.111743 -0.360999,-0.133266 -0.508465,-0.231733 -0.651835,-0.409727 -0.200996,-0.249529 -0.275396,-0.289933 -0.893947,-0.521468 -0.685222,-0.256489 -1.138977,-0.696018 -1.210553,-1.173304 -0.0109,-0.07294 -0.04588,-0.160873 -0.0745,-0.186239 C 14.259047,9.977776 13.762403,9.665495 13.188843,9.314049 12.615283,8.9626 12.044088,8.614019 11.922422,8.5318425 11.800755,8.4496685 11.576005,8.3169256 11.419576,8.2338596 11.056253,8.0409293 10.900588,7.9210666 10.655998,7.6937675 10.386175,7.4430152 10.112968,7.2692251 9.8551722,7.190923 9.678397,7.1372323 9.5840203,7.1413553 9.3337029,7.1536732 z M 35.38848,7.4144145 c -0.02032,0 -0.138918,0.051568 -0.260733,0.1117432 -0.308395,0.1523465 -0.680985,0.263803 -1.266424,0.3911013 -0.18519,0.040271 -0.831817,0.2155537 -1.210553,0.3166057 -0.104287,0.02783 -0.37995,0.087685 -0.614587,0.148991 -0.234643,0.061304 -0.521481,0.1513596 -0.651836,0.1862397 -0.130354,0.034882 -0.36504,0.089522 -0.521468,0.1303666 -0.613724,0.160268 -1.04553,0.27279 -1.136057,0.297982 -0.134503,0.03742 -0.679399,0.181979 -0.987066,0.260733 -0.143394,0.03671 -0.260734,0.07706 -0.260734,0.09312 0,0.08467 0.218248,0.343032 0.42835,0.484221 0.130355,0.0876 0.363883,0.261042 0.502843,0.391102 0.246557,0.230761 0.393814,0.344247 0.707708,0.521468 0.08486,0.04791 0.31955,0.23247 0.521469,0.409726 0.735402,0.645585 1.217894,1.018975 1.694773,1.340919 0.567042,0.382812 0.882039,0.639481 1.247799,0.949818 0.260145,0.22072 1.969198,1.378676 2.272113,1.545781 0.0861,0.0475 0.279817,0.213359 0.42835,0.353854 0.148531,0.140495 0.316773,0.288375 0.391101,0.335229 0.234488,0.14782 0.678707,0.21227 0.838075,0.130368 0.20668,-0.106216 0.267879,-0.344401 0.297982,-1.136056 0.03444,-0.905708 0.120981,-1.481361 0.372477,-2.272113 0.128967,-0.405485 0.257844,-0.832262 0.316606,-1.154681 0.04547,-0.249602 0.07215,-0.9869 0.0745,-1.545782 l 0.01859,-0.48422 -0.24211,-0.09311 C 38.223636,9.069435 37.810764,8.801593 37.437077,8.5504807 36.928469,8.2087012 36.600582,8.0219502 36.096156,7.7682772 35.725551,7.5818977 35.408754,7.4144237 35.388449,7.4144237 z M 9.5385379,27.155723 c -0.012573,0.01307 -0.1159091,0.232201 -0.2234865,0.484221 -0.1075834,0.252021 -0.2115787,0.526441 -0.2421102,0.595965 -0.030514,0.06952 -0.2439218,0.540139 -0.4655967,1.06156 -0.221675,0.521422 -0.5042926,1.208652 -0.6332116,1.508535 -0.128925,0.299881 -0.3159087,0.739453 -0.4097261,0.987065 -0.202603,0.53472 -0.4016618,1.004139 -0.5959638,1.415415 -0.2550609,0.539892 -0.2799244,0.645615 -0.2979818,1.098809 -0.029259,0.734032 0.039332,0.863895 0.5400921,1.117432 0.1904464,0.09643 0.3578051,0.225904 0.4469729,0.316606 0.07848,0.07982 0.1964604,0.195942 0.2607351,0.260734 0.064264,0.06479 0.2380282,0.169747 0.3724774,0.24211 0.18516,0.09966 0.3828287,0.274252 0.8566979,0.707708 0.6998407,0.640157 0.8740894,0.779939 1.0801844,0.91257 0.139527,0.08979 0.165089,0.09453 0.707707,0.111743 0.979079,0.03105 1.784113,0.03242 2.06725,0 0.473702,-0.05427 0.816489,-0.16739 1.396791,-0.446973 0.587448,-0.283028 0.848671,-0.350991 1.527158,-0.446973 0.609069,-0.08616 1.035542,-0.237145 1.359543,-0.465598 0.04565,-0.03219 0.29027,-0.1243 0.540092,-0.204862 0.82022,-0.2645 0.994826,-0.321244 1.005689,-0.353854 0.02015,-0.06044 -0.214922,-0.37564 -0.446973,-0.595963 C 18.112655,35.203514 17.469704,34.623095 16.13139,33.413346 14.743515,32.1588 14.199149,31.645535 12.592852,30.042425 10.477658,27.931426 9.6000418,27.091733 9.5385379,27.155723 z"
       id="rect3885"
       inkscape:connector-curvature="0"
       sodipodi:nodetypes="ssssscssscsssssssssssssssssscccsccsscccsscsscssssscssssssssccscccscsssccsssscsssssscscsssscssscscsssccccssscccsccsccccsssscsscsccssc" />
  </g>
  <g
     inkscape:label="Symbol"
     inkscape:groupmode="layer"
     id="layer1"
     transform="translate(0,-1004.3622)"
     style="display:inline" />
  <g
     inkscape:groupmode="layer"
     id="layer4"
     inkscape:label="Inset"
     style="display:inline"
     sodipodi:insensitive="true">
    <path
       style="opacity:0.15;fill:#000000;fill-opacity:1;stroke:none"
       d="m 2,34 0,3 c 0,4.986 4.014,9 9,9 l 26,0 c 4.986,0 9,-4.014 9,-9 l 0,-3 c 0,4.986 -4.014,9 -9,9 L 11,43 C 6.014,43 2,38.986 2,34 z"
       id="rect3038-42"
       inkscape:connector-curvature="0" />
  </g>
  <g
     inkscape:groupmode="layer"
     id="layer7"
     inkscape:label="Baseshape"
     sodipodi:insensitive="true"
     style="display:none">
    <rect
       rx="9"
       ry="9"
       y="2"
       x="2"
       height="44"
       width="44"
       id="rect4169"
       style="fill:#abe1ad;fill-opacity:1;stroke:none;display:inline" />
  </g>
</svg>
