<?xml version="1.0" encoding="UTF-8" standalone="no"?>
<!-- Created with Inkscape (http://www.inkscape.org/) -->

<svg
   xmlns:dc="http://purl.org/dc/elements/1.1/"
   xmlns:cc="http://creativecommons.org/ns#"
   xmlns:rdf="http://www.w3.org/1999/02/22-rdf-syntax-ns#"
   xmlns:svg="http://www.w3.org/2000/svg"
   xmlns="http://www.w3.org/2000/svg"
   xmlns:xlink="http://www.w3.org/1999/xlink"
   xmlns:sodipodi="http://sodipodi.sourceforge.net/DTD/sodipodi-0.dtd"
   xmlns:inkscape="http://www.inkscape.org/namespaces/inkscape"
   width="48"
   height="48"
   id="svg4230"
   version="1.1"
   inkscape:version="0.48.5 r"
   sodipodi:docname="system-help.svg">
  <defs
     id="defs4232">
    <linearGradient
       id="linearGradient3796">
      <stop
         style="stop-color:#f7f7f7;stop-opacity:1;"
         offset="0"
         id="stop3798" />
      <stop
         style="stop-color:#ececec;stop-opacity:1;"
         offset="1"
         id="stop3800" />
    </linearGradient>
    <linearGradient
       id="linearGradient4524">
      <stop
         style="stop-color:#1c6aba;stop-opacity:1;"
         offset="0"
         id="stop4526" />
      <stop
         style="stop-color:#4194eb;stop-opacity:1;"
         offset="1"
         id="stop4528" />
    </linearGradient>
    <linearGradient
       id="linearGradient4243">
      <stop
         style="stop-color:#000000;stop-opacity:1;"
         offset="0"
         id="stop4245" />
      <stop
         style="stop-color:#000000;stop-opacity:0;"
         offset="1"
         id="stop4247" />
    </linearGradient>
    <radialGradient
       inkscape:collect="always"
       xlink:href="#linearGradient4243"
       id="radialGradient4274"
       gradientUnits="userSpaceOnUse"
       gradientTransform="matrix(1.0434782,0,0,0.1956518,-1.0434797,35.184809)"
       cx="24.000001"
       cy="42.499991"
       fx="24.000001"
       fy="42.499991"
       r="23" />
    <linearGradient
       inkscape:collect="always"
       xlink:href="#linearGradient4524"
       id="linearGradient4530"
       x1="24"
       y1="46"
       x2="24"
       y2="2"
       gradientUnits="userSpaceOnUse" />
    <linearGradient
       id="linearGradient3068-1">
      <stop
         style="stop-color:#dfdfdf;stop-opacity:1;"
         offset="0"
         id="stop3070-5" />
      <stop
         style="stop-color:#ffffff;stop-opacity:1;"
         offset="1"
         id="stop3072-7" />
    </linearGradient>
    <linearGradient
       inkscape:collect="always"
       xlink:href="#linearGradient3068-1"
       id="linearGradient4245"
       x1="24.230993"
       y1="1043.1351"
       x2="24.230993"
       y2="1010.4795"
       gradientUnits="userSpaceOnUse" />
    <linearGradient
       inkscape:collect="always"
       xlink:href="#linearGradient3796"
       id="linearGradient3802"
       x1="24"
       y1="1015.3622"
       x2="24"
       y2="1039.3622"
       gradientUnits="userSpaceOnUse" />
  </defs>
  <sodipodi:namedview
     id="base"
     pagecolor="#ffffff"
     bordercolor="#666666"
     borderopacity="1.0"
     inkscape:pageopacity="0.0"
     inkscape:pageshadow="2"
     inkscape:zoom="13.373213"
     inkscape:cx="10.94403"
     inkscape:cy="23.118946"
     inkscape:document-units="px"
     inkscape:current-layer="layer1"
     showgrid="true"
     inkscape:showpageshadow="false"
     borderlayer="true"
     inkscape:window-width="1366"
     inkscape:window-height="736"
     inkscape:window-x="0"
     inkscape:window-y="32"
     inkscape:window-maximized="1"
     showguides="true"
     inkscape:guide-bbox="true">
    <inkscape:grid
       type="xygrid"
       id="grid4162" />
  </sodipodi:namedview>
  <metadata
     id="metadata4235">
    <rdf:RDF>
      <cc:Work
         rdf:about="">
        <dc:format>image/svg+xml</dc:format>
        <dc:type
           rdf:resource="http://purl.org/dc/dcmitype/StillImage" />
        <dc:title />
      </cc:Work>
    </rdf:RDF>
  </metadata>
  <g
     inkscape:groupmode="layer"
     id="layer3"
     inkscape:label="Fake blur shadow"
     style="display:inline"
     sodipodi:insensitive="true">
    <path
       style="opacity:0.06000001;fill:#000000;fill-opacity:1;stroke:none"
       d="M 10,1 C 5.014,1 1,5.014 1,10 l 0,28 c 0,4.986 4.014,9 9,9 l 28,0 c 4.986,0 9,-4.014 9,-9 L 47,10 C 47,5.014 42.986,1 38,1 L 10,1 z m 0.5,0.5 27,0 c 4.986,0 9,4.014 9,9 l 0,27 c 0,4.986 -4.014,9 -9,9 l -27,0 c -4.986,0 -9,-4.014 -9,-9 l 0,-27 c 0,-4.986 4.014,-9 9,-9 z"
       id="rect3829"
       inkscape:connector-curvature="0" />
    <path
       style="opacity:0.12000002;fill:#000000;fill-opacity:1;stroke:none"
       d="m 10.5,1.5 c -4.986,0 -9,4.014 -9,9 l 0,27 c 0,4.986 4.014,9 9,9 l 27,0 c 4.986,0 9,-4.014 9,-9 l 0,-27 c 0,-4.986 -4.014,-9 -9,-9 l -27,0 z m 0.25,0.25 26.5,0 c 4.986,0 9,4.014 9,9 l 0,26.5 c 0,4.986 -4.014,9 -9,9 l -26.5,0 c -4.986,0 -9,-4.014 -9,-9 l 0,-26.5 c 0,-4.986 4.014,-9 9,-9 z"
       id="rect3827"
       inkscape:connector-curvature="0" />
    <rect
       style="opacity:0.23999999;fill:#000000;fill-opacity:1;stroke:none"
       id="rect3038-4"
       width="44.5"
       height="44.5"
       x="1.75"
       y="1.75"
       ry="9"
       rx="9" />
  </g>
  <g
     inkscape:groupmode="layer"
     id="layer6"
     inkscape:label="Blob"
     style="display:inline"
     sodipodi:insensitive="true">
    <path
       style="opacity:0.3;fill:url(#radialGradient4274);fill-opacity:1;stroke:none"
       d="M 1.03125,39 C 1.5192036,43.518898 5.3471961,47 10,47 l 28,0 c 4.652804,0 8.480796,-3.481102 8.96875,-8 l -45.9375,0 z"
       id="rect4241"
       inkscape:connector-curvature="0" />
  </g>
  <g
     inkscape:groupmode="layer"
     id="layer2"
     inkscape:label="Baseplate"
     style="display:inline">
    <rect
       style="fill:url(#linearGradient4530);fill-opacity:1;stroke:none"
       id="rect3038"
       width="44"
       height="44"
       x="2"
       y="1.9999826"
       ry="9"
       rx="9" />
  </g>
  <g
     inkscape:label="Symbol"
     inkscape:groupmode="layer"
     id="layer1"
     transform="translate(0,-1004.3622)"
     style="display:inline">
    <path
       d="m 23,1017.642 c -0.972229,0 -1.902783,0.1246 -2.791667,0.3739 -0.888892,0.2216 -1.819448,0.5956 -2.791666,1.1219 L 16,1015.2736 c 1.027776,-0.5818 2.194442,-1.0388 3.5,-1.3712 1.333328,-0.3602 2.694438,-0.5402 4.083334,-0.5402 1.666656,0 3.041655,0.2355 4.125,0.7064 1.08332,0.4432 1.94443,1.011 2.583333,1.7036 0.638873,0.6925 1.083318,1.4543 1.333333,2.2853 0.249984,0.831 0.374984,1.6343 0.375001,2.41 -1.7e-5,0.9418 -0.180572,1.7867 -0.541667,2.5346 -0.333349,0.7479 -0.763904,1.4405 -1.291667,2.0776 -0.527792,0.637 -1.097236,1.2465 -1.708333,1.8282 -0.611124,0.554 -1.180568,1.1357 -1.708334,1.7452 -0.527788,0.5817 -0.972232,1.2049 -1.333333,1.8698 -0.333343,0.6648 -0.500009,1.4127 -0.5,2.2437 -9e-6,0.1385 -9e-6,0.3047 0,0.4986 -9e-6,0.1663 0.01387,0.3325 0.04167,0.4987 l -4.333334,0 c -0.05556,-0.2771 -0.09723,-0.5679 -0.125,-0.8726 -0.02778,-0.3324 -0.04168,-0.6371 -0.04167,-0.9141 -5e-6,-0.9142 0.152773,-1.7314 0.458334,-2.4516 0.30555,-0.7202 0.694438,-1.385 1.166667,-1.9944 0.472214,-0.6095 0.972214,-1.1773 1.5,-1.7036 0.555546,-0.5264 1.069435,-1.0526 1.541666,-1.579 0.472212,-0.5263 0.8611,-1.0665 1.166667,-1.6205 0.305545,-0.554 0.458322,-1.1634 0.458333,-1.8282 -1.1e-5,-0.9142 -0.319455,-1.6621 -0.958333,-2.2438 C 25.180546,1017.9467 24.249991,1017.642 23,1017.642 m 3.25,22.4377 c -10e-6,0.9694 -0.319455,1.7589 -0.958333,2.3684 -0.638898,0.6093 -1.430565,0.9141 -2.375,0.9141 -0.916673,0 -1.70834,-0.3048 -2.375,-0.9141 -0.638894,-0.6095 -0.958338,-1.399 -0.958334,-2.3684 -4e-6,-0.9695 0.31944,-1.759 0.958334,-2.3685 0.66666,-0.6371 1.458327,-0.9556 2.375,-0.9556 0.944435,0 1.736102,0.3185 2.375,0.9556 0.638878,0.6095 0.958323,1.399 0.958333,2.3685"
       id="path3016"
       inkscape:connector-curvature="0"
       style="font-size:40px;font-style:normal;font-variant:normal;font-weight:500;font-stretch:normal;line-height:125%;letter-spacing:0px;word-spacing:0px;fill:#000000;fill-opacity:1;stroke:none;font-family:Ubuntu;-inkscape-font-specification:Ubuntu Medium;opacity:0.15" />
    <path
       style="font-size:40px;font-style:normal;font-variant:normal;font-weight:500;font-stretch:normal;line-height:125%;letter-spacing:0px;word-spacing:0px;fill:#ffffff;fill-opacity:1;stroke:none;font-family:Ubuntu;-inkscape-font-specification:Ubuntu Medium"
       inkscape:connector-curvature="0"
       id="path3167"
       d="m 23,1016.642 c -0.972229,0 -1.902783,0.1246 -2.791667,0.3739 -0.888892,0.2216 -1.819448,0.5956 -2.791666,1.1219 L 16,1014.2736 c 1.027776,-0.5818 2.194442,-1.0388 3.5,-1.3712 1.333328,-0.3602 2.694438,-0.5402 4.083334,-0.5402 1.666656,0 3.041655,0.2355 4.125,0.7064 1.08332,0.4432 1.94443,1.011 2.583333,1.7036 0.638873,0.6925 1.083318,1.4543 1.333333,2.2853 0.249984,0.831 0.374984,1.6343 0.375001,2.41 -1.7e-5,0.9418 -0.180572,1.7867 -0.541667,2.5346 -0.333349,0.7479 -0.763904,1.4405 -1.291667,2.0776 -0.527792,0.637 -1.097236,1.2465 -1.708333,1.8282 -0.611124,0.554 -1.180568,1.1357 -1.708334,1.7452 -0.527788,0.5817 -0.972232,1.2049 -1.333333,1.8698 -0.333343,0.6648 -0.500009,1.4127 -0.5,2.2437 -9e-6,0.1385 -9e-6,0.3047 0,0.4986 -9e-6,0.1663 0.01387,0.3325 0.04167,0.4987 l -4.333334,0 c -0.05556,-0.2771 -0.09723,-0.5679 -0.125,-0.8726 -0.02778,-0.3324 -0.04168,-0.6371 -0.04167,-0.9141 -5e-6,-0.9142 0.152773,-1.7314 0.458334,-2.4516 0.30555,-0.7202 0.694438,-1.385 1.166667,-1.9944 0.472214,-0.6095 0.972214,-1.1773 1.5,-1.7036 0.555546,-0.5264 1.069435,-1.0526 1.541666,-1.579 0.472212,-0.5263 0.8611,-1.0665 1.166667,-1.6205 0.305545,-0.554 0.458322,-1.1634 0.458333,-1.8282 -1.1e-5,-0.9142 -0.319455,-1.6621 -0.958333,-2.2438 C 25.180546,1016.9467 24.249991,1016.642 23,1016.642 m 3.25,22.4377 c -10e-6,0.9694 -0.319455,1.7589 -0.958333,2.3684 -0.638898,0.6093 -1.430565,0.9141 -2.375,0.9141 -0.916673,0 -1.70834,-0.3048 -2.375,-0.9141 -0.638894,-0.6095 -0.958338,-1.399 -0.958334,-2.3684 -4e-6,-0.9695 0.31944,-1.759 0.958334,-2.3685 0.66666,-0.6371 1.458327,-0.9556 2.375,-0.9556 0.944435,0 1.736102,0.3185 2.375,0.9556 0.638878,0.6095 0.958323,1.399 0.958333,2.3685" />
  </g>
  <g
     inkscape:groupmode="layer"
     id="layer4"
     inkscape:label="Inset"
     style="display:inline"
     sodipodi:insensitive="true">
    <path
       style="opacity:0.15;fill:#000000;fill-opacity:1;stroke:none"
       d="m 2,34 0,3 c 0,4.986 4.014,9 9,9 l 26,0 c 4.986,0 9,-4.014 9,-9 l 0,-3 c 0,4.986 -4.014,9 -9,9 L 11,43 C 6.014,43 2,38.986 2,34 Z"
       id="rect3038-42"
       inkscape:connector-curvature="0" />
  </g>
  <g
     inkscape:groupmode="layer"
     id="layer7"
     inkscape:label="Baseshape"
     sodipodi:insensitive="true"
     style="display:none">
    <rect
       rx="9"
       ry="9"
       y="2"
       x="2"
       height="44"
       width="44"
       id="rect4169"
       style="fill:#abe1ad;fill-opacity:1;stroke:none;display:inline" />
  </g>
</svg>
