<?xml version="1.0" encoding="UTF-8" standalone="no"?>
<!-- Created with Inkscape (http://www.inkscape.org/) -->

<svg
   xmlns:dc="http://purl.org/dc/elements/1.1/"
   xmlns:cc="http://creativecommons.org/ns#"
   xmlns:rdf="http://www.w3.org/1999/02/22-rdf-syntax-ns#"
   xmlns:svg="http://www.w3.org/2000/svg"
   xmlns="http://www.w3.org/2000/svg"
   xmlns:xlink="http://www.w3.org/1999/xlink"
   xmlns:sodipodi="http://sodipodi.sourceforge.net/DTD/sodipodi-0.dtd"
   xmlns:inkscape="http://www.inkscape.org/namespaces/inkscape"
   width="48"
   height="48"
   id="svg4230"
   version="1.1"
   inkscape:version="0.48.5 r10040"
   sodipodi:docname="xnojs.svg">
  <defs
     id="defs4232">
    <linearGradient
       inkscape:collect="always"
       id="linearGradient3963">
      <stop
         style="stop-color:#000000;stop-opacity:1;"
         offset="0"
         id="stop3965" />
      <stop
         style="stop-color:#000000;stop-opacity:0;"
         offset="1"
         id="stop3967" />
    </linearGradient>
    <linearGradient
       id="linearGradient3928">
      <stop
         style="stop-color:#000000;stop-opacity:1;"
         offset="0"
         id="stop3930" />
      <stop
         style="stop-color:#000000;stop-opacity:0;"
         offset="1"
         id="stop3932" />
    </linearGradient>
    <linearGradient
       inkscape:collect="always"
       id="linearGradient3912">
      <stop
         style="stop-color:#000000;stop-opacity:1;"
         offset="0"
         id="stop3914" />
      <stop
         style="stop-color:#000000;stop-opacity:0;"
         offset="1"
         id="stop3916" />
    </linearGradient>
    <linearGradient
       inkscape:collect="always"
       id="linearGradient3886">
      <stop
         style="stop-color:#ffffff;stop-opacity:1;"
         offset="0"
         id="stop3888" />
      <stop
         style="stop-color:#ffffff;stop-opacity:0;"
         offset="1"
         id="stop3890" />
    </linearGradient>
    <linearGradient
       id="linearGradient3874">
      <stop
         id="stop3876"
         offset="0"
         style="stop-color:#d79405;stop-opacity:1;" />
      <stop
         id="stop3878"
         offset="1"
         style="stop-color:#fef226;stop-opacity:1;" />
    </linearGradient>
    <linearGradient
       id="linearGradient3862">
      <stop
         style="stop-color:#cacdd0;stop-opacity:1;"
         offset="0"
         id="stop3864" />
      <stop
         style="stop-color:#f8f9f9;stop-opacity:1;"
         offset="1"
         id="stop3866" />
    </linearGradient>
    <linearGradient
       id="linearGradient4524">
      <stop
         style="stop-color:#1d81d5;stop-opacity:1;"
         offset="0"
         id="stop4526" />
      <stop
         style="stop-color:#6cbdf4;stop-opacity:1;"
         offset="1"
         id="stop4528" />
    </linearGradient>
    <linearGradient
       id="linearGradient4512">
      <stop
         style="stop-color:#d9d2d1;stop-opacity:1;"
         offset="0"
         id="stop4514" />
      <stop
         style="stop-color:#fefcfc;stop-opacity:1;"
         offset="1"
         id="stop4516" />
    </linearGradient>
    <linearGradient
       id="linearGradient4243">
      <stop
         style="stop-color:#000000;stop-opacity:1;"
         offset="0"
         id="stop4245" />
      <stop
         style="stop-color:#000000;stop-opacity:0;"
         offset="1"
         id="stop4247" />
    </linearGradient>
    <linearGradient
       id="linearGradient4216">
      <stop
         style="stop-color:#a0c4e6;stop-opacity:1;"
         offset="0"
         id="stop4218" />
      <stop
         style="stop-color:#d0e2f1;stop-opacity:1;"
         offset="1"
         id="stop4220" />
    </linearGradient>
    <linearGradient
       id="linearGradient4208">
      <stop
         style="stop-color:#70a3d6;stop-opacity:1;"
         offset="0"
         id="stop4210" />
      <stop
         style="stop-color:#88b6e1;stop-opacity:1;"
         offset="1"
         id="stop4212" />
    </linearGradient>
    <linearGradient
       id="linearGradient4200">
      <stop
         style="stop-color:#427dbe;stop-opacity:1;"
         offset="0"
         id="stop4202" />
      <stop
         style="stop-color:#739bd1;stop-opacity:1;"
         offset="1"
         id="stop4204" />
    </linearGradient>
    <linearGradient
       id="linearGradient4192">
      <stop
         style="stop-color:#4970a4;stop-opacity:1;"
         offset="0"
         id="stop4194" />
      <stop
         style="stop-color:#6090c0;stop-opacity:1;"
         offset="1"
         id="stop4196" />
    </linearGradient>
    <radialGradient
       inkscape:collect="always"
       xlink:href="#linearGradient3688-166-749-5-9-1"
       id="radialGradient4351"
       gradientUnits="userSpaceOnUse"
       gradientTransform="matrix(2.3201711,0,0,0.39999996,28.617836,28.600002)"
       cx="4.9929786"
       cy="43.5"
       fx="4.9929786"
       fy="43.5"
       r="2.5" />
    <linearGradient
       id="linearGradient3688-166-749-5-9-1">
      <stop
         id="stop2883-0-2-9"
         style="stop-color:#181818;stop-opacity:1"
         offset="0" />
      <stop
         id="stop2885-5-3-8"
         style="stop-color:#181818;stop-opacity:0"
         offset="1" />
    </linearGradient>
    <linearGradient
       id="linearGradient3688-464-309-8-9-4">
      <stop
         id="stop2889-9-9-1"
         style="stop-color:#181818;stop-opacity:1"
         offset="0" />
      <stop
         id="stop2891-4-2-9"
         style="stop-color:#181818;stop-opacity:0"
         offset="1" />
    </linearGradient>
    <linearGradient
       id="linearGradient3702-501-757-0-4-0">
      <stop
         id="stop2895-0-2-1"
         style="stop-color:#181818;stop-opacity:0"
         offset="0" />
      <stop
         id="stop2897-2-8-2"
         style="stop-color:#181818;stop-opacity:1"
         offset="0.5" />
      <stop
         id="stop2899-6-1-6"
         style="stop-color:#181818;stop-opacity:0"
         offset="1" />
    </linearGradient>
    <linearGradient
       id="linearGradient3811-3">
      <stop
         style="stop-color:#000000;stop-opacity:1;"
         offset="0"
         id="stop3813-0" />
      <stop
         style="stop-color:#000000;stop-opacity:0;"
         offset="1"
         id="stop3815-0" />
    </linearGradient>
    <clipPath
       id="clipPath-887332295">
      <g
         id="g3945"
         transform="translate(0,-1004.3622)">
        <rect
           id="rect3947"
           fill="#1890d0"
           width="46"
           height="46"
           x="1"
           y="1005.36"
           rx="4" />
      </g>
    </clipPath>
    <clipPath
       id="clipPath-867792831">
      <g
         id="g3940"
         transform="translate(0,-1004.3622)">
        <rect
           id="rect3942"
           fill="#1890d0"
           width="46"
           height="46"
           x="1"
           y="1005.36"
           rx="4" />
      </g>
    </clipPath>
    <linearGradient
       gradientTransform="translate(-47.997785,0.00221467)"
       gradientUnits="userSpaceOnUse"
       x2="47"
       x1="1"
       id="linearGradient3764">
      <stop
         id="stop3935"
         stop-opacity="1"
         stop-color="#e4e4e4" />
      <stop
         id="stop3937"
         stop-opacity="1"
         stop-color="#eee"
         offset="1" />
    </linearGradient>
    <radialGradient
       inkscape:collect="always"
       xlink:href="#linearGradient4243"
       id="radialGradient4274"
       gradientUnits="userSpaceOnUse"
       gradientTransform="matrix(1.0434782,0,0,0.1956518,-1.0434797,35.184809)"
       cx="24.000001"
       cy="42.499991"
       fx="24.000001"
       fy="42.499991"
       r="23" />
    <linearGradient
       inkscape:collect="always"
       xlink:href="#outerBackgroundGradient-5"
       id="linearGradient4530"
       x1="24"
       y1="46"
       x2="24"
       y2="2"
       gradientUnits="userSpaceOnUse" />
    <linearGradient
       inkscape:collect="always"
       xlink:href="#linearGradient4512"
       id="linearGradient4554"
       gradientUnits="userSpaceOnUse"
       x1="12.5"
       y1="28.000042"
       x2="12.5"
       y2="17.000042" />
    <linearGradient
       inkscape:collect="always"
       xlink:href="#linearGradient3862"
       id="linearGradient3868"
       x1="-25.5"
       y1="8"
       x2="-25.5"
       y2="40"
       gradientUnits="userSpaceOnUse" />
    <linearGradient
       inkscape:collect="always"
       xlink:href="#linearGradient3874"
       id="linearGradient3872"
       gradientUnits="userSpaceOnUse"
       x1="-25.5"
       y1="8"
       x2="-25.5"
       y2="40"
       gradientTransform="matrix(0.64516129,0,0,0.62499998,4.451613,8)" />
    <radialGradient
       inkscape:collect="always"
       xlink:href="#linearGradient3886"
       id="radialGradient3892"
       cx="-25.5"
       cy="24"
       fx="-25.5"
       fy="24"
       r="15.5"
       gradientTransform="matrix(0.38709677,0,0,0.38709678,33.870968,1015.0719)"
       gradientUnits="userSpaceOnUse" />
    <linearGradient
       inkscape:collect="always"
       xlink:href="#linearGradient3874"
       id="linearGradient3899"
       gradientUnits="userSpaceOnUse"
       x1="-25.5"
       y1="8"
       x2="-25.5"
       y2="40" />
    <linearGradient
       inkscape:collect="always"
       xlink:href="#linearGradient3874"
       id="linearGradient3903"
       gradientUnits="userSpaceOnUse"
       x1="-25.5"
       y1="8"
       x2="-25.5"
       y2="40" />
    <radialGradient
       inkscape:collect="always"
       xlink:href="#linearGradient3912"
       id="radialGradient3918"
       cx="-25.5"
       cy="24"
       fx="-25.5"
       fy="24"
       r="15.5"
       gradientTransform="matrix(1,0,0,1.0322581,0,-0.77419355)"
       gradientUnits="userSpaceOnUse" />
    <radialGradient
       inkscape:collect="always"
       xlink:href="#linearGradient3928"
       id="radialGradient3934"
       cx="-25.5"
       cy="24"
       fx="-25.5"
       fy="24"
       r="15.5"
       gradientTransform="matrix(0.83870968,0,0,0.83870968,45.387097,2.8709678)"
       gradientUnits="userSpaceOnUse" />
    <radialGradient
       inkscape:collect="always"
       xlink:href="#linearGradient3928"
       id="radialGradient3949"
       gradientUnits="userSpaceOnUse"
       gradientTransform="matrix(0.83870968,0,0,0.83870968,45.387097,1007.2332)"
       cx="-25.5"
       cy="24"
       fx="-25.5"
       fy="24"
       r="15.5" />
    <radialGradient
       inkscape:collect="always"
       xlink:href="#linearGradient3928"
       id="radialGradient3951"
       gradientUnits="userSpaceOnUse"
       gradientTransform="matrix(0.83870968,0,0,0.83870968,25.387097,1007.2332)"
       cx="-25.5"
       cy="24"
       fx="-25.5"
       fy="24"
       r="15.5" />
    <radialGradient
       inkscape:collect="always"
       xlink:href="#linearGradient3928"
       id="radialGradient3953"
       gradientUnits="userSpaceOnUse"
       gradientTransform="matrix(0.83870968,0,0,0.83870968,25.387097,1007.2332)"
       cx="-25.5"
       cy="24"
       fx="-25.5"
       fy="24"
       r="15.5" />
    <radialGradient
       inkscape:collect="always"
       xlink:href="#linearGradient3928"
       id="radialGradient3955"
       gradientUnits="userSpaceOnUse"
       gradientTransform="matrix(0.83870968,0,0,0.83870968,29.387097,1007.2332)"
       cx="-25.5"
       cy="24"
       fx="-25.5"
       fy="24"
       r="15.5" />
    <radialGradient
       inkscape:collect="always"
       xlink:href="#linearGradient3963"
       id="radialGradient3969"
       cx="-25.5"
       cy="24"
       fx="-25.5"
       fy="24"
       r="15.5"
       gradientTransform="matrix(1,0,0,1.0322581,0,-0.77419355)"
       gradientUnits="userSpaceOnUse" />
    <linearGradient
       inkscape:collect="always"
       xlink:href="#linearGradient3874"
       id="linearGradient4490"
       gradientUnits="userSpaceOnUse"
       gradientTransform="matrix(0.64516129,0,0,0.62499998,40.451613,1012.3622)"
       x1="-25.5"
       y1="8"
       x2="-25.5"
       y2="40" />
    <clipPath
       id="clipPath-297813382">
      <g
         transform="translate(0,-1004.3622)"
         id="g17">
        <rect
           style="fill:#1890d0"
           rx="4"
           y="1005.36"
           x="1"
           height="46"
           width="46"
           id="rect19" />
      </g>
    </clipPath>
    <linearGradient
       inkscape:collect="always"
       xlink:href="#outerBackgroundGradient-5"
       id="linearGradient4254"
       x1="35"
       y1="156"
       x2="253"
       y2="156"
       gradientUnits="userSpaceOnUse"
       gradientTransform="matrix(0,-1,1,0,-12,300)" />
    <linearGradient
       id="outerBackgroundGradient-5">
      <stop
         style="stop-color:#e74166;stop-opacity:1;"
         offset="0"
         id="stop3864-8-6-3" />
      <stop
         style="stop-color:#ae65df;stop-opacity:1;"
         offset="1"
         id="stop3866-9-1-3" />
    </linearGradient>
    <linearGradient
       y2="156"
       x2="253"
       y1="156"
       x1="35"
       gradientTransform="matrix(0,-1,1,0,-305.5,1206.3622)"
       gradientUnits="userSpaceOnUse"
       id="linearGradient3119"
       xlink:href="#outerBackgroundGradient-5"
       inkscape:collect="always" />
  </defs>
  <sodipodi:namedview
     id="base"
     pagecolor="#ffffff"
     bordercolor="#666666"
     borderopacity="1.0"
     inkscape:pageopacity="0.0"
     inkscape:pageshadow="2"
     inkscape:zoom="7.4573255"
     inkscape:cx="-29.122957"
     inkscape:cy="8.6685786"
     inkscape:document-units="px"
     inkscape:current-layer="layer2"
     showgrid="true"
     inkscape:showpageshadow="false"
     borderlayer="true"
     inkscape:window-width="1920"
     inkscape:window-height="1023"
     inkscape:window-x="0"
     inkscape:window-y="28"
     inkscape:window-maximized="1"
     showguides="false"
     inkscape:guide-bbox="true">
    <inkscape:grid
       type="xygrid"
       id="grid4162" />
    <sodipodi:guide
       position="1.0000013,47.000017"
       orientation="46,0"
       id="guide4163" />
    <sodipodi:guide
       position="1.0000013,1.0000174"
       orientation="0,45.999999"
       id="guide4165" />
    <sodipodi:guide
       position="47,1.0000174"
       orientation="-46,0"
       id="guide4167" />
    <sodipodi:guide
       position="47,47.000017"
       orientation="0,-45.999999"
       id="guide4169" />
    <sodipodi:guide
       position="2.0000007,46.000017"
       orientation="44,0"
       id="guide4173" />
    <sodipodi:guide
       position="2.0000007,2.0000174"
       orientation="0,43.999999"
       id="guide4175" />
    <sodipodi:guide
       position="46,2.0000174"
       orientation="-44,0"
       id="guide4177" />
    <sodipodi:guide
       position="46,46.000017"
       orientation="0,-43.999999"
       id="guide4179" />
    <sodipodi:guide
       position="3,45.000017"
       orientation="42,0"
       id="guide4183" />
    <sodipodi:guide
       position="45,3.0000174"
       orientation="-42,0"
       id="guide4187" />
    <sodipodi:guide
       position="45,45.000017"
       orientation="0,-42"
       id="guide4189" />
    <sodipodi:guide
       position="3,45.000017"
       orientation="42,0"
       id="guide4193" />
    <sodipodi:guide
       position="3,3.0000174"
       orientation="0,42"
       id="guide4195" />
    <sodipodi:guide
       position="45,3.0000174"
       orientation="-42,0"
       id="guide4197" />
    <sodipodi:guide
       position="45,45.000017"
       orientation="0,-42"
       id="guide4199" />
    <sodipodi:guide
       position="3,10.000017"
       orientation="7,0"
       id="guide4203" />
    <sodipodi:guide
       position="3,3.0000174"
       orientation="0,42"
       id="guide4205" />
    <sodipodi:guide
       position="45,3.0000174"
       orientation="-7,0"
       id="guide4207" />
    <sodipodi:guide
       position="45,10.000017"
       orientation="0,-42"
       id="guide4209" />
  </sodipodi:namedview>
  <metadata
     id="metadata4235">
    <rdf:RDF>
      <cc:Work
         rdf:about="">
        <dc:format>image/svg+xml</dc:format>
        <dc:type
           rdf:resource="http://purl.org/dc/dcmitype/StillImage" />
        <dc:title />
      </cc:Work>
    </rdf:RDF>
  </metadata>
  <g
     inkscape:groupmode="layer"
     id="layer3"
     inkscape:label="Fake blur shadow"
     style="display:inline"
     sodipodi:insensitive="true">
    <path
       style="opacity:0.06000001;fill:#000000;fill-opacity:1;stroke:none"
       d="M 10,1 C 5.014,1 1,5.014 1,10 l 0,28 c 0,4.986 4.014,9 9,9 l 28,0 c 4.986,0 9,-4.014 9,-9 L 47,10 C 47,5.014 42.986,1 38,1 L 10,1 z m 0.5,0.5 27,0 c 4.986,0 9,4.014 9,9 l 0,27 c 0,4.986 -4.014,9 -9,9 l -27,0 c -4.986,0 -9,-4.014 -9,-9 l 0,-27 c 0,-4.986 4.014,-9 9,-9 z"
       id="rect3829"
       inkscape:connector-curvature="0" />
    <path
       style="opacity:0.12000002;fill:#000000;fill-opacity:1;stroke:none"
       d="m 10.5,1.5 c -4.986,0 -9,4.014 -9,9 l 0,27 c 0,4.986 4.014,9 9,9 l 27,0 c 4.986,0 9,-4.014 9,-9 l 0,-27 c 0,-4.986 -4.014,-9 -9,-9 l -27,0 z m 0.25,0.25 26.5,0 c 4.986,0 9,4.014 9,9 l 0,26.5 c 0,4.986 -4.014,9 -9,9 l -26.5,0 c -4.986,0 -9,-4.014 -9,-9 l 0,-26.5 c 0,-4.986 4.014,-9 9,-9 z"
       id="rect3827"
       inkscape:connector-curvature="0" />
    <rect
       style="opacity:0.23999999;fill:#000000;fill-opacity:1;stroke:none"
       id="rect3038-4"
       width="44.5"
       height="44.5"
       x="1.75"
       y="1.75"
       ry="9"
       rx="9" />
  </g>
  <g
     inkscape:groupmode="layer"
     id="layer6"
     inkscape:label="Blob"
     style="display:inline"
     sodipodi:insensitive="true">
    <path
       style="opacity:0.3;fill:url(#radialGradient4274);fill-opacity:1;stroke:none"
       d="M 1.03125,39 C 1.5192036,43.518898 5.3471961,47 10,47 l 28,0 c 4.652804,0 8.480796,-3.481102 8.96875,-8 l -45.9375,0 z"
       id="rect4241"
       inkscape:connector-curvature="0" />
  </g>
  <g
     inkscape:groupmode="layer"
     id="layer2"
     inkscape:label="Baseplate"
     style="display:inline">
    <rect
       style="fill:url(#linearGradient4530);fill-opacity:1.0;stroke:none"
       id="rect3038"
       width="44"
       height="44"
       x="2"
       y="1.9999826"
       ry="9"
       rx="9" />
  </g>
  <g
     inkscape:label="Symbol"
     inkscape:groupmode="layer"
     id="layer1"
     transform="translate(0,-1004.3622)"
     style="display:inline">
    <g
       id="g3910"
       transform="matrix(1.0001667,0,0,0.9997223,-0.00300057,1005.3661)"
       style="fill:#000000;fill-opacity:1;opacity:0.15">
      <g
         id="g3912"
         clip-path="url(#clipPath-297813382)"
         style="fill:#000000;fill-opacity:1">
        <g
           id="g3914"
           transform="translate(0,-1)"
           style="fill:#000000;fill-opacity:1">
          <!-- color: #de487e -->
          <g
             id="g3916"
             style="fill:#000000;fill-opacity:1">
            <path
               id="path3918"
               d="m 13.875,15 c -1.102,0.16 -1.977,1.305 -1.863,2.445 0.113,1.141 1.195,2.082 2.309,2.01 l 1.223,0 c 0.523,0 0.707,0.125 1.094,0.492 0.387,0.363 0.895,1.051 1.43,1.898 0.426,0.672 0.898,1.438 1.535,2.176 -0.633,0.734 -1.113,1.512 -1.535,2.176 -0.535,0.844 -1.043,1.496 -1.43,1.859 -0.387,0.367 -0.57,0.492 -1.094,0.492 l -1.223,0 c -1.352,-0.043 -2.32,1.352 -2.32,2.457 0,1.102 1.254,1.895 2.32,2 l 1.223,0 c 1.625,0 3.141,-0.824 4.094,-1.723 0.953,-0.895 1.547,-1.895 2.082,-2.734 0.535,-0.848 0.941,-1.492 1.328,-1.859 0.34,-0.445 0.555,-0.566 0.953,-0.684 0.52,0 0.809,0.316 1.191,0.684 0.387,0.367 0.934,1.016 1.469,1.859 0.535,0.844 1.094,1.84 2.043,2.734 0.953,0.898 2.367,1.723 3.992,1.723 l 1.328,0 c 1.066,-0.105 1.973,-1.133 1.973,-2.23 0,-1.102 -0.906,-2.125 -1.973,-2.227 l -1.328,0 c -0.523,0 -0.707,-0.125 -1.094,-0.492 -0.387,-0.363 -0.793,-1.02 -1.328,-1.859 -0.434,-0.688 -0.895,-1.492 -1.57,-2.246 0.223,-0.246 0.438,-0.523 0.613,-0.773 1.012,-1.398 1.707,-2.68 2.285,-3.227 0.387,-0.363 0.57,-0.492 1.094,-0.492 l 1.328,0 c 1.066,-0.102 1.969,-1.129 1.969,-2.23 0,-1.102 -0.902,-2.125 -1.969,-2.227 l -1.328,0 c -1.621,0 -3.039,0.824 -3.992,1.719 -1.43,1.344 -2.063,2.887 -2.762,3.855 -0.703,0.973 -1.164,1.418 -1.945,1.418 -1.09,-0.426 -1.727,-1.668 -2.281,-2.539 -0.535,-0.844 -1.129,-1.84 -2.082,-2.734 -0.953,-0.898 -2.469,-1.719 -4.094,-1.719 l -1.223,0 c -0.078,0 -0.16,0 -0.238,0 -0.066,0 -0.141,0 -0.207,0 m 0.004,0"
               inkscape:connector-curvature="0"
               style="fill:#000000;fill-opacity:1;fill-rule:nonzero;stroke:none" />
          </g>
        </g>
      </g>
    </g>
    <g
       transform="matrix(1.0001667,0,0,0.9997223,-0.00300057,1004.3661)"
       id="g47">
      <g
         clip-path="url(#clipPath-297813382)"
         id="g49">
        <g
           transform="translate(0,-1)"
           id="g51">
          <!-- color: #de487e -->
          <g
             id="g53">
            <path
               style="fill:#f9f9f9;fill-opacity:1;fill-rule:nonzero;stroke:none"
               inkscape:connector-curvature="0"
               d="m 13.875,15 c -1.102,0.16 -1.977,1.305 -1.863,2.445 0.113,1.141 1.195,2.082 2.309,2.01 l 1.223,0 c 0.523,0 0.707,0.125 1.094,0.492 0.387,0.363 0.895,1.051 1.43,1.898 0.426,0.672 0.898,1.438 1.535,2.176 -0.633,0.734 -1.113,1.512 -1.535,2.176 -0.535,0.844 -1.043,1.496 -1.43,1.859 -0.387,0.367 -0.57,0.492 -1.094,0.492 l -1.223,0 c -1.352,-0.043 -2.32,1.352 -2.32,2.457 0,1.102 1.254,1.895 2.32,2 l 1.223,0 c 1.625,0 3.141,-0.824 4.094,-1.723 0.953,-0.895 1.547,-1.895 2.082,-2.734 0.535,-0.848 0.941,-1.492 1.328,-1.859 0.34,-0.445 0.555,-0.566 0.953,-0.684 0.52,0 0.809,0.316 1.191,0.684 0.387,0.367 0.934,1.016 1.469,1.859 0.535,0.844 1.094,1.84 2.043,2.734 0.953,0.898 2.367,1.723 3.992,1.723 l 1.328,0 c 1.066,-0.105 1.973,-1.133 1.973,-2.23 0,-1.102 -0.906,-2.125 -1.973,-2.227 l -1.328,0 c -0.523,0 -0.707,-0.125 -1.094,-0.492 -0.387,-0.363 -0.793,-1.02 -1.328,-1.859 -0.434,-0.688 -0.895,-1.492 -1.57,-2.246 0.223,-0.246 0.438,-0.523 0.613,-0.773 1.012,-1.398 1.707,-2.68 2.285,-3.227 0.387,-0.363 0.57,-0.492 1.094,-0.492 l 1.328,0 c 1.066,-0.102 1.969,-1.129 1.969,-2.23 0,-1.102 -0.902,-2.125 -1.969,-2.227 l -1.328,0 c -1.621,0 -3.039,0.824 -3.992,1.719 -1.43,1.344 -2.063,2.887 -2.762,3.855 -0.703,0.973 -1.164,1.418 -1.945,1.418 -1.09,-0.426 -1.727,-1.668 -2.281,-2.539 -0.535,-0.844 -1.129,-1.84 -2.082,-2.734 -0.953,-0.898 -2.469,-1.719 -4.094,-1.719 l -1.223,0 c -0.078,0 -0.16,0 -0.238,0 -0.066,0 -0.141,0 -0.207,0 m 0.004,0"
               id="path55" />
          </g>
        </g>
      </g>
    </g>
  </g>
  <g
     inkscape:groupmode="layer"
     id="layer4"
     inkscape:label="Inset"
     sodipodi:insensitive="true"
     style="display:inline">
    <path
       style="opacity:0.15;fill:#000000;fill-opacity:1;stroke:none"
       d="m 2,34 0,3 c 0,4.986 4.014,9 9,9 l 26,0 c 4.986,0 9,-4.014 9,-9 l 0,-3 c 0,4.986 -4.014,9 -9,9 L 11,43 C 6.014,43 2,38.986 2,34 z"
       id="rect3038-42"
       inkscape:connector-curvature="0" />
  </g>
  <g
     inkscape:groupmode="layer"
     id="layer7"
     inkscape:label="Baseshape"
     sodipodi:insensitive="true"
     style="display:none">
    <rect
       rx="9"
       ry="9"
       y="2"
       x="2"
       height="44"
       width="44"
       id="rect4169"
       style="fill:#abe1ad;fill-opacity:1;stroke:none;display:inline" />
  </g>
</svg>
