<?xml version="1.0" encoding="UTF-8" standalone="no"?>
<!-- Created with Inkscape (http://www.inkscape.org/) -->

<svg
   xmlns:dc="http://purl.org/dc/elements/1.1/"
   xmlns:cc="http://creativecommons.org/ns#"
   xmlns:rdf="http://www.w3.org/1999/02/22-rdf-syntax-ns#"
   xmlns:svg="http://www.w3.org/2000/svg"
   xmlns="http://www.w3.org/2000/svg"
   xmlns:sodipodi="http://sodipodi.sourceforge.net/DTD/sodipodi-0.dtd"
   xmlns:inkscape="http://www.inkscape.org/namespaces/inkscape"
   width="16"
   height="16"
   id="svg2"
   version="1.1"
   inkscape:version="0.91+devel r"
   sodipodi:docname="drive-harddrive.svg"
   viewBox="0 0 16 16">
  <defs
     id="defs4" />
  <sodipodi:namedview
     id="base"
     pagecolor="#ffffff"
     bordercolor="#666666"
     borderopacity="1.0"
     inkscape:pageopacity="0.0"
     inkscape:pageshadow="2"
     inkscape:zoom="60.42445"
     inkscape:cx="6.894002"
     inkscape:cy="6.4106466"
     inkscape:document-units="px"
     inkscape:current-layer="layer1"
     showgrid="true"
     inkscape:window-width="1366"
     inkscape:window-height="716"
     inkscape:window-x="-4"
     inkscape:window-y="29"
     inkscape:window-maximized="1"
     showguides="true"
     inkscape:guide-bbox="true">
    <inkscape:grid
       type="xygrid"
       id="grid2990"
       empspacing="5"
       visible="true"
       enabled="true"
       snapvisiblegridlinesonly="true" />
  </sodipodi:namedview>
  <metadata
     id="metadata7">
    <rdf:RDF>
      <cc:Work
         rdf:about="">
        <dc:format>image/svg+xml</dc:format>
        <dc:type
           rdf:resource="http://purl.org/dc/dcmitype/StillImage" />
        <dc:title />
      </cc:Work>
    </rdf:RDF>
  </metadata>
  <g
     inkscape:label="Layer"
     inkscape:groupmode="layer"
     id="layer1"
     transform="translate(0,-1036.3622)">
    <path
       style="fill:#f16d87;fill-opacity:1;stroke:none"
       d="M 3 0 C 1.892 0 1 0.892 1 2 L 1 14 C 1 15.108 1.892 16 3 16 L 13 16 C 14.108 16 15 15.108 15 14 L 15 2 C 15 0.892 14.108 0 13 0 L 3 0 z M 3 1 L 13 1 C 13.55401 1 14 1.4459904 14 2 L 14 12 C 14 12.55401 13.55401 13 13 13 L 3 13 C 2.4459904 13 2 12.55401 2 12 L 2 2 C 2 1.4459904 2.4459904 1 3 1 z M 8 2 A 5 5 0 0 0 3 7 A 5 5 0 0 0 3.4257812 9 L 4 9 L 5 9 L 7 9 C 7 9 8 9 8 10 L 8 12 A 5 5 0 0 0 13 7 A 5 5 0 0 0 8 2 z M 8 5 A 2 2 0 0 1 10 7 A 2 2 0 0 1 8 9 A 2 2 0 0 1 7.515625 8.9375 L 8 7 L 6.2109375 7.8945312 A 2 2 0 0 1 6 7 A 2 2 0 0 1 8 5 z M 4 10 C 3.446 10 3 10.446 3 11 C 3 11.554 3.446 12 4 12 L 7 12 L 7 10 L 5 10 L 4 10 z M 3 14 L 8 14 L 8 15 L 7 15 L 4 15 L 3 15 L 3 14 z M 10 14 L 13 14 L 13 15 L 12 15 L 11 15 L 10 15 L 10 14 z "
       transform="translate(0,1036.3622)"
       id="rect3833" />
  </g>
</svg>
