<?xml version="1.0" encoding="UTF-8" standalone="no"?>
<svg
   xmlns:dc="http://purl.org/dc/elements/1.1/"
   xmlns:cc="http://creativecommons.org/ns#"
   xmlns:rdf="http://www.w3.org/1999/02/22-rdf-syntax-ns#"
   xmlns:svg="http://www.w3.org/2000/svg"
   xmlns="http://www.w3.org/2000/svg"
   xmlns:sodipodi="http://sodipodi.sourceforge.net/DTD/sodipodi-0.dtd"
   xmlns:inkscape="http://www.inkscape.org/namespaces/inkscape"
   enable-background="new 0 0 32 32"
   height="16"
   id="Layer_1"
   version="1.1"
   viewBox="0 0 16 16"
   width="16"
   xml:space="preserve"
   inkscape:version="0.48.5 r10040"
   sodipodi:docname="ac-adapter-symbolic.svg"><metadata
     id="metadata12"><rdf:RDF><cc:Work
         rdf:about=""><dc:format>image/svg+xml</dc:format><dc:type
           rdf:resource="http://purl.org/dc/dcmitype/StillImage" /><dc:title /></cc:Work></rdf:RDF></metadata><defs
     id="defs10" /><sodipodi:namedview
     pagecolor="#ffffff"
     bordercolor="#666666"
     borderopacity="1"
     objecttolerance="10"
     gridtolerance="10"
     guidetolerance="10"
     inkscape:pageopacity="0"
     inkscape:pageshadow="2"
     inkscape:window-width="1920"
     inkscape:window-height="1052"
     id="namedview8"
     showgrid="true"
     inkscape:zoom="59.781776"
     inkscape:cx="3.6362747"
     inkscape:cy="4.7568084"
     inkscape:window-x="0"
     inkscape:window-y="28"
     inkscape:window-maximized="1"
     inkscape:current-layer="Layer_1"><inkscape:grid
       type="xygrid"
       id="grid2991"
       empspacing="5"
       visible="true"
       enabled="true"
       snapvisiblegridlinesonly="true" /></sodipodi:namedview><path
     inkscape:connector-curvature="0"
     d="m 8.3181003,5.2888474 -3.0202134,3 C 5.0634437,8.5195874 5,8.6219641 5,9 l 0,1 2.5,0 -1.2038112,1.281188 C 6.0823602,11.500498 6,11.647753 6,12 l 0,1 1.0123219,-1.12e-4 c 0.2628993,0.004 0.5259879,-0.099 0.7161331,-0.28125 L 10.717532,9.7262977 C 10.900553,9.5365377 11.006078,9.26404 11,9 L 11,8 8.5,8 9.7503664,6.7263474 C 9.9641954,6.5070474 10,6.3330423 10,6 L 10,5 9,5 C 8.6383335,5 8.4974778,5.136864 8.3181003,5.2888474 z"
     id="path10747"
     sodipodi:nodetypes="ccccccccccccccccccc"
     style="font-size:xx-small;font-style:normal;font-variant:normal;font-weight:normal;font-stretch:normal;text-indent:0;text-align:start;text-decoration:none;line-height:normal;letter-spacing:normal;word-spacing:normal;text-transform:none;direction:ltr;block-progression:tb;writing-mode:lr-tb;text-anchor:start;color:#bebebe;fill:#bebebe;fill-opacity:1;fill-rule:nonzero;stroke:none;stroke-width:2;marker:none;visibility:visible;display:inline;overflow:visible;enable-background:accumulate;font-family:Bitstream Vera Sans;-inkscape-font-specification:Bitstream Vera Sans" /><rect
     style="fill:#bebebe;fill-opacity:1;stroke:none"
     id="rect3754"
     width="6"
     height="4"
     x="5"
     y="0"
     rx="1"
     ry="1" /><rect
     ry="2"
     rx="2"
     y="2"
     x="-15"
     height="14"
     width="10"
     id="rect3799"
     style="fill:#bebebe;fill-opacity:1;stroke:none" /><path
     style="fill:#bebebe;fill-opacity:1;stroke:none"
     d="M 3 2 C 2.446 2 2 2.446 2 3 L 2 15 C 2 15.554 2.446 16 3 16 L 13 16 C 13.554 16 14 15.554 14 15 L 14 3 C 14 2.446 13.554 2 13 2 L 3 2 z M 4 4 L 12 4 L 12 14 L 4 14 L 4 4 z "
     id="rect3831" /></svg>