<?xml version="1.0" encoding="UTF-8" standalone="no"?>
<svg
   xmlns:dc="http://purl.org/dc/elements/1.1/"
   xmlns:cc="http://creativecommons.org/ns#"
   xmlns:rdf="http://www.w3.org/1999/02/22-rdf-syntax-ns#"
   xmlns:svg="http://www.w3.org/2000/svg"
   xmlns="http://www.w3.org/2000/svg"
   xmlns:sodipodi="http://sodipodi.sourceforge.net/DTD/sodipodi-0.dtd"
   xmlns:inkscape="http://www.inkscape.org/namespaces/inkscape"
   enable-background="new 0 0 32 32"
   height="16"
   id="Layer_1"
   version="1.1"
   viewBox="0 0 16 16"
   width="16"
   xml:space="preserve"
   inkscape:version="0.48.5 r10040"
   sodipodi:docname="izobraženija.svg"><metadata
     id="metadata26"><rdf:RDF><cc:Work
         rdf:about=""><dc:format>image/svg+xml</dc:format><dc:type
           rdf:resource="http://purl.org/dc/dcmitype/StillImage" /><dc:title /></cc:Work></rdf:RDF></metadata><defs
     id="defs24" /><sodipodi:namedview
     pagecolor="#ffffff"
     bordercolor="#666666"
     borderopacity="1"
     objecttolerance="10"
     gridtolerance="10"
     guidetolerance="10"
     inkscape:pageopacity="0"
     inkscape:pageshadow="2"
     inkscape:window-width="1920"
     inkscape:window-height="1023"
     id="namedview22"
     showgrid="true"
     inkscape:zoom="122.93616"
     inkscape:cx="13.176799"
     inkscape:cy="10.298902"
     inkscape:window-x="0"
     inkscape:window-y="28"
     inkscape:window-maximized="1"
     inkscape:current-layer="Layer_1"><inkscape:grid
       type="xygrid"
       id="grid3003"
       empspacing="5"
       visible="true"
       enabled="true"
       snapvisiblegridlinesonly="true" /></sodipodi:namedview><path
     style="fill:#bebebe;fill-opacity:1;stroke:none"
     d="M 2,3 C 0.892,3 0,3.892 0,5 l 0,8 c 0,1.108 0.892,2 2,2 l 12,0 c 1.108,0 2,-0.892 2,-2 L 16,5 C 16,3.892 15.108,3 14,3 z m 6,2 c 2.209139,0 4,1.790861 4,4 0,2.209139 -1.790861,4 -4,4 C 5.790861,13 4,11.209139 4,9 4,6.790861 5.790861,5 8,5 z"
     id="rect3029"
     inkscape:connector-curvature="0"
     sodipodi:nodetypes="ssssssssssssss" /><path
     sodipodi:type="arc"
     style="fill:#bebebe;fill-opacity:1;stroke:none"
     id="path3031"
     sodipodi:cx="-9.2626715"
     sodipodi:cy="8.6642199"
     sodipodi:rx="1.7373286"
     sodipodi:ry="2.3357797"
     d="m -7.5253428,8.6642199 a 1.7373286,2.3357797 0 1 1 -3.4746572,0 1.7373286,2.3357797 0 1 1 3.4746572,0 z"
     transform="matrix(1.1511927,0,0,0.85624514,18.66312,1.5813038)" /><path
     style="fill:#bebebe;fill-opacity:1;stroke:none"
     d="M 5,1 C 4,1 4.3333333,2.3333333 4,3 L 2,3 2,4 14,4 14,3 12,3 C 11.666667,2.3333333 12,1 11,1 z"
     id="path3807"
     inkscape:connector-curvature="0"
     sodipodi:nodetypes="ccccccccc" /></svg>