<?xml version="1.0" encoding="UTF-8" standalone="no"?>
<svg
   xmlns:dc="http://purl.org/dc/elements/1.1/"
   xmlns:cc="http://creativecommons.org/ns#"
   xmlns:rdf="http://www.w3.org/1999/02/22-rdf-syntax-ns#"
   xmlns:svg="http://www.w3.org/2000/svg"
   xmlns="http://www.w3.org/2000/svg"
   xmlns:sodipodi="http://sodipodi.sourceforge.net/DTD/sodipodi-0.dtd"
   xmlns:inkscape="http://www.inkscape.org/namespaces/inkscape"
   enable-background="new 0 0 32 32"
   height="16"
   id="Layer_1"
   version="1.1"
   viewBox="0 0 16 16"
   width="16"
   xml:space="preserve"
   inkscape:version="0.48.5 r10040"
   sodipodi:docname="hard-disk.svg"><metadata
     id="metadata12"><rdf:RDF><cc:Work
         rdf:about=""><dc:format>image/svg+xml</dc:format><dc:type
           rdf:resource="http://purl.org/dc/dcmitype/StillImage" /><dc:title></dc:title></cc:Work></rdf:RDF></metadata><defs
     id="defs10" /><sodipodi:namedview
     pagecolor="#ffffff"
     bordercolor="#666666"
     borderopacity="1"
     objecttolerance="10"
     gridtolerance="10"
     guidetolerance="10"
     inkscape:pageopacity="0"
     inkscape:pageshadow="2"
     inkscape:window-width="1920"
     inkscape:window-height="1052"
     id="namedview8"
     showgrid="true"
     inkscape:zoom="55.551052"
     inkscape:cx="7.6195125"
     inkscape:cy="7.7552285"
     inkscape:window-x="0"
     inkscape:window-y="28"
     inkscape:window-maximized="1"
     inkscape:current-layer="Layer_1"><inkscape:grid
       type="xygrid"
       id="grid2991"
       empspacing="5"
       visible="true"
       enabled="true"
       snapvisiblegridlinesonly="true" /></sodipodi:namedview><path
     style="opacity:1;fill:#bebebe;fill-opacity:1;stroke:none"
     d="M 3 0 C 1.892 0 1 0.892 1 2 L 1 14 C 1 15.108 1.892 16 3 16 L 13 16 C 14.108 16 15 15.108 15 14 L 15 2 C 15 0.892 14.108 0 13 0 L 3 0 z M 3 2 C 3.5522847 2 4 2.4477153 4 3 C 4 3.5522847 3.5522847 4 3 4 C 2.4477153 4 2 3.5522847 2 3 C 2 2.4477153 2.4477153 2 3 2 z M 8 2 C 8.2015638 2 8.400193 2.0337251 8.59375 2.0625 C 8.6035146 2.0644981 8.6152702 2.0604072 8.625 2.0625 C 10.538072 2.3618619 12 4.0029061 12 6 C 12 8.1986577 10.225927 9.9831178 8.03125 10 L 7 13.09375 C 5.5365452 17.191565 1.0035715 13.85286 4 11.09375 L 5.71875 9.28125 C 4.6754947 8.5593722 4 7.36469 4 6 C 4 4.0029061 5.461928 2.3618619 7.375 2.0625 C 7.3850403 2.0609289 7.396185 2.0639963 7.40625 2.0625 C 7.6015428 2.0225373 7.7928932 2 8 2 z M 13 2 C 13.552285 2 14 2.4477153 14 3 C 14 3.5522847 13.552285 4 13 4 C 12.447715 4 12 3.5522847 12 3 C 12 2.4477153 12.447715 2 13 2 z M 13 13 C 13.552285 13 14 13.447715 14 14 C 14 14.552285 13.552285 15 13 15 C 12.447715 15 12 14.552285 12 14 C 12 13.447715 12.447715 13 13 13 z "
     id="rect2984" /><path
     transform="matrix(0.51179914,0,0,0.41337621,10.830688,3.5398266)"
     d="m -3.5769656,5.9514151 a 1.9538915,2.4191039 0 1 1 -3.907783,0 1.9538915,2.4191039 0 1 1 3.907783,0 z"
     sodipodi:ry="2.4191039"
     sodipodi:rx="1.9538915"
     sodipodi:cy="5.9514151"
     sodipodi:cx="-5.5308571"
     id="path3007"
     style="fill:#bebebe;fill-opacity:1;stroke:none"
     sodipodi:type="arc" /><path
     inkscape:connector-curvature="0"
     d="m 7.3410161,8.9997614 -1.34,4.0000006 c -0.73426,2.056 -2.9999995,0.38433 -1.4965996,-1 z"
     style="color:#000000;fill:#bebebe;fill-opacity:1"
     id="path42767" /></svg>