<?xml version="1.0" encoding="UTF-8" standalone="no"?>
<svg
   xmlns:dc="http://purl.org/dc/elements/1.1/"
   xmlns:cc="http://creativecommons.org/ns#"
   xmlns:rdf="http://www.w3.org/1999/02/22-rdf-syntax-ns#"
   xmlns:svg="http://www.w3.org/2000/svg"
   xmlns="http://www.w3.org/2000/svg"
   xmlns:sodipodi="http://sodipodi.sourceforge.net/DTD/sodipodi-0.dtd"
   xmlns:inkscape="http://www.inkscape.org/namespaces/inkscape"
   enable-background="new 0 0 32 32"
   height="16"
   id="Layer_1"
   version="1.1"
   viewBox="0 0 16 16"
   width="16"
   xml:space="preserve"
   inkscape:version="0.48.5 r10040"
   sodipodi:docname="miška.svg"><metadata
     id="metadata26"><rdf:RDF><cc:Work
         rdf:about=""><dc:format>image/svg+xml</dc:format><dc:type
           rdf:resource="http://purl.org/dc/dcmitype/StillImage" /><dc:title /></cc:Work></rdf:RDF></metadata><defs
     id="defs24" /><sodipodi:namedview
     pagecolor="#ffffff"
     bordercolor="#666666"
     borderopacity="1"
     objecttolerance="10"
     gridtolerance="10"
     guidetolerance="10"
     inkscape:pageopacity="0"
     inkscape:pageshadow="2"
     inkscape:window-width="1920"
     inkscape:window-height="1025"
     id="namedview22"
     showgrid="true"
     inkscape:zoom="25.989459"
     inkscape:cx="1.3739204"
     inkscape:cy="12.330642"
     inkscape:window-x="0"
     inkscape:window-y="28"
     inkscape:window-maximized="1"
     inkscape:current-layer="Layer_1"><inkscape:grid
       type="xygrid"
       id="grid3003"
       empspacing="5"
       visible="true"
       enabled="true"
       snapvisiblegridlinesonly="true" /></sodipodi:namedview><path
     style="fill:#bebebe;fill-opacity:1;stroke:none"
     d="M 7,0 C 4.784,0 3,1.784 3,4 l 0,8 c 0,2.216 1.784,4 4,4 l 2,0 c 2.216,0 4,-1.784 4,-4 L 13,4 C 13,1.784 11.216,0 9,0 L 9,1.28125 C 9.5969091,1.6265269 10,2.2580987 10,3 l 0,2 C 10,6.108 9.108,7 8,7 6.892,7 6,6.108 6,5 L 6,3 C 6,2.2580987 6.4030909,1.6265269 7,1.28125 z m -1.5,12 5,0 c 0.277,0 0.5,0.223 0.5,0.5 0,0.277 -0.223,0.5 -0.5,0.5 l -5,0 C 5.223,13 5,12.777 5,12.5 5,12.223 5.223,12 5.5,12 z"
     id="rect2988"
     inkscape:connector-curvature="0"
     sodipodi:nodetypes="cssssssccsssssccsssssss" /><rect
     style="fill:#bebebe;fill-opacity:1;stroke:none"
     id="rect3762"
     width="2"
     height="4"
     x="7"
     y="2"
     rx="1"
     ry="1" /></svg>