<?xml version="1.0" encoding="UTF-8" standalone="no"?>
<svg
   xmlns:dc="http://purl.org/dc/elements/1.1/"
   xmlns:cc="http://creativecommons.org/ns#"
   xmlns:rdf="http://www.w3.org/1999/02/22-rdf-syntax-ns#"
   xmlns:svg="http://www.w3.org/2000/svg"
   xmlns="http://www.w3.org/2000/svg"
   xmlns:sodipodi="http://sodipodi.sourceforge.net/DTD/sodipodi-0.dtd"
   xmlns:inkscape="http://www.inkscape.org/namespaces/inkscape"
   enable-background="new 0 0 32 32"
   height="16"
   id="Layer_1"
   version="1.1"
   viewBox="0 0 16 16"
   width="16"
   xml:space="preserve"
   inkscape:version="0.48.5 r10040"
   sodipodi:docname="telefon.svg"><metadata
     id="metadata12"><rdf:RDF><cc:Work
         rdf:about=""><dc:format>image/svg+xml</dc:format><dc:type
           rdf:resource="http://purl.org/dc/dcmitype/StillImage" /><dc:title></dc:title></cc:Work></rdf:RDF></metadata><defs
     id="defs10" /><sodipodi:namedview
     pagecolor="#ffffff"
     bordercolor="#666666"
     borderopacity="1"
     objecttolerance="10"
     gridtolerance="10"
     guidetolerance="10"
     inkscape:pageopacity="0"
     inkscape:pageshadow="2"
     inkscape:window-width="1920"
     inkscape:window-height="1052"
     id="namedview8"
     showgrid="true"
     inkscape:zoom="55.77837"
     inkscape:cx="1.3750078"
     inkscape:cy="7.3101625"
     inkscape:window-x="0"
     inkscape:window-y="28"
     inkscape:window-maximized="1"
     inkscape:current-layer="Layer_1"><inkscape:grid
       type="xygrid"
       id="grid2991"
       empspacing="5"
       visible="true"
       enabled="true"
       snapvisiblegridlinesonly="true" /></sodipodi:namedview><path
     style="fill:#bebebe;fill-opacity:1;stroke:none"
     d="M 5 0 C 3.892 0 3 0.892 3 2 L 3 14 C 3 15.108 3.892 16 5 16 L 11 16 C 12.108 16 13 15.108 13 14 L 13 2 C 13 0.892 12.108 0 11 0 L 5 0 z M 5 2 L 11 2 L 11 10 L 5 10 L 5 2 z M 8 11 C 9.1045695 11 10 11.89543 10 13 C 10 14.10457 9.1045695 15 8 15 C 6.8954305 15 6 14.10457 6 13 C 6 11.89543 6.8954305 11 8 11 z "
     id="rect3799" /><path
     sodipodi:type="arc"
     style="opacity:1;fill:#bebebe;fill-opacity:1;stroke:none"
     id="path3007"
     sodipodi:cx="8"
     sodipodi:cy="13.895435"
     sodipodi:rx="1"
     sodipodi:ry="1.1045647"
     d="m 9,13.895435 a 1,1.1045647 0 1 1 -2,0 1,1.1045647 0 1 1 2,0 z"
     transform="matrix(1,0,0,0.90533405,0,0.41998925)" /></svg>