<?xml version="1.0" encoding="UTF-8" standalone="no"?>
<!-- Created with Inkscape (http://www.inkscape.org/) -->

<svg
   xmlns:dc="http://purl.org/dc/elements/1.1/"
   xmlns:cc="http://creativecommons.org/ns#"
   xmlns:rdf="http://www.w3.org/1999/02/22-rdf-syntax-ns#"
   xmlns:svg="http://www.w3.org/2000/svg"
   xmlns="http://www.w3.org/2000/svg"
   xmlns:xlink="http://www.w3.org/1999/xlink"
   xmlns:sodipodi="http://sodipodi.sourceforge.net/DTD/sodipodi-0.dtd"
   xmlns:inkscape="http://www.inkscape.org/namespaces/inkscape"
   width="48"
   height="48"
   id="svg4230"
   version="1.1"
   inkscape:version="0.48.5 r"
   sodipodi:docname="android-studio-alt.svg">
  <defs
     id="defs4232">
    <linearGradient
       id="linearGradient3796">
      <stop
         style="stop-color:#f7f7f7;stop-opacity:1;"
         offset="0"
         id="stop3798" />
      <stop
         style="stop-color:#ececec;stop-opacity:1;"
         offset="1"
         id="stop3800" />
    </linearGradient>
    <linearGradient
       id="linearGradient4524">
      <stop
         style="stop-color:#1c5ed1;stop-opacity:1;"
         offset="0"
         id="stop4526" />
      <stop
         style="stop-color:#3675e3;stop-opacity:1;"
         offset="1"
         id="stop4528" />
    </linearGradient>
    <linearGradient
       id="linearGradient4243">
      <stop
         style="stop-color:#000000;stop-opacity:1;"
         offset="0"
         id="stop4245" />
      <stop
         style="stop-color:#000000;stop-opacity:0;"
         offset="1"
         id="stop4247" />
    </linearGradient>
    <radialGradient
       inkscape:collect="always"
       xlink:href="#linearGradient4243"
       id="radialGradient4274"
       gradientUnits="userSpaceOnUse"
       gradientTransform="matrix(1.0434782,0,0,0.1956518,-1.0434797,35.184809)"
       cx="24.000001"
       cy="42.499991"
       fx="24.000001"
       fy="42.499991"
       r="23" />
    <linearGradient
       id="linearGradient3068-1">
      <stop
         style="stop-color:#dfdfdf;stop-opacity:1;"
         offset="0"
         id="stop3070-5" />
      <stop
         style="stop-color:#ffffff;stop-opacity:1;"
         offset="1"
         id="stop3072-7" />
    </linearGradient>
    <linearGradient
       inkscape:collect="always"
       xlink:href="#linearGradient3068-1"
       id="linearGradient4245"
       x1="24.230993"
       y1="1043.1351"
       x2="24.230993"
       y2="1010.4795"
       gradientUnits="userSpaceOnUse" />
    <linearGradient
       inkscape:collect="always"
       xlink:href="#SVGID_3_"
       id="linearGradient4522"
       gradientUnits="userSpaceOnUse"
       x1="143.38161"
       y1="188.45171"
       x2="382.5708"
       y2="427.64099" />
    <linearGradient
       inkscape:collect="always"
       xlink:href="#SVGID_4_"
       id="linearGradient4525"
       gradientUnits="userSpaceOnUse"
       x1="87.944702"
       y1="334.8743"
       x2="282.9447"
       y2="265.70761" />
    <radialGradient
       inkscape:collect="always"
       xlink:href="#SVGID_5_"
       id="radialGradient4527"
       gradientUnits="userSpaceOnUse"
       cx="103.4552"
       cy="88.5"
       r="530.87488" />
    <linearGradient
       inkscape:collect="always"
       xlink:href="#SVGID_3_"
       id="linearGradient4579"
       gradientUnits="userSpaceOnUse"
       x1="143.38161"
       y1="188.45171"
       x2="382.5708"
       y2="427.64099" />
    <linearGradient
       inkscape:collect="always"
       xlink:href="#SVGID_4_"
       id="linearGradient4581"
       gradientUnits="userSpaceOnUse"
       x1="87.944702"
       y1="334.8743"
       x2="282.9447"
       y2="265.70761" />
    <radialGradient
       inkscape:collect="always"
       xlink:href="#SVGID_5_"
       id="radialGradient4583"
       gradientUnits="userSpaceOnUse"
       cx="103.4552"
       cy="88.5"
       r="530.87488" />
    <radialGradient
       gradientUnits="userSpaceOnUse"
       r="530.87488"
       cy="88.5"
       cx="103.4552"
       id="SVGID_5_">
      <stop
         id="stop4401"
         style="stop-color:#FFFFFF"
         offset="0" />
      <stop
         id="stop4403"
         style="stop-color:#FFFFFF;stop-opacity:0"
         offset="1" />
    </radialGradient>
    <radialGradient
       inkscape:collect="always"
       xlink:href="#SVGID_5_"
       id="radialGradient4589"
       gradientUnits="userSpaceOnUse"
       cx="103.4552"
       cy="88.5"
       r="530.87488"
       gradientTransform="translate(-570,876.3622)" />
    <linearGradient
       inkscape:collect="always"
       xlink:href="#SVGID_3_"
       id="linearGradient4635"
       gradientUnits="userSpaceOnUse"
       x1="143.38161"
       y1="188.45171"
       x2="382.5708"
       y2="427.64099" />
    <linearGradient
       inkscape:collect="always"
       xlink:href="#SVGID_4_"
       id="linearGradient4637"
       gradientUnits="userSpaceOnUse"
       x1="87.944702"
       y1="334.8743"
       x2="282.9447"
       y2="265.70761" />
    <defs
       id="defs4318">
      <path
         inkscape:connector-curvature="0"
         id="SVGID_1_"
         d="m 425.6,445.6 0,0 -32,-55.4 C 440.3,350.8 470,291.9 470,226 470,107.3 373.7,11 255,11 136.3,11 40,107.3 40,226 c 0,65.9 29.7,124.8 76.4,164.3 l -32,55.4 c -1,1.7 -1.5,3.5 -1.7,5.4 L 80,487.3 c -0.1,1.3 0.6,2.6 1.7,3.3 l 0,0 c 0,0 0,0 0,0 1.1,0.7 2.5,0.6 3.7,-0.2 l 30,-20.4 c 1.6,-1.1 2.9,-2.5 3.9,-4.2 l 0,0 30.3,-52.4 c 31.1,17.5 67.1,27.6 105.4,27.6 38.3,0 74.3,-10.1 105.5,-27.7 l 30.3,52.4 c 1,1.7 2.3,3.1 3.9,4.2 l 30,20.5 c 1.1,0.8 2.5,0.8 3.7,0.2 l 0,0 c 0,0 0,0 0,0 1.1,-0.7 1.8,-1.9 1.7,-3.3 l -2.7,-36.2 c -0.3,-1.9 -0.8,-3.8 -1.8,-5.5 z" />
    </defs>
    <clipPath
       id="SVGID_2_">
      <use
         height="1"
         width="1"
         y="0"
         x="0"
         style="overflow:visible"
         xlink:href="#SVGID_1_"
         overflow="visible"
         id="use4322" />
    </clipPath>
    <linearGradient
       inkscape:collect="always"
       xlink:href="#SVGID_3_"
       id="linearGradient4682"
       gradientUnits="userSpaceOnUse"
       x1="143.38161"
       y1="188.45171"
       x2="382.5708"
       y2="427.64099" />
    <linearGradient
       inkscape:collect="always"
       xlink:href="#SVGID_4_"
       id="linearGradient4684"
       gradientUnits="userSpaceOnUse"
       x1="87.944702"
       y1="334.8743"
       x2="282.9447"
       y2="265.70761" />
    <clipPath
       clipPathUnits="userSpaceOnUse"
       id="clipPath3117">
      <rect
         rx="92.652077"
         ry="92.430649"
         y="839.29486"
         x="53.517139"
         height="451.88318"
         width="452.9657"
         id="rect3119"
         style="fill:#7cb342;fill-opacity:1;stroke:none;display:inline" />
    </clipPath>
    <clipPath
       clipPathUnits="userSpaceOnUse"
       id="clipPath3121">
      <rect
         rx="9"
         ry="9"
         y="1006.3622"
         x="2"
         height="44"
         width="44"
         id="rect3123"
         style="fill:#7cb342;fill-opacity:1;stroke:none;display:inline" />
    </clipPath>
  </defs>
  <sodipodi:namedview
     id="base"
     pagecolor="#ffffff"
     bordercolor="#666666"
     borderopacity="1.0"
     inkscape:pageopacity="0.0"
     inkscape:pageshadow="2"
     inkscape:zoom="9.4562896"
     inkscape:cx="32.604162"
     inkscape:cy="19.66145"
     inkscape:document-units="px"
     inkscape:current-layer="layer1"
     showgrid="true"
     inkscape:showpageshadow="false"
     borderlayer="true"
     inkscape:window-width="1366"
     inkscape:window-height="736"
     inkscape:window-x="0"
     inkscape:window-y="32"
     inkscape:window-maximized="1"
     showguides="true"
     inkscape:guide-bbox="true">
    <inkscape:grid
       type="xygrid"
       id="grid4162" />
  </sodipodi:namedview>
  <metadata
     id="metadata4235">
    <rdf:RDF>
      <cc:Work
         rdf:about="">
        <dc:format>image/svg+xml</dc:format>
        <dc:type
           rdf:resource="http://purl.org/dc/dcmitype/StillImage" />
        <dc:title />
      </cc:Work>
    </rdf:RDF>
  </metadata>
  <g
     inkscape:groupmode="layer"
     id="layer3"
     inkscape:label="Fake blur shadow"
     style="display:inline"
     sodipodi:insensitive="true">
    <path
       style="opacity:0.06000001;fill:#000000;fill-opacity:1;stroke:none"
       d="M 10,1 C 5.014,1 1,5.014 1,10 l 0,28 c 0,4.986 4.014,9 9,9 l 28,0 c 4.986,0 9,-4.014 9,-9 L 47,10 C 47,5.014 42.986,1 38,1 L 10,1 z m 0.5,0.5 27,0 c 4.986,0 9,4.014 9,9 l 0,27 c 0,4.986 -4.014,9 -9,9 l -27,0 c -4.986,0 -9,-4.014 -9,-9 l 0,-27 c 0,-4.986 4.014,-9 9,-9 z"
       id="rect3829"
       inkscape:connector-curvature="0" />
    <path
       style="opacity:0.12000002;fill:#000000;fill-opacity:1;stroke:none"
       d="m 10.5,1.5 c -4.986,0 -9,4.014 -9,9 l 0,27 c 0,4.986 4.014,9 9,9 l 27,0 c 4.986,0 9,-4.014 9,-9 l 0,-27 c 0,-4.986 -4.014,-9 -9,-9 l -27,0 z m 0.25,0.25 26.5,0 c 4.986,0 9,4.014 9,9 l 0,26.5 c 0,4.986 -4.014,9 -9,9 l -26.5,0 c -4.986,0 -9,-4.014 -9,-9 l 0,-26.5 c 0,-4.986 4.014,-9 9,-9 z"
       id="rect3827"
       inkscape:connector-curvature="0" />
    <rect
       style="opacity:0.23999999;fill:#000000;fill-opacity:1;stroke:none"
       id="rect3038-4"
       width="44.5"
       height="44.5"
       x="1.75"
       y="1.75"
       ry="9"
       rx="9" />
  </g>
  <g
     inkscape:groupmode="layer"
     id="layer6"
     inkscape:label="Blob"
     style="display:inline"
     sodipodi:insensitive="true">
    <path
       style="opacity:0.3;fill:url(#radialGradient4274);fill-opacity:1;stroke:none"
       d="M 1.03125,39 C 1.5192036,43.518898 5.3471961,47 10,47 l 28,0 c 4.652804,0 8.480796,-3.481102 8.96875,-8 l -45.9375,0 z"
       id="rect4241"
       inkscape:connector-curvature="0" />
  </g>
  <g
     inkscape:groupmode="layer"
     id="layer2"
     inkscape:label="Baseplate"
     style="display:inline">
    <rect
       style="fill:#7cb342;fill-opacity:1;stroke:none"
       id="rect3038"
       width="44"
       height="44"
       x="2"
       y="1.9999826"
       ry="9"
       rx="9" />
    <path
       style="fill:#8bc34a;fill-opacity:1;stroke:none"
       d="M 2 22.5 L 2 37 C 2 41.986 6.014 46 11 46 L 37 46 C 41.986 46 46 41.986 46 37 L 46 22.5 L 2 22.5 z "
       id="rect3816" />
  </g>
  <g
     inkscape:label="Symbol"
     inkscape:groupmode="layer"
     id="layer1"
     transform="translate(0,-1004.3622)"
     style="display:inline">
    <path
       id="path4372"
       d="m 291.3,1095.0622 c -3.1,3.1 -7.2,4.6 -11.2,4.6 l -0.2,-0.2 v 0.2 c -4.1,0 -8.2,-1.5 -11.2,-4.6 l -7.7,-7.7 -36.4,63 c 16.4,9.1 35.3,14.3 55.4,14.3 20.1,0 39,-5.2 55.5,-14.3 l -36.4,-63.1 -7.8,7.8 z"
       inkscape:connector-curvature="0"
       style="fill:none" />
    <path
       id="path4398"
       d="m 279.9,1049.6622 0,0 0.2,0 c 16.5,-0.1 29.9,-13.5 29.9,-30 0,-16.5 -13.4,-29.9 -29.9,-30 l -0.2,-0.3 v 0.3 c -16.5,0 -29.9,13.4 -29.9,30 0,16.5 13.4,30 29.9,30 z"
       inkscape:connector-curvature="0"
       style="fill:none" />
    <g
       clip-path="url(#SVGID_2_)"
       id="g4332"
       transform="matrix(0.10232558,0,0,0.09998581,-2.0930232,1004.2654)">
      <rect
         style="fill:#263238;fill-opacity:0.05"
         x="15"
         y="223.5"
         width="480"
         height="2.5"
         id="rect4334" />
      <rect
         style="fill:#ffffff;fill-opacity:0.05"
         x="15"
         y="226"
         width="480"
         height="2.5"
         id="rect4336" />
    </g>
    <path
       id="path3829"
       style="opacity:0.15;fill:#000000"
       d="m 27.64266,1020.0778 h -1.214219 v -3.9043 c 0,0 0,-0.012 0,-0.012 h -2.42844 -2.409012 c 0,0 0,0.012 0,0.012 v 3.9043 h -1.233648 c -1.204506,0 -2.185596,0.9834 -2.185596,2.1907 v 4.9656 h 0.0097 c -0.0097,0.1849 0.09714,0.4089 0.339982,0.6425 l 4.380905,4.3912 c 0.301127,0.3019 0.699392,0.4479 1.087941,0.4479 v -0.02 l 0.01943,0.02 c 0.398264,0 0.796529,-0.146 1.087941,-0.4479 l 4.380906,-4.3912 c 0.242843,-0.2434 0.349695,-0.4673 0.339981,-0.6425 h 0.0097 v -4.9656 c 0,-1.2073 -0.98109,-2.1907 -2.185596,-2.1907 z m -3.632945,7.7696 -0.01943,0 v 0 c -1.602771,0 -2.904414,-1.3144 -2.904414,-2.9209 0,-1.6161 1.301643,-2.9208 2.904414,-2.9208 v -0.029 l 0.01943,0.029 c 1.60277,0.012 2.904413,1.3144 2.904413,2.9208 0,1.6065 -1.301643,2.9112 -2.904413,2.9209 z m 11.161109,0 c 0,2.7847 -1.019945,5.3356 -2.710139,7.3023 -0.864524,1.0029 -1.903897,1.8597 -3.069548,2.5023 -1.60277,0.886 -3.438671,1.3923 -5.391136,1.3923 -1.952466,0 -3.788366,-0.5063 -5.381423,-1.3923 l 3.535808,-6.1339 -2.865558,-2.8722 -11.8605012,20.5826 c -0.097138,0.1656 -0.1457064,0.3408 -0.1651339,0.5258 l -0.2622715,3.5344 c -0.00972,0.1266 0.058283,0.2531 0.165134,0.3213 l 0,0 c 0,0 0,0 0,0 0.1068514,0.068 0.2428439,0.059 0.3594095,-0.02 l 2.9141271,-1.9862 c 0.15542,-0.1066 0.2817,-0.2434 0.378838,-0.409 l 0,0 5.857396,-10.1745 c 2.166168,1.2171 4.662605,1.9279 7.324175,1.9279 2.661569,0 5.158006,-0.7011 7.333888,-1.9181 1.155937,-0.6426 2.214737,-1.441 3.156972,-2.3562 2.81699,-2.7457 4.575181,-6.5818 4.575181,-10.8172 h -3.895218 z m 5.565985,21.9166 c -0.0097,-0.1849 -0.068,-0.3699 -0.165135,-0.5257 l 0,0 -6.090526,-10.5639 -2.020463,-3.5247 -3.74951,-6.5038 -2.86556,2.8722 3.535809,6.1436 1.942751,3.3688 5.857397,10.1648 c 0.09713,0.1656 0.223417,0.3018 0.378837,0.4089 l 2.914128,1.996 c 0.106854,0.079 0.242843,0.079 0.35941,0.02 l 0,0 c 0,0 0,0 0,0 0.106853,-0.068 0.174846,-0.185 0.165133,-0.3213 l -0.262271,-3.5344 z"
       inkscape:connector-curvature="0"
       clip-path="url(#clipPath3121)" />
    <g
       id="g4706"
       transform="matrix(0.0971376,0,0,0.0973703,-3.1985264,924.63979)"
       clip-path="url(#clipPath3117)">
      <path
         style="fill:#e1e1e1"
         inkscape:connector-curvature="0"
         d="m 452.3,1274.7622 c -0.1,-1.9 -0.7,-3.8 -1.7,-5.4 l 0,0 -62.7,-108.5 -20.8,-36.2 -38.6,-66.8 -29.5,29.5 36.4,63.1 20,34.6 60.3,104.4 c 1,1.7 2.3,3.1 3.9,4.2 l 30,20.5 c 1.1,0.8 2.5,0.8 3.7,0.2 l 0,0 c 0,0 0,0 0,0 1.1,-0.7 1.8,-1.9 1.7,-3.3 l -2.7,-36.3 z"
         id="path4364" />
      <path
         style="fill:#f1f1f1"
         inkscape:connector-curvature="0"
         d="m 395,1049.6622 c 0,28.6 -10.5,54.8 -27.9,75 -8.9,10.3 -19.6,19.1 -31.6,25.7 -16.5,9.1 -35.4,14.3 -55.5,14.3 -20.1,0 -39,-5.2 -55.4,-14.3 l 36.4,-63 -29.5,-29.5 -122.1,211.4 c -1,1.7 -1.5,3.5 -1.7,5.4 l -2.7,36.3 c -0.1,1.3 0.6,2.6 1.7,3.3 l 0,0 c 0,0 0,0 0,0 1.1,0.7 2.5,0.6 3.7,-0.2 l 30,-20.4 c 1.6,-1.1 2.9,-2.5 3.9,-4.2 l 0,0 60.3,-104.5 c 22.3,12.5 48,19.8 75.4,19.8 27.4,0 53.1,-7.2 75.5,-19.7 11.9,-6.6 22.8,-14.8 32.5,-24.2 29,-28.2 47.1,-67.6 47.1,-111.1 H 395 z"
         id="path4370" />
      <path
         style="fill:#646464"
         inkscape:connector-curvature="0"
         d="M 317.5,969.8622 H 305 v -40.1 c 0,0 0,-0.1 0,-0.1 h -25 -24.8 c 0,0 0,0.1 0,0.1 v 40.1 h -12.7 c -12.4,0 -22.5,10.1 -22.5,22.5 v 51 h 0.1 c -0.1,1.9 1,4.2 3.5,6.6 l 45.1,45.1 c 3.1,3.1 7.2,4.6 11.2,4.6 v -0.2 l 0.2,0.2 c 4.1,0 8.2,-1.5 11.2,-4.6 l 45.1,-45.1 c 2.5,-2.5 3.6,-4.8 3.5,-6.6 h 0.1 v -51 c 0,-12.4 -10.1,-22.5 -22.5,-22.5 z m -37.4,79.8 -0.2,0 v 0 c -16.5,0 -29.9,-13.5 -29.9,-30 0,-16.6 13.4,-30 29.9,-30 v -0.3 l 0.2,0.3 c 16.5,0.1 29.9,13.5 29.9,30 0,16.5 -13.4,29.9 -29.9,30 z"
         id="path4384" />
    </g>
  </g>
  <g
     inkscape:groupmode="layer"
     id="layer4"
     inkscape:label="Inset"
     style="display:inline"
     sodipodi:insensitive="true">
    <path
       style="opacity:0.15;fill:#000000;fill-opacity:1;stroke:none"
       d="m 2,34 0,3 c 0,4.986 4.014,9 9,9 l 26,0 c 4.986,0 9,-4.014 9,-9 l 0,-3 c 0,4.986 -4.014,9 -9,9 L 11,43 C 6.014,43 2,38.986 2,34 Z"
       id="rect3038-42"
       inkscape:connector-curvature="0" />
  </g>
  <g
     inkscape:groupmode="layer"
     id="layer7"
     inkscape:label="Baseshape"
     sodipodi:insensitive="true"
     style="display:none">
    <rect
       rx="9"
       ry="9"
       y="2"
       x="2"
       height="44"
       width="44"
       id="rect4169"
       style="fill:#abe1ad;fill-opacity:1;stroke:none;display:inline" />
  </g>
</svg>
