<?xml version="1.0" encoding="UTF-8" standalone="no"?>
<!-- Created with Inkscape (http://www.inkscape.org/) -->

<svg
   xmlns:dc="http://purl.org/dc/elements/1.1/"
   xmlns:cc="http://creativecommons.org/ns#"
   xmlns:rdf="http://www.w3.org/1999/02/22-rdf-syntax-ns#"
   xmlns:svg="http://www.w3.org/2000/svg"
   xmlns="http://www.w3.org/2000/svg"
   xmlns:xlink="http://www.w3.org/1999/xlink"
   xmlns:sodipodi="http://sodipodi.sourceforge.net/DTD/sodipodi-0.dtd"
   xmlns:inkscape="http://www.inkscape.org/namespaces/inkscape"
   width="48"
   height="48"
   id="svg4230"
   version="1.1"
   inkscape:version="0.48.5 r"
   sodipodi:docname="genymotion.svg">
  <defs
     id="defs4232">
    <linearGradient
       id="linearGradient3778">
      <stop
         style="stop-color:#ea3e78;stop-opacity:1;"
         offset="0"
         id="stop3780" />
      <stop
         style="stop-color:#e61a5f;stop-opacity:1;"
         offset="1"
         id="stop3782" />
    </linearGradient>
    <linearGradient
       id="linearGradient3796">
      <stop
         style="stop-color:#f7f7f7;stop-opacity:1;"
         offset="0"
         id="stop3798" />
      <stop
         style="stop-color:#ececec;stop-opacity:1;"
         offset="1"
         id="stop3800" />
    </linearGradient>
    <linearGradient
       id="linearGradient4524">
      <stop
         style="stop-color:#1c5ed1;stop-opacity:1;"
         offset="0"
         id="stop4526" />
      <stop
         style="stop-color:#3675e3;stop-opacity:1;"
         offset="1"
         id="stop4528" />
    </linearGradient>
    <linearGradient
       id="linearGradient4243">
      <stop
         style="stop-color:#000000;stop-opacity:1;"
         offset="0"
         id="stop4245" />
      <stop
         style="stop-color:#000000;stop-opacity:0;"
         offset="1"
         id="stop4247" />
    </linearGradient>
    <radialGradient
       inkscape:collect="always"
       xlink:href="#linearGradient4243"
       id="radialGradient4274"
       gradientUnits="userSpaceOnUse"
       gradientTransform="matrix(1.0434782,0,0,0.1956518,-1.0434797,35.184809)"
       cx="24.000001"
       cy="42.499991"
       fx="24.000001"
       fy="42.499991"
       r="23" />
    <linearGradient
       id="linearGradient3068-1">
      <stop
         style="stop-color:#dfdfdf;stop-opacity:1;"
         offset="0"
         id="stop3070-5" />
      <stop
         style="stop-color:#ffffff;stop-opacity:1;"
         offset="1"
         id="stop3072-7" />
    </linearGradient>
    <linearGradient
       inkscape:collect="always"
       xlink:href="#linearGradient3068-1"
       id="linearGradient4245"
       x1="24.230993"
       y1="1043.1351"
       x2="24.230993"
       y2="1010.4795"
       gradientUnits="userSpaceOnUse" />
    <linearGradient
       inkscape:collect="always"
       xlink:href="#linearGradient3778"
       id="linearGradient3784"
       x1="2"
       y1="23.999983"
       x2="46"
       y2="23.999983"
       gradientUnits="userSpaceOnUse"
       gradientTransform="translate(-1.7404556e-5,-47.999983)" />
  </defs>
  <sodipodi:namedview
     id="base"
     pagecolor="#ffffff"
     bordercolor="#666666"
     borderopacity="1.0"
     inkscape:pageopacity="0.0"
     inkscape:pageshadow="2"
     inkscape:zoom="9.4562896"
     inkscape:cx="18.04813"
     inkscape:cy="22.586325"
     inkscape:document-units="px"
     inkscape:current-layer="layer1"
     showgrid="true"
     inkscape:showpageshadow="false"
     borderlayer="true"
     inkscape:window-width="1366"
     inkscape:window-height="736"
     inkscape:window-x="0"
     inkscape:window-y="32"
     inkscape:window-maximized="1"
     showguides="true"
     inkscape:guide-bbox="true"
     inkscape:snap-global="false">
    <inkscape:grid
       type="xygrid"
       id="grid4162" />
  </sodipodi:namedview>
  <metadata
     id="metadata4235">
    <rdf:RDF>
      <cc:Work
         rdf:about="">
        <dc:format>image/svg+xml</dc:format>
        <dc:type
           rdf:resource="http://purl.org/dc/dcmitype/StillImage" />
        <dc:title />
      </cc:Work>
    </rdf:RDF>
  </metadata>
  <g
     inkscape:groupmode="layer"
     id="layer3"
     inkscape:label="Fake blur shadow"
     style="display:inline"
     sodipodi:insensitive="true">
    <path
       style="opacity:0.06000001;fill:#000000;fill-opacity:1;stroke:none"
       d="M 10,1 C 5.014,1 1,5.014 1,10 l 0,28 c 0,4.986 4.014,9 9,9 l 28,0 c 4.986,0 9,-4.014 9,-9 L 47,10 C 47,5.014 42.986,1 38,1 L 10,1 z m 0.5,0.5 27,0 c 4.986,0 9,4.014 9,9 l 0,27 c 0,4.986 -4.014,9 -9,9 l -27,0 c -4.986,0 -9,-4.014 -9,-9 l 0,-27 c 0,-4.986 4.014,-9 9,-9 z"
       id="rect3829"
       inkscape:connector-curvature="0" />
    <path
       style="opacity:0.12000002;fill:#000000;fill-opacity:1;stroke:none"
       d="m 10.5,1.5 c -4.986,0 -9,4.014 -9,9 l 0,27 c 0,4.986 4.014,9 9,9 l 27,0 c 4.986,0 9,-4.014 9,-9 l 0,-27 c 0,-4.986 -4.014,-9 -9,-9 l -27,0 z m 0.25,0.25 26.5,0 c 4.986,0 9,4.014 9,9 l 0,26.5 c 0,4.986 -4.014,9 -9,9 l -26.5,0 c -4.986,0 -9,-4.014 -9,-9 l 0,-26.5 c 0,-4.986 4.014,-9 9,-9 z"
       id="rect3827"
       inkscape:connector-curvature="0" />
    <rect
       style="opacity:0.23999999;fill:#000000;fill-opacity:1;stroke:none"
       id="rect3038-4"
       width="44.5"
       height="44.5"
       x="1.75"
       y="1.75"
       ry="9"
       rx="9" />
  </g>
  <g
     inkscape:groupmode="layer"
     id="layer6"
     inkscape:label="Blob"
     style="display:inline"
     sodipodi:insensitive="true">
    <path
       style="opacity:0.3;fill:url(#radialGradient4274);fill-opacity:1;stroke:none"
       d="M 1.03125,39 C 1.5192036,43.518898 5.3471961,47 10,47 l 28,0 c 4.652804,0 8.480796,-3.481102 8.96875,-8 l -45.9375,0 z"
       id="rect4241"
       inkscape:connector-curvature="0" />
  </g>
  <g
     inkscape:groupmode="layer"
     id="layer2"
     inkscape:label="Baseplate"
     style="display:inline">
    <rect
       style="fill:url(#linearGradient3784);fill-opacity:1;stroke:none"
       id="rect3038"
       width="44"
       height="44"
       x="1.9999826"
       y="-46"
       ry="9"
       rx="9"
       transform="matrix(0,1,-1,0,0,0)" />
  </g>
  <g
     inkscape:label="Symbol"
     inkscape:groupmode="layer"
     id="layer1"
     transform="translate(0,-1004.3622)"
     style="display:inline">
    <path
       inkscape:connector-curvature="0"
       d="M 14.588236,1022.872 C 10.94965,1022.872 8,1025.8217 8,1029.4602 c 0,3.6386 2.94965,6.5883 6.588236,6.5883 3.638582,0 6.588235,-2.9497 6.588235,-6.5883 0,-3.6385 -2.949653,-6.5882 -6.588235,-6.5882 z m 0,1.5686 c 2.772253,0 5.019608,2.2474 5.019608,5.0196 0,2.7723 -2.247355,5.0196 -5.019608,5.0196 -2.772256,0 -5.019606,-2.2473 -5.019606,-5.0196 0,-2.7722 2.24735,-5.0196 5.019606,-5.0196 z m 17.254902,-5.0196 c -4.504911,0 -8.156863,3.7924 -8.156863,8.4706 0,4.6782 3.651952,8.4706 8.156863,8.4706 4.50491,0 8.156862,-3.7924 8.156862,-8.4706 0,-4.6782 -3.651952,-8.4706 -8.156862,-8.4706 z m 0,1.8824 c 3.551948,0 6.431372,2.9496 6.431372,6.5882 0,3.6386 -2.879424,6.5882 -6.431372,6.5882 -3.551949,0 -6.431373,-2.9496 -6.431373,-6.5882 0,-3.6386 2.879424,-6.5882 6.431373,-6.5882 z"
       style="fill:#000000;fill-opacity:1;opacity:0.15"
       id="path3014" />
    <path
       id="path3885"
       style="fill:#ffffff;fill-opacity:1"
       d="M 14.588236,1021.872 C 10.94965,1021.872 8,1024.8217 8,1028.4602 c 0,3.6386 2.94965,6.5883 6.588236,6.5883 3.638582,0 6.588235,-2.9497 6.588235,-6.5883 0,-3.6385 -2.949653,-6.5882 -6.588235,-6.5882 z m 0,1.5686 c 2.772253,0 5.019608,2.2474 5.019608,5.0196 0,2.7723 -2.247355,5.0196 -5.019608,5.0196 -2.772256,0 -5.019606,-2.2473 -5.019606,-5.0196 0,-2.7722 2.24735,-5.0196 5.019606,-5.0196 z m 17.254902,-5.0196 c -4.504911,0 -8.156863,3.7924 -8.156863,8.4706 0,4.6782 3.651952,8.4706 8.156863,8.4706 4.50491,0 8.156862,-3.7924 8.156862,-8.4706 0,-4.6782 -3.651952,-8.4706 -8.156862,-8.4706 z m 0,1.8824 c 3.551948,0 6.431372,2.9496 6.431372,6.5882 0,3.6386 -2.879424,6.5882 -6.431372,6.5882 -3.551949,0 -6.431373,-2.9496 -6.431373,-6.5882 0,-3.6386 2.879424,-6.5882 6.431373,-6.5882 z"
       inkscape:connector-curvature="0" />
  </g>
  <g
     inkscape:groupmode="layer"
     id="layer4"
     inkscape:label="Inset"
     style="display:inline"
     sodipodi:insensitive="true">
    <path
       style="opacity:0.15;fill:#000000;fill-opacity:1;stroke:none"
       d="m 2,34 0,3 c 0,4.986 4.014,9 9,9 l 26,0 c 4.986,0 9,-4.014 9,-9 l 0,-3 c 0,4.986 -4.014,9 -9,9 L 11,43 C 6.014,43 2,38.986 2,34 Z"
       id="rect3038-42"
       inkscape:connector-curvature="0" />
  </g>
  <g
     inkscape:groupmode="layer"
     id="layer7"
     inkscape:label="Baseshape"
     sodipodi:insensitive="true"
     style="display:none">
    <rect
       rx="9"
       ry="9"
       y="2"
       x="2"
       height="44"
       width="44"
       id="rect4169"
       style="fill:#abe1ad;fill-opacity:1;stroke:none;display:inline" />
  </g>
</svg>
