<?xml version="1.0" encoding="UTF-8" standalone="no"?>
<!-- Created with Inkscape (http://www.inkscape.org/) -->

<svg
   xmlns:dc="http://purl.org/dc/elements/1.1/"
   xmlns:cc="http://creativecommons.org/ns#"
   xmlns:rdf="http://www.w3.org/1999/02/22-rdf-syntax-ns#"
   xmlns:svg="http://www.w3.org/2000/svg"
   xmlns="http://www.w3.org/2000/svg"
   xmlns:xlink="http://www.w3.org/1999/xlink"
   xmlns:sodipodi="http://sodipodi.sourceforge.net/DTD/sodipodi-0.dtd"
   xmlns:inkscape="http://www.inkscape.org/namespaces/inkscape"
   width="48"
   height="48"
   id="svg4230"
   version="1.1"
   inkscape:version="0.91pre2 r13566 custom"
   sodipodi:docname="gmail.svg">
  <defs
     id="defs4232">
    <linearGradient
       inkscape:collect="always"
       id="linearGradient4348">
      <stop
         style="stop-color:#ffffff;stop-opacity:1;"
         offset="0"
         id="stop4350" />
      <stop
         style="stop-color:#ffffff;stop-opacity:0;"
         offset="1"
         id="stop4352" />
    </linearGradient>
    <linearGradient
       inkscape:collect="always"
       id="linearGradient4284">
      <stop
         style="stop-color:#de483e;stop-opacity:0.98431373"
         offset="0"
         id="stop4286" />
      <stop
         style="stop-color:#de483e;stop-opacity:0.98431373"
         offset="1"
         id="stop4288" />
    </linearGradient>
    <linearGradient
       inkscape:collect="always"
       id="linearGradient4347">
      <stop
         style="stop-color:#ffffff;stop-opacity:1;"
         offset="0"
         id="stop4349" />
      <stop
         style="stop-color:#ffffff;stop-opacity:0;"
         offset="1"
         id="stop4351" />
    </linearGradient>
    <linearGradient
       id="linearGradient4243">
      <stop
         style="stop-color:#000000;stop-opacity:1;"
         offset="0"
         id="stop4245" />
      <stop
         style="stop-color:#000000;stop-opacity:0;"
         offset="1"
         id="stop4247" />
    </linearGradient>
    <radialGradient
       inkscape:collect="always"
       xlink:href="#linearGradient4243"
       id="radialGradient4274"
       gradientUnits="userSpaceOnUse"
       gradientTransform="matrix(1.0434782,0,0,0.1956518,-1.0434797,35.184809)"
       cx="24.000001"
       cy="42.499991"
       fx="24.000001"
       fy="42.499991"
       r="23" />
    <linearGradient
       inkscape:collect="always"
       xlink:href="#linearGradient4347"
       id="linearGradient4353"
       x1="26.516504"
       y1="2.5683894"
       x2="26.516504"
       y2="40.486992"
       gradientUnits="userSpaceOnUse" />
    <linearGradient
       inkscape:collect="always"
       xlink:href="#linearGradient4284"
       id="linearGradient4290"
       x1="23.246136"
       y1="29.438446"
       x2="23.246136"
       y2="6.2806997"
       gradientUnits="userSpaceOnUse" />
    <linearGradient
       inkscape:collect="always"
       xlink:href="#linearGradient4348"
       id="linearGradient4354"
       x1="24.316622"
       y1="-2.2722268"
       x2="24.316622"
       y2="27.166227"
       gradientUnits="userSpaceOnUse" />
  </defs>
  <sodipodi:namedview
     id="base"
     pagecolor="#ffffff"
     bordercolor="#666666"
     borderopacity="1.0"
     inkscape:pageopacity="0.0"
     inkscape:pageshadow="2"
     inkscape:zoom="1"
     inkscape:cx="24"
     inkscape:cy="24"
     inkscape:document-units="px"
     inkscape:current-layer="layer1"
     showgrid="false"
     inkscape:showpageshadow="false"
     borderlayer="true"
     inkscape:window-width="1920"
     inkscape:window-height="954"
     inkscape:window-x="0"
     inkscape:window-y="25"
     inkscape:window-maximized="1"
     showguides="false"
     inkscape:guide-bbox="true">
    <inkscape:grid
       type="xygrid"
       id="grid4162" />
    <sodipodi:guide
       position="1.0000013,47.000017"
       orientation="46,0"
       id="guide4163" />
    <sodipodi:guide
       position="1.0000013,1.0000174"
       orientation="0,45.999999"
       id="guide4165" />
    <sodipodi:guide
       position="47,1.0000174"
       orientation="-46,0"
       id="guide4167" />
    <sodipodi:guide
       position="47,47.000017"
       orientation="0,-45.999999"
       id="guide4169" />
    <sodipodi:guide
       position="2.0000007,46.000017"
       orientation="44,0"
       id="guide4173" />
    <sodipodi:guide
       position="2.0000007,2.0000174"
       orientation="0,43.999999"
       id="guide4175" />
    <sodipodi:guide
       position="46,2.0000174"
       orientation="-44,0"
       id="guide4177" />
    <sodipodi:guide
       position="46,46.000017"
       orientation="0,-43.999999"
       id="guide4179" />
    <sodipodi:guide
       position="3,45.000017"
       orientation="42,0"
       id="guide4183" />
    <sodipodi:guide
       position="45,3.0000174"
       orientation="-42,0"
       id="guide4187" />
    <sodipodi:guide
       position="45,45.000017"
       orientation="0,-42"
       id="guide4189" />
    <sodipodi:guide
       position="3,45.000017"
       orientation="42,0"
       id="guide4193" />
    <sodipodi:guide
       position="3,3.0000174"
       orientation="0,42"
       id="guide4195" />
    <sodipodi:guide
       position="45,3.0000174"
       orientation="-42,0"
       id="guide4197" />
    <sodipodi:guide
       position="45,45.000017"
       orientation="0,-42"
       id="guide4199" />
    <sodipodi:guide
       position="3,10.000017"
       orientation="7,0"
       id="guide4203" />
    <sodipodi:guide
       position="3,3.0000174"
       orientation="0,42"
       id="guide4205" />
    <sodipodi:guide
       position="45,3.0000174"
       orientation="-7,0"
       id="guide4207" />
    <sodipodi:guide
       position="45,10.000017"
       orientation="0,-42"
       id="guide4209" />
  </sodipodi:namedview>
  <metadata
     id="metadata4235">
    <rdf:RDF>
      <cc:Work
         rdf:about="">
        <dc:format>image/svg+xml</dc:format>
        <dc:type
           rdf:resource="http://purl.org/dc/dcmitype/StillImage" />
        <dc:title />
      </cc:Work>
    </rdf:RDF>
  </metadata>
  <g
     inkscape:groupmode="layer"
     id="layer3"
     inkscape:label="Fake blur shadow"
     style="display:inline"
     sodipodi:insensitive="true">
    <path
       style="opacity:0.06000001;fill:#000000;fill-opacity:1;stroke:none"
       d="M 10,1 C 5.014,1 1,5.014 1,10 l 0,28 c 0,4.986 4.014,9 9,9 l 28,0 c 4.986,0 9,-4.014 9,-9 L 47,10 C 47,5.014 42.986,1 38,1 L 10,1 z m 0.5,0.5 27,0 c 4.986,0 9,4.014 9,9 l 0,27 c 0,4.986 -4.014,9 -9,9 l -27,0 c -4.986,0 -9,-4.014 -9,-9 l 0,-27 c 0,-4.986 4.014,-9 9,-9 z"
       id="rect3829"
       inkscape:connector-curvature="0" />
    <path
       style="opacity:0.12000002;fill:#000000;fill-opacity:1;stroke:none"
       d="m 10.5,1.5 c -4.986,0 -9,4.014 -9,9 l 0,27 c 0,4.986 4.014,9 9,9 l 27,0 c 4.986,0 9,-4.014 9,-9 l 0,-27 c 0,-4.986 -4.014,-9 -9,-9 l -27,0 z m 0.25,0.25 26.5,0 c 4.986,0 9,4.014 9,9 l 0,26.5 c 0,4.986 -4.014,9 -9,9 l -26.5,0 c -4.986,0 -9,-4.014 -9,-9 l 0,-26.5 c 0,-4.986 4.014,-9 9,-9 z"
       id="rect3827"
       inkscape:connector-curvature="0" />
    <rect
       style="opacity:0.23999999;fill:#000000;fill-opacity:1;stroke:none"
       id="rect3038-4"
       width="44.5"
       height="44.5"
       x="1.75"
       y="1.75"
       ry="9"
       rx="9" />
  </g>
  <g
     inkscape:groupmode="layer"
     id="layer6"
     inkscape:label="Blob"
     style="display:inline"
     sodipodi:insensitive="true">
    <path
       style="opacity:0.3;fill:url(#radialGradient4274);fill-opacity:1;stroke:none"
       d="M 1.03125,39 C 1.5192036,43.518898 5.3471961,47 10,47 l 28,0 c 4.652804,0 8.480796,-3.481102 8.96875,-8 l -45.9375,0 z"
       id="rect4241"
       inkscape:connector-curvature="0" />
  </g>
  <g
     inkscape:groupmode="layer"
     id="layer2"
     inkscape:label="Baseplate"
     style="display:inline">
    <rect
       style="fill:#e6e6e6;fill-opacity:1;stroke:none"
       id="rect3038"
       width="44"
       height="44"
       x="2"
       y="1.9999826"
       ry="9"
       rx="9" />
  </g>
  <g
     inkscape:label="Symbol"
     inkscape:groupmode="layer"
     id="layer1"
     transform="translate(0,-1004.3622)"
     style="display:inline;opacity:0.99">
    <path
       style="display:inline;fill:#e6e6e6;fill-opacity:1;stroke:none"
       d="M 24 15.677734 C 21.699428 15.677734 19.399536 16.557495 17.636719 18.320312 L 2 33.957031 L 2 37 C 2 41.986 6.014 46 11 46 L 37 46 C 41.986 46 46 41.986 46 37 L 46 33.957031 L 30.363281 18.320312 C 28.600464 16.557495 26.300572 15.677734 24 15.677734 z "
       id="rect4280"
       transform="translate(0,1004.3622)" />
    <path
       id="path4345"
       d="M 24 15.677734 C 21.699428 15.677734 19.399536 16.557495 17.636719 18.320312 L 2 33.957031 L 2 37 C 2 41.986 6.014 46 11 46 L 37 46 C 41.986 46 46 41.986 46 37 L 46 33.957031 L 30.363281 18.320312 C 28.600464 16.557495 26.300572 15.677734 24 15.677734 z "
       style="display:inline;fill:url(#linearGradient4353);fill-opacity:1;stroke:none"
       transform="translate(0,1004.3622)" />
    <path
       style="display:inline;fill:#df4c42;fill-opacity:1;stroke:none"
       d="M 2.2558594 8.8925781 C 2.0943454 9.5693462 2 10.272377 2 11 L 2 37 C 2 40.132613 3.5854796 42.879428 6 44.490234 L 6 37 L 6 25.476562 L 6 13.238281 C 4.3215322 12.242616 2.997019 10.721456 2.2558594 8.8925781 z M 45.744141 8.8925781 C 45.002981 10.721456 43.678468 12.242616 42 13.238281 L 42 25.476562 L 42 37 L 42 44.490234 C 44.41452 42.879428 46 40.132613 46 37 L 46 11 C 46 10.272377 45.905655 9.5693462 45.744141 8.8925781 z "
       transform="translate(0,1004.3622)"
       id="rect4297" />
    <path
       style="display:inline;opacity:0.15;fill:#000000;fill-opacity:1;stroke:none"
       d="M 24 14.677734 C 21.699428 14.677734 19.399536 15.557513 17.636719 17.320312 L 2 32.957031 L 2 33.957031 L 17.636719 18.320312 C 19.399536 16.557495 21.699428 15.677734 24 15.677734 C 26.300572 15.677734 28.600464 16.557495 30.363281 18.320312 L 46 33.957031 L 46 32.957031 L 30.363281 17.320312 C 28.600464 15.557513 26.300572 14.677734 24 14.677734 z "
       transform="translate(0,1004.3622)"
       id="path4293" />
    <path
       style="display:inline;fill:#e6e6e6;fill-opacity:1;stroke:none"
       d="M 11,2 C 8.5109679,2 6.2646435,3.0003988 4.6389835,4.6226684 4.2325685,5.0282358 3.864945,5.4726701 3.5420186,5.9500569 3.3805554,6.1887503 3.2302665,6.4356818 3.09189,6.6901121 2.9535136,6.9445424 3.5562535,7.2064715 3.4424402,7.47516 2.9871869,8.5499143 4.0051404,9.7328203 4.0019531,10.976562 L 17.636719,24.611328 c 3.525634,3.525634 9.200928,3.525634 12.726562,0 L 43.998047,10.976562 C 43.99486,9.7328203 44.968619,8.5499143 44.513366,7.47516 44.399553,7.2064715 45.046487,6.9445424 44.90811,6.6901121 44.769734,6.4356818 44.619445,6.1887503 44.457982,5.9500569 44.135055,5.4726702 43.767432,5.0282358 43.361017,4.6226684 41.735356,3.0003988 39.489032,2 37,2 Z"
       id="rect3452"
       inkscape:connector-curvature="0"
       sodipodi:nodetypes="ssssscsscssssss"
       transform="translate(0,1004.3622)" />
    <path
       transform="translate(0,1004.3622)"
       sodipodi:nodetypes="ssssscsscssssss"
       inkscape:connector-curvature="0"
       id="path4346"
       d="M 11,2 C 8.5109679,2 6.2646435,3.0003988 4.6389835,4.6226684 4.2325685,5.0282358 3.864945,5.4726701 3.5420186,5.9500569 3.3805554,6.1887503 3.2302665,6.4356818 3.09189,6.6901121 2.9535136,6.9445424 3.5562535,7.2064715 3.4424402,7.47516 2.9871869,8.5499143 4.0051404,9.7328203 4.0019531,10.976562 L 17.636719,24.611328 c 3.525634,3.525634 9.200928,3.525634 12.726562,0 L 43.998047,10.976562 C 43.99486,9.7328203 44.968619,8.5499143 44.513366,7.47516 44.399553,7.2064715 45.046487,6.9445424 44.90811,6.6901121 44.769734,6.4356818 44.619445,6.1887503 44.457982,5.9500569 44.135055,5.4726702 43.767432,5.0282358 43.361017,4.6226684 41.735356,3.0003988 39.489032,2 37,2 Z"
       style="display:inline;fill:url(#linearGradient4354);fill-opacity:1;stroke:none" />
    <path
       style="color:#000000;font-style:normal;font-variant:normal;font-weight:normal;font-stretch:normal;font-size:medium;line-height:normal;font-family:sans-serif;text-indent:0;text-align:start;text-decoration:none;text-decoration-line:none;text-decoration-style:solid;text-decoration-color:#000000;letter-spacing:normal;word-spacing:normal;text-transform:none;direction:ltr;block-progression:tb;writing-mode:lr-tb;baseline-shift:baseline;text-anchor:start;clip-rule:nonzero;display:inline;overflow:visible;visibility:visible;opacity:1;isolation:auto;mix-blend-mode:normal;color-interpolation:sRGB;color-interpolation-filters:linearRGB;solid-color:#000000;solid-opacity:1;fill:url(#linearGradient4290);fill-opacity:1;fill-rule:nonzero;stroke:none;stroke-width:8;stroke-linecap:butt;stroke-linejoin:miter;stroke-miterlimit:4;stroke-dasharray:none;stroke-dashoffset:0;stroke-opacity:1;color-rendering:auto;image-rendering:auto;shape-rendering:auto;text-rendering:auto;enable-background:accumulate"
       d="M 3.1953125 6.5195312 C 2.4432768 7.8318748 2.0061201 9.3505086 2.0019531 10.976562 L 17.636719 26.611328 C 21.162353 30.137028 26.837647 30.137028 30.363281 26.611328 L 45.998047 10.976562 C 45.99388 9.3505086 45.556723 7.8318748 44.804688 6.5195312 L 30.363281 20.960938 C 30.343819 20.9804 30.322327 20.996377 30.302734 21.015625 L 27.535156 23.783203 C 25.527169 25.791303 22.472831 25.791303 20.464844 23.783203 L 17.697266 21.015625 C 17.677673 20.996377 17.656181 20.9804 17.636719 20.960938 L 3.1953125 6.5195312 z "
       id="path4272"
       transform="translate(0,1004.3622)" />
    <path
       style="display:inline;opacity:0.15;fill:#000000;fill-opacity:1;stroke:none"
       d="M 4.9570312 4.3359375 C 4.9210235 4.3685281 4.8850805 4.4004311 4.8496094 4.4335938 C 4.8849165 4.4005116 4.9211907 4.3684504 4.9570312 4.3359375 z M 43.042969 4.3359375 C 43.078809 4.3684504 43.115084 4.4005116 43.150391 4.4335938 C 43.114919 4.4004311 43.078977 4.3685281 43.042969 4.3359375 z M 3.4121094 6.1640625 C 3.3697717 6.2303537 3.3296907 6.2977638 3.2890625 6.3652344 C 3.3295036 6.2978466 3.369968 6.2302777 3.4121094 6.1640625 z M 44.587891 6.1640625 C 44.630032 6.2302777 44.670496 6.2978466 44.710938 6.3652344 C 44.670309 6.2977638 44.630228 6.2303537 44.587891 6.1640625 z M 2.8359375 7.2167969 C 2.8118856 7.2686852 2.7848046 7.3186682 2.7617188 7.3710938 C 2.7847211 7.3186751 2.8119723 7.268681 2.8359375 7.2167969 z M 45.164062 7.2167969 C 45.188028 7.268681 45.215279 7.3186751 45.238281 7.3710938 C 45.215195 7.3186682 45.188114 7.2686852 45.164062 7.2167969 z M 2.3847656 8.4003906 C 2.3558224 8.4967589 2.3343696 8.5956332 2.3085938 8.6933594 C 2.3342544 8.5957715 2.3559559 8.4966333 2.3847656 8.4003906 z M 45.615234 8.4003906 C 45.644044 8.4966333 45.665746 8.5957715 45.691406 8.6933594 C 45.66563 8.5956332 45.644178 8.4967589 45.615234 8.4003906 z M 2.1367188 9.4941406 C 2.1154539 9.6207452 2.0940687 9.7466114 2.078125 9.875 C 2.0939956 9.7469452 2.1155684 9.6204368 2.1367188 9.4941406 z M 45.863281 9.4941406 C 45.884432 9.6204368 45.906004 9.7469452 45.921875 9.875 C 45.905931 9.7466114 45.884546 9.6207452 45.863281 9.4941406 z M 2.0019531 10.976562 C 2.0019326 10.984524 2 10.992033 2 11 L 2 11.949219 C 2.0000177 11.958455 2.0019768 11.96732 2.0019531 11.976562 L 17.636719 27.611328 C 21.162353 31.137028 26.837647 31.137028 30.363281 27.611328 L 45.998047 11.976562 C 45.99801 11.962039 45.999969 11.948101 46 11.933594 L 46 11 C 46 10.992033 45.998067 10.984524 45.998047 10.976562 L 30.363281 26.611328 C 26.837647 30.137028 21.162353 30.137028 17.636719 26.611328 L 2.0019531 10.976562 z "
       transform="translate(0,1004.3622)"
       id="path3467" />
  </g>
  <g
     inkscape:groupmode="layer"
     id="layer4"
     inkscape:label="Inset"
     style="display:inline"
     sodipodi:insensitive="true">
    <path
       style="opacity:0.15;fill:#000000;fill-opacity:1;stroke:none"
       d="m 2,34 0,3 c 0,4.986 4.014,9 9,9 l 26,0 c 4.986,0 9,-4.014 9,-9 l 0,-3 c 0,4.986 -4.014,9 -9,9 L 11,43 C 6.014,43 2,38.986 2,34 Z"
       id="rect3038-42"
       inkscape:connector-curvature="0" />
  </g>
  <g
     inkscape:groupmode="layer"
     id="layer7"
     inkscape:label="Baseshape"
     sodipodi:insensitive="true"
     style="display:none">
    <rect
       rx="9"
       ry="9"
       y="2"
       x="2"
       height="44"
       width="44"
       id="rect4169"
       style="fill:#abe1ad;fill-opacity:1;stroke:none;display:inline" />
  </g>
</svg>
