<?xml version="1.0" encoding="UTF-8" standalone="no"?>
<!-- Created with Inkscape (http://www.inkscape.org/) -->

<svg
   xmlns:dc="http://purl.org/dc/elements/1.1/"
   xmlns:cc="http://creativecommons.org/ns#"
   xmlns:rdf="http://www.w3.org/1999/02/22-rdf-syntax-ns#"
   xmlns:svg="http://www.w3.org/2000/svg"
   xmlns="http://www.w3.org/2000/svg"
   xmlns:xlink="http://www.w3.org/1999/xlink"
   xmlns:sodipodi="http://sodipodi.sourceforge.net/DTD/sodipodi-0.dtd"
   xmlns:inkscape="http://www.inkscape.org/namespaces/inkscape"
   width="48"
   height="48"
   id="svg4230"
   version="1.1"
   inkscape:version="0.48.5 r10040"
   sodipodi:docname="gnome-boxes.svg"
   inkscape:export-filename="/home/satya/Workspace/Numix/ozon-icon-theme/Ozon/48x48/apps/preferences-system-time.png"
   inkscape:export-xdpi="90"
   inkscape:export-ydpi="90">
  <defs
     id="defs4232">
    <linearGradient
       id="linearGradient3987">
      <stop
         style="stop-color:#e2e2e2;stop-opacity:1;"
         offset="0"
         id="stop3989" />
      <stop
         style="stop-color:#ececec;stop-opacity:1;"
         offset="1"
         id="stop3991" />
    </linearGradient>
    <linearGradient
       id="linearGradient3971">
      <stop
         style="stop-color:#a3a3a3;stop-opacity:1;"
         offset="0"
         id="stop3973" />
      <stop
         style="stop-color:#cccccc;stop-opacity:1;"
         offset="1"
         id="stop3975" />
    </linearGradient>
    <inkscape:path-effect
       effect="skeletal"
       id="path-effect3918"
       is_visible="true"
       pattern="m 3.153794,2.713551 0,10 10,-5 z"
       copytype="single_stretched"
       prop_scale="1"
       scale_y_rel="false"
       spacing="0"
       normal_offset="0"
       tang_offset="0"
       prop_units="false"
       vertical_pattern="false"
       fuse_tolerance="0" />
    <inkscape:perspective
       sodipodi:type="inkscape:persp3d"
       inkscape:vp_x="13.040512 : 25.176587 : 1"
       inkscape:vp_y="0 : 1000 : 0"
       inkscape:vp_z="60.452218 : 26.157077 : 1"
       inkscape:persp3d-origin="36.452218 : 18.157077 : 1"
       id="perspective3860" />
    <linearGradient
       id="linearGradient3955">
      <stop
         id="stop3957"
         offset="0"
         style="stop-color:#d9e1ea;stop-opacity:1;" />
      <stop
         id="stop3959"
         offset="1"
         style="stop-color:#effcfc;stop-opacity:1;" />
    </linearGradient>
    <linearGradient
       id="linearGradient3938">
      <stop
         id="stop3940"
         offset="0"
         style="stop-color:#effcfc;stop-opacity:1;" />
      <stop
         id="stop3942"
         offset="1"
         style="stop-color:#d9e1ea;stop-opacity:1;" />
    </linearGradient>
    <linearGradient
       id="linearGradient4524">
      <stop
         style="stop-color:#35bc98;stop-opacity:1;"
         offset="0"
         id="stop4526" />
      <stop
         style="stop-color:#40c5a1;stop-opacity:1;"
         offset="1"
         id="stop4528" />
    </linearGradient>
    <linearGradient
       id="linearGradient4512">
      <stop
         style="stop-color:#d9d2d1;stop-opacity:1;"
         offset="0"
         id="stop4514" />
      <stop
         style="stop-color:#fefcfc;stop-opacity:1;"
         offset="1"
         id="stop4516" />
    </linearGradient>
    <linearGradient
       id="linearGradient4243">
      <stop
         style="stop-color:#000000;stop-opacity:1;"
         offset="0"
         id="stop4245" />
      <stop
         style="stop-color:#000000;stop-opacity:0;"
         offset="1"
         id="stop4247" />
    </linearGradient>
    <linearGradient
       id="linearGradient4216">
      <stop
         style="stop-color:#a0c4e6;stop-opacity:1;"
         offset="0"
         id="stop4218" />
      <stop
         style="stop-color:#d0e2f1;stop-opacity:1;"
         offset="1"
         id="stop4220" />
    </linearGradient>
    <linearGradient
       id="linearGradient4208">
      <stop
         style="stop-color:#70a3d6;stop-opacity:1;"
         offset="0"
         id="stop4210" />
      <stop
         style="stop-color:#88b6e1;stop-opacity:1;"
         offset="1"
         id="stop4212" />
    </linearGradient>
    <linearGradient
       id="linearGradient4200">
      <stop
         style="stop-color:#427dbe;stop-opacity:1;"
         offset="0"
         id="stop4202" />
      <stop
         style="stop-color:#739bd1;stop-opacity:1;"
         offset="1"
         id="stop4204" />
    </linearGradient>
    <linearGradient
       id="linearGradient4192">
      <stop
         style="stop-color:#4970a4;stop-opacity:1;"
         offset="0"
         id="stop4194" />
      <stop
         style="stop-color:#6090c0;stop-opacity:1;"
         offset="1"
         id="stop4196" />
    </linearGradient>
    <radialGradient
       inkscape:collect="always"
       xlink:href="#linearGradient3688-166-749-5-9-1"
       id="radialGradient4351"
       gradientUnits="userSpaceOnUse"
       gradientTransform="matrix(2.3201711,0,0,0.39999996,28.617836,28.600002)"
       cx="4.9929786"
       cy="43.5"
       fx="4.9929786"
       fy="43.5"
       r="2.5" />
    <linearGradient
       id="linearGradient3688-166-749-5-9-1">
      <stop
         id="stop2883-0-2-9"
         style="stop-color:#181818;stop-opacity:1"
         offset="0" />
      <stop
         id="stop2885-5-3-8"
         style="stop-color:#181818;stop-opacity:0"
         offset="1" />
    </linearGradient>
    <linearGradient
       id="linearGradient3688-464-309-8-9-4">
      <stop
         id="stop2889-9-9-1"
         style="stop-color:#181818;stop-opacity:1"
         offset="0" />
      <stop
         id="stop2891-4-2-9"
         style="stop-color:#181818;stop-opacity:0"
         offset="1" />
    </linearGradient>
    <linearGradient
       id="linearGradient3702-501-757-0-4-0">
      <stop
         id="stop2895-0-2-1"
         style="stop-color:#181818;stop-opacity:0"
         offset="0" />
      <stop
         id="stop2897-2-8-2"
         style="stop-color:#181818;stop-opacity:1"
         offset="0.5" />
      <stop
         id="stop2899-6-1-6"
         style="stop-color:#181818;stop-opacity:0"
         offset="1" />
    </linearGradient>
    <linearGradient
       id="linearGradient3811-3">
      <stop
         style="stop-color:#000000;stop-opacity:1;"
         offset="0"
         id="stop3813-0" />
      <stop
         style="stop-color:#000000;stop-opacity:0;"
         offset="1"
         id="stop3815-0" />
    </linearGradient>
    <clipPath
       id="clipPath-887332295">
      <g
         id="g3945"
         transform="translate(0,-1004.3622)">
        <rect
           id="rect3947"
           fill="#1890d0"
           width="46"
           height="46"
           x="1"
           y="1005.36"
           rx="4" />
      </g>
    </clipPath>
    <clipPath
       id="clipPath-867792831">
      <g
         id="g3940"
         transform="translate(0,-1004.3622)">
        <rect
           id="rect3942"
           fill="#1890d0"
           width="46"
           height="46"
           x="1"
           y="1005.36"
           rx="4" />
      </g>
    </clipPath>
    <linearGradient
       gradientTransform="translate(-47.997785,0.00221467)"
       gradientUnits="userSpaceOnUse"
       x2="47"
       x1="1"
       id="linearGradient3764">
      <stop
         id="stop3935"
         stop-opacity="1"
         stop-color="#e4e4e4" />
      <stop
         id="stop3937"
         stop-opacity="1"
         stop-color="#eee"
         offset="1" />
    </linearGradient>
    <radialGradient
       inkscape:collect="always"
       xlink:href="#linearGradient4243"
       id="radialGradient4274"
       gradientUnits="userSpaceOnUse"
       gradientTransform="matrix(1.0434782,0,0,0.1956518,-1.0434797,35.184809)"
       cx="24.000001"
       cy="42.499991"
       fx="24.000001"
       fy="42.499991"
       r="23" />
    <linearGradient
       inkscape:collect="always"
       xlink:href="#linearGradient4512"
       id="linearGradient4518"
       x1="12.5"
       y1="28.000042"
       x2="12.5"
       y2="17.000042"
       gradientUnits="userSpaceOnUse" />
    <linearGradient
       inkscape:collect="always"
       xlink:href="#linearGradient4512"
       id="linearGradient4522"
       gradientUnits="userSpaceOnUse"
       x1="12.5"
       y1="28.000042"
       x2="12.5"
       y2="17.000042" />
    <linearGradient
       inkscape:collect="always"
       xlink:href="#linearGradient4524-1"
       id="linearGradient4530"
       x1="24"
       y1="46"
       x2="24"
       y2="2"
       gradientUnits="userSpaceOnUse"
       gradientTransform="matrix(1.0022727,0,0,1,-0.00454545,0)" />
    <linearGradient
       inkscape:collect="always"
       xlink:href="#linearGradient4512"
       id="linearGradient4554"
       gradientUnits="userSpaceOnUse"
       x1="12.5"
       y1="28.000042"
       x2="12.5"
       y2="17.000042" />
    <linearGradient
       inkscape:collect="always"
       xlink:href="#linearGradient4524-1"
       id="linearGradient4530-9"
       x1="24"
       y1="46"
       x2="24"
       y2="2"
       gradientUnits="userSpaceOnUse" />
    <linearGradient
       id="linearGradient4524-1">
      <stop
         style="stop-color:#af1892;stop-opacity:1;"
         offset="0"
         id="stop4526-1" />
      <stop
         style="stop-color:#f5699c;stop-opacity:1;"
         offset="1"
         id="stop4528-4" />
    </linearGradient>
    <linearGradient
       gradientTransform="translate(47.999999,1004.3623)"
       y2="2"
       x2="24"
       y1="46"
       x1="24"
       gradientUnits="userSpaceOnUse"
       id="linearGradient3967"
       xlink:href="#linearGradient4524-1"
       inkscape:collect="always" />
    <linearGradient
       inkscape:collect="always"
       xlink:href="#linearGradient3971"
       id="linearGradient3977"
       x1="10.3"
       y1="1035.4622"
       x2="24.299999"
       y2="1035.4622"
       gradientUnits="userSpaceOnUse"
       gradientTransform="matrix(0.82282001,0,0,1.396615,4.0676407,-409.96261)" />
    <linearGradient
       inkscape:collect="always"
       xlink:href="#linearGradient3971"
       id="linearGradient3985"
       x1="10.3"
       y1="1035.4622"
       x2="24.299999"
       y2="1035.4622"
       gradientUnits="userSpaceOnUse"
       gradientTransform="matrix(0.82282001,0,0,1.396615,4.0676407,-409.96261)" />
    <linearGradient
       inkscape:collect="always"
       xlink:href="#linearGradient3987"
       id="linearGradient4038"
       gradientUnits="userSpaceOnUse"
       x1="24.3"
       y1="1035.5103"
       x2="38.299999"
       y2="1035.5103"
       gradientTransform="matrix(0.81875644,0,0,1.4032063,4.4269259,-416.80949)" />
    <linearGradient
       inkscape:collect="always"
       xlink:href="#linearGradient3987"
       id="linearGradient4040"
       gradientUnits="userSpaceOnUse"
       x1="24.299999"
       y1="1035.5103"
       x2="38.299999"
       y2="1035.5103"
       gradientTransform="matrix(0.81875644,0,0,1.4032063,4.4269259,-416.80949)" />
    <linearGradient
       inkscape:collect="always"
       xlink:href="#linearGradient3987"
       id="linearGradient4195"
       gradientUnits="userSpaceOnUse"
       gradientTransform="matrix(0.81873124,0,0,1.4039756,4.4217101,-424.14851)"
       x1="24.3"
       y1="1035.5103"
       x2="38.299999"
       y2="1035.5103" />
    <linearGradient
       inkscape:collect="always"
       xlink:href="#linearGradient3987"
       id="linearGradient4197"
       gradientUnits="userSpaceOnUse"
       gradientTransform="matrix(0.81873124,0,0,1.4039756,4.4217101,-424.14851)"
       x1="24.299999"
       y1="1035.5103"
       x2="38.299999"
       y2="1035.5103" />
    <linearGradient
       inkscape:collect="always"
       xlink:href="#linearGradient3971"
       id="linearGradient4199"
       gradientUnits="userSpaceOnUse"
       gradientTransform="matrix(0.82161731,0,0,1.3984577,4.0771206,-418.40433)"
       x1="10.3"
       y1="1035.4622"
       x2="24.299999"
       y2="1035.4622" />
    <linearGradient
       inkscape:collect="always"
       xlink:href="#linearGradient3971"
       id="linearGradient4201"
       gradientUnits="userSpaceOnUse"
       gradientTransform="matrix(0.82161731,0,0,1.3984577,4.0771206,-418.40433)"
       x1="10.3"
       y1="1035.4622"
       x2="24.299999"
       y2="1035.4622" />
    <linearGradient
       inkscape:collect="always"
       xlink:href="#linearGradient3971"
       id="linearGradient3159"
       gradientUnits="userSpaceOnUse"
       gradientTransform="matrix(0.82161731,0,0,1.3984577,4.0871208,-424.79371)"
       x1="10.3"
       y1="1035.4622"
       x2="24.299999"
       y2="1035.4622" />
    <linearGradient
       inkscape:collect="always"
       xlink:href="#linearGradient3971"
       id="linearGradient3161"
       gradientUnits="userSpaceOnUse"
       gradientTransform="matrix(0.82161731,0,0,1.3984577,4.0871208,-424.79371)"
       x1="10.3"
       y1="1035.4622"
       x2="24.299999"
       y2="1035.4622" />
    <linearGradient
       inkscape:collect="always"
       xlink:href="#linearGradient3987"
       id="linearGradient3191"
       gradientUnits="userSpaceOnUse"
       gradientTransform="matrix(0.81744148,0,0,1.4112893,4.4549372,-438.11904)"
       x1="24.3"
       y1="1035.5103"
       x2="38.299999"
       y2="1035.5103" />
    <linearGradient
       inkscape:collect="always"
       xlink:href="#linearGradient3987"
       id="linearGradient3193"
       gradientUnits="userSpaceOnUse"
       gradientTransform="matrix(0.81744148,0,0,1.4112893,4.4549372,-438.11904)"
       x1="24.299999"
       y1="1035.5103"
       x2="38.299999"
       y2="1035.5103" />
    <linearGradient
       inkscape:collect="always"
       xlink:href="#linearGradient3971"
       id="linearGradient4025"
       gradientUnits="userSpaceOnUse"
       gradientTransform="matrix(0.82161731,0,0,1.3984577,4.0771206,-418.40433)"
       x1="10.3"
       y1="1035.4622"
       x2="24.299999"
       y2="1035.4622" />
    <linearGradient
       inkscape:collect="always"
       xlink:href="#linearGradient3971"
       id="linearGradient4027"
       gradientUnits="userSpaceOnUse"
       gradientTransform="matrix(0.82161731,0,0,1.3984577,4.0771206,-418.40433)"
       x1="10.3"
       y1="1035.4622"
       x2="24.299999"
       y2="1035.4622" />
  </defs>
  <sodipodi:namedview
     id="base"
     pagecolor="#ffffff"
     bordercolor="#666666"
     borderopacity="1.0"
     inkscape:pageopacity="0.0"
     inkscape:pageshadow="2"
     inkscape:zoom="5.2731254"
     inkscape:cx="-17.763368"
     inkscape:cy="31.156752"
     inkscape:document-units="px"
     inkscape:current-layer="layer2"
     showgrid="true"
     inkscape:showpageshadow="false"
     borderlayer="true"
     inkscape:window-width="1366"
     inkscape:window-height="703"
     inkscape:window-x="0"
     inkscape:window-y="25"
     inkscape:window-maximized="1"
     showguides="false"
     inkscape:guide-bbox="true"
     inkscape:snap-global="true"
     inkscape:object-paths="false"
     inkscape:snap-intersection-paths="false"
     inkscape:snap-object-midpoints="true"
     inkscape:snap-nodes="false">
    <inkscape:grid
       type="xygrid"
       id="grid4162" />
    <sodipodi:guide
       position="1.0000013,47.000017"
       orientation="46,0"
       id="guide4163" />
    <sodipodi:guide
       position="1.0000013,1.0000174"
       orientation="0,45.999999"
       id="guide4165" />
    <sodipodi:guide
       position="47,1.0000174"
       orientation="-46,0"
       id="guide4167" />
    <sodipodi:guide
       position="47,47.000017"
       orientation="0,-45.999999"
       id="guide4169" />
    <sodipodi:guide
       position="2.0000007,46.000017"
       orientation="44,0"
       id="guide4173" />
    <sodipodi:guide
       position="2.0000007,2.0000174"
       orientation="0,43.999999"
       id="guide4175" />
    <sodipodi:guide
       position="46,2.0000174"
       orientation="-44,0"
       id="guide4177" />
    <sodipodi:guide
       position="46,46.000017"
       orientation="0,-43.999999"
       id="guide4179" />
    <sodipodi:guide
       position="3,45.000017"
       orientation="42,0"
       id="guide4183" />
    <sodipodi:guide
       position="45,3.0000174"
       orientation="-42,0"
       id="guide4187" />
    <sodipodi:guide
       position="45,45.000017"
       orientation="0,-42"
       id="guide4189" />
    <sodipodi:guide
       position="3,45.000017"
       orientation="42,0"
       id="guide4193" />
    <sodipodi:guide
       position="3,3.0000174"
       orientation="0,42"
       id="guide4195" />
    <sodipodi:guide
       position="45,3.0000174"
       orientation="-42,0"
       id="guide4197" />
    <sodipodi:guide
       position="45,45.000017"
       orientation="0,-42"
       id="guide4199" />
    <sodipodi:guide
       position="3,10.000017"
       orientation="7,0"
       id="guide4203" />
    <sodipodi:guide
       position="3,3.0000174"
       orientation="0,42"
       id="guide4205" />
    <sodipodi:guide
       position="45,3.0000174"
       orientation="-7,0"
       id="guide4207" />
    <sodipodi:guide
       position="45,10.000017"
       orientation="0,-42"
       id="guide4209" />
  </sodipodi:namedview>
  <metadata
     id="metadata4235">
    <rdf:RDF>
      <cc:Work
         rdf:about="">
        <dc:format>image/svg+xml</dc:format>
        <dc:type
           rdf:resource="http://purl.org/dc/dcmitype/StillImage" />
        <dc:title />
      </cc:Work>
    </rdf:RDF>
  </metadata>
  <g
     inkscape:groupmode="layer"
     id="layer3"
     inkscape:label="Fake blur shadow"
     style="display:inline"
     sodipodi:insensitive="true">
    <path
       style="opacity:0.06000001;fill:#000000;fill-opacity:1;stroke:none"
       d="M 10,1 C 5.014,1 1,5.014 1,10 l 0,28 c 0,4.986 4.014,9 9,9 l 28,0 c 4.986,0 9,-4.014 9,-9 L 47,10 C 47,5.014 42.986,1 38,1 L 10,1 z m 0.5,0.5 27,0 c 4.986,0 9,4.014 9,9 l 0,27 c 0,4.986 -4.014,9 -9,9 l -27,0 c -4.986,0 -9,-4.014 -9,-9 l 0,-27 c 0,-4.986 4.014,-9 9,-9 z"
       id="rect3829"
       inkscape:connector-curvature="0" />
    <path
       style="opacity:0.12000002;fill:#000000;fill-opacity:1;stroke:none"
       d="m 10.5,1.5 c -4.986,0 -9,4.014 -9,9 l 0,27 c 0,4.986 4.014,9 9,9 l 27,0 c 4.986,0 9,-4.014 9,-9 l 0,-27 c 0,-4.986 -4.014,-9 -9,-9 l -27,0 z m 0.25,0.25 26.5,0 c 4.986,0 9,4.014 9,9 l 0,26.5 c 0,4.986 -4.014,9 -9,9 l -26.5,0 c -4.986,0 -9,-4.014 -9,-9 l 0,-26.5 c 0,-4.986 4.014,-9 9,-9 z"
       id="rect3827"
       inkscape:connector-curvature="0" />
    <rect
       style="opacity:0.23999999;fill:#000000;fill-opacity:1;stroke:none"
       id="rect3038-4"
       width="44.5"
       height="44.5"
       x="1.75"
       y="1.75"
       ry="9"
       rx="9" />
  </g>
  <g
     inkscape:groupmode="layer"
     id="layer6"
     inkscape:label="Blob"
     style="display:inline"
     sodipodi:insensitive="true">
    <path
       style="opacity:0.3;fill:url(#radialGradient4274);fill-opacity:1;stroke:none"
       d="M 1.03125,39 C 1.5192036,43.518898 5.3471961,47 10,47 l 28,0 c 4.652804,0 8.480796,-3.481102 8.96875,-8 l -45.9375,0 z"
       id="rect4241"
       inkscape:connector-curvature="0" />
  </g>
  <g
     inkscape:groupmode="layer"
     id="layer2"
     inkscape:label="Baseplate"
     style="display:inline">
    <rect
       style="fill:url(#linearGradient4530);fill-opacity:1;stroke:none"
       id="rect3038"
       width="44.099998"
       height="44"
       x="2"
       y="1.9999826"
       ry="9"
       rx="9.0204544" />
    <path
       style="opacity:0.8;fill:#ececec;fill-opacity:1;stroke:#ececec;stroke-width:1.37933683px;stroke-linecap:butt;stroke-linejoin:miter;stroke-opacity:1"
       d="m 18.177543,24.204775 5.9488,-2.351066 3.235228,1.279982 -5.948784,2.351057 -3.235244,-1.279973 z"
       id="path4203"
       inkscape:connector-curvature="0"
       inkscape:transform-center-x="-0.67430859"
       inkscape:transform-center-y="0.20143456" />
    <path
       style="opacity:0.8;fill:#ececec;fill-opacity:1;stroke:#ececec;stroke-width:0.86439723px;stroke-linecap:butt;stroke-linejoin:miter;stroke-opacity:1"
       d="m 20.035898,33.381805 4.215076,-0.694337 4.209898,0.724637 -4.215068,0.69434 -4.209906,-0.72464 z"
       id="path4097"
       inkscape:connector-curvature="0" />
    <path
       inkscape:connector-curvature="0"
       id="path4181"
       d="m 19.429048,30.202524 4.633141,-1.907939 4.645536,1.773932 -4.633131,1.907932 -4.645546,-1.773925 z"
       style="opacity:0.8;fill:#ececec;fill-opacity:1;stroke:#ececec;stroke-width:1.46126056px;stroke-linecap:butt;stroke-linejoin:miter;stroke-opacity:1" />
    <path
       inkscape:connector-curvature="0"
       id="path3956-1"
       d="m 14.896934,14.588894 8.917034,-4.1574 0,4.1574 -8.917034,4.1567 z"
       style="fill:#69d2e7;fill-opacity:1;stroke:#69d2e7;stroke-width:1.17124999;stroke-linecap:butt;stroke-linejoin:miter;stroke-miterlimit:4;stroke-opacity:1;stroke-dasharray:none;display:inline" />
    <path
       style="fill:#ffffff;fill-opacity:1;stroke:#ffffff;stroke-width:1.29893541;stroke-miterlimit:4;stroke-opacity:1;stroke-dasharray:none"
       id="path4033"
       d="m 23.554779,15.626753 c 0.01165,-0.216083 0.01117,-0.432563 0.01056,-0.648829 -0.0073,-0.218444 0.01067,-0.43739 -0.01117,-0.655331 -0.02321,-0.190012 -0.07575,-0.374896 -0.13019,-0.560093 -0.05496,-0.189289 -0.06108,-0.383677 -0.100117,-0.575023 -0.01991,-0.177442 -0.09272,-0.344867 -0.14218,-0.517187 -0.04718,-0.165743 -0.04071,-0.336538 -0.06348,-0.504526 -0.03905,-0.174426 -0.06358,-0.350282 -0.112006,-0.523205 -0.05482,-0.177136 -0.07721,-0.358648 -0.09004,-0.54049 -0.0081,-0.169271 -0.03338,-0.339265 0.05647,-0.496513 0.01895,-0.01772 0.0379,-0.03541 0.05684,-0.05312 0,0 1.49805,-0.475334 1.49805,-0.475334 l 0,0 c -0.02484,0.0057 -0.04965,0.01142 -0.07449,0.01715 -0.178553,0.08826 -0.113726,0.266109 -0.11547,0.412284 0.009,0.174768 0.02468,0.34982 0.07602,0.520342 0.05129,0.176353 0.07981,0.354386 0.119582,0.532683 0.03424,0.163653 0.01926,0.331156 0.0601,0.494591 0.04551,0.175844 0.120282,0.345896 0.137987,0.526259 0.04082,0.188502 0.05898,0.378099 0.09955,0.566535 0.05341,0.1914 0.113527,0.380516 0.135351,0.576811 0.03184,0.221513 0.01024,0.445571 0.01484,0.668275 -7.69e-4,0.213381 -0.0012,0.426991 0.01056,0.640178 0,0 -1.436559,0.594558 -1.436559,0.594558 z"
       inkscape:connector-curvature="0" />
    <path
       style="fill:#ffffff;fill-opacity:1;stroke:#ffffff;stroke-width:1;stroke-opacity:1"
       id="path3121"
       d="m 25.174068,17.821834 c 0.02191,-0.02206 0.04697,-0.04108 0.07048,-0.06162 0.06813,-0.05564 0.152699,-0.09613 0.226482,-0.138884 -0.505364,0.289083 0.402357,-0.228288 -0.08837,0.05338 0.07726,-0.04249 0.154527,-0.104601 0.244129,-0.12383 0.02503,-0.01165 0.05234,-0.01453 0.07951,-0.01675 0.02652,-0.0017 0.05312,-0.0016 0.07969,-0.0016 0.02546,4.6e-5 0.05092,1.13e-4 0.07638,1.47e-4 0.02885,0.0027 0.05592,-0.006 0.08349,-0.01272 0.03257,-0.0081 0.06614,-0.01024 0.09956,-0.0118 0.02488,-9.6e-4 0.04877,-0.0085 0.0736,-0.01129 0.02439,-0.0021 0.0489,-0.0022 0.07337,-0.0023 0.02669,0.0023 0.05234,-0.0029 0.07859,-0.0066 0.02923,-7.95e-4 0.05625,-0.0098 0.08355,-0.01912 0.02588,-0.0069 0.05213,-0.01076 0.077,-0.0211 0.02816,-0.0086 0.05555,-0.01915 0.08262,-0.03062 0.02533,-0.0048 0.0487,-0.01525 0.07404,-0.02009 0.02529,-0.0035 0.04744,-0.01658 0.07223,-0.02288 0.02466,-0.0097 0.05054,-0.01511 0.07594,-0.02238 0.02709,-0.0074 0.05521,-0.0081 0.08309,-0.0089 0.02504,4.13e-4 0.04885,-0.0081 0.07232,-0.01576 0.0235,-0.01213 0.04844,-0.02085 0.07245,-0.03176 0.02305,-0.0085 0.0463,-0.01677 0.06856,-0.02726 0.0235,-0.0092 0.04808,-0.01545 0.07146,-0.02488 0.02503,-0.01064 0.04982,-0.01981 0.07675,-0.02436 0.02471,-0.0048 0.04726,-0.01626 0.07161,-0.02178 0.02377,-0.0035 0.04527,-0.01479 0.06774,-0.02224 0.0296,-0.0063 0.05876,-0.01385 0.08729,-0.02406 0.04508,-0.01298 0.08888,-0.02987 0.133686,-0.0437 0.04079,-0.01798 0.08366,-0.03049 0.126047,-0.04402 0.02919,-0.01082 0.05643,-0.02621 0.08514,-0.03834 0.02541,-0.0089 0.05062,-0.019 0.07458,-0.03137 0.02709,-0.01115 0.05378,-0.02255 0.07907,-0.0374 -0.277519,0.166391 -0.144821,0.08606 -0.08587,0.04103 0.07656,-0.05658 0.160754,-0.100252 0.243308,-0.147748 0.06126,-0.03296 0.03991,-0.02164 -0.131685,0.07619 -0.0046,0.0026 0.0091,-0.0055 0.01357,-0.0084 0.01544,-0.0099 0.03043,-0.02035 0.0453,-0.03106 0.06604,-0.04483 0.138294,-0.08183 0.206913,-0.121104 0.0051,-0.0029 0.0206,-0.01156 0.01548,-0.0086 -0.1548,0.0893 -0.190098,0.111963 -0.129532,0.07358 0.03231,-0.02329 0.06396,-0.04733 0.09786,-0.06831 0.08258,-0.056 0.173019,-0.09749 0.26038,-0.144593 0.02669,-0.01358 0.05616,-0.01964 0.08345,-0.03176 0.01235,-0.0095 0.02775,-0.0122 0.04176,-0.01797 0.01294,-0.0053 0.02477,-0.01172 0.0381,-0.01627 0.02526,-0.0045 0.04931,-0.0122 0.0707,-0.02661 0.02276,-0.01455 0.0485,-0.02096 0.07398,-0.02886 0.0292,-0.0082 0.05895,-0.01181 0.08798,-0.02037 0.02886,-0.0052 0.05476,-0.01816 0.08161,-0.02897 0.03324,-0.0099 0.06406,-0.0258 0.0957,-0.03962 0.02674,-0.0103 0.05493,-0.01654 0.08166,-0.02674 0.0272,-0.01024 0.05638,-0.01198 0.08511,-0.01365 0.0274,-0.0037 0.05336,-0.01261 0.08009,-0.0191 0.02728,-0.01091 0.05669,-0.01669 0.08329,-0.0292 0.02622,-0.01014 0.05407,-0.01347 0.0819,-0.01532 0.02741,-0.006 0.0549,-0.01099 0.08127,-0.02076 0.03695,-0.01033 0.07434,-0.01868 0.110858,-0.03052 0.0077,-0.0021 0.01547,-0.0039 0.02302,-0.0064 0.0079,-0.0027 0.01569,-0.0057 0.02327,-0.0092 0.0081,-0.0037 0.0314,-0.01688 0.02368,-0.01242 -0.247691,0.143227 -0.134907,0.07951 -0.0824,0.04141 0.03761,-0.03084 0.07564,-0.06129 0.109577,-0.09621 0.02194,-0.02466 0.04456,-0.04859 0.06808,-0.07175 0.0203,-0.02016 0.04248,-0.03823 0.06416,-0.05686 0.03387,-0.02692 0.07,-0.05082 0.104064,-0.07747 0.02506,-0.02196 0.0523,-0.04094 0.0801,-0.05919 0.07111,-0.04535 0.0071,-0.0049 0.188916,-0.109584 0.0054,-0.0031 0.02135,-0.01242 0.01599,-0.0094 -0.04752,0.02724 -0.190044,0.108999 -0.142475,0.08185 0.184141,-0.105097 0.112632,-0.07501 0.192698,-0.107691 0.03358,-0.01371 0.07,-0.01186 0.105239,-0.01671 0.0422,-0.0093 0.08435,-0.01908 0.125985,-0.03067 0.03964,-0.0099 0.07941,-0.01927 0.119872,-0.02524 0.0342,-0.0049 0.06878,-0.0053 0.103253,-0.0058 0.02792,0.0012 0.05554,-0.0035 0.0824,-0.01089 0.0362,-0.0092 0.07184,-0.02073 0.106373,-0.03497 0.0428,-0.01119 0.08204,-0.03179 0.123328,-0.04679 0.03512,-0.01509 0.06895,-0.03274 0.103746,-0.04855 0.03327,-0.0192 0.07029,-0.02977 0.106571,-0.04158 0.03847,-0.01385 0.07552,-0.03032 0.110911,-0.0508 0.06814,-0.0322 0.227802,-0.126984 -0.05618,0.03605 0.467161,-0.268173 0.02944,-0.0169 0.02956,-0.01697 0.05759,-0.03404 0.13492,-0.09549 0.211646,-0.112012 0.02288,-0.01027 0.04789,-0.01347 0.07209,-0.01967 0.02526,-0.0071 0.0465,-0.02225 0.06965,-0.03388 0.03488,-0.0092 0.06902,-0.02075 0.104245,-0.02882 0.02723,-0.01246 0.05681,-0.01611 0.08548,-0.02324 0.02817,-0.0039 0.05218,-0.01905 0.0783,-0.02879 0.02224,-0.01282 0.04716,-0.0173 0.07232,-0.01991 0.02808,2.77e-4 0.0553,-0.0043 0.08295,-0.0084 0.02691,-0.009 0.05458,-0.01441 0.08283,-0.01647 0.02756,3.58e-4 0.05304,-0.004 0.07675,-0.01821 -0.321359,0.189115 -0.04368,0.01541 0.06924,-0.03694 0.02275,-0.007 0.046,-0.01027 0.06805,-0.01961 0.02489,-0.01296 0.04909,-0.02728 0.07441,-0.03941 0.02302,-0.0096 0.04538,-0.02158 0.06698,-0.03419 0.0039,-0.0018 0.01545,-0.0076 0.01173,-0.0054 -0.362852,0.210981 -0.01093,0.0051 0.03066,-0.0174 0.05119,-0.02773 -0.201042,0.117452 -0.151576,0.08676 0.05536,-0.03436 0.112856,-0.06516 0.169284,-0.09775 -0.05034,0.02902 -0.201482,0.115852 -0.151018,0.08705 0.05685,-0.03244 0.11312,-0.0659 0.170172,-0.09798 0.0034,-0.0019 0.0074,-0.0024 0.01102,-0.0039 0.0037,-0.0016 0.01438,-0.0073 0.01089,-0.0053 -0.173755,0.100255 -0.197822,0.115599 -0.140526,0.07954 0.44107,-0.253388 0.03143,-0.01803 0.01903,-0.01099 -0.0032,0.0018 0.0062,-0.004 0.0093,-0.0062 0.0099,-0.007 0.01959,-0.01432 0.02957,-0.02125 0.449585,-0.257014 0.02793,-0.01559 0.02098,-0.01163 -0.0069,0.004 0.01326,-0.0089 0.02017,-0.01294 0.05673,-0.03295 0.113922,-0.06509 0.170617,-0.0981 0.05007,-0.02915 -0.100502,0.05769 -0.150753,0.08654 0.0031,-0.0019 0.0061,-0.0038 0.0092,-0.0057 0,0 0.174946,-0.0672 0.174946,-0.0672 l 0,0 c -0.0032,0.0017 -0.0063,0.0034 -0.0095,0.0051 -0.05657,0.03281 -0.11284,0.06614 -0.169717,0.09842 -0.05016,0.02846 0.09967,-0.05806 0.149561,-0.08698 0.0069,-0.004 -0.01285,0.0097 -0.01977,0.01371 -0.05654,0.03307 -0.11233,0.06758 -0.170457,0.09778 -0.051,0.0265 0.09936,-0.05777 0.149047,-0.08666 -0.01031,0.0058 -0.02055,0.01222 -0.02994,0.01942 -0.003,0.0023 -0.0053,0.0056 -0.0085,0.0076 -0.01679,0.01001 -0.405267,0.235468 -0.01917,0.01133 -0.06402,0.03981 -0.03348,0.02097 -0.18037,0.104543 -0.0069,0.0039 -0.02818,0.01428 -0.02135,0.01029 0.0064,-0.0037 0.426748,-0.247431 -0.0192,0.01132 0.384958,-0.22284 0.0041,-0.0022 -0.01814,0.01 -0.05079,0.02782 0.100232,-0.05804 0.150332,-0.08709 0.0034,-0.0019 -0.0068,0.0039 -0.01012,0.0058 -0.175412,0.101323 -0.112563,0.06743 -0.181751,0.104574 -0.02217,0.01154 -0.04412,0.02347 -0.06708,0.03342 -0.02497,0.01336 -0.04976,0.02742 -0.07613,0.03784 -0.02249,0.0068 -0.04602,0.0107 -0.06714,0.02136 -0.184374,0.0924 0.488859,-0.276734 -0.06897,0.03666 -0.02594,0.0097 -0.05278,0.0113 -0.08024,0.01294 -0.02785,0.004 -0.05482,0.01143 -0.08235,0.01703 -0.02778,0.0041 -0.05563,0.0059 -0.08353,0.0087 -0.02442,0.0045 -0.04724,0.01275 -0.06958,0.02357 -0.02569,0.01131 -0.05187,0.02109 -0.07964,0.02607 -0.02853,0.0061 -0.05633,0.01419 -0.08424,0.02262 -0.03485,0.0091 -0.06999,0.01892 -0.1029,0.03363 -0.02287,0.01281 -0.04644,0.02408 -0.0721,0.03018 -0.02421,0.0062 -0.04858,0.0114 -0.07208,0.02008 -0.01365,0.0047 -0.05313,0.02581 -0.03593,0.01577 0.04852,-0.02832 0.194649,-0.11231 0.145853,-0.08446 -0.08412,0.04801 -0.344095,0.199557 -0.02995,0.01668 -0.08618,0.05026 -0.171048,0.102791 -0.260534,0.14699 -0.0364,0.01913 -0.07413,0.03518 -0.113167,0.04821 -0.03618,0.01206 -0.07186,0.0254 -0.10556,0.04347 -0.0344,0.0161 -0.06819,0.03353 -0.10371,0.04714 -0.04055,0.01709 -0.08149,0.0326 -0.123183,0.0467 -0.03592,0.01345 -0.07234,0.02572 -0.109785,0.03423 -0.02798,0.0056 -0.05602,0.009 -0.08463,0.0076 -0.03369,5.74e-4 -0.06742,0.0019 -0.100746,0.0072 -0.03991,0.0068 -0.07925,0.01653 -0.118458,0.02654 -0.04238,0.01075 -0.0848,0.0218 -0.127967,0.02892 -0.03474,0.0036 -0.06996,0.0057 -0.101983,0.02123 -0.0055,0.0027 -0.02162,0.01113 -0.01639,0.008 0.04694,-0.02791 0.188613,-0.110216 0.141579,-0.08246 -0.05791,0.03418 -0.116105,0.06788 -0.174215,0.101719 -0.0054,0.0031 -0.02167,0.01235 -0.01628,0.0092 0.04761,-0.02768 0.09531,-0.05521 0.142925,-0.08287 0.0049,-0.0028 -0.0098,0.0056 -0.0147,0.0084 -0.02762,0.01867 -0.05626,0.03583 -0.08153,0.05775 -0.0327,0.02821 -0.06949,0.05127 -0.10393,0.07729 -0.02174,0.01752 -0.04253,0.03659 -0.06291,0.05556 -0.02575,0.02122 -0.04799,0.04624 -0.07022,0.07107 -0.03405,0.03665 -0.07281,0.0678 -0.111008,0.100001 -0.09014,0.0715 -0.191693,0.133929 -0.302404,0.166708 -0.03728,0.01119 -0.07522,0.02008 -0.112308,0.03194 -0.02765,0.0078 -0.05572,0.01463 -0.08434,0.01781 -0.02698,0.0031 -0.05352,0.0085 -0.07851,0.01955 -0.02821,0.0093 -0.05625,0.01923 -0.08483,0.02737 -0.02687,0.0073 -0.05395,0.01403 -0.08181,0.01624 -0.0282,0.0026 -0.056,0.007 -0.08246,0.01762 -0.02698,0.0082 -0.05403,0.01656 -0.08001,0.02756 -0.03151,0.01427 -0.06347,0.02737 -0.09594,0.03929 -0.02714,0.01183 -0.05525,0.02077 -0.08403,0.02775 -0.02879,0.0072 -0.05864,0.0099 -0.08665,0.02032 -0.02535,0.0082 -0.04963,0.01858 -0.0725,0.03239 -0.02349,0.01041 -0.04774,0.01708 -0.07226,0.02445 -0.02662,0.01113 -0.05328,0.02213 -0.07942,0.03435 -0.02754,0.0099 -0.0558,0.01821 -0.08148,0.03256 -0.01648,0.0083 -0.03296,0.01663 -0.04941,0.02502 -0.0058,0.003 -0.02304,0.01222 -0.01743,0.0089 0.02486,-0.01469 0.204112,-0.118465 0.123301,-0.07168 -0.03451,0.01914 -0.06631,0.04228 -0.09717,0.06683 -0.06834,0.04849 -0.01298,0.0099 -0.187767,0.110584 -0.0051,0.0029 -0.0205,0.01136 -0.01544,0.0084 0.0474,-0.02777 0.09495,-0.05529 0.14249,-0.08282 0.01099,-0.0064 -0.0434,0.0259 -0.03286,0.01929 -0.07566,0.05814 -0.160026,0.103479 -0.244174,0.148247 0.278857,-0.162408 0.135225,-0.08085 0.07418,-0.03809 -0.0704,0.05845 -0.153049,0.10026 -0.232077,0.145269 -0.02614,0.01315 -0.05314,0.02427 -0.07966,0.0366 -0.02476,0.01089 -0.04982,0.02099 -0.07495,0.03101 -0.02801,0.01304 -0.05585,0.02688 -0.08543,0.03601 -0.04194,0.01341 -0.08396,0.02643 -0.124791,0.04304 -0.04486,0.01478 -0.08945,0.03036 -0.134448,0.04473 -0.02932,0.0095 -0.05944,0.01592 -0.08862,0.02576 -0.0221,0.0091 -0.04532,0.01506 -0.06843,0.02099 -0.0237,0.0083 -0.04777,0.01527 -0.07235,0.02063 -0.02585,0.0066 -0.05001,0.01747 -0.07508,0.02642 -0.02399,0.0078 -0.04785,0.01624 -0.07116,0.02592 -0.02281,0.0088 -0.0453,0.01829 -0.06815,0.02695 -0.02476,0.0099 -0.04856,0.02215 -0.07391,0.03057 -0.02426,0.0074 -0.04921,0.0117 -0.07465,0.01142 -0.02732,0.0015 -0.05459,0.0043 -0.08079,0.01274 -0.02536,0.0074 -0.05109,0.01334 -0.07592,0.02249 -0.02422,0.0081 -0.04754,0.01896 -0.07316,0.02223 -0.02418,0.0067 -0.04826,0.01413 -0.07191,0.02239 -0.02721,0.01114 -0.05548,0.01961 -0.08309,0.0297 -0.02556,0.0076 -0.05184,0.01218 -0.07713,0.02069 -0.02782,0.0089 -0.0563,0.01352 -0.08534,0.01635 -0.0268,0.004 -0.05344,0.0061 -0.08059,0.005 -0.02412,3.9e-4 -0.04831,8.77e-4 -0.07222,0.0044 -0.02444,0.0039 -0.0486,0.01 -0.07356,0.0094 -0.0328,0.0021 -0.06548,0.0057 -0.09727,0.01447 -0.02862,0.0072 -0.05745,0.0115 -0.08707,0.0097 -0.02543,-4.7e-5 -0.05087,-1.44e-4 -0.0763,-1.11e-4 -0.02614,1.34e-4 -0.05234,2.63e-4 -0.07836,0.003 -0.02666,0.0034 -0.05215,0.01028 -0.07765,0.01868 -0.07138,0.02089 -0.202015,0.104477 0.07768,-0.0565 -0.05736,0.03318 -0.114601,0.06657 -0.172082,0.09954 -0.0079,0.0045 -0.01627,0.0083 -0.02435,0.01262 -0.004,0.0021 -0.01593,0.0086 -0.01201,0.0064 0.04385,-0.02559 0.384127,-0.222184 -0.02246,0.01281 0.281438,-0.163607 0.151161,-0.09106 0.09107,-0.04875 -0.02243,0.02014 -0.04405,0.04138 -0.06971,0.05719 0,0 -0.172917,0.07452 -0.172917,0.07452 z"
       inkscape:connector-curvature="0" />
  </g>
  <g
     inkscape:label="Symbol"
     inkscape:groupmode="layer"
     id="layer1"
     transform="translate(0,-1004.3622)"
     style="display:inline">
    <path
       inkscape:connector-curvature="0"
       id="path3978"
       d="m 12.987184,1019.7032 10.617825,4.1403 0,4.1405 -10.617825,-4.1405 z"
       style="opacity:0.15;fill:#000000;stroke:#000000;stroke-width:1.15436816px;stroke-linecap:butt;stroke-linejoin:miter;stroke-opacity:1;display:inline" />
    <path
       inkscape:connector-curvature="0"
       id="path3976"
       d="m 24.810805,1023.8125 10.496418,-4.0948 0,4.0948 -10.496418,4.0939 z"
       style="opacity:0.15;fill:#000000;fill-opacity:1;stroke:#000000;stroke-width:1.26161098px;stroke-linecap:butt;stroke-linejoin:miter;stroke-opacity:1;display:inline" />
    <path
       style="opacity:0.15;fill:#000000;stroke:#000000;stroke-width:1.15436816px;stroke-linecap:butt;stroke-linejoin:miter;stroke-opacity:1;display:inline"
       d="m 12.987184,1026.2032 10.617825,4.1403 0,4.1405 -10.617825,-4.1405 z"
       id="path3134"
       inkscape:connector-curvature="0" />
    <path
       style="opacity:0.15;fill:#000000;fill-opacity:1;stroke:#000000;stroke-width:1.26161098px;stroke-linecap:butt;stroke-linejoin:miter;stroke-opacity:1;display:inline"
       d="m 24.810805,1030.3125 10.496418,-4.0948 0,4.0948 -10.496418,4.0939 z"
       id="path3114"
       inkscape:connector-curvature="0" />
    <path
       inkscape:connector-curvature="0"
       id="path4050"
       d="m 24.736582,1027.5053 10.611609,4.1529 0,4.153 -10.611609,-4.153 z"
       style="opacity:0.8;fill:#ececec;fill-opacity:1;stroke:#ececec;stroke-width:1.15566313px;stroke-linecap:butt;stroke-linejoin:miter;stroke-opacity:1;display:inline" />
    <path
       inkscape:connector-curvature="0"
       id="path4028"
       d="m 24.810805,1037.1125 10.496418,-4.0948 0,4.0948 -10.496418,4.0939 z"
       style="opacity:0.15;fill:#000000;fill-opacity:1;stroke:#000000;stroke-width:1.26161098px;stroke-linecap:butt;stroke-linejoin:miter;stroke-opacity:1;display:inline" />
    <path
       style="fill:url(#linearGradient4038);fill-opacity:1;stroke:url(#linearGradient4040);stroke-width:1.25108159px;stroke-linecap:butt;stroke-linejoin:miter;stroke-opacity:1;display:inline"
       d="m 24.80054,1036.2248 10.506936,-4.0207 0,4.0207 -10.506936,4.0219 z"
       id="path3922"
       inkscape:connector-curvature="0" />
    <path
       inkscape:connector-curvature="0"
       id="path3957"
       d="m 12.987184,1033.0042 10.617825,4.1403 0,4.1405 -10.617825,-4.1405 z"
       style="opacity:0.15;fill:#000000;stroke:#000000;stroke-width:1.15436816px;stroke-linecap:butt;stroke-linejoin:miter;stroke-opacity:1;display:inline" />
    <path
       inkscape:connector-curvature="0"
       id="path4044"
       d="m 13.038561,1031.6228 10.491926,-4.0544 0,4.0544 -10.491926,4.0519 z"
       style="opacity:0.8;fill:#ececec;fill-opacity:1;stroke:#ececec;stroke-width:1.25502515px;stroke-linecap:butt;stroke-linejoin:miter;stroke-opacity:1;display:inline" />
    <path
       style="fill:url(#linearGradient3977);fill-opacity:1;stroke:url(#linearGradient3985);stroke-width:1.15445149px;stroke-linecap:butt;stroke-linejoin:miter;stroke-opacity:1;display:inline"
       d="m 12.98574,1032.0436 10.633371,4.1354 0,4.1359 -10.633371,-4.1359 z"
       id="path3920"
       inkscape:connector-curvature="0" />
    <path
       style="opacity:0.8;fill:#ececec;fill-opacity:1;stroke:#ececec;stroke-width:1.15773308px;stroke-linecap:butt;stroke-linejoin:miter;stroke-opacity:1;display:inline"
       d="m 24.699379,1020.9605 10.642267,4.1555 0,4.1552 -10.642267,-4.1552 z"
       id="path4183"
       inkscape:connector-curvature="0" />
    <path
       inkscape:connector-curvature="0"
       id="path4187"
       d="m 24.794702,1029.6825 10.506612,-4.0246 0,4.0246 -10.506612,4.024 z"
       style="fill:url(#linearGradient4195);fill-opacity:1;stroke:url(#linearGradient4197);stroke-width:1.25140536px;stroke-linecap:butt;stroke-linejoin:miter;stroke-opacity:1;display:inline" />
    <path
       style="opacity:0.8;fill:#ececec;fill-opacity:1;stroke:#ececec;stroke-width:1.25328004px;stroke-linecap:butt;stroke-linejoin:miter;stroke-opacity:1;display:inline"
       d="m 13.04264,1025.0823 10.460526,-4.0541 0,4.0541 -10.460526,4.0533 z"
       id="path4191"
       inkscape:connector-curvature="0" />
    <path
       inkscape:connector-curvature="0"
       id="path4193"
       d="m 12.982184,1025.5024 10.61783,4.1417 0,4.1409 -10.61783,-4.1409 z"
       style="fill:url(#linearGradient4199);fill-opacity:1;stroke:url(#linearGradient4201);stroke-width:1.15436816px;stroke-linecap:butt;stroke-linejoin:miter;stroke-opacity:1;display:inline" />
    <path
       style="fill:url(#linearGradient4025);fill-opacity:1;stroke:url(#linearGradient4027);stroke-width:1.15436816px;stroke-linecap:butt;stroke-linejoin:miter;stroke-opacity:1;display:inline"
       d="m 12.982184,1025.5024 10.61783,4.1417 0,4.1409 -10.61783,-4.1409 z"
       id="path3136"
       inkscape:connector-curvature="0" />
    <path
       inkscape:connector-curvature="0"
       id="path3948"
       d="m 13.04264,1018.6823 10.460526,-4.0541 0,4.0541 -10.460526,4.0533 z"
       style="fill:#ffffff;fill-opacity:1;stroke:#ffffff;stroke-width:1.25328004px;stroke-linecap:butt;stroke-linejoin:miter;stroke-opacity:1;display:inline" />
    <path
       inkscape:connector-curvature="0"
       id="path3956"
       d="m 19.470636,1020.7073 8.917034,-4.1574 0,4.1574 -8.917034,4.1567 z"
       style="fill:#ffffff;fill-opacity:1;stroke:#ffffff;stroke-width:1.17124999;stroke-linecap:butt;stroke-linejoin:miter;stroke-miterlimit:4;stroke-opacity:1;stroke-dasharray:none;display:inline" />
    <path
       inkscape:connector-curvature="0"
       id="path3157"
       d="m 12.992184,1019.1124 10.61783,4.1417 0,4.1409 -10.61783,-4.1409 z"
       style="fill:url(#linearGradient3159);fill-opacity:1;stroke:url(#linearGradient3161);stroke-width:1.15436816px;stroke-linecap:butt;stroke-linejoin:miter;stroke-opacity:1;display:inline" />
    <path
       inkscape:connector-curvature="0"
       id="path3954"
       d="m 24.699867,1014.5606 10.642267,4.1555 0,4.1552 -10.642267,-4.1552 z"
       style="fill:#ffffff;fill-opacity:1;stroke:#ffffff;stroke-width:1.15773308px;stroke-linecap:butt;stroke-linejoin:miter;stroke-opacity:1;display:inline" />
    <path
       style="fill:url(#linearGradient3191);fill-opacity:1;stroke:url(#linearGradient3193);stroke-width:1.25367188px;stroke-linecap:butt;stroke-linejoin:miter;stroke-opacity:1;display:inline"
       d="m 24.795835,1023.2854 10.490061,-4.0456 0,4.0456 -10.490061,4.045 z"
       id="path3189"
       inkscape:connector-curvature="0" />
  </g>
  <g
     inkscape:groupmode="layer"
     id="layer4"
     inkscape:label="Inset"
     sodipodi:insensitive="true"
     style="display:inline">
    <path
       style="opacity:0.15;fill:#000000;fill-opacity:1;stroke:none"
       d="m 2,34 0,3 c 0,4.986 4.014,9 9,9 l 26,0 c 4.986,0 9,-4.014 9,-9 l 0,-3 c 0,4.986 -4.014,9 -9,9 L 11,43 C 6.014,43 2,38.986 2,34 z"
       id="rect3038-42"
       inkscape:connector-curvature="0" />
  </g>
  <g
     inkscape:groupmode="layer"
     id="layer7"
     inkscape:label="Baseshape"
     sodipodi:insensitive="true"
     style="display:none">
    <rect
       rx="9"
       ry="9"
       y="2"
       x="2"
       height="44"
       width="44"
       id="rect4169"
       style="fill:#abe1ad;fill-opacity:1;stroke:none;display:inline" />
  </g>
</svg>
