<?xml version="1.0" encoding="UTF-8" standalone="no"?>
<!-- Created with Inkscape (http://www.inkscape.org/) -->

<svg
   xmlns:dc="http://purl.org/dc/elements/1.1/"
   xmlns:cc="http://creativecommons.org/ns#"
   xmlns:rdf="http://www.w3.org/1999/02/22-rdf-syntax-ns#"
   xmlns:svg="http://www.w3.org/2000/svg"
   xmlns="http://www.w3.org/2000/svg"
   xmlns:xlink="http://www.w3.org/1999/xlink"
   xmlns:sodipodi="http://sodipodi.sourceforge.net/DTD/sodipodi-0.dtd"
   xmlns:inkscape="http://www.inkscape.org/namespaces/inkscape"
   width="48"
   height="48"
   id="svg4230"
   version="1.1"
   inkscape:version="0.91 r13725"
   sodipodi:docname="gnome-mplayer.svg"
   inkscape:export-filename="/home/max/Desktop/vlc3.png"
   inkscape:export-xdpi="450"
   inkscape:export-ydpi="450">
  <defs
     id="defs4232">
    <linearGradient
       id="linearGradient4272">
      <stop
         id="stop4274"
         offset="0"
         style="stop-color:#3a7ef4;stop-opacity:1" />
      <stop
         id="stop4276"
         offset="1"
         style="stop-color:#619bfe;stop-opacity:1" />
    </linearGradient>
    <linearGradient
       id="linearGradient3874">
      <stop
         style="stop-color:#ea508d;stop-opacity:1;"
         offset="0"
         id="stop3876" />
      <stop
         style="stop-color:#e66296;stop-opacity:1;"
         offset="1"
         id="stop3878" />
    </linearGradient>
    <linearGradient
       id="linearGradient4026">
      <stop
         style="stop-color:#f1f1e9;stop-opacity:1;"
         offset="0"
         id="stop4028" />
      <stop
         style="stop-color:#f5f5ea;stop-opacity:1;"
         offset="1"
         id="stop4030" />
    </linearGradient>
    <linearGradient
       id="linearGradient4243">
      <stop
         style="stop-color:#000000;stop-opacity:1;"
         offset="0"
         id="stop4245" />
      <stop
         style="stop-color:#000000;stop-opacity:0;"
         offset="1"
         id="stop4247" />
    </linearGradient>
    <linearGradient
       id="linearGradient4216">
      <stop
         style="stop-color:#a0c4e6;stop-opacity:1;"
         offset="0"
         id="stop4218" />
      <stop
         style="stop-color:#d0e2f1;stop-opacity:1;"
         offset="1"
         id="stop4220" />
    </linearGradient>
    <linearGradient
       id="linearGradient4208">
      <stop
         style="stop-color:#70a3d6;stop-opacity:1;"
         offset="0"
         id="stop4210" />
      <stop
         style="stop-color:#88b6e1;stop-opacity:1;"
         offset="1"
         id="stop4212" />
    </linearGradient>
    <linearGradient
       id="linearGradient4200">
      <stop
         style="stop-color:#427dbe;stop-opacity:1;"
         offset="0"
         id="stop4202" />
      <stop
         style="stop-color:#739bd1;stop-opacity:1;"
         offset="1"
         id="stop4204" />
    </linearGradient>
    <linearGradient
       id="linearGradient4192">
      <stop
         style="stop-color:#4970a4;stop-opacity:1;"
         offset="0"
         id="stop4194" />
      <stop
         style="stop-color:#6090c0;stop-opacity:1;"
         offset="1"
         id="stop4196" />
    </linearGradient>
    <radialGradient
       inkscape:collect="always"
       xlink:href="#linearGradient3688-166-749-5-9-1"
       id="radialGradient4351"
       gradientUnits="userSpaceOnUse"
       gradientTransform="matrix(2.3201711,0,0,0.39999996,28.617836,28.600002)"
       cx="4.9929786"
       cy="43.5"
       fx="4.9929786"
       fy="43.5"
       r="2.5" />
    <linearGradient
       id="linearGradient3688-166-749-5-9-1">
      <stop
         id="stop2883-0-2-9"
         style="stop-color:#181818;stop-opacity:1"
         offset="0" />
      <stop
         id="stop2885-5-3-8"
         style="stop-color:#181818;stop-opacity:0"
         offset="1" />
    </linearGradient>
    <linearGradient
       id="linearGradient3688-464-309-8-9-4">
      <stop
         id="stop2889-9-9-1"
         style="stop-color:#181818;stop-opacity:1"
         offset="0" />
      <stop
         id="stop2891-4-2-9"
         style="stop-color:#181818;stop-opacity:0"
         offset="1" />
    </linearGradient>
    <linearGradient
       id="linearGradient3702-501-757-0-4-0">
      <stop
         id="stop2895-0-2-1"
         style="stop-color:#181818;stop-opacity:0"
         offset="0" />
      <stop
         id="stop2897-2-8-2"
         style="stop-color:#181818;stop-opacity:1"
         offset="0.5" />
      <stop
         id="stop2899-6-1-6"
         style="stop-color:#181818;stop-opacity:0"
         offset="1" />
    </linearGradient>
    <linearGradient
       id="linearGradient3811-3">
      <stop
         style="stop-color:#000000;stop-opacity:1;"
         offset="0"
         id="stop3813-0" />
      <stop
         style="stop-color:#000000;stop-opacity:0;"
         offset="1"
         id="stop3815-0" />
    </linearGradient>
    <clipPath
       id="clipPath-887332295">
      <g
         id="g3945"
         transform="translate(0,-1004.3622)">
        <rect
           id="rect3947"
           fill="#1890d0"
           width="46"
           height="46"
           x="1"
           y="1005.36"
           rx="4" />
      </g>
    </clipPath>
    <clipPath
       id="clipPath-867792831">
      <g
         id="g3940"
         transform="translate(0,-1004.3622)">
        <rect
           id="rect3942"
           fill="#1890d0"
           width="46"
           height="46"
           x="1"
           y="1005.36"
           rx="4" />
      </g>
    </clipPath>
    <linearGradient
       gradientTransform="translate(-47.997785,0.00221467)"
       gradientUnits="userSpaceOnUse"
       x2="47"
       x1="1"
       id="linearGradient3764">
      <stop
         id="stop3935"
         stop-opacity="1"
         stop-color="#e4e4e4" />
      <stop
         id="stop3937"
         stop-opacity="1"
         stop-color="#eee"
         offset="1" />
    </linearGradient>
    <radialGradient
       inkscape:collect="always"
       xlink:href="#linearGradient4243"
       id="radialGradient4274"
       gradientUnits="userSpaceOnUse"
       gradientTransform="matrix(1.0434782,0,0,0.1956518,-1.0434797,35.184809)"
       cx="24.000001"
       cy="42.499991"
       fx="24.000001"
       fy="42.499991"
       r="23" />
    <linearGradient
       inkscape:collect="always"
       xlink:href="#linearGradient4026"
       id="linearGradient4032"
       x1="-41.197594"
       y1="1042.7213"
       x2="-41.197594"
       y2="1002.0031"
       gradientUnits="userSpaceOnUse" />
    <linearGradient
       inkscape:collect="always"
       xlink:href="#linearGradient4026"
       id="linearGradient4078"
       gradientUnits="userSpaceOnUse"
       x1="-41.197594"
       y1="1042.7213"
       x2="-41.197594"
       y2="1002.0031" />
    <linearGradient
       inkscape:collect="always"
       xlink:href="#linearGradient4026"
       id="linearGradient4114"
       gradientUnits="userSpaceOnUse"
       x1="-41.197594"
       y1="1042.7213"
       x2="-41.197594"
       y2="1002.0031" />
    <linearGradient
       inkscape:collect="always"
       xlink:href="#linearGradient4026"
       id="linearGradient4150"
       gradientUnits="userSpaceOnUse"
       x1="-41.197594"
       y1="1042.7213"
       x2="-41.197594"
       y2="1002.0031" />
    <linearGradient
       inkscape:collect="always"
       xlink:href="#linearGradient4272"
       id="linearGradient3880"
       x1="26"
       y1="46"
       x2="26"
       y2="2"
       gradientUnits="userSpaceOnUse" />
    <linearGradient
       y2="-7.7778559"
       x2="78.210526"
       y1="33.777702"
       x1="78.210526"
       gradientTransform="matrix(0.86363632,0,0,0.81818178,-42.545451,1012.7259)"
       gradientUnits="userSpaceOnUse"
       id="linearGradient3084"
       xlink:href="#linearGradient3068"
       inkscape:collect="always" />
    <linearGradient
       id="linearGradient3068">
      <stop
         style="stop-color:#ff9e00;stop-opacity:1;"
         offset="0"
         id="stop3070" />
      <stop
         style="stop-color:#edc400;stop-opacity:1;"
         offset="1"
         id="stop3072" />
    </linearGradient>
    <linearGradient
       inkscape:collect="always"
       xlink:href="#linearGradient3068-5"
       id="linearGradient3880-4"
       x1="26"
       y1="46"
       x2="26"
       y2="2"
       gradientUnits="userSpaceOnUse" />
    <linearGradient
       id="linearGradient3068-5">
      <stop
         style="stop-color:#ff9e00;stop-opacity:1;"
         offset="0"
         id="stop3070-5" />
      <stop
         style="stop-color:#edc400;stop-opacity:1;"
         offset="1"
         id="stop3072-9" />
    </linearGradient>
    <linearGradient
       gradientTransform="translate(-68.293491,1004.3622)"
       y2="2"
       x2="26"
       y1="46"
       x1="26"
       gradientUnits="userSpaceOnUse"
       id="linearGradient4024-2"
       xlink:href="#linearGradient3068-5-2"
       inkscape:collect="always" />
    <linearGradient
       id="linearGradient3068-5-2">
      <stop
         style="stop-color:#ff9e00;stop-opacity:1;"
         offset="0"
         id="stop3070-5-2" />
      <stop
         style="stop-color:#edc400;stop-opacity:1;"
         offset="1"
         id="stop3072-9-8" />
    </linearGradient>
    <linearGradient
       y2="2"
       x2="26"
       y1="46"
       x1="26"
       gradientTransform="translate(-68.293492,1004.3622)"
       gradientUnits="userSpaceOnUse"
       id="linearGradient4076"
       xlink:href="#linearGradient3068-5-2"
       inkscape:collect="always" />
    <clipPath
       clipPathUnits="userSpaceOnUse"
       id="clipPath4096">
      <path
         style="fill:url(#linearGradient4100);fill-opacity:1;stroke:none;display:inline"
         d="m 104.50631,961.94321 151.52476,0 c 29.05779,0 52.45088,23.3931 52.45088,52.45089 l 0,2.3679 0,2.3672 0,2.3679 0,2.3673 0,2.3679 0,2.3672 0,2.3679 0,2.3673 0,2.3679 0,2.3672 0,2.3679 0,2.3673 0,2.3679 0,2.3672 0,2.3679 -256.426525,0 0,-2.3679 0,-2.3672 0,-2.3679 0,-2.3673 0,-2.3679 0,-2.3672 0,-2.3679 0,-2.3673 0,-2.3679 0,-2.3672 0,-2.3679 0,-2.3673 0,-2.3679 0,-2.3672 0,-2.3679 c 0,-29.05779 23.393093,-52.45089 52.450885,-52.45089 z"
         id="path4098"
         inkscape:connector-curvature="0"
         sodipodi:nodetypes="sssccccccccccccccccccccccccccccccss" />
    </clipPath>
    <linearGradient
       inkscape:collect="always"
       xlink:href="#linearGradient3068-5-2"
       id="linearGradient4100"
       gradientUnits="userSpaceOnUse"
       gradientTransform="matrix(5.8278757,0,0,5.8278757,40.39965,950.28746)"
       x1="26"
       y1="46"
       x2="26"
       y2="2" />
    <clipPath
       clipPathUnits="userSpaceOnUse"
       id="clipPath4096-7">
      <path
         style="fill:url(#linearGradient4100);fill-opacity:1;stroke:none;display:inline"
         d="m 104.50631,961.94321 151.52476,0 c 29.05779,0 52.45088,23.3931 52.45088,52.45089 l 0,2.3679 0,2.3672 0,2.3679 0,2.3673 0,2.3679 0,2.3672 0,2.3679 0,2.3673 0,2.3679 0,2.3672 0,2.3679 0,2.3673 0,2.3679 0,2.3672 0,2.3679 -256.426525,0 0,-2.3679 0,-2.3672 0,-2.3679 0,-2.3673 0,-2.3679 0,-2.3672 0,-2.3679 0,-2.3673 0,-2.3679 0,-2.3672 0,-2.3679 0,-2.3673 0,-2.3679 0,-2.3672 0,-2.3679 c 0,-29.05779 23.393093,-52.45089 52.450885,-52.45089 z"
         id="path4098-1"
         inkscape:connector-curvature="0"
         sodipodi:nodetypes="sssccccccccccccccccccccccccccccccss" />
    </clipPath>
    <linearGradient
       inkscape:collect="always"
       xlink:href="#linearGradient3068-3"
       id="linearGradient3880-6"
       x1="26"
       y1="46"
       x2="26"
       y2="2"
       gradientUnits="userSpaceOnUse" />
    <linearGradient
       id="linearGradient3068-3">
      <stop
         style="stop-color:#ff9e00;stop-opacity:1;"
         offset="0"
         id="stop3070-3" />
      <stop
         style="stop-color:#edc400;stop-opacity:1;"
         offset="1"
         id="stop3072-8" />
    </linearGradient>
    <linearGradient
       gradientTransform="translate(1.4494629e-8,1004.3622)"
       y2="2"
       x2="26"
       y1="46"
       x1="26"
       gradientUnits="userSpaceOnUse"
       id="linearGradient3122"
       xlink:href="#linearGradient3068-3"
       inkscape:collect="always" />
  </defs>
  <sodipodi:namedview
     id="base"
     pagecolor="#ffffff"
     bordercolor="#666666"
     borderopacity="1.0"
     inkscape:pageopacity="0.0"
     inkscape:pageshadow="2"
     inkscape:zoom="21.4"
     inkscape:cx="9.0170563"
     inkscape:cy="16.473605"
     inkscape:document-units="px"
     inkscape:current-layer="layer2"
     showgrid="true"
     inkscape:showpageshadow="false"
     borderlayer="true"
     inkscape:window-width="1920"
     inkscape:window-height="1052"
     inkscape:window-x="0"
     inkscape:window-y="28"
     inkscape:window-maximized="1"
     showguides="false"
     inkscape:snap-grids="false"
     inkscape:snap-to-guides="false">
    <inkscape:grid
       type="xygrid"
       id="grid4162" />
    <sodipodi:guide
       position="1.0000013,47.000017"
       orientation="46,0"
       id="guide4163" />
    <sodipodi:guide
       position="1.0000013,1.0000174"
       orientation="0,45.999999"
       id="guide4165" />
    <sodipodi:guide
       position="47,1.0000174"
       orientation="-46,0"
       id="guide4167" />
    <sodipodi:guide
       position="47,47.000017"
       orientation="0,-45.999999"
       id="guide4169" />
    <sodipodi:guide
       position="2.0000007,46.000017"
       orientation="44,0"
       id="guide4173" />
    <sodipodi:guide
       position="2.0000007,2.0000174"
       orientation="0,43.999999"
       id="guide4175" />
    <sodipodi:guide
       position="46,2.0000174"
       orientation="-44,0"
       id="guide4177" />
    <sodipodi:guide
       position="46,46.000017"
       orientation="0,-43.999999"
       id="guide4179" />
    <sodipodi:guide
       position="3,45.000017"
       orientation="42,0"
       id="guide4183" />
    <sodipodi:guide
       position="45,3.0000174"
       orientation="-42,0"
       id="guide4187" />
    <sodipodi:guide
       position="45,45.000017"
       orientation="0,-42"
       id="guide4189" />
    <sodipodi:guide
       position="3,45.000017"
       orientation="42,0"
       id="guide4193" />
    <sodipodi:guide
       position="3,3.0000174"
       orientation="0,42"
       id="guide4195" />
    <sodipodi:guide
       position="45,3.0000174"
       orientation="-42,0"
       id="guide4197" />
    <sodipodi:guide
       position="45,45.000017"
       orientation="0,-42"
       id="guide4199" />
    <sodipodi:guide
       position="3,10.000017"
       orientation="7,0"
       id="guide4203" />
    <sodipodi:guide
       position="3,3.0000174"
       orientation="0,42"
       id="guide4205" />
    <sodipodi:guide
       position="45,3.0000174"
       orientation="-7,0"
       id="guide4207" />
    <sodipodi:guide
       position="45,10.000017"
       orientation="0,-42"
       id="guide4209" />
  </sodipodi:namedview>
  <metadata
     id="metadata4235">
    <rdf:RDF>
      <cc:Work
         rdf:about="">
        <dc:format>image/svg+xml</dc:format>
        <dc:type
           rdf:resource="http://purl.org/dc/dcmitype/StillImage" />
        <dc:title></dc:title>
      </cc:Work>
    </rdf:RDF>
  </metadata>
  <g
     inkscape:groupmode="layer"
     id="layer3"
     inkscape:label="Fake blur shadow"
     style="display:inline"
     sodipodi:insensitive="true">
    <path
       style="opacity:0.06000001;fill:#000000;fill-opacity:1;stroke:none"
       d="M 10,1 C 5.014,1 1,5.014 1,10 l 0,28 c 0,4.986 4.014,9 9,9 l 28,0 c 4.986,0 9,-4.014 9,-9 L 47,10 C 47,5.014 42.986,1 38,1 L 10,1 z m 0.5,0.5 27,0 c 4.986,0 9,4.014 9,9 l 0,27 c 0,4.986 -4.014,9 -9,9 l -27,0 c -4.986,0 -9,-4.014 -9,-9 l 0,-27 c 0,-4.986 4.014,-9 9,-9 z"
       id="rect3829"
       inkscape:connector-curvature="0" />
    <path
       style="opacity:0.12000002;fill:#000000;fill-opacity:1;stroke:none"
       d="m 10.5,1.5 c -4.986,0 -9,4.014 -9,9 l 0,27 c 0,4.986 4.014,9 9,9 l 27,0 c 4.986,0 9,-4.014 9,-9 l 0,-27 c 0,-4.986 -4.014,-9 -9,-9 l -27,0 z m 0.25,0.25 26.5,0 c 4.986,0 9,4.014 9,9 l 0,26.5 c 0,4.986 -4.014,9 -9,9 l -26.5,0 c -4.986,0 -9,-4.014 -9,-9 l 0,-26.5 c 0,-4.986 4.014,-9 9,-9 z"
       id="rect3827"
       inkscape:connector-curvature="0" />
    <rect
       style="opacity:0.23999999;fill:#000000;fill-opacity:1;stroke:none"
       id="rect3038-4"
       width="44.5"
       height="44.5"
       x="1.75"
       y="1.75"
       ry="9"
       rx="9" />
  </g>
  <g
     inkscape:groupmode="layer"
     id="layer6"
     inkscape:label="Blob"
     style="display:inline"
     sodipodi:insensitive="true">
    <path
       style="opacity:0.3;fill:url(#radialGradient4274);fill-opacity:1;stroke:none"
       d="M 1.03125,39 C 1.5192036,43.518898 5.3471961,47 10,47 l 28,0 c 4.652804,0 8.480796,-3.481102 8.96875,-8 l -45.9375,0 z"
       id="rect4241"
       inkscape:connector-curvature="0" />
  </g>
  <g
     inkscape:groupmode="layer"
     id="layer2"
     inkscape:label="Baseplate"
     style="display:inline">
    <rect
       style="fill:url(#linearGradient3880);fill-opacity:1.0;stroke:none"
       id="rect3038"
       width="44"
       height="44"
       x="2"
       y="1.9999826"
       ry="9"
       rx="9" />
  </g>
  <g
     inkscape:label="Symbol"
     inkscape:groupmode="layer"
     id="layer1"
     transform="translate(0,-1004.3622)"
     style="display:inline">
    <g
       style="opacity:0.15;fill:#000000;fill-opacity:1;display:inline"
       id="g3990-7-5"
       transform="matrix(0.17158911,0,0,0.17052277,-6.932144,843.32898)"
       clip-path="url(#clipPath4096-7)">
      <path
         sodipodi:nodetypes="cccccc"
         inkscape:connector-curvature="0"
         id="rect3859-6-6"
         d="M 58.403678,-29.113697 84.352261,-46.123209 132.0938,1.5821887 87.509858,46.052191 87.439125,0.38686197 z"
         style="color:#000000;fill:#000000;fill-opacity:1;fill-rule:nonzero;stroke:none;stroke-width:5.54799986;marker:none;visibility:visible;display:inline;overflow:visible;enable-background:accumulate"
         transform="translate(0,1004.3622)" />
      <path
         sodipodi:nodetypes="ccccccc"
         inkscape:connector-curvature="0"
         id="rect3859-1-9-2"
         d="m 124.07032,959.72724 40.13944,-1.48825 47.74154,47.70541 -44.58394,44.47 -41.20275,0 44.08848,-44.6331 z"
         style="color:#000000;fill:#000000;fill-opacity:1;fill-rule:nonzero;stroke:none;stroke-width:5.54799986;marker:none;visibility:visible;display:inline;overflow:visible;enable-background:accumulate" />
      <path
         sodipodi:nodetypes="ccccccc"
         inkscape:connector-curvature="0"
         id="rect3859-1-6-8-4"
         d="m 203.89388,959.72729 40.13944,-1.4883 47.74154,47.70541 -44.58394,44.47 -41.20275,0 44.08848,-44.6331 z"
         style="color:#000000;fill:#000000;fill-opacity:1;fill-rule:nonzero;stroke:none;stroke-width:5.54799986;marker:none;visibility:visible;display:inline;overflow:visible;enable-background:accumulate" />
      <path
         sodipodi:nodetypes="ccccccc"
         inkscape:connector-curvature="0"
         id="rect3859-1-6-0-2-4"
         d="m 164.86903,959.72729 40.13944,-1.4883 47.74154,47.70541 -44.58394,44.47 -41.20275,0 44.08848,-44.6331 z"
         style="color:#000000;fill:#000000;fill-opacity:1;fill-rule:nonzero;stroke:none;stroke-width:5.54799986;marker:none;visibility:visible;display:inline;overflow:visible;enable-background:accumulate" />
      <path
         sodipodi:nodetypes="ccccccc"
         inkscape:connector-curvature="0"
         id="rect3859-1-6-0-1-6-3"
         d="m 85.045469,959.72729 40.139441,-1.4883 47.74154,47.70541 -44.58394,44.47 -41.202751,0 44.088481,-44.6331 z"
         style="color:#000000;fill:#000000;fill-opacity:1;fill-rule:nonzero;stroke:none;stroke-width:5.54799986;marker:none;visibility:visible;display:inline;overflow:visible;enable-background:accumulate" />
      <path
         sodipodi:nodetypes="ccccccc"
         inkscape:connector-curvature="0"
         id="rect3859-1-6-0-1-4-1-1"
         d="m 244.39695,959.72729 40.13944,-1.4883 47.74154,47.70541 -44.58394,44.47 -41.20275,0 44.08848,-44.6331 z"
         style="color:#000000;fill:#000000;fill-opacity:1;fill-rule:nonzero;stroke:none;stroke-width:5.54799986;marker:none;visibility:visible;display:inline;overflow:visible;enable-background:accumulate" />
      <path
         sodipodi:nodetypes="ccccccc"
         inkscape:connector-curvature="0"
         id="rect3859-1-6-0-1-4-2-7-6"
         d="m 285.4913,959.72729 40.13944,-1.4883 47.74154,47.70541 -44.58394,44.47 -41.20275,0 44.08848,-44.6331 z"
         style="color:#000000;fill:#000000;fill-opacity:1;fill-rule:nonzero;stroke:none;stroke-width:5.54799986;marker:none;visibility:visible;display:inline;overflow:visible;enable-background:accumulate" />
      <rect
         ry="0"
         y="977.7124"
         x="45.085529"
         height="72.432495"
         width="43.163853"
         id="rect3970-3-5"
         style="color:#000000;fill:#000000;fill-opacity:1;fill-rule:nonzero;stroke:none;stroke-width:5.54799986;marker:none;visibility:visible;display:inline;overflow:visible;enable-background:accumulate" />
      <path
         sodipodi:type="arc"
         style="color:#000000;fill:#000000;fill-opacity:1;fill-rule:nonzero;stroke:none;stroke-width:5.54799986;marker:none;visibility:visible;display:inline;overflow:visible;enable-background:accumulate"
         id="path4102-7"
         sodipodi:cx="4.3125"
         sodipodi:cy="8"
         sodipodi:rx="1"
         sodipodi:ry="1"
         d="m 5.3125,8 a 1,1 0 0 1 -1,1 1,1 0 0 1 -1,-1 1,1 0 0 1 1,-1 1,1 0 0 1 1,1 z"
         transform="matrix(7.3732246,0,0,7.3732246,38.478473,940.1985)" />
    </g>
    <path
       style="color:#000000;fill:#171717;fill-opacity:1;fill-rule:nonzero;stroke:none;stroke-width:5.54799986;marker:none;visibility:visible;display:inline;overflow:visible;enable-background:accumulate"
       d="M 14.71875,2 22.28125,9.53125 14.71875,17 21.78125,17 29.4375,9.5625 21.875,2 z"
       transform="translate(0,1004.3622)"
       id="rect3859-1-9"
       inkscape:connector-curvature="0"
       sodipodi:nodetypes="ccccccc" />
    <path
       style="color:#000000;fill:#171717;fill-opacity:1;fill-rule:nonzero;stroke:none;stroke-width:5.54799986;marker:none;visibility:visible;display:inline;overflow:visible;enable-background:accumulate"
       d="M 28.4375,2 35.96875,9.53125 28.40625,17 35.46875,17 43.125,9.5625 35.5625,2 z"
       transform="translate(0,1004.3622)"
       id="rect3859-1-6-8"
       inkscape:connector-curvature="0"
       sodipodi:nodetypes="ccccccc" />
    <path
       style="color:#000000;fill:#f7f7f7;fill-opacity:1;fill-rule:nonzero;stroke:none;stroke-width:5.54799986;marker:none;visibility:visible;display:inline;overflow:visible;enable-background:accumulate"
       d="M 21.71875,2 29.28125,9.53125 21.71875,17 28.78125,17 36.4375,9.5625 28.875,2 z"
       transform="translate(0,1004.3622)"
       id="rect3859-1-6-0-2"
       inkscape:connector-curvature="0"
       sodipodi:nodetypes="ccccccc" />
    <path
       style="color:#000000;fill:#f7f7f7;fill-opacity:1;fill-rule:nonzero;stroke:none;stroke-width:5.54799986;marker:none;visibility:visible;display:inline;overflow:visible;enable-background:accumulate"
       d="M 11,2 C 10.099168,2 9.2256845,2.1308867 8.40625,2.375 L 15.59375,9.53125 8.03125,17 15.09375,17 22.75,9.5625 15.15625,2 z"
       transform="translate(0,1004.3622)"
       id="rect3859-1-6-0-1-6"
       inkscape:connector-curvature="0"
       sodipodi:nodetypes="sccccccs" />
    <path
       style="color:#000000;fill:#f7f7f7;fill-opacity:1;fill-rule:nonzero;stroke:none;stroke-width:5.54799986;marker:none;visibility:visible;display:inline;overflow:visible;enable-background:accumulate"
       d="M 35.375,2 42.9375,9.53125 35.375,17 42.4375,17 46,13.625 46,11 C 46,6.014 41.986,2 37,2 z"
       transform="translate(0,1004.3622)"
       id="rect3859-1-6-0-1-4-1"
       inkscape:connector-curvature="0"
       sodipodi:nodetypes="cccccssc" />
    <path
       style="color:#000000;fill:#171717;fill-opacity:1;fill-rule:nonzero;stroke:none;stroke-width:5.54799986;marker:none;visibility:visible;display:inline;overflow:visible;enable-background:accumulate"
       d="M 46,13.5625 42.40625,17 46,17 z"
       transform="translate(0,1004.3622)"
       id="rect3859-1-6-0-1-4-2-7"
       inkscape:connector-curvature="0"
       sodipodi:nodetypes="cccc" />
    <path
       inkscape:connector-curvature="0"
       id="path4156"
       d="m 8.5510491,1013.9015 37.3380029,-0.048"
       style="opacity:0.41129031;fill:none;stroke:#000000;stroke-width:0.09926321;stroke-linecap:butt;stroke-linejoin:miter;stroke-miterlimit:4;stroke-opacity:1;stroke-dasharray:none" />
    <path
       style="color:#000000;fill:#171717;fill-opacity:1;fill-rule:nonzero;stroke:none;stroke-width:5.54799986;marker:none;visibility:visible;display:inline;overflow:visible;enable-background:accumulate"
       d="M 8.5,2.375 C 6.7835978,2.8676819 5.2830891,3.8369052 4.15625,5.15625 l 4.375,4.375 L 2,16.15625 2,17 8.03125,17 15.6875,9.5625 z"
       transform="translate(0,1004.3622)"
       id="rect3859-1-9-8"
       inkscape:connector-curvature="0"
       sodipodi:nodetypes="cccccccc" />
    <path
       style="color:#000000;fill:#717171;fill-opacity:1;fill-rule:nonzero;stroke:none;stroke-width:5.54799986;marker:none;visibility:visible;display:inline;overflow:visible;enable-background:accumulate"
       d="M 8.5625,2.34375 C 4.7688727,3.401914 2,6.8598393 2,11 l 0,6 7,0 z"
       transform="translate(0,1004.3622)"
       id="rect3970-3"
       inkscape:connector-curvature="0"
       sodipodi:nodetypes="csccc" />
    <path
       transform="matrix(1.5,0,0,1.5,-0.96875,1002.8622)"
       d="m 5.3125,8 a 1,1 0 0 1 -1,1 1,1 0 0 1 -1,-1 1,1 0 0 1 1,-1 1,1 0 0 1 1,1 z"
       sodipodi:ry="1"
       sodipodi:rx="1"
       sodipodi:cy="8"
       sodipodi:cx="4.3125"
       id="path4102"
       style="color:#000000;fill:#ffffff;fill-opacity:1;fill-rule:nonzero;stroke:none;stroke-width:5.54799986;marker:none;visibility:visible;display:inline;overflow:visible;enable-background:accumulate"
       sodipodi:type="arc" />
    <path
       id="path3470"
       d="m 24,1025.3622 c -5.523,0 -10,4.477 -10,10 0,5.523 4.477,10 10,10 5.523,0 10,-4.477 10,-10 0,-5.523 -4.477,-10 -10,-10 m -3,5.313 8,5.094 -8,5.094 0,-10.188"
       style="fill:#000000;fill-opacity:1;opacity:0.1"
       inkscape:connector-curvature="0" />
    <path
       inkscape:connector-curvature="0"
       style="fill:#f7f7f7"
       d="m 24,1024.3622 c -5.523,0 -10,4.477 -10,10 0,5.523 4.477,10 10,10 5.523,0 10,-4.477 10,-10 0,-5.523 -4.477,-10 -10,-10 m -3,5.313 8,5.094 -8,5.094 0,-10.188"
       id="path47" />
  </g>
  <g
     inkscape:groupmode="layer"
     id="layer4"
     inkscape:label="Inset"
     sodipodi:insensitive="true"
     style="display:inline">
    <path
       style="opacity:0.15;fill:#000000;fill-opacity:1;stroke:none"
       d="m 2,34 0,3 c 0,4.986 4.014,9 9,9 l 26,0 c 4.986,0 9,-4.014 9,-9 l 0,-3 c 0,4.986 -4.014,9 -9,9 L 11,43 C 6.014,43 2,38.986 2,34 z"
       id="rect3038-42"
       inkscape:connector-curvature="0" />
  </g>
  <g
     inkscape:groupmode="layer"
     id="layer7"
     inkscape:label="Baseshape"
     sodipodi:insensitive="true"
     style="display:none">
    <rect
       rx="9"
       ry="9"
       y="2"
       x="2"
       height="44"
       width="44"
       id="rect4169"
       style="fill:#abe1ad;fill-opacity:1;stroke:none;display:inline" />
  </g>
</svg>
