<?xml version="1.0" encoding="UTF-8" standalone="no"?>
<!-- Created with Inkscape (http://www.inkscape.org/) -->

<svg
   xmlns:dc="http://purl.org/dc/elements/1.1/"
   xmlns:cc="http://creativecommons.org/ns#"
   xmlns:rdf="http://www.w3.org/1999/02/22-rdf-syntax-ns#"
   xmlns:svg="http://www.w3.org/2000/svg"
   xmlns="http://www.w3.org/2000/svg"
   xmlns:xlink="http://www.w3.org/1999/xlink"
   xmlns:sodipodi="http://sodipodi.sourceforge.net/DTD/sodipodi-0.dtd"
   xmlns:inkscape="http://www.inkscape.org/namespaces/inkscape"
   width="48"
   height="48"
   id="svg4230"
   version="1.1"
   inkscape:version="0.48.5 r"
   sodipodi:docname="midori2.svg"
   inkscape:export-filename="/media/Data/Home/Documents/my-ozon/preview/midori1.png"
   inkscape:export-xdpi="240"
   inkscape:export-ydpi="240">
  <defs
     id="defs4232">
    <linearGradient
       id="linearGradient3796">
      <stop
         style="stop-color:#f7f7f7;stop-opacity:1;"
         offset="0"
         id="stop3798" />
      <stop
         style="stop-color:#ececec;stop-opacity:1;"
         offset="1"
         id="stop3800" />
    </linearGradient>
    <linearGradient
       id="linearGradient4524">
      <stop
         style="stop-color:#1c5ed1;stop-opacity:1;"
         offset="0"
         id="stop4526" />
      <stop
         style="stop-color:#3675e3;stop-opacity:1;"
         offset="1"
         id="stop4528" />
    </linearGradient>
    <linearGradient
       id="linearGradient4243">
      <stop
         style="stop-color:#000000;stop-opacity:1;"
         offset="0"
         id="stop4245" />
      <stop
         style="stop-color:#000000;stop-opacity:0;"
         offset="1"
         id="stop4247" />
    </linearGradient>
    <radialGradient
       inkscape:collect="always"
       xlink:href="#linearGradient4243"
       id="radialGradient4274"
       gradientUnits="userSpaceOnUse"
       gradientTransform="matrix(1.0434782,0,0,0.1956518,-1.0434797,35.184809)"
       cx="24.000001"
       cy="42.499991"
       fx="24.000001"
       fy="42.499991"
       r="23" />
    <linearGradient
       id="linearGradient3068-1">
      <stop
         style="stop-color:#cccccc;stop-opacity:1;"
         offset="0"
         id="stop3070-5" />
      <stop
         style="stop-color:#ffffff;stop-opacity:1;"
         offset="1"
         id="stop3072-7" />
    </linearGradient>
    <linearGradient
       inkscape:collect="always"
       xlink:href="#linearGradient3068-1"
       id="linearGradient4245"
       x1="24.230993"
       y1="1043.1351"
       x2="24.230993"
       y2="1010.4795"
       gradientUnits="userSpaceOnUse" />
    <linearGradient
       inkscape:collect="always"
       xlink:href="#linearGradient3796"
       id="linearGradient3802"
       x1="24"
       y1="1015.3622"
       x2="24"
       y2="1039.3622"
       gradientUnits="userSpaceOnUse" />
    <linearGradient
       y2="5"
       x2="4"
       y1="33"
       x1="33"
       gradientTransform="matrix(1.1626866,0.3285437,-0.3285437,1.1626866,327.75135,406.92561)"
       gradientUnits="userSpaceOnUse"
       id="linearGradient2427"
       xlink:href="#linearGradient3458"
       inkscape:collect="always" />
    <linearGradient
       y2="19"
       x2="40"
       y1="11"
       x1="13"
       gradientTransform="matrix(1.1626866,0.3285437,-0.3285437,1.1626866,325.6313,407.16081)"
       gradientUnits="userSpaceOnUse"
       id="linearGradient2416"
       xlink:href="#linearGradient3412"
       inkscape:collect="always" />
    <linearGradient
       id="linearGradient3458">
      <stop
         id="stop3460"
         offset="0"
         style="stop-color:#41a100;stop-opacity:1;" />
      <stop
         id="stop3462"
         offset="1"
         style="stop-color:#73d216;stop-opacity:1;" />
    </linearGradient>
    <linearGradient
       id="linearGradient3412">
      <stop
         id="stop3414"
         offset="0"
         style="stop-color:#ffffff;stop-opacity:0.59836066;" />
      <stop
         id="stop3416"
         offset="1"
         style="stop-color:#4e9a06;stop-opacity:0;" />
    </linearGradient>
    <inkscape:perspective
       id="perspective42"
       inkscape:persp3d-origin="17.346334 : 13.131055 : 1"
       inkscape:vp_z="34.692669 : 19.696583 : 1"
       inkscape:vp_y="0 : 1000 : 0"
       inkscape:vp_x="0 : 19.696583 : 1"
       sodipodi:type="inkscape:persp3d" />
    <linearGradient
       inkscape:collect="always"
       xlink:href="#linearGradient3412"
       id="linearGradient3165"
       gradientUnits="userSpaceOnUse"
       gradientTransform="matrix(1.1626866,0.3285437,-0.3285437,1.1626866,-48.12367,981.76163)"
       x1="13"
       y1="11"
       x2="40"
       y2="19" />
    <linearGradient
       inkscape:collect="always"
       xlink:href="#linearGradient3458"
       id="linearGradient3176"
       gradientUnits="userSpaceOnUse"
       gradientTransform="matrix(1.1626866,0.3285437,-0.3285437,1.1626866,-42.27112,989.15503)"
       x1="33"
       y1="33"
       x2="4"
       y2="5" />
    <linearGradient
       inkscape:collect="always"
       xlink:href="#linearGradient3458"
       id="linearGradient3966"
       x1="29"
       y1="45.999981"
       x2="24"
       y2="1.9999828"
       gradientUnits="userSpaceOnUse"
       gradientTransform="translate(0,1.72e-5)" />
    <linearGradient
       inkscape:collect="always"
       xlink:href="#linearGradient3068-1"
       id="linearGradient4270"
       x1="10"
       y1="38"
       x2="24"
       y2="24"
       gradientUnits="userSpaceOnUse" />
    <inkscape:perspective
       sodipodi:type="inkscape:persp3d"
       inkscape:vp_x="0 : 0.5 : 1"
       inkscape:vp_y="0 : 1000 : 0"
       inkscape:vp_z="1 : 0.5 : 1"
       inkscape:persp3d-origin="0.5 : 0.33333333 : 1"
       id="perspective2824" />
    <inkscape:perspective
       id="perspective10"
       inkscape:persp3d-origin="372.04724 : 350.78739 : 1"
       inkscape:vp_z="744.09448 : 526.18109 : 1"
       inkscape:vp_y="0 : 1000 : 0"
       inkscape:vp_x="0 : 526.18109 : 1"
       sodipodi:type="inkscape:persp3d" />
  </defs>
  <sodipodi:namedview
     id="base"
     pagecolor="#ffffff"
     bordercolor="#666666"
     borderopacity="1.0"
     inkscape:pageopacity="0.0"
     inkscape:pageshadow="2"
     inkscape:zoom="5.6568543"
     inkscape:cx="22.00334"
     inkscape:cy="30.174638"
     inkscape:document-units="px"
     inkscape:current-layer="layer2"
     showgrid="true"
     inkscape:showpageshadow="false"
     borderlayer="true"
     inkscape:window-width="1327"
     inkscape:window-height="736"
     inkscape:window-x="39"
     inkscape:window-y="32"
     inkscape:window-maximized="1"
     showguides="true"
     inkscape:guide-bbox="true">
    <inkscape:grid
       type="xygrid"
       id="grid4162" />
    <sodipodi:guide
       orientation="0,1"
       position="25,40"
       id="guide3992" />
    <sodipodi:guide
       orientation="1,0"
       position="8,24"
       id="guide3994" />
    <sodipodi:guide
       orientation="1,0"
       position="40,24"
       id="guide3996" />
    <sodipodi:guide
       orientation="0,1"
       position="25,8"
       id="guide3998" />
    <sodipodi:guide
       orientation="0,1"
       position="7,24"
       id="guide4229" />
    <sodipodi:guide
       orientation="1,0"
       position="24,8"
       id="guide4231" />
  </sodipodi:namedview>
  <metadata
     id="metadata4235">
    <rdf:RDF>
      <cc:Work
         rdf:about="">
        <dc:format>image/svg+xml</dc:format>
        <dc:type
           rdf:resource="http://purl.org/dc/dcmitype/StillImage" />
        <dc:title></dc:title>
      </cc:Work>
    </rdf:RDF>
  </metadata>
  <g
     inkscape:groupmode="layer"
     id="layer3"
     inkscape:label="Fake blur shadow"
     style="display:inline"
     sodipodi:insensitive="true">
    <path
       style="opacity:0.06000001;fill:#000000;fill-opacity:1;stroke:none"
       d="M 10,1 C 5.014,1 1,5.014 1,10 l 0,28 c 0,4.986 4.014,9 9,9 l 28,0 c 4.986,0 9,-4.014 9,-9 L 47,10 C 47,5.014 42.986,1 38,1 L 10,1 z m 0.5,0.5 27,0 c 4.986,0 9,4.014 9,9 l 0,27 c 0,4.986 -4.014,9 -9,9 l -27,0 c -4.986,0 -9,-4.014 -9,-9 l 0,-27 c 0,-4.986 4.014,-9 9,-9 z"
       id="rect3829"
       inkscape:connector-curvature="0" />
    <path
       style="opacity:0.12000002;fill:#000000;fill-opacity:1;stroke:none"
       d="m 10.5,1.5 c -4.986,0 -9,4.014 -9,9 l 0,27 c 0,4.986 4.014,9 9,9 l 27,0 c 4.986,0 9,-4.014 9,-9 l 0,-27 c 0,-4.986 -4.014,-9 -9,-9 l -27,0 z m 0.25,0.25 26.5,0 c 4.986,0 9,4.014 9,9 l 0,26.5 c 0,4.986 -4.014,9 -9,9 l -26.5,0 c -4.986,0 -9,-4.014 -9,-9 l 0,-26.5 c 0,-4.986 4.014,-9 9,-9 z"
       id="rect3827"
       inkscape:connector-curvature="0" />
    <rect
       style="opacity:0.23999999;fill:#000000;fill-opacity:1;stroke:none"
       id="rect3038-4"
       width="44.5"
       height="44.5"
       x="1.75"
       y="1.75"
       ry="9"
       rx="9" />
  </g>
  <g
     inkscape:groupmode="layer"
     id="layer6"
     inkscape:label="Blob"
     style="display:inline"
     sodipodi:insensitive="true">
    <path
       style="opacity:0.3;fill:url(#radialGradient4274);fill-opacity:1;stroke:none"
       d="M 1.03125,39 C 1.5192036,43.518898 5.3471961,47 10,47 l 28,0 c 4.652804,0 8.480796,-3.481102 8.96875,-8 l -45.9375,0 z"
       id="rect4241"
       inkscape:connector-curvature="0" />
  </g>
  <g
     inkscape:groupmode="layer"
     id="layer2"
     inkscape:label="Baseplate"
     style="display:inline">
    <rect
       rx="9"
       ry="9"
       y="2"
       x="2"
       height="44"
       width="44"
       id="rect3958"
       style="fill:url(#linearGradient3966);fill-opacity:1;stroke:none" />
  </g>
  <g
     inkscape:label="Symbol"
     inkscape:groupmode="layer"
     id="layer1"
     transform="translate(0,-1004.3622)"
     style="display:inline">
    <path
       d="m 24,16 c -4.418278,0 -8,3.581722 -8,8 0,4.418278 3.581722,8 8,8 4.418278,0 8,-3.581722 8,-8 0,-4.418278 -3.581722,-8 -8,-8 z m 0,2 c 3.313708,0 6,2.686292 6,6 0,3.313708 -2.686292,6 -6,6 -3.313708,0 -6,-2.686292 -6,-6 0,-3.313708 2.686292,-6 6,-6 z m -6,2 2,-2 -4,-2 2,4 m 2,10 -2,-2 -2,4 4,-2 m 10,-2 -2,2 4,2 -2,-4 m -2,-10 2,2 2,-4 -4,2 m -20,6 10,3 -1,-3 1,-3 z m 16,16 3,-10 -3,1 -3,-1 z m 16,-16 -10,-3 1,3 -1,3 z M 24,8 l -3,10 3,-1 3,1 z"
       style="display:inline;opacity:0.14999999999999999;fill:#000000;fill-opacity:1;stroke:none"
       id="path4342"
       inkscape:connector-curvature="0"
       transform="translate(0,1004.3622)" />
    <path
       id="path4332"
       style="display:inline;fill:#388a00;fill-opacity:1;stroke:none"
       d="m 24,15 c -4.418278,0 -8,3.581722 -8,8 0,4.418278 3.581722,8 8,8 4.418278,0 8,-3.581722 8,-8 0,-4.418278 -3.581722,-8 -8,-8 z m 0,2 c 3.313708,0 6,2.686292 6,6 0,3.313708 -2.686292,6 -6,6 -3.313708,0 -6,-2.686292 -6,-6 0,-3.313708 2.686292,-6 6,-6 z m -6,2 2,-2 -4,-2 2,4 m 2,10 -2,-2 -2,4 4,-2 m 10,-2 -2,2 4,2 -2,-4 m -2,-10 2,2 2,-4 -4,2 m -20,6 10,3 -1,-3 1,-3 z m 16,16 3,-10 -3,1 -3,-1 z m 16,-16 -10,-3 1,3 -1,3 z M 24,7 l -3,10 3,-1 3,1 z"
       inkscape:connector-curvature="0"
       transform="translate(0,1004.3622)" />
    <path
       style="display:inline;opacity:0.14999999999999999;fill:#000000;fill-opacity:1;stroke:none"
       d="m 24,7 -2.53125,8.4375 c -0.816057,0.272784 -1.574929,0.651395 -2.25,1.15625 L 16,15 l 0.65625,1.3125 2.5625,1.28125 c 0.675071,-0.504855 1.433943,-0.883466 2.25,-1.15625 L 24,8 l 2.53125,8.4375 c 0.816057,0.272784 1.574929,0.651395 2.25,1.15625 L 31.34375,16.3125 32,15 28.78125,16.59375 c -0.675071,-0.504855 -1.433943,-0.883466 -2.25,-1.15625 L 24,7 z m -6.6875,11.625 c -0.372049,0.567717 -0.65581,1.188026 -0.875,1.84375 L 8,23 9.65625,23.5 16.4375,21.46875 c 0.272784,-0.816057 0.651395,-1.574929 1.15625,-2.25 L 17.3125,18.625 z m 13.375,0 -0.28125,0.59375 c 0.504855,0.675071 0.883466,1.433943 1.15625,2.25 L 38.34375,23.5 40,23 31.5625,20.46875 C 31.34331,19.813026 31.059549,19.192717 30.6875,18.625 z m -12.65625,5 C 18.023779,23.747591 18,23.875529 18,24 c 0,3.313708 2.686292,6 6,6 3.313708,0 6,-2.686292 6,-6 0,-0.124471 -0.02378,-0.252409 -0.03125,-0.375 C 29.66149,26.650536 27.106601,29 24,29 20.893399,29 18.33851,26.650536 18.03125,23.625 z M 17.3125,28.375 16,31 l 0.65625,-0.3125 0.9375,-1.90625 C 17.49456,28.648617 17.40347,28.513813 17.3125,28.375 z m 13.375,0 c -0.09097,0.138813 -0.18206,0.273617 -0.28125,0.40625 L 31.34375,30.6875 32,31 30.6875,28.375 z"
       id="path4344"
       inkscape:connector-curvature="0"
       transform="translate(0,1004.3622)" />
    <g
       id="g4276"
       style="display:inline;opacity:0.14999999999999999;fill:#000000"
       transform="translate(0,1004.3622)">
      <path
         style="fill:#000000;fill-opacity:1"
         d="M 24,24 23,22 22,23 10,38 25,26 26,25 z"
         id="path4278"
         inkscape:connector-curvature="0"
         sodipodi:nodetypes="ccccccc" />
      <path
         sodipodi:nodetypes="ccccc"
         inkscape:connector-curvature="0"
         id="path4280"
         d="M 24,24 26,25 38,10 23,22 z"
         style="fill:#000000;fill-opacity:1" />
    </g>
    <g
       style="display:inline"
       id="g4272"
       transform="translate(0,1003.3622)">
      <path
         sodipodi:nodetypes="ccccccc"
         inkscape:connector-curvature="0"
         id="polygon4227"
         d="M 24,24 23,22 22,23 10,38 25,26 26,25 z"
         style="fill:url(#linearGradient4270);fill-opacity:1" />
      <path
         style="fill:#ff6f72;fill-opacity:1"
         d="M 24,24 26,25 38,10 23,22 z"
         id="path4234"
         inkscape:connector-curvature="0"
         sodipodi:nodetypes="ccccc" />
    </g>
  </g>
  <g
     inkscape:groupmode="layer"
     id="layer4"
     inkscape:label="Inset"
     style="display:inline"
     sodipodi:insensitive="true">
    <path
       style="opacity:0.15;fill:#000000;fill-opacity:1;stroke:none"
       d="m 2,34 0,3 c 0,4.986 4.014,9 9,9 l 26,0 c 4.986,0 9,-4.014 9,-9 l 0,-3 c 0,4.986 -4.014,9 -9,9 L 11,43 C 6.014,43 2,38.986 2,34 Z"
       id="rect3038-42"
       inkscape:connector-curvature="0" />
  </g>
  <g
     inkscape:groupmode="layer"
     id="layer7"
     inkscape:label="Baseshape"
     sodipodi:insensitive="true"
     style="display:none">
    <rect
       rx="9"
       ry="9"
       y="2"
       x="2"
       height="44"
       width="44"
       id="rect4169"
       style="fill:#abe1ad;fill-opacity:1;stroke:none;display:inline" />
  </g>
</svg>
