<?xml version="1.0" encoding="UTF-8" standalone="no"?>
<!-- Created with Inkscape (http://www.inkscape.org/) -->

<svg
   xmlns:dc="http://purl.org/dc/elements/1.1/"
   xmlns:cc="http://creativecommons.org/ns#"
   xmlns:rdf="http://www.w3.org/1999/02/22-rdf-syntax-ns#"
   xmlns:svg="http://www.w3.org/2000/svg"
   xmlns="http://www.w3.org/2000/svg"
   xmlns:xlink="http://www.w3.org/1999/xlink"
   xmlns:sodipodi="http://sodipodi.sourceforge.net/DTD/sodipodi-0.dtd"
   xmlns:inkscape="http://www.inkscape.org/namespaces/inkscape"
   width="48"
   height="48"
   id="svg4230"
   version="1.1"
   inkscape:version="0.48.5 r"
   sodipodi:docname="Othman.svg">
  <defs
     id="defs4232">
    <linearGradient
       id="linearGradient3779">
      <stop
         style="stop-color:#6dbf70;stop-opacity:1;"
         offset="0"
         id="stop3781" />
      <stop
         style="stop-color:#4caf50;stop-opacity:1;"
         offset="1"
         id="stop3783" />
    </linearGradient>
    <linearGradient
       id="linearGradient3796">
      <stop
         style="stop-color:#f7f7f7;stop-opacity:1;"
         offset="0"
         id="stop3798" />
      <stop
         style="stop-color:#ececec;stop-opacity:1;"
         offset="1"
         id="stop3800" />
    </linearGradient>
    <linearGradient
       id="linearGradient4524">
      <stop
         style="stop-color:#1c5ed1;stop-opacity:1;"
         offset="0"
         id="stop4526" />
      <stop
         style="stop-color:#3675e3;stop-opacity:1;"
         offset="1"
         id="stop4528" />
    </linearGradient>
    <linearGradient
       id="linearGradient4243">
      <stop
         style="stop-color:#000000;stop-opacity:1;"
         offset="0"
         id="stop4245" />
      <stop
         style="stop-color:#000000;stop-opacity:0;"
         offset="1"
         id="stop4247" />
    </linearGradient>
    <radialGradient
       inkscape:collect="always"
       xlink:href="#linearGradient4243"
       id="radialGradient4274"
       gradientUnits="userSpaceOnUse"
       gradientTransform="matrix(1.0434782,0,0,0.1956518,-1.0434797,35.184809)"
       cx="24.000001"
       cy="42.499991"
       fx="24.000001"
       fy="42.499991"
       r="23" />
    <linearGradient
       id="linearGradient3068-1">
      <stop
         style="stop-color:#dfdfdf;stop-opacity:1;"
         offset="0"
         id="stop3070-5" />
      <stop
         style="stop-color:#ffffff;stop-opacity:1;"
         offset="1"
         id="stop3072-7" />
    </linearGradient>
    <linearGradient
       inkscape:collect="always"
       xlink:href="#linearGradient3068-1"
       id="linearGradient4245"
       x1="24.230993"
       y1="1043.1351"
       x2="24.230993"
       y2="1010.4795"
       gradientUnits="userSpaceOnUse" />
    <linearGradient
       inkscape:collect="always"
       xlink:href="#linearGradient3779"
       id="linearGradient3785"
       x1="25"
       y1="2"
       x2="25"
       y2="46"
       gradientUnits="userSpaceOnUse" />
  </defs>
  <sodipodi:namedview
     id="base"
     pagecolor="#ffffff"
     bordercolor="#666666"
     borderopacity="1.0"
     inkscape:pageopacity="0.0"
     inkscape:pageshadow="2"
     inkscape:zoom="9.4562896"
     inkscape:cx="12.112986"
     inkscape:cy="25.423183"
     inkscape:document-units="px"
     inkscape:current-layer="layer2"
     showgrid="true"
     inkscape:showpageshadow="false"
     borderlayer="true"
     inkscape:window-width="1366"
     inkscape:window-height="736"
     inkscape:window-x="0"
     inkscape:window-y="32"
     inkscape:window-maximized="1"
     showguides="true"
     inkscape:guide-bbox="true">
    <inkscape:grid
       type="xygrid"
       id="grid4162" />
  </sodipodi:namedview>
  <metadata
     id="metadata4235">
    <rdf:RDF>
      <cc:Work
         rdf:about="">
        <dc:format>image/svg+xml</dc:format>
        <dc:type
           rdf:resource="http://purl.org/dc/dcmitype/StillImage" />
        <dc:title />
      </cc:Work>
    </rdf:RDF>
  </metadata>
  <g
     inkscape:groupmode="layer"
     id="layer3"
     inkscape:label="Fake blur shadow"
     style="display:inline"
     sodipodi:insensitive="true">
    <path
       style="opacity:0.06000001;fill:#000000;fill-opacity:1;stroke:none"
       d="M 10,1 C 5.014,1 1,5.014 1,10 l 0,28 c 0,4.986 4.014,9 9,9 l 28,0 c 4.986,0 9,-4.014 9,-9 L 47,10 C 47,5.014 42.986,1 38,1 L 10,1 z m 0.5,0.5 27,0 c 4.986,0 9,4.014 9,9 l 0,27 c 0,4.986 -4.014,9 -9,9 l -27,0 c -4.986,0 -9,-4.014 -9,-9 l 0,-27 c 0,-4.986 4.014,-9 9,-9 z"
       id="rect3829"
       inkscape:connector-curvature="0" />
    <path
       style="opacity:0.12000002;fill:#000000;fill-opacity:1;stroke:none"
       d="m 10.5,1.5 c -4.986,0 -9,4.014 -9,9 l 0,27 c 0,4.986 4.014,9 9,9 l 27,0 c 4.986,0 9,-4.014 9,-9 l 0,-27 c 0,-4.986 -4.014,-9 -9,-9 l -27,0 z m 0.25,0.25 26.5,0 c 4.986,0 9,4.014 9,9 l 0,26.5 c 0,4.986 -4.014,9 -9,9 l -26.5,0 c -4.986,0 -9,-4.014 -9,-9 l 0,-26.5 c 0,-4.986 4.014,-9 9,-9 z"
       id="rect3827"
       inkscape:connector-curvature="0" />
    <rect
       style="opacity:0.23999999;fill:#000000;fill-opacity:1;stroke:none"
       id="rect3038-4"
       width="44.5"
       height="44.5"
       x="1.75"
       y="1.75"
       ry="9"
       rx="9" />
  </g>
  <g
     inkscape:groupmode="layer"
     id="layer6"
     inkscape:label="Blob"
     style="display:inline"
     sodipodi:insensitive="true">
    <path
       style="opacity:0.3;fill:url(#radialGradient4274);fill-opacity:1;stroke:none"
       d="M 1.03125,39 C 1.5192036,43.518898 5.3471961,47 10,47 l 28,0 c 4.652804,0 8.480796,-3.481102 8.96875,-8 l -45.9375,0 z"
       id="rect4241"
       inkscape:connector-curvature="0" />
  </g>
  <g
     inkscape:groupmode="layer"
     id="layer2"
     inkscape:label="Baseplate"
     style="display:inline">
    <rect
       style="fill:url(#linearGradient3785);fill-opacity:1;stroke:none"
       id="rect3038"
       width="44"
       height="44"
       x="2"
       y="1.9999826"
       ry="9"
       rx="9" />
  </g>
  <g
     inkscape:label="Symbol"
     inkscape:groupmode="layer"
     id="layer1"
     transform="translate(0,-1004.3622)"
     style="display:inline">
    <path
       inkscape:connector-curvature="0"
       id="path3850"
       d="m 17.208101,1043.5583 c -0.16481,-0.2514 -0.171511,-0.3724 -0.0575,-1.0372 0.07097,-0.414 0.203135,-0.9124 0.293676,-1.1077 l 0.164612,-0.3551 -0.05553,0.3276 c -0.240009,1.4154 -0.153393,1.9911 0.282476,1.8771 0.233948,-0.061 0.264131,0.054 0.09603,0.3688 -0.159171,0.2975 -0.503652,0.2624 -0.723746,-0.074 z m 3.794402,0 c -0.818918,-0.4081 -1.170711,-0.9952 -1.479389,-2.4693 -0.06043,-0.2888 -0.08226,-0.2978 -0.524923,-0.2185 -0.254013,0.045 -1.051586,0.081 -1.772387,0.08 -1.488282,0 -1.980434,-0.1567 -2.755493,-0.8567 -0.719539,-0.6501 -1.227398,-2.1099 -1.229929,-3.5356 -4.43e-4,-0.2553 -0.03859,-0.4641 -0.0847,-0.4641 -0.04611,0 -0.319887,0.1949 -0.608302,0.4332 -0.288414,0.2384 -0.695087,0.4654 -0.903709,0.5046 -0.537826,0.1013 -1.256499,-0.2042 -1.7387212,-0.7379 -0.9782965,-1.0827 -1.0266165,-2.3179 -0.176357,-4.5075 l 0.3129972,-0.8059 -0.4359342,-0.1966 c -0.604377,-0.2726 -1.3217793,-1.0215 -1.4780428,-1.543 -0.3247626,-1.0839 -0.01967,-2.6529 0.8014027,-4.121 0.3444141,-0.6157 0.3641701,-0.7008 0.2547481,-1.0971 -0.2571858,-0.9314 0.101088,-2.0549 1.0929422,-3.4271 0.573855,-0.7941 0.599775,-0.8595 0.626889,-1.5856 0.01553,-0.4167 0.108867,-0.9684 0.207352,-1.2263 0.159284,-0.4169 0.283811,-0.5277 1.12656,-1.0009 3.070063,-1.7241 7.088456,-3.2854 11.427422,-4.4402 2.18131,-0.5803 2.734759,-0.6165 3.217838,-0.2101 0.413609,0.3481 0.433317,0.7241 0.08263,1.5764 -0.340781,0.8282 -0.920349,1.674 -1.911361,2.7891 -0.461214,0.5189 -1.02928,1.172 -1.262362,1.4513 -0.328386,0.3933 -0.405967,0.4462 -0.344631,0.2345 0.164094,-0.5659 0.772894,-1.4211 1.871728,-2.6291 1.153732,-1.2684 1.318269,-1.5406 1.204603,-1.9934 -0.261007,-1.04 -3.28194,-0.3803 -9.515939,2.078 -2.313225,0.9122 -5.627589,2.4717 -5.622648,2.6455 9.41e-4,0.035 1.646505,1.204 3.656718,2.5988 l 3.654929,2.536 0.469223,-0.2011 c 0.622871,-0.267 1.49602,-0.4479 2.161046,-0.4479 0.653836,0 0.656406,-0.013 0.25985,-1.3802 -0.517159,-1.7821 -0.700538,-2.7092 -0.701309,-3.5451 -7.63e-4,-0.7851 0.150372,-1.5181 0.312904,-1.5181 0.0656,0 1.10609,2.0021 1.10609,2.1283 0,0.028 -0.122862,0 -0.273026,-0.053 -0.334062,-0.1271 -0.341563,-0.05 -0.111775,1.1511 0.329977,1.7245 0.761131,2.5281 1.906872,3.5538 l 0.771388,0.6906 0,0.6149 c 0,0.3381 -0.03134,0.6462 -0.06974,0.6844 -0.0384,0.038 -0.222663,-0.06 -0.409543,-0.2172 -0.679295,-0.5742 -1.453977,-0.838 -2.469432,-0.8409 -0.51057,0 -1.066297,0.057 -1.234946,0.1285 l -0.306646,0.1313 1.492124,1.2219 c 0.820669,0.6721 2.187295,1.8313 3.036952,2.576 1.421337,1.2458 2.301865,1.8707 2.440452,1.7321 0.0673,-0.067 -0.0704,-1.3585 -0.624602,-5.857 -0.730447,-5.9289 -0.694099,-5.535 -0.544226,-5.8968 0.07473,-0.1805 0.170023,-0.3281 0.211746,-0.3281 0.0417,0 0.178278,0.1843 0.303473,0.4096 0.125186,0.2252 0.329176,0.5922 0.453289,0.8158 0.183559,0.3305 0.669855,1.6383 0.669855,1.8013 0,0.024 -0.160762,-0.081 -0.357242,-0.2302 l -0.357243,-0.2724 0.03859,0.4579 c 0.02117,0.2518 0.181967,1.5884 0.357223,2.9698 0.175257,1.3815 0.424094,3.3806 0.55298,4.4424 0.227293,1.8726 0.242343,1.9326 0.501939,1.9977 0.389289,0.098 1.332622,-0.212 1.783172,-0.5854 l 0.389751,-0.3229 -0.193008,-1.6739 c -0.106144,-0.9205 -0.270597,-2.2389 -0.36544,-2.9295 -0.09485,-0.6908 -0.34208,-2.5399 -0.549412,-4.109 -0.207331,-1.5693 -0.48016,-3.5596 -0.606287,-4.4228 -0.489986,-3.3545 -0.475849,-3.1814 -0.30223,-3.7022 l 0.161138,-0.4833 0.53553,0.98 c 0.518428,0.9489 0.954787,2.0218 0.860584,2.116 -0.02531,0.026 -0.13231,-0.028 -0.237797,-0.1187 -0.484368,-0.4161 -0.502618,-0.3934 -0.422156,0.5225 0.0417,0.4746 0.24719,2.1161 0.45664,3.6478 1.420876,10.3903 1.380001,9.9109 0.921723,10.809 -0.277798,0.5446 -0.861855,1.0175 -1.716152,1.3897 l -0.687783,0.2996 0,1.4546 c 0,0.9046 -0.0657,1.7728 -0.173789,2.2963 -0.257337,1.2464 -0.365092,1.3168 -0.369045,0.2411 -0.0037,-0.9187 -0.161525,-2.9917 -0.281873,-3.6948 -0.05101,-0.2981 -0.145017,-0.4006 -0.519803,-0.5669 -0.720226,-0.3194 -1.339502,-0.809 -3.204377,-2.5332 -1.800811,-1.6649 -2.935813,-2.589 -3.186365,-2.594 -0.07972,0 0.08207,0.2551 0.359492,0.5706 0.775982,0.8817 1.195013,1.8196 1.243681,2.7831 0.04828,0.9557 -0.07774,1.3106 -0.647935,1.8257 -0.589186,0.5323 -1.224932,0.8303 -3.279173,1.5372 -2.257281,0.7768 -3.131935,1.2339 -4.014073,2.0986 l -0.695953,0.6822 0.07897,0.737 c 0.241035,2.2507 1.449535,3.3243 3.769037,3.3484 0.570636,0.011 1.293008,-0.054 1.605271,-0.1354 0.550938,-0.1418 0.573215,-0.1628 0.751888,-0.7099 0.101269,-0.31 0.326004,-0.88 0.499417,-1.2666 l 0.315285,-0.7029 -0.384593,-0.3939 c -0.449478,-0.46 -0.466372,-0.6024 -0.121469,-1.0242 0.181224,-0.2216 0.316603,-0.2926 0.46671,-0.2449 0.160848,0.051 0.387155,-0.1102 0.945789,-0.6738 0.403898,-0.4074 0.828387,-0.8841 0.943305,-1.0593 0.20702,-0.3156 0.20687,-0.3199 -0.0161,-0.4761 -0.188942,-0.1324 -0.216933,-0.2423 -0.174382,-0.6852 0.05901,-0.6142 0.227172,-0.8623 0.584434,-0.8623 0.359548,0 0.515407,0.3591 0.457721,1.0548 -0.0337,0.406 -0.0037,0.624 0.09699,0.7076 0.149017,0.1237 0.204509,0.5309 0.07237,0.5309 -0.04029,0 -0.157694,-0.076 -0.260829,-0.1697 -0.172894,-0.1564 -0.268724,-0.09 -1.229036,0.8567 l -1.041525,1.0264 0.340273,0.3402 0.340273,0.3402 -0.511106,0.7416 c -0.444706,0.6451 -0.950325,1.7645 -0.950325,2.1039 0,0.2013 0.255624,0.1183 1.524528,-0.4949 1.357064,-0.6558 2.704509,-1.5173 3.529479,-2.2566 l 0.521695,-0.4674 -0.225836,-0.5862 c -0.124216,-0.3226 -0.565101,-1.307 -0.979756,-2.1876 -0.66831,-1.4194 -0.743972,-1.6452 -0.666399,-1.9892 0.191914,-0.851 0.22496,-0.8461 1.147181,0.1697 0.796546,0.8773 0.887643,1.1496 0.274908,0.8217 -0.33552,-0.1796 -0.269713,0.1263 0.289836,1.3471 0.908555,1.9819 0.785215,2.8534 -0.599483,4.2358 -0.914805,0.9134 -2.021318,1.6154 -3.778637,2.3974 -0.600668,0.2673 -1.130373,0.5352 -1.177111,0.5957 -0.130815,0.1691 0.01967,1.0387 0.271191,1.5676 0.124216,0.2612 0.37887,0.5709 0.565892,0.6882 0.84768,0.5323 1.876988,-0.1096 3.740613,-2.3323 1.824999,-2.1766 2.496293,-2.6774 5.063372,-3.779 0.690767,-0.2965 1.493874,-0.6553 1.784679,-0.7977 0.512688,-0.2511 0.526616,-0.2707 0.459294,-0.642 -0.226146,-1.2472 -0.282768,-1.869 -0.21872,-2.4021 0.13504,-1.1239 0.71409,-1.8607 1.45697,-1.8541 0.647615,0.011 1.106956,0.5442 1.382947,1.6214 0.287144,1.1209 -0.04396,2.2571 -0.941431,3.2308 l -0.429243,0.4655 0.237299,0.3017 c 0.295011,0.375 1.002805,0.7055 1.517883,0.7086 0.623746,0 1.448434,-0.2929 1.885074,-0.6784 l 0.404103,-0.3567 -0.220564,-2.1295 c -0.121309,-1.1712 -0.320443,-2.9157 -0.442523,-3.8769 -1.677525,-13.2056 -1.76354,-13.967 -1.625431,-14.3853 0.07483,-0.2268 0.173703,-0.4122 0.219756,-0.4122 0.153081,0 0.729769,1.1338 1.069205,2.1022 0.184216,0.5255 0.302635,0.9555 0.263143,0.9555 -0.03953,0 -0.185543,-0.1069 -0.324565,-0.2373 l -0.252771,-0.2375 0,0.3422 c 0,0.32 0.04123,0.7824 0.332743,3.7366 0.116894,1.1842 0.50976,4.4804 1.099888,9.228 0.399285,3.2122 0.42017,4.4607 0.08941,5.3446 -0.298955,0.7991 -0.635106,1.183 -1.278231,1.4597 -1.541836,0.6631 -2.63026,0.3346 -3.425479,-1.0339 l -0.264028,-0.4544 -0.977789,0.3781 c -1.573977,0.6085 -3.76901,1.7126 -4.48612,2.2565 -0.365252,0.277 -1.209291,1.1351 -1.875644,1.9065 -2.286806,2.6479 -2.746759,2.9027 -4.058741,2.2488 z m -9.028833,-7.7968 c 0.271624,-0.195 0.693582,-0.5915 0.937666,-0.881 0.98498,-1.168 2.247164,-1.9303 4.922949,-2.9731 2.57123,-1.0019 4.033046,-1.7704 4.033046,-2.1197 0,-0.3453 -0.727332,-1.4991 -1.411614,-2.2393 -0.394918,-0.4269 -1.107483,-1.1085 -1.583483,-1.5144 -0.827398,-0.7054 -0.877827,-0.7313 -1.146731,-0.5903 -0.392113,0.2055 -1.712085,1.3221 -3.166053,2.6778 -1.519521,1.4169 -2.510382,2.1692 -3.427898,2.6027 -0.69632,0.329 -0.710495,0.3446 -1.033336,1.1315 -0.4551452,1.1095 -0.6099592,1.8594 -0.5409712,2.62 0.06494,0.7166 0.4575542,1.4443 0.8752292,1.6221 0.405045,0.1724 1.019351,0.038 1.541196,-0.3363 z m -0.04716,-2.5097 c -0.27728,-0.2772 -0.278109,-1.0273 -0.0019,-1.854 0.22609,-0.6772 0.282589,-0.5072 0.105653,0.3177 -0.145911,0.6803 0.03793,1.1721 0.422626,1.1306 0.269665,-0.029 0.286974,0.011 0.134569,0.2933 -0.164329,0.3071 -0.422268,0.3509 -0.66079,0.1124 z m 2.156951,-1.7902 c -0.286409,-0.343 -0.544451,-0.5292 -0.8464,-0.6105 -0.357035,-0.096 -0.434372,-0.1648 -0.434372,-0.3858 0,-0.1758 0.06164,-0.2688 0.178231,-0.2688 0.244198,0 0.866805,0.3971 1.112716,0.7097 l 0.20241,0.2573 0.124423,-0.6689 c 0.144875,-0.7791 0.451511,-1.1847 0.72433,-0.9584 0.159934,0.1328 0.24191,0.551 0.10799,0.551 -0.03397,0 -0.151689,-0.048 -0.261572,-0.107 -0.318362,-0.1703 -0.42847,0.085 -0.463661,1.0738 l -0.0321,0.9012 -0.412019,-0.4936 z m 4.018027,-2.5967 c -0.572415,-0.5038 -0.489808,-0.5179 -0.984086,0.1681 -0.192518,0.2671 -0.457892,0.1731 -0.958814,-0.3399 l -0.400735,-0.4104 0.276001,-0.4629 c 0.151801,-0.2545 0.310983,-0.4627 0.353731,-0.4627 0.04273,0 0.321488,0.2014 0.619426,0.4476 l 0.541704,0.4476 0.166174,-0.2505 c 0.50448,-0.7607 0.478109,-0.7574 1.100179,-0.1405 0.520679,0.5166 0.553253,0.5788 0.428679,0.8191 -0.164057,0.3167 -0.440537,0.6425 -0.545139,0.6425 -0.04236,0 -0.311003,-0.2061 -0.59712,-0.458 z m 15.294473,6.0002 c 0.716537,-0.4864 0.78033,-0.6168 0.612443,-1.2514 -0.301205,-1.1385 -1.106401,-1.6552 -1.660143,-1.0654 -0.217477,0.2317 -0.268555,0.3972 -0.264244,0.856 0.0057,0.6332 0.429412,1.8157 0.650269,1.8157 0.07633,0 0.374089,-0.1597 0.661675,-0.3549 z m -10.550085,-2.6536 c -0.183577,-0.2211 -0.323286,-0.1977 -0.323286,0.054 0,0.2717 0.365432,0.5046 0.418561,0.2669 0.01996,-0.09 -0.02287,-0.234 -0.09527,-0.3213 z m -12.136624,-2.4972 c 0.71682,-0.3631 2.076388,-1.3935 3.185564,-2.4142 1.597846,-1.4702 3.080831,-2.9052 3.041291,-2.9428 -0.0209,-0.02 -1.335794,-1.0252 -2.922035,-2.2339 l -2.884086,-2.1978 -0.377327,0.5215 c -0.550776,0.7609 -0.8966312,1.5523 -0.8961412,2.0503 9.41e-4,0.9775 0.2515012,1.2087 0.7655062,0.7063 0.409835,-0.4007 0.458419,-0.4045 0.314137,-0.026 -0.203605,0.5356 -0.538269,0.9934 -1.0753232,1.471 -0.414673,0.3689 -0.60961,0.6666 -0.9140995,1.3969 -0.5779767,1.3863 -0.6873321,2.0928 -0.4390685,2.837 0.3492896,1.0467 1.166711,1.3553 2.2015822,0.8308 z m 0.301647,-3.4578 c 1.795465,-1.8372 1.887738,-1.9705 1.578647,-2.2796 -0.460161,-0.4602 -0.3885,-1.2865 0.127378,-1.4688 0.485055,-0.1715 0.631859,-0.029 0.631521,0.6138 -2.17e-4,0.3862 0.0799,0.7282 0.242456,1.0351 0.282598,0.5335 0.196584,0.7216 -0.171775,0.3755 l -0.256394,-0.2408 -0.547521,0.7504 c -0.503144,0.6895 -1.831935,1.9084 -2.7612532,2.5326 -0.210231,0.1413 0.3103912,-0.4519 1.1569412,-1.3182 z m 2.119427,-2.9435 c 0,-0.2405 -0.243237,-0.3893 -0.438729,-0.2685 -0.08357,0.052 -0.06287,0.14 0.06626,0.2827 0.24288,0.2685 0.372433,0.2635 0.372433,-0.014 z m 12.615084,19.6631 c -0.306202,-0.041 -0.446983,-0.1158 -0.473449,-0.2547 -0.03284,-0.1726 -0.0095,-0.1803 0.181967,-0.061 0.320697,0.2002 0.824057,-0.036 0.727003,-0.3429 -0.04123,-0.1298 -0.0192,-0.2175 0.0545,-0.2175 0.0736,0 0.109694,0.1433 0.08923,0.3549 -0.04913,0.5081 0.23521,0.4632 0.518109,-0.082 0.124649,-0.2402 0.321656,-0.4549 0.437787,-0.477 0.178175,-0.034 0.168509,-0.011 -0.06183,0.1873 -0.150175,0.1254 -0.211606,0.2294 -0.136519,0.2314 0.0751,0 0.136519,0.1024 0.136519,0.2221 0,0.1202 0.04509,0.2184 0.100277,0.2184 0.245364,0 0.445788,-0.1486 0.445788,-0.3304 0,-0.2812 0.114569,-0.5433 0.237469,-0.5433 0.0577,0 0.0737,0.098 0.03557,0.2185 -0.05497,0.1729 -0.01957,0.2183 0.169836,0.2183 0.19007,0 0.213674,0.031 0.11502,0.1496 -0.307086,0.3699 -1.633581,0.6314 -2.577262,0.508 z m -0.383294,-0.6403 c 0,-0.1698 0.300894,-0.3672 0.375577,-0.2464 0.03709,0.06 -0.03228,0.1624 -0.154099,0.2275 -0.121817,0.065 -0.221478,0.074 -0.221478,0.019 z m 4.715428,-0.824 c -0.162794,-0.4503 -0.632875,-0.9407 -0.901694,-0.9407 -0.2176,0 -0.538315,-0.3904 -0.53569,-0.652 0.0066,-0.6695 0.634466,-0.4236 1.198354,0.4692 0.422353,0.6687 0.54209,0.6371 0.547303,-0.1447 0.0057,-0.8879 0.429573,-1.3302 0.881893,-0.9209 0.393064,0.3556 0.179228,0.7369 -0.246221,0.4389 -0.373732,-0.2617 -0.526392,-0.044 -0.526392,0.7548 0,0.7482 -0.09498,1.3653 -0.210136,1.3653 -0.04047,0 -0.133826,-0.1665 -0.207417,-0.3699 z m -3.328622,-0.2478 c 0.06353,-0.1657 0.31679,-0.1968 0.407482,-0.05 0.03284,0.053 -0.05807,0.1191 -0.202014,0.1467 -0.187266,0.036 -0.245751,0.011 -0.205468,-0.097 z m 5.603015,-0.4195 c -0.180349,-0.2174 -0.09167,-1.3006 0.147454,-1.8022 0.131529,-0.2759 0.166324,-0.3063 0.125016,-0.1092 -0.172997,0.8252 -0.174974,1.1538 -0.0084,1.3652 0.170372,0.2159 0.174268,0.216 0.336188,0.011 0.15985,-0.2069 0.163822,-0.2061 0.163822,0.035 0,0.5747 -0.456263,0.8765 -0.764264,0.5054 z m -20.460623,-0.5822 c -0.240414,-0.2656 -0.225656,-1.1 0.03313,-1.8752 0.226061,-0.6771 0.2768,-0.5322 0.11408,0.3258 -0.134005,0.7065 0.03463,1.1635 0.414193,1.1224 0.284838,-0.031 0.300743,0.056 0.07077,0.384 -0.206616,0.295 -0.392649,0.3078 -0.63215,0.044 z m 4.868661,-1.7584 c -0.257694,-0.4143 -0.431059,-0.5746 -0.674466,-0.6233 -0.34288,-0.068 -0.496113,-0.3209 -0.379482,-0.6248 0.141741,-0.3694 0.530561,-0.1449 1.107954,0.6399 l 0.241073,0.3276 0.0057,-0.4915 c 0.0066,-0.4997 0.151953,-1.2796 0.259247,-1.3869 0.03247,-0.032 0.178805,-0.029 0.325139,0.011 0.290796,0.074 0.427727,0.3046 0.330269,0.5584 -0.05506,0.1436 -0.08903,0.1436 -0.293912,0 -0.127397,-0.09 -0.269853,-0.1622 -0.316554,-0.1622 -0.04669,0 -0.08837,0.4301 -0.09261,0.9557 -0.01101,1.3734 -0.08461,1.488 -0.512744,0.7994 z m 5.110253,-1.5876 c -0.103968,-0.1253 -0.104736,-0.3281 -0.0037,-0.9282 0.14721,-0.8728 0.259973,-0.9389 0.885441,-0.5188 0.511426,0.3435 0.574815,0.9335 0.143266,1.3334 -0.3296,0.3055 -0.820791,0.3599 -1.025205,0.1136 z m 0.917873,-0.443 c 0.206965,-0.1566 0.206278,-0.1645 -0.0367,-0.4231 -0.308377,-0.3282 -0.631087,-0.4226 -0.713243,-0.2085 -0.08414,0.2193 -0.07774,0.6364 0.0112,0.7252 0.123746,0.1238 0.517299,0.075 0.738758,-0.094 z m -6.965142,-0.5792 c -0.364359,-0.4027 -0.132998,-0.9955 0.51583,-1.3217 0.917036,-0.4612 4.2591,-1.8595 4.313687,-1.8048 0.163323,0.1633 -0.660169,0.6601 -2.17074,1.3095 -1.389008,0.5972 -2.202438,0.9915 -2.495718,1.2094 -0.02117,0.016 0.04028,0.141 0.136508,0.2784 0.334692,0.4779 0.08414,0.753 -0.299567,0.3292 z m 19.577035,-0.5829 c -0.14207,-0.2654 -0.07877,-1.314 0.119812,-1.9852 0.188913,-0.6385 0.266871,-0.3822 0.109412,0.3597 -0.166974,0.7868 -0.01003,1.3722 0.343209,1.2799 0.137939,-0.036 0.201713,0.011 0.201713,0.1337 0,0.4511 -0.563576,0.6054 -0.774146,0.2119 z m -6.013687,-0.4556 0.239831,-0.2554 -0.220791,-0.2806 c -0.302062,-0.384 -0.278297,-0.5607 0.120584,-0.8963 0.385891,-0.3248 0.57087,-0.3156 0.621816,0.031 0.03737,0.2537 -0.0832,0.309 -0.268866,0.1234 -0.156424,-0.1565 -0.413139,0.1629 -0.321967,0.4003 0.05676,0.1481 0.175021,0.1693 0.660772,0.1193 0.491171,-0.051 0.581158,-0.034 0.53009,0.099 -0.03389,0.089 -0.297629,0.2799 -0.586212,0.4261 -0.288593,0.1462 -0.555662,0.316 -0.593488,0.3773 -0.03783,0.061 -0.148169,0.1112 -0.245195,0.1112 -0.144311,0 -0.132782,-0.046 0.06343,-0.2552 z m 9.593558,-0.8369 c -0.03389,-0.15 -0.116048,-1.1576 -0.182655,-2.2387 -0.06663,-1.0811 -0.240603,-2.8502 -0.386654,-3.9315 -0.499012,-3.6938 -0.921139,-6.6611 -1.043709,-7.3367 -0.120122,-0.6621 -0.0028,-1.4545 0.216047,-1.4545 0.09998,0 0.980236,1.5146 1.233545,2.1225 0.10176,0.244 0.187764,0.5384 0.191124,0.6541 0.0057,0.199 -0.0076,0.1976 -0.246663,-0.028 -0.139031,-0.1306 -0.29281,-0.2374 -0.341751,-0.2374 -0.121149,0 -0.0047,1.1107 0.434419,4.1498 0.204018,1.4116 0.426174,3.107 0.493685,3.7678 0.165638,1.6213 0.09728,3.9216 -0.131435,4.4229 -0.170937,0.3744 -0.175625,0.3768 -0.235953,0.109 z m -6.958546,-4.0613 c -0.268244,-0.2046 -0.503623,-0.4546 -0.523077,-0.5555 -0.01948,-0.1013 0.0831,-0.3824 0.227953,-0.6252 l 0.263313,-0.4415 0.57905,0.461 0.579059,0.4611 0.339228,-0.4041 c 0.186579,-0.2222 0.390428,-0.4041 0.453007,-0.4041 0.06259,0 0.332876,0.2234 0.600669,0.4964 l 0.48689,0.4964 -0.234062,0.4046 c -0.128724,0.2225 -0.314955,0.4209 -0.413835,0.4407 -0.09887,0.019 -0.374569,-0.1398 -0.61265,-0.355 -0.23808,-0.215 -0.469591,-0.391 -0.514466,-0.391 -0.0449,0 -0.230494,0.1774 -0.41249,0.3941 l -0.33089,0.3942 -0.487699,-0.3721 z m 0.948801,-1.8358 c -0.03426,-0.2703 -0.0897,-0.9092 -0.123256,-1.4197 -0.0336,-0.5106 -0.121883,-1.1616 -0.196254,-1.4467 l -0.135229,-0.5183 -0.709553,0.4821 c -0.390259,0.2653 -0.723455,0.4684 -0.740452,0.4514 -0.01694,-0.017 0.290541,-0.3448 0.683416,-0.7283 l 0.714306,-0.6975 -0.330033,-2.6209 c -0.181524,-1.4415 -0.483171,-3.5547 -0.670333,-4.6959 -0.323672,-1.9735 -0.331719,-2.0954 -0.1648,-2.4924 0.09652,-0.2296 0.21695,-0.3918 0.267604,-0.3605 0.162495,0.1003 1.094721,2.0678 1.271708,2.6838 l 0.171069,0.5955 -0.382909,-0.3711 c -0.210597,-0.2042 -0.382907,-0.3281 -0.382907,-0.2754 0,0.253 0.895389,6.2601 0.967529,6.4912 l 0.08263,0.2647 0.244517,-0.3433 0.244527,-0.3434 -0.247916,-0.4307 c -0.283726,-0.493 -0.212705,-0.908 0.202354,-1.1822 0.213648,-0.141 0.260641,-0.134 0.464151,0.069 0.139397,0.1394 0.224574,0.3629 0.22161,0.5814 -0.0057,0.4345 -0.257167,1.4215 -0.34065,1.3381 -0.03332,-0.033 -0.241327,0.1602 -0.462306,0.4298 l -0.401789,0.4904 0.117676,1.1567 c 0.115586,1.1363 0.02174,2.5271 -0.212179,3.1447 -0.07539,0.1991 -0.100598,0.1573 -0.152556,-0.2529 z m 1.128989,-6.1022 c 0,-0.1129 -0.07313,-0.2659 -0.162532,-0.34 -0.131689,-0.1093 -0.175445,-0.1013 -0.230645,0.043 -0.06909,0.1799 0.12178,0.5023 0.297327,0.5023 0.0527,0 0.09585,-0.092 0.09585,-0.205 z m -6.112841,5.7473 c 0.0028,-0.1164 1.70705,-1.1741 1.891832,-1.1741 0.0352,0 0.03576,0.074 9.41e-4,0.1639 -0.05036,0.1314 -1.691427,1.1466 -1.853244,1.1466 -0.02353,0 -0.0415,-0.061 -0.03981,-0.1364 z m -3.16637,-0.2932 c -0.06221,-0.1163 -0.113054,-0.3671 -0.113054,-0.5576 0,-0.4477 0.310183,-1.6563 0.461383,-1.7977 0.0817,-0.077 0.09317,-0.044 0.03821,0.1094 -0.0432,0.12 -0.104117,0.5378 -0.135332,0.9282 -0.04226,0.5282 -0.01524,0.7647 0.105291,0.9242 0.137826,0.1823 0.188301,0.1925 0.337685,0.068 0.126654,-0.1045 0.175633,-0.1096 0.175633,-0.016 0,0.2845 -0.238099,0.5521 -0.491455,0.5521 -0.150569,0 -0.314249,-0.092 -0.3784,-0.2112 z m 9.539948,-0.502 c -0.133562,-0.2039 -0.164329,-0.4119 -0.117138,-0.7918 0.06917,-0.5573 0.39119,-1.7096 0.458795,-1.642 0.02277,0.022 -0.01496,0.3707 -0.08386,0.7731 -0.15152,0.8845 -0.03717,1.3411 0.332546,1.3279 0.267012,-0.011 0.296724,0.083 0.127991,0.398 -0.157741,0.2947 -0.503022,0.2633 -0.718335,-0.065 z m 4.932238,-0.6344 c -0.172555,-0.1263 -0.192575,-0.2581 -0.145139,-0.9556 0.0303,-0.445 0.135407,-0.9811 0.233637,-1.1914 l 0.178608,-0.3823 -0.04404,0.3277 c -0.02419,0.1802 -0.07953,0.5111 -0.122937,0.7354 -0.104,0.5375 0.117752,1.105 0.402683,1.0305 0.234193,-0.061 0.281431,0.2402 0.07068,0.451 -0.169797,0.1698 -0.325986,0.1656 -0.57344,-0.015 z m -11.028034,-2.1002 c -0.225741,-0.2258 -0.221826,-0.9884 0.0094,-1.7772 0.212197,-0.725 0.32606,-0.5863 0.158833,0.1934 -0.158796,0.7403 0.0112,1.2546 0.383915,1.161 0.302334,-0.076 0.325374,0.015 0.08941,0.3517 -0.200179,0.2858 -0.404,0.3084 -0.64128,0.07 z m -3.923409,-2.9715 c -0.345073,-0.4989 -0.722663,-0.7883 -1.027878,-0.7883 -0.255077,0 -0.462532,-0.2058 -0.462532,-0.4587 0,-0.3717 0.690994,-0.1437 1.193074,0.3937 0.337967,0.3616 0.44496,0.3575 0.445722,-0.017 8.75e-4,-0.4301 0.196461,-1.075 0.369666,-1.2186 0.218174,-0.1812 0.503426,-0.026 0.503426,0.2747 0,0.2873 -0.104362,0.3318 -0.305798,0.1303 -0.23983,-0.2398 -0.339943,0.058 -0.372338,1.1063 l -0.03172,1.028 -0.311594,-0.4504 z m -6.323749,-0.2344 c -0.262682,-0.3523 -0.518015,-0.5727 -0.709882,-0.6131 -0.458448,-0.096 -0.624001,-0.2141 -0.662175,-0.4708 -0.06306,-0.4241 0.645629,-0.2091 1.173365,0.3558 0.357225,0.3823 0.445083,0.3574 0.44528,-0.1262 3.3e-4,-0.8831 0.763652,-1.6565 0.854269,-0.8655 0.03284,0.2863 0.01826,0.2993 -0.202842,0.181 -0.1312,-0.07 -0.279991,-0.085 -0.331238,-0.035 -0.0512,0.051 -0.107323,0.5498 -0.124791,1.1082 l -0.03172,1.0151 -0.410241,-0.5502 z m -2.532152,-1.5734 c -0.153882,-0.1124 -0.197948,-0.2873 -0.193618,-0.7683 0.0047,-0.5584 0.320451,-1.8832 0.423793,-1.7798 0.02268,0.022 -0.01854,0.3899 -0.09167,0.8162 -0.109506,0.6385 -0.10655,0.8241 0.01676,1.0545 0.105067,0.1964 0.209055,0.2608 0.348951,0.2164 0.251473,-0.08 0.268875,0.1939 0.02767,0.4352 -0.209177,0.2091 -0.27682,0.2124 -0.531916,0.026 z m 15.13646,-0.029 c -0.191445,-0.1342 -0.234071,-0.2706 -0.22864,-0.732 0.0037,-0.3118 0.09693,-0.8374 0.207219,-1.1677 0.226089,-0.6772 0.282588,-0.5072 0.105642,0.3178 -0.143718,0.67 0.0385,1.1715 0.411558,1.1323 0.180536,-0.019 0.21744,0.022 0.172489,0.1946 -0.08734,0.3339 -0.390475,0.4496 -0.668273,0.255 z m -12.919527,-1.1079 c -0.144603,-0.3639 0.03604,-1.6354 0.296066,-2.0839 l 0.168913,-0.2915 -0.06597,0.2731 c -0.277996,1.1502 -0.147567,2.0442 0.278513,1.909 0.241742,-0.077 0.292405,0.1508 0.08076,0.3624 -0.241214,0.2412 -0.629506,0.1545 -0.758222,-0.1691 z m 9.078744,-1.2851 c -0.09544,-0.115 -0.115389,-0.353 -0.06532,-0.7792 0.09196,-0.782 0.13201,-0.8387 0.53697,-0.7576 0.484226,0.097 0.731107,0.3657 0.731107,0.796 0,0.673 -0.833158,1.1862 -1.202797,0.7408 z m 0.77313,-0.3844 c 0.290456,-0.1554 0.264546,-0.3729 -0.07059,-0.5924 -0.389563,-0.2552 -0.59185,-0.1458 -0.59185,0.3198 0,0.317 0.04019,0.3857 0.22561,0.3857 0.124075,0 0.320659,-0.051 0.436846,-0.1131 z m -5.098187,-0.1639 c -0.139736,-0.2132 -0.16639,-0.4204 -0.115877,-0.9008 0.07577,-0.7204 0.382757,-1.6815 0.391171,-1.2248 0.0028,0.1502 -0.04396,0.4855 -0.103797,0.7449 -0.137384,0.5957 0.05374,1.0705 0.415275,1.032 0.18208,-0.02 0.221027,0.018 0.169177,0.1636 -0.18783,0.5274 -0.484188,0.5999 -0.755953,0.1851 z m -9.061878,-1.9313 c 0.107239,-0.1638 0.544039,-0.4423 1.070768,-0.683 1.253686,-0.573 5.233198,-2.045 5.313029,-1.9652 0.08706,0.086 -0.376659,0.4347 -0.858692,0.6438 -0.210231,0.092 -1.512594,0.6144 -2.894129,1.1628 -1.381535,0.5481 -2.579427,1.0242 -2.661987,1.0575 -0.111746,0.045 -0.103818,-0.011 0.03097,-0.2159 z"
       style="fill:#000000;opacity:0.15" />
    <path
       style="fill:#ffffff"
       d="m 17.208101,1042.5584 c -0.16481,-0.2514 -0.171511,-0.3724 -0.0575,-1.0372 0.07097,-0.414 0.203135,-0.9124 0.293676,-1.1077 l 0.164612,-0.3551 -0.05553,0.3276 c -0.240009,1.4154 -0.153393,1.9911 0.282476,1.8771 0.233948,-0.061 0.264131,0.054 0.09603,0.3688 -0.159171,0.2975 -0.503652,0.2624 -0.723746,-0.074 z m 3.794402,0 c -0.818918,-0.4081 -1.170711,-0.9952 -1.479389,-2.4693 -0.06043,-0.2888 -0.08226,-0.2978 -0.524923,-0.2185 -0.254013,0.045 -1.051586,0.081 -1.772387,0.08 -1.488282,0 -1.980434,-0.1567 -2.755493,-0.8567 -0.719539,-0.6501 -1.227398,-2.1099 -1.229929,-3.5356 -4.43e-4,-0.2553 -0.03859,-0.4641 -0.0847,-0.4641 -0.04611,0 -0.319887,0.1949 -0.608302,0.4332 -0.288414,0.2384 -0.695087,0.4654 -0.903709,0.5046 -0.537826,0.1013 -1.256499,-0.2042 -1.7387212,-0.7379 -0.9782965,-1.0827 -1.0266165,-2.3179 -0.176357,-4.5075 l 0.3129972,-0.8059 -0.4359342,-0.1966 c -0.604377,-0.2726 -1.3217793,-1.0215 -1.4780428,-1.543 -0.3247626,-1.0839 -0.01967,-2.6529 0.8014027,-4.121 0.3444141,-0.6157 0.3641701,-0.7008 0.2547481,-1.0971 -0.2571858,-0.9314 0.101088,-2.0549 1.0929422,-3.4271 0.573855,-0.7941 0.599775,-0.8595 0.626889,-1.5856 0.01553,-0.4167 0.108867,-0.9684 0.207352,-1.2263 0.159284,-0.4169 0.283811,-0.5277 1.12656,-1.0009 3.070063,-1.7241 7.088456,-3.2854 11.427422,-4.4402 2.18131,-0.5803 2.734759,-0.6165 3.217838,-0.2101 0.413609,0.3481 0.433317,0.7241 0.08263,1.5764 -0.340781,0.8282 -0.920349,1.674 -1.911361,2.7891 -0.461214,0.5189 -1.02928,1.172 -1.262362,1.4513 -0.328386,0.3933 -0.405967,0.4462 -0.344631,0.2345 0.164094,-0.5659 0.772894,-1.4211 1.871728,-2.6291 1.153732,-1.2684 1.318269,-1.5406 1.204603,-1.9934 -0.261007,-1.04 -3.28194,-0.3803 -9.515939,2.078 -2.313225,0.9122 -5.627589,2.4717 -5.622648,2.6455 9.41e-4,0.035 1.646505,1.204 3.656718,2.5988 l 3.654929,2.536 0.469223,-0.2011 c 0.622871,-0.267 1.49602,-0.4479 2.161046,-0.4479 0.653836,0 0.656406,-0.013 0.25985,-1.3802 -0.517159,-1.7821 -0.700538,-2.7092 -0.701309,-3.5451 -7.63e-4,-0.7851 0.150372,-1.5181 0.312904,-1.5181 0.0656,0 1.10609,2.0021 1.10609,2.1283 0,0.028 -0.122862,0 -0.273026,-0.053 -0.334062,-0.1271 -0.341563,-0.05 -0.111775,1.1511 0.329977,1.7245 0.761131,2.5281 1.906872,3.5538 l 0.771388,0.6906 0,0.6149 c 0,0.3381 -0.03134,0.6462 -0.06974,0.6844 -0.0384,0.038 -0.222663,-0.06 -0.409543,-0.2172 -0.679295,-0.5742 -1.453977,-0.838 -2.469432,-0.8409 -0.51057,0 -1.066297,0.057 -1.234946,0.1285 l -0.306646,0.1313 1.492124,1.2219 c 0.820669,0.6721 2.187295,1.8313 3.036952,2.576 1.421337,1.2458 2.301865,1.8707 2.440452,1.7321 0.0673,-0.067 -0.0704,-1.3585 -0.624602,-5.857 -0.730447,-5.9289 -0.694099,-5.535 -0.544226,-5.8968 0.07473,-0.1805 0.170023,-0.3281 0.211746,-0.3281 0.0417,0 0.178278,0.1843 0.303473,0.4096 0.125186,0.2252 0.329176,0.5922 0.453289,0.8158 0.183559,0.3305 0.669855,1.6383 0.669855,1.8013 0,0.024 -0.160762,-0.081 -0.357242,-0.2302 l -0.357243,-0.2724 0.03859,0.4579 c 0.02117,0.2518 0.181967,1.5884 0.357223,2.9698 0.175257,1.3815 0.424094,3.3806 0.55298,4.4424 0.227293,1.8726 0.242343,1.9326 0.501939,1.9977 0.389289,0.098 1.332622,-0.212 1.783172,-0.5854 l 0.389751,-0.3229 -0.193008,-1.6739 c -0.106144,-0.9205 -0.270597,-2.2389 -0.36544,-2.9295 -0.09485,-0.6908 -0.34208,-2.5399 -0.549412,-4.109 -0.207331,-1.5693 -0.48016,-3.5596 -0.606287,-4.4228 -0.489986,-3.3545 -0.475849,-3.1814 -0.30223,-3.7022 l 0.161138,-0.4833 0.53553,0.98 c 0.518428,0.9489 0.954787,2.0218 0.860584,2.116 -0.02531,0.026 -0.13231,-0.028 -0.237797,-0.1187 -0.484368,-0.4161 -0.502618,-0.3934 -0.422156,0.5225 0.0417,0.4746 0.24719,2.1161 0.45664,3.6478 1.420876,10.3903 1.380001,9.9109 0.921723,10.809 -0.277798,0.5446 -0.861855,1.0175 -1.716152,1.3897 l -0.687783,0.2996 0,1.4546 c 0,0.9046 -0.0657,1.7728 -0.173789,2.2963 -0.257337,1.2464 -0.365092,1.3168 -0.369045,0.2411 -0.0037,-0.9187 -0.161525,-2.9917 -0.281873,-3.6948 -0.05101,-0.2981 -0.145017,-0.4006 -0.519803,-0.5669 -0.720226,-0.3194 -1.339502,-0.809 -3.204377,-2.5332 -1.800811,-1.6649 -2.935813,-2.589 -3.186365,-2.594 -0.07972,0 0.08207,0.2551 0.359492,0.5706 0.775982,0.8817 1.195013,1.8196 1.243681,2.7831 0.04828,0.9557 -0.07774,1.3106 -0.647935,1.8257 -0.589186,0.5323 -1.224932,0.8303 -3.279173,1.5372 -2.257281,0.7768 -3.131935,1.2339 -4.014073,2.0986 l -0.695953,0.6822 0.07897,0.737 c 0.241035,2.2507 1.449535,3.3243 3.769037,3.3484 0.570636,0.011 1.293008,-0.054 1.605271,-0.1354 0.550938,-0.1418 0.573215,-0.1628 0.751888,-0.7099 0.101269,-0.31 0.326004,-0.88 0.499417,-1.2666 l 0.315285,-0.7029 -0.384593,-0.3939 c -0.449478,-0.46 -0.466372,-0.6024 -0.121469,-1.0242 0.181224,-0.2216 0.316603,-0.2926 0.46671,-0.2449 0.160848,0.051 0.387155,-0.1102 0.945789,-0.6738 0.403898,-0.4074 0.828387,-0.8841 0.943305,-1.0593 0.20702,-0.3156 0.20687,-0.3199 -0.0161,-0.4761 -0.188942,-0.1324 -0.216933,-0.2423 -0.174382,-0.6852 0.05901,-0.6142 0.227172,-0.8623 0.584434,-0.8623 0.359548,0 0.515407,0.3591 0.457721,1.0548 -0.0337,0.406 -0.0037,0.624 0.09699,0.7076 0.149017,0.1237 0.204509,0.5309 0.07237,0.5309 -0.04029,0 -0.157694,-0.076 -0.260829,-0.1697 -0.172894,-0.1564 -0.268724,-0.09 -1.229036,0.8567 l -1.041525,1.0264 0.340273,0.3402 0.340273,0.3402 -0.511106,0.7416 c -0.444706,0.6451 -0.950325,1.7645 -0.950325,2.1039 0,0.2013 0.255624,0.1183 1.524528,-0.4949 1.357064,-0.6558 2.704509,-1.5173 3.529479,-2.2566 l 0.521695,-0.4674 -0.225836,-0.5862 c -0.124216,-0.3226 -0.565101,-1.307 -0.979756,-2.1876 -0.66831,-1.4194 -0.743972,-1.6452 -0.666399,-1.9892 0.191914,-0.851 0.22496,-0.8461 1.147181,0.1697 0.796546,0.8773 0.887643,1.1496 0.274908,0.8217 -0.33552,-0.1796 -0.269713,0.1263 0.289836,1.3471 0.908555,1.9819 0.785215,2.8534 -0.599483,4.2358 -0.914805,0.9134 -2.021318,1.6154 -3.778637,2.3974 -0.600668,0.2673 -1.130373,0.5352 -1.177111,0.5957 -0.130815,0.1691 0.01967,1.0387 0.271191,1.5676 0.124216,0.2612 0.37887,0.5709 0.565892,0.6882 0.84768,0.5323 1.876988,-0.1096 3.740613,-2.3323 1.824999,-2.1766 2.496293,-2.6774 5.063372,-3.779 0.690767,-0.2965 1.493874,-0.6553 1.784679,-0.7977 0.512688,-0.2511 0.526616,-0.2707 0.459294,-0.642 -0.226146,-1.2472 -0.282768,-1.869 -0.21872,-2.4021 0.13504,-1.1239 0.71409,-1.8607 1.45697,-1.8541 0.647615,0.011 1.106956,0.5442 1.382947,1.6214 0.287144,1.1209 -0.04396,2.2571 -0.941431,3.2308 l -0.429243,0.4655 0.237299,0.3017 c 0.295011,0.375 1.002805,0.7055 1.517883,0.7086 0.623746,0 1.448434,-0.2929 1.885074,-0.6784 l 0.404103,-0.3567 -0.220564,-2.1295 c -0.121309,-1.1712 -0.320443,-2.9157 -0.442523,-3.8769 -1.677525,-13.2056 -1.76354,-13.967 -1.625431,-14.3853 0.07483,-0.2268 0.173703,-0.4122 0.219756,-0.4122 0.153081,0 0.729769,1.1338 1.069205,2.1022 0.184216,0.5255 0.302635,0.9555 0.263143,0.9555 -0.03953,0 -0.185543,-0.1069 -0.324565,-0.2373 l -0.252771,-0.2375 0,0.3422 c 0,0.32 0.04123,0.7824 0.332743,3.7366 0.116894,1.1842 0.50976,4.4804 1.099888,9.228 0.399285,3.2122 0.42017,4.4607 0.08941,5.3446 -0.298955,0.7991 -0.635106,1.183 -1.278231,1.4597 -1.541836,0.6631 -2.63026,0.3346 -3.425479,-1.0339 l -0.264028,-0.4544 -0.977789,0.3781 c -1.573977,0.6085 -3.76901,1.7126 -4.48612,2.2565 -0.365252,0.277 -1.209291,1.1351 -1.875644,1.9065 -2.286806,2.6479 -2.746759,2.9027 -4.058741,2.2488 z m -9.028833,-7.7968 c 0.271624,-0.195 0.693582,-0.5915 0.937666,-0.881 0.98498,-1.168 2.247164,-1.9303 4.922949,-2.9731 2.57123,-1.0019 4.033046,-1.7704 4.033046,-2.1197 0,-0.3453 -0.727332,-1.4991 -1.411614,-2.2393 -0.394918,-0.4269 -1.107483,-1.1085 -1.583483,-1.5144 -0.827398,-0.7054 -0.877827,-0.7313 -1.146731,-0.5903 -0.392113,0.2055 -1.712085,1.3221 -3.166053,2.6778 -1.519521,1.4169 -2.510382,2.1692 -3.427898,2.6027 -0.69632,0.329 -0.710495,0.3446 -1.033336,1.1315 -0.4551452,1.1095 -0.6099592,1.8594 -0.5409712,2.62 0.06494,0.7166 0.4575542,1.4443 0.8752292,1.6221 0.405045,0.1724 1.019351,0.038 1.541196,-0.3363 z m -0.04716,-2.5097 c -0.27728,-0.2772 -0.278109,-1.0273 -0.0019,-1.854 0.22609,-0.6772 0.282589,-0.5072 0.105653,0.3177 -0.145911,0.6803 0.03793,1.1721 0.422626,1.1306 0.269665,-0.029 0.286974,0.011 0.134569,0.2933 -0.164329,0.3071 -0.422268,0.3509 -0.66079,0.1124 z m 2.156951,-1.7902 c -0.286409,-0.343 -0.544451,-0.5292 -0.8464,-0.6105 -0.357035,-0.096 -0.434372,-0.1648 -0.434372,-0.3858 0,-0.1758 0.06164,-0.2688 0.178231,-0.2688 0.244198,0 0.866805,0.3971 1.112716,0.7097 l 0.20241,0.2573 0.124423,-0.6689 c 0.144875,-0.7791 0.451511,-1.1847 0.72433,-0.9584 0.159934,0.1328 0.24191,0.551 0.10799,0.551 -0.03397,0 -0.151689,-0.048 -0.261572,-0.107 -0.318362,-0.1703 -0.42847,0.085 -0.463661,1.0738 l -0.0321,0.9012 -0.412019,-0.4936 z m 4.018027,-2.5967 c -0.572415,-0.5038 -0.489808,-0.5179 -0.984086,0.1681 -0.192518,0.2671 -0.457892,0.1731 -0.958814,-0.3399 l -0.400735,-0.4104 0.276001,-0.4629 c 0.151801,-0.2545 0.310983,-0.4627 0.353731,-0.4627 0.04273,0 0.321488,0.2014 0.619426,0.4476 l 0.541704,0.4476 0.166174,-0.2505 c 0.50448,-0.7607 0.478109,-0.7574 1.100179,-0.1405 0.520679,0.5166 0.553253,0.5788 0.428679,0.8191 -0.164057,0.3167 -0.440537,0.6425 -0.545139,0.6425 -0.04236,0 -0.311003,-0.2061 -0.59712,-0.458 z m 15.294473,6.0002 c 0.716537,-0.4864 0.78033,-0.6168 0.612443,-1.2514 -0.301205,-1.1385 -1.106401,-1.6552 -1.660143,-1.0654 -0.217477,0.2317 -0.268555,0.3972 -0.264244,0.856 0.0057,0.6332 0.429412,1.8157 0.650269,1.8157 0.07633,0 0.374089,-0.1597 0.661675,-0.3549 z m -10.550085,-2.6536 c -0.183577,-0.2211 -0.323286,-0.1977 -0.323286,0.054 0,0.2717 0.365432,0.5046 0.418561,0.2669 0.01996,-0.09 -0.02287,-0.234 -0.09527,-0.3213 z m -12.136624,-2.4972 c 0.71682,-0.3631 2.076388,-1.3935 3.185564,-2.4142 1.597846,-1.4702 3.080831,-2.9052 3.041291,-2.9428 -0.0209,-0.02 -1.335794,-1.0252 -2.922035,-2.2339 l -2.884086,-2.1978 -0.377327,0.5215 c -0.550776,0.7609 -0.8966312,1.5523 -0.8961412,2.0503 9.41e-4,0.9775 0.2515012,1.2087 0.7655062,0.7063 0.409835,-0.4007 0.458419,-0.4045 0.314137,-0.026 -0.203605,0.5356 -0.538269,0.9934 -1.0753232,1.471 -0.414673,0.3689 -0.60961,0.6666 -0.9140995,1.3969 -0.5779767,1.3863 -0.6873321,2.0928 -0.4390685,2.837 0.3492896,1.0467 1.166711,1.3553 2.2015822,0.8308 z m 0.301647,-3.4578 c 1.795465,-1.8372 1.887738,-1.9705 1.578647,-2.2796 -0.460161,-0.4602 -0.3885,-1.2865 0.127378,-1.4688 0.485055,-0.1715 0.631859,-0.029 0.631521,0.6138 -2.17e-4,0.3862 0.0799,0.7282 0.242456,1.0351 0.282598,0.5335 0.196584,0.7216 -0.171775,0.3755 l -0.256394,-0.2408 -0.547521,0.7504 c -0.503144,0.6895 -1.831935,1.9084 -2.7612532,2.5326 -0.210231,0.1413 0.3103912,-0.4519 1.1569412,-1.3182 z m 2.119427,-2.9435 c 0,-0.2405 -0.243237,-0.3893 -0.438729,-0.2685 -0.08357,0.052 -0.06287,0.14 0.06626,0.2827 0.24288,0.2685 0.372433,0.2635 0.372433,-0.014 z m 12.615084,19.6631 c -0.306202,-0.041 -0.446983,-0.1158 -0.473449,-0.2547 -0.03284,-0.1726 -0.0095,-0.1803 0.181967,-0.061 0.320697,0.2002 0.824057,-0.036 0.727003,-0.3429 -0.04123,-0.1298 -0.0192,-0.2175 0.0545,-0.2175 0.0736,0 0.109694,0.1433 0.08923,0.3549 -0.04913,0.5081 0.23521,0.4632 0.518109,-0.082 0.124649,-0.2402 0.321656,-0.4549 0.437787,-0.477 0.178175,-0.034 0.168509,-0.011 -0.06183,0.1873 -0.150175,0.1254 -0.211606,0.2294 -0.136519,0.2314 0.0751,0 0.136519,0.1024 0.136519,0.2221 0,0.1202 0.04509,0.2184 0.100277,0.2184 0.245364,0 0.445788,-0.1486 0.445788,-0.3304 0,-0.2812 0.114569,-0.5433 0.237469,-0.5433 0.0577,0 0.0737,0.098 0.03557,0.2185 -0.05497,0.1729 -0.01957,0.2183 0.169836,0.2183 0.19007,0 0.213674,0.031 0.11502,0.1496 -0.307086,0.3699 -1.633581,0.6314 -2.577262,0.508 z m -0.383294,-0.6403 c 0,-0.1698 0.300894,-0.3672 0.375577,-0.2464 0.03709,0.06 -0.03228,0.1624 -0.154099,0.2275 -0.121817,0.065 -0.221478,0.074 -0.221478,0.019 z m 4.715428,-0.824 c -0.162794,-0.4503 -0.632875,-0.9407 -0.901694,-0.9407 -0.2176,0 -0.538315,-0.3904 -0.53569,-0.652 0.0066,-0.6695 0.634466,-0.4236 1.198354,0.4692 0.422353,0.6687 0.54209,0.6371 0.547303,-0.1447 0.0057,-0.8879 0.429573,-1.3302 0.881893,-0.9209 0.393064,0.3556 0.179228,0.7369 -0.246221,0.4389 -0.373732,-0.2617 -0.526392,-0.044 -0.526392,0.7548 0,0.7482 -0.09498,1.3653 -0.210136,1.3653 -0.04047,0 -0.133826,-0.1665 -0.207417,-0.3699 z m -3.328622,-0.2478 c 0.06353,-0.1657 0.31679,-0.1968 0.407482,-0.05 0.03284,0.053 -0.05807,0.1191 -0.202014,0.1467 -0.187266,0.036 -0.245751,0.011 -0.205468,-0.097 z m 5.603015,-0.4195 c -0.180349,-0.2174 -0.09167,-1.3006 0.147454,-1.8022 0.131529,-0.2759 0.166324,-0.3063 0.125016,-0.1092 -0.172997,0.8252 -0.174974,1.1538 -0.0084,1.3652 0.170372,0.2159 0.174268,0.216 0.336188,0.011 0.15985,-0.2069 0.163822,-0.2061 0.163822,0.035 0,0.5747 -0.456263,0.8765 -0.764264,0.5054 z m -20.460623,-0.5822 c -0.240414,-0.2656 -0.225656,-1.1 0.03313,-1.8752 0.226061,-0.6771 0.2768,-0.5322 0.11408,0.3258 -0.134005,0.7065 0.03463,1.1635 0.414193,1.1224 0.284838,-0.031 0.300743,0.056 0.07077,0.384 -0.206616,0.295 -0.392649,0.3078 -0.63215,0.044 z m 4.868661,-1.7584 c -0.257694,-0.4143 -0.431059,-0.5746 -0.674466,-0.6233 -0.34288,-0.068 -0.496113,-0.3209 -0.379482,-0.6248 0.141741,-0.3694 0.530561,-0.1449 1.107954,0.6399 l 0.241073,0.3276 0.0057,-0.4915 c 0.0066,-0.4997 0.151953,-1.2796 0.259247,-1.3869 0.03247,-0.032 0.178805,-0.029 0.325139,0.011 0.290796,0.074 0.427727,0.3046 0.330269,0.5584 -0.05506,0.1436 -0.08903,0.1436 -0.293912,0 -0.127397,-0.09 -0.269853,-0.1622 -0.316554,-0.1622 -0.04669,0 -0.08837,0.4301 -0.09261,0.9557 -0.01101,1.3734 -0.08461,1.488 -0.512744,0.7994 z m 5.110253,-1.5876 c -0.103968,-0.1253 -0.104736,-0.3281 -0.0037,-0.9282 0.14721,-0.8728 0.259973,-0.9389 0.885441,-0.5188 0.511426,0.3435 0.574815,0.9335 0.143266,1.3334 -0.3296,0.3055 -0.820791,0.3599 -1.025205,0.1136 z m 0.917873,-0.443 c 0.206965,-0.1566 0.206278,-0.1645 -0.0367,-0.4231 -0.308377,-0.3282 -0.631087,-0.4226 -0.713243,-0.2085 -0.08414,0.2193 -0.07774,0.6364 0.0112,0.7252 0.123746,0.1238 0.517299,0.075 0.738758,-0.094 z m -6.965142,-0.5792 c -0.364359,-0.4027 -0.132998,-0.9955 0.51583,-1.3217 0.917036,-0.4612 4.2591,-1.8595 4.313687,-1.8048 0.163323,0.1633 -0.660169,0.6601 -2.17074,1.3095 -1.389008,0.5972 -2.202438,0.9915 -2.495718,1.2094 -0.02117,0.016 0.04028,0.141 0.136508,0.2784 0.334692,0.4779 0.08414,0.753 -0.299567,0.3292 z m 19.577035,-0.5829 c -0.14207,-0.2654 -0.07877,-1.314 0.119812,-1.9852 0.188913,-0.6385 0.266871,-0.3822 0.109412,0.3597 -0.166974,0.7868 -0.01003,1.3722 0.343209,1.2799 0.137939,-0.036 0.201713,0.011 0.201713,0.1337 0,0.4511 -0.563576,0.6054 -0.774146,0.2119 z m -6.013687,-0.4556 0.239831,-0.2554 -0.220791,-0.2806 c -0.302062,-0.384 -0.278297,-0.5607 0.120584,-0.8963 0.385891,-0.3248 0.57087,-0.3156 0.621816,0.031 0.03737,0.2537 -0.0832,0.309 -0.268866,0.1234 -0.156424,-0.1565 -0.413139,0.1629 -0.321967,0.4003 0.05676,0.1481 0.175021,0.1693 0.660772,0.1193 0.491171,-0.051 0.581158,-0.034 0.53009,0.099 -0.03389,0.089 -0.297629,0.2799 -0.586212,0.4261 -0.288593,0.1462 -0.555662,0.316 -0.593488,0.3773 -0.03783,0.061 -0.148169,0.1112 -0.245195,0.1112 -0.144311,0 -0.132782,-0.046 0.06343,-0.2552 z m 9.593558,-0.8369 c -0.03389,-0.15 -0.116048,-1.1576 -0.182655,-2.2387 -0.06663,-1.0811 -0.240603,-2.8502 -0.386654,-3.9315 -0.499012,-3.6938 -0.921139,-6.6611 -1.043709,-7.3367 -0.120122,-0.6621 -0.0028,-1.4545 0.216047,-1.4545 0.09998,0 0.980236,1.5146 1.233545,2.1225 0.10176,0.244 0.187764,0.5384 0.191124,0.6541 0.0057,0.199 -0.0076,0.1976 -0.246663,-0.028 -0.139031,-0.1306 -0.29281,-0.2374 -0.341751,-0.2374 -0.121149,0 -0.0047,1.1107 0.434419,4.1498 0.204018,1.4116 0.426174,3.107 0.493685,3.7678 0.165638,1.6213 0.09728,3.9216 -0.131435,4.4229 -0.170937,0.3744 -0.175625,0.3768 -0.235953,0.109 z m -6.958546,-4.0613 c -0.268244,-0.2046 -0.503623,-0.4546 -0.523077,-0.5555 -0.01948,-0.1013 0.0831,-0.3824 0.227953,-0.6252 l 0.263313,-0.4415 0.57905,0.461 0.579059,0.4611 0.339228,-0.4041 c 0.186579,-0.2222 0.390428,-0.4041 0.453007,-0.4041 0.06259,0 0.332876,0.2234 0.600669,0.4964 l 0.48689,0.4964 -0.234062,0.4046 c -0.128724,0.2225 -0.314955,0.4209 -0.413835,0.4407 -0.09887,0.019 -0.374569,-0.1398 -0.61265,-0.355 -0.23808,-0.215 -0.469591,-0.391 -0.514466,-0.391 -0.0449,0 -0.230494,0.1774 -0.41249,0.3941 l -0.33089,0.3942 -0.487699,-0.3721 z m 0.948801,-1.8358 c -0.03426,-0.2703 -0.0897,-0.9092 -0.123256,-1.4197 -0.0336,-0.5106 -0.121883,-1.1616 -0.196254,-1.4467 l -0.135229,-0.5183 -0.709553,0.4821 c -0.390259,0.2653 -0.723455,0.4684 -0.740452,0.4514 -0.01694,-0.017 0.290541,-0.3448 0.683416,-0.7283 l 0.714306,-0.6975 -0.330033,-2.6209 c -0.181524,-1.4415 -0.483171,-3.5547 -0.670333,-4.6959 -0.323672,-1.9735 -0.331719,-2.0954 -0.1648,-2.4924 0.09652,-0.2296 0.21695,-0.3918 0.267604,-0.3605 0.162495,0.1003 1.094721,2.0678 1.271708,2.6838 l 0.171069,0.5955 -0.382909,-0.3711 c -0.210597,-0.2042 -0.382907,-0.3281 -0.382907,-0.2754 0,0.253 0.895389,6.2601 0.967529,6.4912 l 0.08263,0.2647 0.244517,-0.3433 0.244527,-0.3434 -0.247916,-0.4307 c -0.283726,-0.493 -0.212705,-0.908 0.202354,-1.1822 0.213648,-0.141 0.260641,-0.134 0.464151,0.069 0.139397,0.1394 0.224574,0.3629 0.22161,0.5814 -0.0057,0.4345 -0.257167,1.4215 -0.34065,1.3381 -0.03332,-0.033 -0.241327,0.1602 -0.462306,0.4298 l -0.401789,0.4904 0.117676,1.1567 c 0.115586,1.1363 0.02174,2.5271 -0.212179,3.1447 -0.07539,0.1991 -0.100598,0.1573 -0.152556,-0.2529 z m 1.128989,-6.1022 c 0,-0.1129 -0.07313,-0.2659 -0.162532,-0.34 -0.131689,-0.1093 -0.175445,-0.1013 -0.230645,0.043 -0.06909,0.1799 0.12178,0.5023 0.297327,0.5023 0.0527,0 0.09585,-0.092 0.09585,-0.205 z m -6.112841,5.7473 c 0.0028,-0.1164 1.70705,-1.1741 1.891832,-1.1741 0.0352,0 0.03576,0.074 9.41e-4,0.1639 -0.05036,0.1314 -1.691427,1.1466 -1.853244,1.1466 -0.02353,0 -0.0415,-0.061 -0.03981,-0.1364 z m -3.16637,-0.2932 c -0.06221,-0.1163 -0.113054,-0.3671 -0.113054,-0.5576 0,-0.4477 0.310183,-1.6563 0.461383,-1.7977 0.0817,-0.077 0.09317,-0.044 0.03821,0.1094 -0.0432,0.12 -0.104117,0.5378 -0.135332,0.9282 -0.04226,0.5282 -0.01524,0.7647 0.105291,0.9242 0.137826,0.1823 0.188301,0.1925 0.337685,0.068 0.126654,-0.1045 0.175633,-0.1096 0.175633,-0.016 0,0.2845 -0.238099,0.5521 -0.491455,0.5521 -0.150569,0 -0.314249,-0.092 -0.3784,-0.2112 z m 9.539948,-0.502 c -0.133562,-0.2039 -0.164329,-0.4119 -0.117138,-0.7918 0.06917,-0.5573 0.39119,-1.7096 0.458795,-1.642 0.02277,0.022 -0.01496,0.3707 -0.08386,0.7731 -0.15152,0.8845 -0.03717,1.3411 0.332546,1.3279 0.267012,-0.011 0.296724,0.083 0.127991,0.398 -0.157741,0.2947 -0.503022,0.2633 -0.718335,-0.065 z m 4.932238,-0.6344 c -0.172555,-0.1263 -0.192575,-0.2581 -0.145139,-0.9556 0.0303,-0.445 0.135407,-0.9811 0.233637,-1.1914 l 0.178608,-0.3823 -0.04404,0.3277 c -0.02419,0.1802 -0.07953,0.5111 -0.122937,0.7354 -0.104,0.5375 0.117752,1.105 0.402683,1.0305 0.234193,-0.061 0.281431,0.2402 0.07068,0.451 -0.169797,0.1698 -0.325986,0.1656 -0.57344,-0.015 z M 28.26405,1023.237 c -0.225741,-0.2258 -0.221826,-0.9884 0.0094,-1.7772 0.212197,-0.725 0.32606,-0.5863 0.158833,0.1934 -0.158796,0.7403 0.0112,1.2546 0.383915,1.161 0.302334,-0.076 0.325374,0.015 0.08941,0.3517 -0.200179,0.2858 -0.404,0.3084 -0.64128,0.07 z m -3.923409,-2.9715 c -0.345073,-0.4989 -0.722663,-0.7883 -1.027878,-0.7883 -0.255077,0 -0.462532,-0.2058 -0.462532,-0.4587 0,-0.3717 0.690994,-0.1437 1.193074,0.3937 0.337967,0.3616 0.44496,0.3575 0.445722,-0.017 8.75e-4,-0.4301 0.196461,-1.075 0.369666,-1.2186 0.218174,-0.1812 0.503426,-0.026 0.503426,0.2747 0,0.2873 -0.104362,0.3318 -0.305798,0.1303 -0.23983,-0.2398 -0.339943,0.058 -0.372338,1.1063 l -0.03172,1.028 -0.311594,-0.4504 z m -6.323749,-0.2344 c -0.262682,-0.3523 -0.518015,-0.5727 -0.709882,-0.6131 -0.458448,-0.096 -0.624001,-0.2141 -0.662175,-0.4708 -0.06306,-0.4241 0.645629,-0.2091 1.173365,0.3558 0.357225,0.3823 0.445083,0.3574 0.44528,-0.1262 3.3e-4,-0.8831 0.763652,-1.6565 0.854269,-0.8655 0.03284,0.2863 0.01826,0.2993 -0.202842,0.181 -0.1312,-0.07 -0.279991,-0.085 -0.331238,-0.035 -0.0512,0.051 -0.107323,0.5498 -0.124791,1.1082 l -0.03172,1.0151 -0.410241,-0.5502 z m -2.532152,-1.5734 c -0.153882,-0.1124 -0.197948,-0.2873 -0.193618,-0.7683 0.0047,-0.5584 0.320451,-1.8832 0.423793,-1.7798 0.02268,0.022 -0.01854,0.3899 -0.09167,0.8162 -0.109506,0.6385 -0.10655,0.8241 0.01676,1.0545 0.105067,0.1964 0.209055,0.2608 0.348951,0.2164 0.251473,-0.08 0.268875,0.1939 0.02767,0.4352 -0.209177,0.2091 -0.27682,0.2124 -0.531916,0.026 z m 15.13646,-0.029 c -0.191445,-0.1342 -0.234071,-0.2706 -0.22864,-0.732 0.0037,-0.3118 0.09693,-0.8374 0.207219,-1.1677 0.226089,-0.6772 0.282588,-0.5072 0.105642,0.3178 -0.143718,0.67 0.0385,1.1715 0.411558,1.1323 0.180536,-0.019 0.21744,0.022 0.172489,0.1946 -0.08734,0.3339 -0.390475,0.4496 -0.668273,0.255 z m -12.919527,-1.1079 c -0.144603,-0.3639 0.03604,-1.6354 0.296066,-2.0839 l 0.168913,-0.2915 -0.06597,0.2731 c -0.277996,1.1502 -0.147567,2.0442 0.278513,1.909 0.241742,-0.077 0.292405,0.1508 0.08076,0.3624 -0.241214,0.2412 -0.629506,0.1545 -0.758222,-0.1691 z m 9.078744,-1.2851 c -0.09544,-0.115 -0.115389,-0.353 -0.06532,-0.7792 0.09196,-0.782 0.13201,-0.8387 0.53697,-0.7576 0.484226,0.097 0.731107,0.3657 0.731107,0.796 0,0.673 -0.833158,1.1862 -1.202797,0.7408 z m 0.77313,-0.3844 c 0.290456,-0.1554 0.264546,-0.3729 -0.07059,-0.5924 -0.389563,-0.2552 -0.59185,-0.1458 -0.59185,0.3198 0,0.317 0.04019,0.3857 0.22561,0.3857 0.124075,0 0.320659,-0.051 0.436846,-0.1131 z m -5.098187,-0.1639 c -0.139736,-0.2132 -0.16639,-0.4204 -0.115877,-0.9008 0.07577,-0.7204 0.382757,-1.6815 0.391171,-1.2248 0.0028,0.1502 -0.04396,0.4855 -0.103797,0.7449 -0.137384,0.5957 0.05374,1.0705 0.415275,1.032 0.18208,-0.02 0.221027,0.018 0.169177,0.1636 -0.18783,0.5274 -0.484188,0.5999 -0.755953,0.1851 z m -9.061878,-1.9313 c 0.107239,-0.1638 0.544039,-0.4423 1.070768,-0.683 1.253686,-0.573 5.233198,-2.045 5.313029,-1.9652 0.08706,0.086 -0.376659,0.4347 -0.858692,0.6438 -0.210231,0.092 -1.512594,0.6144 -2.894129,1.1628 -1.381535,0.5481 -2.579427,1.0242 -2.661987,1.0575 -0.111746,0.045 -0.103818,-0.011 0.03097,-0.2159 z"
       id="path3076"
       inkscape:connector-curvature="0" />
  </g>
  <g
     inkscape:groupmode="layer"
     id="layer4"
     inkscape:label="Inset"
     style="display:inline"
     sodipodi:insensitive="true">
    <path
       style="opacity:0.15;fill:#000000;fill-opacity:1;stroke:none"
       d="m 2,34 0,3 c 0,4.986 4.014,9 9,9 l 26,0 c 4.986,0 9,-4.014 9,-9 l 0,-3 c 0,4.986 -4.014,9 -9,9 L 11,43 C 6.014,43 2,38.986 2,34 Z"
       id="rect3038-42"
       inkscape:connector-curvature="0" />
  </g>
  <g
     inkscape:groupmode="layer"
     id="layer7"
     inkscape:label="Baseshape"
     sodipodi:insensitive="true"
     style="display:none">
    <rect
       rx="9"
       ry="9"
       y="2"
       x="2"
       height="44"
       width="44"
       id="rect4169"
       style="fill:#abe1ad;fill-opacity:1;stroke:none;display:inline" />
  </g>
</svg>
