<?xml version="1.0" encoding="utf-8"?>
<!-- Generator: Adobe Illustrator 18.1.1, SVG Export Plug-In . SVG Version: 6.00 Build 0)  -->
<svg version="1.1"
	 id="svg4230" inkscape:version="0.48.4 r9939" inkscape:export-xdpi="450" inkscape:export-filename="/home/max/Desktop/Dropbox.PNG" inkscape:export-ydpi="450" sodipodi:docname="Dropbox.svg" xmlns:cc="http://creativecommons.org/ns#" xmlns:rdf="http://www.w3.org/1999/02/22-rdf-syntax-ns#" xmlns:dc="http://purl.org/dc/elements/1.1/" xmlns:svg="http://www.w3.org/2000/svg" xmlns:sodipodi="http://sodipodi.sourceforge.net/DTD/sodipodi-0.dtd" xmlns:inkscape="http://www.inkscape.org/namespaces/inkscape"
	 xmlns="http://www.w3.org/2000/svg" xmlns:xlink="http://www.w3.org/1999/xlink" x="0px" y="0px" viewBox="-25 27 48 48"
	 enable-background="new -25 27 48 48" xml:space="preserve">
<sodipodi:namedview  id="base" inkscape:window-height="1056" inkscape:showpageshadow="false" inkscape:guide-bbox="true" inkscape:pageopacity="0.0" inkscape:document-units="px" inkscape:window-maximized="1" inkscape:pageshadow="2" inkscape:window-x="65" inkscape:window-width="1855" inkscape:window-y="24" inkscape:current-layer="layer2" borderopacity="1.0" bordercolor="#666666" showguides="false" showgrid="true" inkscape:cy="31.978884" borderlayer="true" inkscape:zoom="11.313709" pagecolor="#ffffff" inkscape:cx="0.10008222">
	<inkscape:grid  type="xygrid" id="grid4162"></inkscape:grid>
	<sodipodi:guide  id="guide4163" orientation="46,0" position="1.0000013,47.000017"></sodipodi:guide>
	<sodipodi:guide  id="guide4165" orientation="0,45.999999" position="1.0000013,1.0000174"></sodipodi:guide>
	<sodipodi:guide  id="guide4167" orientation="-46,0" position="47,1.0000174"></sodipodi:guide>
	<sodipodi:guide  id="guide4169" orientation="0,-45.999999" position="47,47.000017"></sodipodi:guide>
	<sodipodi:guide  id="guide4173" orientation="44,0" position="2.0000007,46.000017"></sodipodi:guide>
	<sodipodi:guide  id="guide4175" orientation="0,43.999999" position="2.0000007,2.0000174"></sodipodi:guide>
	<sodipodi:guide  id="guide4177" orientation="-44,0" position="46,2.0000174"></sodipodi:guide>
	<sodipodi:guide  id="guide4179" orientation="0,-43.999999" position="46,46.000017"></sodipodi:guide>
	<sodipodi:guide  id="guide4183" orientation="42,0" position="3,45.000017"></sodipodi:guide>
	<sodipodi:guide  id="guide4187" orientation="-42,0" position="45,3.0000174"></sodipodi:guide>
	<sodipodi:guide  id="guide4189" orientation="0,-42" position="45,45.000017"></sodipodi:guide>
	<sodipodi:guide  id="guide4193" orientation="42,0" position="3,45.000017"></sodipodi:guide>
	<sodipodi:guide  id="guide4195" orientation="0,42" position="3,3.0000174"></sodipodi:guide>
	<sodipodi:guide  id="guide4197" orientation="-42,0" position="45,3.0000174"></sodipodi:guide>
	<sodipodi:guide  id="guide4199" orientation="0,-42" position="45,45.000017"></sodipodi:guide>
	<sodipodi:guide  id="guide4203" orientation="7,0" position="3,10.000017"></sodipodi:guide>
	<sodipodi:guide  id="guide4205" orientation="0,42" position="3,3.0000174"></sodipodi:guide>
	<sodipodi:guide  id="guide4207" orientation="-7,0" position="45,3.0000174"></sodipodi:guide>
	<sodipodi:guide  id="guide4209" orientation="0,-42" position="45,10.000017"></sodipodi:guide>
</sodipodi:namedview>
<g id="layer3" sodipodi:insensitive="true" inkscape:groupmode="layer" inkscape:label="Fake blur shadow">
	<path id="rect3829" inkscape:connector-curvature="0" opacity="0.06" enable-background="new    " d="M-15,28c-4.986,0-9,4.014-9,9
		v28c0,4.986,4.014,9,9,9h28c4.986,0,9-4.014,9-9V37c0-4.986-4.014-9-9-9H-15z M-14.5,28.5h27c4.986,0,9,4.014,9,9v27
		c0,4.986-4.014,9-9,9h-27c-4.986,0-9-4.014-9-9v-27C-23.5,32.514-19.486,28.5-14.5,28.5z"/>
	<path id="rect3827" inkscape:connector-curvature="0" opacity="0.12" enable-background="new    " d="M-14.5,28.5
		c-4.986,0-9,4.014-9,9v27c0,4.986,4.014,9,9,9h27c4.986,0,9-4.014,9-9v-27c0-4.986-4.014-9-9-9H-14.5z M-14.25,28.75h26.5
		c4.986,0,9,4.014,9,9v26.5c0,4.986-4.014,9-9,9h-26.5c-4.986,0-9-4.014-9-9v-26.5C-23.25,32.764-19.236,28.75-14.25,28.75z"/>
	<path id="rect3038-4" opacity="0.24" enable-background="new    " d="M-14.25,28.75h26.5c4.971,0,9,4.029,9,9v26.5
		c0,4.971-4.029,9-9,9h-26.5c-4.971,0-9-4.029-9-9v-26.5C-23.25,32.779-19.221,28.75-14.25,28.75z"/>
</g>
<g id="layer6" sodipodi:insensitive="true" inkscape:groupmode="layer" inkscape:label="Blob">
	
		<radialGradient id="rect4241_1_" cx="-2.0417" cy="-68.278" r="23" gradientTransform="matrix(1.0435 0 0 -0.1957 1.1304 57.1413)" gradientUnits="userSpaceOnUse">
		<stop  offset="0" style="stop-color:#000000"/>
		<stop  offset="1" style="stop-color:#000000;stop-opacity:0"/>
	</radialGradient>
	<path id="rect4241" inkscape:connector-curvature="0" opacity="0.3" fill="url(#rect4241_1_)" enable-background="new    " d="
		M-23.969,66c0.488,4.519,4.316,8,8.969,8h28c4.653,0,8.481-3.481,8.969-8H-23.969z"/>
</g>
<g id="layer2" inkscape:groupmode="layer" inkscape:label="Baseplate">
	
		<linearGradient id="rect3038_1_" gradientUnits="userSpaceOnUse" x1="-1" y1="31" x2="-1" y2="75" gradientTransform="matrix(1 0 0 -1 0 104)">
		<stop  offset="0" style="stop-color:#231F20"/>
		<stop  offset="1" style="stop-color:#4D4D4F"/>
	</linearGradient>
	<path id="rect3038" fill="url(#rect3038_1_)" d="M-14,29h26c4.971,0,9,4.029,9,9v26c0,4.971-4.029,9-9,9h-26c-4.971,0-9-4.029-9-9
		V38C-23,33.029-18.971,29-14,29z"/>
	<polygon opacity="0.15" fill-rule="evenodd" clip-rule="evenodd" points="-10.731,36 -1.5,36 8.731,52 -1.5,68 -10.731,68 -0.5,52 
		-10.731,36 	"/>
	<g>
		<polygon fill-rule="evenodd" clip-rule="evenodd" fill="#E29D0E" points="-10.731,35 -1.5,35 8.731,51 -1.5,67 -10.731,67 
			-0.5,51 		"/>
	</g>
</g>
<g id="layer1" transform="translate(0,-1004.3622)" inkscape:groupmode="layer" inkscape:label="Symbol">
	<g id="g67" transform="matrix(1.3676958,0,0,1.3676958,32.235522,995.72034)">
		<g id="g69">
			<g id="g71">
			</g>
		</g>
	</g>
</g>
<g id="layer4" sodipodi:insensitive="true" inkscape:groupmode="layer" inkscape:label="Inset">
	<path id="rect3038-42" inkscape:connector-curvature="0" opacity="0.15" enable-background="new    " d="M-23,61v3
		c0,4.986,4.014,9,9,9h26c4.986,0,9-4.014,9-9v-3c0,4.986-4.014,9-9,9h-26C-18.986,70-23,65.986-23,61z"/>
</g>
<g id="layer7" sodipodi:insensitive="true" inkscape:groupmode="layer" inkscape:label="Baseshape" display="none">
	<path id="rect4169" display="inline" fill="#ABE1AD" d="M-14,29h26c4.971,0,9,4.029,9,9v26c0,4.971-4.029,9-9,9h-26
		c-4.971,0-9-4.029-9-9V38C-23,33.029-18.971,29-14,29z"/>
</g>
</svg>
