<?xml version="1.0" encoding="UTF-8" standalone="no"?>
<!-- Created with Inkscape (http://www.inkscape.org/) -->

<svg
   xmlns:dc="http://purl.org/dc/elements/1.1/"
   xmlns:cc="http://creativecommons.org/ns#"
   xmlns:rdf="http://www.w3.org/1999/02/22-rdf-syntax-ns#"
   xmlns:svg="http://www.w3.org/2000/svg"
   xmlns="http://www.w3.org/2000/svg"
   xmlns:xlink="http://www.w3.org/1999/xlink"
   xmlns:sodipodi="http://sodipodi.sourceforge.net/DTD/sodipodi-0.dtd"
   xmlns:inkscape="http://www.inkscape.org/namespaces/inkscape"
   width="48"
   height="48"
   id="svg4230"
   version="1.1"
   inkscape:version="0.48.5 r10040"
   sodipodi:docname="simpŭl-skrijn-rekordŭr.svg"
   inkscape:export-filename="/home/webdesign/Downloads/ozon icons/texteditor.png"
   inkscape:export-xdpi="960"
   inkscape:export-ydpi="960">
  <defs
     id="defs4232">
    <linearGradient
       id="linearGradient4030">
      <stop
         style="stop-color:#b0b0b0;stop-opacity:1;"
         offset="0"
         id="stop4032" />
      <stop
         style="stop-color:#c1c1c1;stop-opacity:1;"
         offset="1"
         id="stop4034" />
    </linearGradient>
    <linearGradient
       inkscape:collect="always"
       id="linearGradient4018">
      <stop
         style="stop-color:#d8d2e2;stop-opacity:1;"
         offset="0"
         id="stop4020" />
      <stop
         style="stop-color:#d8d2e2;stop-opacity:0;"
         offset="1"
         id="stop4022" />
    </linearGradient>
    <linearGradient
       inkscape:collect="always"
       id="linearGradient4006">
      <stop
         style="stop-color:#ffffff;stop-opacity:1;"
         offset="0"
         id="stop4008" />
      <stop
         style="stop-color:#ffffff;stop-opacity:0;"
         offset="1"
         id="stop4010" />
    </linearGradient>
    <linearGradient
       inkscape:collect="always"
       id="linearGradient3964">
      <stop
         style="stop-color:#000000;stop-opacity:1;"
         offset="0"
         id="stop3966" />
      <stop
         style="stop-color:#000000;stop-opacity:0;"
         offset="1"
         id="stop3968" />
    </linearGradient>
    <linearGradient
       inkscape:collect="always"
       id="linearGradient3936">
      <stop
         style="stop-color:#000000;stop-opacity:1;"
         offset="0"
         id="stop3938" />
      <stop
         style="stop-color:#000000;stop-opacity:0;"
         offset="1"
         id="stop3940" />
    </linearGradient>
    <linearGradient
       id="linearGradient4083">
      <stop
         id="stop4085"
         offset="0"
         style="stop-color:#dfded1;stop-opacity:1;" />
      <stop
         id="stop4087"
         offset="1"
         style="stop-color:#e8e7e0;stop-opacity:1;" />
    </linearGradient>
    <linearGradient
       id="linearGradient4044">
      <stop
         style="stop-color:#000000;stop-opacity:1;"
         offset="0"
         id="stop4046" />
      <stop
         style="stop-color:#ffffff;stop-opacity:1;"
         offset="1"
         id="stop4048" />
    </linearGradient>
    <linearGradient
       id="linearGradient4005">
      <stop
         id="stop4007"
         offset="0"
         style="stop-color:#e1e1e1;stop-opacity:1;" />
      <stop
         id="stop4009"
         offset="1"
         style="stop-color:#ececec;stop-opacity:1;" />
    </linearGradient>
    <linearGradient
       id="linearGradient3976">
      <stop
         style="stop-color:#c0c0c0;stop-opacity:1;"
         offset="0"
         id="stop3978" />
      <stop
         style="stop-color:#ffffff;stop-opacity:1;"
         offset="1"
         id="stop3980" />
    </linearGradient>
    <linearGradient
       id="linearGradient3874">
      <stop
         style="stop-color:#ea508d;stop-opacity:1;"
         offset="0"
         id="stop3876" />
      <stop
         style="stop-color:#e66296;stop-opacity:1;"
         offset="1"
         id="stop3878" />
    </linearGradient>
    <linearGradient
       id="linearGradient4026">
      <stop
         style="stop-color:#f1f1e9;stop-opacity:1;"
         offset="0"
         id="stop4028" />
      <stop
         style="stop-color:#f5f5ea;stop-opacity:1;"
         offset="1"
         id="stop4030" />
    </linearGradient>
    <linearGradient
       id="linearGradient4243">
      <stop
         style="stop-color:#000000;stop-opacity:1;"
         offset="0"
         id="stop4245" />
      <stop
         style="stop-color:#000000;stop-opacity:0;"
         offset="1"
         id="stop4247" />
    </linearGradient>
    <linearGradient
       id="linearGradient4216">
      <stop
         style="stop-color:#a0c4e6;stop-opacity:1;"
         offset="0"
         id="stop4218" />
      <stop
         style="stop-color:#d0e2f1;stop-opacity:1;"
         offset="1"
         id="stop4220" />
    </linearGradient>
    <linearGradient
       id="linearGradient4208">
      <stop
         style="stop-color:#70a3d6;stop-opacity:1;"
         offset="0"
         id="stop4210" />
      <stop
         style="stop-color:#88b6e1;stop-opacity:1;"
         offset="1"
         id="stop4212" />
    </linearGradient>
    <linearGradient
       id="linearGradient4200">
      <stop
         style="stop-color:#427dbe;stop-opacity:1;"
         offset="0"
         id="stop4202" />
      <stop
         style="stop-color:#739bd1;stop-opacity:1;"
         offset="1"
         id="stop4204" />
    </linearGradient>
    <linearGradient
       id="linearGradient4192">
      <stop
         style="stop-color:#4970a4;stop-opacity:1;"
         offset="0"
         id="stop4194" />
      <stop
         style="stop-color:#6090c0;stop-opacity:1;"
         offset="1"
         id="stop4196" />
    </linearGradient>
    <radialGradient
       inkscape:collect="always"
       xlink:href="#linearGradient3688-166-749-5-9-1"
       id="radialGradient4351"
       gradientUnits="userSpaceOnUse"
       gradientTransform="matrix(2.3201711,0,0,0.39999996,28.617836,28.600002)"
       cx="4.9929786"
       cy="43.5"
       fx="4.9929786"
       fy="43.5"
       r="2.5" />
    <linearGradient
       id="linearGradient3688-166-749-5-9-1">
      <stop
         id="stop2883-0-2-9"
         style="stop-color:#181818;stop-opacity:1"
         offset="0" />
      <stop
         id="stop2885-5-3-8"
         style="stop-color:#181818;stop-opacity:0"
         offset="1" />
    </linearGradient>
    <linearGradient
       id="linearGradient3688-464-309-8-9-4">
      <stop
         id="stop2889-9-9-1"
         style="stop-color:#181818;stop-opacity:1"
         offset="0" />
      <stop
         id="stop2891-4-2-9"
         style="stop-color:#181818;stop-opacity:0"
         offset="1" />
    </linearGradient>
    <linearGradient
       id="linearGradient3702-501-757-0-4-0">
      <stop
         id="stop2895-0-2-1"
         style="stop-color:#181818;stop-opacity:0"
         offset="0" />
      <stop
         id="stop2897-2-8-2"
         style="stop-color:#181818;stop-opacity:1"
         offset="0.5" />
      <stop
         id="stop2899-6-1-6"
         style="stop-color:#181818;stop-opacity:0"
         offset="1" />
    </linearGradient>
    <linearGradient
       id="linearGradient3811-3">
      <stop
         style="stop-color:#000000;stop-opacity:1;"
         offset="0"
         id="stop3813-0" />
      <stop
         style="stop-color:#000000;stop-opacity:0;"
         offset="1"
         id="stop3815-0" />
    </linearGradient>
    <clipPath
       id="clipPath-887332295">
      <g
         id="g3945"
         transform="translate(0,-1004.3622)">
        <rect
           id="rect3947"
           fill="#1890d0"
           width="46"
           height="46"
           x="1"
           y="1005.36"
           rx="4" />
      </g>
    </clipPath>
    <clipPath
       id="clipPath-867792831">
      <g
         id="g3940"
         transform="translate(0,-1004.3622)">
        <rect
           id="rect3942"
           fill="#1890d0"
           width="46"
           height="46"
           x="1"
           y="1005.36"
           rx="4" />
      </g>
    </clipPath>
    <linearGradient
       gradientTransform="translate(-47.997785,0.00221467)"
       gradientUnits="userSpaceOnUse"
       x2="47"
       x1="1"
       id="linearGradient3764">
      <stop
         id="stop3935"
         stop-opacity="1"
         stop-color="#e4e4e4" />
      <stop
         id="stop3937"
         stop-opacity="1"
         stop-color="#eee"
         offset="1" />
    </linearGradient>
    <radialGradient
       inkscape:collect="always"
       xlink:href="#linearGradient4243"
       id="radialGradient4274"
       gradientUnits="userSpaceOnUse"
       gradientTransform="matrix(1.0434782,0,0,0.1956518,-1.0434797,35.184809)"
       cx="24.000001"
       cy="42.499991"
       fx="24.000001"
       fy="42.499991"
       r="23" />
    <linearGradient
       inkscape:collect="always"
       xlink:href="#linearGradient4026"
       id="linearGradient4032"
       x1="-41.197594"
       y1="1042.7213"
       x2="-41.197594"
       y2="1002.0031"
       gradientUnits="userSpaceOnUse" />
    <linearGradient
       inkscape:collect="always"
       xlink:href="#linearGradient4026"
       id="linearGradient4078"
       gradientUnits="userSpaceOnUse"
       x1="-41.197594"
       y1="1042.7213"
       x2="-41.197594"
       y2="1002.0031" />
    <linearGradient
       inkscape:collect="always"
       xlink:href="#linearGradient4026"
       id="linearGradient4114"
       gradientUnits="userSpaceOnUse"
       x1="-41.197594"
       y1="1042.7213"
       x2="-41.197594"
       y2="1002.0031" />
    <linearGradient
       inkscape:collect="always"
       xlink:href="#linearGradient4026"
       id="linearGradient4150"
       gradientUnits="userSpaceOnUse"
       x1="-41.197594"
       y1="1042.7213"
       x2="-41.197594"
       y2="1002.0031" />
    <linearGradient
       inkscape:collect="always"
       xlink:href="#linearGradient4083"
       id="linearGradient3880"
       x1="26"
       y1="46"
       x2="26"
       y2="2"
       gradientUnits="userSpaceOnUse" />
    <linearGradient
       inkscape:collect="always"
       xlink:href="#linearGradient4005"
       id="linearGradient4015"
       gradientUnits="userSpaceOnUse"
       x1="16"
       y1="22"
       x2="16"
       y2="12" />
    <linearGradient
       inkscape:collect="always"
       xlink:href="#linearGradient4005"
       id="linearGradient4017"
       gradientUnits="userSpaceOnUse"
       x1="16"
       y1="22"
       x2="16"
       y2="12"
       gradientTransform="matrix(0.6,0,0,-0.6,6.4,27.2)" />
    <clipPath
       id="clipPath-247239647">
      <g
         transform="translate(0,-1004.3622)"
         id="g17">
        <rect
           style="fill:#1890d0"
           rx="4"
           y="1005.36"
           x="1"
           height="46"
           width="46"
           id="rect19" />
      </g>
    </clipPath>
    <radialGradient
       id="radial0"
       gradientUnits="userSpaceOnUse"
       cx="6.7729998"
       cy="6.7729998"
       r="3.6689999"
       gradientTransform="scale(3.543307,3.543307)">
      <stop
         stop-color="#000"
         stop-opacity="1"
         id="stop22" />
      <stop
         offset="1"
         stop-color="#000"
         stop-opacity="0"
         id="stop24" />
    </radialGradient>
    <radialGradient
       id="radialGradient3146"
       gradientUnits="userSpaceOnUse"
       cx="6.7729998"
       cy="6.7729998"
       r="3.6689999"
       gradientTransform="scale(3.543307,3.543307)">
      <stop
         stop-color="#000"
         stop-opacity="1"
         id="stop3148" />
      <stop
         offset="1"
         stop-color="#000"
         stop-opacity="0"
         id="stop3150" />
    </radialGradient>
    <radialGradient
       id="radial1"
       gradientUnits="userSpaceOnUse"
       cx="6.7729998"
       cy="6.7729998"
       r="3.6689999"
       gradientTransform="scale(3.543307,3.543307)">
      <stop
         stop-color="#000"
         stop-opacity="0.251"
         id="stop27" />
      <stop
         offset="1"
         stop-color="#000"
         stop-opacity="0"
         id="stop29" />
    </radialGradient>
    <radialGradient
       id="radialGradient3155"
       gradientUnits="userSpaceOnUse"
       cx="6.7729998"
       cy="6.7729998"
       r="3.6689999"
       gradientTransform="scale(3.543307,3.543307)">
      <stop
         stop-color="#000"
         stop-opacity="0.251"
         id="stop3157" />
      <stop
         offset="1"
         stop-color="#000"
         stop-opacity="0"
         id="stop3159" />
    </radialGradient>
    <radialGradient
       id="radial2"
       gradientUnits="userSpaceOnUse"
       cx="6.2090001"
       cy="5.927"
       r="0.28200001"
       gradientTransform="matrix(5.31496,0,0,5.31496,-10.999999,-10.499999)">
      <stop
         stop-color="#fff"
         stop-opacity="0.749"
         id="stop32" />
      <stop
         offset="1"
         stop-color="#fff"
         stop-opacity="0"
         id="stop34" />
    </radialGradient>
    <radialGradient
       id="radial3"
       gradientUnits="userSpaceOnUse"
       cx="6.2090001"
       cy="5.927"
       r="0.28200001"
       gradientTransform="matrix(5.31496,0,0,5.31496,-8.999999,-4.499999)"
       xlink:href="#radial2" />
    <radialGradient
       id="radialGradient3165"
       gradientUnits="userSpaceOnUse"
       cx="6.2090001"
       cy="5.927"
       r="0.28200001"
       gradientTransform="matrix(5.31496,0,0,5.31496,-10.999999,-10.499999)">
      <stop
         stop-color="#fff"
         stop-opacity="0.749"
         id="stop3167" />
      <stop
         offset="1"
         stop-color="#fff"
         stop-opacity="0"
         id="stop3169" />
    </radialGradient>
    <radialGradient
       inkscape:collect="always"
       xlink:href="#radial0"
       id="radialGradient3208"
       gradientUnits="userSpaceOnUse"
       gradientTransform="scale(3.543307,3.543307)"
       cx="6.7729998"
       cy="6.7729998"
       r="3.6689999" />
    <radialGradient
       inkscape:collect="always"
       xlink:href="#radial1"
       id="radialGradient3210"
       gradientUnits="userSpaceOnUse"
       gradientTransform="scale(3.543307,3.543307)"
       cx="6.7729998"
       cy="6.7729998"
       r="3.6689999" />
    <radialGradient
       inkscape:collect="always"
       xlink:href="#radial0"
       id="radialGradient3231"
       gradientUnits="userSpaceOnUse"
       gradientTransform="scale(3.543307,3.543307)"
       cx="6.7729998"
       cy="6.7729998"
       r="3.6689999" />
    <radialGradient
       inkscape:collect="always"
       xlink:href="#radial1"
       id="radialGradient3233"
       gradientUnits="userSpaceOnUse"
       gradientTransform="scale(3.543307,3.543307)"
       cx="6.7729998"
       cy="6.7729998"
       r="3.6689999" />
    <radialGradient
       inkscape:collect="always"
       xlink:href="#radial0"
       id="radialGradient3253"
       gradientUnits="userSpaceOnUse"
       gradientTransform="scale(3.543307,3.543307)"
       cx="6.7729998"
       cy="6.7729998"
       r="3.6689999" />
    <radialGradient
       inkscape:collect="always"
       xlink:href="#radial1"
       id="radialGradient3255"
       gradientUnits="userSpaceOnUse"
       gradientTransform="scale(3.543307,3.543307)"
       cx="6.7729998"
       cy="6.7729998"
       r="3.6689999" />
    <linearGradient
       inkscape:collect="always"
       xlink:href="#linearGradient4083-5"
       id="linearGradient3880-7"
       x1="26"
       y1="46"
       x2="26"
       y2="2"
       gradientUnits="userSpaceOnUse" />
    <linearGradient
       id="linearGradient4083-5">
      <stop
         id="stop4085-7"
         offset="0"
         style="stop-color:#dfded1;stop-opacity:1;" />
      <stop
         id="stop4087-2"
         offset="1"
         style="stop-color:#e8e7e0;stop-opacity:1;" />
    </linearGradient>
    <linearGradient
       gradientTransform="translate(0,1004.3622)"
       y2="2"
       x2="26"
       y1="46"
       x1="26"
       gradientUnits="userSpaceOnUse"
       id="linearGradient5542"
       xlink:href="#linearGradient4083-5"
       inkscape:collect="always" />
    <linearGradient
       inkscape:collect="always"
       xlink:href="#linearGradient4284"
       id="linearGradient4290"
       x1="1"
       y1="24"
       x2="4"
       y2="24"
       gradientUnits="userSpaceOnUse" />
    <linearGradient
       id="linearGradient4284">
      <stop
         style="stop-color:#63570f;stop-opacity:0.68627453;"
         offset="0"
         id="stop4286" />
      <stop
         style="stop-color:#63570f;stop-opacity:0.05882353;"
         offset="1"
         id="stop4288" />
    </linearGradient>
    <radialGradient
       inkscape:collect="always"
       xlink:href="#linearGradient3936"
       id="radialGradient3942"
       cx="24"
       cy="1027.3622"
       fx="24"
       fy="1027.3622"
       r="15"
       gradientUnits="userSpaceOnUse" />
    <radialGradient
       inkscape:collect="always"
       xlink:href="#linearGradient3964"
       id="radialGradient3970"
       cx="24.000034"
       cy="1027.3622"
       fx="24.000034"
       fy="1027.3622"
       r="5.0000125"
       gradientTransform="matrix(1,0,0,0.9999975,0,0.0025684)"
       gradientUnits="userSpaceOnUse" />
    <radialGradient
       inkscape:collect="always"
       xlink:href="#linearGradient4006"
       id="radialGradient4012"
       cx="17"
       cy="27"
       fx="17"
       fy="27"
       r="2"
       gradientUnits="userSpaceOnUse" />
    <radialGradient
       inkscape:collect="always"
       xlink:href="#linearGradient4018"
       id="radialGradient4024"
       cx="30.5"
       cy="23.5"
       fx="30.5"
       fy="23.5"
       r="1.5"
       gradientUnits="userSpaceOnUse" />
    <linearGradient
       inkscape:collect="always"
       xlink:href="#linearGradient4030"
       id="linearGradient4036"
       x1="42"
       y1="1014.3622"
       x2="35"
       y2="1010.3622"
       gradientUnits="userSpaceOnUse" />
    <radialGradient
       inkscape:collect="always"
       xlink:href="#linearGradient3936"
       id="radialGradient3164"
       gradientUnits="userSpaceOnUse"
       cx="24"
       cy="1027.3622"
       fx="24"
       fy="1027.3622"
       r="15"
       gradientTransform="matrix(1.0666667,0,0,1.0666667,-1.6,-68.490813)" />
  </defs>
  <sodipodi:namedview
     id="base"
     pagecolor="#ffffff"
     bordercolor="#666666"
     borderopacity="1.0"
     inkscape:pageopacity="0.0"
     inkscape:pageshadow="2"
     inkscape:zoom="24.146995"
     inkscape:cx="24"
     inkscape:cy="24.731749"
     inkscape:document-units="px"
     inkscape:current-layer="layer1"
     showgrid="true"
     inkscape:showpageshadow="false"
     borderlayer="true"
     inkscape:window-width="1920"
     inkscape:window-height="1052"
     inkscape:window-x="0"
     inkscape:window-y="28"
     inkscape:window-maximized="1"
     showguides="false">
    <inkscape:grid
       type="xygrid"
       id="grid4162" />
    <sodipodi:guide
       position="1.0000013,47.000017"
       orientation="46,0"
       id="guide4163" />
    <sodipodi:guide
       position="1.0000013,1.0000174"
       orientation="0,45.999999"
       id="guide4165" />
    <sodipodi:guide
       position="47,1.0000174"
       orientation="-46,0"
       id="guide4167" />
    <sodipodi:guide
       position="47,47.000017"
       orientation="0,-45.999999"
       id="guide4169" />
    <sodipodi:guide
       position="2.0000007,46.000017"
       orientation="44,0"
       id="guide4173" />
    <sodipodi:guide
       position="2.0000007,2.0000174"
       orientation="0,43.999999"
       id="guide4175" />
    <sodipodi:guide
       position="46,2.0000174"
       orientation="-44,0"
       id="guide4177" />
    <sodipodi:guide
       position="46,46.000017"
       orientation="0,-43.999999"
       id="guide4179" />
    <sodipodi:guide
       position="3,45.000017"
       orientation="42,0"
       id="guide4183" />
    <sodipodi:guide
       position="45,3.0000174"
       orientation="-42,0"
       id="guide4187" />
    <sodipodi:guide
       position="45,45.000017"
       orientation="0,-42"
       id="guide4189" />
    <sodipodi:guide
       position="3,45.000017"
       orientation="42,0"
       id="guide4193" />
    <sodipodi:guide
       position="3,3.0000174"
       orientation="0,42"
       id="guide4195" />
    <sodipodi:guide
       position="45,3.0000174"
       orientation="-42,0"
       id="guide4197" />
    <sodipodi:guide
       position="45,45.000017"
       orientation="0,-42"
       id="guide4199" />
    <sodipodi:guide
       position="3,10.000017"
       orientation="7,0"
       id="guide4203" />
    <sodipodi:guide
       position="3,3.0000174"
       orientation="0,42"
       id="guide4205" />
    <sodipodi:guide
       position="45,3.0000174"
       orientation="-7,0"
       id="guide4207" />
    <sodipodi:guide
       position="45,10.000017"
       orientation="0,-42"
       id="guide4209" />
  </sodipodi:namedview>
  <metadata
     id="metadata4235">
    <rdf:RDF>
      <cc:Work
         rdf:about="">
        <dc:format>image/svg+xml</dc:format>
        <dc:type
           rdf:resource="http://purl.org/dc/dcmitype/StillImage" />
        <dc:title />
      </cc:Work>
    </rdf:RDF>
  </metadata>
  <g
     inkscape:groupmode="layer"
     id="layer3"
     inkscape:label="Fake blur shadow"
     style="display:inline"
     sodipodi:insensitive="true">
    <path
       style="opacity:0.06000001;fill:#000000;fill-opacity:1;stroke:none"
       d="M 10,1 C 5.014,1 1,5.014 1,10 l 0,28 c 0,4.986 4.014,9 9,9 l 28,0 c 4.986,0 9,-4.014 9,-9 L 47,10 C 47,5.014 42.986,1 38,1 L 10,1 z m 0.5,0.5 27,0 c 4.986,0 9,4.014 9,9 l 0,27 c 0,4.986 -4.014,9 -9,9 l -27,0 c -4.986,0 -9,-4.014 -9,-9 l 0,-27 c 0,-4.986 4.014,-9 9,-9 z"
       id="rect3829"
       inkscape:connector-curvature="0" />
    <path
       style="opacity:0.12000002;fill:#000000;fill-opacity:1;stroke:none"
       d="m 10.5,1.5 c -4.986,0 -9,4.014 -9,9 l 0,27 c 0,4.986 4.014,9 9,9 l 27,0 c 4.986,0 9,-4.014 9,-9 l 0,-27 c 0,-4.986 -4.014,-9 -9,-9 l -27,0 z m 0.25,0.25 26.5,0 c 4.986,0 9,4.014 9,9 l 0,26.5 c 0,4.986 -4.014,9 -9,9 l -26.5,0 c -4.986,0 -9,-4.014 -9,-9 l 0,-26.5 c 0,-4.986 4.014,-9 9,-9 z"
       id="rect3827"
       inkscape:connector-curvature="0" />
    <rect
       style="opacity:0.23999999;fill:#000000;fill-opacity:1;stroke:none"
       id="rect3038-4"
       width="44.5"
       height="44.5"
       x="1.75"
       y="1.75"
       ry="9"
       rx="9" />
  </g>
  <g
     inkscape:groupmode="layer"
     id="layer6"
     inkscape:label="Blob"
     style="display:inline"
     sodipodi:insensitive="true">
    <path
       style="opacity:0.3;fill:url(#radialGradient4274);fill-opacity:1;stroke:none"
       d="M 1.03125,39 C 1.5192036,43.518898 5.3471961,47 10,47 l 28,0 c 4.652804,0 8.480796,-3.481102 8.96875,-8 l -45.9375,0 z"
       id="rect4241"
       inkscape:connector-curvature="0" />
  </g>
  <g
     inkscape:groupmode="layer"
     id="layer2"
     inkscape:label="Baseplate"
     style="display:inline">
    <rect
       style="fill:#f8f8f8;fill-opacity:1;stroke:none"
       id="rect3038"
       width="44"
       height="44"
       x="2"
       y="1.9999826"
       ry="9"
       rx="9" />
  </g>
  <g
     inkscape:label="Symbol"
     inkscape:groupmode="layer"
     id="layer1"
     transform="translate(0,-1004.3622)"
     style="display:inline">
    <path
       style="fill:#a8d070;fill-opacity:1;fill-rule:nonzero;stroke:none"
       d="m 2,1020.3622 0,16 44,0 0,-16 z"
       id="path118"
       inkscape:connector-curvature="0"
       sodipodi:nodetypes="ccccc" />
    <path
       sodipodi:nodetypes="ccccc"
       inkscape:connector-curvature="0"
       id="path3989"
       d="m 9,1020.3622 0,16 2,0 0,-16 z"
       style="fill:#a8ca76;fill-opacity:1;fill-rule:nonzero;stroke:none" />
    <path
       style="fill:#a5c57a;fill-opacity:1;fill-rule:nonzero;stroke:none"
       d="m 8,1020.3622 0,16 1,0 0,-16 z"
       id="path3991"
       inkscape:connector-curvature="0"
       sodipodi:nodetypes="ccccc" />
    <path
       style="fill:#a8ca76;fill-opacity:1;fill-rule:nonzero;stroke:none"
       d="m 4,1020.3975 0,15.9647 2,0 0,-15.9647 z"
       id="path3987"
       inkscape:connector-curvature="0"
       sodipodi:nodetypes="ccccc" />
    <path
       sodipodi:nodetypes="ccccc"
       inkscape:connector-curvature="0"
       id="path3997"
       d="m 39,1020.3622 0,16 -2,0 0,-16 z"
       style="fill:#a8ca76;fill-opacity:1;fill-rule:nonzero;stroke:none" />
    <path
       id="path3934"
       d="m 24,1011.3622 c 8.838667,0 16,7.1666 16,16 0,8.8386 -7.161333,16 -16,16 -8.833333,0 -16,-7.1614 -16,-16 0,-8.8334 7.166667,-16 16,-16 m 0,0"
       inkscape:connector-curvature="0"
       style="fill:url(#radialGradient3164);fill-opacity:1;fill-rule:evenodd;stroke:none;opacity:0.5" />
    <path
       sodipodi:nodetypes="ccccc"
       inkscape:connector-curvature="0"
       id="path3985"
       d="m 3,1020.3622 0,16 1,0 0,-16 z"
       style="fill:#a5c57a;fill-opacity:1;fill-rule:nonzero;stroke:none" />
    <path
       style="fill:#a8ca76;fill-opacity:1;fill-rule:nonzero;stroke:none"
       d="m 44,1020.3622 0,16 -2,0 0,-16 z"
       id="path3993"
       inkscape:connector-curvature="0"
       sodipodi:nodetypes="ccccc" />
    <path
       sodipodi:nodetypes="ccccc"
       inkscape:connector-curvature="0"
       id="path3995"
       d="m 45,1020.3622 0,16 -1,0 0,-16 z"
       style="fill:#a5c57a;fill-opacity:1;fill-rule:nonzero;stroke:none" />
    <path
       style="fill:#a5c57a;fill-opacity:1;fill-rule:nonzero;stroke:none"
       d="m 40,1020.3622 0,16 -1,0 0,-16 z"
       id="path3999"
       inkscape:connector-curvature="0"
       sodipodi:nodetypes="ccccc" />
    <rect
       y="1035.3622"
       x="2"
       height="1"
       width="44"
       id="rect3930"
       style="opacity:0.1;fill:#000000;fill-opacity:1;stroke:none" />
    <rect
       style="opacity:0.1;fill:#000000;fill-opacity:1;stroke:none"
       id="rect3928"
       width="44"
       height="1"
       x="2"
       y="1020.3622" />
    <path
       style="fill:#f73f3f;fill-opacity:1;fill-rule:evenodd;stroke:none"
       inkscape:connector-curvature="0"
       d="m 10,1009.3622 0.006,0 c 1.653,0 2.994,1.3439 2.994,3.003 l 0,0 c 0,1.6547 -1.3425,2.997 -2.994,2.997 l -0.006,0 c -1.6575,0 -3,-1.3439 -3,-2.997 l 0,0 c 0,-1.6591 1.3425,-3.003 3,-3.003 m 0,0"
       id="path116" />
    <use
       height="1052.3622"
       width="744.09448"
       y="0"
       x="0"
       style="fill:url(#radialGradient3253);fill-rule:evenodd;stroke:none"
       xlink:href="#SVGCleanerId_0"
       id="use122"
       transform="translate(0,1004.3622)" />
    <use
       height="1052.3622"
       width="744.09448"
       y="0"
       x="0"
       style="fill:url(#radialGradient3255);fill-rule:evenodd;stroke:none"
       xlink:href="#SVGCleanerId_0"
       id="use126"
       transform="translate(0,1004.3622)" />
    <path
       style="fill:#fefefe;fill-opacity:1;fill-rule:evenodd;stroke:none"
       inkscape:connector-curvature="0"
       d="m 24,1014.3622 c 7.181417,0 13,5.8229 13,13 0,7.1814 -5.818583,13 -13,13 -7.177083,0 -13,-5.8186 -13,-13 0,-7.1771 5.822917,-13 13,-13 m 0,0"
       id="path128" />
    <path
       style="fill:#ad9cc6;fill-opacity:1;fill-rule:evenodd;stroke:none"
       inkscape:connector-curvature="0"
       d="m 24.0022,1016.3622 c 6.073215,0 10.9978,4.9257 10.9978,11.0022 0,6.0732 -4.925685,10.9978 -10.9978,10.9978 -6.076515,0 -11.0022,-4.9257 -11.0022,-10.9978 0,-6.0765 4.925685,-11.0022 11.0022,-11.0022 m 0,0"
       id="path130" />
    <path
       style="fill:#8973a2;fill-opacity:1;fill-rule:evenodd;stroke:none"
       inkscape:connector-curvature="0"
       d="m 24,1018.3622 c 4.97025,0 9,4.0298 9,9 0,4.9702 -4.02975,9 -9,9 -4.97475,0 -9,-4.0298 -9,-9 0,-4.9747 4.02975,-9 9,-9 m 0,0"
       id="path132" />
    <path
       style="fill:#766391;fill-opacity:1;fill-rule:evenodd;stroke:none"
       inkscape:connector-curvature="0"
       d="m 24,1021.3622 0.004,0 c 3.312986,0 5.995975,2.6889 5.995975,6.0021 l 0,0 c 0,3.314 -2.683988,5.9979 -5.995975,5.9979 l -0.004,0 c -3.312987,0 -5.999975,-2.6848 -5.999975,-5.9979 l 0,0 c 0,-3.3142 2.687989,-6.0021 5.999975,-6.0021 m 0,0"
       id="path134" />
    <path
       sodipodi:type="arc"
       style="opacity:0.3;fill:url(#radialGradient4024);fill-opacity:1;stroke:none"
       id="path4016"
       sodipodi:cx="30.5"
       sodipodi:cy="23.5"
       sodipodi:rx="1.5"
       sodipodi:ry="1.5"
       d="M 32,23.5 C 32,24.328427 31.328427,25 30.5,25 29.671573,25 29,24.328427 29,23.5 29,22.671573 29.671573,22 30.5,22 c 0.828427,0 1.5,0.671573 1.5,1.5 z"
       transform="matrix(1.3333333,0,0,1.3333333,-10.666666,996.02887)" />
    <path
       sodipodi:type="arc"
       style="opacity:0.2;fill:url(#radialGradient4012);fill-opacity:1;stroke:none"
       id="path4003"
       sodipodi:cx="17"
       sodipodi:cy="27"
       sodipodi:rx="2"
       sodipodi:ry="2"
       d="m 19,27 c 0,1.104569 -0.895431,2 -2,2 -1.104569,0 -2,-0.895431 -2,-2 0,-1.104569 0.895431,-2 2,-2 1.104569,0 2,0.895431 2,2 z"
       transform="translate(2,1003.3622)" />
    <path
       style="opacity:0.50000000000000000;fill:url(#radialGradient3970);fill-opacity:1;fill-rule:evenodd;stroke:none"
       inkscape:connector-curvature="0"
       d="m 24,1022.3622 0.0034,0 c 2.760821,0 4.996646,2.2407 4.996646,5.0016 l 0,0 c 0,2.7618 -2.236657,4.9984 -4.996646,4.9984 l -0.0034,0 c -2.760822,0 -4.999979,-2.2374 -4.999979,-4.9984 l 0,0 c 0,-2.7617 2.239991,-5.0016 4.999979,-5.0016 m 0,0"
       id="path3954" />
    <path
       id="path3932"
       d="m 24,1024.3622 0.002,0 c 1.6565,0 2.998,1.3444 2.998,3.001 l 0,0 c 0,1.657 -1.342,2.999 -2.998,2.999 l -0.002,0 c -1.6565,0 -3,-1.3424 -3,-2.999 l 0,0 c 0,-1.6571 1.344,-3.001 3,-3.001 m 0,0"
       inkscape:connector-curvature="0"
       style="fill:#4f4264;fill-opacity:1;fill-rule:evenodd;stroke:none" />
    <path
       style="fill:#d8d2e2;fill-opacity:1;fill-rule:evenodd;stroke:none;opacity:0.3"
       inkscape:connector-curvature="0"
       d="m 24,1026.3622 6.67e-4,0 c 0.552166,0 0.999333,0.4481 0.999333,1.0003 l 0,0 c 0,0.5524 -0.447333,0.9997 -0.999333,0.9997 l -6.67e-4,0 c -0.552167,0 -1,-0.4475 -1,-0.9997 l 0,0 c 0,-0.5523 0.448,-1.0003 1,-1.0003 m 0,0"
       id="path4001" />
    <path
       style="opacity:0.1;fill:#000000;fill-opacity:1;stroke:none"
       d="M 31 12.0625 L 16.78125 33.8125 C 18.844919 35.190706 21.333095 36 24 36 C 31.181417 36 37 30.1814 37 23 C 37 18.401228 34.605662 14.373687 31 12.0625 z "
       id="path3946"
       transform="translate(0,1004.3622)" />
    <path
       sodipodi:type="arc"
       style="fill:#ad9cc6;fill-opacity:1;stroke:none"
       id="path3983"
       sodipodi:cx="19.5"
       sodipodi:cy="18.5"
       sodipodi:rx="2.5"
       sodipodi:ry="3.5"
       d="M 22,18.5 C 22,20.432997 20.880712,22 19.5,22 18.119288,22 17,20.432997 17,18.5 17,16.567003 18.119288,15 19.5,15 c 1.380712,0 2.5,1.567003 2.5,3.5 z"
       transform="matrix(-0.49973763,-0.49973763,0.44619432,-0.44619432,19.739633,1038.611)" />
    <rect
       style="fill:url(#linearGradient4036);fill-opacity:1;stroke:none"
       id="rect4026"
       width="7"
       height="4.0000143"
       x="35"
       y="1010.3622" />
    <rect
       style="fill:#e6e6e6;fill-opacity:1;stroke:none"
       id="rect4028"
       width="5"
       height="2"
       x="36"
       y="1011.3622" />
  </g>
  <g
     inkscape:groupmode="layer"
     id="layer4"
     inkscape:label="Inset"
     sodipodi:insensitive="true"
     style="display:inline">
    <path
       style="opacity:0.15;fill:#000000;fill-opacity:1;stroke:none"
       d="m 2,34 0,3 c 0,4.986 4.014,9 9,9 l 26,0 c 4.986,0 9,-4.014 9,-9 l 0,-3 c 0,4.986 -4.014,9 -9,9 L 11,43 C 6.014,43 2,38.986 2,34 z"
       id="rect3038-42"
       inkscape:connector-curvature="0" />
  </g>
  <g
     inkscape:groupmode="layer"
     id="layer7"
     inkscape:label="Baseshape"
     sodipodi:insensitive="true"
     style="display:none">
    <rect
       rx="9"
       ry="9"
       y="2"
       x="2"
       height="44"
       width="44"
       id="rect4169"
       style="fill:#abe1ad;fill-opacity:1;stroke:none;display:inline" />
  </g>
</svg>
