<?xml version="1.0" encoding="UTF-8" standalone="no"?>
<!-- Created with Inkscape (http://www.inkscape.org/) -->

<svg
   xmlns:dc="http://purl.org/dc/elements/1.1/"
   xmlns:cc="http://creativecommons.org/ns#"
   xmlns:rdf="http://www.w3.org/1999/02/22-rdf-syntax-ns#"
   xmlns:svg="http://www.w3.org/2000/svg"
   xmlns="http://www.w3.org/2000/svg"
   xmlns:xlink="http://www.w3.org/1999/xlink"
   xmlns:sodipodi="http://sodipodi.sourceforge.net/DTD/sodipodi-0.dtd"
   xmlns:inkscape="http://www.inkscape.org/namespaces/inkscape"
   width="48"
   height="48"
   id="svg4230"
   version="1.1"
   inkscape:version="0.48.5 r10040"
   sodipodi:docname="ubuntu-softueren-centŭr.svg">
  <defs
     id="defs4232">
    <linearGradient
       id="linearGradient4135">
      <stop
         style="stop-color:#f7f7f7;stop-opacity:1;"
         offset="0"
         id="stop4137" />
      <stop
         style="stop-color:#eeeeee;stop-opacity:1;"
         offset="1"
         id="stop4139" />
    </linearGradient>
    <linearGradient
       inkscape:collect="always"
       id="linearGradient4127">
      <stop
         style="stop-color:#000000;stop-opacity:1;"
         offset="0"
         id="stop4129" />
      <stop
         style="stop-color:#000000;stop-opacity:0;"
         offset="1"
         id="stop4131" />
    </linearGradient>
    <linearGradient
       inkscape:collect="always"
       id="linearGradient4119">
      <stop
         style="stop-color:#ffffff;stop-opacity:1;"
         offset="0"
         id="stop4121" />
      <stop
         style="stop-color:#ffffff;stop-opacity:0;"
         offset="1"
         id="stop4123" />
    </linearGradient>
    <linearGradient
       inkscape:collect="always"
       id="linearGradient3928">
      <stop
         style="stop-color:#000000;stop-opacity:1;"
         offset="0"
         id="stop3931" />
      <stop
         style="stop-color:#000000;stop-opacity:0;"
         offset="1"
         id="stop3933" />
    </linearGradient>
    <linearGradient
       id="linearGradient3926">
      <stop
         id="stop3928"
         offset="0"
         style="stop-color:#000000;stop-opacity:1;" />
      <stop
         id="stop3930"
         offset="1"
         style="stop-color:#000000;stop-opacity:0;" />
    </linearGradient>
    <linearGradient
       id="linearGradient3914">
      <stop
         style="stop-color:#ffffff;stop-opacity:1;"
         offset="0"
         id="stop3916" />
      <stop
         style="stop-color:#ffffff;stop-opacity:0;"
         offset="1"
         id="stop3918" />
    </linearGradient>
    <linearGradient
       id="linearGradient4524">
      <stop
         style="stop-color:#dd4814;stop-opacity:1;"
         offset="0"
         id="stop4526" />
      <stop
         style="stop-color:#ff7c4f;stop-opacity:1;"
         offset="1"
         id="stop4528" />
    </linearGradient>
    <linearGradient
       id="linearGradient4512">
      <stop
         style="stop-color:#d9d2d1;stop-opacity:1;"
         offset="0"
         id="stop4514" />
      <stop
         style="stop-color:#fefcfc;stop-opacity:1;"
         offset="1"
         id="stop4516" />
    </linearGradient>
    <linearGradient
       id="linearGradient4243">
      <stop
         style="stop-color:#000000;stop-opacity:1;"
         offset="0"
         id="stop4245" />
      <stop
         style="stop-color:#000000;stop-opacity:0;"
         offset="1"
         id="stop4247" />
    </linearGradient>
    <linearGradient
       id="linearGradient4216">
      <stop
         style="stop-color:#a0c4e6;stop-opacity:1;"
         offset="0"
         id="stop4218" />
      <stop
         style="stop-color:#d0e2f1;stop-opacity:1;"
         offset="1"
         id="stop4220" />
    </linearGradient>
    <linearGradient
       id="linearGradient4208">
      <stop
         style="stop-color:#70a3d6;stop-opacity:1;"
         offset="0"
         id="stop4210" />
      <stop
         style="stop-color:#88b6e1;stop-opacity:1;"
         offset="1"
         id="stop4212" />
    </linearGradient>
    <linearGradient
       id="linearGradient4200">
      <stop
         style="stop-color:#427dbe;stop-opacity:1;"
         offset="0"
         id="stop4202" />
      <stop
         style="stop-color:#739bd1;stop-opacity:1;"
         offset="1"
         id="stop4204" />
    </linearGradient>
    <linearGradient
       id="linearGradient4192">
      <stop
         style="stop-color:#4970a4;stop-opacity:1;"
         offset="0"
         id="stop4194" />
      <stop
         style="stop-color:#6090c0;stop-opacity:1;"
         offset="1"
         id="stop4196" />
    </linearGradient>
    <radialGradient
       inkscape:collect="always"
       xlink:href="#linearGradient3688-166-749-5-9-1"
       id="radialGradient4351"
       gradientUnits="userSpaceOnUse"
       gradientTransform="matrix(2.3201711,0,0,0.39999996,28.617836,28.600002)"
       cx="4.9929786"
       cy="43.5"
       fx="4.9929786"
       fy="43.5"
       r="2.5" />
    <linearGradient
       id="linearGradient3688-166-749-5-9-1">
      <stop
         id="stop2883-0-2-9"
         style="stop-color:#181818;stop-opacity:1"
         offset="0" />
      <stop
         id="stop2885-5-3-8"
         style="stop-color:#181818;stop-opacity:0"
         offset="1" />
    </linearGradient>
    <linearGradient
       id="linearGradient3688-464-309-8-9-4">
      <stop
         id="stop2889-9-9-1"
         style="stop-color:#181818;stop-opacity:1"
         offset="0" />
      <stop
         id="stop2891-4-2-9"
         style="stop-color:#181818;stop-opacity:0"
         offset="1" />
    </linearGradient>
    <linearGradient
       id="linearGradient3702-501-757-0-4-0">
      <stop
         id="stop2895-0-2-1"
         style="stop-color:#181818;stop-opacity:0"
         offset="0" />
      <stop
         id="stop2897-2-8-2"
         style="stop-color:#181818;stop-opacity:1"
         offset="0.5" />
      <stop
         id="stop2899-6-1-6"
         style="stop-color:#181818;stop-opacity:0"
         offset="1" />
    </linearGradient>
    <linearGradient
       id="linearGradient3811-3">
      <stop
         style="stop-color:#000000;stop-opacity:1;"
         offset="0"
         id="stop3813-0" />
      <stop
         style="stop-color:#000000;stop-opacity:0;"
         offset="1"
         id="stop3815-0" />
    </linearGradient>
    <clipPath
       id="clipPath-887332295">
      <g
         id="g3945"
         transform="translate(0,-1004.3622)">
        <rect
           id="rect3947"
           fill="#1890d0"
           width="46"
           height="46"
           x="1"
           y="1005.36"
           rx="4" />
      </g>
    </clipPath>
    <clipPath
       id="clipPath-867792831">
      <g
         id="g3940"
         transform="translate(0,-1004.3622)">
        <rect
           id="rect3942"
           fill="#1890d0"
           width="46"
           height="46"
           x="1"
           y="1005.36"
           rx="4" />
      </g>
    </clipPath>
    <linearGradient
       gradientTransform="translate(-47.997785,0.00221467)"
       gradientUnits="userSpaceOnUse"
       x2="47"
       x1="1"
       id="linearGradient3764">
      <stop
         id="stop3935"
         stop-opacity="1"
         stop-color="#e4e4e4" />
      <stop
         id="stop3937"
         stop-opacity="1"
         stop-color="#eee"
         offset="1" />
    </linearGradient>
    <radialGradient
       inkscape:collect="always"
       xlink:href="#linearGradient4243"
       id="radialGradient4274"
       gradientUnits="userSpaceOnUse"
       gradientTransform="matrix(1.0434782,0,0,0.1956518,-1.0434797,35.184809)"
       cx="24.000001"
       cy="42.499991"
       fx="24.000001"
       fy="42.499991"
       r="23" />
    <linearGradient
       inkscape:collect="always"
       xlink:href="#linearGradient4524"
       id="linearGradient4530"
       x1="24"
       y1="46"
       x2="24"
       y2="2"
       gradientUnits="userSpaceOnUse" />
    <linearGradient
       inkscape:collect="always"
       xlink:href="#linearGradient4512"
       id="linearGradient4554"
       gradientUnits="userSpaceOnUse"
       x1="12.5"
       y1="28.000042"
       x2="12.5"
       y2="17.000042" />
    <linearGradient
       inkscape:collect="always"
       xlink:href="#linearGradient4524-8"
       id="linearGradient4530-8"
       x1="24"
       y1="46"
       x2="24"
       y2="2"
       gradientUnits="userSpaceOnUse" />
    <linearGradient
       id="linearGradient4524-8">
      <stop
         style="stop-color:#dfe1e1;stop-opacity:1;"
         offset="0"
         id="stop4526-5" />
      <stop
         style="stop-color:#dfe1e1;stop-opacity:1;"
         offset="1"
         id="stop4528-5" />
    </linearGradient>
    <linearGradient
       gradientTransform="translate(0,1004.3622)"
       y2="2"
       x2="24"
       y1="46"
       x1="24"
       gradientUnits="userSpaceOnUse"
       id="linearGradient3894"
       xlink:href="#linearGradient4524-8"
       inkscape:collect="always" />
    <linearGradient
       inkscape:collect="always"
       xlink:href="#linearGradient3914"
       id="linearGradient3920"
       x1="24"
       y1="24"
       x2="24"
       y2="46"
       gradientUnits="userSpaceOnUse"
       gradientTransform="translate(0,1004.3622)" />
    <linearGradient
       inkscape:collect="always"
       xlink:href="#linearGradient3926"
       id="linearGradient3924"
       gradientUnits="userSpaceOnUse"
       x1="24"
       y1="24"
       x2="24"
       y2="46"
       gradientTransform="matrix(1,0,0,-1,0,1052.3622)" />
    <linearGradient
       inkscape:collect="always"
       xlink:href="#linearGradient3926-8"
       id="linearGradient3924-2"
       gradientUnits="userSpaceOnUse"
       x1="24"
       y1="24"
       x2="24"
       y2="46"
       gradientTransform="matrix(1,0,0,-1,0,1052.3622)" />
    <linearGradient
       id="linearGradient3926-8">
      <stop
         id="stop3928-8"
         offset="0"
         style="stop-color:#000000;stop-opacity:1;" />
      <stop
         id="stop3930-1"
         offset="1"
         style="stop-color:#000000;stop-opacity:0;" />
    </linearGradient>
    <linearGradient
       id="linearGradient3914-0">
      <stop
         style="stop-color:#ffffff;stop-opacity:1;"
         offset="0"
         id="stop3916-8" />
      <stop
         style="stop-color:#ffffff;stop-opacity:0;"
         offset="1"
         id="stop3918-8" />
    </linearGradient>
    <linearGradient
       inkscape:collect="always"
       xlink:href="#linearGradient4524-4"
       id="linearGradient4530-4"
       x1="24"
       y1="46"
       x2="24"
       y2="2"
       gradientUnits="userSpaceOnUse" />
    <linearGradient
       id="linearGradient4524-4">
      <stop
         style="stop-color:#e2e8e8;stop-opacity:1;"
         offset="0"
         id="stop4526-4" />
      <stop
         style="stop-color:#ebeeee;stop-opacity:1;"
         offset="1"
         id="stop4528-51" />
    </linearGradient>
    <linearGradient
       inkscape:collect="always"
       xlink:href="#linearGradient3928"
       id="linearGradient3935"
       x1="22"
       y1="14"
       x2="22"
       y2="16"
       gradientUnits="userSpaceOnUse"
       gradientTransform="matrix(1,0,0,1.5,0,997.3622)" />
    <linearGradient
       inkscape:collect="always"
       xlink:href="#linearGradient4524-0"
       id="linearGradient4530-6"
       x1="24"
       y1="46"
       x2="24"
       y2="2"
       gradientUnits="userSpaceOnUse" />
    <linearGradient
       id="linearGradient4524-0">
      <stop
         style="stop-color:#3a90f1;stop-opacity:1;"
         offset="0"
         id="stop4526-9" />
      <stop
         style="stop-color:#7ebaff;stop-opacity:1;"
         offset="1"
         id="stop4528-1" />
    </linearGradient>
    <linearGradient
       id="linearGradient4524-0-2">
      <stop
         style="stop-color:#3a90f1;stop-opacity:1;"
         offset="0"
         id="stop4526-9-0" />
      <stop
         style="stop-color:#7ebaff;stop-opacity:1;"
         offset="1"
         id="stop4528-1-7" />
    </linearGradient>
    <linearGradient
       inkscape:collect="always"
       xlink:href="#linearGradient4119"
       id="linearGradient4125"
       x1="24"
       y1="30"
       x2="24"
       y2="46"
       gradientUnits="userSpaceOnUse" />
    <linearGradient
       inkscape:collect="always"
       xlink:href="#linearGradient4127"
       id="linearGradient4133"
       x1="24"
       y1="30"
       x2="24"
       y2="14"
       gradientUnits="userSpaceOnUse" />
    <linearGradient
       inkscape:collect="always"
       xlink:href="#linearGradient4135"
       id="linearGradient4141"
       x1="24"
       y1="2"
       x2="24"
       y2="14"
       gradientUnits="userSpaceOnUse" />
  </defs>
  <sodipodi:namedview
     id="base"
     pagecolor="#ffffff"
     bordercolor="#666666"
     borderopacity="1.0"
     inkscape:pageopacity="0.0"
     inkscape:pageshadow="2"
     inkscape:zoom="16.24"
     inkscape:cx="13.923797"
     inkscape:cy="12.627085"
     inkscape:document-units="px"
     inkscape:current-layer="layer1"
     showgrid="true"
     inkscape:showpageshadow="false"
     borderlayer="true"
     inkscape:window-width="1920"
     inkscape:window-height="1052"
     inkscape:window-x="0"
     inkscape:window-y="28"
     inkscape:window-maximized="1"
     showguides="false"
     inkscape:guide-bbox="true">
    <inkscape:grid
       type="xygrid"
       id="grid4162" />
    <sodipodi:guide
       position="1.0000013,47.000017"
       orientation="46,0"
       id="guide4163" />
    <sodipodi:guide
       position="1.0000013,1.0000174"
       orientation="0,45.999999"
       id="guide4165" />
    <sodipodi:guide
       position="47,1.0000174"
       orientation="-46,0"
       id="guide4167" />
    <sodipodi:guide
       position="47,47.000017"
       orientation="0,-45.999999"
       id="guide4169" />
    <sodipodi:guide
       position="2.0000007,46.000017"
       orientation="44,0"
       id="guide4173" />
    <sodipodi:guide
       position="2.0000007,2.0000174"
       orientation="0,43.999999"
       id="guide4175" />
    <sodipodi:guide
       position="46,2.0000174"
       orientation="-44,0"
       id="guide4177" />
    <sodipodi:guide
       position="46,46.000017"
       orientation="0,-43.999999"
       id="guide4179" />
    <sodipodi:guide
       position="3,45.000017"
       orientation="42,0"
       id="guide4183" />
    <sodipodi:guide
       position="45,3.0000174"
       orientation="-42,0"
       id="guide4187" />
    <sodipodi:guide
       position="45,45.000017"
       orientation="0,-42"
       id="guide4189" />
    <sodipodi:guide
       position="3,45.000017"
       orientation="42,0"
       id="guide4193" />
    <sodipodi:guide
       position="3,3.0000174"
       orientation="0,42"
       id="guide4195" />
    <sodipodi:guide
       position="45,3.0000174"
       orientation="-42,0"
       id="guide4197" />
    <sodipodi:guide
       position="45,45.000017"
       orientation="0,-42"
       id="guide4199" />
    <sodipodi:guide
       position="3,10.000017"
       orientation="7,0"
       id="guide4203" />
    <sodipodi:guide
       position="3,3.0000174"
       orientation="0,42"
       id="guide4205" />
    <sodipodi:guide
       position="45,3.0000174"
       orientation="-7,0"
       id="guide4207" />
    <sodipodi:guide
       position="45,10.000017"
       orientation="0,-42"
       id="guide4209" />
  </sodipodi:namedview>
  <metadata
     id="metadata4235">
    <rdf:RDF>
      <cc:Work
         rdf:about="">
        <dc:format>image/svg+xml</dc:format>
        <dc:type
           rdf:resource="http://purl.org/dc/dcmitype/StillImage" />
        <dc:title />
      </cc:Work>
    </rdf:RDF>
  </metadata>
  <g
     inkscape:groupmode="layer"
     id="layer3"
     inkscape:label="Fake blur shadow"
     style="display:inline"
     sodipodi:insensitive="true">
    <path
       style="opacity:0.06000001;fill:#000000;fill-opacity:1;stroke:none"
       d="M 10,1 C 5.014,1 1,5.014 1,10 l 0,28 c 0,4.986 4.014,9 9,9 l 28,0 c 4.986,0 9,-4.014 9,-9 L 47,10 C 47,5.014 42.986,1 38,1 L 10,1 z m 0.5,0.5 27,0 c 4.986,0 9,4.014 9,9 l 0,27 c 0,4.986 -4.014,9 -9,9 l -27,0 c -4.986,0 -9,-4.014 -9,-9 l 0,-27 c 0,-4.986 4.014,-9 9,-9 z"
       id="rect3829"
       inkscape:connector-curvature="0" />
    <path
       style="opacity:0.12000002;fill:#000000;fill-opacity:1;stroke:none"
       d="m 10.5,1.5 c -4.986,0 -9,4.014 -9,9 l 0,27 c 0,4.986 4.014,9 9,9 l 27,0 c 4.986,0 9,-4.014 9,-9 l 0,-27 c 0,-4.986 -4.014,-9 -9,-9 l -27,0 z m 0.25,0.25 26.5,0 c 4.986,0 9,4.014 9,9 l 0,26.5 c 0,4.986 -4.014,9 -9,9 l -26.5,0 c -4.986,0 -9,-4.014 -9,-9 l 0,-26.5 c 0,-4.986 4.014,-9 9,-9 z"
       id="rect3827"
       inkscape:connector-curvature="0" />
    <rect
       style="opacity:0.23999999;fill:#000000;fill-opacity:1;stroke:none"
       id="rect3038-4"
       width="44.5"
       height="44.5"
       x="1.75"
       y="1.75"
       ry="9"
       rx="9" />
  </g>
  <g
     inkscape:groupmode="layer"
     id="layer6"
     inkscape:label="Blob"
     style="display:inline"
     sodipodi:insensitive="true">
    <path
       style="opacity:0.3;fill:url(#radialGradient4274);fill-opacity:1;stroke:none"
       d="M 1.03125,39 C 1.5192036,43.518898 5.3471961,47 10,47 l 28,0 c 4.652804,0 8.480796,-3.481102 8.96875,-8 l -45.9375,0 z"
       id="rect4241"
       inkscape:connector-curvature="0" />
  </g>
  <g
     inkscape:groupmode="layer"
     id="layer2"
     inkscape:label="Baseplate"
     style="display:inline">
    <rect
       style="fill:url(#linearGradient4530);fill-opacity:1;stroke:none"
       id="rect3038"
       width="44"
       height="44"
       x="2"
       y="1.9999826"
       ry="9"
       rx="9" />
  </g>
  <g
     inkscape:label="Symbol"
     inkscape:groupmode="layer"
     id="layer1"
     transform="translate(0,-1004.3622)"
     style="display:inline">
    <path
       id="path3120"
       d="m 24,1024.3622 c -5.522868,0 -10,4.477 -10,10 0,5.5228 4.477132,10 10,10 5.522869,0 10,-4.4773 10,-10 0,-5.523 -4.477131,-10 -10,-10 z m 3.5,3 c 0.828427,0 1.5,0.6716 1.5,1.5 0,0.8284 -0.671572,1.5 -1.5,1.5 -0.828427,0 -1.5,-0.6716 -1.5,-1.5 0,-0.8284 0.671572,-1.5 1.5,-1.5 z m -3.5,1 c 0.463036,0 0.911846,0.058 1.34375,0.1563 0,1.3807 1.119288,2.5 2.5,2.5 0.345178,0 0.669654,-0.061 0.96875,-0.1875 0.0034,0 0.02789,-0 0.03125,0 0.534388,0.7357 0.906986,1.5919 1.0625,2.5312 l -2.0625,0 c -0.443285,-1.7269 -1.974776,-3 -3.84375,-3 -0.588404,0 -1.154071,0.1175 -1.65625,0.3438 l -1,-1.7188 c 0.799673,-0.3934 1.701659,-0.625 2.65625,-0.625 z m -3.5,1.1563 1,1.7187 c -0.918167,0.7317 -1.5,1.8544 -1.5,3.125 0,1.3529 0.665318,2.5268 1.6875,3.25 l -1,1.75 c -1.167579,-0.775 -2.037139,-1.9635 -2.4375,-3.3437 0.747238,-0.4323 1.25,-1.231 1.25,-2.1563 0,-0.7962 -0.357584,-1.5109 -0.9375,-1.9687 0.438101,-0.9507 1.097168,-1.7668 1.9375,-2.375 z m -3,2.8437 c 0.828427,0 1.5,0.6716 1.5,1.5 0,0.8284 -0.671573,1.5 -1.5,1.5 -0.828428,0 -1.5,-0.6716 -1.5,-1.5 0,-0.8284 0.671572,-1.5 1.5,-1.5 z m 10.34375,3 2.0625,0 c -0.154073,0.9306 -0.53607,1.7687 -1.0625,2.5 -0.33084,-0.1616 -0.700778,-0.25 -1.09375,-0.25 -1.380712,0 -2.5,1.1193 -2.5,2.5 0,0.043 -0.0021,0.083 0,0.125 -0.402266,0.084 -0.821404,0.125 -1.25,0.125 -0.865723,0 -1.695515,-0.1728 -2.4375,-0.5 l 1.03125,-1.7812 c 0.438811,0.1646 0.908536,0.2812 1.40625,0.2812 1.868974,0 3.400465,-1.2731 3.84375,-3 z m -0.34375,3 c 0.828427,0 1.5,0.6716 1.5,1.5 0,0.8284 -0.671572,1.5 -1.5,1.5 -0.828427,0 -1.5,-0.6716 -1.5,-1.5 0,-0.8284 0.671572,-1.5 1.5,-1.5 z"
       style="fill:#000000;fill-opacity:1;display:inline;opacity:0.15"
       inkscape:connector-curvature="0" />
    <rect
       style="opacity:0.1;fill:url(#linearGradient3935);fill-opacity:1;stroke:none"
       id="rect3926"
       width="44"
       height="3"
       x="2"
       y="1018.3622" />
    <path
       style="opacity:1;fill:url(#linearGradient4141);fill-opacity:1;stroke:none"
       d="M 11 2 C 6.014 2 2 6.014 2 11 L 2 14 L 46 14 L 46 11 C 46 6.014 41.986 2 37 2 L 11 2 z "
       transform="translate(0,1004.3622)"
       id="rect3119" />
    <path
       transform="matrix(2.5,0,0,2.5,12.5,986.8622)"
       d="m 11,10 c 0,0.552285 -0.447715,1 -1,1 -0.5522847,0 -1,-0.447715 -1,-1 0,-0.5522847 0.4477153,-1 1,-1 0.552285,0 1,0.4477153 1,1 z"
       sodipodi:ry="1"
       sodipodi:rx="1"
       sodipodi:cy="10"
       sodipodi:cx="10"
       id="path3941"
       style="fill:#dfdfdf;fill-opacity:1;stroke:none"
       sodipodi:type="arc" />
    <path
       sodipodi:type="arc"
       style="fill:#dfdfdf;fill-opacity:1;stroke:none"
       id="path3937"
       sodipodi:cx="10"
       sodipodi:cy="10"
       sodipodi:rx="1"
       sodipodi:ry="1"
       d="m 11,10 c 0,0.552285 -0.447715,1 -1,1 -0.5522847,0 -1,-0.447715 -1,-1 0,-0.5522847 0.4477153,-1 1,-1 0.552285,0 1,0.4477153 1,1 z"
       transform="matrix(2.5,0,0,2.5,-14.5,986.8622)" />
    <path
       transform="matrix(1.5,0,0,1.5,-4.5,996.8622)"
       d="m 11,10 c 0,0.552285 -0.447715,1 -1,1 -0.5522847,0 -1,-0.447715 -1,-1 0,-0.5522847 0.4477153,-1 1,-1 0.552285,0 1,0.4477153 1,1 z"
       sodipodi:ry="1"
       sodipodi:rx="1"
       sodipodi:cy="10"
       sodipodi:cx="10"
       id="path3939"
       style="fill:#636363;fill-opacity:1;stroke:none"
       sodipodi:type="arc" />
    <path
       style="fill:#f7f7f7;display:inline;fill-opacity:1"
       d="M 24 19 C 18.477132 19 14 23.477 14 29 C 14 34.5228 18.477132 39 24 39 C 29.522869 39 34 34.5227 34 29 C 34 23.477 29.522869 19 24 19 z M 27.5 22 C 28.328427 22 29 22.671572 29 23.5 C 29 24.328428 28.328428 25 27.5 25 C 26.671573 25 26 24.328428 26 23.5 C 26 22.671572 26.671572 22 27.5 22 z M 24 23 C 24.463036 23 24.911846 23.05808 25.34375 23.15625 C 25.34375 24.536962 26.463038 25.65625 27.84375 25.65625 C 28.188928 25.65625 28.513404 25.595257 28.8125 25.46875 C 28.815873 25.473366 28.84039 25.464124 28.84375 25.46875 C 29.378138 26.204548 29.750736 27.060683 29.90625 28 L 27.84375 28 C 27.400465 26.273103 25.868974 25 24 25 C 23.411596 25 22.845929 25.117503 22.34375 25.34375 L 21.34375 23.625 C 22.143423 23.231637 23.045409 23 24 23 z M 20.5 24.15625 L 21.5 25.875 C 20.581833 26.606696 20 27.729392 20 29 C 20 30.352857 20.665318 31.526785 21.6875 32.25 L 20.6875 34 C 19.519921 33.225038 18.650361 32.036467 18.25 30.65625 C 18.997238 30.223985 19.5 29.425342 19.5 28.5 C 19.5 27.703789 19.142416 26.98908 18.5625 26.53125 C 19.000601 25.580569 19.659668 24.764484 20.5 24.15625 z M 17.5 27 C 18.328427 27 19 27.671572 19 28.5 C 19 29.328428 18.328427 30 17.5 30 C 16.671572 30 16 29.328428 16 28.5 C 16 27.671572 16.671572 27 17.5 27 z M 27.84375 30 L 29.90625 30 C 29.752177 30.930614 29.37018 31.768675 28.84375 32.5 C 28.51291 32.338441 28.142972 32.25 27.75 32.25 C 26.369288 32.25 25.25 33.369288 25.25 34.75 C 25.25 34.792483 25.247906 34.833037 25.25 34.875 C 24.847734 34.959456 24.428596 35 24 35 C 23.134277 35 22.304485 34.82721 21.5625 34.5 L 22.59375 32.71875 C 23.032561 32.88342 23.502286 33 24 33 C 25.868974 33 27.400465 31.726897 27.84375 30 z M 27.5 33 C 28.328427 33 29 33.671572 29 34.5 C 29 35.328428 28.328428 36 27.5 36 C 26.671573 36 26 35.328428 26 34.5 C 26 33.671572 26.671572 33 27.5 33 z "
       transform="translate(0,1004.3622)"
       id="path3104" />
    <path
       sodipodi:nodetypes="csccscc"
       inkscape:connector-curvature="0"
       id="path4016"
       d="m 10,1012.3622 c 0,7 5,15 14,15 9,0 14,-8 14,-15 l -1,0 c 0,6 -4,14 -13,14 -9,0 -13,-8 -13,-14 z"
       style="opacity:0.1;color:#000000;fill:#000000;fill-opacity:1;fill-rule:nonzero;stroke:none;stroke-width:1.81785619000000009;marker:none;visibility:visible;display:inline;overflow:visible;enable-background:accumulate" />
    <path
       sodipodi:type="arc"
       style="fill:#636363;fill-opacity:1;stroke:none"
       id="path3943"
       sodipodi:cx="10"
       sodipodi:cy="10"
       sodipodi:rx="1"
       sodipodi:ry="1"
       d="m 11,10 c 0,0.552285 -0.447715,1 -1,1 -0.5522847,0 -1,-0.447715 -1,-1 0,-0.5522847 0.4477153,-1 1,-1 0.552285,0 1,0.4477153 1,1 z"
       transform="matrix(1.5,0,0,1.5,22.5,996.8622)" />
    <path
       style="color:#000000;fill:#ffffff;fill-opacity:1;fill-rule:nonzero;stroke:none;stroke-width:1.81785619;marker:none;visibility:visible;display:inline;overflow:visible;enable-background:accumulate"
       d="m 10,1011.3622 c 0,7 5,15 14,15 9,0 14,-8 14,-15 l -1,0 c 0,6 -4,14 -13,14 -9,0 -13,-8 -13,-14 z"
       id="path3796"
       inkscape:connector-curvature="0"
       sodipodi:nodetypes="csccscc" />
  </g>
  <g
     inkscape:groupmode="layer"
     id="layer5"
     inkscape:label="Fold"
     sodipodi:insensitive="true">
    <rect
       style="opacity:0.05;fill:url(#linearGradient4133);fill-opacity:1;stroke:none"
       id="rect4114"
       width="44"
       height="15"
       x="2"
       y="14" />
    <path
       style="opacity:0.05;fill:url(#linearGradient4125);fill-opacity:1;stroke:none;display:inline"
       d="m 2,29 0,8 c 0,4.986 4.014,9 9,9 l 26,0 c 4.986,0 9,-4.014 9,-9 l 0,-8 z"
       id="rect4023"
       inkscape:connector-curvature="0"
       sodipodi:nodetypes="csssscc" />
  </g>
  <g
     inkscape:groupmode="layer"
     id="layer4"
     inkscape:label="Inset"
     sodipodi:insensitive="true"
     style="display:inline">
    <path
       style="opacity:0.15;fill:#000000;fill-opacity:1;stroke:none"
       d="m 2,34 0,3 c 0,4.986 4.014,9 9,9 l 26,0 c 4.986,0 9,-4.014 9,-9 l 0,-3 c 0,4.986 -4.014,9 -9,9 L 11,43 C 6.014,43 2,38.986 2,34 z"
       id="rect3038-42"
       inkscape:connector-curvature="0" />
  </g>
  <g
     inkscape:groupmode="layer"
     id="layer7"
     inkscape:label="Baseshape"
     sodipodi:insensitive="true"
     style="display:none">
    <rect
       rx="9"
       ry="9"
       y="2"
       x="2"
       height="44"
       width="44"
       id="rect4169"
       style="fill:#abe1ad;fill-opacity:1;stroke:none;display:inline" />
  </g>
</svg>
