<?xml version="1.0" encoding="UTF-8" standalone="no"?>
<!-- Created with Inkscape (http://www.inkscape.org/) -->

<svg
   xmlns:dc="http://purl.org/dc/elements/1.1/"
   xmlns:cc="http://creativecommons.org/ns#"
   xmlns:rdf="http://www.w3.org/1999/02/22-rdf-syntax-ns#"
   xmlns:svg="http://www.w3.org/2000/svg"
   xmlns="http://www.w3.org/2000/svg"
   xmlns:xlink="http://www.w3.org/1999/xlink"
   xmlns:sodipodi="http://sodipodi.sourceforge.net/DTD/sodipodi-0.dtd"
   xmlns:inkscape="http://www.inkscape.org/namespaces/inkscape"
   width="48"
   height="48"
   id="svg4230"
   version="1.1"
   inkscape:version="0.91pre2 r"
   sodipodi:docname="system-monitor.svg"
   inkscape:export-filename="/home/uri/Descargas/system-monitor.png"
   inkscape:export-xdpi="480"
   inkscape:export-ydpi="480">
  <defs
     id="defs4232">
    <linearGradient
       inkscape:collect="always"
       id="linearGradient4201">
      <stop
         style="stop-color:#ccf0e8;stop-opacity:1;"
         offset="0"
         id="stop4203" />
      <stop
         style="stop-color:#ccf0e8;stop-opacity:0;"
         offset="1"
         id="stop4205" />
    </linearGradient>
    <linearGradient
       inkscape:collect="always"
       id="linearGradient4441">
      <stop
         style="stop-color:#ffffff;stop-opacity:0"
         offset="0"
         id="stop4443" />
      <stop
         style="stop-color:#ffffff;stop-opacity:0.23529412"
         offset="1"
         id="stop4445" />
    </linearGradient>
    <linearGradient
       inkscape:collect="always"
       id="linearGradient4339">
      <stop
         style="stop-color:#ffffff;stop-opacity:1;"
         offset="0"
         id="stop4341" />
      <stop
         style="stop-color:#ffffff;stop-opacity:0;"
         offset="1"
         id="stop4343" />
    </linearGradient>
    <linearGradient
       inkscape:collect="always"
       id="linearGradient4295">
      <stop
         style="stop-color:#ffffff;stop-opacity:0"
         offset="0"
         id="stop4297" />
      <stop
         style="stop-color:#ffffff;stop-opacity:1"
         offset="1"
         id="stop4299" />
    </linearGradient>
    <linearGradient
       id="linearGradient5019">
      <stop
         id="stop5021"
         offset="0"
         style="stop-color:#1dbd9b;stop-opacity:1" />
      <stop
         id="stop5023"
         offset="1"
         style="stop-color:#20be9d;stop-opacity:1" />
    </linearGradient>
    <linearGradient
       id="linearGradient4243">
      <stop
         style="stop-color:#000000;stop-opacity:1;"
         offset="0"
         id="stop4245" />
      <stop
         style="stop-color:#000000;stop-opacity:0;"
         offset="1"
         id="stop4247" />
    </linearGradient>
    <radialGradient
       inkscape:collect="always"
       xlink:href="#linearGradient4243"
       id="radialGradient4274"
       gradientUnits="userSpaceOnUse"
       gradientTransform="matrix(1.0434782,0,0,0.1956518,-1.0434797,35.184809)"
       cx="24.000001"
       cy="42.499991"
       fx="24.000001"
       fy="42.499991"
       r="23" />
    <linearGradient
       inkscape:collect="always"
       xlink:href="#linearGradient5019"
       id="linearGradient4530"
       x1="24.176777"
       y1="46"
       x2="24"
       y2="2"
       gradientUnits="userSpaceOnUse" />
    <linearGradient
       inkscape:collect="always"
       xlink:href="#linearGradient4295"
       id="linearGradient4301"
       x1="20"
       y1="33"
       x2="20"
       y2="2"
       gradientUnits="userSpaceOnUse" />
    <linearGradient
       inkscape:collect="always"
       xlink:href="#linearGradient4295"
       id="linearGradient4323"
       gradientUnits="userSpaceOnUse"
       x1="34"
       y1="37.999985"
       x2="49"
       y2="8" />
    <linearGradient
       inkscape:collect="always"
       xlink:href="#linearGradient4295"
       id="linearGradient4327"
       gradientUnits="userSpaceOnUse"
       x1="2"
       y1="37"
       x2="-9"
       y2="22" />
    <linearGradient
       inkscape:collect="always"
       xlink:href="#linearGradient4339"
       id="linearGradient4353"
       gradientUnits="userSpaceOnUse"
       gradientTransform="translate(4.8029529e-8,0.3)"
       x1="32"
       y1="11"
       x2="32"
       y2="34" />
    <linearGradient
       inkscape:collect="always"
       xlink:href="#linearGradient4441"
       id="linearGradient4447"
       x1="24.375002"
       y1="37.999985"
       x2="24.375002"
       y2="1.999983"
       gradientUnits="userSpaceOnUse" />
    <radialGradient
       inkscape:collect="always"
       xlink:href="#linearGradient4201"
       id="radialGradient4207"
       cx="19.999996"
       cy="1024.362"
       fx="19.999996"
       fy="1024.362"
       r="1.9999995"
       gradientUnits="userSpaceOnUse"
       gradientTransform="matrix(1.5000001,0,0,1.5000001,-10,-511.68112)" />
    <radialGradient
       inkscape:collect="always"
       xlink:href="#linearGradient4201"
       id="radialGradient4207-9"
       cx="19.999996"
       cy="1024.3621"
       fx="19.999996"
       fy="1024.3621"
       r="1.9999995"
       gradientUnits="userSpaceOnUse"
       gradientTransform="matrix(1.5000001,0,0,1.5000001,2,-499.68108)" />
  </defs>
  <sodipodi:namedview
     id="base"
     pagecolor="#ffffff"
     bordercolor="#666666"
     borderopacity="1.0"
     inkscape:pageopacity="0.0"
     inkscape:pageshadow="2"
     inkscape:zoom="16"
     inkscape:cx="26.944249"
     inkscape:cy="22.587995"
     inkscape:document-units="px"
     inkscape:current-layer="layer1"
     showgrid="true"
     inkscape:showpageshadow="false"
     borderlayer="true"
     inkscape:window-width="1366"
     inkscape:window-height="672"
     inkscape:window-x="-4"
     inkscape:window-y="25"
     inkscape:window-maximized="1"
     showguides="true"
     inkscape:guide-bbox="true">
    <inkscape:grid
       type="xygrid"
       id="grid4162" />
    <sodipodi:guide
       position="1.0000013,47.000017"
       orientation="46,0"
       id="guide4163" />
    <sodipodi:guide
       position="1.0000013,1.0000174"
       orientation="0,45.999999"
       id="guide4165" />
    <sodipodi:guide
       position="47,1.0000174"
       orientation="-46,0"
       id="guide4167" />
    <sodipodi:guide
       position="47,47.000017"
       orientation="0,-45.999999"
       id="guide4169" />
    <sodipodi:guide
       position="2,20"
       orientation="44,0"
       id="guide4173" />
    <sodipodi:guide
       position="2.0000007,2.0000174"
       orientation="0,43.999999"
       id="guide4175" />
    <sodipodi:guide
       position="46,2.0000174"
       orientation="-44,0"
       id="guide4177" />
    <sodipodi:guide
       position="46,46.000017"
       orientation="0,-43.999999"
       id="guide4179" />
    <sodipodi:guide
       position="3,45.000017"
       orientation="42,0"
       id="guide4183" />
    <sodipodi:guide
       position="45,3.0000174"
       orientation="-42,0"
       id="guide4187" />
    <sodipodi:guide
       position="45,45.000017"
       orientation="0,-42"
       id="guide4189" />
    <sodipodi:guide
       position="3,45.000017"
       orientation="42,0"
       id="guide4193" />
    <sodipodi:guide
       position="3,3.0000174"
       orientation="0,42"
       id="guide4195" />
    <sodipodi:guide
       position="45,3.0000174"
       orientation="-42,0"
       id="guide4197" />
    <sodipodi:guide
       position="45,45.000017"
       orientation="0,-42"
       id="guide4199" />
    <sodipodi:guide
       position="3,10.000017"
       orientation="7,0"
       id="guide4203" />
    <sodipodi:guide
       position="3,3.0000174"
       orientation="0,42"
       id="guide4205" />
    <sodipodi:guide
       position="45,3.0000174"
       orientation="-7,0"
       id="guide4207" />
    <sodipodi:guide
       position="45,10.000017"
       orientation="0,-42"
       id="guide4209" />
  </sodipodi:namedview>
  <metadata
     id="metadata4235">
    <rdf:RDF>
      <cc:Work
         rdf:about="">
        <dc:format>image/svg+xml</dc:format>
        <dc:type
           rdf:resource="http://purl.org/dc/dcmitype/StillImage" />
        <dc:title />
      </cc:Work>
    </rdf:RDF>
  </metadata>
  <g
     inkscape:groupmode="layer"
     id="layer3"
     inkscape:label="Fake blur shadow"
     style="display:inline"
     sodipodi:insensitive="true">
    <path
       style="opacity:0.06000001;fill:#000000;fill-opacity:1;stroke:none"
       d="M 10,1 C 5.014,1 1,5.014 1,10 l 0,28 c 0,4.986 4.014,9 9,9 l 28,0 c 4.986,0 9,-4.014 9,-9 L 47,10 C 47,5.014 42.986,1 38,1 L 10,1 z m 0.5,0.5 27,0 c 4.986,0 9,4.014 9,9 l 0,27 c 0,4.986 -4.014,9 -9,9 l -27,0 c -4.986,0 -9,-4.014 -9,-9 l 0,-27 c 0,-4.986 4.014,-9 9,-9 z"
       id="rect3829"
       inkscape:connector-curvature="0" />
    <path
       style="opacity:0.12000002;fill:#000000;fill-opacity:1;stroke:none"
       d="m 10.5,1.5 c -4.986,0 -9,4.014 -9,9 l 0,27 c 0,4.986 4.014,9 9,9 l 27,0 c 4.986,0 9,-4.014 9,-9 l 0,-27 c 0,-4.986 -4.014,-9 -9,-9 l -27,0 z m 0.25,0.25 26.5,0 c 4.986,0 9,4.014 9,9 l 0,26.5 c 0,4.986 -4.014,9 -9,9 l -26.5,0 c -4.986,0 -9,-4.014 -9,-9 l 0,-26.5 c 0,-4.986 4.014,-9 9,-9 z"
       id="rect3827"
       inkscape:connector-curvature="0" />
    <rect
       style="opacity:0.23999999;fill:#000000;fill-opacity:1;stroke:none"
       id="rect3038-4"
       width="44.5"
       height="44.5"
       x="1.75"
       y="1.75"
       ry="9"
       rx="9" />
  </g>
  <g
     inkscape:groupmode="layer"
     id="layer6"
     inkscape:label="Blob"
     style="display:inline"
     sodipodi:insensitive="true">
    <path
       style="opacity:0.3;fill:url(#radialGradient4274);fill-opacity:1;stroke:none"
       d="M 1.03125,39 C 1.5192036,43.518898 5.3471961,47 10,47 l 28,0 c 4.652804,0 8.480796,-3.481102 8.96875,-8 l -45.9375,0 z"
       id="rect4241"
       inkscape:connector-curvature="0" />
  </g>
  <g
     inkscape:groupmode="layer"
     id="layer2"
     inkscape:label="Baseplate"
     style="display:inline">
    <rect
       style="fill:url(#linearGradient4530);fill-opacity:1;stroke:none"
       id="rect3038"
       width="44"
       height="44"
       x="2"
       y="1.9999826"
       ry="9"
       rx="9" />
  </g>
  <g
     inkscape:label="Symbol"
     inkscape:groupmode="layer"
     id="layer1"
     transform="translate(0,-1004.3622)"
     style="display:inline">
    <path
       style="opacity:1;fill:url(#linearGradient4447);fill-opacity:1;stroke:none;stroke-width:0.5;stroke-miterlimit:4;stroke-dasharray:none;stroke-opacity:1"
       d="M 11.900391 2 L 11.900391 3.9003906 L 8.0996094 3.9003906 L 8.0996094 2.4824219 C 8.0325707 2.5051226 7.9667003 2.5304656 7.9003906 2.5546875 L 7.9003906 3.9003906 L 5.4707031 3.9003906 C 5.3853061 3.9668924 5.2977217 4.0301258 5.2148438 4.0996094 L 7.9003906 4.0996094 L 7.9003906 7.9003906 L 4.0996094 7.9003906 L 4.0996094 5.2148438 C 4.0301258 5.2977217 3.9668924 5.3853061 3.9003906 5.4707031 L 3.9003906 7.9003906 L 2.5546875 7.9003906 C 2.5304656 7.9667003 2.5051226 8.0325707 2.4824219 8.0996094 L 3.9003906 8.0996094 L 3.9003906 11.900391 L 2 11.900391 L 2 12.099609 L 3.9003906 12.099609 L 3.9003906 15.900391 L 2 15.900391 L 2 16.099609 L 3.9003906 16.099609 L 3.9003906 19.900391 L 2 19.900391 L 2 20.099609 L 3.9003906 20.099609 L 3.9003906 23.900391 L 2 23.900391 L 2 24.099609 L 3.9003906 24.099609 L 3.9003906 27.900391 L 2 27.900391 L 2 28.099609 L 3.9003906 28.099609 L 3.9003906 31.900391 L 2 31.900391 L 2 32.099609 L 3.9003906 32.099609 L 3.9003906 35.900391 L 2 35.900391 L 2 36.099609 L 3.9003906 36.099609 L 3.9003906 39.900391 L 2.4824219 39.900391 C 2.5051226 39.967429 2.5304656 40.0333 2.5546875 40.099609 L 3.9003906 40.099609 L 3.9003906 42.529297 C 3.9668924 42.614694 4.0301258 42.702278 4.0996094 42.785156 L 4.0996094 40.099609 L 7.9003906 40.099609 L 7.9003906 43.900391 L 5.2148438 43.900391 C 5.2977217 43.969874 5.3853061 44.033108 5.4707031 44.099609 L 7.9003906 44.099609 L 7.9003906 45.445312 C 7.9667003 45.469534 8.0325707 45.494877 8.0996094 45.517578 L 8.0996094 44.099609 L 11.900391 44.099609 L 11.900391 46 L 12.099609 46 L 12.099609 44.099609 L 15.900391 44.099609 L 15.900391 46 L 16.099609 46 L 16.099609 44.099609 L 19.900391 44.099609 L 19.900391 46 L 20.099609 46 L 20.099609 44.099609 L 23.900391 44.099609 L 23.900391 46 L 24.099609 46 L 24.099609 44.099609 L 27.900391 44.099609 L 27.900391 46 L 28.099609 46 L 28.099609 44.099609 L 31.900391 44.099609 L 31.900391 46 L 32.099609 46 L 32.099609 44.099609 L 35.900391 44.099609 L 35.900391 46 L 36.099609 46 L 36.099609 44.099609 L 39.900391 44.099609 L 39.900391 45.517578 C 39.967429 45.494877 40.0333 45.469534 40.099609 45.445312 L 40.099609 44.099609 L 42.529297 44.099609 C 42.614694 44.033108 42.702278 43.969874 42.785156 43.900391 L 40.099609 43.900391 L 40.099609 40.099609 L 43.900391 40.099609 L 43.900391 42.785156 C 43.969874 42.702278 44.033108 42.614694 44.099609 42.529297 L 44.099609 40.099609 L 45.445312 40.099609 C 45.469534 40.0333 45.494877 39.967429 45.517578 39.900391 L 44.099609 39.900391 L 44.099609 36.099609 L 46 36.099609 L 46 35.900391 L 44.099609 35.900391 L 44.099609 32.099609 L 46 32.099609 L 46 31.900391 L 44.099609 31.900391 L 44.099609 28.099609 L 46 28.099609 L 46 27.900391 L 44.099609 27.900391 L 44.099609 24.099609 L 46 24.099609 L 46 23.900391 L 44.099609 23.900391 L 44.099609 20.099609 L 46 20.099609 L 46 19.900391 L 44.099609 19.900391 L 44.099609 16.099609 L 46 16.099609 L 46 15.900391 L 44.099609 15.900391 L 44.099609 12.099609 L 46 12.099609 L 46 11.900391 L 44.099609 11.900391 L 44.099609 8.0996094 L 45.517578 8.0996094 C 45.494877 8.0325707 45.469534 7.9667003 45.445312 7.9003906 L 44.099609 7.9003906 L 44.099609 5.4707031 C 44.033108 5.3853061 43.969874 5.2977217 43.900391 5.2148438 L 43.900391 7.9003906 L 40.099609 7.9003906 L 40.099609 4.0996094 L 42.785156 4.0996094 C 42.702278 4.0301258 42.614694 3.9668924 42.529297 3.9003906 L 40.099609 3.9003906 L 40.099609 2.5546875 C 40.0333 2.5304656 39.967429 2.5051226 39.900391 2.4824219 L 39.900391 3.9003906 L 36.099609 3.9003906 L 36.099609 2 L 35.900391 2 L 35.900391 3.9003906 L 32.099609 3.9003906 L 32.099609 2 L 31.900391 2 L 31.900391 3.9003906 L 28.099609 3.9003906 L 28.099609 2 L 27.900391 2 L 27.900391 3.9003906 L 24.099609 3.9003906 L 24.099609 2 L 23.900391 2 L 23.900391 3.9003906 L 20.099609 3.9003906 L 20.099609 2 L 19.900391 2 L 19.900391 3.9003906 L 16.099609 3.9003906 L 16.099609 2 L 15.900391 2 L 15.900391 3.9003906 L 12.099609 3.9003906 L 12.099609 2 L 11.900391 2 z M 8.0996094 4.0996094 L 11.900391 4.0996094 L 11.900391 7.9003906 L 8.0996094 7.9003906 L 8.0996094 4.0996094 z M 12.099609 4.0996094 L 15.900391 4.0996094 L 15.900391 7.9003906 L 12.099609 7.9003906 L 12.099609 4.0996094 z M 16.099609 4.0996094 L 19.900391 4.0996094 L 19.900391 7.9003906 L 16.099609 7.9003906 L 16.099609 4.0996094 z M 20.099609 4.0996094 L 23.900391 4.0996094 L 23.900391 7.9003906 L 20.099609 7.9003906 L 20.099609 4.0996094 z M 24.099609 4.0996094 L 27.900391 4.0996094 L 27.900391 7.9003906 L 24.099609 7.9003906 L 24.099609 4.0996094 z M 28.099609 4.0996094 L 31.900391 4.0996094 L 31.900391 7.9003906 L 28.099609 7.9003906 L 28.099609 4.0996094 z M 32.099609 4.0996094 L 35.900391 4.0996094 L 35.900391 7.9003906 L 32.099609 7.9003906 L 32.099609 4.0996094 z M 36.099609 4.0996094 L 39.900391 4.0996094 L 39.900391 7.9003906 L 36.099609 7.9003906 L 36.099609 4.0996094 z M 4.0996094 8.0996094 L 7.9003906 8.0996094 L 7.9003906 11.900391 L 4.0996094 11.900391 L 4.0996094 8.0996094 z M 8.0996094 8.0996094 L 11.900391 8.0996094 L 11.900391 11.900391 L 8.0996094 11.900391 L 8.0996094 8.0996094 z M 12.099609 8.0996094 L 15.900391 8.0996094 L 15.900391 11.900391 L 12.099609 11.900391 L 12.099609 8.0996094 z M 16.099609 8.0996094 L 19.900391 8.0996094 L 19.900391 11.900391 L 16.099609 11.900391 L 16.099609 8.0996094 z M 20.099609 8.0996094 L 23.900391 8.0996094 L 23.900391 11.900391 L 20.099609 11.900391 L 20.099609 8.0996094 z M 24.099609 8.0996094 L 27.900391 8.0996094 L 27.900391 11.900391 L 24.099609 11.900391 L 24.099609 8.0996094 z M 28.099609 8.0996094 L 31.900391 8.0996094 L 31.900391 11.900391 L 28.099609 11.900391 L 28.099609 8.0996094 z M 32.099609 8.0996094 L 35.900391 8.0996094 L 35.900391 11.900391 L 32.099609 11.900391 L 32.099609 8.0996094 z M 36.099609 8.0996094 L 39.900391 8.0996094 L 39.900391 11.900391 L 36.099609 11.900391 L 36.099609 8.0996094 z M 40.099609 8.0996094 L 43.900391 8.0996094 L 43.900391 11.900391 L 40.099609 11.900391 L 40.099609 8.0996094 z M 4.0996094 12.099609 L 7.9003906 12.099609 L 7.9003906 15.900391 L 4.0996094 15.900391 L 4.0996094 12.099609 z M 8.0996094 12.099609 L 11.900391 12.099609 L 11.900391 15.900391 L 8.0996094 15.900391 L 8.0996094 12.099609 z M 12.099609 12.099609 L 15.900391 12.099609 L 15.900391 15.900391 L 12.099609 15.900391 L 12.099609 12.099609 z M 16.099609 12.099609 L 19.900391 12.099609 L 19.900391 15.900391 L 16.099609 15.900391 L 16.099609 12.099609 z M 20.099609 12.099609 L 23.900391 12.099609 L 23.900391 15.900391 L 20.099609 15.900391 L 20.099609 12.099609 z M 24.099609 12.099609 L 27.900391 12.099609 L 27.900391 15.900391 L 24.099609 15.900391 L 24.099609 12.099609 z M 28.099609 12.099609 L 31.900391 12.099609 L 31.900391 15.900391 L 28.099609 15.900391 L 28.099609 12.099609 z M 32.099609 12.099609 L 35.900391 12.099609 L 35.900391 15.900391 L 32.099609 15.900391 L 32.099609 12.099609 z M 36.099609 12.099609 L 39.900391 12.099609 L 39.900391 15.900391 L 36.099609 15.900391 L 36.099609 12.099609 z M 40.099609 12.099609 L 43.900391 12.099609 L 43.900391 15.900391 L 40.099609 15.900391 L 40.099609 12.099609 z M 4.0996094 16.099609 L 7.9003906 16.099609 L 7.9003906 19.900391 L 4.0996094 19.900391 L 4.0996094 16.099609 z M 8.0996094 16.099609 L 11.900391 16.099609 L 11.900391 19.900391 L 8.0996094 19.900391 L 8.0996094 16.099609 z M 12.099609 16.099609 L 15.900391 16.099609 L 15.900391 19.900391 L 12.099609 19.900391 L 12.099609 16.099609 z M 16.099609 16.099609 L 19.900391 16.099609 L 19.900391 19.900391 L 16.099609 19.900391 L 16.099609 16.099609 z M 20.099609 16.099609 L 23.900391 16.099609 L 23.900391 19.900391 L 20.099609 19.900391 L 20.099609 16.099609 z M 24.099609 16.099609 L 27.900391 16.099609 L 27.900391 19.900391 L 24.099609 19.900391 L 24.099609 16.099609 z M 28.099609 16.099609 L 31.900391 16.099609 L 31.900391 19.900391 L 28.099609 19.900391 L 28.099609 16.099609 z M 32.099609 16.099609 L 35.900391 16.099609 L 35.900391 19.900391 L 32.099609 19.900391 L 32.099609 16.099609 z M 36.099609 16.099609 L 39.900391 16.099609 L 39.900391 19.900391 L 36.099609 19.900391 L 36.099609 16.099609 z M 40.099609 16.099609 L 43.900391 16.099609 L 43.900391 19.900391 L 40.099609 19.900391 L 40.099609 16.099609 z M 4.0996094 20.099609 L 7.9003906 20.099609 L 7.9003906 23.900391 L 4.0996094 23.900391 L 4.0996094 20.099609 z M 8.0996094 20.099609 L 11.900391 20.099609 L 11.900391 23.900391 L 8.0996094 23.900391 L 8.0996094 20.099609 z M 12.099609 20.099609 L 15.900391 20.099609 L 15.900391 23.900391 L 12.099609 23.900391 L 12.099609 20.099609 z M 16.099609 20.099609 L 19.900391 20.099609 L 19.900391 23.900391 L 16.099609 23.900391 L 16.099609 20.099609 z M 20.099609 20.099609 L 23.900391 20.099609 L 23.900391 23.900391 L 20.099609 23.900391 L 20.099609 20.099609 z M 24.099609 20.099609 L 27.900391 20.099609 L 27.900391 23.900391 L 24.099609 23.900391 L 24.099609 20.099609 z M 28.099609 20.099609 L 31.900391 20.099609 L 31.900391 23.900391 L 28.099609 23.900391 L 28.099609 20.099609 z M 32.099609 20.099609 L 35.900391 20.099609 L 35.900391 23.900391 L 32.099609 23.900391 L 32.099609 20.099609 z M 36.099609 20.099609 L 39.900391 20.099609 L 39.900391 23.900391 L 36.099609 23.900391 L 36.099609 20.099609 z M 40.099609 20.099609 L 43.900391 20.099609 L 43.900391 23.900391 L 40.099609 23.900391 L 40.099609 20.099609 z M 4.0996094 24.099609 L 7.9003906 24.099609 L 7.9003906 27.900391 L 4.0996094 27.900391 L 4.0996094 24.099609 z M 8.0996094 24.099609 L 11.900391 24.099609 L 11.900391 27.900391 L 8.0996094 27.900391 L 8.0996094 24.099609 z M 12.099609 24.099609 L 15.900391 24.099609 L 15.900391 27.900391 L 12.099609 27.900391 L 12.099609 24.099609 z M 16.099609 24.099609 L 19.900391 24.099609 L 19.900391 27.900391 L 16.099609 27.900391 L 16.099609 24.099609 z M 20.099609 24.099609 L 23.900391 24.099609 L 23.900391 27.900391 L 20.099609 27.900391 L 20.099609 24.099609 z M 24.099609 24.099609 L 27.900391 24.099609 L 27.900391 27.900391 L 24.099609 27.900391 L 24.099609 24.099609 z M 28.099609 24.099609 L 31.900391 24.099609 L 31.900391 27.900391 L 28.099609 27.900391 L 28.099609 24.099609 z M 32.099609 24.099609 L 35.900391 24.099609 L 35.900391 27.900391 L 32.099609 27.900391 L 32.099609 24.099609 z M 36.099609 24.099609 L 39.900391 24.099609 L 39.900391 27.900391 L 36.099609 27.900391 L 36.099609 24.099609 z M 40.099609 24.099609 L 43.900391 24.099609 L 43.900391 27.900391 L 40.099609 27.900391 L 40.099609 24.099609 z M 4.0996094 28.099609 L 7.9003906 28.099609 L 7.9003906 31.900391 L 4.0996094 31.900391 L 4.0996094 28.099609 z M 8.0996094 28.099609 L 11.900391 28.099609 L 11.900391 31.900391 L 8.0996094 31.900391 L 8.0996094 28.099609 z M 12.099609 28.099609 L 15.900391 28.099609 L 15.900391 31.900391 L 12.099609 31.900391 L 12.099609 28.099609 z M 16.099609 28.099609 L 19.900391 28.099609 L 19.900391 31.900391 L 16.099609 31.900391 L 16.099609 28.099609 z M 20.099609 28.099609 L 23.900391 28.099609 L 23.900391 31.900391 L 20.099609 31.900391 L 20.099609 28.099609 z M 24.099609 28.099609 L 27.900391 28.099609 L 27.900391 31.900391 L 24.099609 31.900391 L 24.099609 28.099609 z M 28.099609 28.099609 L 31.900391 28.099609 L 31.900391 31.900391 L 28.099609 31.900391 L 28.099609 28.099609 z M 32.099609 28.099609 L 35.900391 28.099609 L 35.900391 31.900391 L 32.099609 31.900391 L 32.099609 28.099609 z M 36.099609 28.099609 L 39.900391 28.099609 L 39.900391 31.900391 L 36.099609 31.900391 L 36.099609 28.099609 z M 40.099609 28.099609 L 43.900391 28.099609 L 43.900391 31.900391 L 40.099609 31.900391 L 40.099609 28.099609 z M 4.0996094 32.099609 L 7.9003906 32.099609 L 7.9003906 35.900391 L 4.0996094 35.900391 L 4.0996094 32.099609 z M 8.0996094 32.099609 L 11.900391 32.099609 L 11.900391 35.900391 L 8.0996094 35.900391 L 8.0996094 32.099609 z M 12.099609 32.099609 L 15.900391 32.099609 L 15.900391 35.900391 L 12.099609 35.900391 L 12.099609 32.099609 z M 16.099609 32.099609 L 19.900391 32.099609 L 19.900391 35.900391 L 16.099609 35.900391 L 16.099609 32.099609 z M 20.099609 32.099609 L 23.900391 32.099609 L 23.900391 35.900391 L 20.099609 35.900391 L 20.099609 32.099609 z M 24.099609 32.099609 L 27.900391 32.099609 L 27.900391 35.900391 L 24.099609 35.900391 L 24.099609 32.099609 z M 28.099609 32.099609 L 31.900391 32.099609 L 31.900391 35.900391 L 28.099609 35.900391 L 28.099609 32.099609 z M 32.099609 32.099609 L 35.900391 32.099609 L 35.900391 35.900391 L 32.099609 35.900391 L 32.099609 32.099609 z M 36.099609 32.099609 L 39.900391 32.099609 L 39.900391 35.900391 L 36.099609 35.900391 L 36.099609 32.099609 z M 40.099609 32.099609 L 43.900391 32.099609 L 43.900391 35.900391 L 40.099609 35.900391 L 40.099609 32.099609 z M 4.0996094 36.099609 L 7.9003906 36.099609 L 7.9003906 39.900391 L 4.0996094 39.900391 L 4.0996094 36.099609 z M 8.0996094 36.099609 L 11.900391 36.099609 L 11.900391 39.900391 L 8.0996094 39.900391 L 8.0996094 36.099609 z M 12.099609 36.099609 L 15.900391 36.099609 L 15.900391 39.900391 L 12.099609 39.900391 L 12.099609 36.099609 z M 16.099609 36.099609 L 19.900391 36.099609 L 19.900391 39.900391 L 16.099609 39.900391 L 16.099609 36.099609 z M 20.099609 36.099609 L 23.900391 36.099609 L 23.900391 39.900391 L 20.099609 39.900391 L 20.099609 36.099609 z M 24.099609 36.099609 L 27.900391 36.099609 L 27.900391 39.900391 L 24.099609 39.900391 L 24.099609 36.099609 z M 28.099609 36.099609 L 31.900391 36.099609 L 31.900391 39.900391 L 28.099609 39.900391 L 28.099609 36.099609 z M 32.099609 36.099609 L 35.900391 36.099609 L 35.900391 39.900391 L 32.099609 39.900391 L 32.099609 36.099609 z M 36.099609 36.099609 L 39.900391 36.099609 L 39.900391 39.900391 L 36.099609 39.900391 L 36.099609 36.099609 z M 40.099609 36.099609 L 43.900391 36.099609 L 43.900391 39.900391 L 40.099609 39.900391 L 40.099609 36.099609 z M 8.0996094 40.099609 L 11.900391 40.099609 L 11.900391 43.900391 L 8.0996094 43.900391 L 8.0996094 40.099609 z M 12.099609 40.099609 L 15.900391 40.099609 L 15.900391 43.900391 L 12.099609 43.900391 L 12.099609 40.099609 z M 16.099609 40.099609 L 19.900391 40.099609 L 19.900391 43.900391 L 16.099609 43.900391 L 16.099609 40.099609 z M 20.099609 40.099609 L 23.900391 40.099609 L 23.900391 43.900391 L 20.099609 43.900391 L 20.099609 40.099609 z M 24.099609 40.099609 L 27.900391 40.099609 L 27.900391 43.900391 L 24.099609 43.900391 L 24.099609 40.099609 z M 28.099609 40.099609 L 31.900391 40.099609 L 31.900391 43.900391 L 28.099609 43.900391 L 28.099609 40.099609 z M 32.099609 40.099609 L 35.900391 40.099609 L 35.900391 43.900391 L 32.099609 43.900391 L 32.099609 40.099609 z M 36.099609 40.099609 L 39.900391 40.099609 L 39.900391 43.900391 L 36.099609 43.900391 L 36.099609 40.099609 z "
       id="rect4392"
       transform="translate(0,1004.3622)" />
    <path
       style="fill:url(#linearGradient4301);fill-opacity:1;fill-rule:evenodd;stroke:none;stroke-width:1px;stroke-linecap:butt;stroke-linejoin:miter;stroke-opacity:1"
       d="M 20.458984 20.3125 C 15.841319 19.841214 12.852931 30.558683 9 30 C 6.2688458 29.089615 5.1885877 25.710962 2 27.373047 L 2 37 C 2 41.986 6.014 46 11 46 L 37 46 C 37.313653 46 37.62082 45.984378 37.921875 45.953125 C 42.406553 45.487561 45.457708 41.640769 46 37 L 46 26.966797 C 43.638224 32.305626 29.889151 34.722877 28 30 C 24.993947 23.05218 22.557923 20.526721 20.458984 20.3125 z "
       id="path4289"
       transform="translate(0,1004.3622)" />
    <path
       style="fill:url(#linearGradient4323);fill-opacity:1;fill-rule:evenodd;stroke:none;stroke-width:1px;stroke-linecap:butt;stroke-linejoin:miter;stroke-opacity:1"
       d="M 20.458984 20.3125 C 15.841319 19.841214 12.852931 30.558683 9 30 C 6.2688458 29.089615 5.1885877 25.710962 2 27.373047 L 2 37 C 2 41.986 6.014 46 11 46 L 37 46 C 37.313653 46 37.62082 45.984378 37.921875 45.953125 C 42.406553 45.487561 45.457708 41.640769 46 37 L 46 26.966797 C 43.638224 32.305626 29.889151 34.722877 28 30 C 24.993947 23.05218 22.557923 20.526721 20.458984 20.3125 z "
       id="path4319"
       transform="translate(0,1004.3622)" />
    <path
       style="fill:url(#linearGradient4327);fill-opacity:1;fill-rule:evenodd;stroke:none;stroke-width:1px;stroke-linecap:butt;stroke-linejoin:miter;stroke-opacity:1"
       d="M 20.458984 20.3125 C 15.841319 19.841214 12.852931 30.558683 9 30 C 6.2688458 29.089615 5.1885877 25.710962 2 27.373047 L 2 37 C 2 41.986 6.014 46 11 46 L 37 46 C 37.313653 46 37.62082 45.984378 37.921875 45.953125 C 42.406553 45.487561 45.457708 41.640769 46 37 L 46 26.966797 C 43.638224 32.305626 29.889151 34.722877 28 30 C 24.993947 23.05218 22.557923 20.526721 20.458984 20.3125 z "
       id="path4325"
       transform="translate(0,1004.3622)" />
    <path
       sodipodi:nodetypes="cccssssccc"
       inkscape:connector-curvature="0"
       id="path4329"
       d="m 28,1034.3622 c -9.619369,-22.233 -13.395737,0.8126 -19,0 -2.7311542,-0.9104 -3.8114123,-4.289 -7,-2.627 l 0,9.627 c 0,4.986 4.014,9 9,9 l 26,0 c 4.986,0 8.421304,-4.0477 9,-9 l 1.3,-11.125 c -0.332595,-0.042 -0.665913,-0.01 -1,0.125 -1,6 -16.3,9 -18.3,4 z"
       style="fill:none;fill-opacity:1;fill-rule:evenodd;stroke:none;stroke-width:1px;stroke-linecap:butt;stroke-linejoin:miter;stroke-opacity:1" />
    <path
       style="fill:none;fill-opacity:1;fill-rule:evenodd;stroke:url(#linearGradient4353);stroke-width:0.5;stroke-linecap:butt;stroke-linejoin:miter;stroke-miterlimit:4;stroke-dasharray:none;stroke-opacity:1"
       d="M 20.458984 20.611328 C 15.841319 20.140036 12.852931 30.859444 9 30.300781 C 6.2688458 29.390381 5.1885877 26.011828 2 27.673828 L 2 37 C 2 41.986 6.014 46 11 46 L 37 46 C 39.719731 46 42.143424 44.79924 43.791016 42.904297 C 44.951744 41.399788 45.711283 39.506179 45.976562 37.447266 C 45.98386 37.297935 46 37.151203 46 37 L 46 27.267578 C 43.638224 32.606407 29.889151 35.023659 28 30.300781 C 24.993947 23.352969 22.557923 20.825552 20.458984 20.611328 z "
       transform="translate(0,1004.3622)"
       id="path4351" />
    <rect
       ry="2.9999995"
       y="1021.862"
       x="16.999996"
       height="5.999999"
       width="5.999999"
       id="rect4199"
       style="fill:url(#radialGradient4207);fill-opacity:1;fill-rule:evenodd;stroke:none;stroke-width:1px;stroke-linecap:butt;stroke-linejoin:miter;stroke-opacity:1" />
    <rect
       style="fill:#c3eee5;fill-opacity:1;fill-rule:evenodd;stroke:none;stroke-width:1px;stroke-linecap:butt;stroke-linejoin:miter;stroke-opacity:1"
       id="rect3395"
       width="3"
       height="3"
       x="18.499996"
       y="1023.362"
       ry="1.5" />
    <rect
       ry="0.99999952"
       y="1023.862"
       x="18.999996"
       height="1.999999"
       width="1.999999"
       id="rect3397"
       style="fill:#39c6a8;fill-opacity:1;fill-rule:evenodd;stroke:none;stroke-width:1px;stroke-linecap:butt;stroke-linejoin:miter;stroke-opacity:1" />
    <rect
       ry="1.5"
       y="1023.362"
       x="18.499996"
       height="3"
       width="3"
       id="rect4242"
       style="fill:#c3eee5;fill-opacity:1;fill-rule:evenodd;stroke:none;stroke-width:1px;stroke-linecap:butt;stroke-linejoin:miter;stroke-opacity:1" />
    <rect
       style="fill:#39c6a8;fill-opacity:1;fill-rule:evenodd;stroke:none;stroke-width:1px;stroke-linecap:butt;stroke-linejoin:miter;stroke-opacity:1"
       id="rect4244"
       width="1.999999"
       height="1.999999"
       x="18.999996"
       y="1023.862"
       ry="0.99999952" />
    <rect
       style="display:inline;fill:url(#radialGradient4207-9);fill-opacity:1;fill-rule:evenodd;stroke:none;stroke-width:1px;stroke-linecap:butt;stroke-linejoin:miter;stroke-opacity:1"
       id="rect4239-6"
       width="5.999999"
       height="5.999999"
       x="28.999996"
       y="1033.8621"
       ry="2.9999995" />
    <rect
       ry="1.5"
       y="1035.3621"
       x="30.499996"
       height="3"
       width="3"
       id="rect4242-6"
       style="display:inline;fill:#c3eee5;fill-opacity:1;fill-rule:evenodd;stroke:none;stroke-width:1px;stroke-linecap:butt;stroke-linejoin:miter;stroke-opacity:1" />
    <rect
       style="display:inline;fill:#39c6a8;fill-opacity:1;fill-rule:evenodd;stroke:none;stroke-width:1px;stroke-linecap:butt;stroke-linejoin:miter;stroke-opacity:1"
       id="rect4244-4"
       width="1.999999"
       height="1.999999"
       x="30.999996"
       y="1035.8621"
       ry="0.99999952" />
  </g>
  <g
     inkscape:groupmode="layer"
     id="layer4"
     inkscape:label="Inset"
     sodipodi:insensitive="true"
     style="display:inline">
    <path
       style="opacity:0.15;fill:#000000;fill-opacity:1;stroke:none"
       d="m 2,34 0,3 c 0,4.986 4.014,9 9,9 l 26,0 c 4.986,0 9,-4.014 9,-9 l 0,-3 c 0,4.986 -4.014,9 -9,9 L 11,43 C 6.014,43 2,38.986 2,34 z"
       id="rect3038-42"
       inkscape:connector-curvature="0" />
  </g>
  <g
     inkscape:groupmode="layer"
     id="layer7"
     inkscape:label="Baseshape"
     sodipodi:insensitive="true"
     style="display:none">
    <rect
       rx="9"
       ry="9"
       y="2"
       x="2"
       height="44"
       width="44"
       id="rect4169"
       style="fill:#abe1ad;fill-opacity:1;stroke:none;display:inline" />
  </g>
</svg>
