<?xml version="1.0" encoding="UTF-8" standalone="no"?>
<svg
   xmlns:dc="http://purl.org/dc/elements/1.1/"
   xmlns:cc="http://creativecommons.org/ns#"
   xmlns:rdf="http://www.w3.org/1999/02/22-rdf-syntax-ns#"
   xmlns:svg="http://www.w3.org/2000/svg"
   xmlns="http://www.w3.org/2000/svg"
   xmlns:sodipodi="http://sodipodi.sourceforge.net/DTD/sodipodi-0.dtd"
   xmlns:inkscape="http://www.inkscape.org/namespaces/inkscape"
   width="16"
   viewBox="0 0 16 16"
   height="16"
   id="svg2"
   version="1.1"
   inkscape:version="0.48.5 r10040"
   sodipodi:docname="audio-volume-low-symbolic.svg">
  <metadata
     id="metadata34">
    <rdf:RDF>
      <cc:Work
         rdf:about="">
        <dc:format>image/svg+xml</dc:format>
        <dc:type
           rdf:resource="http://purl.org/dc/dcmitype/StillImage" />
        <dc:title />
      </cc:Work>
    </rdf:RDF>
  </metadata>
  <sodipodi:namedview
     pagecolor="#ffffff"
     bordercolor="#666666"
     borderopacity="1"
     objecttolerance="10"
     gridtolerance="10"
     guidetolerance="10"
     inkscape:pageopacity="0"
     inkscape:pageshadow="2"
     inkscape:window-width="1920"
     inkscape:window-height="1052"
     id="namedview32"
     showgrid="true"
     inkscape:zoom="167.17093"
     inkscape:cx="8.1062073"
     inkscape:cy="3.5945731"
     inkscape:window-x="0"
     inkscape:window-y="28"
     inkscape:window-maximized="1"
     inkscape:current-layer="svg2">
    <inkscape:grid
       type="xygrid"
       id="grid3011" />
  </sodipodi:namedview>
  <defs
     id="defs4">
    <clipPath
       id="clipPath6">
      <rect
         x="26.999"
         y="221.5"
         width="1.876"
         height="4.874"
         fill="#bebebe"
         color="#bebebe"
         id="rect8" />
    </clipPath>
    <clipPath
       id="clipPath10">
      <rect
         x="26.966"
         y="221.33"
         width="2.898"
         height="5.216"
         fill="#bebebe"
         color="#bebebe"
         id="rect12" />
    </clipPath>
    <clipPath
       id="clipPath14">
      <rect
         x="26.85"
         y="220.75"
         width="3.825"
         height="6.375"
         fill="#bebebe"
         color="#bebebe"
         id="rect16" />
    </clipPath>
  </defs>
  <path
     inkscape:connector-curvature="0"
     id="rect11714-3"
     style="color:#000000;fill:#bebebe;opacity:0.55"
     d="M 16,8 C 16,5.1858 15,2.8283 13.4144,1 12,1 12,1 12,2.4807 13.2647,4 14,5.7001 14,8 14,10.2999 13.22047,12 12,13.5193 12,15 12,15 13.3813,15 14.8471,13.3596 16,10.8142 16,8 z"
     sodipodi:nodetypes="sccsccs" />
  <path
     inkscape:connector-curvature="0"
     id="rect11703-1"
     style="color:#000000;fill:#bebebe;opacity:0.55"
     d="m 13,8 c 0,-2.1666 -0.73878,-4.0198 -2,-5 -1,0 -1,0 -1,2 0.60652,0.78878 1,1.7589 1,3 0,1.2411 -0.39348,2.2194 -1,3 0,2 0,2 1,2 1.2229,-0.99478 2,-2.8734 2,-5 z"
     sodipodi:nodetypes="sccsccs" />
  <path
     inkscape:connector-curvature="0"
     id="path6297-6"
     style="text-indent:0;text-transform:none;block-progression:tb;color:#000000;fill:#bebebe"
     d="M 10,8 C 10,6.7427 9.68835,5.7843 9,5 H 8 V 8 8.375 11 h 1 c 0.67206,-0.8369 1,-1.7427 1,-3 z" />
  <path
     style="fill:#bebebe;fill-opacity:1;stroke:none"
     d="M 0,6 C 1,5 2,5 2.9874997,5 l 0,6 C 2,11 1,11 0,10 z"
     id="rect3034"
     inkscape:connector-curvature="0"
     sodipodi:nodetypes="ccccc" />
  <path
     style="fill:#bebebe;fill-opacity:1;stroke:none"
     d="M 5 2 C 3.8954305 2 3 4.6862915 3 8 C 3 11.313708 3.8954305 14 5 14 C 6.1045695 14 7 11.313708 7 8 C 7 4.6862915 6.1045695 2 5 2 z M 5 4 C 5.5522847 4 6 5.790861 6 8 C 6 10.209139 5.5522847 12 5 12 C 4.4477153 12 4 10.209139 4 8 C 4 5.790861 4.4477153 4 5 4 z "
     id="path3807" />
  <path
     sodipodi:type="arc"
     style="fill:#bebebe;fill-opacity:1;stroke:none"
     id="path3817"
     sodipodi:cx="4.5"
     sodipodi:cy="7.8727059"
     sodipodi:rx="1.5"
     sodipodi:ry="0.872706"
     d="m 6,7.8727059 a 1.5,0.872706 0 1 1 -3,0 1.5,0.872706 0 1 1 3,0 z"
     transform="matrix(1,0,0,2.2917225,-1,-10.042057)" />
  <path
     style="fill:#bebebe;fill-opacity:1;stroke:none"
     d="M 3.0625,3.84375 C 2.9110552,4.3166534 2.7810794,4.8672671 2.6875,5.46875 L 3,5 C 3,4.6148649 3.0053733,4.2288851 3.0625,3.84375 z m -0.375,6.6875 c 0.093579,0.601483 0.2235552,1.152097 0.375,1.625 C 3.0053733,11.771115 3,11.385135 3,11 z"
     id="path3869"
     inkscape:connector-curvature="0"
     sodipodi:nodetypes="cccccccc" />
  <path
     style="fill:#bebebe;fill-opacity:1;stroke:none"
     d="M 4,2 C 3,3 3,4 3,5 l -2,3 2,3 c 0,1 0,2 1,3 L 5,14 5,13 4,10 4,6 5,3 5,2 z"
     id="path3875"
     inkscape:connector-curvature="0"
     sodipodi:nodetypes="cccccccccccc" />
</svg>
