<?xml version="1.0" encoding="UTF-8" standalone="no"?>
<svg
   xmlns:dc="http://purl.org/dc/elements/1.1/"
   xmlns:cc="http://creativecommons.org/ns#"
   xmlns:rdf="http://www.w3.org/1999/02/22-rdf-syntax-ns#"
   xmlns:svg="http://www.w3.org/2000/svg"
   xmlns="http://www.w3.org/2000/svg"
   xmlns:sodipodi="http://sodipodi.sourceforge.net/DTD/sodipodi-0.dtd"
   xmlns:inkscape="http://www.inkscape.org/namespaces/inkscape"
   width="16"
   viewBox="0 0 16 16"
   height="16"
   id="svg2"
   version="1.1"
   inkscape:version="0.48.5 r10040"
   sodipodi:docname="audio-volume-high-symbolic.svg">
  <metadata
     id="metadata34">
    <rdf:RDF>
      <cc:Work
         rdf:about="">
        <dc:format>image/svg+xml</dc:format>
        <dc:type
           rdf:resource="http://purl.org/dc/dcmitype/StillImage" />
      </cc:Work>
    </rdf:RDF>
  </metadata>
  <sodipodi:namedview
     pagecolor="#ffffff"
     bordercolor="#666666"
     borderopacity="1"
     objecttolerance="10"
     gridtolerance="10"
     guidetolerance="10"
     inkscape:pageopacity="0"
     inkscape:pageshadow="2"
     inkscape:window-width="1920"
     inkscape:window-height="1052"
     id="namedview32"
     showgrid="true"
     inkscape:zoom="47.977308"
     inkscape:cx="6.6481022"
     inkscape:cy="7.0678145"
     inkscape:window-x="0"
     inkscape:window-y="28"
     inkscape:window-maximized="1"
     inkscape:current-layer="svg2">
    <inkscape:grid
       type="xygrid"
       id="grid3011" />
  </sodipodi:namedview>
  <defs
     id="defs4">
    <clipPath
       id="clipPath6">
      <rect
         x="26.999"
         y="221.5"
         width="1.876"
         height="4.874"
         fill="#bebebe"
         color="#bebebe"
         id="rect8" />
    </clipPath>
    <clipPath
       id="clipPath10">
      <rect
         x="26.966"
         y="221.33"
         width="2.898"
         height="5.216"
         fill="#bebebe"
         color="#bebebe"
         id="rect12" />
    </clipPath>
    <clipPath
       id="clipPath14">
      <rect
         x="26.85"
         y="220.75"
         width="3.825"
         height="6.375"
         fill="#bebebe"
         color="#bebebe"
         id="rect16" />
    </clipPath>
  </defs>
  <path
     inkscape:connector-curvature="0"
     id="rect11714-3"
     style="color:#000000;fill:#bebebe"
     d="M 16,8 C 16,5.1858 15,2.8283 13.4144,1 L 12,1 12,2.4807 C 13.2647,4 14,5.7001 14,8 c 0,2.2999 -0.77953,4 -2,5.5193 L 12,15 13.3813,15 C 14.8471,13.3596 16,10.8142 16,8 z"
     sodipodi:nodetypes="scccscccs" />
  <path
     inkscape:connector-curvature="0"
     id="rect11703-1"
     style="color:#000000;fill:#bebebe"
     d="M 13,8 C 13,5.8334 12.26122,3.9802 11,3 l -1,0 0,2 c 0.60652,0.78878 1,1.7589 1,3 0,1.2411 -0.39348,2.2194 -1,3 l 0,2 1,0 c 1.2229,-0.99478 2,-2.8734 2,-5 z"
     sodipodi:nodetypes="scccscccs" />
  <path
     inkscape:connector-curvature="0"
     id="path6297-6"
     style="text-indent:0;text-transform:none;block-progression:tb;color:#000000;fill:#bebebe"
     d="M 10,8 C 10,6.7427 9.68835,5.7843 9,5 H 8 V 8 8.375 11 h 1 c 0.67206,-0.8369 1,-1.7427 1,-3 z" />
  <path
     style="fill:#bebebe;fill-opacity:1;stroke:none"
     d="m 18,6 c 1,-1 2,-1 2.9875,-1 l 0,6 C 20,11 19,11 18,10 z"
     id="rect3034"
     inkscape:connector-curvature="0"
     sodipodi:nodetypes="ccccc" />
  <path
     style="fill:#bebebe;fill-opacity:1;stroke:none"
     d="m 23,2 c -1.104569,0 -2,2.6862915 -2,6 0,3.313708 0.895431,6 2,6 1.10457,0 2,-2.686292 2,-6 0,-3.3137085 -0.89543,-6 -2,-6 z m 0,2 c 0.552285,0 1,1.790861 1,4 0,2.209139 -0.447715,4 -1,4 -0.552285,0 -1,-1.790861 -1,-4 0,-2.209139 0.447715,-4 1,-4 z"
     id="path3807"
     inkscape:connector-curvature="0" />
  <path
     sodipodi:type="arc"
     style="fill:#bebebe;fill-opacity:1;stroke:none"
     id="path3817"
     sodipodi:cx="4.5"
     sodipodi:cy="7.8727059"
     sodipodi:rx="1.5"
     sodipodi:ry="0.872706"
     d="m 6,7.8727059 a 1.5,0.872706 0 1 1 -3,0 1.5,0.872706 0 1 1 3,0 z"
     transform="matrix(1,0,0,2.2917225,17,-10.042057)" />
  <path
     style="fill:#bebebe;fill-opacity:1;stroke:none"
     d="m 21.0625,3.84375 c -0.151445,0.4729034 -0.281421,1.0235171 -0.375,1.625 L 21,5 c 0,-0.3851351 0.0054,-0.7711149 0.0625,-1.15625 z m -0.375,6.6875 c 0.09358,0.601483 0.223555,1.152097 0.375,1.625 C 21.005373,11.771115 21,11.385135 21,11 z"
     id="path3869"
     inkscape:connector-curvature="0"
     sodipodi:nodetypes="cccccccc" />
  <path
     style="fill:#bebebe;fill-opacity:1;stroke:none"
     d="m 22,2 c -1,1 -1,2 -1,3 l -2,3 2,3 c 0,1 0,2 1,3 l 1,0 0,-1 -1,-3 0,-4 1,-3 0,-1 z"
     id="path3875"
     inkscape:connector-curvature="0"
     sodipodi:nodetypes="cccccccccccc" />
  <path
     inkscape:connector-curvature="0"
     d="m -5,1 0,1.46875 C -3.73534,3.98803 -3,5.70008 -3,8 c 0,2.29992 -0.77953,4.01197 -2,5.53125 L -5,15 -3.625,15 C -2.15925,13.35956 -1,10.81422 -1,8 -1,5.18578 -2.00818,2.82827 -3.59375,1 L -5,1 z m -5.53125,1 -3,3 L -16,5 l 0,6 2.46875,0 3.0625,3 L -10,14 -10,2 -10.53125,2 z M -7,3 -7,5 c 0.60652,0.78878 1,1.75887 1,3 0,1.24113 -0.39348,2.21938 -1,3 l 0,2 1,0 c 1.2229,-0.99478 2,-2.8734 2,-5 0,-2.16664 -0.73878,-4.01982 -2,-5 l -1,0 z m -2,2 0,3 0,0.375 0,2.625 1,0 C -7.32794,10.1631 -7,9.25733 -7,8 -7,6.74267 -7.31165,5.78429 -8,5 l -1,0 z"
     id="path5491-2"
     style="color:#bebebe;fill:#bebebe;fill-opacity:1;fill-rule:nonzero;stroke:none;stroke-width:1;marker:none;visibility:visible;display:inline;overflow:visible;enable-background:new" />
  <path
     style="fill:#bebebe;fill-opacity:1;stroke:none"
     d="M 0,5 3,5 6,2 7,2 7,14 6,14 3,11 0,11 z"
     id="path3005"
     inkscape:connector-curvature="0"
     sodipodi:nodetypes="ccccccccc" />
</svg>
