<?xml version="1.0" encoding="UTF-8" standalone="no"?>
<svg
   xmlns:dc="http://purl.org/dc/elements/1.1/"
   xmlns:cc="http://creativecommons.org/ns#"
   xmlns:rdf="http://www.w3.org/1999/02/22-rdf-syntax-ns#"
   xmlns:svg="http://www.w3.org/2000/svg"
   xmlns="http://www.w3.org/2000/svg"
   xmlns:sodipodi="http://sodipodi.sourceforge.net/DTD/sodipodi-0.dtd"
   xmlns:inkscape="http://www.inkscape.org/namespaces/inkscape"
   enable-background="new 0 0 32 32"
   height="16"
   id="Layer_1"
   version="1.1"
   viewBox="0 0 16 16"
   width="16"
   xml:space="preserve"
   inkscape:version="0.48.5 r10040"
   sodipodi:docname="potrebitel.svg"><metadata
     id="metadata12"><rdf:RDF><cc:Work
         rdf:about=""><dc:format>image/svg+xml</dc:format><dc:type
           rdf:resource="http://purl.org/dc/dcmitype/StillImage" /><dc:title /></cc:Work></rdf:RDF></metadata><defs
     id="defs10" /><sodipodi:namedview
     pagecolor="#ffffff"
     bordercolor="#666666"
     borderopacity="1"
     objecttolerance="10"
     gridtolerance="10"
     guidetolerance="10"
     inkscape:pageopacity="0"
     inkscape:pageshadow="2"
     inkscape:window-width="1920"
     inkscape:window-height="1023"
     id="namedview8"
     showgrid="true"
     inkscape:zoom="44.535201"
     inkscape:cx="3.8336077"
     inkscape:cy="5.4001233"
     inkscape:window-x="0"
     inkscape:window-y="28"
     inkscape:window-maximized="1"
     inkscape:current-layer="Layer_1"
     showguides="true"
     inkscape:guide-bbox="true"><inkscape:grid
       type="xygrid"
       id="grid2991"
       empspacing="5"
       visible="true"
       enabled="true"
       snapvisiblegridlinesonly="true" /></sodipodi:namedview><path
     style="fill:#bebebe;fill-opacity:1;stroke:none"
     d="M 2 8 C 0.892 8 0 8.892 0 10 L 0 14 C 0 15.108 0.892 16 2 16 L 6.40625 16 L 4 8 L 2 8 z M 12 8 L 9.59375 16 L 14 16 C 15.108 16 16 15.108 16 14 L 16 10 C 16 8.892 15.108 8 14 8 L 12 8 z M 13 12 L 14 12 C 14.554 12 15 12.223 15 12.5 C 15 12.777 14.554 13 14 13 L 13 13 C 12.446 13 12 12.777 12 12.5 C 12 12.223 12.446 12 13 12 z "
     id="rect2984" /><path
     sodipodi:type="arc"
     style="fill:#bebebe;fill-opacity:1;stroke:none"
     id="path2986"
     sodipodi:cx="-9.2482615"
     sodipodi:cy="5"
     sodipodi:rx="2.2482619"
     sodipodi:ry="3"
     d="m -6.9999995,5 a 2.2482619,3 0 1 1 -4.4965235,0 2.2482619,3 0 1 1 4.4965235,0 z"
     transform="matrix(1.3343641,0,0,1,19.921194,-2)" /><path
     style="fill:#bebebe;fill-opacity:1;stroke:none"
     d="m 8,8 -2,2 2,5 2,-5 z"
     id="path3759"
     inkscape:connector-curvature="0"
     sodipodi:nodetypes="ccccc" /></svg>