<?xml version="1.0" encoding="UTF-8" standalone="no"?>
<svg
   xmlns:dc="http://purl.org/dc/elements/1.1/"
   xmlns:cc="http://creativecommons.org/ns#"
   xmlns:rdf="http://www.w3.org/1999/02/22-rdf-syntax-ns#"
   xmlns:svg="http://www.w3.org/2000/svg"
   xmlns="http://www.w3.org/2000/svg"
   xmlns:sodipodi="http://sodipodi.sourceforge.net/DTD/sodipodi-0.dtd"
   xmlns:inkscape="http://www.inkscape.org/namespaces/inkscape"
   enable-background="new 0 0 32 32"
   height="16"
   id="Layer_1"
   version="1.1"
   viewBox="0 0 16 16"
   width="16"
   xml:space="preserve"
   inkscape:version="0.48.5 r10040"
   sodipodi:docname="lan-mreža.svg"><metadata
     id="metadata12"><rdf:RDF><cc:Work
         rdf:about=""><dc:format>image/svg+xml</dc:format><dc:type
           rdf:resource="http://purl.org/dc/dcmitype/StillImage" /><dc:title></dc:title></cc:Work></rdf:RDF></metadata><defs
     id="defs10" /><sodipodi:namedview
     pagecolor="#ffffff"
     bordercolor="#666666"
     borderopacity="1"
     objecttolerance="10"
     gridtolerance="10"
     guidetolerance="10"
     inkscape:pageopacity="0"
     inkscape:pageshadow="2"
     inkscape:window-width="1920"
     inkscape:window-height="1052"
     id="namedview8"
     showgrid="true"
     inkscape:zoom="50.401903"
     inkscape:cx="3.9052394"
     inkscape:cy="7.5827818"
     inkscape:window-x="0"
     inkscape:window-y="28"
     inkscape:window-maximized="1"
     inkscape:current-layer="Layer_1"
     showguides="true"
     inkscape:guide-bbox="true"><inkscape:grid
       type="xygrid"
       id="grid2991"
       empspacing="5"
       visible="true"
       enabled="true"
       snapvisiblegridlinesonly="true" /></sodipodi:namedview><path
     style="fill:#bebebe;fill-opacity:1;stroke:none"
     d="M 2 0 C 0.892 0 0 0.892 0 2 L 0 8 C 0 9.108 0.892 10 2 10 L 14 10 C 15.108 10 16 9.108 16 8 L 16 2 C 16 0.892 15.108 0 14 0 L 2 0 z M 4 2 C 4.554 2 5 2.446 5 3 L 5 4 C 5 4.554 4.554 5 4 5 C 3.446 5 3 4.554 3 4 L 3 3 C 3 2.446 3.446 2 4 2 z M 8 2 C 8.554 2 9 2.446 9 3 L 9 4 C 9 4.554 8.554 5 8 5 C 7.446 5 7 4.554 7 4 L 7 3 C 7 2.446 7.446 2 8 2 z M 12 2 C 12.554 2 13 2.446 13 3 L 13 4 C 13 4.554 12.554 5 12 5 C 11.446 5 11 4.554 11 4 L 11 3 C 11 2.446 11.446 2 12 2 z "
     id="rect3025" /><rect
     style="fill:#bebebe;fill-opacity:1;stroke:none"
     id="rect3795"
     width="10"
     height="6"
     x="3"
     y="7"
     rx="2"
     ry="2" /><rect
     style="fill:#bebebe;fill-opacity:1;stroke:none"
     id="rect3797"
     width="6"
     height="4.5078797"
     x="5"
     y="11.492121"
     rx="2"
     ry="1.5396811" /></svg>