<?xml version="1.0" encoding="UTF-8" standalone="no"?>
<svg
   xmlns:dc="http://purl.org/dc/elements/1.1/"
   xmlns:cc="http://creativecommons.org/ns#"
   xmlns:rdf="http://www.w3.org/1999/02/22-rdf-syntax-ns#"
   xmlns:svg="http://www.w3.org/2000/svg"
   xmlns="http://www.w3.org/2000/svg"
   xmlns:sodipodi="http://sodipodi.sourceforge.net/DTD/sodipodi-0.dtd"
   xmlns:inkscape="http://www.inkscape.org/namespaces/inkscape"
   enable-background="new 0 0 32 32"
   height="16"
   id="Layer_1"
   version="1.1"
   viewBox="0 0 16 16"
   width="16"
   xml:space="preserve"
   inkscape:version="0.48.5 r10040"
   sodipodi:docname="network-wired-symbolic.svg"><metadata
     id="metadata12"><rdf:RDF><cc:Work
         rdf:about=""><dc:format>image/svg+xml</dc:format><dc:type
           rdf:resource="http://purl.org/dc/dcmitype/StillImage" /><dc:title /></cc:Work></rdf:RDF></metadata><defs
     id="defs10" /><sodipodi:namedview
     pagecolor="#ffffff"
     bordercolor="#666666"
     borderopacity="1"
     objecttolerance="10"
     gridtolerance="10"
     guidetolerance="10"
     inkscape:pageopacity="0"
     inkscape:pageshadow="2"
     inkscape:window-width="1920"
     inkscape:window-height="1052"
     id="namedview8"
     showgrid="true"
     inkscape:zoom="21.938703"
     inkscape:cx="-3.9865666"
     inkscape:cy="7.5822092"
     inkscape:window-x="0"
     inkscape:window-y="28"
     inkscape:window-maximized="1"
     inkscape:current-layer="Layer_1"
     showguides="true"
     inkscape:guide-bbox="true"><inkscape:grid
       type="xygrid"
       id="grid2991"
       empspacing="5"
       visible="true"
       enabled="true"
       snapvisiblegridlinesonly="true" /></sodipodi:namedview><path
     style="fill:#bebebe;fill-opacity:1;stroke:none"
     d="M 2,0 C 0.892,0 0,0.892 0,2 l 0,12 c 0,1.108 0.892,2 2,2 l 12,0 c 1.108,0 2,-0.892 2,-2 L 16,2 C 16,0.892 15.108,0 14,0 z m 4,2 4,0 c 0.554,0 1,0.446 1,1 l 0,3 1.5,0 C 13.331,6 14,6.669 14,7.5 l 0,5 c 0,0.831 -0.669,1.5 -1.5,1.5 l -9,0 C 2.669,14 2,13.331 2,12.5 l 0,-5 C 2,6.669 2.6704383,6.0488717 3.5,6 L 5,6 5,3 C 5,2.446 5.446,2 6,2 z"
     id="rect3015"
     inkscape:connector-curvature="0"
     sodipodi:nodetypes="sssssssssssscsssssssscss" /><g
     id="layer9"
     inkscape:label="status"
     style="display:inline"
     transform="translate(-41.0002,-447)" /><rect
     y="11"
     x="4"
     width="8"
     style="opacity:0.5;color:#bebebe;fill:#bebebe;fill-opacity:1;fill-rule:nonzero;stroke:none;stroke-width:0;marker:none;visibility:visible;display:inline;overflow:visible;enable-background:accumulate"
     ry="0"
     id="rect6088"
     height="4" /><g
     id="layer11"
     inkscape:label="apps"
     transform="translate(-41.0002,-447)" /><g
     id="layer13"
     inkscape:label="places"
     style="display:inline"
     transform="translate(-41.0002,-447)" /><g
     id="layer14"
     inkscape:label="mimetypes"
     transform="translate(-41.0002,-447)" /><g
     id="layer15"
     inkscape:label="emblems"
     style="display:inline"
     transform="translate(-41.0002,-447)" /><g
     id="g71291"
     inkscape:label="emotes"
     style="display:inline"
     transform="translate(-41.0002,-447)" /><g
     id="g4953"
     inkscape:label="categories"
     style="display:inline"
     transform="translate(-41.0002,-447)" /><g
     id="layer12"
     inkscape:label="actions"
     style="display:inline"
     transform="translate(-41.0002,-447)" /></svg>