<?xml version="1.0" encoding="UTF-8" standalone="no"?>
<!-- Created with Inkscape (http://www.inkscape.org/) -->

<svg
   xmlns:dc="http://purl.org/dc/elements/1.1/"
   xmlns:cc="http://creativecommons.org/ns#"
   xmlns:rdf="http://www.w3.org/1999/02/22-rdf-syntax-ns#"
   xmlns:svg="http://www.w3.org/2000/svg"
   xmlns="http://www.w3.org/2000/svg"
   xmlns:sodipodi="http://sodipodi.sourceforge.net/DTD/sodipodi-0.dtd"
   xmlns:inkscape="http://www.inkscape.org/namespaces/inkscape"
   width="24"
   height="24"
   viewBox="0 0 6.3499992 6.3500002"
   id="svg2"
   version="1.1"
   inkscape:version="0.48.5 r10040"
   sodipodi:docname="gtk-connect.svg">
  <defs
     id="defs4" />
  <sodipodi:namedview
     id="base"
     pagecolor="#ffffff"
     bordercolor="#666666"
     borderopacity="1.0"
     inkscape:pageopacity="0.0"
     inkscape:pageshadow="2"
     inkscape:zoom="22.627417"
     inkscape:cx="3.7456413"
     inkscape:cy="12.188973"
     inkscape:document-units="px"
     inkscape:current-layer="layer1"
     showgrid="true"
     inkscape:showpageshadow="false"
     borderlayer="true"
     units="px"
     inkscape:window-width="1920"
     inkscape:window-height="1052"
     inkscape:window-x="0"
     inkscape:window-y="28"
     inkscape:window-maximized="1">
    <inkscape:grid
       type="xygrid"
       id="grid4136" />
    <sodipodi:guide
       position="0.99999995,23.00001"
       orientation="21.999992,0"
       id="guide4140" />
    <sodipodi:guide
       position="0.99999995,1.0000181"
       orientation="0,21.999998"
       id="guide4142" />
    <sodipodi:guide
       position="22.999998,1.0000181"
       orientation="-21.999992,0"
       id="guide4144" />
    <sodipodi:guide
       position="22.999998,23.00001"
       orientation="0,-21.999998"
       id="guide4146" />
    <sodipodi:guide
       position="3.0000016,20.999979"
       orientation="18.000046,0"
       id="guide4190" />
    <sodipodi:guide
       position="3.0000016,2.9999335"
       orientation="0,17.999995"
       id="guide4192" />
    <sodipodi:guide
       position="20.999997,2.9999335"
       orientation="-18.000046,0"
       id="guide4194" />
    <sodipodi:guide
       position="20.999997,20.999979"
       orientation="0,-17.999995"
       id="guide4196" />
  </sodipodi:namedview>
  <metadata
     id="metadata7">
    <rdf:RDF>
      <cc:Work
         rdf:about="">
        <dc:format>image/svg+xml</dc:format>
        <dc:type
           rdf:resource="http://purl.org/dc/dcmitype/StillImage" />
        <dc:title></dc:title>
      </cc:Work>
    </rdf:RDF>
  </metadata>
  <g
     inkscape:label="Capa 1"
     inkscape:groupmode="layer"
     id="layer1"
     transform="translate(0,-290.64997)">
    <g
       id="g3825"
       transform="matrix(0.26458334,0,0,0.26458334,1.0583329,291.7083)"
       style="fill:#333333;fill-opacity:1">
      <path
         inkscape:connector-curvature="0"
         id="rect3004"
         d="M 3,0 C 1.338,0 0,1.338 0,3 0,4.662 1.338,6 3,6 L 13,6 C 14.662,6 16,4.662 16,3 16,1.338 14.662,0 13,0 L 3,0 z M 4,1 C 5.1045695,1 6,1.8954305 6,3 6,4.1045695 5.1045695,5 4,5 2.8954305,5 2,4.1045695 2,3 2,1.8954305 2.8954305,1 4,1 z"
         style="fill:#333333;fill-opacity:1;stroke:none" />
      <path
         inkscape:connector-curvature="0"
         id="rect3006"
         d="m 3,10 c -1.662,0 -3,1.338 -3,3 0,1.662 1.338,3 3,3 l 10,0 c 1.662,0 3,-1.338 3,-3 0,-1.662 -1.338,-3 -3,-3 L 3,10 z m 9,1 c 1.104569,0 2,0.89543 2,2 0,1.10457 -0.895431,2 -2,2 -1.104569,0 -2,-0.89543 -2,-2 0,-1.10457 0.895431,-2 2,-2 z"
         style="fill:#333333;fill-opacity:1;stroke:none" />
    </g>
  </g>
</svg>
