<?xml version="1.0" encoding="UTF-8" standalone="no"?>
<svg
   xmlns:dc="http://purl.org/dc/elements/1.1/"
   xmlns:cc="http://creativecommons.org/ns#"
   xmlns:rdf="http://www.w3.org/1999/02/22-rdf-syntax-ns#"
   xmlns:svg="http://www.w3.org/2000/svg"
   xmlns="http://www.w3.org/2000/svg"
   xmlns:xlink="http://www.w3.org/1999/xlink"
   xmlns:sodipodi="http://sodipodi.sourceforge.net/DTD/sodipodi-0.dtd"
   xmlns:inkscape="http://www.inkscape.org/namespaces/inkscape"
   width="48px"
   height="48px"
   viewBox="0 0 48 48"
   version="1.1"
   id="svg2"
   inkscape:version="0.48.5 r10040"
   sodipodi:docname="application-blank.svg">
  <metadata
     id="metadata15">
    <rdf:RDF>
      <cc:Work
         rdf:about="">
        <dc:format>image/svg+xml</dc:format>
        <dc:type
           rdf:resource="http://purl.org/dc/dcmitype/StillImage" />
      </cc:Work>
    </rdf:RDF>
  </metadata>
  <defs
     id="defs13">
    <linearGradient
       inkscape:collect="always"
       xlink:href="#linearGradient3810"
       id="linearGradient3816"
       x1="39"
       y1="6"
       x2="30"
       y2="15"
       gradientUnits="userSpaceOnUse" />
    <linearGradient
       inkscape:collect="always"
       id="linearGradient3810">
      <stop
         style="stop-color:#000000;stop-opacity:1;"
         offset="0"
         id="stop3812" />
      <stop
         style="stop-color:#000000;stop-opacity:0;"
         offset="1"
         id="stop3814" />
    </linearGradient>
  </defs>
  <sodipodi:namedview
     pagecolor="#ffffff"
     bordercolor="#666666"
     borderopacity="1"
     objecttolerance="10"
     gridtolerance="10"
     guidetolerance="10"
     inkscape:pageopacity="0"
     inkscape:pageshadow="2"
     inkscape:window-width="1280"
     inkscape:window-height="970"
     id="namedview11"
     showgrid="false"
     inkscape:zoom="13.906433"
     inkscape:cx="21.587868"
     inkscape:cy="22.082977"
     inkscape:window-x="0"
     inkscape:window-y="0"
     inkscape:window-maximized="1"
     inkscape:current-layer="svg2" />
  <path
     id="path3847"
     d="M 8,3 C 6.338,3 5,4.338 5,6 l 0,38 c 0,1.662 1.338,3 3,3 l 32,0 c 1.662,0 3,-1.338 3,-3 L 43,12 34,3 8,3 z m 3,4 c 1.104569,0 2,0.8954 2,2 0,1.1046 -0.895431,2 -2,2 C 9.895431,11 9,10.1046 9,9 9,7.8954 9.895431,7 11,7 z m 0,8 c 1.104569,0 2,0.8954 2,2 0,1.1046 -0.895431,2 -2,2 -1.104569,0 -2,-0.8954 -2,-2 0,-1.1046 0.895431,-2 2,-2 z m 0,8 c 1.104569,0 2,0.8954 2,2 0,1.1046 -0.895431,2 -2,2 -1.104569,0 -2,-0.8954 -2,-2 0,-1.1046 0.895431,-2 2,-2 z m 0,8 c 1.104569,0 2,0.8954 2,2 0,1.1046 -0.895431,2 -2,2 -1.104569,0 -2,-0.8954 -2,-2 0,-1.1046 0.895431,-2 2,-2 z m 0,8 c 1.104569,0 2,0.8954 2,2 0,1.1046 -0.895431,2 -2,2 -1.104569,0 -2,-0.8954 -2,-2 0,-1.1046 0.895431,-2 2,-2 z"
     style="opacity:0.15;fill:#000000;fill-opacity:1;stroke:none"
     inkscape:connector-curvature="0" />
  <path
     inkscape:connector-curvature="0"
     style="fill:#e0e2cc;fill-opacity:1;stroke:none"
     d="M 8,2 C 6.338,2 5,3.338 5,5 l 0,38 c 0,1.662 1.338,3 3,3 l 32,0 c 1.662,0 3,-1.338 3,-3 L 43,11 34,2 8,2 z m 3,4 c 1.104569,0 2,0.895431 2,2 0,1.104569 -0.895431,2 -2,2 C 9.895431,10 9,9.104569 9,8 9,6.895431 9.895431,6 11,6 z m 0,8 c 1.104569,0 2,0.895431 2,2 0,1.104569 -0.895431,2 -2,2 -1.104569,0 -2,-0.895431 -2,-2 0,-1.104569 0.895431,-2 2,-2 z m 0,8 c 1.104569,0 2,0.895431 2,2 0,1.104569 -0.895431,2 -2,2 -1.104569,0 -2,-0.895431 -2,-2 0,-1.104569 0.895431,-2 2,-2 z m 0,8 c 1.104569,0 2,0.895431 2,2 0,1.104569 -0.895431,2 -2,2 -1.104569,0 -2,-0.895431 -2,-2 0,-1.104569 0.895431,-2 2,-2 z m 0,8 c 1.104569,0 2,0.895431 2,2 0,1.104569 -0.895431,2 -2,2 -1.104569,0 -2,-0.895431 -2,-2 0,-1.104569 0.895431,-2 2,-2 z"
     id="rect3766" />
  <path
     style="opacity:0.125;fill:url(#linearGradient3816);fill-opacity:1;stroke:none"
     d="m 34,2 -9,9 9,9 9,-9 z"
     id="path3808"
     inkscape:connector-curvature="0"
     sodipodi:nodetypes="ccccc" />
  <path
     style="fill:#eeeeee;fill-opacity:1;stroke:none"
     d="m 34,2 0,6 c 0,2 1,3 3,3 l 6,0 z"
     id="path3805"
     inkscape:connector-curvature="0"
     sodipodi:nodetypes="ccccc" />
</svg>
