<?xml version="1.0" encoding="UTF-8" standalone="no"?>
<svg
   xmlns:dc="http://purl.org/dc/elements/1.1/"
   xmlns:cc="http://creativecommons.org/ns#"
   xmlns:rdf="http://www.w3.org/1999/02/22-rdf-syntax-ns#"
   xmlns:svg="http://www.w3.org/2000/svg"
   xmlns="http://www.w3.org/2000/svg"
   xmlns:sodipodi="http://sodipodi.sourceforge.net/DTD/sodipodi-0.dtd"
   xmlns:inkscape="http://www.inkscape.org/namespaces/inkscape"
   width="16"
   viewBox="0 0 16 16"
   height="16"
   id="svg2"
   version="1.1"
   inkscape:version="0.48.5 r10040"
   sodipodi:docname="audio-volume-medium-symbolic.svg">
  <metadata
     id="metadata34">
    <rdf:RDF>
      <cc:Work
         rdf:about="">
        <dc:format>image/svg+xml</dc:format>
        <dc:type
           rdf:resource="http://purl.org/dc/dcmitype/StillImage" />
        <dc:title></dc:title>
      </cc:Work>
    </rdf:RDF>
  </metadata>
  <sodipodi:namedview
     pagecolor="#ffffff"
     bordercolor="#666666"
     borderopacity="1"
     objecttolerance="10"
     gridtolerance="10"
     guidetolerance="10"
     inkscape:pageopacity="0"
     inkscape:pageshadow="2"
     inkscape:window-width="1920"
     inkscape:window-height="1052"
     id="namedview32"
     showgrid="true"
     inkscape:zoom="15.826609"
     inkscape:cx="6.6488483"
     inkscape:cy="7.0269166"
     inkscape:window-x="0"
     inkscape:window-y="28"
     inkscape:window-maximized="1"
     inkscape:current-layer="svg2">
    <inkscape:grid
       type="xygrid"
       id="grid3011" />
  </sodipodi:namedview>
  <defs
     id="defs4">
    <clipPath
       id="clipPath6">
      <rect
         x="26.999"
         y="221.5"
         width="1.876"
         height="4.874"
         fill="#bebebe"
         color="#bebebe"
         id="rect8" />
    </clipPath>
    <clipPath
       id="clipPath10">
      <rect
         x="26.966"
         y="221.33"
         width="2.898"
         height="5.216"
         fill="#bebebe"
         color="#bebebe"
         id="rect12" />
    </clipPath>
    <clipPath
       id="clipPath14">
      <rect
         x="26.85"
         y="220.75"
         width="3.825"
         height="6.375"
         fill="#bebebe"
         color="#bebebe"
         id="rect16" />
    </clipPath>
  </defs>
  <path
     inkscape:connector-curvature="0"
     id="rect11714-3"
     style="color:#000000;fill:#bebebe;opacity:0.5"
     d="M 16,8 C 16,5.1858 15,2.8283 13.4144,1 L 12,1 12,2.4807 C 13.2647,4 14,5.7001 14,8 c 0,2.2999 -0.77953,4 -2,5.5193 L 12,15 13.3813,15 C 14.8471,13.3596 16,10.8142 16,8 z"
     sodipodi:nodetypes="scccscccs" />
  <path
     inkscape:connector-curvature="0"
     id="rect11703-1"
     style="color:#000000;fill:#bebebe;opacity:0.5"
     d="M 13,8 C 13,5.8334 12.26122,3.9802 11,3 l -1,0 0,2 c 0.60652,0.78878 1,1.7589 1,3 0,1.2411 -0.39348,2.2194 -1,3 l 0,2 1,0 c 1.2229,-0.99478 2,-2.8734 2,-5 z"
     sodipodi:nodetypes="scccscccs" />
  <path
     inkscape:connector-curvature="0"
     id="path6297-6"
     style="text-indent:0;text-transform:none;block-progression:tb;color:#000000;fill:#bebebe"
     d="M 10,8 C 10,6.7427 9.68835,5.7843 9,5 H 8 V 8 8.375 11 h 1 c 0.67206,-0.8369 1,-1.7427 1,-3 z" />
  <path
     style="fill:#bebebe;fill-opacity:1;stroke:none"
     d="M 0,5 3,5 6,2 7,2 7,14 6,14 3,11 0,11 z"
     id="path3005"
     inkscape:connector-curvature="0"
     sodipodi:nodetypes="ccccccccc" />
</svg>
