<?xml version="1.0" encoding="UTF-8" standalone="no"?>
<svg
   xmlns:dc="http://purl.org/dc/elements/1.1/"
   xmlns:cc="http://creativecommons.org/ns#"
   xmlns:rdf="http://www.w3.org/1999/02/22-rdf-syntax-ns#"
   xmlns:svg="http://www.w3.org/2000/svg"
   xmlns="http://www.w3.org/2000/svg"
   xmlns:sodipodi="http://sodipodi.sourceforge.net/DTD/sodipodi-0.dtd"
   xmlns:inkscape="http://www.inkscape.org/namespaces/inkscape"
   enable-background="new 0 0 32 32"
   height="16"
   id="Layer_1"
   version="1.1"
   viewBox="0 0 16 16"
   width="16"
   xml:space="preserve"
   inkscape:version="0.48.5 r10040"
   sodipodi:docname="baterija-pŭlna.svg"><metadata
     id="metadata12"><rdf:RDF><cc:Work
         rdf:about=""><dc:format>image/svg+xml</dc:format><dc:type
           rdf:resource="http://purl.org/dc/dcmitype/StillImage" /><dc:title></dc:title></cc:Work></rdf:RDF></metadata><defs
     id="defs10" /><sodipodi:namedview
     pagecolor="#ffffff"
     bordercolor="#666666"
     borderopacity="1"
     objecttolerance="10"
     gridtolerance="10"
     guidetolerance="10"
     inkscape:pageopacity="0"
     inkscape:pageshadow="2"
     inkscape:window-width="1920"
     inkscape:window-height="1052"
     id="namedview8"
     showgrid="true"
     inkscape:zoom="55.77837"
     inkscape:cx="4.5841371"
     inkscape:cy="8.0272864"
     inkscape:window-x="0"
     inkscape:window-y="28"
     inkscape:window-maximized="1"
     inkscape:current-layer="Layer_1"><inkscape:grid
       type="xygrid"
       id="grid2991"
       empspacing="5"
       visible="true"
       enabled="true"
       snapvisiblegridlinesonly="true" /></sodipodi:namedview><rect
     style="fill:#bebebe;fill-opacity:1;stroke:none"
     id="rect3754"
     width="6"
     height="4"
     x="5"
     y="0"
     rx="1"
     ry="1" /><rect
     ry="2"
     rx="2"
     y="2"
     x="-15"
     height="14"
     width="10"
     id="rect3799"
     style="fill:#bebebe;fill-opacity:1;stroke:none" /><path
     style="fill:#bebebe;fill-opacity:1;stroke:none"
     d="M 3 2 C 2.446 2 2 2.446 2 3 L 2 15 C 2 15.554 2.446 16 3 16 L 13 16 C 13.554 16 14 15.554 14 15 L 14 3 C 14 2.446 13.554 2 13 2 L 3 2 z M 4 4 L 12 4 L 12 14 L 4 14 L 4 4 z "
     id="rect3831" /><rect
     style="fill:#33d16b;fill-opacity:1;stroke:none"
     id="rect3836"
     width="6"
     height="8"
     x="5"
     y="5"
     class="success" /></svg>