<?xml version="1.0" encoding="UTF-8" standalone="no"?>
<svg
   xmlns:dc="http://purl.org/dc/elements/1.1/"
   xmlns:cc="http://creativecommons.org/ns#"
   xmlns:rdf="http://www.w3.org/1999/02/22-rdf-syntax-ns#"
   xmlns:svg="http://www.w3.org/2000/svg"
   xmlns="http://www.w3.org/2000/svg"
   xmlns:sodipodi="http://sodipodi.sourceforge.net/DTD/sodipodi-0.dtd"
   xmlns:inkscape="http://www.inkscape.org/namespaces/inkscape"
   enable-background="new 0 0 32 32"
   height="16"
   id="Layer_1"
   version="1.1"
   viewBox="0 0 16 16"
   width="16"
   xml:space="preserve"
   inkscape:version="0.48.5 r10040"
   sodipodi:docname="changes-prevent-symbolic.svg"><metadata
     id="metadata26"><rdf:RDF><cc:Work
         rdf:about=""><dc:format>image/svg+xml</dc:format><dc:type
           rdf:resource="http://purl.org/dc/dcmitype/StillImage" /><dc:title /></cc:Work></rdf:RDF></metadata><defs
     id="defs24" /><sodipodi:namedview
     pagecolor="#ffffff"
     bordercolor="#666666"
     borderopacity="1"
     objecttolerance="10"
     gridtolerance="10"
     guidetolerance="10"
     inkscape:pageopacity="0"
     inkscape:pageshadow="2"
     inkscape:window-width="1920"
     inkscape:window-height="1023"
     id="namedview22"
     showgrid="true"
     inkscape:zoom="23.212186"
     inkscape:cx="8.0680635"
     inkscape:cy="6.0677349"
     inkscape:window-x="0"
     inkscape:window-y="28"
     inkscape:window-maximized="1"
     inkscape:current-layer="Layer_1"><inkscape:grid
       type="xygrid"
       id="grid3003"
       empspacing="5"
       visible="true"
       enabled="true"
       snapvisiblegridlinesonly="true" /></sodipodi:namedview><path
     inkscape:connector-curvature="0"
     style="line-height:normal;color:#000000;fill:#bebebe"
     d="m 8,3e-7 c 4e-6,0 -4.95918,0.02029 -5,3.5625 L 3,7 5,7 5,4.4375003 c 0,-2.65666 3,-2.4375 3,-2.4375 0,0 3,-0.21916 3,2.4375 L 11,7 13,7 13,3.5625003 C 12.9947,0.0244451 8,3e-7 8,3e-7 z"
     id="path2991" /><path
     style="fill:#bebebe;fill-opacity:1;stroke:none"
     d="M 3,7 C 1.892,7 1,7.892 1,9 l 0,5 c 0,1.108 0.892,2 2,2 l 10,0 c 1.108,0 2,-0.892 2,-2 L 15,9 C 15,7.892 14.108,7 13,7 z m 5,1 c 1.1045695,0 2,0.8954305 2,2 0,0.764228 -0.4325208,1.4133 -1.0625,1.75 C 8.960713,11.834769 9,11.907667 9,12 l 0,2 C 9,14.554 8.554,15 8,15 7.446,15 7,14.554 7,14 L 7,12 C 7,11.907667 7.039287,11.834769 7.0625,11.75 6.4325208,11.4133 6,10.764228 6,10 6,8.8954305 6.8954305,8 8,8 z"
     id="rect3011"
     inkscape:connector-curvature="0"
     sodipodi:nodetypes="ssssssssssscssssscss" /></svg>