<?xml version="1.0" encoding="UTF-8" standalone="no"?>
<svg
   xmlns:dc="http://purl.org/dc/elements/1.1/"
   xmlns:cc="http://creativecommons.org/ns#"
   xmlns:rdf="http://www.w3.org/1999/02/22-rdf-syntax-ns#"
   xmlns:svg="http://www.w3.org/2000/svg"
   xmlns="http://www.w3.org/2000/svg"
   xmlns:sodipodi="http://sodipodi.sourceforge.net/DTD/sodipodi-0.dtd"
   xmlns:inkscape="http://www.inkscape.org/namespaces/inkscape"
   width="16"
   viewBox="0 0 16 16"
   height="16"
   style="enable-background:new"
   id="svg2"
   version="1.1"
   inkscape:version="0.48.5 r10040"
   sodipodi:docname="weather-clear-night-symbolic.svg">
  <metadata
     id="metadata10">
    <rdf:RDF>
      <cc:Work
         rdf:about="">
        <dc:format>image/svg+xml</dc:format>
        <dc:type
           rdf:resource="http://purl.org/dc/dcmitype/StillImage" />
        <dc:title></dc:title>
      </cc:Work>
    </rdf:RDF>
  </metadata>
  <sodipodi:namedview
     pagecolor="#ffffff"
     bordercolor="#666666"
     borderopacity="1"
     objecttolerance="10"
     gridtolerance="10"
     guidetolerance="10"
     inkscape:pageopacity="0"
     inkscape:pageshadow="2"
     inkscape:window-width="1920"
     inkscape:window-height="1052"
     id="namedview8"
     showgrid="false"
     inkscape:zoom="14.75"
     inkscape:cx="-3.0169492"
     inkscape:cy="7.8644068"
     inkscape:window-x="0"
     inkscape:window-y="28"
     inkscape:window-maximized="1"
     inkscape:current-layer="svg2" />
  <defs
     id="defs4" />
  <path
     sodipodi:type="arc"
     style="opacity:1;fill:#bebebe;fill-opacity:1;stroke:none"
     id="path3026"
     sodipodi:cx="19.5"
     sodipodi:cy="31"
     sodipodi:rx="3.5"
     sodipodi:ry="3"
     d="m 23,31 a 3.5,3 0 1 1 -7,0 3.5,3 0 1 1 7,0 z"
     transform="matrix(0.85714286,0,0,1,-13.714286,-20)" />
  <path
     transform="matrix(1.2857143,0,0,1.5,-17.571429,-40)"
     d="m 23,31 a 3.5,3 0 1 1 -7,0 3.5,3 0 1 1 7,0 z"
     sodipodi:ry="3"
     sodipodi:rx="3.5"
     sodipodi:cy="31"
     sodipodi:cx="19.5"
     id="path3028"
     style="opacity:1;fill:#bebebe;fill-opacity:1;stroke:none"
     sodipodi:type="arc" />
  <path
     transform="matrix(1,0,0,1.1666667,-7,-25.66667)"
     d="m 23,31 a 3.5,3 0 1 1 -7,0 3.5,3 0 1 1 7,0 z"
     sodipodi:ry="3"
     sodipodi:rx="3.5"
     sodipodi:cy="31"
     sodipodi:cx="19.5"
     id="path3030"
     style="opacity:1;fill:#bebebe;fill-opacity:1;stroke:none"
     sodipodi:type="arc" />
  <path
     style="opacity:1;fill:#bebebe;fill-opacity:1;stroke:none"
     d="m 3,9 10,0 0,5 -10,0 z"
     id="path3032"
     inkscape:connector-curvature="0" />
</svg>
