<?xml version="1.0" encoding="UTF-8" standalone="no"?>
<!-- Created with Inkscape (http://www.inkscape.org/) -->

<svg
   xmlns:dc="http://purl.org/dc/elements/1.1/"
   xmlns:cc="http://creativecommons.org/ns#"
   xmlns:rdf="http://www.w3.org/1999/02/22-rdf-syntax-ns#"
   xmlns:svg="http://www.w3.org/2000/svg"
   xmlns="http://www.w3.org/2000/svg"
   xmlns:xlink="http://www.w3.org/1999/xlink"
   xmlns:sodipodi="http://sodipodi.sourceforge.net/DTD/sodipodi-0.dtd"
   xmlns:inkscape="http://www.inkscape.org/namespaces/inkscape"
   width="16"
   height="16"
   id="svg2"
   version="1.1"
   inkscape:version="0.48.5 r10040"
   sodipodi:docname="network-server.svg">
  <defs
     id="defs4">
    <linearGradient
       inkscape:collect="always"
       id="linearGradient3874">
      <stop
         style="stop-color:#000000;stop-opacity:1;"
         offset="0"
         id="stop3876" />
      <stop
         style="stop-color:#000000;stop-opacity:0;"
         offset="1"
         id="stop3878" />
    </linearGradient>
    <linearGradient
       inkscape:collect="always"
       id="linearGradient3861">
      <stop
         style="stop-color:#000000;stop-opacity:1;"
         offset="0"
         id="stop3863" />
      <stop
         style="stop-color:#000000;stop-opacity:0;"
         offset="1"
         id="stop3865" />
    </linearGradient>
    <linearGradient
       id="linearGradient3844">
      <stop
         style="stop-color:#000000;stop-opacity:0.39215687;"
         offset="0"
         id="stop3846" />
      <stop
         style="stop-color:#000000;stop-opacity:0;"
         offset="1"
         id="stop3848" />
    </linearGradient>
    <linearGradient
       id="linearGradient3810">
      <stop
         style="stop-color:#f16d87;stop-opacity:1;"
         offset="0"
         id="stop3812" />
      <stop
         style="stop-color:#f88ca1;stop-opacity:1;"
         offset="1"
         id="stop3814" />
    </linearGradient>
    <linearGradient
       inkscape:collect="always"
       xlink:href="#linearGradient3810"
       id="linearGradient3816"
       x1="24"
       y1="1046.3622"
       x2="24"
       y2="1014.3622"
       gradientUnits="userSpaceOnUse" />
    <linearGradient
       inkscape:collect="always"
       xlink:href="#linearGradient3810"
       id="linearGradient3856"
       gradientUnits="userSpaceOnUse"
       x1="24"
       y1="1046.3622"
       x2="24"
       y2="1014.3622"
       gradientTransform="translate(0,-3)" />
    <linearGradient
       inkscape:collect="always"
       xlink:href="#linearGradient3810"
       id="linearGradient3858"
       gradientUnits="userSpaceOnUse"
       x1="24"
       y1="1046.3622"
       x2="24"
       y2="1014.3622"
       gradientTransform="translate(0,-1004.3622)" />
    <linearGradient
       inkscape:collect="always"
       xlink:href="#linearGradient3861"
       id="linearGradient3867"
       x1="1.9952807"
       y1="28.5625"
       x2="46.004719"
       y2="28.5625"
       gradientUnits="userSpaceOnUse" />
    <linearGradient
       inkscape:collect="always"
       xlink:href="#linearGradient3874"
       id="linearGradient3880"
       x1="24"
       y1="42"
       x2="24"
       y2="38"
       gradientUnits="userSpaceOnUse"
       gradientTransform="translate(-44,1004.3622)" />
    <linearGradient
       inkscape:collect="always"
       xlink:href="#linearGradient3810"
       id="linearGradient3896"
       gradientUnits="userSpaceOnUse"
       x1="24"
       y1="1046.3622"
       x2="24"
       y2="1004.3622" />
    <linearGradient
       inkscape:collect="always"
       xlink:href="#linearGradient3810"
       id="linearGradient3841"
       gradientUnits="userSpaceOnUse"
       x1="24"
       y1="1046.3622"
       x2="24"
       y2="1004.3622"
       gradientTransform="translate(0,1)" />
    <linearGradient
       inkscape:collect="always"
       xlink:href="#linearGradient3810"
       id="linearGradient3843"
       gradientUnits="userSpaceOnUse"
       x1="24"
       y1="1046.3622"
       x2="24"
       y2="1004.3622"
       gradientTransform="translate(0,-1004.3622)" />
    <linearGradient
       inkscape:collect="always"
       xlink:href="#linearGradient3810"
       id="linearGradient3850"
       gradientUnits="userSpaceOnUse"
       gradientTransform="translate(-26,0)"
       x1="24"
       y1="1046.3622"
       x2="24"
       y2="1004.3622" />
    <linearGradient
       inkscape:collect="always"
       xlink:href="#linearGradient3810"
       id="linearGradient3857"
       gradientUnits="userSpaceOnUse"
       x1="24"
       y1="1046.3622"
       x2="24"
       y2="1004.3622"
       gradientTransform="translate(0,1)" />
    <linearGradient
       inkscape:collect="always"
       xlink:href="#linearGradient3810"
       id="linearGradient3859"
       gradientUnits="userSpaceOnUse"
       x1="24"
       y1="1046.3622"
       x2="24"
       y2="1004.3622"
       gradientTransform="translate(0,-1004.3622)" />
  </defs>
  <sodipodi:namedview
     id="base"
     pagecolor="#ffffff"
     bordercolor="#666666"
     borderopacity="1.0"
     inkscape:pageopacity="0.0"
     inkscape:pageshadow="2"
     inkscape:zoom="30.212225"
     inkscape:cx="-1.6401825"
     inkscape:cy="12.000092"
     inkscape:document-units="px"
     inkscape:current-layer="layer1"
     showgrid="true"
     inkscape:window-width="1920"
     inkscape:window-height="1052"
     inkscape:window-x="0"
     inkscape:window-y="28"
     inkscape:window-maximized="1"
     showguides="true"
     inkscape:guide-bbox="true">
    <inkscape:grid
       type="xygrid"
       id="grid2990"
       empspacing="5"
       visible="true"
       enabled="true"
       snapvisiblegridlinesonly="true" />
  </sodipodi:namedview>
  <metadata
     id="metadata7">
    <rdf:RDF>
      <cc:Work
         rdf:about="">
        <dc:format>image/svg+xml</dc:format>
        <dc:type
           rdf:resource="http://purl.org/dc/dcmitype/StillImage" />
        <dc:title></dc:title>
      </cc:Work>
    </rdf:RDF>
  </metadata>
  <g
     inkscape:label="Layer"
     inkscape:groupmode="layer"
     id="layer1"
     transform="translate(0,-1036.3622)">
    <g
       id="g4493"
       transform="translate(0,1036.3622)"
       style="fill:#f16d87;fill-opacity:1">
      <path
         id="path3"
         d="M 8,0 C 7.0097391,0 6.0629782,0.17078261 5.1875,0.5 5.7357324,0.77054915 6.2487082,1.0922552 6.75,1.4375 6.816312,1.3845873 6.8959481,1.3567661 6.96875,1.3125 7.0565928,1.2584817 7.1224989,1.1965306 7.21875,1.15625 7.2486596,1.1435993 7.2818678,1.136216 7.3125,1.125 7.4000839,1.0937307 7.5011215,1.0502451 7.59375,1.03125 7.7239452,1.0046082 7.8619288,1 8,1 8.1622336,1 8.317714,1.026042 8.46875,1.0625 8.6200618,1.098276 8.7699042,1.150062 8.90625,1.21875 8.918727,1.22508 8.925176,1.243413 8.9375,1.25 c 0.1216694,0.064664 0.2390802,0.1322324 0.34375,0.21875 0.046091,0.038499 0.082567,0.082567 0.125,0.125 0.063933,0.063512 0.1326967,0.1155657 0.1875,0.1875 C 10.364998,1.4761405 11.171818,1.221948 12,1.0625 10.825565,0.38580438 9.4528696,0 8,0 z M 3.8125,1.1875 C 2.9375435,1.7281957 2.1705,2.4239131 1.5625,3.25 1.9675719,3.9671459 2.4351467,4.6602949 2.96875,5.28125 2.9876683,5.2699374 3.0085622,5.2561838 3.03125,5.25 3.1198716,5.2010754 3.2163109,5.1602195 3.3125,5.125 3.3339161,5.1157108 3.3528482,5.1010027 3.375,5.09375 3.4056518,5.083672 3.4374605,5.0711391 3.46875,5.0625 3.6371022,5.0164918 3.8170557,5 4,5 4.1412575,5 4.2733161,5.0023631 4.40625,5.03125 4.5038964,5.0512313 4.5956033,5.0913521 4.6875,5.125 5.14899,4.6372141 5.6332797,4.1714102 6.15625,3.75 6.1127149,3.6426968 6.058112,3.5215399 6.03125,3.40625 6.02921,3.39629 6.03314,3.385009 6.03125,3.375 6.0039537,3.2497242 6,3.1328935 6,3 6,2.8032486 6.0408073,2.6171014 6.09375,2.4375 5.3762092,1.9511145 4.6302235,1.5165709 3.8125,1.1875 z m 9.5625,0.875 C 12.194011,2.1764172 11.063666,2.4832392 10,2.90625 10.0015,2.937565 10,2.968325 10,3 10,3.1967514 9.959193,3.3828986 9.90625,3.5625 9.85436,3.7385291 9.7828694,3.9103232 9.6875,4.0625 10.646863,5.2258172 11.403262,6.5596697 11.9375,8 11.95846,7.9993503 11.97888,8 12,8 c 0.117792,0 0.231731,0.011655 0.34375,0.03125 0.02012,0.00348 0.04259,-0.00407 0.0625,0 0.201242,0.041794 0.388774,0.1211325 0.5625,0.21875 0.01222,0.00675 0.01918,0.024255 0.03125,0.03125 0.0096,0.012128 0.01934,0.024012 0.03125,0.03125 0.06921,0.042853 0.155524,0.074222 0.21875,0.125 0.0587,0.046841 0.103209,0.1032087 0.15625,0.15625 0.02185,0.022186 0.0417,0.039313 0.0625,0.0625 0.02025,0.022148 0.04325,0.039455 0.0625,0.0625 0.0096,0.011523 0.02188,0.01951 0.03125,0.03125 0.0034,0.00887 -0.0056,0.023998 0,0.03125 0.0075,0.012309 0.02253,0.019512 0.03125,0.03125 0.03161,0.043796 0.06792,0.084551 0.09375,0.125 0.05622,0.089708 0.114192,0.1816974 0.15625,0.28125 0.04175,0.098702 0.06815,0.2064535 0.09375,0.3125 C 14.613973,9.4482892 15.263934,9.3139529 15.90625,9.125 15.95738,8.7590869 16,8.3805217 16,8 16,5.6486956 14.99013,3.5261522 13.375,2.0625 z M 0.84375,4.40625 C 0.29992391,5.48625 0,6.7083478 0,8 0,9.496 0.41021736,10.896185 1.125,12.09375 1.3678727,10.724365 1.8179305,9.4156697 2.4375,8.21875 2.3676854,8.1290924 2.3039421,8.0384277 2.25,7.9375 2.2019456,7.8475884 2.1590551,7.7537031 2.125,7.65625 2.093813,7.57277 2.050732,7.4946161 2.03125,7.40625 2.02718,7.386338 2.03473,7.363873 2.03125,7.34375 2.0108502,7.2342749 2,7.1156941 2,7 2,6.7089072 2.0756844,6.4369821 2.1875,6.1875 1.6937115,5.6298614 1.2417771,5.0392935 0.84375,4.40625 z M 6.90625,4.6875 C 6.4527134,5.0468039 6.0278699,5.4258989 5.625,5.84375 5.63313,5.855214 5.648342,5.863357 5.65625,5.875 5.728133,5.9814007 5.7931472,6.0991117 5.84375,6.21875 5.866129,6.270757 5.888201,6.3208621 5.90625,6.375 5.91338,6.396779 5.931104,6.415399 5.9375,6.4375 c 0.00548,0.018944 -0.00493,0.043329 0,0.0625 -9.137e-4,0.010732 -0.00233,0.021609 0,0.03125 C 5.9739585,6.682286 6,6.8377664 6,7 6,7.265787 5.93788,7.517993 5.84375,7.75 c 1.2801721,0.7975034 2.7180469,1.3649045 4.25,1.65625 0.01931,-0.062093 0.03763,-0.1284118 0.0625,-0.1875 C 10.16882,9.189031 10.17356,9.153964 10.1875,9.125 10.22996,9.036365 10.289223,8.955476 10.34375,8.875 10.47066,8.6871477 10.630813,8.5412851 10.8125,8.40625 10.82456,8.39728 10.83148,8.3837 10.84375,8.375 10.354231,7.0825969 9.6475128,5.8920865 8.78125,4.84375 8.77228,4.84755 8.759039,4.84008 8.75,4.84375 8.6339965,4.890815 8.5002758,4.9414537 8.375,4.96875 8.2541173,4.9915604 8.1275128,5 8,5 7.7928932,5 7.5941278,4.9646861 7.40625,4.90625 7.3397074,4.8871612 7.2821501,4.8692748 7.21875,4.84375 7.1547397,4.8166759 7.0916493,4.7833441 7.03125,4.75 6.9891485,4.7272315 6.9461707,4.7132753 6.90625,4.6875 z m -1.8125,3.96875 c -0.1535973,0.1007809 -0.3208978,0.1942934 -0.5,0.25 C 4.4058722,8.9646861 4.2071068,9 4,9 3.8032486,9 3.6171014,8.9591927 3.4375,8.90625 2.7369109,10.297972 2.28965,11.840971 2.15625,13.46875 2.9179891,14.285445 3.831,14.93326 4.875,15.375 6.1587385,13.400467 7.9687652,11.75609 10.125,10.65625 10.1175,10.63466 10.10057,10.61567 10.09375,10.59375 8.2893133,10.280303 6.6139595,9.604976 5.125,8.65625 5.11753,8.65149 5.101208,8.66102 5.09375,8.65625 z M 15.625,10.4375 c -0.566673,0.137076 -1.157158,0.218314 -1.75,0.28125 -0.0082,0.02129 -0.02239,0.04156 -0.03125,0.0625 -0.04406,0.104026 -0.09572,0.21852 -0.15625,0.3125 -0.0075,0.01169 -0.02347,0.01973 -0.03125,0.03125 -0.07141,0.105623 -0.160114,0.191328 -0.25,0.28125 -0.09048,0.09048 -0.174849,0.178117 -0.28125,0.25 -0.10372,0.0741 -0.224112,0.136897 -0.34375,0.1875 0.0201,0.301088 0.03125,0.599389 0.03125,0.90625 0,0.577565 -0.02418,1.159967 -0.09375,1.71875 1.356348,-0.990957 2.385555,-2.395424 2.90625,-4.03125 z M 10.84375,11.625 C 8.8900075,12.580742 7.2581901,14.00844 6.0625,15.75 6.6845869,15.905305 7.3295652,16 8,16 c 1.2067826,0 2.349087,-0.271566 3.375,-0.75 0.16487,-0.806435 0.25,-1.645565 0.25,-2.5 0,-0.266168 -0.01476,-0.521725 -0.03125,-0.78125 -0.139317,-0.02851 -0.279128,-0.06916 -0.40625,-0.125 -0.03455,-0.01633 -0.06522,-0.03803 -0.09375,-0.0625 C 11.08127,11.77495 11.07482,11.75659 11.0625,11.75 11.0422,11.73915 11.01987,11.73027 11,11.71875 10.95962,11.69534 10.91423,11.68097 10.875,11.65625 10.86252,11.64785 10.85602,11.6337 10.84375,11.625 z"
         style="fill:#f16d87;fill-opacity:1"
         inkscape:connector-curvature="0" />
      <g
         transform="matrix(0.17391304,0,0,0.17391304,0,-1.7391304e-4)"
         id="g5"
         style="fill:#f16d87;fill-opacity:1" />
      <g
         transform="matrix(0.17391304,0,0,0.17391304,0,-1.7391304e-4)"
         id="g7"
         style="fill:#f16d87;fill-opacity:1" />
      <g
         transform="matrix(0.17391304,0,0,0.17391304,0,-1.7391304e-4)"
         id="g9"
         style="fill:#f16d87;fill-opacity:1" />
      <g
         transform="matrix(0.17391304,0,0,0.17391304,0,-1.7391304e-4)"
         id="g11"
         style="fill:#f16d87;fill-opacity:1" />
      <g
         transform="matrix(0.17391304,0,0,0.17391304,0,-1.7391304e-4)"
         id="g13"
         style="fill:#f16d87;fill-opacity:1" />
      <g
         transform="matrix(0.17391304,0,0,0.17391304,0,-1.7391304e-4)"
         id="g15"
         style="fill:#f16d87;fill-opacity:1" />
      <g
         transform="matrix(0.17391304,0,0,0.17391304,0,-1.7391304e-4)"
         id="g17"
         style="fill:#f16d87;fill-opacity:1" />
      <g
         transform="matrix(0.17391304,0,0,0.17391304,0,-1.7391304e-4)"
         id="g19"
         style="fill:#f16d87;fill-opacity:1" />
      <g
         transform="matrix(0.17391304,0,0,0.17391304,0,-1.7391304e-4)"
         id="g21"
         style="fill:#f16d87;fill-opacity:1" />
      <g
         transform="matrix(0.17391304,0,0,0.17391304,0,-1.7391304e-4)"
         id="g23"
         style="fill:#f16d87;fill-opacity:1" />
      <g
         transform="matrix(0.17391304,0,0,0.17391304,0,-1.7391304e-4)"
         id="g25"
         style="fill:#f16d87;fill-opacity:1" />
      <g
         transform="matrix(0.17391304,0,0,0.17391304,0,-1.7391304e-4)"
         id="g27"
         style="fill:#f16d87;fill-opacity:1" />
      <g
         transform="matrix(0.17391304,0,0,0.17391304,0,-1.7391304e-4)"
         id="g29"
         style="fill:#f16d87;fill-opacity:1" />
      <g
         transform="matrix(0.17391304,0,0,0.17391304,0,-1.7391304e-4)"
         id="g31"
         style="fill:#f16d87;fill-opacity:1" />
      <g
         transform="matrix(0.17391304,0,0,0.17391304,0,-1.7391304e-4)"
         id="g33"
         style="fill:#f16d87;fill-opacity:1" />
    </g>
  </g>
</svg>
