<?xml version="1.0" encoding="UTF-8" standalone="no"?>
<!-- Created with Inkscape (http://www.inkscape.org/) -->

<svg
   xmlns:dc="http://purl.org/dc/elements/1.1/"
   xmlns:cc="http://creativecommons.org/ns#"
   xmlns:rdf="http://www.w3.org/1999/02/22-rdf-syntax-ns#"
   xmlns:svg="http://www.w3.org/2000/svg"
   xmlns="http://www.w3.org/2000/svg"
   xmlns:xlink="http://www.w3.org/1999/xlink"
   xmlns:sodipodi="http://sodipodi.sourceforge.net/DTD/sodipodi-0.dtd"
   xmlns:inkscape="http://www.inkscape.org/namespaces/inkscape"
   width="16"
   height="16"
   id="svg2"
   version="1.1"
   inkscape:version="0.48.5 r10040"
   sodipodi:docname="start-here.svg">
  <defs
     id="defs4">
    <linearGradient
       inkscape:collect="always"
       id="linearGradient3874">
      <stop
         style="stop-color:#000000;stop-opacity:1;"
         offset="0"
         id="stop3876" />
      <stop
         style="stop-color:#000000;stop-opacity:0;"
         offset="1"
         id="stop3878" />
    </linearGradient>
    <linearGradient
       inkscape:collect="always"
       id="linearGradient3861">
      <stop
         style="stop-color:#000000;stop-opacity:1;"
         offset="0"
         id="stop3863" />
      <stop
         style="stop-color:#000000;stop-opacity:0;"
         offset="1"
         id="stop3865" />
    </linearGradient>
    <linearGradient
       id="linearGradient3844">
      <stop
         style="stop-color:#000000;stop-opacity:0.39215687;"
         offset="0"
         id="stop3846" />
      <stop
         style="stop-color:#000000;stop-opacity:0;"
         offset="1"
         id="stop3848" />
    </linearGradient>
    <linearGradient
       id="linearGradient3810">
      <stop
         style="stop-color:#f16d87;stop-opacity:1;"
         offset="0"
         id="stop3812" />
      <stop
         style="stop-color:#f88ca1;stop-opacity:1;"
         offset="1"
         id="stop3814" />
    </linearGradient>
    <linearGradient
       inkscape:collect="always"
       xlink:href="#linearGradient3810"
       id="linearGradient3816"
       x1="24"
       y1="1046.3622"
       x2="24"
       y2="1014.3622"
       gradientUnits="userSpaceOnUse" />
    <linearGradient
       inkscape:collect="always"
       xlink:href="#linearGradient3810"
       id="linearGradient3856"
       gradientUnits="userSpaceOnUse"
       x1="24"
       y1="1046.3622"
       x2="24"
       y2="1014.3622"
       gradientTransform="translate(0,-3)" />
    <linearGradient
       inkscape:collect="always"
       xlink:href="#linearGradient3810"
       id="linearGradient3858"
       gradientUnits="userSpaceOnUse"
       x1="24"
       y1="1046.3622"
       x2="24"
       y2="1014.3622"
       gradientTransform="translate(0,-1004.3622)" />
    <linearGradient
       inkscape:collect="always"
       xlink:href="#linearGradient3861"
       id="linearGradient3867"
       x1="1.9952807"
       y1="28.5625"
       x2="46.004719"
       y2="28.5625"
       gradientUnits="userSpaceOnUse" />
    <linearGradient
       inkscape:collect="always"
       xlink:href="#linearGradient3874"
       id="linearGradient3880"
       x1="24"
       y1="42"
       x2="24"
       y2="38"
       gradientUnits="userSpaceOnUse"
       gradientTransform="translate(-44,1004.3622)" />
    <linearGradient
       inkscape:collect="always"
       xlink:href="#linearGradient3810"
       id="linearGradient3896"
       gradientUnits="userSpaceOnUse"
       x1="24"
       y1="1046.3622"
       x2="24"
       y2="1004.3622" />
    <linearGradient
       inkscape:collect="always"
       xlink:href="#linearGradient3810"
       id="linearGradient3841"
       gradientUnits="userSpaceOnUse"
       x1="24"
       y1="1046.3622"
       x2="24"
       y2="1004.3622"
       gradientTransform="translate(0,1)" />
    <linearGradient
       inkscape:collect="always"
       xlink:href="#linearGradient3810"
       id="linearGradient3843"
       gradientUnits="userSpaceOnUse"
       x1="24"
       y1="1046.3622"
       x2="24"
       y2="1004.3622"
       gradientTransform="translate(0,-1004.3622)" />
    <linearGradient
       inkscape:collect="always"
       xlink:href="#linearGradient3810"
       id="linearGradient3850"
       gradientUnits="userSpaceOnUse"
       gradientTransform="translate(-26,0)"
       x1="24"
       y1="1046.3622"
       x2="24"
       y2="1004.3622" />
    <linearGradient
       inkscape:collect="always"
       xlink:href="#linearGradient3810"
       id="linearGradient3857"
       gradientUnits="userSpaceOnUse"
       x1="24"
       y1="1046.3622"
       x2="24"
       y2="1004.3622"
       gradientTransform="translate(0,1)" />
    <linearGradient
       inkscape:collect="always"
       xlink:href="#linearGradient3810"
       id="linearGradient3859"
       gradientUnits="userSpaceOnUse"
       x1="24"
       y1="1046.3622"
       x2="24"
       y2="1004.3622"
       gradientTransform="translate(0,-1004.3622)" />
  </defs>
  <sodipodi:namedview
     id="base"
     pagecolor="#ffffff"
     bordercolor="#666666"
     borderopacity="1.0"
     inkscape:pageopacity="0.0"
     inkscape:pageshadow="2"
     inkscape:zoom="30.212225"
     inkscape:cx="-1.6401825"
     inkscape:cy="12.000092"
     inkscape:document-units="px"
     inkscape:current-layer="layer1"
     showgrid="true"
     inkscape:window-width="1920"
     inkscape:window-height="1052"
     inkscape:window-x="0"
     inkscape:window-y="28"
     inkscape:window-maximized="1"
     showguides="true"
     inkscape:guide-bbox="true">
    <inkscape:grid
       type="xygrid"
       id="grid2990"
       empspacing="5"
       visible="true"
       enabled="true"
       snapvisiblegridlinesonly="true" />
  </sodipodi:namedview>
  <metadata
     id="metadata7">
    <rdf:RDF>
      <cc:Work
         rdf:about="">
        <dc:format>image/svg+xml</dc:format>
        <dc:type
           rdf:resource="http://purl.org/dc/dcmitype/StillImage" />
        <dc:title></dc:title>
      </cc:Work>
    </rdf:RDF>
  </metadata>
  <g
     inkscape:label="Layer"
     inkscape:groupmode="layer"
     id="layer1"
     transform="translate(0,-1036.3622)">
    <path
       style="fill:#333333;fill-opacity:1;fill-rule:evenodd;stroke:none;display:inline"
       d="M 1.03125 0.21875 C 0.72149437 0.24817578 0.48843153 0.35755 0.3125 0.53125 C 0.011977 0.83045 -0.0570274 1.3337 0.0625 2 C 0.18194732 2.6664 0.51052454 3.5084 1.03125 4.4375 C 0.62629096 2.9465776 0.036221993 0.35544981 2.3125 0.9375 C 2.413212 0.77679837 2.5466733 0.6569792 2.6875 0.53125 C 2.0419809 0.3062595 1.4612598 0.17790046 1.03125 0.21875 z M 3.03125 1.8125 C 3.02912 1.8295 3.00213 1.81975 3 1.84375 A 1.0005934 1.0002005 0 0 0 3 1.90625 C 3.0026494 1.8740149 3.0258789 1.8440083 3.03125 1.8125 z M 5 2.09375 C 4.9948304 2.1566478 4.9841635 2.221518 4.96875 2.28125 A 1.0005934 1.0002005 0 0 0 5 2.09375 z M 5.96875 2.3125 C 5.9395154 2.4986602 5.8893555 2.6783754 5.8125 2.84375 C 7.1233257 3.7757913 8.5510558 4.9444341 9.875 6.25 C 15.434449 11.8662 16.683312 17.64895 9.34375 13.46875 C 10.807016 14.54555 12.202228 15.32875 13.3125 15.71875 C 14.422787 16.10855 15.234091 16.1017 15.65625 15.6875 C 15.953448 15.3943 16.078548 14.9001 15.96875 14.25 C 15.858954 13.6 15.531265 12.7829 15.03125 11.875 C 14.030987 10.0592 12.289982 7.8567 10.28125 5.875 C 8.8919415 4.5049966 7.373411 3.2764212 5.96875 2.3125 z "
       transform="translate(0,1036.3622)"
       id="path4157" />
    <path
       style="fill:#35cbc4;fill-opacity:1;fill-rule:evenodd;stroke:none;display:inline"
       d="m 3,1043.3622 2,6 1,-3 3,-1 z"
       id="path4299"
       inkscape:connector-curvature="0"
       sodipodi:nodetypes="ccccc" />
    <path
       style="fill:#35cbc4;fill-opacity:1;stroke:none"
       d="M 4 0 C 2.8954305 7.4014868e-16 2 0.8954305 2 2 C 2 3.1045695 2.8954305 4 4 4 C 5.1045695 4 6 3.1045695 6 2 C 6 0.8954305 5.1045695 0 4 0 z M 3.90625 1 A 1.0005934 1.0002005 0 0 1 4 1 A 1.0005934 1.0002005 0 0 1 5 2 A 1.0005934 1.0002005 0 0 1 4.9375 2.375 C 4.93111 2.399 4.912877 2.39025 4.90625 2.40625 A 1.0005934 1.0002005 0 0 1 4.90625 2.4375 C 4.89868 2.4615 4.883519 2.484 4.875 2.5 A 1.0005934 1.0002005 0 0 1 4.875 2.53125 C 4.86554 2.55525 4.853215 2.5485 4.84375 2.5625 C 4.820085 2.5985 4.779344 2.62355 4.75 2.65625 A 1.0005934 1.0002005 0 0 1 4.71875 2.6875 C 4.706444 2.7115 4.698859 2.70775 4.6875 2.71875 A 1.0005934 1.0002005 0 0 1 4.65625 2.75 C 4.64679 2.75 4.635413 2.77925 4.625 2.78125 A 1.0005934 1.0002005 0 0 1 4.5625 2.8125 A 1.0005934 1.0002005 0 0 1 4 3 A 1.0005934 1.0002005 0 0 1 3 2 A 1.0005934 1.0002005 0 0 1 3 1.9375 C 3.0007383 1.9135 2.99859 1.92125 3 1.90625 A 1.0005934 1.0002005 0 0 1 3 1.84375 C 3.00213 1.81975 3.02912 1.8295 3.03125 1.8125 A 1.0005934 1.0002005 0 0 1 3.03125 1.78125 C 3.04545 1.72225 3.070084 1.64815 3.09375 1.59375 A 1.0005934 1.0002005 0 0 1 3.09375 1.5625 C 3.10203 1.5385 3.115534 1.54825 3.125 1.53125 A 1.0005934 1.0002005 0 0 1 3.125 1.5 C 3.13423 1.476 3.145837 1.4515 3.15625 1.4375 C 3.17045 1.4135 3.202658 1.394 3.21875 1.375 A 1.0005934 1.0002005 0 0 1 3.28125 1.3125 A 1.0005934 1.0002005 0 0 1 3.90625 1 z "
       id="path4160"
       transform="translate(0,1036.3622)" />
  </g>
</svg>
