<?xml version="1.0" encoding="UTF-8" standalone="no"?>
<svg
   xmlns:dc="http://purl.org/dc/elements/1.1/"
   xmlns:cc="http://creativecommons.org/ns#"
   xmlns:rdf="http://www.w3.org/1999/02/22-rdf-syntax-ns#"
   xmlns:svg="http://www.w3.org/2000/svg"
   xmlns="http://www.w3.org/2000/svg"
   xmlns:sodipodi="http://sodipodi.sourceforge.net/DTD/sodipodi-0.dtd"
   xmlns:inkscape="http://www.inkscape.org/namespaces/inkscape"
   enable-background="new 0 0 32 32"
   height="16"
   id="Layer_1"
   version="1.1"
   viewBox="0 0 16 16"
   width="16"
   xml:space="preserve"
   inkscape:version="0.48.5 r10040"
   sodipodi:docname="document-properties-symbolic.svg"><metadata
     id="metadata12"><rdf:RDF><cc:Work
         rdf:about=""><dc:format>image/svg+xml</dc:format><dc:type
           rdf:resource="http://purl.org/dc/dcmitype/StillImage" /><dc:title></dc:title></cc:Work></rdf:RDF></metadata><defs
     id="defs10" /><sodipodi:namedview
     pagecolor="#ffffff"
     bordercolor="#666666"
     borderopacity="1"
     objecttolerance="10"
     gridtolerance="10"
     guidetolerance="10"
     inkscape:pageopacity="0"
     inkscape:pageshadow="2"
     inkscape:window-width="1920"
     inkscape:window-height="1052"
     id="namedview8"
     showgrid="true"
     inkscape:zoom="40.971713"
     inkscape:cx="3.6040611"
     inkscape:cy="2.9865107"
     inkscape:window-x="0"
     inkscape:window-y="28"
     inkscape:window-maximized="1"
     inkscape:current-layer="Layer_1"
     showguides="true"
     inkscape:guide-bbox="true"><inkscape:grid
       type="xygrid"
       id="grid2991"
       empspacing="5"
       visible="true"
       enabled="true"
       snapvisiblegridlinesonly="true" /></sodipodi:namedview><g
     id="layer9"
     inkscape:label="status"
     style="display:inline;fill:#bebebe;fill-opacity:1"
     transform="translate(-359.68769,-764.24996)" /><g
     id="layer10"
     inkscape:label="devices"
     transform="translate(-359.68769,-764.24996)"
     style="fill:#bebebe;fill-opacity:1" /><g
     id="layer11"
     inkscape:label="apps"
     transform="translate(-359.68769,-764.24996)"
     style="fill:#bebebe;fill-opacity:1" /><g
     id="layer13"
     inkscape:label="places"
     transform="translate(-359.68769,-764.24996)"
     style="fill:#bebebe;fill-opacity:1" /><g
     id="layer14"
     inkscape:label="mimetypes"
     transform="translate(-359.68769,-764.24996)"
     style="fill:#bebebe;fill-opacity:1" /><g
     id="layer15"
     inkscape:label="emblems"
     style="display:inline;fill:#bebebe;fill-opacity:1"
     transform="translate(-359.68769,-764.24996)" /><g
     id="g71291"
     inkscape:label="emotes"
     style="display:inline;fill:#bebebe;fill-opacity:1"
     transform="translate(-359.68769,-764.24996)" /><g
     id="g4953"
     inkscape:label="categories"
     style="display:inline;fill:#bebebe;fill-opacity:1"
     transform="translate(-359.68769,-764.24996)" /><path
     style="fill:#bebebe;fill-opacity:1;stroke:none"
     d="m 2.0000001,0 c -0.5539884,0 -1,0.4460347 -1,1 l 10e-8,13.999933 c 0,0.553965 0.4460116,0.999992 1,1 L 7.0000001,16 l 0,-2 -3.9999999,-6.7e-5 L 3.0000001,2 10,2 10,4.75 C 10,4.8966457 10.103415,5 10.25,5 l 2.75,0 0,3.0000254 2,0 L 15,5 14.90625,4.90625 13,3 12,2 10.0625,0.0625 10,0 z"
     id="rect4143"
     inkscape:connector-curvature="0"
     sodipodi:nodetypes="sssscccccsscccccccccs" /><path
     style="font-size:medium;font-style:normal;font-variant:normal;font-weight:normal;font-stretch:normal;text-indent:0;text-align:start;text-decoration:none;line-height:normal;letter-spacing:normal;word-spacing:normal;text-transform:none;direction:ltr;block-progression:tb;writing-mode:lr-tb;text-anchor:start;color:#000000;fill:#bebebe;fill-opacity:1;fill-rule:nonzero;stroke:none;stroke-width:3;marker:none;visibility:visible;display:inline;overflow:visible;enable-background:accumulate;font-family:Sans;-inkscape-font-specification:Sans"
     sodipodi:nodetypes="cccscccssccccssc"
     id="path3908-6-6"
     d="M 11.019899,7.8451272 C 10.695038,7.7861666 10.353,7.7997729 10.02586,7.8421414 l 0.975899,1.7287176 c 0.200878,0.355276 -0.0237,0.762822 -0.45022,1.009096 l -0.7699095,0.444511 c -0.4305199,0.239244 -0.91014,0.207874 -1.11067,-0.147402 L 7.6953096,9.148233 c -0.2068498,0.256252 -0.39602,0.540397 -0.5141503,0.847634 -0.5653799,1.470614 0.236761,2.891679 1.79162,3.174161 0.3248504,0.05896 0.6668802,0.04535 0.9940202,0.003 C 9.993105,13.169234 11.5,16.0001 11.5,16.0001 l 3.5,-7.5e-5 -2.677221,-4.129663 c 0.206808,-0.256252 0.37073,-0.543799 0.48887,-0.851036 0.56534,-1.470577 -0.236791,-2.891679 -1.79161,-3.1741232 z"
     inkscape:connector-curvature="0" /></svg>