<?xml version="1.0" encoding="UTF-8" standalone="no"?>
<svg
   xmlns:dc="http://purl.org/dc/elements/1.1/"
   xmlns:cc="http://creativecommons.org/ns#"
   xmlns:rdf="http://www.w3.org/1999/02/22-rdf-syntax-ns#"
   xmlns:svg="http://www.w3.org/2000/svg"
   xmlns="http://www.w3.org/2000/svg"
   xmlns:sodipodi="http://sodipodi.sourceforge.net/DTD/sodipodi-0.dtd"
   xmlns:inkscape="http://www.inkscape.org/namespaces/inkscape"
   enable-background="new 0 0 32 32"
   height="16"
   id="Layer_1"
   version="1.1"
   viewBox="0 0 16 16"
   width="16"
   xml:space="preserve"
   inkscape:version="0.48.5 r10040"
   sodipodi:docname="tŭrsene.svg"><metadata
     id="metadata12"><rdf:RDF><cc:Work
         rdf:about=""><dc:format>image/svg+xml</dc:format><dc:type
           rdf:resource="http://purl.org/dc/dcmitype/StillImage" /><dc:title></dc:title></cc:Work></rdf:RDF></metadata><defs
     id="defs10" /><sodipodi:namedview
     pagecolor="#ffffff"
     bordercolor="#666666"
     borderopacity="1"
     objecttolerance="10"
     gridtolerance="10"
     guidetolerance="10"
     inkscape:pageopacity="0"
     inkscape:pageshadow="2"
     inkscape:window-width="1920"
     inkscape:window-height="1023"
     id="namedview8"
     showgrid="true"
     inkscape:zoom="74.668283"
     inkscape:cx="7.4873488"
     inkscape:cy="10.613199"
     inkscape:window-x="0"
     inkscape:window-y="28"
     inkscape:window-maximized="1"
     inkscape:current-layer="Layer_1"><inkscape:grid
       type="xygrid"
       id="grid2991"
       empspacing="5"
       visible="true"
       enabled="true"
       snapvisiblegridlinesonly="true" /></sodipodi:namedview><path
     style="fill:#bebebe;fill-opacity:1"
     inkscape:connector-curvature="0"
     id="path6"
     d="m 15.826831,13.431682 -2.83299,-2.81336 c -0.231054,-0.229941 -0.608786,-0.229941 -0.83935,0 l -1.57421,1.562815 c -0.230564,0.228966 -0.230564,0.604568 0,0.833534 l 2.83299,2.812874 c 0.231054,0.22994 0.608295,0.22994 0.83935,0 l 1.57421,-1.562329 c 0.230564,-0.230427 0.230564,-0.604568 0,-0.833534 z" /><rect
     style="fill:#bebebe;fill-opacity:1;stroke:none"
     id="rect3036"
     width="2"
     height="5"
     x="-0.98901576"
     y="11.567333"
     transform="matrix(0.70710678,-0.70710678,0.70710678,0.70710678,0,0)" /><path
     style="fill:#bebebe;fill-opacity:1;stroke:none"
     d="M 5 0 C 2.2385763 1.1842379e-15 0 2.2385763 0 5 C -5.9211895e-16 7.7614237 2.2385763 10 5 10 C 7.7614237 10 10 7.7614237 10 5 C 10 2.2385763 7.7614237 -9.868649e-16 5 0 z M 5 2 C 6.6568542 2 8 3.3431457 8 5 C 8 6.6568543 6.6568542 8 5 8 C 3.3431458 8 2 6.6568543 2 5 C 2 3.3431457 3.3431458 2 5 2 z "
     id="path3806" /></svg>