<?xml version="1.0" encoding="UTF-8" standalone="no"?>
<svg
   xmlns:dc="http://purl.org/dc/elements/1.1/"
   xmlns:cc="http://creativecommons.org/ns#"
   xmlns:rdf="http://www.w3.org/1999/02/22-rdf-syntax-ns#"
   xmlns:svg="http://www.w3.org/2000/svg"
   xmlns="http://www.w3.org/2000/svg"
   xmlns:sodipodi="http://sodipodi.sourceforge.net/DTD/sodipodi-0.dtd"
   xmlns:inkscape="http://www.inkscape.org/namespaces/inkscape"
   enable-background="new 0 0 32 32"
   height="16"
   id="Layer_1"
   version="1.1"
   viewBox="0 0 16 16"
   width="16"
   xml:space="preserve"
   inkscape:version="0.48.5 r10040"
   sodipodi:docname="hamburger-menju.svg"><metadata
     id="metadata26"><rdf:RDF><cc:Work
         rdf:about=""><dc:format>image/svg+xml</dc:format><dc:type
           rdf:resource="http://purl.org/dc/dcmitype/StillImage" /><dc:title /></cc:Work></rdf:RDF></metadata><defs
     id="defs24" /><sodipodi:namedview
     pagecolor="#ffffff"
     bordercolor="#666666"
     borderopacity="1"
     objecttolerance="10"
     gridtolerance="10"
     guidetolerance="10"
     inkscape:pageopacity="0"
     inkscape:pageshadow="2"
     inkscape:window-width="1920"
     inkscape:window-height="1023"
     id="namedview22"
     showgrid="true"
     inkscape:zoom="39.450861"
     inkscape:cx="7.9119765"
     inkscape:cy="11.773872"
     inkscape:window-x="0"
     inkscape:window-y="28"
     inkscape:window-maximized="1"
     inkscape:current-layer="Layer_1"><inkscape:grid
       type="xygrid"
       id="grid3003"
       empspacing="5"
       visible="true"
       enabled="true"
       snapvisiblegridlinesonly="true" /></sodipodi:namedview><path
     sodipodi:type="arc"
     style="fill:#bebebe;fill-opacity:1;stroke:none"
     id="path2991"
     sodipodi:cx="7.8088827"
     sodipodi:cy="3"
     sodipodi:rx="1.8088827"
     sodipodi:ry="2"
     d="M 9.6177654,3 A 1.8088827,2 0 1 1 6,3 1.8088827,2 0 1 1 9.6177654,3 z"
     transform="matrix(1.1056549,0,0,1,-0.6339293,-1)" /><path
     transform="matrix(1.1056549,0,0,1,-0.6339293,5)"
     d="M 9.6177654,3 A 1.8088827,2 0 1 1 6,3 1.8088827,2 0 1 1 9.6177654,3 z"
     sodipodi:ry="2"
     sodipodi:rx="1.8088827"
     sodipodi:cy="3"
     sodipodi:cx="7.8088827"
     id="path2993"
     style="fill:#bebebe;fill-opacity:1;stroke:none"
     sodipodi:type="arc" /><path
     sodipodi:type="arc"
     style="fill:#bebebe;fill-opacity:1;stroke:none"
     id="path2995"
     sodipodi:cx="7.8088827"
     sodipodi:cy="3"
     sodipodi:rx="1.8088827"
     sodipodi:ry="2"
     d="M 9.6177654,3 A 1.8088827,2 0 1 1 6,3 1.8088827,2 0 1 1 9.6177654,3 z"
     transform="matrix(1.1056549,0,0,1,-0.6339293,11)" /></svg>