<?xml version="1.0" encoding="UTF-8" standalone="no"?>
<!-- Created with Inkscape (http://www.inkscape.org/) -->

<svg
   xmlns:dc="http://purl.org/dc/elements/1.1/"
   xmlns:cc="http://creativecommons.org/ns#"
   xmlns:rdf="http://www.w3.org/1999/02/22-rdf-syntax-ns#"
   xmlns:svg="http://www.w3.org/2000/svg"
   xmlns="http://www.w3.org/2000/svg"
   xmlns:xlink="http://www.w3.org/1999/xlink"
   xmlns:sodipodi="http://sodipodi.sourceforge.net/DTD/sodipodi-0.dtd"
   xmlns:inkscape="http://www.inkscape.org/namespaces/inkscape"
   width="48"
   height="48"
   id="svg4230"
   version="1.1"
   inkscape:version="0.91+devel r"
   sodipodi:docname="audio-speakers.svg">
  <defs
     id="defs4232">
    <linearGradient
       inkscape:collect="always"
       id="linearGradient3963">
      <stop
         style="stop-color:#000000;stop-opacity:1;"
         offset="0"
         id="stop3965" />
      <stop
         style="stop-color:#000000;stop-opacity:0;"
         offset="1"
         id="stop3967" />
    </linearGradient>
    <linearGradient
       id="linearGradient3928">
      <stop
         style="stop-color:#000000;stop-opacity:1;"
         offset="0"
         id="stop3930" />
      <stop
         style="stop-color:#000000;stop-opacity:0;"
         offset="1"
         id="stop3932" />
    </linearGradient>
    <linearGradient
       inkscape:collect="always"
       id="linearGradient3912">
      <stop
         style="stop-color:#000000;stop-opacity:1;"
         offset="0"
         id="stop3914" />
      <stop
         style="stop-color:#000000;stop-opacity:0;"
         offset="1"
         id="stop3916" />
    </linearGradient>
    <linearGradient
       inkscape:collect="always"
       id="linearGradient3886">
      <stop
         style="stop-color:#ffffff;stop-opacity:1;"
         offset="0"
         id="stop3888" />
      <stop
         style="stop-color:#ffffff;stop-opacity:0;"
         offset="1"
         id="stop3890" />
    </linearGradient>
    <linearGradient
       id="linearGradient3874">
      <stop
         id="stop3876"
         offset="0"
         style="stop-color:#d79405;stop-opacity:1;" />
      <stop
         id="stop3878"
         offset="1"
         style="stop-color:#fef226;stop-opacity:1;" />
    </linearGradient>
    <linearGradient
       id="linearGradient3862">
      <stop
         style="stop-color:#cacdd0;stop-opacity:1;"
         offset="0"
         id="stop3864" />
      <stop
         style="stop-color:#f8f9f9;stop-opacity:1;"
         offset="1"
         id="stop3866" />
    </linearGradient>
    <linearGradient
       id="linearGradient4524">
      <stop
         style="stop-color:#1d81d5;stop-opacity:1;"
         offset="0"
         id="stop4526" />
      <stop
         style="stop-color:#6cbdf4;stop-opacity:1;"
         offset="1"
         id="stop4528" />
    </linearGradient>
    <linearGradient
       id="linearGradient4512">
      <stop
         style="stop-color:#d9d2d1;stop-opacity:1;"
         offset="0"
         id="stop4514" />
      <stop
         style="stop-color:#fefcfc;stop-opacity:1;"
         offset="1"
         id="stop4516" />
    </linearGradient>
    <linearGradient
       id="linearGradient4243">
      <stop
         style="stop-color:#000000;stop-opacity:1;"
         offset="0"
         id="stop4245" />
      <stop
         style="stop-color:#000000;stop-opacity:0;"
         offset="1"
         id="stop4247" />
    </linearGradient>
    <linearGradient
       id="linearGradient4216">
      <stop
         style="stop-color:#a0c4e6;stop-opacity:1;"
         offset="0"
         id="stop4218" />
      <stop
         style="stop-color:#d0e2f1;stop-opacity:1;"
         offset="1"
         id="stop4220" />
    </linearGradient>
    <linearGradient
       id="linearGradient4208">
      <stop
         style="stop-color:#70a3d6;stop-opacity:1;"
         offset="0"
         id="stop4210" />
      <stop
         style="stop-color:#88b6e1;stop-opacity:1;"
         offset="1"
         id="stop4212" />
    </linearGradient>
    <linearGradient
       id="linearGradient4200">
      <stop
         style="stop-color:#427dbe;stop-opacity:1;"
         offset="0"
         id="stop4202" />
      <stop
         style="stop-color:#739bd1;stop-opacity:1;"
         offset="1"
         id="stop4204" />
    </linearGradient>
    <linearGradient
       id="linearGradient4192">
      <stop
         style="stop-color:#4970a4;stop-opacity:1;"
         offset="0"
         id="stop4194" />
      <stop
         style="stop-color:#6090c0;stop-opacity:1;"
         offset="1"
         id="stop4196" />
    </linearGradient>
    <radialGradient
       inkscape:collect="always"
       xlink:href="#linearGradient3688-166-749-5-9-1"
       id="radialGradient4351"
       gradientUnits="userSpaceOnUse"
       gradientTransform="matrix(2.3201711,0,0,0.39999996,28.617836,28.600002)"
       cx="4.9929786"
       cy="43.5"
       fx="4.9929786"
       fy="43.5"
       r="2.5" />
    <linearGradient
       id="linearGradient3688-166-749-5-9-1">
      <stop
         id="stop2883-0-2-9"
         style="stop-color:#181818;stop-opacity:1"
         offset="0" />
      <stop
         id="stop2885-5-3-8"
         style="stop-color:#181818;stop-opacity:0"
         offset="1" />
    </linearGradient>
    <linearGradient
       id="linearGradient3688-464-309-8-9-4">
      <stop
         id="stop2889-9-9-1"
         style="stop-color:#181818;stop-opacity:1"
         offset="0" />
      <stop
         id="stop2891-4-2-9"
         style="stop-color:#181818;stop-opacity:0"
         offset="1" />
    </linearGradient>
    <linearGradient
       id="linearGradient3702-501-757-0-4-0">
      <stop
         id="stop2895-0-2-1"
         style="stop-color:#181818;stop-opacity:0"
         offset="0" />
      <stop
         id="stop2897-2-8-2"
         style="stop-color:#181818;stop-opacity:1"
         offset="0.5" />
      <stop
         id="stop2899-6-1-6"
         style="stop-color:#181818;stop-opacity:0"
         offset="1" />
    </linearGradient>
    <linearGradient
       id="linearGradient3811-3">
      <stop
         style="stop-color:#000000;stop-opacity:1;"
         offset="0"
         id="stop3813-0" />
      <stop
         style="stop-color:#000000;stop-opacity:0;"
         offset="1"
         id="stop3815-0" />
    </linearGradient>
    <clipPath
       id="clipPath-887332295">
      <g
         id="g3945"
         transform="translate(0,-1004.3622)">
        <rect
           id="rect3947"
           fill="#1890d0"
           width="46"
           height="46"
           x="1"
           y="1005.36"
           rx="4" />
      </g>
    </clipPath>
    <clipPath
       id="clipPath-867792831">
      <g
         id="g3940"
         transform="translate(0,-1004.3622)">
        <rect
           id="rect3942"
           fill="#1890d0"
           width="46"
           height="46"
           x="1"
           y="1005.36"
           rx="4" />
      </g>
    </clipPath>
    <linearGradient
       gradientTransform="translate(-47.997785,0.00221467)"
       gradientUnits="userSpaceOnUse"
       x2="47"
       x1="1"
       id="linearGradient3764">
      <stop
         id="stop3935"
         stop-opacity="1"
         stop-color="#e4e4e4" />
      <stop
         id="stop3937"
         stop-opacity="1"
         stop-color="#eee"
         offset="1" />
    </linearGradient>
    <radialGradient
       inkscape:collect="always"
       xlink:href="#linearGradient4243"
       id="radialGradient4274"
       gradientUnits="userSpaceOnUse"
       gradientTransform="matrix(1.0434782,0,0,0.1956518,-1.0434797,35.184809)"
       cx="24.000001"
       cy="42.499991"
       fx="24.000001"
       fy="42.499991"
       r="23" />
    <linearGradient
       inkscape:collect="always"
       xlink:href="#linearGradient4524"
       id="linearGradient4530"
       x1="24"
       y1="46"
       x2="24"
       y2="2"
       gradientUnits="userSpaceOnUse" />
    <linearGradient
       inkscape:collect="always"
       xlink:href="#linearGradient4512"
       id="linearGradient4554"
       gradientUnits="userSpaceOnUse"
       x1="12.5"
       y1="28.000042"
       x2="12.5"
       y2="17.000042" />
    <linearGradient
       inkscape:collect="always"
       xlink:href="#linearGradient3862"
       id="linearGradient3868"
       x1="-25.5"
       y1="8"
       x2="-25.5"
       y2="40"
       gradientUnits="userSpaceOnUse" />
    <linearGradient
       inkscape:collect="always"
       xlink:href="#linearGradient3874"
       id="linearGradient3872"
       gradientUnits="userSpaceOnUse"
       x1="-25.5"
       y1="8"
       x2="-25.5"
       y2="40"
       gradientTransform="matrix(0.64516129,0,0,0.62499998,4.451613,8)" />
    <radialGradient
       inkscape:collect="always"
       xlink:href="#linearGradient3886"
       id="radialGradient3892"
       cx="-25.5"
       cy="24"
       fx="-25.5"
       fy="24"
       r="15.5"
       gradientTransform="matrix(0.38709677,0,0,0.38709678,33.870968,1015.0719)"
       gradientUnits="userSpaceOnUse" />
    <linearGradient
       inkscape:collect="always"
       xlink:href="#linearGradient3874"
       id="linearGradient3899"
       gradientUnits="userSpaceOnUse"
       x1="-25.5"
       y1="8"
       x2="-25.5"
       y2="40" />
    <linearGradient
       inkscape:collect="always"
       xlink:href="#linearGradient3874"
       id="linearGradient3903"
       gradientUnits="userSpaceOnUse"
       x1="-25.5"
       y1="8"
       x2="-25.5"
       y2="40" />
    <radialGradient
       inkscape:collect="always"
       xlink:href="#linearGradient3912"
       id="radialGradient3918"
       cx="-25.5"
       cy="24"
       fx="-25.5"
       fy="24"
       r="15.5"
       gradientTransform="matrix(1,0,0,1.0322581,0,-0.77419355)"
       gradientUnits="userSpaceOnUse" />
    <radialGradient
       inkscape:collect="always"
       xlink:href="#linearGradient3928"
       id="radialGradient3934"
       cx="-25.5"
       cy="24"
       fx="-25.5"
       fy="24"
       r="15.5"
       gradientTransform="matrix(0.83870968,0,0,0.83870968,45.387097,2.8709678)"
       gradientUnits="userSpaceOnUse" />
    <radialGradient
       inkscape:collect="always"
       xlink:href="#linearGradient3928"
       id="radialGradient3949"
       gradientUnits="userSpaceOnUse"
       gradientTransform="matrix(0.83870968,0,0,0.83870968,45.387097,1007.2332)"
       cx="-25.5"
       cy="24"
       fx="-25.5"
       fy="24"
       r="15.5" />
    <radialGradient
       inkscape:collect="always"
       xlink:href="#linearGradient3928"
       id="radialGradient3951"
       gradientUnits="userSpaceOnUse"
       gradientTransform="matrix(0.83870968,0,0,0.83870968,25.387097,1007.2332)"
       cx="-25.5"
       cy="24"
       fx="-25.5"
       fy="24"
       r="15.5" />
    <radialGradient
       inkscape:collect="always"
       xlink:href="#linearGradient3928"
       id="radialGradient3953"
       gradientUnits="userSpaceOnUse"
       gradientTransform="matrix(0.83870968,0,0,0.83870968,25.387097,1007.2332)"
       cx="-25.5"
       cy="24"
       fx="-25.5"
       fy="24"
       r="15.5" />
    <radialGradient
       inkscape:collect="always"
       xlink:href="#linearGradient3928"
       id="radialGradient3955"
       gradientUnits="userSpaceOnUse"
       gradientTransform="matrix(0.83870968,0,0,0.83870968,29.387097,1007.2332)"
       cx="-25.5"
       cy="24"
       fx="-25.5"
       fy="24"
       r="15.5" />
    <radialGradient
       inkscape:collect="always"
       xlink:href="#linearGradient3963"
       id="radialGradient3969"
       cx="-25.5"
       cy="24"
       fx="-25.5"
       fy="24"
       r="15.5"
       gradientTransform="matrix(1,0,0,1.0322581,0,-0.77419355)"
       gradientUnits="userSpaceOnUse" />
    <linearGradient
       inkscape:collect="always"
       xlink:href="#linearGradient3874"
       id="linearGradient4490"
       gradientUnits="userSpaceOnUse"
       gradientTransform="matrix(0.64516129,0,0,0.62499998,40.451613,1012.3622)"
       x1="-25.5"
       y1="8"
       x2="-25.5"
       y2="40" />
    <radialGradient
       inkscape:collect="always"
       xlink:href="#linearGradient3963"
       id="radialGradient4255"
       gradientUnits="userSpaceOnUse"
       gradientTransform="matrix(1.0322581,0,0,1.0322581,50.322582,-1055.1364)"
       cx="-25.5"
       cy="26.906256"
       fx="-25.5"
       fy="26.906256"
       r="15.5" />
  </defs>
  <sodipodi:namedview
     id="base"
     pagecolor="#ffffff"
     bordercolor="#666666"
     borderopacity="1.0"
     inkscape:pageopacity="0.0"
     inkscape:pageshadow="2"
     inkscape:zoom="15.12461"
     inkscape:cx="13.374608"
     inkscape:cy="17.977233"
     inkscape:document-units="px"
     inkscape:current-layer="layer1"
     showgrid="true"
     inkscape:showpageshadow="false"
     borderlayer="true"
     inkscape:window-width="1366"
     inkscape:window-height="670"
     inkscape:window-x="-4"
     inkscape:window-y="29"
     inkscape:window-maximized="1"
     showguides="false"
     inkscape:guide-bbox="true">
    <inkscape:grid
       type="xygrid"
       id="grid4162" />
    <sodipodi:guide
       position="1.0000013,47.000017"
       orientation="46,0"
       id="guide4163" />
    <sodipodi:guide
       position="1.0000013,1.0000174"
       orientation="0,45.999999"
       id="guide4165" />
    <sodipodi:guide
       position="47,1.0000174"
       orientation="-46,0"
       id="guide4167" />
    <sodipodi:guide
       position="47,47.000017"
       orientation="0,-45.999999"
       id="guide4169" />
    <sodipodi:guide
       position="2.0000007,46.000017"
       orientation="44,0"
       id="guide4173" />
    <sodipodi:guide
       position="2.0000007,2.0000174"
       orientation="0,43.999999"
       id="guide4175" />
    <sodipodi:guide
       position="46,2.0000174"
       orientation="-44,0"
       id="guide4177" />
    <sodipodi:guide
       position="46,46.000017"
       orientation="0,-43.999999"
       id="guide4179" />
    <sodipodi:guide
       position="3,45.000017"
       orientation="42,0"
       id="guide4183" />
    <sodipodi:guide
       position="45,3.0000174"
       orientation="-42,0"
       id="guide4187" />
    <sodipodi:guide
       position="45,45.000017"
       orientation="0,-42"
       id="guide4189" />
    <sodipodi:guide
       position="3,45.000017"
       orientation="42,0"
       id="guide4193" />
    <sodipodi:guide
       position="3,3.0000174"
       orientation="0,42"
       id="guide4195" />
    <sodipodi:guide
       position="45,3.0000174"
       orientation="-42,0"
       id="guide4197" />
    <sodipodi:guide
       position="45,45.000017"
       orientation="0,-42"
       id="guide4199" />
    <sodipodi:guide
       position="3,10.000017"
       orientation="7,0"
       id="guide4203" />
    <sodipodi:guide
       position="3,3.0000174"
       orientation="0,42"
       id="guide4205" />
    <sodipodi:guide
       position="45,3.0000174"
       orientation="-7,0"
       id="guide4207" />
    <sodipodi:guide
       position="45,10.000017"
       orientation="0,-42"
       id="guide4209" />
  </sodipodi:namedview>
  <metadata
     id="metadata4235">
    <rdf:RDF>
      <cc:Work
         rdf:about="">
        <dc:format>image/svg+xml</dc:format>
        <dc:type
           rdf:resource="http://purl.org/dc/dcmitype/StillImage" />
        <dc:title />
      </cc:Work>
    </rdf:RDF>
  </metadata>
  <g
     inkscape:groupmode="layer"
     id="layer3"
     inkscape:label="Fake blur shadow"
     style="display:inline"
     sodipodi:insensitive="true">
    <path
       style="opacity:0.06000001;fill:#000000;fill-opacity:1;stroke:none"
       d="M 10,1 C 5.014,1 1,5.014 1,10 l 0,28 c 0,4.986 4.014,9 9,9 l 28,0 c 4.986,0 9,-4.014 9,-9 L 47,10 C 47,5.014 42.986,1 38,1 L 10,1 z m 0.5,0.5 27,0 c 4.986,0 9,4.014 9,9 l 0,27 c 0,4.986 -4.014,9 -9,9 l -27,0 c -4.986,0 -9,-4.014 -9,-9 l 0,-27 c 0,-4.986 4.014,-9 9,-9 z"
       id="rect3829"
       inkscape:connector-curvature="0" />
    <path
       style="opacity:0.12000002;fill:#000000;fill-opacity:1;stroke:none"
       d="m 10.5,1.5 c -4.986,0 -9,4.014 -9,9 l 0,27 c 0,4.986 4.014,9 9,9 l 27,0 c 4.986,0 9,-4.014 9,-9 l 0,-27 c 0,-4.986 -4.014,-9 -9,-9 l -27,0 z m 0.25,0.25 26.5,0 c 4.986,0 9,4.014 9,9 l 0,26.5 c 0,4.986 -4.014,9 -9,9 l -26.5,0 c -4.986,0 -9,-4.014 -9,-9 l 0,-26.5 c 0,-4.986 4.014,-9 9,-9 z"
       id="rect3827"
       inkscape:connector-curvature="0" />
    <rect
       style="opacity:0.23999999;fill:#000000;fill-opacity:1;stroke:none"
       id="rect3038-4"
       width="44.5"
       height="44.5"
       x="1.75"
       y="1.75"
       ry="9"
       rx="9" />
  </g>
  <g
     inkscape:groupmode="layer"
     id="layer6"
     inkscape:label="Blob"
     style="display:inline"
     sodipodi:insensitive="true">
    <path
       style="opacity:0.3;fill:url(#radialGradient4274);fill-opacity:1;stroke:none"
       d="M 1.03125,39 C 1.5192036,43.518898 5.3471961,47 10,47 l 28,0 c 4.652804,0 8.480796,-3.481102 8.96875,-8 l -45.9375,0 z"
       id="rect4241"
       inkscape:connector-curvature="0" />
  </g>
  <g
     inkscape:groupmode="layer"
     id="layer2"
     inkscape:label="Baseplate"
     style="display:inline">
    <rect
       style="fill:url(#linearGradient4530);fill-opacity:1;stroke:none"
       id="rect3038"
       width="44"
       height="44"
       x="2"
       y="1.9999826"
       ry="9"
       rx="9" />
  </g>
  <g
     inkscape:label="Symbol"
     inkscape:groupmode="layer"
     id="layer1"
     transform="translate(0,-1004.3622)"
     style="display:inline">
    <path
       sodipodi:type="arc"
       style="fill:url(#radialGradient3969);fill-opacity:1;stroke:none"
       id="path3971"
       sodipodi:cx="-25.5"
       sodipodi:cy="24"
       sodipodi:rx="15.5"
       sodipodi:ry="16"
       d="M -10,24 A 15.5,16 0 0 1 -25.5,40 15.5,16 0 0 1 -41,24 15.5,16 0 0 1 -25.5,8 15.5,16 0 0 1 -10,24 Z"
       transform="matrix(1.0322581,0,0,-1,50.322582,1054.3622)" />
    <circle
       transform="scale(1,-1)"
       id="path3959"
       style="fill:url(#radialGradient4255);fill-opacity:1;stroke:none"
       cx="24"
       cy="-1028.5623"
       r="16" />
    <path
       sodipodi:type="arc"
       style="fill:url(#linearGradient3868);fill-opacity:1;stroke:none"
       id="path3073"
       sodipodi:cx="-25.5"
       sodipodi:cy="24"
       sodipodi:rx="15.5"
       sodipodi:ry="16"
       d="M -10,24 A 15.5,16 0 0 1 -25.5,40 15.5,16 0 0 1 -41,24 15.5,16 0 0 1 -25.5,8 15.5,16 0 0 1 -10,24 Z"
       transform="matrix(1.0322581,0,0,-1,50.322581,1051.3622)" />
    <path
       sodipodi:type="arc"
       style="fill:#505050;fill-opacity:1;stroke:none"
       id="path3901"
       sodipodi:cx="-25.5"
       sodipodi:cy="24"
       sodipodi:rx="15.5"
       sodipodi:ry="16"
       d="M -10,24 A 15.5,16 0 0 1 -25.5,40 15.5,16 0 0 1 -41,24 15.5,16 0 0 1 -25.5,8 15.5,16 0 0 1 -10,24 Z"
       transform="matrix(0.83870968,0,0,0.81249997,45.387097,1007.8622)" />
    <path
       sodipodi:type="arc"
       style="fill:url(#radialGradient3918);fill-opacity:1;stroke:none"
       id="path3908"
       sodipodi:cx="-25.5"
       sodipodi:cy="24"
       sodipodi:rx="15.5"
       sodipodi:ry="16"
       d="M -10,24 A 15.5,16 0 0 1 -25.5,40 15.5,16 0 0 1 -41,24 15.5,16 0 0 1 -25.5,8 15.5,16 0 0 1 -10,24 Z"
       transform="matrix(0.70967742,0,0,0.68749998,42.096774,1010.8622)" />
    <path
       transform="matrix(0.70967742,0,0,0.68749998,42.096774,1010.8622)"
       d="M -10,24 A 15.5,16 0 0 1 -25.5,40 15.5,16 0 0 1 -41,24 15.5,16 0 0 1 -25.5,8 15.5,16 0 0 1 -10,24 Z"
       sodipodi:ry="16"
       sodipodi:rx="15.5"
       sodipodi:cy="24"
       sodipodi:cx="-25.5"
       id="path3920"
       style="fill:url(#radialGradient3918);fill-opacity:1;stroke:none"
       sodipodi:type="arc" />
    <path
       sodipodi:type="arc"
       style="fill:url(#radialGradient3918);fill-opacity:1;stroke:none"
       id="path3922"
       sodipodi:cx="-25.5"
       sodipodi:cy="24"
       sodipodi:rx="15.5"
       sodipodi:ry="16"
       d="M -10,24 A 15.5,16 0 0 1 -25.5,40 15.5,16 0 0 1 -41,24 15.5,16 0 0 1 -25.5,8 15.5,16 0 0 1 -10,24 Z"
       transform="matrix(0.70967742,0,0,0.68749998,42.096774,1010.8622)" />
    <path
       style="fill:url(#linearGradient4490);fill-opacity:1;stroke:none"
       d="m 24,1017.3622 c -0.334756,0 -0.673691,0.03 -1,0.062 l 0,0.9375 1,0 0,-1 z m 0,1 0,1 1,0 0,-1 -1,0 z m 1,0 1,0 0,-0.7812 c -0.335315,-0.069 -0.653374,-0.1222 -1,-0.1563 l 0,0.9375 z m 1,0 0,1 1,0 0,-1 -1,0 z m 1,0 1,0 0,-0.1875 c -0.318616,-0.1385 -0.665174,-0.2698 -1,-0.375 l 0,0.5625 z m 1,0 0,1 1,0 0,-0.6562 c -0.213111,-0.123 -0.433597,-0.2365 -0.65625,-0.3438 l -0.34375,0 z m 1,1 0,1 1,0 0,-1 -1,0 z m 1,1 0,1 1,0 0,-1 -1,0 z m 1,0 0.125,0 c -0.04169,-0.042 -0.08257,-0.083 -0.125,-0.125 l 0,0.125 z m 0,1 0,1 1,0 0,-1 -1,0 z m 1,1 0,1 1,0 0,-0.3437 c -0.107285,-0.2227 -0.220825,-0.4432 -0.34375,-0.6563 l -0.65625,0 z m 1,1 0,1 0.5625,0 c -0.105212,-0.3348 -0.236541,-0.6814 -0.375,-1 l -0.1875,0 z m 0,1 -1,0 0,1 1,0 0,-1 z m 0,1 0,1 0.9375,0 c -0.03413,-0.3466 -0.08764,-0.6647 -0.15625,-1 l -0.78125,0 z m 0,1 -1,0 0,1 1,0 0,-1 z m 0,1 0,1 0.9375,0 c 0.03213,-0.3263 0.0625,-0.6652 0.0625,-1 l -1,0 z m 0,1 -1,0 0,1 1,0 0,-1 z m 0,1 0,1 0.5625,0 c 0.10116,-0.3219 0.150189,-0.6649 0.21875,-1 l -0.78125,0 z m 0,1 -1,0 0,1 1,0 0,-1 z m 0,1 0,0.3438 c 0.05617,-0.1166 0.13577,-0.2248 0.1875,-0.3438 l -0.1875,0 z m -1,0 -1,0 0,1 1,0 0,-1 z m 0,1 0,1 c 0.240197,-0.3203 0.455241,-0.6515 0.65625,-1 l -0.65625,0 z m 0,1 -1,0 0,1 0.125,0 c 0.312492,-0.3181 0.606993,-0.6426 0.875,-1 z m -1,1 -1,0 0,1 c 0.357426,-0.268 0.681917,-0.5625 1,-0.875 l 0,-0.125 z m -1,1 -1,0 0,0.6563 c 0.348484,-0.2011 0.679662,-0.4161 1,-0.6563 z m -1,0 0,-1 -1,0 0,1 1,0 z m -1,0 -1,0 0,1 1,0 0,-1 z m 0,1 0,0.1875 c 0.11904,-0.052 0.22717,-0.1313 0.34375,-0.1875 l -0.34375,0 z m -1,0 -1,0 0,0.7813 c 0.335052,-0.069 0.678069,-0.1176 1,-0.2188 l 0,-0.5625 z m -1,0 0,-1 -1,0 0,1 1,0 z m -1,0 -1,0 0,1 c 0.334756,0 0.673691,-0.03 1,-0.062 l 0,-0.9375 z m -1,0 0,-1 -1,0 0,1 1,0 z m -1,0 -1,0 0,0.7813 c 0.335315,0.069 0.653374,0.1221 1,0.1562 l 0,-0.9375 z m -1,0 0,-1 -1,0 0,1 1,0 z m -1,0 -1,0 0,0.1875 c 0.318616,0.1385 0.665174,0.2698 1,0.375 l 0,-0.5625 z m -1,0 0,-1 -1,0 0,0.6563 c 0.213112,0.1229 0.433597,0.2364 0.65625,0.3437 l 0.34375,0 z m -1,-1 0,-1 -1,0 0,1 1,0 z m -1,-1 0,-1 -1,0 0,1 1,0 z m -1,0 -0.125,0 c 0.04169,0.042 0.08257,0.083 0.125,0.125 l 0,-0.125 z m 0,-1 0,-1 -1,0 0,1 1,0 z m -1,-1 0,-1 -1,0 0,0.3438 c 0.107285,0.2226 0.220825,0.4431 0.34375,0.6562 l 0.65625,0 z m -1,-1 0,-1 -0.5625,0 c 0.105213,0.3348 0.236541,0.6814 0.375,1 l 0.1875,0 z m 0,-1 1,0 0,-1 -1,0 0,1 z m 0,-1 0,-1 -0.9375,0 c 0.03413,0.3466 0.08763,0.6647 0.15625,1 l 0.78125,0 z m 0,-1 1,0 0,-1 -1,0 0,1 z m 0,-1 0,-1 -0.9375,0 c -0.03213,0.3263 -0.0625,0.6652 -0.0625,1 l 1,0 z m 0,-1 1,0 0,-1 -1,0 0,1 z m 0,-1 0,-1 -0.5625,0 c -0.10116,0.3219 -0.150188,0.6649 -0.21875,1 l 0.78125,0 z m 0,-1 1,0 0,-1 -1,0 0,1 z m 0,-1 0,-0.3437 c -0.05617,0.1165 -0.13577,0.2247 -0.1875,0.3437 l 0.1875,0 z m 1,0 1,0 0,-1 -1,0 0,1 z m 0,-1 0,-1 c -0.240197,0.3203 -0.455241,0.6515 -0.65625,1 l 0.65625,0 z m 0,-1 1,0 0,-1 -0.125,0 c -0.312492,0.3181 -0.606993,0.6426 -0.875,1 z m 1,-1 1,0 0,-1 c -0.357426,0.268 -0.681917,0.5625 -1,0.875 l 0,0.125 z m 1,-1 1,0 0,-0.6562 c -0.348484,0.201 -0.679662,0.416 -1,0.6562 z m 1,0 0,1 1,0 0,-1 -1,0 z m 1,0 1,0 0,-1 -1,0 0,1 z m 0,-1 0,-0.1875 c -0.11904,0.052 -0.22717,0.1313 -0.34375,0.1875 l 0.34375,0 z m 1,0 1,0 0,-0.7812 c -0.335052,0.068 -0.67807,0.1175 -1,0.2187 l 0,0.5625 z m 1,0 0,1 1,0 0,-1 -1,0 z m 1,1 0,1 1,0 0,-1 -1,0 z m 1,1 0,1 1,0 0,-1 -1,0 z m 1,0 1,0 0,-1 -1,0 0,1 z m 1,0 0,1 1,0 0,-1 -1,0 z m 1,0 1,0 0,-1 -1,0 0,1 z m 1,0 0,1 1,0 0,-1 -1,0 z m 1,1 0,1 1,0 0,-1 -1,0 z m 1,1 0,1 1,0 0,-1 -1,0 z m 1,1 0,1 1,0 0,-1 -1,0 z m 0,1 -1,0 0,1 1,0 0,-1 z m 0,1 0,1 1,0 0,-1 -1,0 z m 0,1 -1,0 0,1 1,0 0,-1 z m 0,1 0,1 1,0 0,-1 -1,0 z m 0,1 -1,0 0,1 1,0 0,-1 z m 0,1 0,1 1,0 0,-1 -1,0 z m 0,1 -1,0 0,1 1,0 0,-1 z m -1,1 -1,0 0,1 1,0 0,-1 z m 0,1 0,1 1,0 0,-1 -1,0 z m 0,1 -1,0 0,1 1,0 0,-1 z m -1,0 0,-1 -1,0 0,1 1,0 z m -1,0 -1,0 0,1 1,0 0,-1 z m -1,1 -1,0 0,1 1,0 0,-1 z m -1,0 0,-1 -1,0 0,1 1,0 z m -1,0 -1,0 0,1 1,0 0,-1 z m -1,0 0,-1 -1,0 0,1 1,0 z m -1,0 -1,0 0,1 1,0 0,-1 z m -1,0 0,-1 -1,0 0,1 1,0 z m -1,0 -1,0 0,1 1,0 0,-1 z m -1,0 0,-1 -1,0 0,1 1,0 z m -1,-1 0,-1 -1,0 0,1 1,0 z m -1,-1 0,-1 -1,0 0,1 1,0 z m -1,-1 0,-1 -1,0 0,1 1,0 z m 0,-1 1,0 0,-1 -1,0 0,1 z m 0,-1 0,-1 -1,0 0,1 1,0 z m 0,-1 1,0 0,-1 -1,0 0,1 z m 0,-1 0,-1 -1,0 0,1 1,0 z m 0,-1 1,0 0,-1 -1,0 0,1 z m 0,-1 0,-1 -1,0 0,1 1,0 z m 0,-1 1,0 0,-1 -1,0 0,1 z m 1,-1 1,0 0,-1 -1,0 0,1 z m 0,-1 0,-1 -1,0 0,1 1,0 z m 0,-1 1,0 0,-1 -1,0 0,1 z m 1,0 0,1 1,0 0,-1 -1,0 z m 1,0 1,0 0,-1 -1,0 0,1 z m 1,-1 1,0 0,-1 -1,0 0,1 z m 1,0 0,1 1,0 0,-1 -1,0 z m 1,1 0,1 1,0 0,-1 -1,0 z m 1,1 0,1 1,0 0,-1 -1,0 z m 1,0 1,0 0,-1 -1,0 0,1 z m 1,0 0,1 1,0 0,-1 -1,0 z m 1,0 1,0 0,-1 -1,0 0,1 z m 1,0 0,1 1,0 0,-1 -1,0 z m 1,1 0,1 1,0 0,-1 -1,0 z m 0,1 -1,0 0,1 1,0 0,-1 z m 0,1 0,1 1,0 0,-1 -1,0 z m 0,1 -1,0 0,1 1,0 0,-1 z m 0,1 0,1 1,0 0,-1 -1,0 z m 0,1 -1,0 0,1 1,0 0,-1 z m 0,1 0,1 1,0 0,-1 -1,0 z m 0,1 -1,0 0,1 1,0 0,-1 z m -1,1 -1,0 0,1 1,0 0,-1 z m -1,1 -1,0 0,1 1,0 0,-1 z m -1,0 0,-1 -1,0 0,1 1,0 z m -1,0 -1,0 0,1 1,0 0,-1 z m -1,0 0,-1 -1,0 0,1 1,0 z m -1,0 -1,0 0,1 1,0 0,-1 z m -1,0 0,-1 -1,0 0,1 1,0 z m -1,0 -1,0 0,1 1,0 0,-1 z m -1,0 0,-1 -1,0 0,1 1,0 z m -1,-1 0,-1 -1,0 0,1 1,0 z m 0,-1 1,0 0,-1 -1,0 0,1 z m 0,-1 0,-1 -1,0 0,1 1,0 z m 0,-1 1,0 0,-1 -1,0 0,1 z m 0,-1 0,-1 -1,0 0,1 1,0 z m 0,-1 1,0 0,-1 -1,0 0,1 z m 0,-1 0,-1 -1,0 0,1 1,0 z m 0,-1 1,0 0,-1 -1,0 0,1 z m 1,-1 1,0 0,-1 -1,0 0,1 z m 1,-1 1,0 0,-1 -1,0 0,1 z m 1,0 0,1 1,0 0,-1 -1,0 z m 1,1 0,1 1,0 0,-1 -1,0 z m 1,1 0,1 1,0 0,-1 -1,0 z m 1,0 1,0 0,-1 -1,0 0,1 z m 1,0 0,1 1,0 0,-1 -1,0 z m 1,0 1,0 0,-1 -1,0 0,1 z m 0,1 0,1 1,0 0,-1 -1,0 z m 0,1 -1,0 0,1 1,0 0,-1 z m 0,1 0,1 1,0 0,-1 -1,0 z m 0,1 -1,0 0,1 1,0 0,-1 z m 0,1 0,1 1,0 0,-1 -1,0 z m 0,1 -1,0 0,1 1,0 0,-1 z m -1,0 0,-1 -1,0 0,1 1,0 z m -1,0 -1,0 0,1 1,0 0,-1 z m -1,0 0,-1 -1,0 0,1 1,0 z m -1,0 -1,0 0,1 1,0 0,-1 z m -1,0 0,-1 -1,0 0,1 1,0 z m -1,0 -1,0 0,1 1,0 0,-1 z m 0,-1 0,-1 -1,0 0,1 1,0 z m 0,-1 1,0 0,-1 -1,0 0,1 z m 0,-1 0,-1 -1,0 0,1 1,0 z m 0,-1 1,0 0,-1 -1,0 0,1 z m 0,-1 0,-1 -1,0 0,1 1,0 z m 0,-1 1,0 0,-1 -1,0 0,1 z m 1,0 0,1 1,0 0,-1 -1,0 z m 1,1 0,1 1,0 0,-1 -1,0 z m 1,1 0,1 1,0 0,-1 -1,0 z m 1,0 1,0 0,-1 -1,0 0,1 z m 0,1 0,1 1,0 0,-1 -1,0 z m 0,1 -1,0 0,1 1,0 0,-1 z m -1,0 0,-1 -1,0 0,1 1,0 z m -1,0 -1,0 0,1 1,0 0,-1 z m 0,-1 0,-1 -1,0 0,1 1,0 z"
       id="path3870"
       inkscape:connector-curvature="0" />
    <path
       sodipodi:type="arc"
       style="fill:#000000;fill-opacity:1;stroke:none"
       id="path3880"
       sodipodi:cx="-25.5"
       sodipodi:cy="24"
       sodipodi:rx="15.5"
       sodipodi:ry="16"
       d="M -10,24 A 15.5,16 0 0 1 -25.5,40 15.5,16 0 0 1 -41,24 15.5,16 0 0 1 -25.5,8 15.5,16 0 0 1 -10,24 Z"
       transform="matrix(0.38709677,0,0,0.37499999,33.870968,1018.3622)" />
    <path
       id="path3943"
       d="m 24,1014.3622 c -7.179702,0 -13,5.8203 -13,13 0,7.1797 5.820298,13 13,13 7.179702,0 13,-5.8203 13,-13 0,-7.1797 -5.820298,-13 -13,-13 z m 0,1 c 6.627417,0 12,5.3726 12,12 0,6.6274 -5.372583,12 -12,12 -6.627417,0 -12,-5.3726 -12,-12 0,-6.6274 5.372583,-12 12,-12 z"
       style="fill:url(#radialGradient3949);fill-opacity:1;stroke:none"
       inkscape:connector-curvature="0" />
    <path
       inkscape:connector-curvature="0"
       style="fill:url(#radialGradient3949);fill-opacity:1;stroke:none"
       d="m 24,1014.3622 c -7.179702,0 -13,5.8203 -13,13 0,7.1797 5.820298,13 13,13 7.179702,0 13,-5.8203 13,-13 0,-7.1797 -5.820298,-13 -13,-13 z m 0,1 c 6.627417,0 12,5.3726 12,12 0,6.6274 -5.372583,12 -12,12 -6.627417,0 -12,-5.3726 -12,-12 0,-6.6274 5.372583,-12 12,-12 z"
       id="path3957" />
    <path
       style="opacity:0.4;fill:url(#radialGradient3892);fill-opacity:1;stroke:none"
       d="m 24,1021.3622 c -2.797425,0 -5.148046,1.9098 -5.8125,4.5 0.664454,2.5902 3.015075,4.5 5.8125,4.5 2.797425,0 5.148046,-1.9098 5.8125,-4.5 -0.664454,-2.5902 -3.015075,-4.5 -5.8125,-4.5 z"
       id="path3884"
       inkscape:connector-curvature="0" />
  </g>
  <g
     inkscape:groupmode="layer"
     id="layer4"
     inkscape:label="Inset"
     sodipodi:insensitive="true"
     style="display:inline">
    <path
       style="opacity:0.15;fill:#000000;fill-opacity:1;stroke:none"
       d="m 2,34 0,3 c 0,4.986 4.014,9 9,9 l 26,0 c 4.986,0 9,-4.014 9,-9 l 0,-3 c 0,4.986 -4.014,9 -9,9 L 11,43 C 6.014,43 2,38.986 2,34 z"
       id="rect3038-42"
       inkscape:connector-curvature="0" />
  </g>
  <g
     inkscape:groupmode="layer"
     id="layer7"
     inkscape:label="Baseshape"
     sodipodi:insensitive="true"
     style="display:none">
    <rect
       rx="9"
       ry="9"
       y="2"
       x="2"
       height="44"
       width="44"
       id="rect4169"
       style="fill:#abe1ad;fill-opacity:1;stroke:none;display:inline" />
  </g>
</svg>
