<?xml version="1.0" encoding="UTF-8" standalone="no"?>
<!-- Created with Inkscape (http://www.inkscape.org/) -->

<svg
   xmlns:dc="http://purl.org/dc/elements/1.1/"
   xmlns:cc="http://creativecommons.org/ns#"
   xmlns:rdf="http://www.w3.org/1999/02/22-rdf-syntax-ns#"
   xmlns:svg="http://www.w3.org/2000/svg"
   xmlns="http://www.w3.org/2000/svg"
   xmlns:xlink="http://www.w3.org/1999/xlink"
   xmlns:sodipodi="http://sodipodi.sourceforge.net/DTD/sodipodi-0.dtd"
   xmlns:inkscape="http://www.inkscape.org/namespaces/inkscape"
   width="48"
   height="48"
   id="svg4230"
   version="1.1"
   inkscape:version="0.91+devel r"
   sodipodi:docname="battery.svg"
   inkscape:export-filename="/home/uri/mouse.png"
   inkscape:export-xdpi="960"
   inkscape:export-ydpi="960">
  <defs
     id="defs4232">
    <linearGradient
       inkscape:collect="always"
       id="linearGradient4530">
      <stop
         style="stop-color:#ffffff;stop-opacity:1;"
         offset="0"
         id="stop4532" />
      <stop
         style="stop-color:#ffffff;stop-opacity:0;"
         offset="1"
         id="stop4534" />
    </linearGradient>
    <linearGradient
       id="linearGradient4516"
       inkscape:collect="always">
      <stop
         id="stop4518"
         offset="0"
         style="stop-color:#d0f111;stop-opacity:1" />
      <stop
         id="stop4520"
         offset="1"
         style="stop-color:#93da16;stop-opacity:0" />
    </linearGradient>
    <linearGradient
       id="linearGradient4468"
       inkscape:collect="always">
      <stop
         id="stop4470"
         offset="0"
         style="stop-color:#83c043;stop-opacity:1" />
      <stop
         id="stop4472"
         offset="1"
         style="stop-color:#5c8f36;stop-opacity:1" />
    </linearGradient>
    <linearGradient
       inkscape:collect="always"
       id="linearGradient4456">
      <stop
         style="stop-color:#83c043;stop-opacity:1"
         offset="0"
         id="stop4458" />
      <stop
         style="stop-color:#87c349;stop-opacity:1"
         offset="1"
         id="stop4460" />
    </linearGradient>
    <linearGradient
       inkscape:collect="always"
       id="linearGradient4443">
      <stop
         style="stop-color:#ffffff;stop-opacity:1;"
         offset="0"
         id="stop4445" />
      <stop
         style="stop-color:#ffffff;stop-opacity:0;"
         offset="1"
         id="stop4447" />
    </linearGradient>
    <linearGradient
       id="linearGradient4243">
      <stop
         style="stop-color:#000000;stop-opacity:1;"
         offset="0"
         id="stop4245" />
      <stop
         style="stop-color:#000000;stop-opacity:0;"
         offset="1"
         id="stop4247" />
    </linearGradient>
    <radialGradient
       inkscape:collect="always"
       xlink:href="#linearGradient4243"
       id="radialGradient4274"
       gradientUnits="userSpaceOnUse"
       gradientTransform="matrix(1.0434782,0,0,0.1956518,-1.0434797,35.184809)"
       cx="24.000001"
       cy="42.499991"
       fx="24.000001"
       fy="42.499991"
       r="23" />
    <linearGradient
       inkscape:collect="always"
       xlink:href="#linearGradient4524"
       id="linearGradient3880"
       x1="25"
       y1="45.999981"
       x2="25"
       y2="1.999983"
       gradientUnits="userSpaceOnUse" />
    <linearGradient
       id="linearGradient4524">
      <stop
         id="stop4526"
         offset="0"
         style="stop-color:#1c2024;stop-opacity:1" />
      <stop
         id="stop4528"
         offset="1"
         style="stop-color:#313841;stop-opacity:1" />
    </linearGradient>
    <linearGradient
       inkscape:collect="always"
       xlink:href="#linearGradient4443"
       id="linearGradient4449"
       x1="4"
       y1="26"
       x2="21"
       y2="26"
       gradientUnits="userSpaceOnUse" />
    <linearGradient
       inkscape:collect="always"
       xlink:href="#linearGradient4456"
       id="linearGradient4462"
       x1="24"
       y1="46.999981"
       x2="24"
       y2="22"
       gradientUnits="userSpaceOnUse" />
    <linearGradient
       inkscape:collect="always"
       xlink:href="#linearGradient4468"
       id="linearGradient4466"
       gradientUnits="userSpaceOnUse"
       x1="24"
       y1="46.999981"
       x2="24"
       y2="22" />
    <linearGradient
       inkscape:collect="always"
       xlink:href="#linearGradient4516"
       id="linearGradient4514"
       gradientUnits="userSpaceOnUse"
       x1="46"
       y1="15"
       x2="42"
       y2="32" />
    <linearGradient
       inkscape:collect="always"
       xlink:href="#linearGradient4530"
       id="linearGradient4536"
       x1="25"
       y1="33"
       x2="25"
       y2="13"
       gradientUnits="userSpaceOnUse" />
    <linearGradient
       inkscape:collect="always"
       xlink:href="#linearGradient4443"
       id="linearGradient4550"
       gradientUnits="userSpaceOnUse"
       x1="43"
       y1="23"
       x2="36"
       y2="23" />
  </defs>
  <sodipodi:namedview
     id="base"
     pagecolor="#ffffff"
     bordercolor="#666666"
     borderopacity="1.0"
     inkscape:pageopacity="0.0"
     inkscape:pageshadow="2"
     inkscape:zoom="11.313708"
     inkscape:cx="25.229069"
     inkscape:cy="25.036142"
     inkscape:document-units="px"
     inkscape:current-layer="layer2"
     showgrid="true"
     inkscape:showpageshadow="false"
     borderlayer="true"
     inkscape:window-width="1366"
     inkscape:window-height="670"
     inkscape:window-x="-4"
     inkscape:window-y="29"
     inkscape:window-maximized="1"
     showguides="true"
     inkscape:guide-bbox="true">
    <inkscape:grid
       type="xygrid"
       id="grid4162" />
    <sodipodi:guide
       position="1.0000013,47.000017"
       orientation="46,0"
       id="guide4163" />
    <sodipodi:guide
       position="1.0000013,1.0000174"
       orientation="0,45.999999"
       id="guide4165" />
    <sodipodi:guide
       position="47,1.0000174"
       orientation="-46,0"
       id="guide4167" />
    <sodipodi:guide
       position="47,47.000017"
       orientation="0,-45.999999"
       id="guide4169" />
    <sodipodi:guide
       position="2.0000007,46.000017"
       orientation="44,0"
       id="guide4173" />
    <sodipodi:guide
       position="2.0000007,2.0000174"
       orientation="0,43.999999"
       id="guide4175" />
    <sodipodi:guide
       position="46,2.0000174"
       orientation="-44,0"
       id="guide4177" />
    <sodipodi:guide
       position="46,46.000017"
       orientation="0,-43.999999"
       id="guide4179" />
    <sodipodi:guide
       position="3,45.000017"
       orientation="42,0"
       id="guide4183" />
    <sodipodi:guide
       position="45,3.0000174"
       orientation="-42,0"
       id="guide4187" />
    <sodipodi:guide
       position="45,45.000017"
       orientation="0,-42"
       id="guide4189" />
    <sodipodi:guide
       position="3,45.000017"
       orientation="42,0"
       id="guide4193" />
    <sodipodi:guide
       position="3,3.0000174"
       orientation="0,42"
       id="guide4195" />
    <sodipodi:guide
       position="45,3.0000174"
       orientation="-42,0"
       id="guide4197" />
    <sodipodi:guide
       position="45,45.000017"
       orientation="0,-42"
       id="guide4199" />
    <sodipodi:guide
       position="3,10.000017"
       orientation="7,0"
       id="guide4203" />
    <sodipodi:guide
       position="3,3.0000174"
       orientation="0,42"
       id="guide4205" />
    <sodipodi:guide
       position="45,3.0000174"
       orientation="-7,0"
       id="guide4207" />
    <sodipodi:guide
       position="12,36.000017"
       orientation="24.000002,0"
       id="guide4276" />
    <sodipodi:guide
       position="12,12.000015"
       orientation="0,24"
       id="guide4278" />
    <sodipodi:guide
       position="36,12.000015"
       orientation="-24.000002,0"
       id="guide4280" />
    <sodipodi:guide
       position="36,36.000017"
       orientation="0,-24"
       id="guide4282" />
  </sodipodi:namedview>
  <metadata
     id="metadata4235">
    <rdf:RDF>
      <cc:Work
         rdf:about="">
        <dc:format>image/svg+xml</dc:format>
        <dc:type
           rdf:resource="http://purl.org/dc/dcmitype/StillImage" />
        <dc:title />
      </cc:Work>
    </rdf:RDF>
  </metadata>
  <g
     inkscape:groupmode="layer"
     id="layer3"
     inkscape:label="Fake blur shadow"
     style="display:inline"
     sodipodi:insensitive="true">
    <path
       style="opacity:0.06000001;fill:#000000;fill-opacity:1;stroke:none"
       d="M 10,1 C 5.014,1 1,5.014 1,10 l 0,28 c 0,4.986 4.014,9 9,9 l 28,0 c 4.986,0 9,-4.014 9,-9 L 47,10 C 47,5.014 42.986,1 38,1 L 10,1 z m 0.5,0.5 27,0 c 4.986,0 9,4.014 9,9 l 0,27 c 0,4.986 -4.014,9 -9,9 l -27,0 c -4.986,0 -9,-4.014 -9,-9 l 0,-27 c 0,-4.986 4.014,-9 9,-9 z"
       id="rect3829"
       inkscape:connector-curvature="0" />
    <path
       style="opacity:0.12000002;fill:#000000;fill-opacity:1;stroke:none"
       d="m 10.5,1.5 c -4.986,0 -9,4.014 -9,9 l 0,27 c 0,4.986 4.014,9 9,9 l 27,0 c 4.986,0 9,-4.014 9,-9 l 0,-27 c 0,-4.986 -4.014,-9 -9,-9 l -27,0 z m 0.25,0.25 26.5,0 c 4.986,0 9,4.014 9,9 l 0,26.5 c 0,4.986 -4.014,9 -9,9 l -26.5,0 c -4.986,0 -9,-4.014 -9,-9 l 0,-26.5 c 0,-4.986 4.014,-9 9,-9 z"
       id="rect3827"
       inkscape:connector-curvature="0" />
    <rect
       style="opacity:0.23999999;fill:#000000;fill-opacity:1;stroke:none"
       id="rect3038-4"
       width="44.5"
       height="44.5"
       x="1.75"
       y="1.75"
       ry="9"
       rx="9" />
  </g>
  <g
     inkscape:groupmode="layer"
     id="layer6"
     inkscape:label="Blob"
     style="display:inline"
     sodipodi:insensitive="true">
    <path
       style="opacity:0.3;fill:url(#radialGradient4274);fill-opacity:1;stroke:none"
       d="M 1.03125,39 C 1.5192036,43.518898 5.3471961,47 10,47 l 28,0 c 4.652804,0 8.480796,-3.481102 8.96875,-8 l -45.9375,0 z"
       id="rect4241"
       inkscape:connector-curvature="0" />
  </g>
  <g
     inkscape:groupmode="layer"
     id="layer2"
     inkscape:label="Baseplate"
     style="display:inline">
    <rect
       style="fill:url(#linearGradient3880);fill-opacity:1;stroke:none"
       id="rect3038"
       width="44"
       height="44"
       x="2"
       y="1.9999826"
       ry="9"
       rx="9" />
    <path
       id="path4464"
       d="m 45,25 c 0.370286,0 0.695096,-0.04405 1,-0.105469 L 46,37 c 0,4.986 -4.014,9 -9,9 L 11,46 C 6.014,46 2,41.986 2,37 L 2,26.490234 C 25,31 21,22 45,25 Z"
       style="fill:url(#linearGradient4466);fill-opacity:1;fill-rule:evenodd;stroke:none;stroke-width:1px;stroke-linecap:butt;stroke-linejoin:miter;stroke-opacity:1"
       inkscape:connector-curvature="0"
       sodipodi:nodetypes="ccsssscc" />
    <path
       style="fill:url(#linearGradient4462);fill-rule:evenodd;stroke:none;stroke-width:1px;stroke-linecap:butt;stroke-linejoin:miter;stroke-opacity:1;fill-opacity:1"
       d="M 42.650391 21.925781 C 35.696045 22.094238 25.5 30.0625 3 31 C 2.6297137 31 2.3049035 30.955948 2 30.894531 L 2 37 C 2 41.986 6.014 46 11 46 L 37 46 C 41.986 46 46 41.986 46 37 L 46 22.490234 C 45.370282 22.27837 44.711264 22.101609 44 22 C 43.5625 21.9375 43.114014 21.914551 42.650391 21.925781 z "
       id="path4451" />
    <path
       style="opacity:0.2;fill:url(#linearGradient4449);fill-opacity:1;stroke:none;stroke-opacity:1"
       d="M 12.181641,4 C 7.6489134,4 4,7.6489134 4,12.181641 l 0,20.627538 c 0,4.532728 3.6489134,8.181641 8.181641,8.181641 L 19,40.99082 19,4 Z"
       id="rect4438"
       inkscape:connector-curvature="0"
       sodipodi:nodetypes="ssssccs" />
    <path
       id="path4510"
       d="M 42.650391 21.925781 C 35.696045 22.094238 25.5 30.0625 3 31 C 2.6297137 31 2.3049035 30.955948 2 30.894531 L 2 37 C 2 41.986 6.014 46 11 46 L 37 46 C 41.986 46 46 41.986 46 37 L 46 22.490234 C 45.370282 22.27837 44.711264 22.101609 44 22 C 43.5625 21.9375 43.114014 21.914551 42.650391 21.925781 z "
       style="fill:url(#linearGradient4514);fill-rule:evenodd;stroke:none;stroke-width:1px;stroke-linecap:butt;stroke-linejoin:miter;stroke-opacity:1;fill-opacity:1" />
    <path
       style="fill:url(#linearGradient4536);fill-rule:evenodd;stroke:none;stroke-width:1px;stroke-linecap:butt;stroke-linejoin:miter;stroke-opacity:1;fill-opacity:1"
       d="m 24,15 -5,11 5,0 0,7 5,-11 -5,0 0,-7 z"
       id="path4525"
       inkscape:connector-curvature="0" />
    <path
       id="path4548"
       d="M 35.818359,4 C 40.351087,4 44,7.6489134 44,12.181641 l 0,20.627538 c 0,4.532728 -3.6494,8.248113 -8.181641,8.181641 L 29,40.99082 29,4 Z"
       style="opacity:0.2;fill:url(#linearGradient4550);fill-opacity:1;stroke:none;stroke-opacity:1"
       inkscape:connector-curvature="0"
       sodipodi:nodetypes="ssssccs" />
  </g>
  <g
     inkscape:label="Symbol"
     inkscape:groupmode="layer"
     id="layer1"
     transform="translate(0,-1004.3622)"
     style="display:inline" />
  <g
     inkscape:groupmode="layer"
     id="layer4"
     inkscape:label="Inset"
     sodipodi:insensitive="true"
     style="display:inline">
    <path
       style="opacity:0.15;fill:#000000;fill-opacity:1;stroke:none"
       d="m 2,34 0,3 c 0,4.986 4.014,9 9,9 l 26,0 c 4.986,0 9,-4.014 9,-9 l 0,-3 c 0,4.986 -4.014,9 -9,9 L 11,43 C 6.014,43 2,38.986 2,34 z"
       id="rect3038-42"
       inkscape:connector-curvature="0" />
  </g>
  <g
     inkscape:groupmode="layer"
     id="layer7"
     inkscape:label="Baseshape"
     sodipodi:insensitive="true"
     style="display:none">
    <rect
       rx="9"
       ry="9"
       y="2"
       x="2"
       height="44"
       width="44"
       id="rect4169"
       style="fill:#abe1ad;fill-opacity:1;stroke:none;display:inline" />
  </g>
</svg>
