<?xml version="1.0" encoding="UTF-8" standalone="no"?>
<!-- Created with Inkscape (http://www.inkscape.org/) -->

<svg
   xmlns:dc="http://purl.org/dc/elements/1.1/"
   xmlns:cc="http://creativecommons.org/ns#"
   xmlns:rdf="http://www.w3.org/1999/02/22-rdf-syntax-ns#"
   xmlns:svg="http://www.w3.org/2000/svg"
   xmlns="http://www.w3.org/2000/svg"
   xmlns:xlink="http://www.w3.org/1999/xlink"
   xmlns:sodipodi="http://sodipodi.sourceforge.net/DTD/sodipodi-0.dtd"
   xmlns:inkscape="http://www.inkscape.org/namespaces/inkscape"
   width="48"
   height="48"
   id="svg4230"
   version="1.1"
   inkscape:version="0.48.5 r10040"
   sodipodi:docname="uakom.svg"
   inkscape:export-filename="/home/uri/Descargas/Squircles/gallery.png"
   inkscape:export-xdpi="480"
   inkscape:export-ydpi="480">
  <defs
     id="defs4232">
    <linearGradient
       id="linearGradient4524">
      <stop
         style="stop-color:#a7cc44;stop-opacity:1;"
         offset="0"
         id="stop4526" />
      <stop
         style="stop-color:#bbe058;stop-opacity:1;"
         offset="1"
         id="stop4528" />
    </linearGradient>
    <linearGradient
       id="linearGradient4512">
      <stop
         style="stop-color:#556e7b;stop-opacity:1;"
         offset="0"
         id="stop4514" />
      <stop
         style="stop-color:#758a95;stop-opacity:1;"
         offset="1"
         id="stop4516" />
    </linearGradient>
    <linearGradient
       id="linearGradient4243">
      <stop
         style="stop-color:#000000;stop-opacity:1;"
         offset="0"
         id="stop4245" />
      <stop
         style="stop-color:#000000;stop-opacity:0;"
         offset="1"
         id="stop4247" />
    </linearGradient>
    <linearGradient
       id="linearGradient4216">
      <stop
         style="stop-color:#a0c4e6;stop-opacity:1;"
         offset="0"
         id="stop4218" />
      <stop
         style="stop-color:#d0e2f1;stop-opacity:1;"
         offset="1"
         id="stop4220" />
    </linearGradient>
    <linearGradient
       id="linearGradient4208">
      <stop
         style="stop-color:#70a3d6;stop-opacity:1;"
         offset="0"
         id="stop4210" />
      <stop
         style="stop-color:#88b6e1;stop-opacity:1;"
         offset="1"
         id="stop4212" />
    </linearGradient>
    <linearGradient
       id="linearGradient4200">
      <stop
         style="stop-color:#427dbe;stop-opacity:1;"
         offset="0"
         id="stop4202" />
      <stop
         style="stop-color:#739bd1;stop-opacity:1;"
         offset="1"
         id="stop4204" />
    </linearGradient>
    <linearGradient
       id="linearGradient4192">
      <stop
         style="stop-color:#4970a4;stop-opacity:1;"
         offset="0"
         id="stop4194" />
      <stop
         style="stop-color:#6090c0;stop-opacity:1;"
         offset="1"
         id="stop4196" />
    </linearGradient>
    <radialGradient
       inkscape:collect="always"
       xlink:href="#linearGradient3688-166-749-5-9-1"
       id="radialGradient4351"
       gradientUnits="userSpaceOnUse"
       gradientTransform="matrix(2.3201711,0,0,0.39999996,28.617836,28.600002)"
       cx="4.9929786"
       cy="43.5"
       fx="4.9929786"
       fy="43.5"
       r="2.5" />
    <linearGradient
       id="linearGradient3688-166-749-5-9-1">
      <stop
         id="stop2883-0-2-9"
         style="stop-color:#181818;stop-opacity:1"
         offset="0" />
      <stop
         id="stop2885-5-3-8"
         style="stop-color:#181818;stop-opacity:0"
         offset="1" />
    </linearGradient>
    <linearGradient
       id="linearGradient3688-464-309-8-9-4">
      <stop
         id="stop2889-9-9-1"
         style="stop-color:#181818;stop-opacity:1"
         offset="0" />
      <stop
         id="stop2891-4-2-9"
         style="stop-color:#181818;stop-opacity:0"
         offset="1" />
    </linearGradient>
    <linearGradient
       id="linearGradient3702-501-757-0-4-0">
      <stop
         id="stop2895-0-2-1"
         style="stop-color:#181818;stop-opacity:0"
         offset="0" />
      <stop
         id="stop2897-2-8-2"
         style="stop-color:#181818;stop-opacity:1"
         offset="0.5" />
      <stop
         id="stop2899-6-1-6"
         style="stop-color:#181818;stop-opacity:0"
         offset="1" />
    </linearGradient>
    <linearGradient
       id="linearGradient3811-3">
      <stop
         style="stop-color:#000000;stop-opacity:1;"
         offset="0"
         id="stop3813-0" />
      <stop
         style="stop-color:#000000;stop-opacity:0;"
         offset="1"
         id="stop3815-0" />
    </linearGradient>
    <clipPath
       id="clipPath-887332295">
      <g
         id="g3945"
         transform="translate(0,-1004.3622)">
        <rect
           id="rect3947"
           fill="#1890d0"
           width="46"
           height="46"
           x="1"
           y="1005.36"
           rx="4" />
      </g>
    </clipPath>
    <clipPath
       id="clipPath-867792831">
      <g
         id="g3940"
         transform="translate(0,-1004.3622)">
        <rect
           id="rect3942"
           fill="#1890d0"
           width="46"
           height="46"
           x="1"
           y="1005.36"
           rx="4" />
      </g>
    </clipPath>
    <linearGradient
       gradientTransform="translate(-47.997785,0.00221467)"
       gradientUnits="userSpaceOnUse"
       x2="47"
       x1="1"
       id="linearGradient3764">
      <stop
         id="stop3935"
         stop-opacity="1"
         stop-color="#e4e4e4" />
      <stop
         id="stop3937"
         stop-opacity="1"
         stop-color="#eee"
         offset="1" />
    </linearGradient>
    <radialGradient
       inkscape:collect="always"
       xlink:href="#linearGradient4243"
       id="radialGradient4274"
       gradientUnits="userSpaceOnUse"
       gradientTransform="matrix(1.0434782,0,0,0.1956518,-1.0434797,35.184809)"
       cx="24.000001"
       cy="42.499991"
       fx="24.000001"
       fy="42.499991"
       r="23" />
    <linearGradient
       inkscape:collect="always"
       xlink:href="#linearGradient4512"
       id="linearGradient4530"
       x1="24"
       y1="46"
       x2="24"
       y2="2"
       gradientUnits="userSpaceOnUse" />
    <linearGradient
       inkscape:collect="always"
       xlink:href="#linearGradient4512"
       id="linearGradient4554"
       gradientUnits="userSpaceOnUse"
       x1="12.5"
       y1="28.000042"
       x2="12.5"
       y2="17.000042" />
    <linearGradient
       inkscape:collect="always"
       xlink:href="#linearGradient4512-8"
       id="linearGradient4530-6"
       x1="24"
       y1="46"
       x2="24"
       y2="2"
       gradientUnits="userSpaceOnUse" />
    <linearGradient
       id="linearGradient4512-8">
      <stop
         style="stop-color:#556e7b;stop-opacity:1;"
         offset="0"
         id="stop4514-3" />
      <stop
         style="stop-color:#758a95;stop-opacity:1;"
         offset="1"
         id="stop4516-6" />
    </linearGradient>
    <linearGradient
       inkscape:collect="always"
       xlink:href="#linearGradient4512-88"
       id="linearGradient4530-3"
       x1="24"
       y1="46"
       x2="24"
       y2="2"
       gradientUnits="userSpaceOnUse" />
    <linearGradient
       id="linearGradient4512-88">
      <stop
         style="stop-color:#556e7b;stop-opacity:1;"
         offset="0"
         id="stop4514-4" />
      <stop
         style="stop-color:#758a95;stop-opacity:1;"
         offset="1"
         id="stop4516-67" />
    </linearGradient>
  </defs>
  <sodipodi:namedview
     id="base"
     pagecolor="#ffffff"
     bordercolor="#666666"
     borderopacity="1.0"
     inkscape:pageopacity="0.0"
     inkscape:pageshadow="2"
     inkscape:zoom="35.180785"
     inkscape:cx="12.147819"
     inkscape:cy="25.866611"
     inkscape:document-units="px"
     inkscape:current-layer="layer1"
     showgrid="true"
     inkscape:showpageshadow="false"
     borderlayer="true"
     inkscape:window-width="1920"
     inkscape:window-height="1023"
     inkscape:window-x="0"
     inkscape:window-y="28"
     inkscape:window-maximized="1"
     showguides="false"
     inkscape:guide-bbox="true">
    <inkscape:grid
       type="xygrid"
       id="grid4162" />
    <sodipodi:guide
       position="1.0000013,47.000017"
       orientation="46,0"
       id="guide4163" />
    <sodipodi:guide
       position="1.0000013,1.0000174"
       orientation="0,45.999999"
       id="guide4165" />
    <sodipodi:guide
       position="47,1.0000174"
       orientation="-46,0"
       id="guide4167" />
    <sodipodi:guide
       position="47,47.000017"
       orientation="0,-45.999999"
       id="guide4169" />
    <sodipodi:guide
       position="2.0000007,46.000017"
       orientation="44,0"
       id="guide4173" />
    <sodipodi:guide
       position="2.0000007,2.0000174"
       orientation="0,43.999999"
       id="guide4175" />
    <sodipodi:guide
       position="46,2.0000174"
       orientation="-44,0"
       id="guide4177" />
    <sodipodi:guide
       position="46,46.000017"
       orientation="0,-43.999999"
       id="guide4179" />
    <sodipodi:guide
       position="3,45.000017"
       orientation="42,0"
       id="guide4183" />
    <sodipodi:guide
       position="45,3.0000174"
       orientation="-42,0"
       id="guide4187" />
    <sodipodi:guide
       position="45,45.000017"
       orientation="0,-42"
       id="guide4189" />
    <sodipodi:guide
       position="3,45.000017"
       orientation="42,0"
       id="guide4193" />
    <sodipodi:guide
       position="3,3.0000174"
       orientation="0,42"
       id="guide4195" />
    <sodipodi:guide
       position="45,3.0000174"
       orientation="-42,0"
       id="guide4197" />
    <sodipodi:guide
       position="45,45.000017"
       orientation="0,-42"
       id="guide4199" />
    <sodipodi:guide
       position="3,10.000017"
       orientation="7,0"
       id="guide4203" />
    <sodipodi:guide
       position="3,3.0000174"
       orientation="0,42"
       id="guide4205" />
    <sodipodi:guide
       position="45,3.0000174"
       orientation="-7,0"
       id="guide4207" />
    <sodipodi:guide
       position="45,10.000017"
       orientation="0,-42"
       id="guide4209" />
  </sodipodi:namedview>
  <metadata
     id="metadata4235">
    <rdf:RDF>
      <cc:Work
         rdf:about="">
        <dc:format>image/svg+xml</dc:format>
        <dc:type
           rdf:resource="http://purl.org/dc/dcmitype/StillImage" />
        <dc:title />
      </cc:Work>
    </rdf:RDF>
  </metadata>
  <g
     inkscape:groupmode="layer"
     id="layer3"
     inkscape:label="Fake blur shadow"
     style="display:inline"
     sodipodi:insensitive="true">
    <path
       style="opacity:0.06000001;fill:#000000;fill-opacity:1;stroke:none"
       d="M 10,1 C 5.014,1 1,5.014 1,10 l 0,28 c 0,4.986 4.014,9 9,9 l 28,0 c 4.986,0 9,-4.014 9,-9 L 47,10 C 47,5.014 42.986,1 38,1 L 10,1 z m 0.5,0.5 27,0 c 4.986,0 9,4.014 9,9 l 0,27 c 0,4.986 -4.014,9 -9,9 l -27,0 c -4.986,0 -9,-4.014 -9,-9 l 0,-27 c 0,-4.986 4.014,-9 9,-9 z"
       id="rect3829"
       inkscape:connector-curvature="0" />
    <path
       style="opacity:0.12000002;fill:#000000;fill-opacity:1;stroke:none"
       d="m 10.5,1.5 c -4.986,0 -9,4.014 -9,9 l 0,27 c 0,4.986 4.014,9 9,9 l 27,0 c 4.986,0 9,-4.014 9,-9 l 0,-27 c 0,-4.986 -4.014,-9 -9,-9 l -27,0 z m 0.25,0.25 26.5,0 c 4.986,0 9,4.014 9,9 l 0,26.5 c 0,4.986 -4.014,9 -9,9 l -26.5,0 c -4.986,0 -9,-4.014 -9,-9 l 0,-26.5 c 0,-4.986 4.014,-9 9,-9 z"
       id="rect3827"
       inkscape:connector-curvature="0" />
    <rect
       style="opacity:0.23999999;fill:#000000;fill-opacity:1;stroke:none"
       id="rect3038-4"
       width="44.5"
       height="44.5"
       x="1.75"
       y="1.75"
       ry="9"
       rx="9" />
  </g>
  <g
     inkscape:groupmode="layer"
     id="layer6"
     inkscape:label="Blob"
     style="display:inline"
     sodipodi:insensitive="true">
    <path
       style="opacity:0.3;fill:url(#radialGradient4274);fill-opacity:1;stroke:none"
       d="M 1.03125,39 C 1.5192036,43.518898 5.3471961,47 10,47 l 28,0 c 4.652804,0 8.480796,-3.481102 8.96875,-8 l -45.9375,0 z"
       id="rect4241"
       inkscape:connector-curvature="0" />
  </g>
  <g
     inkscape:groupmode="layer"
     id="layer2"
     inkscape:label="Baseplate"
     style="display:inline">
    <rect
       style="fill:url(#linearGradient4530);fill-opacity:1.0;stroke:none"
       id="rect3038"
       width="44"
       height="44"
       x="2"
       y="1.9999826"
       ry="9"
       rx="9" />
  </g>
  <g
     inkscape:label="Symbol"
     inkscape:groupmode="layer"
     id="layer1"
     transform="translate(0,-1004.3622)"
     style="display:inline">
    <path
       inkscape:connector-curvature="0"
       style="fill:#83949e;fill-opacity:1;stroke:none"
       d="m 2,1028.3622 44,0 0,-13 c 0,-4.986 -4.014,-9 -9,-9 l -26,0 c -4.986,0 -9,4.014 -9,9 l 0,13 z"
       id="rect3856" />
    <g
       id="g3928"
       style="opacity:0.15"
       transform="matrix(0,-1,1,0,-1004.3622,1053.3622)">
      <path
         style="fill:#000000;fill-opacity:1;stroke:none"
         d="m 33,1035.3622 2,-1 2,1 c -2,4 -2,4 -4,0 z"
         id="path3924"
         inkscape:connector-curvature="0"
         sodipodi:nodetypes="cccc" />
      <path
         style="fill:#000000;fill-opacity:1;stroke:none"
         d="m 34,1018.3622 2,0 c 0.554,0 1,0.446 1,1 l 0,16 -1,0 -2,0 -1,0 0,-16 c 0,-0.554 0.446,-1 1,-1 z"
         id="path3926"
         inkscape:connector-curvature="0"
         sodipodi:nodetypes="sssccccss" />
    </g>
    <rect
       style="fill:#524c4c;fill-opacity:1;stroke:none;display:inline"
       id="rect3836"
       width="2"
       height="44"
       x="-1029.3622"
       y="1.9999826"
       transform="matrix(0,-1,1,0,0,0)" />
    <path
       style="fill:#f4b459;fill-opacity:1;stroke:none"
       d="m 31,1019.3622 -1,-2 1,-2 c 4,2 4,2 0,4 z"
       id="path3921"
       inkscape:connector-curvature="0"
       sodipodi:nodetypes="cccc" />
    <path
       style="fill:#485b65;fill-opacity:1;stroke:none"
       d="m 14,1018.3622 0,-2 c 0,-0.554 0.446,-1 1,-1 l 16,0 0,1 0,2 0,1 -16,0 c -0.554,0 -1,-0.446 -1,-1 z"
       id="rect3919"
       inkscape:connector-curvature="0"
       sodipodi:nodetypes="sssccccss" />
    <path
       inkscape:connector-curvature="0"
       style="fill:#7fa7bf;fill-opacity:1;stroke:none"
       d="m 17,1038.3622 c 0,3.866 3.134007,7 7,7 3.865993,0 7,-3.134 7,-7 0,-3.866 -3.134007,-7 -7,-7 -3.865993,0 -7,3.134 -7,7 z m 1,0 c 0,-3.3137 2.686292,-6 6,-6 3.313708,0 6,2.6863 6,6 0,3.3137 -2.686292,6 -6,6 -3.313708,0 -6,-2.6863 -6,-6 z"
       id="path3932" />
    <path
       inkscape:connector-curvature="0"
       style="fill:#a8c6e3;fill-opacity:1;stroke:none"
       d="m 19,1038.3622 c 0,2.7614 2.238576,5 5,5 2.761424,0 5,-2.2386 5,-5 0,-2.7614 -2.238576,-5 -5,-5 -2.761424,0 -5,2.2386 -5,5 z m 1,0 c 0,-2.2091 1.790861,-4 4,-4 2.209139,0 4,1.7909 4,4 0,2.2091 -1.790861,4 -4,4 -2.209139,0 -4,-1.7909 -4,-4 z"
       id="path3937" />
  </g>
  <g
     inkscape:groupmode="layer"
     id="layer4"
     inkscape:label="Inset"
     sodipodi:insensitive="true"
     style="display:inline">
    <path
       style="opacity:0.15;fill:#000000;fill-opacity:1;stroke:none"
       d="m 2,34 0,3 c 0,4.986 4.014,9 9,9 l 26,0 c 4.986,0 9,-4.014 9,-9 l 0,-3 c 0,4.986 -4.014,9 -9,9 L 11,43 C 6.014,43 2,38.986 2,34 z"
       id="rect3038-42"
       inkscape:connector-curvature="0" />
  </g>
  <g
     inkscape:groupmode="layer"
     id="layer7"
     inkscape:label="Baseshape"
     sodipodi:insensitive="true"
     style="display:none">
    <rect
       rx="9"
       ry="9"
       y="2"
       x="2"
       height="44"
       width="44"
       id="rect4169"
       style="fill:#abe1ad;fill-opacity:1;stroke:none;display:inline" />
  </g>
</svg>
