<?xml version="1.0" encoding="UTF-8" standalone="no"?>
<!-- Created with Inkscape (http://www.inkscape.org/) -->

<svg
   xmlns:dc="http://purl.org/dc/elements/1.1/"
   xmlns:cc="http://creativecommons.org/ns#"
   xmlns:rdf="http://www.w3.org/1999/02/22-rdf-syntax-ns#"
   xmlns:svg="http://www.w3.org/2000/svg"
   xmlns="http://www.w3.org/2000/svg"
   xmlns:xlink="http://www.w3.org/1999/xlink"
   xmlns:sodipodi="http://sodipodi.sourceforge.net/DTD/sodipodi-0.dtd"
   xmlns:inkscape="http://www.inkscape.org/namespaces/inkscape"
   width="48"
   height="48"
   id="svg2"
   version="1.1"
   inkscape:version="0.48.5 r10040"
   sodipodi:docname="folder-music.svg">
  <defs
     id="defs4">
    <linearGradient
       inkscape:collect="always"
       id="linearGradient3874">
      <stop
         style="stop-color:#000000;stop-opacity:1;"
         offset="0"
         id="stop3876" />
      <stop
         style="stop-color:#000000;stop-opacity:0;"
         offset="1"
         id="stop3878" />
    </linearGradient>
    <linearGradient
       inkscape:collect="always"
       id="linearGradient3861">
      <stop
         style="stop-color:#000000;stop-opacity:1;"
         offset="0"
         id="stop3863" />
      <stop
         style="stop-color:#000000;stop-opacity:0;"
         offset="1"
         id="stop3865" />
    </linearGradient>
    <linearGradient
       id="linearGradient3844">
      <stop
         style="stop-color:#000000;stop-opacity:0.39215687;"
         offset="0"
         id="stop3846" />
      <stop
         style="stop-color:#000000;stop-opacity:0;"
         offset="1"
         id="stop3848" />
    </linearGradient>
    <linearGradient
       id="linearGradient3810">
      <stop
         style="stop-color:#f16d87;stop-opacity:1;"
         offset="0"
         id="stop3812" />
      <stop
         style="stop-color:#f88ca1;stop-opacity:1;"
         offset="1"
         id="stop3814" />
    </linearGradient>
    <linearGradient
       inkscape:collect="always"
       id="linearGradient3793">
      <stop
         style="stop-color:#000000;stop-opacity:1;"
         offset="0"
         id="stop3795" />
      <stop
         style="stop-color:#000000;stop-opacity:0;"
         offset="1"
         id="stop3797" />
    </linearGradient>
    <linearGradient
       inkscape:collect="always"
       xlink:href="#linearGradient3793"
       id="linearGradient3799"
       x1="24"
       y1="23"
       x2="24"
       y2="10"
       gradientUnits="userSpaceOnUse"
       gradientTransform="translate(0,1004.3622)" />
    <linearGradient
       inkscape:collect="always"
       xlink:href="#linearGradient3810"
       id="linearGradient3816"
       x1="24"
       y1="1046.3622"
       x2="24"
       y2="1014.3622"
       gradientUnits="userSpaceOnUse" />
    <radialGradient
       inkscape:collect="always"
       xlink:href="#linearGradient3844"
       id="radialGradient3850"
       cx="24.075672"
       cy="41.38316"
       fx="24.075672"
       fy="41.38316"
       r="21.075672"
       gradientTransform="matrix(1,0,0,0.11307633,0,36.703704)"
       gradientUnits="userSpaceOnUse" />
    <linearGradient
       inkscape:collect="always"
       xlink:href="#linearGradient3810"
       id="linearGradient3856"
       gradientUnits="userSpaceOnUse"
       x1="24"
       y1="1046.3622"
       x2="24"
       y2="1014.3622"
       gradientTransform="translate(0,-3)" />
    <linearGradient
       inkscape:collect="always"
       xlink:href="#linearGradient3810"
       id="linearGradient3858"
       gradientUnits="userSpaceOnUse"
       x1="24"
       y1="1046.3622"
       x2="24"
       y2="1014.3622"
       gradientTransform="translate(0,-1004.3622)" />
    <linearGradient
       inkscape:collect="always"
       xlink:href="#linearGradient3861"
       id="linearGradient3867"
       x1="1.9952808"
       y1="28.5625"
       x2="46.004719"
       y2="28.5625"
       gradientUnits="userSpaceOnUse" />
    <linearGradient
       inkscape:collect="always"
       xlink:href="#linearGradient3874"
       id="linearGradient3880"
       x1="24"
       y1="42"
       x2="24"
       y2="38"
       gradientUnits="userSpaceOnUse"
       gradientTransform="translate(-44,1004.3622)" />
    <linearGradient
       inkscape:collect="always"
       xlink:href="#linearGradient3810"
       id="linearGradient3896"
       gradientUnits="userSpaceOnUse"
       x1="24"
       y1="1046.3622"
       x2="24"
       y2="1004.3622" />
    <linearGradient
       inkscape:collect="always"
       xlink:href="#linearGradient3793"
       id="linearGradient3835"
       x1="24"
       y1="42"
       x2="24"
       y2="38"
       gradientUnits="userSpaceOnUse" />
    <linearGradient
       inkscape:collect="always"
       xlink:href="#linearGradient3810"
       id="linearGradient3841"
       gradientUnits="userSpaceOnUse"
       x1="24"
       y1="1046.3622"
       x2="24"
       y2="1004.3622"
       gradientTransform="translate(0,1)" />
    <linearGradient
       inkscape:collect="always"
       xlink:href="#linearGradient3810"
       id="linearGradient3843"
       gradientUnits="userSpaceOnUse"
       x1="24"
       y1="1046.3622"
       x2="24"
       y2="1004.3622"
       gradientTransform="translate(0,-1004.3622)" />
    <linearGradient
       inkscape:collect="always"
       xlink:href="#linearGradient3810"
       id="linearGradient3848"
       gradientUnits="userSpaceOnUse"
       x1="24"
       y1="1046.3622"
       x2="24"
       y2="1004.3622" />
    <linearGradient
       inkscape:collect="always"
       xlink:href="#linearGradient3810"
       id="linearGradient3850"
       gradientUnits="userSpaceOnUse"
       gradientTransform="translate(-26,0)"
       x1="24"
       y1="1046.3622"
       x2="24"
       y2="1004.3622" />
    <linearGradient
       inkscape:collect="always"
       xlink:href="#linearGradient3810"
       id="linearGradient3857"
       gradientUnits="userSpaceOnUse"
       x1="24"
       y1="1046.3622"
       x2="24"
       y2="1004.3622"
       gradientTransform="translate(0,1)" />
    <linearGradient
       inkscape:collect="always"
       xlink:href="#linearGradient3810"
       id="linearGradient3859"
       gradientUnits="userSpaceOnUse"
       x1="24"
       y1="1046.3622"
       x2="24"
       y2="1004.3622"
       gradientTransform="translate(0,-1004.3622)" />
  </defs>
  <sodipodi:namedview
     id="base"
     pagecolor="#ffffff"
     bordercolor="#666666"
     borderopacity="1.0"
     inkscape:pageopacity="0.0"
     inkscape:pageshadow="2"
     inkscape:zoom="30.212225"
     inkscape:cx="3.8377325"
     inkscape:cy="21.267864"
     inkscape:document-units="px"
     inkscape:current-layer="layer1"
     showgrid="true"
     inkscape:window-width="1920"
     inkscape:window-height="1023"
     inkscape:window-x="0"
     inkscape:window-y="28"
     inkscape:window-maximized="1">
    <inkscape:grid
       type="xygrid"
       id="grid2990"
       empspacing="5"
       visible="true"
       enabled="true"
       snapvisiblegridlinesonly="true" />
  </sodipodi:namedview>
  <metadata
     id="metadata7">
    <rdf:RDF>
      <cc:Work
         rdf:about="">
        <dc:format>image/svg+xml</dc:format>
        <dc:type
           rdf:resource="http://purl.org/dc/dcmitype/StillImage" />
        <dc:title />
      </cc:Work>
    </rdf:RDF>
  </metadata>
  <g
     inkscape:groupmode="layer"
     id="layer3"
     inkscape:label="Blob"
     sodipodi:insensitive="true">
    <path
       sodipodi:type="arc"
       style="opacity:0.65;fill:url(#radialGradient3850);fill-opacity:1;stroke:none"
       id="path3842"
       sodipodi:cx="24.075672"
       sodipodi:cy="41.38316"
       sodipodi:rx="21.075672"
       sodipodi:ry="2.3831596"
       d="m 45.151344,41.38316 a 21.075672,2.3831596 0 1 1 -42.151344,0 21.075672,2.3831596 0 1 1 42.151344,0 z"
       transform="matrix(1.1387537,0,0,1.0490275,-3.4162611,-1.9120725)" />
  </g>
  <g
     inkscape:label="Body"
     inkscape:groupmode="layer"
     id="layer1"
     transform="translate(0,-1004.3622)">
    <path
       style="fill:#f0607d;fill-opacity:1;stroke:none"
       d="m 7,1010.3622 7,0 c 1.228162,0 2,0.8044 2,2 l 25,0 c 1.107999,0 2,0.892 2,2 l 0,7 c 0,1.108 -0.892,2 -2,2 l -34,0 c -1.108,0 -2,-0.892 -2,-2 l 0,-9 c 0,-1.108 0.892,-2 2,-2 z"
       id="rect3789"
       inkscape:connector-curvature="0"
       sodipodi:nodetypes="sccssssssss" />
    <rect
       style="opacity:0.35;fill:url(#linearGradient3799);fill-opacity:1;stroke:none"
       id="rect3791"
       width="38"
       height="13"
       x="5"
       y="1014.3622" />
    <path
       style="fill:url(#linearGradient3848);fill-opacity:1;stroke:none"
       d="m 5,1018.3622 38,0 c 1.108,0 2,0.8921 2,2 l 0,24 c 0,1.1079 -0.892,2 -2,2 l -38,0 c -1.108,0 -2,-0.8921 -2,-2 l 0,-24 c 0,-1.1079 0.892,-2 2,-2 z"
       id="rect2987"
       inkscape:connector-curvature="0"
       sodipodi:nodetypes="sssssssss" />
    <path
       style="opacity:0.1;fill:url(#linearGradient3835);fill-opacity:1;stroke:none;stroke-width:1;stroke-miterlimit:4;stroke-opacity:1;stroke-dasharray:none"
       d="M 3 38 L 3 40 C 3 41.1079 3.892 42 5 42 L 43 42 C 44.108 42 45 41.1079 45 40 L 45 38 L 3 38 z "
       transform="translate(0,1004.3622)"
       id="rect3056" />
    <g
       style="opacity:0.8;fill:#f7e6f0;fill-opacity:1"
       transform="matrix(0.16582666,0,0,0.16576094,16.092031,1022.8077)"
       id="g3000">
      <path
         sodipodi:nodetypes="ccccccsccccsccccccccccccccccccscc"
         style="fill:#f7e6f0;fill-opacity:1"
         inkscape:connector-curvature="0"
         d="m 87.116637,54.778 c -2.018,-2.314 -2.034672,-4.167 -4.690672,-5.52 2.048,-8.299 1.894,-22.688767 -4.016,-31.251767 0.671,-1.838 -2.125328,-3.976 -3.622328,-5.425 -6.332,-6.1280003 -15.669,-9.236 -27.096,-9.236 l 0,0 c -11.427,0 -20.764,3.1079997 -27.096,9.237 -1.497,1.449 -4.293606,3.587 -3.622606,5.425 -5.909,8.563 -6.064834,22.952767 -4.017834,31.251767 -2.656,1.352 -2.673394,3.205 -4.6903942,5.52 -2.7893925,8.894022 -3.2203925,8.645806 -2.7893925,14.926806 0.842,12.312 8.2082267,24.131194 20.5362267,24.131194 0.541,0 1.083,-0.02 1.63,-0.056 0.81,-0.056 1.563166,-0.431 2.099166,-1.046 0.533,-0.61 0.802,-1.412 0.746,-2.223 l -2.802,-40.911 c -0.116,-1.689 -3.973606,-2.953 -5.650606,-2.849 -1.108,0.076 -2.191,0.254 -3.259,0.477 -1.517,-6.714 -1.378166,-19.181767 3.344834,-25.902767 1.449394,0.146046 4.678606,-0.532 5.578606,-1.403 4.362,-4.221 11.309,-6.361 19.992,-6.361 l 0,0 c 8.683,0 15.63,2.14 19.992,6.361 0.899,0.87 4.129935,1.549046 5.577328,1.404 4.724,6.72 4.859,19.188767 3.343,25.901767 -1.067,-0.223 -4.534328,-0.401 -5.642328,-0.477 -1.676,-0.106 -3.151,1.159 -3.267,2.849 l -2.802,40.911 c -0.056,0.811 0.213,1.612 0.746,2.223 0.535,0.615 1.291,0.99 2.102,1.046 0.547,0.036 1.09,0.056 1.63,0.056 12.329,0 19.689281,-9.646 20.531281,-21.959 0.434,-6.281 1.352719,-12.354 -2.784281,-17.1 z"
         id="path2984" />
      <g
         style="fill:#f7e6f0;fill-opacity:1"
         id="g2986" />
      <g
         style="fill:#f7e6f0;fill-opacity:1"
         id="g2990" />
    </g>
  </g>
  <g
     inkscape:groupmode="layer"
     id="layer2"
     inkscape:label="Insets"
     sodipodi:insensitive="true">
    <path
       inkscape:connector-curvature="0"
       style="opacity:0.15;fill:#ffffff;fill-opacity:1;stroke:none"
       d="m 5,14 c -1.108,0 -2,0.8921 -2,2 l 0,1 c 0,-1.1079 0.892,-2 2,-2 l 38,0 c 1.108,0 2,0.8921 2,2 l 0,-1 c 0,-1.1079 -0.892,-2 -2,-2 L 5,14 z"
       id="path3852" />
    <path
       inkscape:connector-curvature="0"
       style="opacity:0.05;fill:#000000;fill-opacity:1;stroke:none"
       d="M 7,6 C 5.892,6 5,6.892 5,8 L 5,9 C 5,7.892 5.892,7 7,7 l 7,0 c 1.228162,0 2,0.8044 2,2 l 25,0 c 1.107999,0 2,0.892 2,2 l 0,-1 C 43,8.892 42.107999,8 41,8 L 16,8 C 16,6.8044 15.228162,6 14,6 L 7,6 z"
       id="path3880" />
  </g>
</svg>
