<?xml version="1.0" encoding="UTF-8" standalone="no"?>
<svg
   xmlns:dc="http://purl.org/dc/elements/1.1/"
   xmlns:cc="http://creativecommons.org/ns#"
   xmlns:rdf="http://www.w3.org/1999/02/22-rdf-syntax-ns#"
   xmlns:svg="http://www.w3.org/2000/svg"
   xmlns="http://www.w3.org/2000/svg"
   xmlns:sodipodi="http://sodipodi.sourceforge.net/DTD/sodipodi-0.dtd"
   xmlns:inkscape="http://www.inkscape.org/namespaces/inkscape"
   width="48"
   height="48"
   viewBox="0 0 48 48"
   id="svg2"
   version="1.1"
   inkscape:version="0.91pre2 r"
   sodipodi:docname="distributor-logo.svg">
  <metadata
     id="metadata12">
    <rdf:RDF>
      <cc:Work
         rdf:about="">
        <dc:format>image/svg+xml</dc:format>
        <dc:type
           rdf:resource="http://purl.org/dc/dcmitype/StillImage" />
        <dc:title />
      </cc:Work>
    </rdf:RDF>
  </metadata>
  <defs
     id="defs10" />
  <sodipodi:namedview
     pagecolor="#ffffff"
     bordercolor="#666666"
     borderopacity="1"
     objecttolerance="10"
     gridtolerance="10"
     guidetolerance="10"
     inkscape:pageopacity="0"
     inkscape:pageshadow="2"
     inkscape:window-width="1366"
     inkscape:window-height="672"
     id="namedview8"
     showgrid="true"
     inkscape:showpageshadow="false"
     borderlayer="true"
     inkscape:zoom="4.9166667"
     inkscape:cx="4.6429815"
     inkscape:cy="25.999002"
     inkscape:window-x="-4"
     inkscape:window-y="25"
     inkscape:window-maximized="1"
     inkscape:current-layer="svg2">
    <inkscape:grid
       type="xygrid"
       id="grid4141" />
  </sodipodi:namedview>
  <path
     style="opacity:1;fill:#333333;fill-opacity:1;stroke:none"
     d="m 24.000002,2.4414064e-7 c 13.296,0 24,10.70399975585936 24,23.99999975585936 0,13.296 -10.704,24 -24,24 C 10.704002,48 1.8359375e-6,37.296 1.8359375e-6,24 1.8359375e-6,10.704 10.704002,2.4414064e-7 24.000002,2.4414064e-7 Z"
     id="rect3454" />
  <path
     inkscape:connector-curvature="0"
     style="fill:#f9f9f9;fill-opacity:1;fill-rule:evenodd;stroke:none"
     d="m 18.714641,12.526712 a 1.9979642,1.9979642 0 0 0 -1.43305,0.605817 1.9979642,1.9979642 0 0 0 -0.253545,0.324235 c -1.83861,-0.757244 -3.222327,-0.81927 -3.886113,-0.155984 -0.425184,0.429081 -0.558729,1.149648 -0.389665,2.105465 0.169076,0.95582 0.640189,2.146455 1.376967,3.478917 -0.616906,-2.302307 -1.539561,-6.452994 2.62891,-4.762408 a 1.9979642,1.9979642 0 0 0 -0.04148,0.401931 1.9979642,1.9979642 0 0 0 1.997973,1.997973 1.9979642,1.9979642 0 0 0 1.369369,-0.545062 c 2.071753,1.401156 4.410316,3.362994 6.570527,5.522461 7.865878,8.054779 9.637233,16.323602 -0.747196,10.328117 2.070314,1.544374 4.036291,2.680131 5.607175,3.23941 1.570914,0.559279 2.742005,0.539717 3.339304,-0.05492 0.420467,-0.420551 0.558454,-1.122895 0.403098,-2.055226 -0.155353,-0.932332 -0.603461,-2.093812 -1.31095,-3.395965 -1.415025,-2.604366 -3.894362,-5.77495 -6.736438,-8.616989 -2.172281,-2.171492 -4.536265,-4.1351 -6.691458,-5.565698 a 1.9979642,1.9979642 0 0 0 0.19454,-0.854104 1.9979642,1.9979642 0 0 0 -1.997971,-1.997973 z m 0,0.784585 a 1.2127989,1.2127989 0 0 1 1.213389,1.212805 1.2127989,1.2127989 0 0 1 -0.07712,0.422962 c -3e-4,5.98e-4 -8.98e-4,0.0018 -0.0012,0.0024 -0.0073,0.01938 -0.0157,0.03826 -0.02396,0.05725 a 1.2127989,1.2127989 0 0 1 -0.01753,0.03973 c -0.0092,0.01923 -0.01905,0.03791 -0.02922,0.05667 a 1.2127989,1.2127989 0 0 1 -0.01986,0.03564 c -0.01149,0.01947 -0.02312,0.03902 -0.03564,0.05784 -8.97e-4,8.97e-4 -0.0018,0.0024 -0.003,0.0035 -0.02937,0.04375 -0.06166,0.08481 -0.09639,0.124437 a 1.2127989,1.2127989 0 0 1 -0.02163,0.02512 c -0.01412,0.01526 -0.02952,0.02992 -0.0444,0.0444 a 1.2127989,1.2127989 0 0 1 -0.03856,0.03564 c -0.01185,0.01059 -0.02405,0.02151 -0.03622,0.03155 a 1.2127989,1.2127989 0 0 1 -0.07653,0.05784 1.2127989,1.2127989 0 0 1 -0.0088,0.007 c -5.99e-4,2.99e-4 -5.99e-4,8.97e-4 -0.0012,0.0012 a 1.2127989,1.2127989 0 0 1 -0.682348,0.210314 1.2127989,1.2127989 0 0 1 -1.213389,-1.212805 1.2127989,1.2127989 0 0 1 0.003,-0.06718 c 8.98e-4,-0.01726 0.003,-0.03421 0.0047,-0.05141 a 1.2127989,1.2127989 0 0 1 0.0076,-0.06017 c 0.0027,-0.01798 0.0053,-0.03592 0.0088,-0.05375 a 1.2127989,1.2127989 0 0 1 0.0093,-0.04206 c 0.0169,-0.07217 0.04049,-0.142362 0.07011,-0.210314 a 1.2127989,1.2127989 0 0 1 0.01519,-0.03505 c 0.0095,-0.01995 0.02043,-0.04021 0.03096,-0.05959 a 1.2127989,1.2127989 0 0 1 0.0181,-0.03272 c 0.01077,-0.01843 0.02154,-0.03709 0.0333,-0.05491 a 1.2127989,1.2127989 0 0 1 0.0012,-0.0012 c 0.01684,-0.02557 0.03493,-0.05055 0.05374,-0.07478 a 1.2127989,1.2127989 0 0 1 0.08763,-0.102234 1.2127989,1.2127989 0 0 1 0.869879,-0.368048 z m -1.600131,9.022414 2.461244,9.314548 1.947148,-4.146676 4.401964,-1.270058 -8.810356,-3.897814 z"
     id="path4299-0" />
  <path
     inkscape:connector-curvature="0"
     style="fill:#35cbc4;fill-opacity:1;fill-rule:evenodd;stroke:none"
     d="m 18.714641,12.526712 a 1.9979641,1.9979641 0 0 0 -1.43305,0.605817 1.9979641,1.9979641 0 0 0 -0.253545,0.324235 c -0.0034,-0.0015 -0.0066,-0.0021 -0.0099,-0.0035 -0.12632,0.200847 -0.219972,0.425023 -0.268734,0.66599 0.0031,0.0012 0.0057,0.0024 0.0088,0.0035 a 1.9979641,1.9979641 0 0 0 -0.04148,0.401931 1.9979641,1.9979641 0 0 0 1.997973,1.997973 1.9979641,1.9979641 0 0 0 1.369369,-0.545062 c 0.0027,0.0018 0.0056,0.0035 0.0082,0.0053 0.179922,-0.169459 0.327764,-0.371614 0.435232,-0.597641 -0.0031,-0.0021 -0.0063,-0.0044 -0.0093,-0.0064 a 1.9979641,1.9979641 0 0 0 0.194539,-0.854104 1.9979641,1.9979641 0 0 0 -1.99797,-1.997973 z m 0,0.784585 a 1.2127988,1.2127988 0 0 1 1.213389,1.212805 1.2127988,1.2127988 0 0 1 -0.07712,0.422962 c -3e-4,5.98e-4 -8.98e-4,0.0018 -0.0012,0.0024 -0.0073,0.01938 -0.0157,0.03826 -0.02396,0.05725 a 1.2127988,1.2127988 0 0 1 -0.01753,0.03973 c -0.0092,0.01923 -0.01905,0.03791 -0.02922,0.05667 a 1.2127988,1.2127988 0 0 1 -0.01986,0.03564 c -0.01149,0.01947 -0.02312,0.03902 -0.03564,0.05784 -8.97e-4,8.97e-4 -0.0018,0.0024 -0.003,0.0035 -0.02937,0.04375 -0.06166,0.08481 -0.09639,0.124437 a 1.2127988,1.2127988 0 0 1 -0.02163,0.02512 c -0.01412,0.01526 -0.02952,0.02992 -0.0444,0.0444 a 1.2127988,1.2127988 0 0 1 -0.03856,0.03564 c -0.01185,0.01059 -0.02405,0.02151 -0.03622,0.03155 a 1.2127988,1.2127988 0 0 1 -0.07653,0.05784 1.2127988,1.2127988 0 0 1 -0.0088,0.007 c -5.99e-4,2.99e-4 -5.99e-4,8.97e-4 -0.0012,0.0012 a 1.2127988,1.2127988 0 0 1 -0.682348,0.210314 1.2127988,1.2127988 0 0 1 -1.213389,-1.212805 1.2127988,1.2127988 0 0 1 0.003,-0.06718 c 8.98e-4,-0.01726 0.003,-0.03421 0.0047,-0.05141 a 1.2127988,1.2127988 0 0 1 0.0076,-0.06017 c 0.0027,-0.01798 0.0053,-0.03592 0.0088,-0.05375 a 1.2127988,1.2127988 0 0 1 0.0093,-0.04206 c 0.0169,-0.07217 0.04049,-0.142362 0.07011,-0.210314 a 1.2127988,1.2127988 0 0 1 0.01519,-0.03505 c 0.0095,-0.01995 0.02043,-0.04021 0.03096,-0.05959 a 1.2127988,1.2127988 0 0 1 0.0181,-0.03272 c 0.01077,-0.01843 0.02154,-0.03709 0.0333,-0.05491 a 1.2127988,1.2127988 0 0 1 0.0012,-0.0012 c 0.01684,-0.02557 0.03493,-0.05055 0.05374,-0.07478 a 1.2127988,1.2127988 0 0 1 0.08763,-0.102234 1.2127988,1.2127988 0 0 1 0.869879,-0.368048 z"
     id="path3425-4" />
</svg>
