<?xml version="1.0" encoding="UTF-8" standalone="no"?>
<svg
   xmlns:dc="http://purl.org/dc/elements/1.1/"
   xmlns:cc="http://creativecommons.org/ns#"
   xmlns:rdf="http://www.w3.org/1999/02/22-rdf-syntax-ns#"
   xmlns:svg="http://www.w3.org/2000/svg"
   xmlns="http://www.w3.org/2000/svg"
   xmlns:sodipodi="http://sodipodi.sourceforge.net/DTD/sodipodi-0.dtd"
   xmlns:inkscape="http://www.inkscape.org/namespaces/inkscape"
   enable-background="new 0 0 32 32"
   height="16"
   id="Layer_1"
   version="1.1"
   viewBox="0 0 16 16"
   width="16"
   xml:space="preserve"
   inkscape:version="0.48.5 r10040"
   sodipodi:docname="muzika.svg"><metadata
     id="metadata26"><rdf:RDF><cc:Work
         rdf:about=""><dc:format>image/svg+xml</dc:format><dc:type
           rdf:resource="http://purl.org/dc/dcmitype/StillImage" /><dc:title /></cc:Work></rdf:RDF></metadata><defs
     id="defs24" /><sodipodi:namedview
     pagecolor="#ffffff"
     bordercolor="#666666"
     borderopacity="1"
     objecttolerance="10"
     gridtolerance="10"
     guidetolerance="10"
     inkscape:pageopacity="0"
     inkscape:pageshadow="2"
     inkscape:window-width="1920"
     inkscape:window-height="1025"
     id="namedview22"
     showgrid="true"
     inkscape:zoom="25.989459"
     inkscape:cx="1.3739204"
     inkscape:cy="12.330642"
     inkscape:window-x="0"
     inkscape:window-y="28"
     inkscape:window-maximized="1"
     inkscape:current-layer="Layer_1"><inkscape:grid
       type="xygrid"
       id="grid3003"
       empspacing="5"
       visible="true"
       enabled="true"
       snapvisiblegridlinesonly="true" /></sodipodi:namedview><g
     id="g3000"
     transform="matrix(0.16582666,0,0,0.16582666,-0.40796905,-0.56067629)"
     style="fill:#bebebe;fill-opacity:1"><path
       id="path2984"
       d="m 90.129,54.778 c -2.018,-2.314 -2.034672,-4.167 -4.690672,-5.52 2.048,-8.299 1.894,-22.688767 -4.016,-31.251767 0.671,-1.838 -2.125328,-3.976 -3.622328,-5.425 -6.332,-6.1280003 -15.669,-9.236 -27.096,-9.236 l 0,0 c -11.427,0 -20.764,3.1079997 -27.096,9.237 -1.497,1.449 -4.293606,3.587 -3.622606,5.425 -5.909,8.563 -6.062,22.952767 -4.015,31.251767 -2.656,1.352 -2.673394,3.205 -4.690394,5.52 -4.137,4.746 -6.179,10.818 -5.748,17.099 0.842,12.312 11.164,21.959 23.492,21.959 0.541,0 1.083,-0.02 1.63,-0.056 0.81,-0.056 1.566,-0.431 2.102,-1.046 0.533,-0.61 0.802,-1.412 0.746,-2.223 L 30.7,49.601 c -0.116,-1.689 -3.973606,-2.953 -5.650606,-2.849 -1.108,0.076 -2.191,0.254 -3.259,0.477 -1.517,-6.714 -1.381,-19.181767 3.342,-25.902767 1.449394,0.146046 4.678606,-0.532 5.578606,-1.403 4.362,-4.221 11.309,-6.361 19.992,-6.361 l 0,0 c 8.683,0 15.63,2.14 19.992,6.361 0.899,0.87 4.129935,1.549046 5.577328,1.404 4.724,6.72 4.859,19.188767 3.343,25.901767 -1.067,-0.223 -4.534328,-0.401 -5.642328,-0.477 -1.676,-0.106 -3.151,1.159 -3.267,2.849 l -2.802,40.911 c -0.056,0.811 0.213,1.612 0.746,2.223 0.535,0.615 1.291,0.99 2.102,1.046 0.547,0.036 1.09,0.056 1.63,0.056 12.329,0 22.65,-9.646 23.492,-21.959 0.434,-6.281 -1.608,-12.354 -5.745,-17.1 z"
       inkscape:connector-curvature="0"
       style="fill:#bebebe;fill-opacity:1"
       sodipodi:nodetypes="ccccccsccccsccccccccccccccccccscc" /><g
       id="g2986"
       style="fill:#bebebe;fill-opacity:1" /><g
       id="g2990"
       style="fill:#bebebe;fill-opacity:1" /></g></svg>