<?xml version="1.0" encoding="UTF-8" standalone="no"?>
<svg
   xmlns:dc="http://purl.org/dc/elements/1.1/"
   xmlns:cc="http://creativecommons.org/ns#"
   xmlns:rdf="http://www.w3.org/1999/02/22-rdf-syntax-ns#"
   xmlns:svg="http://www.w3.org/2000/svg"
   xmlns="http://www.w3.org/2000/svg"
   xmlns:sodipodi="http://sodipodi.sourceforge.net/DTD/sodipodi-0.dtd"
   xmlns:inkscape="http://www.inkscape.org/namespaces/inkscape"
   enable-background="new 0 0 32 32"
   height="16"
   id="Layer_1"
   version="1.1"
   viewBox="0 0 16 16"
   width="16"
   xml:space="preserve"
   inkscape:version="0.48.5 r10040"
   sodipodi:docname="juesbi.svg"><metadata
     id="metadata12"><rdf:RDF><cc:Work
         rdf:about=""><dc:format>image/svg+xml</dc:format><dc:type
           rdf:resource="http://purl.org/dc/dcmitype/StillImage" /><dc:title></dc:title></cc:Work></rdf:RDF></metadata><defs
     id="defs10" /><sodipodi:namedview
     pagecolor="#ffffff"
     bordercolor="#666666"
     borderopacity="1"
     objecttolerance="10"
     gridtolerance="10"
     guidetolerance="10"
     inkscape:pageopacity="0"
     inkscape:pageshadow="2"
     inkscape:window-width="1920"
     inkscape:window-height="1052"
     id="namedview8"
     showgrid="true"
     inkscape:zoom="48.562859"
     inkscape:cx="2.2656889"
     inkscape:cy="7.3844807"
     inkscape:window-x="0"
     inkscape:window-y="28"
     inkscape:window-maximized="1"
     inkscape:current-layer="Layer_1"><inkscape:grid
       type="xygrid"
       id="grid2991"
       empspacing="5"
       visible="true"
       enabled="true"
       snapvisiblegridlinesonly="true" /></sodipodi:namedview><rect
     style="fill:#bebebe;fill-opacity:1;stroke:none"
     id="rect3781"
     width="8"
     height="11"
     x="4"
     y="5"
     rx="2"
     ry="2" /><path
     style="fill:#bebebe;fill-opacity:1;stroke:none"
     d="M 6 0 C 5.446 0 5 0.446 5 1 L 5 3 C 5 3.554 5.446 4 6 4 L 10 4 C 10.554 4 11 3.554 11 3 L 11 1 C 11 0.446 10.554 0 10 0 L 6 0 z M 6 1 L 7 1 L 7 3 L 6 3 L 6 1 z M 9 1 L 10 1 L 10 3 L 9 3 L 9 1 z "
     id="rect3783" /><rect
     style="fill:#f9f9f9;fill-opacity:1;stroke:none"
     id="rect3791"
     width="0.10295934"
     height="0.020591868"
     x="4.530211"
     y="2.6152856"
     rx="1"
     ry="0.020591868" /></svg>