<?xml version="1.0" encoding="UTF-8" standalone="no"?>
<svg
   xmlns:dc="http://purl.org/dc/elements/1.1/"
   xmlns:cc="http://creativecommons.org/ns#"
   xmlns:rdf="http://www.w3.org/1999/02/22-rdf-syntax-ns#"
   xmlns:svg="http://www.w3.org/2000/svg"
   xmlns="http://www.w3.org/2000/svg"
   xmlns:sodipodi="http://sodipodi.sourceforge.net/DTD/sodipodi-0.dtd"
   xmlns:inkscape="http://www.inkscape.org/namespaces/inkscape"
   enable-background="new 0 0 32 32"
   height="16"
   id="Layer_1"
   version="1.1"
   viewBox="0 0 16 16"
   width="16"
   xml:space="preserve"
   inkscape:version="0.48.5 r10040"
   sodipodi:docname="nastrojki.svg"><metadata
     id="metadata26"><rdf:RDF><cc:Work
         rdf:about=""><dc:format>image/svg+xml</dc:format><dc:type
           rdf:resource="http://purl.org/dc/dcmitype/StillImage" /><dc:title /></cc:Work></rdf:RDF></metadata><defs
     id="defs24" /><sodipodi:namedview
     pagecolor="#ffffff"
     bordercolor="#666666"
     borderopacity="1"
     objecttolerance="10"
     gridtolerance="10"
     guidetolerance="10"
     inkscape:pageopacity="0"
     inkscape:pageshadow="2"
     inkscape:window-width="1920"
     inkscape:window-height="1023"
     id="namedview22"
     showgrid="true"
     inkscape:zoom="45.804353"
     inkscape:cx="8.064525"
     inkscape:cy="6.9433605"
     inkscape:window-x="0"
     inkscape:window-y="28"
     inkscape:window-maximized="1"
     inkscape:current-layer="Layer_1"><inkscape:grid
       type="xygrid"
       id="grid3003"
       empspacing="5"
       visible="true"
       enabled="true"
       snapvisiblegridlinesonly="true" /></sodipodi:namedview><path
     style="fill:#bebebe;fill-opacity:1;stroke:none"
     d="M 3,0 C 1.338,0 0,1.338 0,3 0,4.662 1.338,6 3,6 L 13,6 C 14.662,6 16,4.662 16,3 16,1.338 14.662,0 13,0 L 3,0 z M 4,1 C 5.1045695,1 6,1.8954305 6,3 6,4.1045695 5.1045695,5 4,5 2.8954305,5 2,4.1045695 2,3 2,1.8954305 2.8954305,1 4,1 z"
     id="rect3004"
     inkscape:connector-curvature="0" /><path
     style="fill:#bebebe;fill-opacity:1;stroke:none"
     d="m 3,10 c -1.662,0 -3,1.338 -3,3 0,1.662 1.338,3 3,3 l 10,0 c 1.662,0 3,-1.338 3,-3 0,-1.662 -1.338,-3 -3,-3 L 3,10 z m 9,1 c 1.104569,0 2,0.89543 2,2 0,1.10457 -0.895431,2 -2,2 -1.104569,0 -2,-0.89543 -2,-2 0,-1.10457 0.895431,-2 2,-2 z"
     id="rect3006"
     inkscape:connector-curvature="0" /></svg>