<?xml version="1.0" encoding="UTF-8" standalone="no"?>
<!-- Created with Inkscape (http://www.inkscape.org/) -->

<svg
   xmlns:dc="http://purl.org/dc/elements/1.1/"
   xmlns:cc="http://creativecommons.org/ns#"
   xmlns:rdf="http://www.w3.org/1999/02/22-rdf-syntax-ns#"
   xmlns:svg="http://www.w3.org/2000/svg"
   xmlns="http://www.w3.org/2000/svg"
   xmlns:xlink="http://www.w3.org/1999/xlink"
   xmlns:sodipodi="http://sodipodi.sourceforge.net/DTD/sodipodi-0.dtd"
   xmlns:inkscape="http://www.inkscape.org/namespaces/inkscape"
   width="48"
   height="48"
   id="svg4230"
   version="1.1"
   inkscape:version="0.91+devel r"
   sodipodi:docname="camera.svg"
   inkscape:export-filename="/home/uri/mouse.png"
   inkscape:export-xdpi="960"
   inkscape:export-ydpi="960">
  <defs
     id="defs4232">
    <linearGradient
       id="linearGradient4289">
      <stop
         style="stop-color:#e5c302;stop-opacity:1"
         offset="0"
         id="stop4291" />
      <stop
         style="stop-color:#455c17;stop-opacity:0"
         offset="1"
         id="stop4293" />
    </linearGradient>
    <linearGradient
       id="linearGradient4283">
      <stop
         id="stop4285"
         offset="0"
         style="stop-color:#41abcc;stop-opacity:1" />
      <stop
         id="stop4287"
         offset="1"
         style="stop-color:#225c7c;stop-opacity:0" />
    </linearGradient>
    <linearGradient
       inkscape:collect="always"
       id="linearGradient4256">
      <stop
         style="stop-color:#020202;stop-opacity:1"
         offset="0"
         id="stop4258" />
      <stop
         style="stop-color:#242527;stop-opacity:1"
         offset="1"
         id="stop4260" />
    </linearGradient>
    <linearGradient
       inkscape:collect="always"
       id="linearGradient4248">
      <stop
         style="stop-color:#1b1b1b;stop-opacity:1"
         offset="0"
         id="stop4250" />
      <stop
         style="stop-color:#010101;stop-opacity:1"
         offset="1"
         id="stop4252" />
    </linearGradient>
    <linearGradient
       id="linearGradient4243">
      <stop
         style="stop-color:#000000;stop-opacity:1;"
         offset="0"
         id="stop4245" />
      <stop
         style="stop-color:#000000;stop-opacity:0;"
         offset="1"
         id="stop4247" />
    </linearGradient>
    <radialGradient
       inkscape:collect="always"
       xlink:href="#linearGradient4243"
       id="radialGradient4274"
       gradientUnits="userSpaceOnUse"
       gradientTransform="matrix(1.0434782,0,0,0.1956518,-1.0434797,35.184809)"
       cx="24.000001"
       cy="42.499991"
       fx="24.000001"
       fy="42.499991"
       r="23" />
    <linearGradient
       inkscape:collect="always"
       xlink:href="#linearGradient4256"
       id="linearGradient3880"
       x1="25"
       y1="45.999981"
       x2="25"
       y2="1.999983"
       gradientUnits="userSpaceOnUse" />
    <radialGradient
       inkscape:collect="always"
       xlink:href="#linearGradient4188"
       id="radialGradient4194"
       cx="27.5"
       cy="20.5"
       fx="27.5"
       fy="20.5"
       r="1.5"
       gradientUnits="userSpaceOnUse"
       gradientTransform="matrix(0.74925999,-0.01090948,0.01115241,0.76594439,5.924256,4.907151)" />
    <linearGradient
       inkscape:collect="always"
       id="linearGradient4188">
      <stop
         style="stop-color:#ffffff;stop-opacity:1;"
         offset="0"
         id="stop4190" />
      <stop
         style="stop-color:#ffffff;stop-opacity:0;"
         offset="1"
         id="stop4192" />
    </linearGradient>
    <radialGradient
       inkscape:collect="always"
       xlink:href="#linearGradient4289"
       id="radialGradient4052"
       gradientUnits="userSpaceOnUse"
       gradientTransform="matrix(0.00571315,-1.385863,-1.6372791,-0.00674962,58.6783,54.6492)"
       cx="19.5"
       cy="18.5"
       fx="19.5"
       fy="18.5"
       r="4.5" />
    <linearGradient
       id="linearGradient4054">
      <stop
         id="stop4056"
         offset="0"
         style="stop-color:#1c64cb;stop-opacity:1;" />
      <stop
         id="stop4058"
         offset="1"
         style="stop-color:#1c64cb;stop-opacity:0;" />
    </linearGradient>
    <radialGradient
       inkscape:collect="always"
       xlink:href="#linearGradient4188"
       id="radialGradient4111"
       gradientUnits="userSpaceOnUse"
       cx="26.5"
       cy="24.5"
       fx="26.5"
       fy="24.5"
       r="0.5"
       gradientTransform="matrix(3.0000001,0,0,3.0000001,-49.655262,-44.48357)" />
    <radialGradient
       inkscape:collect="always"
       xlink:href="#linearGradient4188"
       id="radialGradient4105"
       gradientUnits="userSpaceOnUse"
       cx="26.5"
       cy="24.5"
       fx="26.5"
       fy="24.5"
       r="0.5"
       gradientTransform="matrix(0.70028198,-0.00699153,0.0254498,2.5490974,19.248234,-61.008152)" />
    <radialGradient
       inkscape:collect="always"
       xlink:href="#linearGradient4188"
       id="radialGradient4101"
       cx="26.5"
       cy="24.5"
       fx="26.5"
       fy="24.5"
       r="0.5"
       gradientUnits="userSpaceOnUse"
       gradientTransform="matrix(1.2985549,0.05398057,-0.05400552,1.2991551,-7.703162,-8.882975)" />
    <radialGradient
       inkscape:collect="always"
       xlink:href="#linearGradient4283"
       id="radialGradient4048"
       cx="19.5"
       cy="18.5"
       fx="19.5"
       fy="18.5"
       r="4.5"
       gradientUnits="userSpaceOnUse"
       gradientTransform="matrix(1.385863,-0.00571315,0.00674962,1.6372791,-7.649198,-11.6783)" />
    <linearGradient
       id="linearGradient4042">
      <stop
         style="stop-color:#bf47c8;stop-opacity:1;"
         offset="0"
         id="stop4044" />
      <stop
         style="stop-color:#bf47c8;stop-opacity:0;"
         offset="1"
         id="stop4046" />
    </linearGradient>
    <radialGradient
       inkscape:collect="always"
       xlink:href="#linearGradient4188"
       id="radialGradient4136"
       cx="-380.97205"
       cy="952.02814"
       fx="-380.97205"
       fy="952.02814"
       r="0.75"
       gradientTransform="matrix(0.82015486,-0.10024941,0.17532728,1.4343778,158.19293,-1375.9946)"
       gradientUnits="userSpaceOnUse" />
    <radialGradient
       inkscape:collect="always"
       xlink:href="#linearGradient4188"
       id="radialGradient4124"
       cx="20"
       cy="18"
       fx="20"
       fy="18"
       r="2"
       gradientUnits="userSpaceOnUse"
       gradientTransform="matrix(0.58081462,-0.01314556,0.01356228,0.59922616,9.1395858,6.9768403)" />
    <radialGradient
       inkscape:collect="always"
       xlink:href="#linearGradient4243"
       id="radialGradient4184"
       cx="24"
       cy="23"
       fx="24"
       fy="23"
       r="4"
       gradientUnits="userSpaceOnUse"
       gradientTransform="matrix(1.25,0,0,1.25,-6,-5.75)" />
    <radialGradient
       inkscape:collect="always"
       xlink:href="#linearGradient4243"
       id="radialGradient4170"
       cx="24"
       cy="23"
       fx="24"
       fy="23"
       r="6"
       gradientUnits="userSpaceOnUse"
       gradientTransform="matrix(1.1666667,-2.611111e-7,2.611111e-7,1.1666667,-4.000006,-3.833327)" />
    <radialGradient
       inkscape:collect="always"
       xlink:href="#linearGradient4243"
       id="radialGradient4157"
       cx="24"
       cy="23"
       fx="24"
       fy="23"
       r="7"
       gradientUnits="userSpaceOnUse"
       gradientTransform="matrix(1.1428571,2.836735e-7,-2.836735e-7,1.1428571,-3.428565,-3.285721)" />
    <linearGradient
       inkscape:collect="always"
       xlink:href="#linearGradient4054"
       id="linearGradient4085"
       gradientUnits="userSpaceOnUse"
       x1="24"
       y1="23"
       x2="23.372467"
       y2="22.275902"
       gradientTransform="rotate(180,24,23)" />
    <linearGradient
       inkscape:collect="always"
       xlink:href="#linearGradient4042"
       id="linearGradient4081"
       x1="24"
       y1="23"
       x2="23.372467"
       y2="22.275902"
       gradientUnits="userSpaceOnUse" />
    <linearGradient
       gradientTransform="matrix(1.8,0,0,0.81818182,33,1.7273)"
       inkscape:collect="always"
       xlink:href="#linearGradient4001"
       id="linearGradient4007"
       x1="-8.333333"
       y1="34.555523"
       x2="-1.6666666"
       y2="17.44441"
       gradientUnits="userSpaceOnUse" />
    <linearGradient
       id="linearGradient4001">
      <stop
         style="stop-color:#bec0c8;stop-opacity:1;"
         offset="0"
         id="stop4003" />
      <stop
         style="stop-color:#fcfcfd;stop-opacity:1;"
         offset="1"
         id="stop4005" />
    </linearGradient>
    <linearGradient
       inkscape:collect="always"
       xlink:href="#linearGradient4256"
       id="linearGradient4239"
       gradientUnits="userSpaceOnUse"
       x1="28"
       y1="4"
       x2="28"
       y2="45"
       gradientTransform="scale(1,-1)" />
    <linearGradient
       inkscape:collect="always"
       xlink:href="#linearGradient4248"
       id="linearGradient4254"
       x1="25"
       y1="36"
       x2="25"
       y2="10"
       gradientUnits="userSpaceOnUse" />
    <linearGradient
       inkscape:collect="always"
       xlink:href="#linearGradient4256"
       id="linearGradient4262"
       x1="25"
       y1="11.999983"
       x2="25"
       y2="34"
       gradientUnits="userSpaceOnUse" />
  </defs>
  <sodipodi:namedview
     id="base"
     pagecolor="#ffffff"
     bordercolor="#666666"
     borderopacity="1.0"
     inkscape:pageopacity="0.0"
     inkscape:pageshadow="2"
     inkscape:zoom="3.9999998"
     inkscape:cx="11.47841"
     inkscape:cy="17.819237"
     inkscape:document-units="px"
     inkscape:current-layer="layer2"
     showgrid="true"
     inkscape:showpageshadow="false"
     borderlayer="true"
     inkscape:window-width="1366"
     inkscape:window-height="670"
     inkscape:window-x="-4"
     inkscape:window-y="29"
     inkscape:window-maximized="1"
     showguides="true"
     inkscape:guide-bbox="true">
    <inkscape:grid
       type="xygrid"
       id="grid4162" />
    <sodipodi:guide
       position="1.0000013,47.000017"
       orientation="46,0"
       id="guide4163" />
    <sodipodi:guide
       position="1.0000013,1.0000174"
       orientation="0,45.999999"
       id="guide4165" />
    <sodipodi:guide
       position="47,1.0000174"
       orientation="-46,0"
       id="guide4167" />
    <sodipodi:guide
       position="47,47.000017"
       orientation="0,-45.999999"
       id="guide4169" />
    <sodipodi:guide
       position="2.0000007,46.000017"
       orientation="44,0"
       id="guide4173" />
    <sodipodi:guide
       position="2.0000007,2.0000174"
       orientation="0,43.999999"
       id="guide4175" />
    <sodipodi:guide
       position="46,2.0000174"
       orientation="-44,0"
       id="guide4177" />
    <sodipodi:guide
       position="46,46.000017"
       orientation="0,-43.999999"
       id="guide4179" />
    <sodipodi:guide
       position="3,45.000017"
       orientation="42,0"
       id="guide4183" />
    <sodipodi:guide
       position="45,3.0000174"
       orientation="-42,0"
       id="guide4187" />
    <sodipodi:guide
       position="45,45.000017"
       orientation="0,-42"
       id="guide4189" />
    <sodipodi:guide
       position="3,45.000017"
       orientation="42,0"
       id="guide4193" />
    <sodipodi:guide
       position="3,3.0000174"
       orientation="0,42"
       id="guide4195" />
    <sodipodi:guide
       position="45,3.0000174"
       orientation="-42,0"
       id="guide4197" />
    <sodipodi:guide
       position="45,45.000017"
       orientation="0,-42"
       id="guide4199" />
    <sodipodi:guide
       position="3,10.000017"
       orientation="7,0"
       id="guide4203" />
    <sodipodi:guide
       position="3,3.0000174"
       orientation="0,42"
       id="guide4205" />
    <sodipodi:guide
       position="45,3.0000174"
       orientation="-7,0"
       id="guide4207" />
    <sodipodi:guide
       position="12,36.000017"
       orientation="24.000002,0"
       id="guide4276" />
    <sodipodi:guide
       position="12,12.000015"
       orientation="0,24"
       id="guide4278" />
    <sodipodi:guide
       position="36,12.000015"
       orientation="-24.000002,0"
       id="guide4280" />
    <sodipodi:guide
       position="36,36.000017"
       orientation="0,-24"
       id="guide4282" />
  </sodipodi:namedview>
  <metadata
     id="metadata4235">
    <rdf:RDF>
      <cc:Work
         rdf:about="">
        <dc:format>image/svg+xml</dc:format>
        <dc:type
           rdf:resource="http://purl.org/dc/dcmitype/StillImage" />
        <dc:title></dc:title>
      </cc:Work>
    </rdf:RDF>
  </metadata>
  <g
     inkscape:groupmode="layer"
     id="layer3"
     inkscape:label="Fake blur shadow"
     style="display:inline"
     sodipodi:insensitive="true">
    <path
       style="opacity:0.06000001;fill:#000000;fill-opacity:1;stroke:none"
       d="M 10,1 C 5.014,1 1,5.014 1,10 l 0,28 c 0,4.986 4.014,9 9,9 l 28,0 c 4.986,0 9,-4.014 9,-9 L 47,10 C 47,5.014 42.986,1 38,1 L 10,1 z m 0.5,0.5 27,0 c 4.986,0 9,4.014 9,9 l 0,27 c 0,4.986 -4.014,9 -9,9 l -27,0 c -4.986,0 -9,-4.014 -9,-9 l 0,-27 c 0,-4.986 4.014,-9 9,-9 z"
       id="rect3829"
       inkscape:connector-curvature="0" />
    <path
       style="opacity:0.12000002;fill:#000000;fill-opacity:1;stroke:none"
       d="m 10.5,1.5 c -4.986,0 -9,4.014 -9,9 l 0,27 c 0,4.986 4.014,9 9,9 l 27,0 c 4.986,0 9,-4.014 9,-9 l 0,-27 c 0,-4.986 -4.014,-9 -9,-9 l -27,0 z m 0.25,0.25 26.5,0 c 4.986,0 9,4.014 9,9 l 0,26.5 c 0,4.986 -4.014,9 -9,9 l -26.5,0 c -4.986,0 -9,-4.014 -9,-9 l 0,-26.5 c 0,-4.986 4.014,-9 9,-9 z"
       id="rect3827"
       inkscape:connector-curvature="0" />
    <rect
       style="opacity:0.23999999;fill:#000000;fill-opacity:1;stroke:none"
       id="rect3038-4"
       width="44.5"
       height="44.5"
       x="1.75"
       y="1.75"
       ry="9"
       rx="9" />
  </g>
  <g
     inkscape:groupmode="layer"
     id="layer6"
     inkscape:label="Blob"
     style="display:inline"
     sodipodi:insensitive="true">
    <path
       style="opacity:0.3;fill:url(#radialGradient4274);fill-opacity:1;stroke:none"
       d="M 1.03125,39 C 1.5192036,43.518898 5.3471961,47 10,47 l 28,0 c 4.652804,0 8.480796,-3.481102 8.96875,-8 l -45.9375,0 z"
       id="rect4241"
       inkscape:connector-curvature="0" />
  </g>
  <g
     inkscape:groupmode="layer"
     id="layer2"
     inkscape:label="Baseplate"
     style="display:inline">
    <rect
       style="fill:url(#linearGradient3880);fill-opacity:1.0;stroke:none"
       id="rect3038"
       width="44"
       height="44"
       x="2"
       y="1.9999826"
       ry="9"
       rx="9" />
    <rect
       rx="8.181818"
       ry="8.181818"
       y="-43"
       x="4"
       height="39.000019"
       width="40"
       id="rect4237"
       style="fill:url(#linearGradient4239);fill-opacity:1;stroke:none"
       transform="scale(1,-1)" />
    <circle
       style="opacity:0.5;fill:#000000;fill-opacity:0.05882353;stroke:none;stroke-opacity:1"
       id="path4304"
       cx="24"
       cy="25"
       r="13" />
    <circle
       r="13"
       cy="23.999996"
       cx="24"
       id="circle4306"
       style="opacity:1;fill:url(#linearGradient4254);fill-opacity:1;stroke:none;stroke-opacity:1" />
    <circle
       style="opacity:1;fill:url(#linearGradient4262);fill-opacity:1;stroke:none;stroke-opacity:1"
       id="circle4319"
       cx="24"
       cy="23.999996"
       r="11" />
    <circle
       r="9.9999981"
       cy="24.000019"
       cx="24"
       id="path3999"
       style="display:inline;fill:url(#linearGradient4007);fill-opacity:1;stroke:none" />
    <circle
       r="7.7777762"
       cy="23.999939"
       cx="24"
       style="display:inline;fill:#163b3c;fill-opacity:1;stroke:none"
       id="path4019" />
    <circle
       r="6.6666656"
       cy="24.00001"
       cx="24"
       id="path4023"
       style="display:inline;fill:#1a423d;fill-opacity:1;stroke:none" />
    <circle
       r="4.4444437"
       cy="24.00004"
       cx="24"
       style="display:inline;fill:#2c5438;fill-opacity:1;stroke:none"
       id="path4025" />
    <circle
       r="2.2222219"
       cy="23.99996"
       cx="24"
       id="path4027"
       style="display:inline;fill:#0e1f6f;fill-opacity:1;stroke:none" />
    <circle
       r="1.1111109"
       cy="24.000029"
       cx="24"
       style="display:inline;fill:#000000;fill-opacity:1;stroke:none"
       id="path4029" />
    <path
       inkscape:connector-curvature="0"
       style="display:inline;opacity:0.55;fill:url(#linearGradient4081);fill-opacity:1;stroke:none;stroke-width:1px;stroke-linecap:butt;stroke-linejoin:miter;stroke-opacity:1"
       d="m 24,22.888874 c -0.61365,0 -1.111111,0.497461 -1.111111,1.111111 l 1.111111,0 0,-1.111111 z"
       id="path4060" />
    <path
       id="path4083"
       d="m 24,25.111096 c 0.61365,0 1.111111,-0.497444 1.111111,-1.111111 l -1.111111,0 0,1.111111 z"
       style="display:inline;opacity:0.55;fill:url(#linearGradient4085);fill-opacity:1;stroke:none"
       inkscape:connector-curvature="0" />
    <path
       inkscape:connector-curvature="0"
       style="display:inline;fill:url(#radialGradient4157);fill-opacity:1;stroke:none"
       d="m 24,16.222209 c -4.295547,0 -7.777776,3.482229 -7.777776,7.777776 0,4.295547 3.482229,7.777777 7.777776,7.777777 4.295547,0 7.777776,-3.48223 7.777776,-7.777777 0,-4.295547 -3.482229,-7.777776 -7.777776,-7.777776 z m 0,0.277778 c 4.142135,0 7.499999,3.357863 7.499999,7.499998 0,4.142135 -3.357864,7.499999 -7.499999,7.499999 -4.142135,0 -7.499999,-3.357864 -7.499999,-7.499999 0,-4.142135 3.357864,-7.499998 7.499999,-7.499998 z"
       id="path4146" />
    <path
       inkscape:connector-curvature="0"
       style="display:inline;fill:url(#radialGradient4170);fill-opacity:1;stroke:none"
       d="m 24,17.33332 c -3.681897,0 -6.666666,2.984767 -6.666666,6.666665 0,3.681899 2.984769,6.666666 6.666666,6.666666 3.681897,0 6.666666,-2.984767 6.666666,-6.666666 0,-3.681898 -2.984769,-6.666665 -6.666666,-6.666665 z m 0,0.277778 c 3.528485,0 6.388888,2.860402 6.388888,6.388887 0,3.528485 -2.860403,6.388888 -6.388888,6.388888 -3.528485,0 -6.388888,-2.860403 -6.388888,-6.388888 0,-3.528485 2.860403,-6.388887 6.388888,-6.388887 z"
       id="path4159" />
    <path
       inkscape:connector-curvature="0"
       style="display:inline;fill:url(#radialGradient4184);fill-opacity:1;stroke:none"
       d="m 24,19.555542 c -2.454598,0 -4.444444,1.989845 -4.444444,4.444443 0,2.454599 1.989846,4.444444 4.444444,4.444444 2.454598,0 4.444444,-1.989845 4.444444,-4.444444 0,-2.454598 -1.989846,-4.444443 -4.444444,-4.444443 z m 0,0.277777 c 2.301186,0 4.166666,1.86548 4.166666,4.166666 0,2.301187 -1.86548,4.166666 -4.166666,4.166666 -2.301186,0 -4.166666,-1.865479 -4.166666,-4.166666 0,-2.301186 1.86548,-4.166666 4.166666,-4.166666 z"
       id="path4175" />
    <circle
       r="1.6666664"
       cy="17.88888"
       cx="20.666668"
       style="display:inline;opacity:0.7;fill:url(#radialGradient4124);fill-opacity:1;stroke:none"
       id="path4116" />
    <rect
       style="display:inline;opacity:0.7;fill:url(#radialGradient4136);fill-opacity:1;stroke:none"
       id="rect4126"
       width="1.6666664"
       height="2.7777772"
       x="11.382685"
       y="26.985319"
       rx="14.999997"
       ry="2.7777772"
       transform="rotate(-23.083286)" />
    <path
       style="display:inline;opacity:0.6;fill:url(#radialGradient4048);fill-opacity:1;stroke:none"
       d="m 24,13.999987 c -5.522847,0 -9.999998,4.47711 -9.999998,9.999998 l 8.888887,0 C 22.874967,23.525208 23.455587,22.888874 24,22.888874 Z"
       id="path4031"
       inkscape:connector-curvature="0"
       sodipodi:nodetypes="ccccc" />
    <circle
       r="0.83333319"
       cy="25.529778"
       cx="25.539341"
       style="display:inline;opacity:0.5;fill:url(#radialGradient4101);fill-opacity:1;stroke:none"
       id="path4093" />
    <ellipse
       ry="1.6666664"
       rx="0.55555546"
       cy="2.0577135"
       cx="39.682903"
       transform="rotate(42.568864)"
       id="path4103"
       style="display:inline;opacity:0.5;fill:url(#radialGradient4105);fill-opacity:1;stroke:none" />
    <path
       inkscape:connector-curvature="0"
       style="display:inline;opacity:0.7;fill:url(#radialGradient4111);fill-opacity:1;stroke:none"
       d="m 30.493054,29.034707 c -0.920474,0 -1.666666,0.746192 -1.666666,1.666666 0,0.656743 0.38551,1.18675 0.9375,1.458333 0.85301,-0.604176 1.595813,-1.351728 2.222222,-2.187499 -0.269168,-0.558614 -0.831465,-0.9375 -1.493056,-0.9375 z"
       id="path4109" />
    <path
       sodipodi:nodetypes="cccc"
       inkscape:connector-curvature="0"
       id="path4050"
       d="m 33.999998,23.999985 c 0,5.522888 -4.47711,9.999999 -9.999998,9.999999 -1.111111,-3.333333 -1.111111,-6.666666 0,-9.999999 3.333333,-1.111111 6.666666,-1.111111 9.999998,0 z"
       style="display:inline;opacity:0.8;fill:url(#radialGradient4052);fill-opacity:1;stroke:none" />
    <circle
       r="1.6666664"
       cy="21.009989"
       cx="27.063923"
       style="display:inline;opacity:0.5;fill:url(#radialGradient4194);fill-opacity:1;stroke:none"
       id="path4186" />
    <circle
       r="8.8888874"
       cy="23.999996"
       cx="24"
       id="circle4321"
       style="opacity:0.4;fill:#5d686c;fill-opacity:1;stroke:none;stroke-opacity:1" />
  </g>
  <g
     inkscape:label="Symbol"
     inkscape:groupmode="layer"
     id="layer1"
     transform="translate(0,-1004.3622)"
     style="display:inline" />
  <g
     inkscape:groupmode="layer"
     id="layer4"
     inkscape:label="Inset"
     sodipodi:insensitive="true"
     style="display:inline">
    <path
       style="opacity:0.15;fill:#000000;fill-opacity:1;stroke:none"
       d="m 2,34 0,3 c 0,4.986 4.014,9 9,9 l 26,0 c 4.986,0 9,-4.014 9,-9 l 0,-3 c 0,4.986 -4.014,9 -9,9 L 11,43 C 6.014,43 2,38.986 2,34 z"
       id="rect3038-42"
       inkscape:connector-curvature="0" />
  </g>
  <g
     inkscape:groupmode="layer"
     id="layer7"
     inkscape:label="Baseshape"
     sodipodi:insensitive="true"
     style="display:none">
    <rect
       rx="9"
       ry="9"
       y="2"
       x="2"
       height="44"
       width="44"
       id="rect4169"
       style="fill:#abe1ad;fill-opacity:1;stroke:none;display:inline" />
  </g>
</svg>
