<?xml version="1.0" encoding="UTF-8" standalone="no"?>
<!-- Created with Inkscape (http://www.inkscape.org/) -->

<svg
   xmlns:dc="http://purl.org/dc/elements/1.1/"
   xmlns:cc="http://creativecommons.org/ns#"
   xmlns:rdf="http://www.w3.org/1999/02/22-rdf-syntax-ns#"
   xmlns:svg="http://www.w3.org/2000/svg"
   xmlns="http://www.w3.org/2000/svg"
   xmlns:xlink="http://www.w3.org/1999/xlink"
   xmlns:sodipodi="http://sodipodi.sourceforge.net/DTD/sodipodi-0.dtd"
   xmlns:inkscape="http://www.inkscape.org/namespaces/inkscape"
   width="48"
   height="48"
   id="svg4230"
   version="1.1"
   inkscape:version="0.91+devel r"
   sodipodi:docname="media-optical-audio.svg">
  <defs
     id="defs4232">
    <linearGradient
       id="linearGradient5847">
      <stop
         id="stop5849"
         offset="0"
         style="stop-color:#ffffff;stop-opacity:1;" />
      <stop
         style="stop-color:#d22d2d;stop-opacity:1;"
         offset="0.21739133"
         id="stop5859" />
      <stop
         id="stop6761"
         offset="0.39130437"
         style="stop-color:#e81670;stop-opacity:1;" />
      <stop
         style="stop-color:#cfcbce;stop-opacity:1;"
         offset="0.4782609"
         id="stop5857" />
      <stop
         id="stop6769"
         offset="0.5962733"
         style="stop-color:#4db7f4;stop-opacity:1;" />
      <stop
         style="stop-color:#14b560;stop-opacity:1;"
         offset="0.7391305"
         id="stop5855" />
      <stop
         id="stop5851"
         offset="1"
         style="stop-color:#ffffff;stop-opacity:1;" />
    </linearGradient>
    <linearGradient
       id="linearGradient4243">
      <stop
         style="stop-color:#000000;stop-opacity:1;"
         offset="0"
         id="stop4245" />
      <stop
         style="stop-color:#000000;stop-opacity:0;"
         offset="1"
         id="stop4247" />
    </linearGradient>
    <radialGradient
       inkscape:collect="always"
       xlink:href="#linearGradient4243"
       id="radialGradient4274"
       gradientUnits="userSpaceOnUse"
       gradientTransform="matrix(1.0434782,0,0,0.1956518,-1.0434797,35.184809)"
       cx="24.000001"
       cy="42.499991"
       fx="24.000001"
       fy="42.499991"
       r="23" />
    <linearGradient
       inkscape:collect="always"
       xlink:href="#linearGradient4524-7"
       id="linearGradient4530"
       x1="24"
       y1="46"
       x2="24"
       y2="2"
       gradientUnits="userSpaceOnUse"
       gradientTransform="translate(-0.0238043,-0.08392428)" />
    <linearGradient
       inkscape:collect="always"
       xlink:href="#linearGradient5847"
       id="linearGradient5893"
       x1="29.200001"
       y1="14.866665"
       x2="23.799999"
       y2="40.066666"
       gradientUnits="userSpaceOnUse" />
    <linearGradient
       id="linearGradient4524-7">
      <stop
         id="stop4526-3"
         offset="0"
         style="stop-color:#0071bc;stop-opacity:1;" />
      <stop
         id="stop4528-7"
         offset="1"
         style="stop-color:#29abe2;stop-opacity:1;" />
    </linearGradient>
    <linearGradient
       inkscape:collect="always"
       xlink:href="#linearGradient3874"
       id="linearGradient4215"
       x1="33"
       y1="1042.3622"
       x2="33"
       y2="1027.3622"
       gradientUnits="userSpaceOnUse" />
    <linearGradient
       id="linearGradient3874">
      <stop
         id="stop3876"
         offset="0"
         style="stop-color:#ea508d;stop-opacity:1;" />
      <stop
         id="stop3878"
         offset="1"
         style="stop-color:#e66296;stop-opacity:1;" />
    </linearGradient>
  </defs>
  <sodipodi:namedview
     id="base"
     pagecolor="#ffffff"
     bordercolor="#666666"
     borderopacity="1.0"
     inkscape:pageopacity="0.0"
     inkscape:pageshadow="2"
     inkscape:zoom="5.6568545"
     inkscape:cx="44.16363"
     inkscape:cy="37.00768"
     inkscape:document-units="px"
     inkscape:current-layer="layer1"
     showgrid="true"
     inkscape:showpageshadow="false"
     borderlayer="true"
     inkscape:window-width="1366"
     inkscape:window-height="670"
     inkscape:window-x="-4"
     inkscape:window-y="29"
     inkscape:window-maximized="1"
     showguides="true"
     inkscape:guide-bbox="true">
    <inkscape:grid
       type="xygrid"
       id="grid4162" />
    <sodipodi:guide
       position="1.0000013,47.000017"
       orientation="46,0"
       id="guide4163" />
    <sodipodi:guide
       position="1.0000013,1.0000174"
       orientation="0,45.999999"
       id="guide4165" />
    <sodipodi:guide
       position="47,1.0000174"
       orientation="-46,0"
       id="guide4167" />
    <sodipodi:guide
       position="47,47.000017"
       orientation="0,-45.999999"
       id="guide4169" />
    <sodipodi:guide
       position="2.0000007,46.000017"
       orientation="44,0"
       id="guide4173" />
    <sodipodi:guide
       position="2.0000007,2.0000174"
       orientation="0,43.999999"
       id="guide4175" />
    <sodipodi:guide
       position="46,2.0000174"
       orientation="-44,0"
       id="guide4177" />
    <sodipodi:guide
       position="46,46.000017"
       orientation="0,-43.999999"
       id="guide4179" />
    <sodipodi:guide
       position="3,45.000017"
       orientation="42,0"
       id="guide4183" />
    <sodipodi:guide
       position="45,3.0000174"
       orientation="-42,0"
       id="guide4187" />
    <sodipodi:guide
       position="45,45.000017"
       orientation="0,-42"
       id="guide4189" />
    <sodipodi:guide
       position="3,45.000017"
       orientation="42,0"
       id="guide4193" />
    <sodipodi:guide
       position="3,3.0000174"
       orientation="0,42"
       id="guide4195" />
    <sodipodi:guide
       position="45,3.0000174"
       orientation="-42,0"
       id="guide4197" />
    <sodipodi:guide
       position="45,45.000017"
       orientation="0,-42"
       id="guide4199" />
    <sodipodi:guide
       position="3,10.000017"
       orientation="7,0"
       id="guide4203" />
    <sodipodi:guide
       position="3,3.0000174"
       orientation="0,42"
       id="guide4205" />
    <sodipodi:guide
       position="45,3.0000174"
       orientation="-7,0"
       id="guide4207" />
    <sodipodi:guide
       position="45,10.000017"
       orientation="0,-42"
       id="guide4209" />
  </sodipodi:namedview>
  <metadata
     id="metadata4235">
    <rdf:RDF>
      <cc:Work
         rdf:about="">
        <dc:format>image/svg+xml</dc:format>
        <dc:type
           rdf:resource="http://purl.org/dc/dcmitype/StillImage" />
        <dc:title />
      </cc:Work>
    </rdf:RDF>
  </metadata>
  <g
     inkscape:groupmode="layer"
     id="layer3"
     inkscape:label="Fake blur shadow"
     style="display:inline"
     sodipodi:insensitive="true">
    <path
       style="opacity:0.06000001;fill:#000000;fill-opacity:1;stroke:none"
       d="M 10,1 C 5.014,1 1,5.014 1,10 l 0,28 c 0,4.986 4.014,9 9,9 l 28,0 c 4.986,0 9,-4.014 9,-9 L 47,10 C 47,5.014 42.986,1 38,1 L 10,1 z m 0.5,0.5 27,0 c 4.986,0 9,4.014 9,9 l 0,27 c 0,4.986 -4.014,9 -9,9 l -27,0 c -4.986,0 -9,-4.014 -9,-9 l 0,-27 c 0,-4.986 4.014,-9 9,-9 z"
       id="rect3829"
       inkscape:connector-curvature="0" />
    <path
       style="opacity:0.12000002;fill:#000000;fill-opacity:1;stroke:none"
       d="m 10.5,1.5 c -4.986,0 -9,4.014 -9,9 l 0,27 c 0,4.986 4.014,9 9,9 l 27,0 c 4.986,0 9,-4.014 9,-9 l 0,-27 c 0,-4.986 -4.014,-9 -9,-9 l -27,0 z m 0.25,0.25 26.5,0 c 4.986,0 9,4.014 9,9 l 0,26.5 c 0,4.986 -4.014,9 -9,9 l -26.5,0 c -4.986,0 -9,-4.014 -9,-9 l 0,-26.5 c 0,-4.986 4.014,-9 9,-9 z"
       id="rect3827"
       inkscape:connector-curvature="0" />
    <rect
       style="opacity:0.23999999;fill:#000000;fill-opacity:1;stroke:none"
       id="rect3038-4"
       width="44.5"
       height="44.5"
       x="1.75"
       y="1.75"
       ry="9"
       rx="9" />
  </g>
  <g
     inkscape:groupmode="layer"
     id="layer6"
     inkscape:label="Blob"
     style="display:inline"
     sodipodi:insensitive="true">
    <path
       style="opacity:0.3;fill:url(#radialGradient4274);fill-opacity:1;stroke:none"
       d="M 1.03125,39 C 1.5192036,43.518898 5.3471961,47 10,47 l 28,0 c 4.652804,0 8.480796,-3.481102 8.96875,-8 l -45.9375,0 z"
       id="rect4241"
       inkscape:connector-curvature="0" />
  </g>
  <g
     inkscape:groupmode="layer"
     id="layer2"
     inkscape:label="Baseplate"
     style="display:inline">
    <rect
       style="fill:url(#linearGradient4530);fill-opacity:1.0;stroke:none"
       id="rect3038"
       width="44"
       height="44"
       x="1.9761953"
       y="1.9160584"
       ry="9"
       rx="9" />
    <text
       xml:space="preserve"
       style="font-size:40px;font-style:normal;font-weight:normal;line-height:125%;letter-spacing:0px;word-spacing:0px;fill:#000000;fill-opacity:1;stroke:none;font-family:Sans"
       x="18.5625"
       y="21.1875"
       id="text6384"
       sodipodi:linespacing="125%"><tspan
         sodipodi:role="line"
         id="tspan6386" /></text>
    <path
       style="fill:#fffcfc;stroke:#000000;stroke-width:1px;stroke-linecap:butt;stroke-linejoin:miter;stroke-opacity:1;opacity:0;fill-opacity:1"
       d="m 2,21 44,0 0,2 -44,0 z"
       id="path6396"
       inkscape:connector-curvature="0" />
  </g>
  <g
     inkscape:label="Symbol"
     inkscape:groupmode="layer"
     id="layer1"
     transform="translate(0,-1004.3622)"
     style="display:inline">
    <path
       inkscape:transform-center-x="0.50885722"
       transform="matrix(1.1111111,0,0,1.0714286,-5.4444443,999.43363)"
       d="M 40,27 A 13.5,14 0 0 1 26.5,41 13.5,14 0 0 1 13,27 13.5,14 0 0 1 26.5,13 13.5,14 0 0 1 40,27 Z"
       sodipodi:ry="14"
       sodipodi:rx="13.5"
       sodipodi:cy="27"
       sodipodi:cx="26.5"
       id="path5830"
       style="opacity:0.15;fill:#000000;fill-opacity:1;fill-rule:nonzero;stroke:#000000;stroke-width:0;stroke-linecap:butt;stroke-linejoin:miter;stroke-miterlimit:4;stroke-opacity:1;stroke-dasharray:none"
       sodipodi:type="arc" />
    <path
       sodipodi:type="arc"
       style="fill:#cacaca;fill-opacity:1;fill-rule:nonzero;stroke:#000000;stroke-width:0;stroke-linecap:butt;stroke-linejoin:miter;stroke-miterlimit:4;stroke-opacity:1;stroke-dasharray:none"
       id="path5766"
       sodipodi:cx="26.5"
       sodipodi:cy="27"
       sodipodi:rx="13.5"
       sodipodi:ry="14"
       d="M 40,27 A 13.5,14 0 0 1 26.5,41 13.5,14 0 0 1 13,27 13.5,14 0 0 1 26.5,13 13.5,14 0 0 1 40,27 Z"
       transform="matrix(1.1111111,0,0,1.0714286,-5.4444443,998.43363)"
       inkscape:transform-center-x="0.50885722" />
    <path
       inkscape:transform-center-x="0.50885722"
       transform="matrix(1.1111111,0,0,1.0714286,-5.4444443,998.43363)"
       d="M 40,27 A 13.5,14 0 0 1 26.5,41 13.5,14 0 0 1 13,27 13.5,14 0 0 1 26.5,13 13.5,14 0 0 1 40,27 Z"
       sodipodi:ry="14"
       sodipodi:rx="13.5"
       sodipodi:cy="27"
       sodipodi:cx="26.5"
       id="path5885"
       style="fill:url(#linearGradient5893);fill-opacity:1;fill-rule:nonzero;stroke:#000000;stroke-width:0;stroke-linecap:butt;stroke-linejoin:miter;stroke-miterlimit:4;stroke-opacity:1;stroke-dasharray:none;opacity:0.25000000000000000"
       sodipodi:type="arc" />
    <path
       sodipodi:type="arc"
       style="fill:#158fd0;fill-opacity:1;fill-rule:nonzero;stroke:#000000;stroke-width:0;stroke-linecap:butt;stroke-linejoin:miter;stroke-miterlimit:4;stroke-opacity:1;stroke-dasharray:none"
       id="path5768"
       sodipodi:cx="24"
       sodipodi:cy="23"
       sodipodi:rx="2"
       sodipodi:ry="2"
       d="m 26,23 a 2,2 0 0 1 -2,2 2,2 0 0 1 -2,-2 2,2 0 0 1 2,-2 2,2 0 0 1 2,2 z"
       transform="translate(0,1004.3622)" />
    <circle
       id="path5839"
       style="opacity:0.15;fill:#000000;fill-opacity:1;fill-rule:nonzero;stroke:#000000;stroke-width:0;stroke-linecap:butt;stroke-linejoin:miter;stroke-miterlimit:4;stroke-dasharray:none;stroke-opacity:1"
       cx="24"
       cy="1027.3622"
       r="2" />
    <circle
       id="path5841"
       style="fill:#158fd0;fill-opacity:1;fill-rule:nonzero;stroke:#000000;stroke-width:0;stroke-linecap:butt;stroke-linejoin:miter;stroke-miterlimit:4;stroke-dasharray:none;stroke-opacity:1"
       cx="24"
       cy="1028.3622"
       r="2" />
    <path
       sodipodi:type="arc"
       style="fill:none;stroke:#e0e0e0;stroke-width:2.99990082000000013;stroke-linecap:round;stroke-linejoin:round;stroke-miterlimit:4;stroke-opacity:1;stroke-dasharray:none;stroke-dashoffset:0"
       id="path5837"
       sodipodi:cx="24.5"
       sodipodi:cy="22.5"
       sodipodi:rx="3.5"
       sodipodi:ry="3.5"
       d="M 28,22.5 A 3.5,3.5 0 0 1 24.5,26 3.5,3.5 0 0 1 21,22.5 3.5,3.5 0 0 1 24.5,19 3.5,3.5 0 0 1 28,22.5 Z"
       transform="matrix(1.0000331,0,0,1.0000331,-0.50069504,1004.8613)" />
    <path
       sodipodi:nodetypes="ccccccsccccsccccccccccccccccccscc"
       style="fill:#000000;fill-opacity:1;opacity:0.15"
       inkscape:connector-curvature="0"
       d="m 38.037827,1036.8878 c -0.334638,-0.3837 -0.337403,-0.6907 -0.777838,-0.915 0.339613,-1.3757 0.314075,-3.7609 -0.66596,-5.1804 0.111269,-0.3047 -0.352436,-0.659 -0.600679,-0.8992 -1.050014,-1.0158 -2.598338,-1.531 -4.493239,-1.531 l 0,0 c -1.894901,0 -3.443225,0.5152 -4.493239,1.5312 -0.248243,0.2402 -0.711995,0.5945 -0.600725,0.8992 -0.97987,1.4195 -1.005241,3.8047 -0.665794,5.1804 -0.440436,0.2241 -0.44332,0.5311 -0.777792,0.9149 -0.686025,0.7867 -1.024643,1.7932 -0.953172,2.8344 0.139626,2.0407 1.851289,3.6399 3.8956,3.6399 0.08971,0 0.17959,0 0.270297,-0.01 0.13432,-0.01 0.259685,-0.072 0.348568,-0.1734 0.08839,-0.1011 0.132993,-0.234 0.123707,-0.3685 l -0.464647,-6.7814 c -0.01924,-0.28 -0.658929,-0.4895 -0.937021,-0.4723 -0.183736,0.013 -0.363326,0.042 -0.540429,0.079 -0.251559,-1.1129 -0.229006,-3.1795 0.554193,-4.2936 0.240348,0.024 0.775838,-0.088 0.925082,-0.2326 0.723335,-0.6997 1.875333,-1.0544 3.315206,-1.0544 l 0,0 c 1.439873,0 2.591871,0.3547 3.315207,1.0544 0.149078,0.1442 0.684853,0.2568 0.924869,0.2327 0.783366,1.114 0.805752,3.1807 0.554359,4.2935 -0.176937,-0.037 -0.751913,-0.066 -0.935648,-0.079 -0.277926,-0.017 -0.52252,0.1921 -0.541756,0.4723 l -0.464646,6.7814 c -0.0093,0.1345 0.03532,0.2672 0.123706,0.3685 0.08872,0.1019 0.214082,0.1641 0.348568,0.1734 0.09071,0.01 0.180751,0.01 0.270297,0.01 2.044477,0 3.755974,-1.599 3.8956,-3.6399 0.07197,-1.0412 -0.266649,-2.0478 -0.952674,-2.8345 z"
       id="path4499" />
    <path
       sodipodi:type="arc"
       style="opacity:0.42460314999999998;fill:#797979;fill-opacity:0;fill-rule:nonzero;stroke:#7b7b7b;stroke-width:0.10006171000000000;stroke-linecap:round;stroke-linejoin:round;stroke-miterlimit:4;stroke-opacity:1;stroke-dasharray:none;stroke-dashoffset:0"
       id="path5925"
       sodipodi:cx="24"
       sodipodi:cy="23"
       sodipodi:rx="2"
       sodipodi:ry="3"
       d="m 26,23 a 2,3 0 0 1 -2,3 2,3 0 0 1 -2,-3 2,3 0 0 1 2,-3 2,3 0 0 1 2,3 z"
       transform="matrix(1.4688218,0,0,0.97916866,-11.25158,1004.8413)" />
    <path
       id="path2984"
       d="m 38.037827,1035.8878 c -0.334638,-0.3837 -0.337403,-0.6907 -0.777838,-0.915 0.339613,-1.3757 0.314075,-3.7609 -0.66596,-5.1804 0.111269,-0.3047 -0.352436,-0.659 -0.600679,-0.8992 -1.050014,-1.0158 -2.598338,-1.531 -4.493239,-1.531 l 0,0 c -1.894901,0 -3.443225,0.5152 -4.493239,1.5312 -0.248243,0.2402 -0.711995,0.5945 -0.600725,0.8992 -0.97987,1.4195 -1.005241,3.8047 -0.665794,5.1804 -0.440436,0.2241 -0.44332,0.5311 -0.777792,0.9149 -0.686025,0.7867 -1.024643,1.7932 -0.953172,2.8344 0.139626,2.0407 1.851289,3.6399 3.8956,3.6399 0.08971,0 0.17959,0 0.270297,-0.01 0.13432,-0.01 0.259685,-0.072 0.348568,-0.1734 0.08839,-0.1011 0.132993,-0.234 0.123707,-0.3685 l -0.464647,-6.7814 c -0.01924,-0.28 -0.658929,-0.4895 -0.937021,-0.4723 -0.183736,0.013 -0.363326,0.042 -0.540429,0.079 -0.251559,-1.1129 -0.229006,-3.1795 0.554193,-4.2936 0.240348,0.024 0.775838,-0.088 0.925082,-0.2326 0.723335,-0.6997 1.875333,-1.0544 3.315206,-1.0544 l 0,0 c 1.439873,0 2.591871,0.3547 3.315207,1.0544 0.149078,0.1442 0.684853,0.2568 0.924869,0.2327 0.783366,1.114 0.805752,3.1807 0.554359,4.2935 -0.176937,-0.037 -0.751913,-0.066 -0.935648,-0.079 -0.277926,-0.017 -0.52252,0.1921 -0.541756,0.4723 l -0.464646,6.7814 c -0.0093,0.1345 0.03532,0.2672 0.123706,0.3685 0.08872,0.1019 0.214082,0.1641 0.348568,0.1734 0.09071,0.01 0.180751,0.01 0.270297,0.01 2.044477,0 3.755974,-1.599 3.8956,-3.6399 0.07197,-1.0412 -0.266649,-2.0478 -0.952674,-2.8345 z"
       inkscape:connector-curvature="0"
       style="fill:url(#linearGradient4215);fill-opacity:1"
       sodipodi:nodetypes="ccccccsccccsccccccccccccccccccscc" />
  </g>
  <g
     inkscape:groupmode="layer"
     id="layer4"
     inkscape:label="Inset"
     sodipodi:insensitive="true"
     style="display:inline">
    <path
       style="opacity:0.15;fill:#000000;fill-opacity:1;stroke:none"
       d="m 2,34 0,3 c 0,4.986 4.014,9 9,9 l 26,0 c 4.986,0 9,-4.014 9,-9 l 0,-3 c 0,4.986 -4.014,9 -9,9 L 11,43 C 6.014,43 2,38.986 2,34 z"
       id="rect3038-42"
       inkscape:connector-curvature="0" />
  </g>
  <g
     inkscape:groupmode="layer"
     id="layer7"
     inkscape:label="Baseshape"
     sodipodi:insensitive="true"
     style="display:none">
    <rect
       rx="9"
       ry="9"
       y="2"
       x="2"
       height="44"
       width="44"
       id="rect4169"
       style="fill:#abe1ad;fill-opacity:1;stroke:none;display:inline" />
  </g>
</svg>
