<?xml version="1.0" encoding="UTF-8" standalone="no"?>
<svg
   xmlns:dc="http://purl.org/dc/elements/1.1/"
   xmlns:cc="http://creativecommons.org/ns#"
   xmlns:rdf="http://www.w3.org/1999/02/22-rdf-syntax-ns#"
   xmlns:svg="http://www.w3.org/2000/svg"
   xmlns="http://www.w3.org/2000/svg"
   xmlns:sodipodi="http://sodipodi.sourceforge.net/DTD/sodipodi-0.dtd"
   xmlns:inkscape="http://www.inkscape.org/namespaces/inkscape"
   enable-background="new 0 0 32 32"
   height="16"
   id="Layer_1"
   version="1.1"
   viewBox="0 0 16 16"
   width="16"
   xml:space="preserve"
   inkscape:version="0.48.5 r10040"
   sodipodi:docname="posledni.svg"><metadata
     id="metadata15"><rdf:RDF><cc:Work
         rdf:about=""><dc:format>image/svg+xml</dc:format><dc:type
           rdf:resource="http://purl.org/dc/dcmitype/StillImage" /><dc:title></dc:title></cc:Work></rdf:RDF></metadata><defs
     id="defs13" /><sodipodi:namedview
     pagecolor="#ffffff"
     bordercolor="#666666"
     borderopacity="1"
     objecttolerance="10"
     gridtolerance="10"
     guidetolerance="10"
     inkscape:pageopacity="0"
     inkscape:pageshadow="2"
     inkscape:window-width="1920"
     inkscape:window-height="1023"
     id="namedview11"
     showgrid="true"
     inkscape:zoom="57.72"
     inkscape:cx="8.8442183"
     inkscape:cy="8.0843155"
     inkscape:window-x="0"
     inkscape:window-y="28"
     inkscape:window-maximized="1"
     inkscape:current-layer="Layer_1"><inkscape:grid
       type="xygrid"
       id="grid2992"
       empspacing="5"
       visible="true"
       enabled="true"
       snapvisiblegridlinesonly="true" /></sodipodi:namedview><path
     style="fill:#bebebe;fill-opacity:1;stroke:none"
     d="M 8 0 C 3.581722 5.9211895e-16 0 3.5817221 0 8 C 1.1842379e-15 12.418278 3.581722 16 8 16 C 12.418278 16 16 12.418278 16 8 C 16 3.5817221 12.418278 -1.1842379e-15 8 0 z M 8 2 C 8.554 2 9 2.446 9 3 L 9 7 L 9 7.40625 L 11.96875 9.125 C 12.448528 9.402 12.62075 10.020222 12.34375 10.5 C 12.06675 10.979778 11.448528 11.152 10.96875 10.875 L 7.5 8.875 C 7.1798722 8.6901741 7.0015302 8.3435072 7 8 L 7 7.875 L 7 7 L 7 3 C 7 2.446 7.446 2 8 2 z "
     id="path2985" /></svg>