<?xml version="1.0" encoding="UTF-8" standalone="no"?>
<svg
   xmlns:dc="http://purl.org/dc/elements/1.1/"
   xmlns:cc="http://creativecommons.org/ns#"
   xmlns:rdf="http://www.w3.org/1999/02/22-rdf-syntax-ns#"
   xmlns:svg="http://www.w3.org/2000/svg"
   xmlns="http://www.w3.org/2000/svg"
   xmlns:sodipodi="http://sodipodi.sourceforge.net/DTD/sodipodi-0.dtd"
   xmlns:inkscape="http://www.inkscape.org/namespaces/inkscape"
   enable-background="new 0 0 32 32"
   height="16"
   id="Layer_1"
   version="1.1"
   viewBox="0 0 16 16"
   width="16"
   xml:space="preserve"
   inkscape:version="0.48.5 r10040"
   sodipodi:docname="zapazvane-kato.svg"><metadata
     id="metadata12"><rdf:RDF><cc:Work
         rdf:about=""><dc:format>image/svg+xml</dc:format><dc:type
           rdf:resource="http://purl.org/dc/dcmitype/StillImage" /><dc:title /></cc:Work></rdf:RDF></metadata><defs
     id="defs10" /><sodipodi:namedview
     pagecolor="#ffffff"
     bordercolor="#666666"
     borderopacity="1"
     objecttolerance="10"
     gridtolerance="10"
     guidetolerance="10"
     inkscape:pageopacity="0"
     inkscape:pageshadow="2"
     inkscape:window-width="1920"
     inkscape:window-height="1025"
     id="namedview8"
     showgrid="true"
     inkscape:zoom="108.125"
     inkscape:cx="7.6622572"
     inkscape:cy="12.750523"
     inkscape:window-x="0"
     inkscape:window-y="28"
     inkscape:window-maximized="1"
     inkscape:current-layer="Layer_1"
     showguides="true"
     inkscape:guide-bbox="true"><inkscape:grid
       type="xygrid"
       id="grid2991"
       empspacing="5"
       visible="true"
       enabled="true"
       snapvisiblegridlinesonly="true" /></sodipodi:namedview><path
     style="fill:#bebebe;fill-opacity:1;stroke:none"
     d="M 1 8 C 0.446 8 0 8.446 0 9 L 0 15 C 0 15.554 0.446 16 1 16 L 15 16 C 15.554 16 16 15.554 16 15 L 16 9 C 16 8.446 15.554 8 15 8 L 13 8 L 11 10 L 13 10 C 13.554 10 14 10.446 14 11 L 14 13 C 14 13.554 13.554 14 13 14 L 3 14 C 2.446 14 2 13.554 2 13 L 2 11 C 2 10.446 2.446 10 3 10 L 5 10 L 3 8 L 1 8 z "
     id="rect2984" /><rect
     style="fill:#bebebe;fill-opacity:1;stroke:none"
     id="rect3754"
     width="10"
     height="2"
     x="3"
     y="11"
     rx="1"
     ry="1" /><path
     style="fill:#bebebe;fill-opacity:1;stroke:none"
     d="M 7 0 C 6.446 0 6 0.446 6 1 L 10 1 C 10 0.446 9.554 0 9 0 L 7 0 z M 6 2 L 6 3 L 10 3 L 10 2 L 6 2 z M 6 4 L 6 7 L 10 7 L 10 4 L 6 4 z "
     id="rect3756" /><path
     style="fill:#bebebe;fill-opacity:1;stroke:none"
     d="M 5,5 3,5 8,10 13,5 11,5 z"
     id="path3758"
     inkscape:connector-curvature="0"
     sodipodi:nodetypes="cccccc" /></svg>