<?xml version="1.0" encoding="UTF-8" standalone="no"?>
<svg
   xmlns:dc="http://purl.org/dc/elements/1.1/"
   xmlns:cc="http://creativecommons.org/ns#"
   xmlns:rdf="http://www.w3.org/1999/02/22-rdf-syntax-ns#"
   xmlns:svg="http://www.w3.org/2000/svg"
   xmlns="http://www.w3.org/2000/svg"
   xmlns:sodipodi="http://sodipodi.sourceforge.net/DTD/sodipodi-0.dtd"
   xmlns:inkscape="http://www.inkscape.org/namespaces/inkscape"
   enable-background="new 0 0 32 32"
   height="16"
   id="Layer_1"
   version="1.1"
   viewBox="0 0 16 16"
   width="16"
   xml:space="preserve"
   inkscape:version="0.48.5 r10040"
   sodipodi:docname="system-shutdown-symbolic.svg"><metadata
     id="metadata15"><rdf:RDF><cc:Work
         rdf:about=""><dc:format>image/svg+xml</dc:format><dc:type
           rdf:resource="http://purl.org/dc/dcmitype/StillImage" /><dc:title /></cc:Work></rdf:RDF></metadata><defs
     id="defs13" /><sodipodi:namedview
     pagecolor="#ffffff"
     bordercolor="#666666"
     borderopacity="1"
     objecttolerance="10"
     gridtolerance="10"
     guidetolerance="10"
     inkscape:pageopacity="0"
     inkscape:pageshadow="2"
     inkscape:window-width="1920"
     inkscape:window-height="1052"
     id="namedview11"
     showgrid="true"
     inkscape:zoom="41.96"
     inkscape:cx="4.8127792"
     inkscape:cy="8.0360036"
     inkscape:window-x="0"
     inkscape:window-y="28"
     inkscape:window-maximized="1"
     inkscape:current-layer="Layer_1"><inkscape:grid
       type="xygrid"
       id="grid2992"
       empspacing="5"
       visible="true"
       enabled="true"
       snapvisiblegridlinesonly="true" /></sodipodi:namedview><path
     style="fill:#bebebe;fill-opacity:1;stroke:none"
     d="M 8,0 C 3.581722,0 0,3.5817221 0,8 c 0,4.418278 3.581722,8 8,8 4.418278,0 8,-3.581722 8,-8 C 16,3.5817221 12.418278,0 8,0 z m 0,3 0,0 c 0,0 1,0.446 1,1 l 0,8 c 0,0.554 -1,1 -1,1 l 0,0 C 8,13 7,12.554 7,12 L 7,4 C 7,3.446 8,3 8,3 z"
     id="path2985"
     inkscape:connector-curvature="0"
     sodipodi:nodetypes="ssssssssssssss" /></svg>