<?xml version="1.0" encoding="UTF-8" standalone="no"?>
<svg
   xmlns:osb="http://www.openswatchbook.org/uri/2009/osb"
   xmlns:dc="http://purl.org/dc/elements/1.1/"
   xmlns:cc="http://creativecommons.org/ns#"
   xmlns:rdf="http://www.w3.org/1999/02/22-rdf-syntax-ns#"
   xmlns:svg="http://www.w3.org/2000/svg"
   xmlns="http://www.w3.org/2000/svg"
   xmlns:xlink="http://www.w3.org/1999/xlink"
   xmlns:sodipodi="http://sodipodi.sourceforge.net/DTD/sodipodi-0.dtd"
   xmlns:inkscape="http://www.inkscape.org/namespaces/inkscape"
   enable-background="new 0 0 32 32"
   height="16"
   id="Layer_1"
   version="1.1"
   viewBox="0 0 16 16"
   width="16"
   xml:space="preserve"
   inkscape:version="0.48.5 r10040"
   sodipodi:docname="nov-podprozorec.svg"><metadata
     id="metadata26"><rdf:RDF><cc:Work
         rdf:about=""><dc:format>image/svg+xml</dc:format><dc:type
           rdf:resource="http://purl.org/dc/dcmitype/StillImage" /><dc:title></dc:title></cc:Work></rdf:RDF></metadata><defs
     id="defs24"><linearGradient
       id="linearGradient3785"><stop
         style="stop-color:#384880;stop-opacity:1;"
         offset="0"
         id="stop3787" /><stop
         style="stop-color:#000000;stop-opacity:1;"
         offset="1"
         id="stop3789" /></linearGradient><linearGradient
       y2="520.1709"
       y1="408.39655"
       x2="365.97757"
       x1="365.51193"
       id="linearGradient3189"
       xlink:href="#linearGradient3785"
       gradientUnits="userSpaceOnUse"
       gradientTransform="matrix(0.08112299,0,0,0.07855526,540.8143,254.8467)"
       inkscape:collect="always" /><filter
       id="filter7554"
       color-interpolation-filters="sRGB"
       inkscape:collect="always"><feBlend
         mode="darken"
         in2="BackgroundImage"
         id="feBlend7556"
         inkscape:collect="always" /></filter><linearGradient
       osb:paint="solid"
       id="linearGradient5606"><stop
         style="stop-color:#000000;stop-opacity:1;"
         offset="0"
         id="stop5608" /></linearGradient></defs><sodipodi:namedview
     pagecolor="#ffffff"
     bordercolor="#666666"
     borderopacity="1"
     objecttolerance="10"
     gridtolerance="10"
     guidetolerance="10"
     inkscape:pageopacity="0"
     inkscape:pageshadow="2"
     inkscape:window-width="1920"
     inkscape:window-height="1052"
     id="namedview22"
     showgrid="true"
     inkscape:zoom="49.765474"
     inkscape:cx="4.0591393"
     inkscape:cy="7.0109646"
     inkscape:window-x="0"
     inkscape:window-y="28"
     inkscape:window-maximized="1"
     inkscape:current-layer="Layer_1"><inkscape:grid
       type="xygrid"
       id="grid3003"
       empspacing="5"
       visible="true"
       enabled="true"
       snapvisiblegridlinesonly="true" /></sodipodi:namedview><g
     id="layer9"
     inkscape:label="status"
     style="display:inline;fill:#bebebe;fill-opacity:1"
     transform="translate(-340.0002,-57)" /><g
     id="layer10"
     inkscape:label="devices"
     style="display:inline;filter:url(#filter7554);fill:#bebebe;fill-opacity:1"
     transform="translate(-340.0002,-57)" /><g
     id="layer1"
     inkscape:label="places"
     style="display:inline;fill:#bebebe;fill-opacity:1"
     transform="translate(-99,-674)" /><g
     id="layer14"
     inkscape:label="mimetypes"
     style="display:inline;fill:#bebebe;fill-opacity:1"
     transform="translate(-340.0002,-57)" /><g
     id="layer15"
     inkscape:label="emblems"
     style="display:inline;fill:#bebebe;fill-opacity:1"
     transform="translate(-340.0002,-57)" /><g
     id="g71291"
     inkscape:label="emotes"
     style="display:inline;fill:#bebebe;fill-opacity:1"
     transform="translate(-340.0002,-57)" /><g
     id="layer2"
     inkscape:label="categories"
     style="display:inline;fill:#bebebe;fill-opacity:1"
     transform="translate(-99,-524)" /><g
     id="g6058"
     inkscape:label="apps"
     style="display:inline;fill:#bebebe;fill-opacity:1"
     transform="translate(-99,-524)" /><path
     style="fill:#bebebe;fill-opacity:1;stroke:none"
     d="M 4 2 C 3 2 2 3 2 4 L 2 7 C 2 9 2 9 0 9 L 0 12 L 16 12 L 16 9 C 14 9 14 9 14 7 L 14 4 C 14 3 13 2 12 2 L 4 2 z M 7.5 4 L 8.5 4 C 8.777 4 9 4.223 9 4.5 L 9 6 L 10.5 6 C 10.777 6 11 6.223 11 6.5 L 11 7.5 C 11 7.777 10.777 8 10.5 8 L 9 8 L 9 9.5 C 9 9.777 8.777 10 8.5 10 L 7.5 10 C 7.223 10 7 9.777 7 9.5 L 7 8 L 5.5 8 C 5.223 8 5 7.777 5 7.5 L 5 6.5 C 5 6.223 5.223 6 5.5 6 L 7 6 L 7 4.5 C 7 4.223 7.223 4 7.5 4 z "
     id="path3046" /></svg>