<?xml version="1.0" encoding="UTF-8" standalone="no"?>
<svg
   xmlns:dc="http://purl.org/dc/elements/1.1/"
   xmlns:cc="http://creativecommons.org/ns#"
   xmlns:rdf="http://www.w3.org/1999/02/22-rdf-syntax-ns#"
   xmlns:svg="http://www.w3.org/2000/svg"
   xmlns="http://www.w3.org/2000/svg"
   xmlns:sodipodi="http://sodipodi.sourceforge.net/DTD/sodipodi-0.dtd"
   xmlns:inkscape="http://www.inkscape.org/namespaces/inkscape"
   enable-background="new 0 0 32 32"
   height="16"
   id="Layer_1"
   version="1.1"
   viewBox="0 0 16 16"
   width="16"
   xml:space="preserve"
   inkscape:version="0.48.5 r10040"
   sodipodi:docname="open-menu-symbolic.svg"><metadata
     id="metadata26"><rdf:RDF><cc:Work
         rdf:about=""><dc:format>image/svg+xml</dc:format><dc:type
           rdf:resource="http://purl.org/dc/dcmitype/StillImage" /><dc:title></dc:title></cc:Work></rdf:RDF></metadata><defs
     id="defs24" /><sodipodi:namedview
     pagecolor="#ffffff"
     bordercolor="#666666"
     borderopacity="1"
     objecttolerance="10"
     gridtolerance="10"
     guidetolerance="10"
     inkscape:pageopacity="0"
     inkscape:pageshadow="2"
     inkscape:window-width="1920"
     inkscape:window-height="1052"
     id="namedview22"
     showgrid="true"
     inkscape:zoom="39.450861"
     inkscape:cx="7.9626725"
     inkscape:cy="4.676435"
     inkscape:window-x="0"
     inkscape:window-y="28"
     inkscape:window-maximized="1"
     inkscape:current-layer="Layer_1"><inkscape:grid
       type="xygrid"
       id="grid3003"
       empspacing="5"
       visible="true"
       enabled="true"
       snapvisiblegridlinesonly="true" /></sodipodi:namedview><g
     id="g2985"
     transform="matrix(0,-1,1,0,-9.5505198e-8,16)"><path
       transform="matrix(1.1056549,0,0,-1,-0.63392934,17)"
       d="m 9.6177654,3 c 0,1.1045695 -0.8098643,2 -1.8088827,2 C 6.8098644,5 6,4.1045695 6,3 6,1.8954305 6.8098644,1 7.8088827,1 8.8079011,1 9.6177654,1.8954305 9.6177654,3 z"
       sodipodi:ry="2"
       sodipodi:rx="1.8088827"
       sodipodi:cy="3"
       sodipodi:cx="7.8088827"
       id="path2991"
       style="fill:#bebebe;fill-opacity:1;stroke:none"
       sodipodi:type="arc" /><path
       sodipodi:type="arc"
       style="fill:#bebebe;fill-opacity:1;stroke:none"
       id="path2993"
       sodipodi:cx="7.8088827"
       sodipodi:cy="3"
       sodipodi:rx="1.8088827"
       sodipodi:ry="2"
       d="m 9.6177654,3 c 0,1.1045695 -0.8098643,2 -1.8088827,2 C 6.8098644,5 6,4.1045695 6,3 6,1.8954305 6.8098644,1 7.8088827,1 8.8079011,1 9.6177654,1.8954305 9.6177654,3 z"
       transform="matrix(1.1056549,0,0,-1,-0.63392934,11)" /><path
       transform="matrix(1.1056549,0,0,-1,-0.63392934,5)"
       d="m 9.6177654,3 c 0,1.1045695 -0.8098643,2 -1.8088827,2 C 6.8098644,5 6,4.1045695 6,3 6,1.8954305 6.8098644,1 7.8088827,1 8.8079011,1 9.6177654,1.8954305 9.6177654,3 z"
       sodipodi:ry="2"
       sodipodi:rx="1.8088827"
       sodipodi:cy="3"
       sodipodi:cx="7.8088827"
       id="path2995"
       style="fill:#bebebe;fill-opacity:1;stroke:none"
       sodipodi:type="arc" /></g></svg>