<?xml version="1.0" encoding="UTF-8" standalone="no"?>
<!-- Created with Inkscape (http://www.inkscape.org/) -->

<svg
   xmlns:dc="http://purl.org/dc/elements/1.1/"
   xmlns:cc="http://creativecommons.org/ns#"
   xmlns:rdf="http://www.w3.org/1999/02/22-rdf-syntax-ns#"
   xmlns:svg="http://www.w3.org/2000/svg"
   xmlns="http://www.w3.org/2000/svg"
   xmlns:xlink="http://www.w3.org/1999/xlink"
   xmlns:sodipodi="http://sodipodi.sourceforge.net/DTD/sodipodi-0.dtd"
   xmlns:inkscape="http://www.inkscape.org/namespaces/inkscape"
   width="48"
   height="48"
   id="svg4230"
   version="1.1"
   inkscape:version="0.91+devel r"
   sodipodi:docname="audio-input-microphone.svg"
   inkscape:export-filename="/home/uri/mouse.png"
   inkscape:export-xdpi="960"
   inkscape:export-ydpi="960">
  <defs
     id="defs4232">
    <linearGradient
       id="linearGradient4243">
      <stop
         style="stop-color:#000000;stop-opacity:1;"
         offset="0"
         id="stop4245" />
      <stop
         style="stop-color:#000000;stop-opacity:0;"
         offset="1"
         id="stop4247" />
    </linearGradient>
    <radialGradient
       inkscape:collect="always"
       xlink:href="#linearGradient4243"
       id="radialGradient4274"
       gradientUnits="userSpaceOnUse"
       gradientTransform="matrix(1.0434782,0,0,0.1956518,-1.0434797,35.184809)"
       cx="24.000001"
       cy="42.499991"
       fx="24.000001"
       fy="42.499991"
       r="23" />
    <linearGradient
       inkscape:collect="always"
       xlink:href="#linearGradient4083"
       id="linearGradient3880"
       x1="26"
       y1="46"
       x2="26"
       y2="2"
       gradientUnits="userSpaceOnUse" />
    <linearGradient
       inkscape:collect="always"
       id="linearGradient4315">
      <stop
         style="stop-color:#232323;stop-opacity:1"
         offset="0"
         id="stop4317" />
      <stop
         style="stop-color:#010101;stop-opacity:1"
         offset="1"
         id="stop4319" />
    </linearGradient>
    <linearGradient
       id="linearGradient4083">
      <stop
         style="stop-color:#aaa9aa;stop-opacity:1"
         offset="0"
         id="stop4085" />
      <stop
         style="stop-color:#d4d4d2;stop-opacity:1"
         offset="1"
         id="stop4087" />
    </linearGradient>
    <linearGradient
       inkscape:collect="always"
       xlink:href="#linearGradient4315"
       id="linearGradient4462"
       x1="24"
       y1="1.999983"
       x2="24"
       y2="10"
       gradientUnits="userSpaceOnUse" />
    <linearGradient
       inkscape:collect="always"
       xlink:href="#linearGradient4315"
       id="linearGradient4490"
       x1="20"
       y1="24"
       x2="2"
       y2="24"
       gradientUnits="userSpaceOnUse" />
    <linearGradient
       inkscape:collect="always"
       xlink:href="#linearGradient4315"
       id="linearGradient4497"
       gradientUnits="userSpaceOnUse"
       x1="28"
       y1="27"
       x2="46"
       y2="27" />
    <linearGradient
       inkscape:collect="always"
       xlink:href="#linearGradient4315"
       id="linearGradient4522"
       gradientUnits="userSpaceOnUse"
       x1="24"
       y1="1.999983"
       x2="24"
       y2="10" />
    <linearGradient
       inkscape:collect="always"
       xlink:href="#linearGradient4083"
       id="linearGradient4539"
       x1="25"
       y1="19"
       x2="25"
       y2="32"
       gradientUnits="userSpaceOnUse"
       gradientTransform="scale(1,-1)" />
  </defs>
  <sodipodi:namedview
     id="base"
     pagecolor="#ffffff"
     bordercolor="#666666"
     borderopacity="1.0"
     inkscape:pageopacity="0.0"
     inkscape:pageshadow="2"
     inkscape:zoom="15.08241"
     inkscape:cx="26.501864"
     inkscape:cy="33.651363"
     inkscape:document-units="px"
     inkscape:current-layer="layer2"
     showgrid="true"
     inkscape:showpageshadow="false"
     borderlayer="true"
     inkscape:window-width="1366"
     inkscape:window-height="670"
     inkscape:window-x="-4"
     inkscape:window-y="29"
     inkscape:window-maximized="1"
     showguides="true"
     inkscape:guide-bbox="true">
    <inkscape:grid
       type="xygrid"
       id="grid4162" />
    <sodipodi:guide
       position="1.0000013,47.000017"
       orientation="46,0"
       id="guide4163" />
    <sodipodi:guide
       position="1.0000013,1.0000174"
       orientation="0,45.999999"
       id="guide4165" />
    <sodipodi:guide
       position="47,1.0000174"
       orientation="-46,0"
       id="guide4167" />
    <sodipodi:guide
       position="47,47.000017"
       orientation="0,-45.999999"
       id="guide4169" />
    <sodipodi:guide
       position="2.0000007,46.000017"
       orientation="44,0"
       id="guide4173" />
    <sodipodi:guide
       position="2.0000007,2.0000174"
       orientation="0,43.999999"
       id="guide4175" />
    <sodipodi:guide
       position="46,2.0000174"
       orientation="-44,0"
       id="guide4177" />
    <sodipodi:guide
       position="46,46.000017"
       orientation="0,-43.999999"
       id="guide4179" />
    <sodipodi:guide
       position="3,45.000017"
       orientation="42,0"
       id="guide4183" />
    <sodipodi:guide
       position="45,3.0000174"
       orientation="-42,0"
       id="guide4187" />
    <sodipodi:guide
       position="45,45.000017"
       orientation="0,-42"
       id="guide4189" />
    <sodipodi:guide
       position="3,45.000017"
       orientation="42,0"
       id="guide4193" />
    <sodipodi:guide
       position="3,3.0000174"
       orientation="0,42"
       id="guide4195" />
    <sodipodi:guide
       position="45,3.0000174"
       orientation="-42,0"
       id="guide4197" />
    <sodipodi:guide
       position="45,45.000017"
       orientation="0,-42"
       id="guide4199" />
    <sodipodi:guide
       position="3,10.000017"
       orientation="7,0"
       id="guide4203" />
    <sodipodi:guide
       position="3,3.0000174"
       orientation="0,42"
       id="guide4205" />
    <sodipodi:guide
       position="45,3.0000174"
       orientation="-7,0"
       id="guide4207" />
    <sodipodi:guide
       position="12,36.000017"
       orientation="24.000002,0"
       id="guide4276" />
    <sodipodi:guide
       position="12,12.000015"
       orientation="0,24"
       id="guide4278" />
    <sodipodi:guide
       position="36,12.000015"
       orientation="-24.000002,0"
       id="guide4280" />
    <sodipodi:guide
       position="36,36.000017"
       orientation="0,-24"
       id="guide4282" />
  </sodipodi:namedview>
  <metadata
     id="metadata4235">
    <rdf:RDF>
      <cc:Work
         rdf:about="">
        <dc:format>image/svg+xml</dc:format>
        <dc:type
           rdf:resource="http://purl.org/dc/dcmitype/StillImage" />
        <dc:title />
      </cc:Work>
    </rdf:RDF>
  </metadata>
  <g
     inkscape:groupmode="layer"
     id="layer3"
     inkscape:label="Fake blur shadow"
     style="display:inline"
     sodipodi:insensitive="true">
    <path
       style="opacity:0.06000001;fill:#000000;fill-opacity:1;stroke:none"
       d="M 10,1 C 5.014,1 1,5.014 1,10 l 0,28 c 0,4.986 4.014,9 9,9 l 28,0 c 4.986,0 9,-4.014 9,-9 L 47,10 C 47,5.014 42.986,1 38,1 L 10,1 z m 0.5,0.5 27,0 c 4.986,0 9,4.014 9,9 l 0,27 c 0,4.986 -4.014,9 -9,9 l -27,0 c -4.986,0 -9,-4.014 -9,-9 l 0,-27 c 0,-4.986 4.014,-9 9,-9 z"
       id="rect3829"
       inkscape:connector-curvature="0" />
    <path
       style="opacity:0.12000002;fill:#000000;fill-opacity:1;stroke:none"
       d="m 10.5,1.5 c -4.986,0 -9,4.014 -9,9 l 0,27 c 0,4.986 4.014,9 9,9 l 27,0 c 4.986,0 9,-4.014 9,-9 l 0,-27 c 0,-4.986 -4.014,-9 -9,-9 l -27,0 z m 0.25,0.25 26.5,0 c 4.986,0 9,4.014 9,9 l 0,26.5 c 0,4.986 -4.014,9 -9,9 l -26.5,0 c -4.986,0 -9,-4.014 -9,-9 l 0,-26.5 c 0,-4.986 4.014,-9 9,-9 z"
       id="rect3827"
       inkscape:connector-curvature="0" />
    <rect
       style="opacity:0.23999999;fill:#000000;fill-opacity:1;stroke:none"
       id="rect3038-4"
       width="44.5"
       height="44.5"
       x="1.75"
       y="1.75"
       ry="9"
       rx="9" />
  </g>
  <g
     inkscape:groupmode="layer"
     id="layer6"
     inkscape:label="Blob"
     style="display:inline"
     sodipodi:insensitive="true">
    <path
       style="opacity:0.3;fill:url(#radialGradient4274);fill-opacity:1;stroke:none"
       d="M 1.03125,39 C 1.5192036,43.518898 5.3471961,47 10,47 l 28,0 c 4.652804,0 8.480796,-3.481102 8.96875,-8 l -45.9375,0 z"
       id="rect4241"
       inkscape:connector-curvature="0" />
  </g>
  <g
     inkscape:groupmode="layer"
     id="layer2"
     inkscape:label="Baseplate"
     style="display:inline">
    <rect
       style="fill:url(#linearGradient3880);fill-opacity:1;stroke:none"
       id="rect3038"
       width="44"
       height="44"
       x="2"
       y="1.9999826"
       ry="9"
       rx="9" />
    <path
       inkscape:connector-curvature="0"
       style="opacity:0.2;fill:#000000;fill-opacity:1;stroke:none;stroke-opacity:1"
       d="m 12,45 0,-5.999999 c 0,-1.108 0.892,-1.999997 2,-1.999997 1.108,0 2,0.891997 2,1.999997 L 16,45 12,45 Z m 10,0 0,-5.999999 c 0,-1.108 0.892,-1.999997 2,-1.999997 1.108,0 2,0.891997 2,1.999997 L 26,45 22,45 Z m 10,0 0,-5.999999 c 0,-1.108 0.892,-1.999997 2,-1.999997 1.108,0 2,0.891997 2,1.999997 L 36,45 32,45 Z"
       id="path4512" />
    <path
       id="path4514"
       d="m 12,46.099979 0,-5.999998 c 0,-1.107999 0.892,-1.999999 2,-1.999999 1.108,0 2,0.892 2,1.999999 l 0,5.999998 -4,0 z m 10,0 0,-5.999998 c 0,-1.107999 0.892,-1.999999 2,-1.999999 1.108,0 2,0.892 2,1.999999 l 0,5.999998 -4,0 z m 10,0 0,-5.999998 c 0,-1.107999 0.892,-1.999999 2,-1.999999 1.108,0 2,0.892 2,1.999999 l 0,5.999998 -4,0 z"
       style="opacity:1;fill:url(#linearGradient4522);fill-opacity:1;stroke:none;stroke-opacity:1"
       inkscape:connector-curvature="0" />
    <path
       style="opacity:0.3;fill:#ffffff;fill-opacity:0.75706213;stroke:none;stroke-opacity:1"
       d="M 12 45.099609 L 12 46.099609 L 16 46.099609 L 16 45.099609 L 12 45.099609 z M 22 45.099609 L 22 46.099609 L 26 46.099609 L 26 45.099609 L 22 45.099609 z M 32 45.099609 L 32 46.099609 L 36 46.099609 L 36 45.099609 L 32 45.099609 z "
       id="rect4516" />
    <path
       style="opacity:1;fill:#ff0000;fill-opacity:1;stroke:none;stroke-opacity:1"
       d="m -16,12 c -2.216,0 -4,1.784 -4,4 l 0,7 -2,0 0,-1 -1,0 0,4 c 0,3.537216 2.600642,6.438059 6,6.921875 L -17,35 l -0.5,0 c -0.276996,0 -0.5,0.223004 -0.5,0.5 0,0.276996 0.223004,0.5 0.5,0.5 l 3,0 c 0.276996,0 0.5,-0.223004 0.5,-0.5 0,-0.276996 -0.223004,-0.5 -0.5,-0.5 l -0.5,0 0,-2.078125 C -11.600642,32.438059 -9,29.537216 -9,26 l 0,-4 -1,0 0,1 -2,0 0,-7 c 0,-2.216 -1.784,-4 -4,-4 z m 0,1 c 1.662,0 3,1.338 3,3 l 0,9 -6,0 0,-9 c 0,-1.662 1.338,-3 3,-3 z m -6,11 2,0 0,2 c 0,2.216 1.784,4 4,4 2.216,0 4,-1.784 4,-4 l 0,-2 2,0 0,2 c 0,3.324 -2.676,6 -6,6 -3.324,0 -6,-2.676 -6,-6 l 0,-2 z"
       id="rect4346"
       inkscape:connector-curvature="0" />
    <path
       id="path4467"
       d="m 12,3 0,4 c 0,1.108 0.892,2 2,2 1.108,0 2,-0.892 2,-2 l 0,-4 z m 10,0 0,4 c 0,1.108 0.892,2 2,2 1.108,0 2,-0.892 2,-2 l 0,-4 z m 10,0 0,4 c 0,1.108 0.892,2 2,2 1.108,0 2,-0.892 2,-2 l 0,-4 z"
       style="opacity:0.3;fill:#ffffff;fill-opacity:1;stroke:none;stroke-opacity:1"
       inkscape:connector-curvature="0"
       sodipodi:nodetypes="cssscccssscccssscc" />
    <path
       style="opacity:1;fill:url(#linearGradient4462);fill-opacity:1;stroke:none;stroke-opacity:1"
       d="m 12,2 0,4 c 0,1.108 0.892,2 2,2 1.108,0 2,-0.892 2,-2 l 0,-4 z m 10,0 0,4 c 0,1.108 0.892,2 2,2 1.108,0 2,-0.892 2,-2 l 0,-4 z m 10,0 0,4 c 0,1.108 0.892,2 2,2 1.108,0 2,-0.892 2,-2 l 0,-4 z"
       id="rect4449"
       inkscape:connector-curvature="0"
       sodipodi:nodetypes="cssscccssscccssscc" />
    <rect
       style="opacity:0.3;fill:#ffffff;fill-opacity:0.75706213;stroke:none;stroke-opacity:1"
       id="rect4471"
       width="4"
       height="1"
       x="12"
       y="1.999983"
       ry="0" />
    <rect
       ry="0"
       y="1.999983"
       x="22"
       height="1"
       width="4"
       id="rect4473"
       style="opacity:0.3;fill:#ffffff;fill-opacity:0.75706213;stroke:none;stroke-opacity:1" />
    <rect
       style="opacity:0.3;fill:#ffffff;fill-opacity:0.75706213;stroke:none;stroke-opacity:1"
       id="rect4475"
       width="4"
       height="1"
       x="32"
       y="1.999983"
       ry="0" />
    <path
       style="opacity:0.2;fill:#ffffff;fill-opacity:1;stroke:none;stroke-opacity:1"
       d="m 2,17 0,4 16,0 c 1.108005,0 2,-0.891995 2,-2 0,-1.108005 -0.891995,-2 -2,-2 z m 28,0 c -1.108005,0 -2,0.891995 -2,2 0,1.108005 0.900551,2.137431 2,2 l 16,0 0,-4 z m -28,6 0,4 16,0 c 1.108005,0 2,-0.891995 2,-2 0,-1.108005 -0.900551,-1.862569 -2,-2 z m 28,0 c -1.108005,0 -2,0.891995 -2,2 0,1.108005 0.891995,2 2,2 l 16,0 0,-4 z m -28,6 0,4 16,0 c 1.108005,0 2,-0.891995 2,-2 0,-1.108005 -0.891995,-2 -2,-2 z m 28,0 c -1.108005,0 -2,0.891995 -2,2 0,1.108005 0.891995,2 2,2 l 16,0 0,-4 z"
       id="path4499"
       inkscape:connector-curvature="0"
       sodipodi:nodetypes="ccssscsssccsccssscsssccsccssscsssccs" />
    <path
       style="opacity:1;fill:url(#linearGradient4490);fill-opacity:1;stroke:none;stroke-opacity:1"
       d="m 2,16 0,4 16,0 c 1.108005,0 2,-0.891995 2,-2 0,-1.108005 -0.891995,-2 -2,-2 z m 0,6 0,4 16,0 c 1.108005,0 2,-0.891995 2,-2 0,-1.108005 -0.891995,-2 -2,-2 z m 0,6 0,4 16,0 c 1.108005,0 2,-0.891995 2,-2 0,-1.108005 -0.891995,-2 -2,-2 z"
       id="rect4477"
       inkscape:connector-curvature="0"
       sodipodi:nodetypes="ccssscccssscccsssc" />
    <path
       id="path4495"
       d="m 46,16 0,4 -16,0 c -1.108005,0 -2,-0.891995 -2,-2 0,-1.108005 0.900551,-1.862569 2,-2 z m 0,6 0,4 -16,0 c -1.108005,0 -2,-0.891995 -2,-2 0,-1.108005 0.891995,-2 2,-2 z m 0,6 0,4 -16,0 c -1.108005,0 -2,-0.891995 -2,-2 0,-1.108005 0.891995,-2 2,-2 z"
       style="opacity:1;fill:url(#linearGradient4497);fill-opacity:1;stroke:none;stroke-opacity:1"
       inkscape:connector-curvature="0"
       sodipodi:nodetypes="ccssscccssscccsssc" />
    <rect
       style="opacity:0.2;fill:#ffffff;fill-opacity:0.75706213;stroke:none;stroke-opacity:1"
       id="rect4508"
       width="0.99999928"
       height="16.999985"
       x="2.0000007"
       y="18"
       ry="0.49999964" />
    <rect
       ry="0.49999964"
       y="18"
       x="45"
       height="16.999985"
       width="0.99999928"
       id="rect4510"
       style="opacity:0.2;fill:#ffffff;fill-opacity:0.75706213;stroke:none;stroke-opacity:1" />
    <circle
       style="opacity:1;fill:url(#linearGradient4539);fill-opacity:1;stroke:none;stroke-opacity:1"
       id="path4531"
       cx="24"
       cy="-24"
       r="6"
       transform="scale(1,-1)" />
    <path
       inkscape:connector-curvature="0"
       style="display:inline;fill:#585858;fill-opacity:1;fill-rule:evenodd;stroke:none"
       d="m 22.132173,20 a 0.70606135,0.69656333 0 0 0 -0.506424,0.211209 0.70606135,0.69656333 0 0 0 -0.08961,0.11304 c -0.649744,-0.264005 -1.138738,-0.285629 -1.373314,-0.05438 -0.150261,0.149596 -0.197456,0.400809 -0.137692,0.734042 0.05972,0.333235 0.226244,0.748331 0.486606,1.21288 -0.218013,-0.802671 -0.544067,-2.249752 0.929029,-1.660352 a 0.70606135,0.69656333 0 0 0 -0.0146,0.140128 0.70606135,0.69656333 0 0 0 0.70607,0.696567 0.70606135,0.69656333 0 0 0 0.483925,-0.190032 c 0.732133,0.488494 1.558558,1.172459 2.321955,1.925332 2.779724,2.808187 3.405708,5.690998 -0.264072,3.600762 0.731633,0.538424 1.426391,0.934388 1.981527,1.129376 0.555143,0.19496 0.968995,0.18816 1.180074,-0.0192 0.148599,-0.1466 0.197375,-0.391479 0.142477,-0.716528 -0.0549,-0.32504 -0.213269,-0.729984 -0.463276,-1.183971 -0.500132,-0.907899 -1.376303,-2.01328 -2.380668,-3.004125 -0.767667,-0.757058 -1.603077,-1.441647 -2.364699,-1.940405 a 0.70606135,0.69656333 0 0 0 0.06873,-0.297772 0.70606135,0.69656333 0 0 0 -0.706065,-0.696567 z m 0,0.273537 a 0.42859145,0.42282599 0 0 1 0.428803,0.422828 0.42859145,0.42282599 0 0 1 -0.02717,0.14746 c -1.05e-4,2.09e-4 -3.16e-4,6.26e-4 -4.22e-4,8.34e-4 -0.0027,0.0068 -0.0057,0.01336 -0.0085,0.01996 a 0.42859145,0.42282599 0 0 1 -0.0061,0.01388 c -0.0032,0.0067 -0.0065,0.01324 -0.01014,0.01972 a 0.42859145,0.42282599 0 0 1 -0.0069,0.0124 c -0.0041,0.0068 -0.0085,0.0136 -0.01257,0.02016 -3.2e-4,3.13e-4 -6.37e-4,8.35e-4 -10e-4,0.0012 -0.01014,0.01524 -0.02149,0.02956 -0.03406,0.04338 a 0.42859145,0.42282599 0 0 1 -0.0073,0.0088 c -0.0053,0.0053 -0.01054,0.01044 -0.01541,0.01548 a 0.42859145,0.42282599 0 0 1 -0.01379,0.01244 c -0.0041,0.0037 -0.0085,0.0075 -0.01297,0.01096 a 0.42859145,0.42282599 0 0 1 -0.02717,0.02016 0.42859145,0.42282599 0 0 1 -0.0028,0.0025 c -2.11e-4,1.05e-4 -2.11e-4,3.13e-4 -4.22e-4,4.17e-4 a 0.42859145,0.42282599 0 0 1 -0.241123,0.07332 0.42859145,0.42282599 0 0 1 -0.428801,-0.422829 0.42859145,0.42282599 0 0 1 0.0011,-0.02344 c 3.17e-4,-0.006 10e-4,-0.01192 0.0016,-0.01792 a 0.42859145,0.42282599 0 0 1 0.0027,-0.02096 c 9.33e-4,-0.0062 0.0019,-0.01252 0.0028,-0.01876 a 0.42859145,0.42282599 0 0 1 0.0033,-0.01464 c 0.0061,-0.02516 0.0146,-0.04963 0.02473,-0.07332 a 0.42859145,0.42282599 0 0 1 0.0057,-0.0122 c 0.0035,-0.007 0.0069,-0.01404 0.01095,-0.02076 a 0.42859145,0.42282599 0 0 1 0.0061,-0.01144 c 0.004,-0.0064 0.0073,-0.01292 0.01176,-0.01916 a 0.42859145,0.42282599 0 0 1 4.21e-4,-4.17e-4 c 0.0061,-0.0089 0.01216,-0.01764 0.01906,-0.02608 a 0.42859145,0.42282599 0 0 1 0.03081,-0.03564 0.42859145,0.42282599 0 0 1 0.307416,-0.128312 z m -0.565471,3.145542 0.869777,3.247389 0.688107,-1.445682 1.55561,-0.442788 -3.113494,-1.358918 z"
       id="path4299-4" />
  </g>
  <g
     inkscape:label="Symbol"
     inkscape:groupmode="layer"
     id="layer1"
     transform="translate(0,-1004.3622)"
     style="display:inline" />
  <g
     inkscape:groupmode="layer"
     id="layer4"
     inkscape:label="Inset"
     sodipodi:insensitive="true"
     style="display:inline">
    <path
       style="opacity:0.15;fill:#000000;fill-opacity:1;stroke:none"
       d="m 2,34 0,3 c 0,4.986 4.014,9 9,9 l 26,0 c 4.986,0 9,-4.014 9,-9 l 0,-3 c 0,4.986 -4.014,9 -9,9 L 11,43 C 6.014,43 2,38.986 2,34 z"
       id="rect3038-42"
       inkscape:connector-curvature="0" />
  </g>
  <g
     inkscape:groupmode="layer"
     id="layer7"
     inkscape:label="Baseshape"
     sodipodi:insensitive="true"
     style="display:none">
    <rect
       rx="9"
       ry="9"
       y="2"
       x="2"
       height="44"
       width="44"
       id="rect4169"
       style="fill:#abe1ad;fill-opacity:1;stroke:none;display:inline" />
  </g>
</svg>
