<?xml version="1.0" encoding="UTF-8" standalone="no"?>
<!-- Created with Inkscape (http://www.inkscape.org/) -->

<svg
   xmlns:dc="http://purl.org/dc/elements/1.1/"
   xmlns:cc="http://creativecommons.org/ns#"
   xmlns:rdf="http://www.w3.org/1999/02/22-rdf-syntax-ns#"
   xmlns:svg="http://www.w3.org/2000/svg"
   xmlns="http://www.w3.org/2000/svg"
   xmlns:xlink="http://www.w3.org/1999/xlink"
   xmlns:sodipodi="http://sodipodi.sourceforge.net/DTD/sodipodi-0.dtd"
   xmlns:inkscape="http://www.inkscape.org/namespaces/inkscape"
   width="48"
   height="48"
   id="svg4230"
   version="1.1"
   inkscape:version="0.91+devel r"
   sodipodi:docname="drive-harddisk-usb.svg"
   inkscape:export-filename="/home/uri/mouse.png"
   inkscape:export-xdpi="960"
   inkscape:export-ydpi="960">
  <defs
     id="defs4232">
    <linearGradient
       id="linearGradient4196">
      <stop
         id="stop4198"
         offset="0"
         style="stop-color:#c8e7ff;stop-opacity:1" />
      <stop
         id="stop4200"
         offset="1"
         style="stop-color:#ebf9ff;stop-opacity:1" />
    </linearGradient>
    <linearGradient
       id="linearGradient4243">
      <stop
         style="stop-color:#000000;stop-opacity:1;"
         offset="0"
         id="stop4245" />
      <stop
         style="stop-color:#000000;stop-opacity:0;"
         offset="1"
         id="stop4247" />
    </linearGradient>
    <radialGradient
       inkscape:collect="always"
       xlink:href="#linearGradient4243"
       id="radialGradient4274"
       gradientUnits="userSpaceOnUse"
       gradientTransform="matrix(1.0434782,0,0,0.1956518,-1.0434797,35.184809)"
       cx="24.000001"
       cy="42.499991"
       fx="24.000001"
       fy="42.499991"
       r="23" />
    <linearGradient
       inkscape:collect="always"
       xlink:href="#linearGradient3068"
       id="linearGradient3880"
       x1="26"
       y1="46"
       x2="26"
       y2="2"
       gradientUnits="userSpaceOnUse" />
    <linearGradient
       id="linearGradient3068">
      <stop
         style="stop-color:#0f94ff;stop-opacity:1;"
         offset="0"
         id="stop3070" />
      <stop
         style="stop-color:#19bdff;stop-opacity:1;"
         offset="1"
         id="stop3072" />
    </linearGradient>
    <linearGradient
       id="linearGradient4083">
      <stop
         style="stop-color:#aaa9aa;stop-opacity:1"
         offset="0"
         id="stop4085" />
      <stop
         style="stop-color:#d4d4d2;stop-opacity:1"
         offset="1"
         id="stop4087" />
    </linearGradient>
    <linearGradient
       inkscape:collect="always"
       xlink:href="#linearGradient4083"
       id="linearGradient4553"
       x1="21"
       y1="21"
       x2="21"
       y2="2"
       gradientUnits="userSpaceOnUse" />
    <linearGradient
       id="linearGradient4524">
      <stop
         id="stop4526"
         offset="0"
         style="stop-color:#565656;stop-opacity:1;" />
      <stop
         id="stop4528"
         offset="1"
         style="stop-color:#6a6a6a;stop-opacity:1;" />
    </linearGradient>
    <linearGradient
       inkscape:collect="always"
       xlink:href="#linearGradient4524"
       id="linearGradient4718"
       x1="15"
       y1="1012.3622"
       x2="15"
       y2="1022.3622"
       gradientUnits="userSpaceOnUse" />
    <linearGradient
       inkscape:collect="always"
       xlink:href="#linearGradient4524"
       id="linearGradient4726"
       x1="35"
       y1="1012.3622"
       x2="35"
       y2="1022.3622"
       gradientUnits="userSpaceOnUse" />
    <linearGradient
       inkscape:collect="always"
       xlink:href="#linearGradient4196"
       id="linearGradient4194"
       x1="24"
       y1="1042.3622"
       x2="24"
       y2="1028.3622"
       gradientUnits="userSpaceOnUse" />
  </defs>
  <sodipodi:namedview
     id="base"
     pagecolor="#ffffff"
     bordercolor="#666666"
     borderopacity="1.0"
     inkscape:pageopacity="0.0"
     inkscape:pageshadow="2"
     inkscape:zoom="4.5582083"
     inkscape:cx="10.756992"
     inkscape:cy="35.475638"
     inkscape:document-units="px"
     inkscape:current-layer="layer1"
     showgrid="true"
     inkscape:showpageshadow="false"
     borderlayer="true"
     inkscape:window-width="1366"
     inkscape:window-height="670"
     inkscape:window-x="-4"
     inkscape:window-y="29"
     inkscape:window-maximized="1"
     showguides="true"
     inkscape:guide-bbox="true">
    <inkscape:grid
       type="xygrid"
       id="grid4162" />
    <sodipodi:guide
       position="1.0000013,47.000017"
       orientation="46,0"
       id="guide4163" />
    <sodipodi:guide
       position="1.0000013,1.0000174"
       orientation="0,45.999999"
       id="guide4165" />
    <sodipodi:guide
       position="47,1.0000174"
       orientation="-46,0"
       id="guide4167" />
    <sodipodi:guide
       position="47,47.000017"
       orientation="0,-45.999999"
       id="guide4169" />
    <sodipodi:guide
       position="2.0000007,46.000017"
       orientation="44,0"
       id="guide4173" />
    <sodipodi:guide
       position="2.0000007,2.0000174"
       orientation="0,43.999999"
       id="guide4175" />
    <sodipodi:guide
       position="46,2.0000174"
       orientation="-44,0"
       id="guide4177" />
    <sodipodi:guide
       position="46,46.000017"
       orientation="0,-43.999999"
       id="guide4179" />
    <sodipodi:guide
       position="3,45.000017"
       orientation="42,0"
       id="guide4183" />
    <sodipodi:guide
       position="45,3.0000174"
       orientation="-42,0"
       id="guide4187" />
    <sodipodi:guide
       position="45,45.000017"
       orientation="0,-42"
       id="guide4189" />
    <sodipodi:guide
       position="3,45.000017"
       orientation="42,0"
       id="guide4193" />
    <sodipodi:guide
       position="3,3.0000174"
       orientation="0,42"
       id="guide4195" />
    <sodipodi:guide
       position="45,3.0000174"
       orientation="-42,0"
       id="guide4197" />
    <sodipodi:guide
       position="45,45.000017"
       orientation="0,-42"
       id="guide4199" />
    <sodipodi:guide
       position="3,10.000017"
       orientation="7,0"
       id="guide4203" />
    <sodipodi:guide
       position="3,3.0000174"
       orientation="0,42"
       id="guide4205" />
    <sodipodi:guide
       position="45,3.0000174"
       orientation="-7,0"
       id="guide4207" />
    <sodipodi:guide
       position="45,10.000017"
       orientation="0,-42"
       id="guide4209" />
  </sodipodi:namedview>
  <metadata
     id="metadata4235">
    <rdf:RDF>
      <cc:Work
         rdf:about="">
        <dc:format>image/svg+xml</dc:format>
        <dc:type
           rdf:resource="http://purl.org/dc/dcmitype/StillImage" />
        <dc:title />
      </cc:Work>
    </rdf:RDF>
  </metadata>
  <g
     inkscape:groupmode="layer"
     id="layer3"
     inkscape:label="Fake blur shadow"
     style="display:inline"
     sodipodi:insensitive="true">
    <path
       style="opacity:0.06000001;fill:#000000;fill-opacity:1;stroke:none"
       d="M 10,1 C 5.014,1 1,5.014 1,10 l 0,28 c 0,4.986 4.014,9 9,9 l 28,0 c 4.986,0 9,-4.014 9,-9 L 47,10 C 47,5.014 42.986,1 38,1 L 10,1 z m 0.5,0.5 27,0 c 4.986,0 9,4.014 9,9 l 0,27 c 0,4.986 -4.014,9 -9,9 l -27,0 c -4.986,0 -9,-4.014 -9,-9 l 0,-27 c 0,-4.986 4.014,-9 9,-9 z"
       id="rect3829"
       inkscape:connector-curvature="0" />
    <path
       style="opacity:0.12000002;fill:#000000;fill-opacity:1;stroke:none"
       d="m 10.5,1.5 c -4.986,0 -9,4.014 -9,9 l 0,27 c 0,4.986 4.014,9 9,9 l 27,0 c 4.986,0 9,-4.014 9,-9 l 0,-27 c 0,-4.986 -4.014,-9 -9,-9 l -27,0 z m 0.25,0.25 26.5,0 c 4.986,0 9,4.014 9,9 l 0,26.5 c 0,4.986 -4.014,9 -9,9 l -26.5,0 c -4.986,0 -9,-4.014 -9,-9 l 0,-26.5 c 0,-4.986 4.014,-9 9,-9 z"
       id="rect3827"
       inkscape:connector-curvature="0" />
    <rect
       style="opacity:0.23999999;fill:#000000;fill-opacity:1;stroke:none"
       id="rect3038-4"
       width="44.5"
       height="44.5"
       x="1.75"
       y="1.75"
       ry="9"
       rx="9" />
  </g>
  <g
     inkscape:groupmode="layer"
     id="layer6"
     inkscape:label="Blob"
     style="display:inline"
     sodipodi:insensitive="true">
    <path
       style="opacity:0.3;fill:url(#radialGradient4274);fill-opacity:1;stroke:none"
       d="M 1.03125,39 C 1.5192036,43.518898 5.3471961,47 10,47 l 28,0 c 4.652804,0 8.480796,-3.481102 8.96875,-8 l -45.9375,0 z"
       id="rect4241"
       inkscape:connector-curvature="0" />
  </g>
  <g
     inkscape:groupmode="layer"
     id="layer2"
     inkscape:label="Baseplate"
     style="display:inline">
    <rect
       style="fill:url(#linearGradient3880);fill-opacity:1;stroke:none"
       id="rect3038"
       width="44"
       height="44"
       x="2"
       y="1.9999826"
       ry="9"
       rx="9" />
  </g>
  <g
     inkscape:label="Symbol"
     inkscape:groupmode="layer"
     id="layer1"
     transform="translate(0,-1004.3622)"
     style="display:inline">
    <path
       style="display:inline;fill:url(#linearGradient4553);fill-opacity:1;stroke:none"
       d="M 11 2 C 6.014 2 2 6.014 2 11 L 2 21 L 46 21 L 46 11 C 46 6.014 41.986 2 37 2 L 11 2 z "
       id="rect4305"
       transform="translate(0,1004.3622)" />
    <rect
       ry="0.90910661"
       y="1012.362"
       x="29.000002"
       height="9.9999962"
       width="9.9999962"
       id="rect4557"
       style="opacity:1;fill:url(#linearGradient4726);fill-opacity:1;stroke:none;stroke-opacity:1" />
    <rect
       style="opacity:1;fill:url(#linearGradient4718);fill-opacity:1;stroke:none;stroke-opacity:1"
       id="rect4559"
       width="9.9999962"
       height="9.9999962"
       x="9.0000019"
       y="1012.362"
       ry="0.90910661" />
    <rect
       style="opacity:1;fill:#ffc73e;fill-opacity:1;stroke:none;stroke-opacity:1"
       id="rect4728"
       width="4"
       height="10"
       x="12"
       y="1012.3622"
       ry="0" />
    <rect
       ry="0"
       y="1012.3622"
       x="32"
       height="10"
       width="4"
       id="rect4891"
       style="opacity:1;fill:#ffc73e;fill-opacity:1;stroke:none;stroke-opacity:1" />
    <path
       style="fill:#000000;fill-opacity:0.11771353"
       inkscape:connector-curvature="0"
       d="m 23.999688,1029.3662 -0.866076,1.5548 0.617825,0 0,7.9469 -1.576833,-1.5473 c -0.101807,-0.1317 -0.173206,-0.304 -0.177186,-0.4813 0,-0.717 0,-1.1427 0,-1.2995 0.291937,-0.1067 0.502642,-0.3915 0.502642,-0.7308 0,-0.4292 -0.33591,-0.7774 -0.749982,-0.7774 -0.414313,0 -0.750078,0.3482 -0.750078,0.7774 0,0.3393 0.210609,0.6246 0.502305,0.7308 l 0,1.2844 c 0,0.348 0.184188,0.7127 0.400167,0.9449 -0.0062,-0.011 -0.01294,-0.013 0,4e-4 0.0052,0 1.672739,1.6417 1.672739,1.6417 0.101659,0.1314 0.17263,0.3036 0.176706,0.4807 l 0,0.899 c -0.572797,0.119 -1.004373,0.6436 -1.004373,1.2727 0,0.7172 0.56076,1.2986 1.252384,1.2986 0.691768,0 1.252575,-0.5814 1.252575,-1.2986 0,-0.6292 -0.43191,-1.1537 -1.005235,-1.2729 l 0,-0.8832 c 0,0 0,0 0,-0.011 l 0,-1.9535 c 0.0048,-0.1768 0.07543,-0.3488 0.177187,-0.4801 0,0 1.667319,-1.6364 1.672738,-1.6415 0.01343,-0.013 0.0062,-0.011 0,-10e-5 0.215883,-0.2321 0.399975,-0.597 0.399975,-0.9452 l 0,-1.2376 0.502832,0 0,-1.5552 -1.499868,0 0,1.5552 0.502114,0 c 0,0 0,0.326 0,1.2527 -0.0048,0.1774 -0.07523,0.3499 -0.177042,0.4814 l -1.57712,1.5478 0,-6.0035 0.618783,0 -0.865932,-1.5548 z"
       id="path4202" />
    <path
       id="path1334"
       d="m 23.999688,1028.3662 -0.866076,1.5548 0.617825,0 0,7.9469 -1.576833,-1.5473 c -0.101807,-0.1317 -0.173206,-0.304 -0.177186,-0.4813 0,-0.717 0,-1.1427 0,-1.2995 0.291937,-0.1067 0.502642,-0.3915 0.502642,-0.7308 0,-0.4292 -0.33591,-0.7774 -0.749982,-0.7774 -0.414313,0 -0.750078,0.3482 -0.750078,0.7774 0,0.3393 0.210609,0.6246 0.502305,0.7308 l 0,1.2844 c 0,0.348 0.184188,0.7127 0.400167,0.9449 -0.0062,-0.011 -0.01294,-0.013 0,4e-4 0.0052,0 1.672739,1.6417 1.672739,1.6417 0.101659,0.1314 0.17263,0.3036 0.176706,0.4807 l 0,0.899 c -0.572797,0.119 -1.004373,0.6436 -1.004373,1.2727 0,0.7172 0.56076,1.2986 1.252384,1.2986 0.691768,0 1.252575,-0.5814 1.252575,-1.2986 0,-0.6292 -0.43191,-1.1537 -1.005235,-1.2729 l 0,-0.8832 c 0,0 0,0 0,-0.011 l 0,-1.9535 c 0.0048,-0.1768 0.07543,-0.3488 0.177187,-0.4801 0,0 1.667319,-1.6364 1.672738,-1.6415 0.01343,-0.013 0.0062,-0.011 0,-10e-5 0.215883,-0.2321 0.399975,-0.597 0.399975,-0.9452 l 0,-1.2376 0.502832,0 0,-1.5552 -1.499868,0 0,1.5552 0.502114,0 c 0,0 0,0.326 0,1.2527 -0.0048,0.1774 -0.07523,0.3499 -0.177042,0.4814 l -1.57712,1.5478 0,-6.0035 0.618783,0 -0.865932,-1.5548 z"
       inkscape:connector-curvature="0"
       style="fill:url(#linearGradient4194);fill-opacity:1" />
  </g>
  <g
     inkscape:groupmode="layer"
     id="layer4"
     inkscape:label="Inset"
     sodipodi:insensitive="true"
     style="display:inline">
    <path
       style="opacity:0.15;fill:#000000;fill-opacity:1;stroke:none"
       d="m 2,34 0,3 c 0,4.986 4.014,9 9,9 l 26,0 c 4.986,0 9,-4.014 9,-9 l 0,-3 c 0,4.986 -4.014,9 -9,9 L 11,43 C 6.014,43 2,38.986 2,34 z"
       id="rect3038-42"
       inkscape:connector-curvature="0" />
  </g>
  <g
     inkscape:groupmode="layer"
     id="layer7"
     inkscape:label="Baseshape"
     sodipodi:insensitive="true"
     style="display:none">
    <rect
       rx="9"
       ry="9"
       y="2"
       x="2"
       height="44"
       width="44"
       id="rect4169"
       style="fill:#abe1ad;fill-opacity:1;stroke:none;display:inline" />
  </g>
</svg>
