<?xml version="1.0" encoding="UTF-8" standalone="no"?>
<svg
   xmlns:dc="http://purl.org/dc/elements/1.1/"
   xmlns:cc="http://creativecommons.org/ns#"
   xmlns:rdf="http://www.w3.org/1999/02/22-rdf-syntax-ns#"
   xmlns:svg="http://www.w3.org/2000/svg"
   xmlns="http://www.w3.org/2000/svg"
   xmlns:sodipodi="http://sodipodi.sourceforge.net/DTD/sodipodi-0.dtd"
   xmlns:inkscape="http://www.inkscape.org/namespaces/inkscape"
   height="16"
   id="Layer_1"
   version="1.1"
   viewBox="0 0 16 16"
   width="16"
   xml:space="preserve"
   inkscape:version="0.48.5 r10040"
   sodipodi:docname="bell.svg"><metadata
     id="metadata13"><rdf:RDF><cc:Work
         rdf:about=""><dc:format>image/svg+xml</dc:format><dc:type
           rdf:resource="http://purl.org/dc/dcmitype/StillImage" /><dc:title></dc:title></cc:Work></rdf:RDF></metadata><defs
     id="defs11" /><sodipodi:namedview
     pagecolor="#ffffff"
     bordercolor="#666666"
     borderopacity="1"
     objecttolerance="10"
     gridtolerance="10"
     guidetolerance="10"
     inkscape:pageopacity="0"
     inkscape:pageshadow="2"
     inkscape:window-width="1920"
     inkscape:window-height="1048"
     id="namedview9"
     showgrid="true"
     inkscape:zoom="30"
     inkscape:cx="25.041327"
     inkscape:cy="6.6666674"
     inkscape:window-x="0"
     inkscape:window-y="32"
     inkscape:window-maximized="1"
     inkscape:current-layer="Layer_1"><inkscape:grid
       type="xygrid"
       id="grid2990"
       empspacing="5"
       visible="true"
       enabled="true"
       snapvisiblegridlinesonly="true" /></sodipodi:namedview><path
     inkscape:connector-curvature="0"
     id="path5"
     d="M 13,7 C 13,2.933333 11.050001,1.2958321 9.0041674,0.98749876 c 0,-0.0208333 0.00417,-0.0416667 0.00417,-0.0666667 0,-0.51250004 -0.4541667,-0.92083341 -1.0083334,-0.92083341 -0.5541667,0 -0.9916667,0.40833337 -0.9916667,0.92083341 0,0.025 0,0.0458333 0.00417,0.0666667 C 4.9625004,1.2999988 3,2.933333 3,7 3,12 1.5833334,11.666666 0,13 l 16,0 C 14.425,11.6625 13,12 13,7 z"
     sodipodi:nodetypes="scssscsccs"
     style="fill:#bebebe;fill-opacity:1" /><path
     inkscape:connector-curvature="0"
     id="path7"
     d="M 8.008334,16 C 9.1250007,16 10.129166,14.9625 10.25,14 l -4.5,0 c 0.1166667,0.9625 1.1416672,2 2.258334,2 z"
     sodipodi:nodetypes="sccs"
     style="fill:#bebebe;fill-opacity:1" /></svg>