<?xml version="1.0" encoding="UTF-8" standalone="no"?>
<!-- Created with Inkscape (http://www.inkscape.org/) -->

<svg
   xmlns:dc="http://purl.org/dc/elements/1.1/"
   xmlns:cc="http://creativecommons.org/ns#"
   xmlns:rdf="http://www.w3.org/1999/02/22-rdf-syntax-ns#"
   xmlns:svg="http://www.w3.org/2000/svg"
   xmlns="http://www.w3.org/2000/svg"
   xmlns:sodipodi="http://sodipodi.sourceforge.net/DTD/sodipodi-0.dtd"
   xmlns:inkscape="http://www.inkscape.org/namespaces/inkscape"
   width="24"
   height="24"
   viewBox="0 0 6.3499992 6.3500002"
   id="svg2"
   version="1.1"
   inkscape:version="0.48.5 r10040"
   sodipodi:docname="document-properties.svg">
  <defs
     id="defs4" />
  <sodipodi:namedview
     id="base"
     pagecolor="#ffffff"
     bordercolor="#666666"
     borderopacity="1.0"
     inkscape:pageopacity="0.0"
     inkscape:pageshadow="2"
     inkscape:zoom="32"
     inkscape:cx="15.54702"
     inkscape:cy="6.1683056"
     inkscape:document-units="px"
     inkscape:current-layer="layer1"
     showgrid="true"
     inkscape:showpageshadow="false"
     borderlayer="true"
     units="px"
     inkscape:window-width="1920"
     inkscape:window-height="1052"
     inkscape:window-x="0"
     inkscape:window-y="28"
     inkscape:window-maximized="1"
     showguides="true"
     inkscape:guide-bbox="true">
    <inkscape:grid
       type="xygrid"
       id="grid4136" />
    <sodipodi:guide
       position="0.99999995,23.00001"
       orientation="21.999992,0"
       id="guide4140" />
    <sodipodi:guide
       position="0.99999995,1.0000181"
       orientation="0,21.999998"
       id="guide4142" />
    <sodipodi:guide
       position="22.999998,1.0000181"
       orientation="-21.999992,0"
       id="guide4144" />
    <sodipodi:guide
       position="22.999998,23.00001"
       orientation="0,-21.999998"
       id="guide4146" />
    <sodipodi:guide
       position="3.0000016,20.999979"
       orientation="18.000046,0"
       id="guide4190" />
    <sodipodi:guide
       position="3.0000016,2.9999335"
       orientation="0,17.999995"
       id="guide4192" />
    <sodipodi:guide
       position="20.999997,2.9999335"
       orientation="-18.000046,0"
       id="guide4194" />
    <sodipodi:guide
       position="20.999997,20.999979"
       orientation="0,-17.999995"
       id="guide4196" />
  </sodipodi:namedview>
  <metadata
     id="metadata7">
    <rdf:RDF>
      <cc:Work
         rdf:about="">
        <dc:format>image/svg+xml</dc:format>
        <dc:type
           rdf:resource="http://purl.org/dc/dcmitype/StillImage" />
        <dc:title />
      </cc:Work>
    </rdf:RDF>
  </metadata>
  <g
     inkscape:label="Capa 1"
     inkscape:groupmode="layer"
     id="layer1"
     transform="translate(0,-290.64997)">
    <g
       id="layer9"
       inkscape:label="status"
       style="display:inline"
       transform="matrix(0.26458334,0,0,0.26458334,-94.10904,89.235902)" />
    <g
       id="layer10"
       inkscape:label="devices"
       transform="matrix(0.26458334,0,0,0.26458334,-94.10904,89.235902)" />
    <g
       id="layer11"
       inkscape:label="apps"
       transform="matrix(0.26458334,0,0,0.26458334,-94.10904,89.235902)" />
    <g
       id="layer13"
       inkscape:label="places"
       transform="matrix(0.26458334,0,0,0.26458334,-94.10904,89.235902)" />
    <g
       id="layer14"
       inkscape:label="mimetypes"
       transform="matrix(0.26458334,0,0,0.26458334,-94.10904,89.235902)" />
    <g
       id="layer15"
       inkscape:label="emblems"
       style="display:inline"
       transform="matrix(0.26458334,0,0,0.26458334,-94.10904,89.235902)" />
    <g
       id="g71291"
       inkscape:label="emotes"
       style="display:inline"
       transform="matrix(0.26458334,0,0,0.26458334,-94.10904,89.235902)" />
    <g
       id="g4953"
       inkscape:label="categories"
       style="display:inline"
       transform="matrix(0.26458334,0,0,0.26458334,-94.10904,89.235902)" />
    <path
       style="fill:#333333;fill-opacity:1;stroke:none"
       d="M 6,3 C 5.4460116,3 5,3.4460347 5,4 l 0,16 c 0,0.553965 0.4460116,1 1,1 l 5,6.7e-5 0,-2 L 7,19 7,5 14,5 14,7.75 C 14,7.8966457 14.103415,8 14.25,8 L 17,8 17,12 19,12 19,8 18.90625,7.90625 17,6 16,5 14.0625,3.0625 14,3 z"
       transform="matrix(0.26458334,0,0,0.26458334,-5e-7,290.64997)"
       id="rect4143"
       inkscape:connector-curvature="0"
       sodipodi:nodetypes="sssscccccsscccccccccs" />
    <path
       style="font-size:medium;font-style:normal;font-variant:normal;font-weight:normal;font-stretch:normal;text-indent:0;text-align:start;text-decoration:none;line-height:normal;letter-spacing:normal;word-spacing:normal;text-transform:none;direction:ltr;block-progression:tb;writing-mode:lr-tb;text-anchor:start;color:#000000;fill:#333333;fill-opacity:1;fill-rule:nonzero;stroke:none;stroke-width:3;marker:none;visibility:visible;display:inline;overflow:visible;enable-background:accumulate;font-family:Sans;-inkscape-font-specification:Sans"
       sodipodi:nodetypes="cccscccssccccssc"
       id="path3908-6-6"
       d="m 3.9740147,294.04857 c -0.085953,-0.0156 -0.1764506,-0.012 -0.2630064,-7.9e-4 l 0.2582068,0.45739 c 0.053149,0.094 -0.00627,0.20183 -0.1191207,0.26699 l -0.2037053,0.11761 c -0.1139084,0.0633 -0.2408079,0.055 -0.2938648,-0.039 l -0.2581407,-0.45742 c -0.054729,0.0678 -0.1047803,0.14298 -0.1360356,0.22427 -0.1495901,0.3891 0.062643,0.76509 0.4740328,0.83983 0.08595,0.0156 0.1764454,0.012 0.2630012,7.9e-4 0.00696,-10e-4 0.4056593,0.748 0.4056593,0.748 l 0.9260417,-2e-5 -0.708348,-1.09264 c 0.054718,-0.0678 0.098089,-0.14388 0.1293469,-0.22517 0.1495795,-0.38909 -0.062651,-0.76509 -0.4740302,-0.83982 z"
       inkscape:connector-curvature="0" />
  </g>
</svg>
