<?xml version="1.0" encoding="UTF-8" standalone="no"?>
<!-- Created with Inkscape (http://www.inkscape.org/) -->

<svg
   xmlns:dc="http://purl.org/dc/elements/1.1/"
   xmlns:cc="http://creativecommons.org/ns#"
   xmlns:rdf="http://www.w3.org/1999/02/22-rdf-syntax-ns#"
   xmlns:svg="http://www.w3.org/2000/svg"
   xmlns="http://www.w3.org/2000/svg"
   xmlns:sodipodi="http://sodipodi.sourceforge.net/DTD/sodipodi-0.dtd"
   xmlns:inkscape="http://www.inkscape.org/namespaces/inkscape"
   width="24"
   height="24"
   viewBox="0 0 6.3499992 6.3500002"
   id="svg2"
   version="1.1"
   inkscape:version="0.48.5 r10040"
   sodipodi:docname="document-save.svg">
  <defs
     id="defs4" />
  <sodipodi:namedview
     id="base"
     pagecolor="#ffffff"
     bordercolor="#666666"
     borderopacity="1.0"
     inkscape:pageopacity="0.0"
     inkscape:pageshadow="2"
     inkscape:zoom="22.627417"
     inkscape:cx="3.7677384"
     inkscape:cy="12.255264"
     inkscape:document-units="px"
     inkscape:current-layer="layer1"
     showgrid="true"
     inkscape:showpageshadow="false"
     borderlayer="true"
     units="px"
     inkscape:window-width="1920"
     inkscape:window-height="1052"
     inkscape:window-x="0"
     inkscape:window-y="28"
     inkscape:window-maximized="1">
    <inkscape:grid
       type="xygrid"
       id="grid4136" />
    <sodipodi:guide
       position="0.99999995,23.00001"
       orientation="21.999992,0"
       id="guide4140" />
    <sodipodi:guide
       position="0.99999995,1.0000181"
       orientation="0,21.999998"
       id="guide4142" />
    <sodipodi:guide
       position="22.999998,1.0000181"
       orientation="-21.999992,0"
       id="guide4144" />
    <sodipodi:guide
       position="22.999998,23.00001"
       orientation="0,-21.999998"
       id="guide4146" />
    <sodipodi:guide
       position="3.0000016,20.999979"
       orientation="18.000046,0"
       id="guide4190" />
    <sodipodi:guide
       position="3.0000016,2.9999335"
       orientation="0,17.999995"
       id="guide4192" />
    <sodipodi:guide
       position="20.999997,2.9999335"
       orientation="-18.000046,0"
       id="guide4194" />
    <sodipodi:guide
       position="20.999997,20.999979"
       orientation="0,-17.999995"
       id="guide4196" />
  </sodipodi:namedview>
  <metadata
     id="metadata7">
    <rdf:RDF>
      <cc:Work
         rdf:about="">
        <dc:format>image/svg+xml</dc:format>
        <dc:type
           rdf:resource="http://purl.org/dc/dcmitype/StillImage" />
        <dc:title></dc:title>
      </cc:Work>
    </rdf:RDF>
  </metadata>
  <g
     inkscape:label="Capa 1"
     inkscape:groupmode="layer"
     id="layer1"
     transform="translate(0,-290.64997)">
    <g
       id="g3803"
       transform="matrix(0.26458334,0,0,0.26458334,1.0583329,291.7083)"
       style="fill:#333333;fill-opacity:1">
      <path
         id="rect2984-1"
         d="M 1,8 C 0.446,8 0,8.446 0,9 l 0,6 c 0,0.554 0.446,1 1,1 l 14,0 c 0.554,0 1,-0.446 1,-1 L 16,9 C 16,8.446 15.554,8 15,8 l -2,0 -2,2 2,0 c 0.554,0 1,0.446 1,1 l 0,2 c 0,0.554 -0.446,1 -1,1 L 3,14 C 2.446,14 2,13.554 2,13 L 2,11 C 2,10.446 2.446,10 3,10 L 5,10 3,8 1,8 z"
         style="fill:#333333;fill-opacity:1;stroke:none"
         inkscape:connector-curvature="0" />
      <rect
         ry="1"
         rx="1"
         y="11"
         x="3"
         height="2"
         width="10"
         id="rect3754-4"
         style="fill:#333333;fill-opacity:1;stroke:none" />
      <path
         id="rect3756-1"
         d="M 7,0 C 6.446,0 6,0.446 6,1 l 4,0 C 10,0.446 9.554,0 9,0 L 7,0 z M 6,2 6,3 10,3 10,2 6,2 z m 0,2 0,3 4,0 0,-3 -4,0 z"
         style="fill:#333333;fill-opacity:1;stroke:none"
         inkscape:connector-curvature="0" />
      <path
         sodipodi:nodetypes="cccccc"
         inkscape:connector-curvature="0"
         id="path3758-9"
         d="M 5,5 3,5 8,10 13,5 11,5 z"
         style="fill:#333333;fill-opacity:1;stroke:none" />
    </g>
  </g>
</svg>
