<?xml version="1.0" encoding="UTF-8" standalone="no"?>
<!-- Created with Inkscape (http://www.inkscape.org/) -->

<svg
   xmlns:dc="http://purl.org/dc/elements/1.1/"
   xmlns:cc="http://creativecommons.org/ns#"
   xmlns:rdf="http://www.w3.org/1999/02/22-rdf-syntax-ns#"
   xmlns:svg="http://www.w3.org/2000/svg"
   xmlns="http://www.w3.org/2000/svg"
   xmlns:sodipodi="http://sodipodi.sourceforge.net/DTD/sodipodi-0.dtd"
   xmlns:inkscape="http://www.inkscape.org/namespaces/inkscape"
   width="24"
   height="24"
   viewBox="0 0 6.3499992 6.3500002"
   id="svg2"
   version="1.1"
   inkscape:version="0.91+devel r"
   sodipodi:docname="edit-search.svg">
  <defs
     id="defs4" />
  <sodipodi:namedview
     id="base"
     pagecolor="#ffffff"
     bordercolor="#666666"
     borderopacity="1.0"
     inkscape:pageopacity="0.0"
     inkscape:pageshadow="2"
     inkscape:zoom="22.627417"
     inkscape:cx="14.310078"
     inkscape:cy="11.072276"
     inkscape:document-units="px"
     inkscape:current-layer="layer1"
     showgrid="true"
     inkscape:showpageshadow="false"
     borderlayer="true"
     units="px"
     inkscape:window-width="1366"
     inkscape:window-height="670"
     inkscape:window-x="-4"
     inkscape:window-y="29"
     inkscape:window-maximized="1">
    <inkscape:grid
       type="xygrid"
       id="grid4136" />
    <sodipodi:guide
       position="0.99999995,23.00001"
       orientation="21.999992,0"
       id="guide4140" />
    <sodipodi:guide
       position="0.99999995,1.0000181"
       orientation="0,21.999998"
       id="guide4142" />
    <sodipodi:guide
       position="22.999998,1.0000181"
       orientation="-21.999992,0"
       id="guide4144" />
    <sodipodi:guide
       position="22.999998,23.00001"
       orientation="0,-21.999998"
       id="guide4146" />
    <sodipodi:guide
       position="3.0000016,20.999979"
       orientation="18.000046,0"
       id="guide4190" />
    <sodipodi:guide
       position="3.0000016,2.9999335"
       orientation="0,17.999995"
       id="guide4192" />
    <sodipodi:guide
       position="20.999997,2.9999335"
       orientation="-18.000046,0"
       id="guide4194" />
    <sodipodi:guide
       position="20.999997,20.999979"
       orientation="0,-17.999995"
       id="guide4196" />
  </sodipodi:namedview>
  <metadata
     id="metadata7">
    <rdf:RDF>
      <cc:Work
         rdf:about="">
        <dc:format>image/svg+xml</dc:format>
        <dc:type
           rdf:resource="http://purl.org/dc/dcmitype/StillImage" />
        <dc:title />
      </cc:Work>
    </rdf:RDF>
  </metadata>
  <g
     inkscape:label="Capa 1"
     inkscape:groupmode="layer"
     id="layer1"
     transform="translate(0,-290.64997)">
    <path
       style="opacity:1;fill:#333333;fill-opacity:1;stroke:none;stroke-opacity:1"
       d="M 10 3 A 6.9999993 6.9999987 0 0 0 3 10 A 6.9999993 6.9999987 0 0 0 10 17 A 6.9999993 6.9999987 0 0 0 14.185547 15.599609 L 19.291016 20.707031 C 19.682753 21.098768 20.315294 21.098768 20.707031 20.707031 C 21.098768 20.315294 21.098768 19.682753 20.707031 19.291016 L 15.601562 14.185547 A 6.9999993 6.9999987 0 0 0 17 10 A 6.9999993 6.9999987 0 0 0 10 3 z M 10 5 A 4.9999994 4.9999987 0 0 1 15 10 A 4.9999994 4.9999987 0 0 1 10 15 A 4.9999994 4.9999987 0 0 1 5 10 A 4.9999994 4.9999987 0 0 1 10 5 z "
       transform="matrix(0.26458336,0,0,0.26458334,-5.0465271e-7,290.64997)"
       id="rect4154" />
  </g>
</svg>
