<?xml version="1.0" encoding="UTF-8" standalone="no"?>
<!-- Created with Inkscape (http://www.inkscape.org/) -->

<svg
   xmlns:dc="http://purl.org/dc/elements/1.1/"
   xmlns:cc="http://creativecommons.org/ns#"
   xmlns:rdf="http://www.w3.org/1999/02/22-rdf-syntax-ns#"
   xmlns:svg="http://www.w3.org/2000/svg"
   xmlns="http://www.w3.org/2000/svg"
   xmlns:xlink="http://www.w3.org/1999/xlink"
   xmlns:sodipodi="http://sodipodi.sourceforge.net/DTD/sodipodi-0.dtd"
   xmlns:inkscape="http://www.inkscape.org/namespaces/inkscape"
   width="48"
   height="48"
   id="svg2"
   version="1.1"
   inkscape:version="0.48.5 r10040"
   sodipodi:docname="arhiv.svg">
  <defs
     id="defs4">
    <linearGradient
       id="linearGradient3929">
      <stop
         style="stop-color:#313131;stop-opacity:1;"
         offset="0"
         id="stop3931" />
      <stop
         style="stop-color:#555555;stop-opacity:1;"
         offset="1"
         id="stop3933" />
    </linearGradient>
    <linearGradient
       id="linearGradient3757">
      <stop
         style="stop-color:#0f88de;stop-opacity:1;"
         offset="0"
         id="stop3759" />
      <stop
         style="stop-color:#81bffa;stop-opacity:1;"
         offset="1"
         id="stop3761" />
    </linearGradient>
    <linearGradient
       inkscape:collect="always"
       xlink:href="#linearGradient3929"
       id="linearGradient3935"
       x1="27"
       y1="47"
       x2="27"
       y2="2"
       gradientUnits="userSpaceOnUse" />
    <linearGradient
       inkscape:collect="always"
       xlink:href="#linearGradient4524"
       id="linearGradient4530"
       x1="24"
       y1="46"
       x2="24"
       y2="2"
       gradientUnits="userSpaceOnUse" />
    <linearGradient
       id="linearGradient4524">
      <stop
         style="stop-color:#ca7f4f;stop-opacity:1;"
         offset="0"
         id="stop4526" />
      <stop
         style="stop-color:#d99356;stop-opacity:1;"
         offset="1"
         id="stop4528" />
    </linearGradient>
    <linearGradient
       inkscape:collect="always"
       xlink:href="#linearGradient4524"
       id="linearGradient3957"
       x1="24"
       y1="1050.3622"
       x2="24"
       y2="1006.3622"
       gradientUnits="userSpaceOnUse" />
  </defs>
  <sodipodi:namedview
     id="base"
     pagecolor="#ffffff"
     bordercolor="#666666"
     borderopacity="1.0"
     inkscape:pageopacity="0.0"
     inkscape:pageshadow="2"
     inkscape:zoom="72.810305"
     inkscape:cx="15.389083"
     inkscape:cy="21.857314"
     inkscape:document-units="px"
     inkscape:current-layer="layer1"
     showgrid="true"
     inkscape:window-width="1920"
     inkscape:window-height="1052"
     inkscape:window-x="-1"
     inkscape:window-y="1"
     inkscape:window-maximized="1"
     showguides="true"
     inkscape:guide-bbox="true">
    <inkscape:grid
       type="xygrid"
       id="grid3765"
       empspacing="5"
       visible="true"
       enabled="true"
       snapvisiblegridlinesonly="true" />
  </sodipodi:namedview>
  <metadata
     id="metadata7">
    <rdf:RDF>
      <cc:Work
         rdf:about="">
        <dc:format>image/svg+xml</dc:format>
        <dc:type
           rdf:resource="http://purl.org/dc/dcmitype/StillImage" />
        <dc:title></dc:title>
      </cc:Work>
    </rdf:RDF>
  </metadata>
  <g
     inkscape:label="Layer 1"
     inkscape:groupmode="layer"
     id="layer1"
     transform="translate(0,-1004.3622)">
    <rect
       ry="3"
       rx="3"
       y="1007.3622"
       x="5"
       height="44"
       width="38"
       id="rect3988"
       style="fill:#000000;fill-opacity:1;stroke:none;opacity:0.15" />
    <rect
       style="fill:url(#linearGradient3957);fill-opacity:1;stroke:none"
       id="rect3886"
       width="38"
       height="44"
       x="5"
       y="1006.3622"
       rx="3"
       ry="3" />
    <rect
       style="fill:#a8631a;fill-opacity:1;stroke:none;display:inline"
       id="rect3950"
       width="1"
       height="44"
       x="18"
       y="1006.3622" />
    <rect
       y="1006.3622"
       x="29"
       height="44"
       width="1"
       id="rect3952"
       style="fill:#a8631a;fill-opacity:1;stroke:none;display:inline" />
    <rect
       style="fill:#ac6a3d;fill-opacity:1;stroke:none;display:inline"
       id="rect3944"
       width="10"
       height="44"
       x="19"
       y="1006.3622"
       ry="0" />
    <path
       id="path3119"
       d="m 24,1006.3622 0,2 2,0 0,-2 z m 0,2 -2,0 0,2 2,0 z m 0,2 0,2 2,0 0,-2 z m 0,2 -2,0 0,2 2,0 z m 0,2 0,2 2,0 0,-2 z m 0,2 -2,0 0,2 2,0 z m 0,2 0,2 2,0 0,-2 z m 0,2 -2,0 0,2 2,0 z m 0,2 0,2 2,0 0,-2 z m 0,2 -2,0 0,2 2,0 z m 0,2 0,2 c 1.104,0 2,-1 2,-2 z"
       inkscape:connector-curvature="0"
       style="fill:#edd87e;fill-opacity:1;display:inline"
       sodipodi:nodetypes="cccccccccccccccccccccccccccccccccccccccccccccccccccccc" />
    <path
       id="path3121"
       d="m 22,1006.3622 0,2 2,0 0,-2 z m 0,4 0,2 2,0 0,-2 z m 0,4 0,2 2,0 0,-2 z m 0,4 0,2 2,0 0,-2 z m 0,4 0,2 2,0 0,-2 z m 0,4 c 0,1 0.896,2 2,2 l 0,-2 z"
       inkscape:connector-curvature="0"
       style="fill:#b89b24;fill-opacity:1;display:inline"
       sodipodi:nodetypes="ccccccccccccccccccccccccccccc" />
    <path
       style="fill:#fff1ae;fill-opacity:1;display:inline"
       inkscape:connector-curvature="0"
       d="m 24,1028.3622 c -1.6575,0 -3,1.35 -3,3 l 0,7 c 0,1.65 1.3425,3 3,3 1.6575,0 3,-1.35 3,-3 l 0,-7 c 0,-1.65 -1.3425,-3 -3,-3 z m 0,2 c 0.828,0 1.5,0.6 1.5,1.5 0,0.75 -0.672,1.5 -1.5,1.5 -0.828,0 -1.5,-0.75 -1.5,-1.5 0,-0.9 0.672,-1.5 1.5,-1.5 z m 0,4 c 0.828,0 1.5,0.6 1.5,1.5 l 1e-6,1.9997 c 0,0.028 -9.08e-4,0.055 -0.0027,0.083 -0.04692,0.7214 -0.699738,1.4173 -1.497301,1.4173 -0.828,0 -1.5,-0.75 -1.5,-1.5 l -1e-6,-1.9997 c 0,-0.9 0.672,-1.5 1.5,-1.5 z"
       id="path3123"
       sodipodi:nodetypes="sssssssssssscsssssssc" />
    <path
       sodipodi:nodetypes="ccccccccccccccccccccccccc"
       style="fill:#b89b24;fill-opacity:1;display:inline"
       inkscape:connector-curvature="0"
       d="m 24,1008.3622 0,2 2,0 0,-2 z m 0,4 0,2 2,0 0,-2 z m 0,4 0,2 2,0 0,-2 z m 0,4 0,2 2,0 0,-2 z m 0,4 0,2 2,0 0,-2 z"
       id="path3946" />
  </g>
</svg>
