<?xml version="1.0" encoding="UTF-8" standalone="no"?>
<svg
   xmlns:dc="http://purl.org/dc/elements/1.1/"
   xmlns:cc="http://creativecommons.org/ns#"
   xmlns:rdf="http://www.w3.org/1999/02/22-rdf-syntax-ns#"
   xmlns:svg="http://www.w3.org/2000/svg"
   xmlns="http://www.w3.org/2000/svg"
   xmlns:sodipodi="http://sodipodi.sourceforge.net/DTD/sodipodi-0.dtd"
   xmlns:inkscape="http://www.inkscape.org/namespaces/inkscape"
   width="16"
   viewBox="0 0 16 16"
   height="16"
   id="svg2"
   version="1.1"
   inkscape:version="0.48.5 r10040"
   sodipodi:docname="smuxi-group-chat.svg">
  <metadata
     id="metadata12">
    <rdf:RDF>
      <cc:Work
         rdf:about="">
        <dc:format>image/svg+xml</dc:format>
        <dc:type
           rdf:resource="http://purl.org/dc/dcmitype/StillImage" />
      </cc:Work>
    </rdf:RDF>
  </metadata>
  <defs
     id="defs10" />
  <sodipodi:namedview
     pagecolor="#ffffff"
     bordercolor="#666666"
     borderopacity="1"
     objecttolerance="10"
     gridtolerance="10"
     guidetolerance="10"
     inkscape:pageopacity="0"
     inkscape:pageshadow="2"
     inkscape:window-width="1920"
     inkscape:window-height="1052"
     id="namedview8"
     showgrid="false"
     inkscape:zoom="14.75"
     inkscape:cx="-3.1864407"
     inkscape:cy="8"
     inkscape:window-x="0"
     inkscape:window-y="28"
     inkscape:window-maximized="1"
     inkscape:current-layer="svg2" />
  <path
     style="fill:#333333;fill-opacity:1"
     id="path3"
     d="M 7.516,11.094 C 7.688,10.609 9,8.938 9,6.0000005 c 0,-1.657 -1.343,-3 -3,-3 -1.657,0 -3,1.343 -3,3 C 3,8.938 4.313,10.609 4.484,11.094 2.953,11.234 0,12.211 0,14 c 0,0.422 0.336,1 1,1 h 10 c 0.664,0 1,-0.578 1,-1 0,-1.789 -2.953,-2.766 -4.484,-2.906 z m 5.132,-3.0549995 c 0.241,-0.728 1.352,-2.766 1.352,-4.039 0,-1.657 -1.344,-3 -3,-3 -0.84,0 -1.599,0.346 -2.143,0.902 1.293,0.906 2.143,2.404 2.143,4.098 C 11,7.5210005 10.703,8.779 10.355,9.748 11.13,10.055 11.882,10.471 12.501,11 H 15 c 0.578,0 1,-0.453 1,-1 0,-1.258 -2.422,-1.789 -3.352,-1.9609995 z"
     inkscape:connector-curvature="0" />
</svg>
