<?xml version="1.0" encoding="UTF-8" standalone="no"?>
<svg
   xmlns:dc="http://purl.org/dc/elements/1.1/"
   xmlns:cc="http://creativecommons.org/ns#"
   xmlns:rdf="http://www.w3.org/1999/02/22-rdf-syntax-ns#"
   xmlns:svg="http://www.w3.org/2000/svg"
   xmlns="http://www.w3.org/2000/svg"
   xmlns:sodipodi="http://sodipodi.sourceforge.net/DTD/sodipodi-0.dtd"
   xmlns:inkscape="http://www.inkscape.org/namespaces/inkscape"
   enable-background="new 0 0 32 32"
   height="16"
   id="Layer_1"
   version="1.1"
   viewBox="0 0 16 16"
   width="16"
   xml:space="preserve"
   inkscape:version="0.48.5 r10040"
   sodipodi:docname="dokumenti.svg"><metadata
     id="metadata12"><rdf:RDF><cc:Work
         rdf:about=""><dc:format>image/svg+xml</dc:format><dc:type
           rdf:resource="http://purl.org/dc/dcmitype/StillImage" /><dc:title></dc:title></cc:Work></rdf:RDF></metadata><defs
     id="defs10" /><sodipodi:namedview
     pagecolor="#ffffff"
     bordercolor="#666666"
     borderopacity="1"
     objecttolerance="10"
     gridtolerance="10"
     guidetolerance="10"
     inkscape:pageopacity="0"
     inkscape:pageshadow="2"
     inkscape:window-width="1920"
     inkscape:window-height="1052"
     id="namedview8"
     showgrid="true"
     inkscape:zoom="35.118713"
     inkscape:cx="2.5127445"
     inkscape:cy="9.7669388"
     inkscape:window-x="0"
     inkscape:window-y="28"
     inkscape:window-maximized="1"
     inkscape:current-layer="Layer_1"
     showguides="true"
     inkscape:guide-bbox="true"><inkscape:grid
       type="xygrid"
       id="grid2991"
       empspacing="5"
       visible="true"
       enabled="true"
       snapvisiblegridlinesonly="true" /></sodipodi:namedview><path
     inkscape:connector-curvature="0"
     style="opacity:1;fill:#bebebe;fill-opacity:1"
     d="M 7.7481977,2.0200188 C 3.0580398,2.2884673 -1.4786845,5.2487541 0.45874471,11.243869 3.2849471,9.8676085 7.1927766,11.91504 5.5582333,12.932302 8.7783689,16.363999 16.736892,10.832041 15.944921,6.1160337 15.124148,3.242945 11.396097,1.8110032 7.7481977,2.0200188 z m 0.2502816,0.969286 c 1.1058144,0 2.0022527,0.4479627 2.0022527,1.0005532 0,0.5525906 -0.8964383,1.0005533 -2.0022527,1.0005533 -1.1058144,0 -2.0022531,-0.4479627 -2.0022531,-1.0005533 0,-0.5525905 0.8964387,-1.0005532 2.0022531,-1.0005532 z m 4.0045057,2.0011065 c 1.105815,0 2.002253,0.4479627 2.002253,1.0005532 0,0.5525906 -0.896438,1.0005533 -2.002253,1.0005533 -1.105814,0 -2.002253,-0.4479627 -2.002253,-1.0005533 0,-0.5525905 0.896439,-1.0005532 2.002253,-1.0005532 z M 3.993973,5.9909645 c 1.1058144,0 2.0022532,0.4479627 2.0022532,1.0005533 0,0.5525905 -0.8964388,1.0005536 -2.0022532,1.0005536 -1.1058144,0 -2.0022532,-0.4479631 -2.0022532,-1.0005536 0,-0.5525906 0.8964388,-1.0005533 2.0022532,-1.0005533 z m 8.009012,2.0011069 c 1.105815,0 2.002253,0.4479627 2.002253,1.0005533 0,0.5525905 -0.896438,1.0005532 -2.002253,1.0005532 -1.105814,0 -2.002253,-0.4479627 -2.002253,-1.0005532 0,-0.5525906 0.896439,-1.0005533 2.002253,-1.0005533 z M 8.9996059,10.993731 c 1.1058141,0 2.0022531,0.447962 2.0022531,1.000553 0,0.55259 -0.896439,1.000552 -2.0022531,1.000552 -1.1058144,0 -2.0022532,-0.447962 -2.0022532,-1.000552 0,-0.552591 0.8964388,-1.000553 2.0022532,-1.000553 z"
     id="path3028" /></svg>