<?xml version="1.0" encoding="UTF-8" standalone="no"?>
<svg
   xmlns:dc="http://purl.org/dc/elements/1.1/"
   xmlns:cc="http://creativecommons.org/ns#"
   xmlns:rdf="http://www.w3.org/1999/02/22-rdf-syntax-ns#"
   xmlns:svg="http://www.w3.org/2000/svg"
   xmlns="http://www.w3.org/2000/svg"
   xmlns:sodipodi="http://sodipodi.sourceforge.net/DTD/sodipodi-0.dtd"
   xmlns:inkscape="http://www.inkscape.org/namespaces/inkscape"
   height="16px"
   id="Layer_1"
   style="enable-background:new 0 0 16 16;"
   version="1.1"
   viewBox="0 0 16 16"
   width="16px"
   xml:space="preserve"
   inkscape:version="0.48.5 r10040"
   sodipodi:docname="potrebiteli.svg"><metadata
     id="metadata9"><rdf:RDF><cc:Work
         rdf:about=""><dc:format>image/svg+xml</dc:format><dc:type
           rdf:resource="http://purl.org/dc/dcmitype/StillImage" /></cc:Work></rdf:RDF></metadata><defs
     id="defs7" /><sodipodi:namedview
     pagecolor="#ffffff"
     bordercolor="#666666"
     borderopacity="1"
     objecttolerance="10"
     gridtolerance="10"
     guidetolerance="10"
     inkscape:pageopacity="0"
     inkscape:pageshadow="2"
     inkscape:window-width="741"
     inkscape:window-height="480"
     id="namedview5"
     showgrid="false"
     inkscape:zoom="14.75"
     inkscape:cx="19.898305"
     inkscape:cy="8"
     inkscape:window-x="0"
     inkscape:window-y="28"
     inkscape:window-maximized="0"
     inkscape:current-layer="Layer_1" /><path
     d="M7.516,11.094C7.688,10.609,9,8.938,9,6c0-1.657-1.343-3-3-3S3,4.343,3,6c0,2.938,1.313,4.609,1.484,5.094  C2.953,11.234,0,12.211,0,14c0,0.422,0.336,1,1,1h10c0.664,0,1-0.578,1-1C12,12.211,9.047,11.234,7.516,11.094z M12.648,8.039  C12.889,7.311,14,5.273,14,4c0-1.657-1.344-3-3-3c-0.84,0-1.599,0.346-2.143,0.902C10.15,2.808,11,4.306,11,6  c0,1.521-0.297,2.779-0.645,3.748c0.775,0.307,1.527,0.723,2.146,1.252H15c0.578,0,1-0.453,1-1C16,8.742,13.578,8.211,12.648,8.039z  "
     id="path3"
     style="fill:#bebebe;fill-opacity:1" /></svg>