<?xml version="1.0" encoding="UTF-8" standalone="no"?>
<!-- Created with Inkscape (http://www.inkscape.org/) -->

<svg
   xmlns:dc="http://purl.org/dc/elements/1.1/"
   xmlns:cc="http://creativecommons.org/ns#"
   xmlns:rdf="http://www.w3.org/1999/02/22-rdf-syntax-ns#"
   xmlns:svg="http://www.w3.org/2000/svg"
   xmlns="http://www.w3.org/2000/svg"
   xmlns:sodipodi="http://sodipodi.sourceforge.net/DTD/sodipodi-0.dtd"
   xmlns:inkscape="http://www.inkscape.org/namespaces/inkscape"
   width="48"
   height="48"
   id="svg2"
   version="1.1"
   inkscape:version="0.48.5 r10040"
   sodipodi:docname="user-bookmarks.svg">
  <defs
     id="defs4" />
  <sodipodi:namedview
     id="base"
     pagecolor="#ffffff"
     bordercolor="#666666"
     borderopacity="1.0"
     inkscape:pageopacity="0.0"
     inkscape:pageshadow="2"
     inkscape:zoom="8.919992"
     inkscape:cx="19.862641"
     inkscape:cy="9.8003323"
     inkscape:document-units="px"
     inkscape:current-layer="layer1"
     showgrid="true"
     inkscape:window-width="1920"
     inkscape:window-height="1052"
     inkscape:window-x="0"
     inkscape:window-y="28"
     inkscape:window-maximized="1">
    <inkscape:grid
       type="xygrid"
       id="grid3798"
       empspacing="5"
       visible="true"
       enabled="true"
       snapvisiblegridlinesonly="true" />
  </sodipodi:namedview>
  <metadata
     id="metadata7">
    <rdf:RDF>
      <cc:Work
         rdf:about="">
        <dc:format>image/svg+xml</dc:format>
        <dc:type
           rdf:resource="http://purl.org/dc/dcmitype/StillImage" />
        <dc:title />
      </cc:Work>
    </rdf:RDF>
  </metadata>
  <g
     inkscape:label="Layer 1"
     inkscape:groupmode="layer"
     id="layer1"
     transform="translate(0,-1004.3622)">
    <path
       sodipodi:nodetypes="sscccccs"
       inkscape:connector-curvature="0"
       id="path3766"
       d="m 11,1009.3622 c -1.108,0 -2,0.892 -2,2 l 0,35 15,-12 15,12 0,-35 c 0,-1 -1,-2 -2,-2 z"
       style="fill:#000000;fill-opacity:1;stroke:none;opacity:0.15" />
    <path
       style="fill:#d63c4b;fill-opacity:1;stroke:none"
       d="M 11,4 C 9.892,4 9,4.892 9,6 L 9,41 24,29 39,41 39,6 C 39,5 38,4 37,4 z"
       transform="translate(0,1004.3622)"
       id="rect2985"
       inkscape:connector-curvature="0"
       sodipodi:nodetypes="sscccccs" />
    <rect
       style="fill:#f08e8c;fill-opacity:1;stroke:none"
       id="rect3805"
       width="3"
       height="4"
       x="12"
       y="1008.3622" />
    <rect
       y="1015.3622"
       x="12"
       height="6"
       width="3"
       id="rect3807"
       style="fill:#f08e8c;fill-opacity:1;stroke:none" />
    <rect
       style="fill:#f08e8c;fill-opacity:1;stroke:none"
       id="rect3809"
       width="3"
       height="6"
       x="12"
       y="1024.3622" />
    <path
       style="fill:#f08e8c;fill-opacity:1;stroke:none"
       d="m 12,29 0,6 3,0 0,-1.53125 L 15,29 z"
       transform="translate(0,1004.3622)"
       id="rect3811"
       inkscape:connector-curvature="0"
       sodipodi:nodetypes="cccccc" />
    <rect
       style="fill:#f08e8c;fill-opacity:1;stroke:none"
       id="rect3818"
       width="3"
       height="5.9623504"
       x="-36"
       y="1015.3622"
       transform="scale(-1,1)" />
    <rect
       y="1024.3622"
       x="-36"
       height="6"
       width="3"
       id="rect3820"
       style="fill:#f08e8c;fill-opacity:1;stroke:none"
       transform="scale(-1,1)" />
    <path
       id="path3822"
       d="m 36,1033.3622 0,6 -3,0 0,-1.5312 0,-4.4688 z"
       style="fill:#f08e8c;fill-opacity:1;stroke:none"
       inkscape:connector-curvature="0"
       sodipodi:nodetypes="cccccc" />
    <rect
       transform="scale(-1,1)"
       y="1008.3622"
       x="-36"
       height="4.0000234"
       width="3"
       id="rect2997"
       style="fill:#f08e8c;fill-opacity:1;stroke:none" />
    <path
       style="fill:#ffffff;fill-opacity:1;stroke:none;opacity:0.29999999999999999"
       d="M 11 4 C 9.892 4 9 4.892 9 6 L 9 7 C 9 5.892 9.892 5 11 5 L 37 5 C 38 5 39 6 39 7 L 39 6 C 39 5 38 4 37 4 L 11 4 z "
       transform="translate(0,1004.3622)"
       id="path2993" />
  </g>
</svg>
