<?xml version="1.0" encoding="UTF-8" standalone="no"?>
<!-- Created with Inkscape (http://www.inkscape.org/) -->

<svg
   xmlns:dc="http://purl.org/dc/elements/1.1/"
   xmlns:cc="http://creativecommons.org/ns#"
   xmlns:rdf="http://www.w3.org/1999/02/22-rdf-syntax-ns#"
   xmlns:svg="http://www.w3.org/2000/svg"
   xmlns="http://www.w3.org/2000/svg"
   xmlns:xlink="http://www.w3.org/1999/xlink"
   xmlns:sodipodi="http://sodipodi.sourceforge.net/DTD/sodipodi-0.dtd"
   xmlns:inkscape="http://www.inkscape.org/namespaces/inkscape"
   width="48"
   height="48"
   id="svg2"
   version="1.1"
   inkscape:version="0.91 r13725"
   sodipodi:docname="folder-visuals.svg">
  <defs
     id="defs4">
    <linearGradient
       id="linearGradient4214">
      <stop
         id="stop4216"
         offset="0"
         style="stop-color:#ffffff;stop-opacity:0" />
      <stop
         id="stop4218"
         offset="1"
         style="stop-color:#ffffff;stop-opacity:0.18110237" />
    </linearGradient>
    <linearGradient
       id="linearGradient4180">
      <stop
         id="stop4182"
         offset="0"
         style="stop-color:#f16d87;stop-opacity:1;" />
      <stop
         id="stop4184"
         offset="1"
         style="stop-color:#f88ca1;stop-opacity:1;" />
    </linearGradient>
    <linearGradient
       inkscape:collect="always"
       id="linearGradient3874">
      <stop
         style="stop-color:#000000;stop-opacity:1;"
         offset="0"
         id="stop3876" />
      <stop
         style="stop-color:#000000;stop-opacity:0;"
         offset="1"
         id="stop3878" />
    </linearGradient>
    <linearGradient
       inkscape:collect="always"
       id="linearGradient3861">
      <stop
         style="stop-color:#000000;stop-opacity:1;"
         offset="0"
         id="stop3863" />
      <stop
         style="stop-color:#000000;stop-opacity:0;"
         offset="1"
         id="stop3865" />
    </linearGradient>
    <linearGradient
       id="linearGradient3844">
      <stop
         style="stop-color:#000000;stop-opacity:0.39215687;"
         offset="0"
         id="stop3846" />
      <stop
         style="stop-color:#000000;stop-opacity:0;"
         offset="1"
         id="stop3848" />
    </linearGradient>
    <linearGradient
       id="linearGradient3810">
      <stop
         style="stop-color:#f16d87;stop-opacity:1;"
         offset="0"
         id="stop3812" />
      <stop
         style="stop-color:#f88ca1;stop-opacity:1;"
         offset="1"
         id="stop3814" />
    </linearGradient>
    <linearGradient
       inkscape:collect="always"
       id="linearGradient3793">
      <stop
         style="stop-color:#000000;stop-opacity:1;"
         offset="0"
         id="stop3795" />
      <stop
         style="stop-color:#000000;stop-opacity:0;"
         offset="1"
         id="stop3797" />
    </linearGradient>
    <linearGradient
       inkscape:collect="always"
       xlink:href="#linearGradient3793"
       id="linearGradient3799"
       x1="24"
       y1="23"
       x2="24"
       y2="10"
       gradientUnits="userSpaceOnUse"
       gradientTransform="translate(0,1004.3622)" />
    <linearGradient
       inkscape:collect="always"
       xlink:href="#linearGradient3810"
       id="linearGradient3816"
       x1="24"
       y1="1046.3622"
       x2="24"
       y2="1014.3622"
       gradientUnits="userSpaceOnUse" />
    <radialGradient
       inkscape:collect="always"
       xlink:href="#linearGradient3844"
       id="radialGradient3850"
       cx="24.075672"
       cy="41.38316"
       fx="24.075672"
       fy="41.38316"
       r="21.075672"
       gradientTransform="matrix(1,0,0,0.11307633,0,36.703704)"
       gradientUnits="userSpaceOnUse" />
    <linearGradient
       inkscape:collect="always"
       xlink:href="#linearGradient3810"
       id="linearGradient3856"
       gradientUnits="userSpaceOnUse"
       x1="24"
       y1="1046.3622"
       x2="24"
       y2="1014.3622"
       gradientTransform="translate(0,-3)" />
    <linearGradient
       inkscape:collect="always"
       xlink:href="#linearGradient3810"
       id="linearGradient3858"
       gradientUnits="userSpaceOnUse"
       x1="24"
       y1="1046.3622"
       x2="24"
       y2="1014.3622"
       gradientTransform="translate(0,-1004.3622)" />
    <linearGradient
       inkscape:collect="always"
       xlink:href="#linearGradient3861"
       id="linearGradient3867"
       x1="1.9952808"
       y1="28.5625"
       x2="46.004719"
       y2="28.5625"
       gradientUnits="userSpaceOnUse" />
    <linearGradient
       inkscape:collect="always"
       xlink:href="#linearGradient3874"
       id="linearGradient3880"
       x1="24"
       y1="42"
       x2="24"
       y2="38"
       gradientUnits="userSpaceOnUse"
       gradientTransform="translate(-44,1004.3622)" />
    <linearGradient
       inkscape:collect="always"
       xlink:href="#linearGradient3810"
       id="linearGradient3896"
       gradientUnits="userSpaceOnUse"
       x1="24"
       y1="1046.3622"
       x2="24"
       y2="1004.3622" />
    <linearGradient
       inkscape:collect="always"
       xlink:href="#linearGradient3793"
       id="linearGradient3835"
       x1="24"
       y1="42"
       x2="24"
       y2="38"
       gradientUnits="userSpaceOnUse" />
    <linearGradient
       inkscape:collect="always"
       xlink:href="#linearGradient3810"
       id="linearGradient3841"
       gradientUnits="userSpaceOnUse"
       x1="24"
       y1="1046.3622"
       x2="24"
       y2="1004.3622"
       gradientTransform="translate(0,1)" />
    <linearGradient
       inkscape:collect="always"
       xlink:href="#linearGradient3810"
       id="linearGradient3843"
       gradientUnits="userSpaceOnUse"
       x1="24"
       y1="1046.3622"
       x2="24"
       y2="1004.3622"
       gradientTransform="translate(0,-1004.3622)" />
    <linearGradient
       inkscape:collect="always"
       xlink:href="#linearGradient4214"
       id="linearGradient3848"
       gradientUnits="userSpaceOnUse"
       x1="24"
       y1="1046.3622"
       x2="24"
       y2="1004.3622"
       gradientTransform="translate(-3.0000003e-8,-2.4300001e-6)" />
    <linearGradient
       inkscape:collect="always"
       xlink:href="#linearGradient3810"
       id="linearGradient3850"
       gradientUnits="userSpaceOnUse"
       gradientTransform="translate(-26,0)"
       x1="24"
       y1="1046.3622"
       x2="24"
       y2="1004.3622" />
    <linearGradient
       inkscape:collect="always"
       xlink:href="#linearGradient3810"
       id="linearGradient3857"
       gradientUnits="userSpaceOnUse"
       x1="24"
       y1="1046.3622"
       x2="24"
       y2="1004.3622"
       gradientTransform="translate(0,1)" />
    <linearGradient
       inkscape:collect="always"
       xlink:href="#linearGradient3810"
       id="linearGradient3859"
       gradientUnits="userSpaceOnUse"
       x1="24"
       y1="1046.3622"
       x2="24"
       y2="1004.3622"
       gradientTransform="translate(0,-1004.3622)" />
  </defs>
  <sodipodi:namedview
     id="base"
     pagecolor="#ffffff"
     bordercolor="#666666"
     borderopacity="1.0"
     inkscape:pageopacity="0.0"
     inkscape:pageshadow="2"
     inkscape:zoom="10.246154"
     inkscape:cx="-1.9293901"
     inkscape:cy="24.97484"
     inkscape:document-units="px"
     inkscape:current-layer="layer1"
     showgrid="true"
     inkscape:window-width="1366"
     inkscape:window-height="702"
     inkscape:window-x="0"
     inkscape:window-y="27"
     inkscape:window-maximized="1"
     showguides="true"
     inkscape:guide-bbox="true">
    <inkscape:grid
       type="xygrid"
       id="grid2990"
       empspacing="5"
       visible="true"
       enabled="true"
       snapvisiblegridlinesonly="true" />
  </sodipodi:namedview>
  <metadata
     id="metadata7">
    <rdf:RDF>
      <cc:Work
         rdf:about="">
        <dc:format>image/svg+xml</dc:format>
        <dc:type
           rdf:resource="http://purl.org/dc/dcmitype/StillImage" />
        <dc:title />
      </cc:Work>
    </rdf:RDF>
  </metadata>
  <g
     inkscape:groupmode="layer"
     id="layer3"
     inkscape:label="Blob"
     sodipodi:insensitive="true">
    <path
       sodipodi:type="arc"
       style="opacity:0.65;fill:url(#radialGradient3850);fill-opacity:1;stroke:none"
       id="path3842"
       sodipodi:cx="24.075672"
       sodipodi:cy="41.38316"
       sodipodi:rx="21.075672"
       sodipodi:ry="2.3831596"
       d="m 45.151344,41.38316 a 21.075672,2.3831596 0 1 1 -42.151344,0 21.075672,2.3831596 0 1 1 42.151344,0 z"
       transform="matrix(1.1387537,0,0,1.0490275,-3.4162611,-1.9120725)" />
  </g>
  <g
     inkscape:label="Body"
     inkscape:groupmode="layer"
     id="layer1"
     transform="translate(0,-1004.3622)">
    <path
       style="fill:#929292;fill-opacity:1;stroke:none"
       d="m 7,1010.3622 7,0 c 1.228162,0 2,0.8044 2,2 l 25,0 c 1.107999,0 2,0.892 2,2 l 0,7 c 0,1.108 -0.892,2 -2,2 l -34,0 c -1.108,0 -2,-0.892 -2,-2 l 0,-9 c 0,-1.108 0.892,-2 2,-2 z"
       id="rect3789"
       inkscape:connector-curvature="0"
       sodipodi:nodetypes="sccssssssss" />
    <rect
       style="opacity:0.35;fill:url(#linearGradient3799);fill-opacity:1;stroke:none"
       id="rect3791"
       width="38"
       height="13"
       x="5"
       y="1014.3622" />
    <path
       style="fill:#000000;fill-opacity:0.07843138;stroke:none"
       d="m 7,1010.3622 7,0 c 1.228162,0 2,0.8044 2,2 l 25,0 c 1.107999,0 2,0.892 2,2 l 0,7 c 0,1.108 -0.892,2 -2,2 l -34,0 c -1.108,0 -2,-0.892 -2,-2 l 0,-9 c 0,-1.108 0.892,-2 2,-2 z"
       id="rect3789-8"
       inkscape:connector-curvature="0"
       sodipodi:nodetypes="sccssssssss" />
    <path
       style="fill:#929292;fill-opacity:1;stroke:none"
       d="m 5,1018.3622 38,0 c 1.108,0 2,0.8921 2,2 l 0,24 c 0,1.1079 -0.892,2 -2,2 l -38,0 c -1.108,0 -2,-0.8921 -2,-2 l 0,-24 c 0,-1.1079 0.892,-2 2,-2 z"
       id="rect2987-7"
       inkscape:connector-curvature="0"
       sodipodi:nodetypes="sssssssss" />
    <path
       style="fill:url(#linearGradient3848);fill-opacity:1;stroke:none"
       d="m 5,1018.3622 38,0 c 1.108,0 2,0.8921 2,2 l 0,24 c 0,1.1079 -0.892,2 -2,2 l -38,0 c -1.108,0 -2,-0.8921 -2,-2 l 0,-24 c 0,-1.1079 0.892,-2 2,-2 z"
       id="rect2987"
       inkscape:connector-curvature="0"
       sodipodi:nodetypes="sssssssss" />
    <path
       style="opacity:0.1;fill:url(#linearGradient3835);fill-opacity:1;stroke:none;stroke-width:1;stroke-miterlimit:4;stroke-opacity:1;stroke-dasharray:none"
       d="M 3 38 L 3 40 C 3 41.1079 3.892 42 5 42 L 43 42 C 44.108 42 45 41.1079 45 40 L 45 38 L 3 38 z "
       transform="translate(0,1004.3622)"
       id="rect3056" />
    <path
       style="opacity:0.8;fill:#ffffff;fill-opacity:0.78431374;fill-rule:nonzero;stroke:none"
       d="M 32 19 C 29.4496 20.308335 18.738903 28.608122 19.277344 31.808594 C 17.455771 31.653761 17.073983 32.431213 16 34.529297 L 16.65625 34.009766 L 16.054688 35 C 18.626746 34.345913 19.485873 33.600799 19.291016 31.884766 C 22.55294 32.439472 30.647323 21.436912 32 19 z "
       transform="translate(0,1004.3622)"
       id="path75" />
  </g>
  <g
     inkscape:groupmode="layer"
     id="layer2"
     inkscape:label="Insets"
     sodipodi:insensitive="true">
    <path
       inkscape:connector-curvature="0"
       style="opacity:0.15;fill:#ffffff;fill-opacity:1;stroke:none"
       d="m 5,14 c -1.108,0 -2,0.8921 -2,2 l 0,1 c 0,-1.1079 0.892,-2 2,-2 l 38,0 c 1.108,0 2,0.8921 2,2 l 0,-1 c 0,-1.1079 -0.892,-2 -2,-2 L 5,14 z"
       id="path3852" />
    <path
       inkscape:connector-curvature="0"
       style="opacity:0.05;fill:#000000;fill-opacity:1;stroke:none"
       d="M 7,6 C 5.892,6 5,6.892 5,8 L 5,9 C 5,7.892 5.892,7 7,7 l 7,0 c 1.228162,0 2,0.8044 2,2 l 25,0 c 1.107999,0 2,0.892 2,2 l 0,-1 C 43,8.892 42.107999,8 41,8 L 16,8 C 16,6.8044 15.228162,6 14,6 L 7,6 z"
       id="path3880" />
  </g>
</svg>
